<?xml version="1.0" encoding="utf-8"?>
<!-- Generator: Adobe Illustrator 27.0.0, SVG Export Plug-In . SVG Version: 6.00 Build 0)  -->
<svg version="1.1" id="レイヤー_1" xmlns="http://www.w3.org/2000/svg" xmlns:xlink="http://www.w3.org/1999/xlink" x="0px"
	 y="0px" viewBox="0 0 549 203" style="enable-background:new 0 0 549 203;" xml:space="preserve">
<style type="text/css">
	.st0{fill:#231815;}
	.st1{fill:#7A3E3C;}
	.st2{fill-rule:evenodd;clip-rule:evenodd;fill:#E1D9D6;}
	.st3{fill-rule:evenodd;clip-rule:evenodd;fill:#D8CAC5;}
	.st4{fill-rule:evenodd;clip-rule:evenodd;fill:url(#SVGID_1_);}
	.st5{fill-rule:evenodd;clip-rule:evenodd;fill:#CBB5AD;}
	.st6{fill-rule:evenodd;clip-rule:evenodd;fill:url(#SVGID_00000037689185439586201470000012964859194298368692_);}
	.st7{fill-rule:evenodd;clip-rule:evenodd;fill:url(#SVGID_00000062896485655117048460000012295682739311848090_);}
</style>
<g>
	<path class="st0" d="M19.3,22.6l1.6-1.6c0.2-0.2,0.3-0.3,0.5-0.3c0.1,0,0.4,0.2,0.5,0.3l1.8,1.6c0.2,0.2,0.3,0.3,0.3,0.5
		c0,0.2-0.2,0.3-0.4,0.3H4.2c-1,0-2.5,0.1-3.6,0.3L0,22.4c2.4,0.2,4.5,0.2,4.6,0.2H19.3z M18.9,3.5l1.3-1.3c0.2-0.2,0.3-0.3,0.5-0.3
		s0.3,0.2,0.5,0.3l1.7,1.3C23,3.7,23.1,3.8,23.1,4c0,0.3-0.3,0.3-0.4,0.3H5.4c-1,0-2.5,0.1-3.6,0.3L1.1,3.4c2.4,0.2,4.5,0.2,4.6,0.2
		H18.9z M16.5,12.7l1.4-1.3c0.2-0.2,0.3-0.4,0.5-0.4c0.1,0,0.3,0.1,0.5,0.3l1.9,1.4c0.1,0.1,0.3,0.2,0.3,0.4c0,0.3-0.2,0.3-0.4,0.3
		H6.8c-1,0-2.5,0.1-3.6,0.3l-0.6-1.2c2.4,0.2,4.5,0.2,4.6,0.2H16.5z"/>
	<path class="st0" d="M48.2,25.4c-1.7-1.1-3.7-2.9-5.2-4.5c-2.5-2.7-4.4-6.3-5.1-11.8h-0.2c-0.9,7.6-3.3,10.9-5.5,13.1
		c-2.7,2.7-5.3,3.6-6.2,3.9l-0.1-0.2c3.7-2.2,6.7-5.5,8.4-9.5c1-2.3,1.6-4.8,1.9-7.3h-6.7c-1,0-2.5,0.1-3.6,0.3l-0.7-1.2
		c2.1,0.2,4.1,0.2,4.7,0.2h6.4c0.1-0.4,0.2-1.6,0.2-3.1c0-1.6-0.2-2.9-0.3-3.8c-0.1-0.8-0.2-1-0.4-1.3l2.9,0.8
		c0.3,0.1,0.5,0.2,0.5,0.4c0,0.4-0.4,0.6-1,1c0,0.9,0,2.7-0.3,6h8.8l0.9-1.3c0.2-0.2,0.3-0.3,0.4-0.3c0.1,0,0.2,0.1,0.5,0.3l1.8,1.3
		c0.1,0.1,0.3,0.2,0.3,0.4c0,0.3-0.2,0.3-0.4,0.3H38.4c1,4.9,3.6,9.7,8.1,12.4c2.2,1.3,4,1.7,4.8,1.9v0.2
		C49.8,23.9,48.8,24.8,48.2,25.4z"/>
	<path class="st0" d="M66.3,3.7H55.4c-1,0-2.5,0.1-3.6,0.3l-0.7-1.2C53.2,3,55.3,3,55.8,3h7.9l0.6-1c0.2-0.3,0.3-0.4,0.4-0.4
		c0.2,0,0.3,0.1,0.5,0.3L66.5,3c0.2,0.1,0.3,0.2,0.3,0.4C66.7,3.6,66.5,3.7,66.3,3.7z M65.6,15.2c-0.1,0.1-0.6,0.3-0.7,0.4
		c0,1,0,2.5,0.1,4.2c0,0.8,0.1,3.1,0.1,3.8c0,0.6,0,1.4-1,1.4c-0.6,0-0.6-0.2-0.5-1.7h-9.7c0,0.8,0,1.8-1.1,1.8
		c-0.2,0-0.5-0.1-0.5-0.4c0-0.1,0-0.3,0.1-0.5c0.2-1,0.2-4.6,0.2-5.7c0-4.5,0-4.7-0.1-5.4l1.8,1.1h9.2l0.7-0.6
		c0.3-0.3,0.3-0.3,0.4-0.3c0.1,0,0.2,0.1,0.4,0.3l1,0.9c0.3,0.3,0.3,0.3,0.3,0.4C66,15,65.9,15,65.6,15.2z M64,7
		c-0.2,0.1-0.3,0.2-0.5,0.4c0,0.6,0.1,3.1,0.1,3.6c0,0.5-0.2,0.7-0.4,0.8C62.9,12,62.6,12,62.6,12c-0.4,0-0.3-0.4-0.3-0.8h-7.2
		c0,0.4,0,1.1-1.1,1.1c-0.3,0-0.4-0.1-0.4-0.4c0-0.1,0.1-0.8,0.1-0.9c0-1.3,0-2.3,0-2.9c0-2.2-0.1-2.5-0.1-3l1.8,1.1H62l0.5-0.6
		c0.1-0.1,0.2-0.2,0.3-0.2s0.1,0,0.4,0.3l0.9,0.6c0.1,0,0.2,0.2,0.2,0.4C64.4,6.7,64.3,6.8,64,7z M58,14.8h-4.1v3.5H58V14.8z M58,19
		h-4.1v3.7H58V19z M62.3,6.8h-7.2v3.7h7.2V6.8z M63.6,14.8h-4.3v3.5h4.3V14.8z M63.6,19h-4.3v3.7h4.3V19z M69.6,5.2
		c0,1.2-0.1,2.1-0.1,3.7c0,2.8,0.1,7.2,0.1,9.9c0,1.6-1.1,1.6-1.2,1.6c-0.3,0-0.6-0.3-0.6-0.7c0-0.2,0.1-1.2,0.1-1.5
		c0.1-3.9,0.2-7.7,0.2-11.6c0-2-0.1-2.3-0.4-3.5L70,4.1c0.1,0.1,0.3,0.1,0.3,0.4C70.3,4.6,70.2,4.7,69.6,5.2z M74.4,2.9
		c0,1.3-0.1,11-0.1,13c0,1,0.1,5.4,0.1,6.3c0,1.2-0.2,1.8-0.8,2.5c-0.8,0.8-1.4,1-1.9,1.1c-0.7-1.1-1.6-1.7-3.1-2.3v-0.2
		c1.1,0.1,2,0.1,2.2,0.1c1.3,0,2.2,0,2.2-1.8c0-3-0.1-16.2-0.1-18.9c-0.1-0.9-0.2-1.2-0.4-1.8L75,1.7c0.2,0.1,0.4,0.1,0.4,0.4
		C75.4,2.3,75.3,2.5,74.4,2.9z"/>
	<path class="st0" d="M91.2,10.3h-5.6c-1.9,2.4-2.1,2.7-3,3.6l0.2,0.1h4.4l0.7-0.7c0.2-0.1,0.2-0.2,0.3-0.2c0.1,0,0.3,0.1,0.4,0.1
		l1.1,0.8c0.3,0.2,0.4,0.3,0.4,0.5c0,0.3-0.1,0.3-1.1,0.8c0.1,2.5,0.1,4,0.1,5.9c0,0.4,0.1,2.4,0.1,2.8c0,0.9-1.2,1-1.2,1
		c-0.6,0-0.6-0.3-0.5-1.3h-4.8c0,0.9,0,1.8-1.1,1.8c-0.4,0-0.6-0.1-0.6-0.6c0-0.1,0.1-0.7,0.1-0.9c0.1-1.1,0.4-5.5,0.2-8.9
		c-2.5,2.2-4.3,3-5.3,3.5l-0.2-0.1c2-1.4,4.1-3.4,5.4-4.8c0-0.1-0.1-0.6-0.1-0.7l0.4,0.3c1-1.1,2-2.2,2.6-3h-3.2
		c-1,0-2.5,0.1-3.6,0.3l-0.7-1.2c2.1,0.2,4.1,0.2,4.6,0.2h1.1V5.5h-2.6c-0.4,0-1.1,0.1-1.5,0.1L78,4.7c0.5,0.1,1.6,0.1,2,0.1h2.4
		c0-0.4,0-2.3,0-2.7c0-0.9-0.1-1.1-0.3-1.6l2.3,0.8c0.2,0.1,0.4,0.2,0.4,0.4c0,0.4-0.5,0.6-0.9,0.7c-0.1,0.5-0.1,1-0.1,2.4h0.9
		l0.5-0.6c0.2-0.3,0.3-0.3,0.4-0.3c0.2,0,0.4,0.2,0.5,0.3l0.8,0.6C87,4.9,87.1,5,87.1,5.2c0,0.2-0.2,0.3-0.4,0.3h-2.9v0.8
		c0,1.1,0,2.2-0.1,3.4h1c2.5-3.2,3.9-5.9,4.2-6.5c0.2-0.4,0.2-0.7,0.2-1L91,3.5c0.1,0.1,0.2,0.2,0.2,0.4c0,0.4-0.3,0.4-1,0.5
		c-0.6,0.8-3.5,4.5-4.1,5.2h2.5l0.8-1c0.2-0.2,0.3-0.3,0.4-0.3c0.2,0,0.5,0.3,0.5,0.3l1,1c0.1,0.1,0.3,0.3,0.3,0.4
		C91.6,10.3,91.4,10.3,91.2,10.3z M87.5,14.7h-4.8v3.7h4.8V14.7z M87.5,19.1h-4.8V23h4.8V19.1z M99.8,22.2c-0.9,0.5-1.5,0.6-2.1,0.6
		c-0.1-0.5-0.7-1.8-2.1-2.4l0.1-0.2c1.1,0.2,1.7,0.3,2.5,0.3c1.1,0,1.8-0.7,1.8-2.2c0-2.4-1.1-4.8-4.3-7.4c0.9-1.7,2.5-6,3-7.5h-4.5
		c0,4.3,0,12.8,0.1,16.7c0,0.8,0.1,4,0.1,4.6c0,0.8-0.6,1.2-1.3,1.2c-0.5,0-0.5-0.4-0.5-0.6c0-0.1,0.1-0.7,0.1-0.8
		c0.2-4.3,0.2-11.5,0.2-16c0-1.3,0-4.7-0.2-5.8c-0.1-0.3-0.1-0.5-0.3-1l2.3,1h4l0.5-0.5c0.1-0.1,0.2-0.2,0.3-0.2s0.3,0.2,0.4,0.3
		l1.4,1.3c0.1,0.1,0.2,0.2,0.2,0.4c0,0.5-0.5,0.6-1.3,0.6c-0.3,0.5-1,1.4-2.1,3.1c-0.6,1-1.5,2.4-1.9,3c2.4,1.6,5.4,3.8,5.4,7.9
		C101.7,20.2,101.4,21.3,99.8,22.2z"/>
	<path class="st0" d="M103.5,19.2c-0.5,0-1-0.4-1-1.2c0-0.5,0.3-0.7,0.8-1.1c0.8-0.6,2.6-2.7,2.7-5.3h0.2c0.1,0.3,0.3,1.1,0.3,2.2
		C106.5,16.4,105.4,19.2,103.5,19.2z M120.3,24.6c-1.1,0.3-4,0.3-5.2,0.3c-3.5,0-4.6-0.2-4.7-3.3c0-6.3,0-7,0-13
		c0-1.4-0.1-1.6-0.3-2.3l2.6,1c0.3,0.1,0.4,0.2,0.4,0.4c0,0.3-0.3,0.4-1.1,0.8c-0.1,1.4-0.1,8.4-0.1,10.2c0,0.7,0,3.4,0.1,3.8
		c0.1,0.6,0.4,0.9,3.4,0.9c3.3,0,4.1,0,5-4.6l0.2,0c0,0.4,0.1,2.2,0.1,2.5c0.1,1,0.4,1.3,0.6,1.5c0.3,0.2,0.3,0.3,0.3,0.5
		C121.6,23.8,120.9,24.4,120.3,24.6z M116.7,5.6c-0.5,0-1-0.2-1.3-1.5c-0.5-1.7-0.6-2.2-1.6-3.4l0.2-0.2c0.7,0.3,1.8,0.7,2.7,1.5
		c1.1,1.1,1.2,2.2,1.2,2.3C117.8,5.3,117.3,5.6,116.7,5.6z M126.6,18.9c-0.8,0-0.9-0.5-1.3-1.7c-0.8-2.5-1.9-3.7-3.5-5.3l0.1-0.2
		c1.9,1,3.3,1.8,4.2,2.7c0.9,0.9,1.7,2.1,1.7,3.3C127.8,18.1,127.6,18.9,126.6,18.9z"/>
	<path class="st0" d="M136.2,13.2c-0.2,0.8-1.1,4.6-1.3,5.3c-0.4,1.7-0.6,2.5-0.6,3.2c0,0.3,0.1,1.9,0.1,2c0,0.3-0.1,0.7-0.5,0.7
		c-0.4,0-0.9-0.5-1.2-1c-1.3-2.2-1.5-4.3-1.5-7.2c0-0.5,0-1.5,0.2-2.7l0.9-6.1c0.1-0.5,0.2-1.3,0.2-2c0-1.5-0.6-2.2-0.9-2.5
		c1.3-0.2,2.8,1.5,2.8,2.5c0,0.2-0.3,1.2-0.4,1.5c-0.6,1.9-1.6,6-1.6,9.3c0,2.3,0.5,4.1,0.8,4.1c0.2,0,0.3-0.4,0.3-0.4
		c0.9-2.7,1.3-3.8,2.5-6.8L136.2,13.2z M141.5,19.6c1.6,0.7,4,0.8,4.6,0.8c1,0,1.5-0.1,3-0.3c0.2,0,0.4,0,0.5,0c0.5,0,2,0.4,2,1.1
		c0,0.7-1,0.8-2.7,0.8c-1.3,0-5.9-0.2-7.6-1.2c-1.7-1-2-2.7-2-3.3c0-0.4,0.1-0.6,0.1-0.8C140,18.1,140.3,19.1,141.5,19.6z M143.4,9
		c0.6-0.5,2.9-2.3,2.9-2.6c0-0.2-0.8-0.2-0.9-0.2c-0.8,0-3,0.3-5.4,1.2c2.5-2,4.3-2.5,6.2-2.5c1.7,0,4,0.5,4,1.3
		c0,0.5-0.4,0.6-1.4,0.8c-2.5,0.5-4.2,1.5-5.3,2.2L143.4,9z"/>
	<path class="st0" d="M160.7,20.7c3.2,0,8.5-1.3,11.6-2.9c2.4-1.3,3.5-3.7,3.5-5.7c0-3.5-3.1-5.3-5.8-5.3c-3.4,0-8.8,2.7-11.9,5.5
		c-0.5,0.5-0.8,0.6-1.1,0.6c-0.8,0-2.2-1.4-2.2-2.5c0-0.4,0.1-0.7,0.2-0.9c0.3,0.4,0.8,1,1.6,1c0.6,0,1.3-0.3,1.8-0.6
		c4.4-2.4,6.9-3.9,11.2-3.9c5.3,0,7.9,3.2,7.9,6.6c0,4.6-4.3,7-9.4,7.9c-2.2,0.4-4.3,0.5-7.4,0.4V20.7z"/>
	<path class="st0" d="M189.8,3.2c0-0.3-0.4-1-1.7-1.3c0.3-0.3,0.4-0.4,1.1-0.4c1.1,0,1.9,0.7,2.5,1.2c0.3,0.3,0.3,0.4,0.3,0.7
		c0,0.2-0.1,0.3-0.6,1c-0.4,0.5-0.5,0.6-1.3,2.1c0.7-0.2,1.5-0.5,2.5-1c0.9-0.4,1-0.5,1.4-0.5c0.3,0,1.5,0.3,1.5,0.7
		c0,0.3-0.5,0.6-0.6,0.6c-0.6,0.3-1.1,0.4-5.5,1.5c-0.6,1.1-3.4,7.1-3.7,7.5c-0.4,0.6-2,3.4-2.1,3.6c-0.2,0.2-0.4,0.2-0.5,0.2
		c-0.2,0-0.5-0.1-0.5-0.9c0-0.8,0.2-1.1,0.8-1.8c1-1.3,2.3-3.7,3.3-5.6c0.5-0.9,1-2.1,1.3-2.7c-1.1,0.3-1.9,0.4-2.9,0.4
		c-2.5,0-2.7-1.8-2.8-2.2c0.8,0.8,1.5,1,2.5,1c1.1,0,2.7-0.3,3.8-0.5C188.4,6.7,189.8,3.7,189.8,3.2z M197,8.6c3.2,0,5.6,2.7,5.6,4
		c0,0.4-0.3,0.6-0.6,0.6c-0.2,0-0.6-0.2-0.7-0.2c-0.8-0.4-1.1-0.6-2.2-0.6c-1.1,0-2.6,0.3-3.4,1c-0.3,0.4-0.6,0.8-0.6,1.8
		c0,0.8,0.3,3.5,0.4,4.3c2.7,0.6,5.3,1.9,5.3,3.3c0,0.5-0.3,0.8-0.6,0.8c-0.2,0-0.4-0.1-0.6-0.3c-2.3-1.7-2.7-2-4-2.3
		c-0.1,3.7-3.8,3.9-4.4,3.9c-2.1,0-4-1.1-4-2.7c0-1.9,2.4-3,5.1-3c0.7,0,1.2,0.1,1.7,0.1c-0.1-2.3-0.1-2.5-0.1-3.1
		c0-2.9,1.8-3.7,4.8-4.6c0.2-0.1,0.6-0.1,0.6-0.5c0-0.3-0.7-0.8-1.1-1c-0.6-0.4-1.3-0.6-2.8-1.1C195.9,8.7,196.4,8.6,197,8.6z
		 M192.3,20.3c-1.1,0-3.9,0.3-3.9,1.8c0,1.1,1.7,1.4,2.5,1.4c0.9,0,3.4-0.3,3.3-2.9C193.9,20.4,193.2,20.3,192.3,20.3z"/>
	<path class="st0" d="M212.5,19.8c2.6,1.8,2.9,2,3.6,2c0.5,0,0.9-0.4,1.1-0.9c1.7-3.4,2-7,2-8.7c0-1.3,0-3.1-1.9-3.1
		c-0.7,0-1.4,0.1-2.4,0.4c-2.3,5.7-4.6,11.4-6.4,13.9c-0.1,0.2-0.3,0.4-0.6,0.4c-0.4,0-0.6-0.8-0.6-1.2c0-0.4,0-0.5,1-2
		c2.3-3.6,3.6-6.8,5.3-10.7c-2.1,0.7-3.1,1.1-4.1,1.8c-0.4,0.3-0.8,0.5-1.1,0.5c-0.5,0-2.3-0.9-2.3-2.6c0-0.3,0.1-0.4,0.2-0.7
		c0.6,1.1,1.1,1.5,1.8,1.5c0.2,0,0.5,0,1.3-0.3c1.3-0.4,3.1-0.9,4.6-1.3c0.4-1.1,1.4-3.6,1.4-4.6c0-1.3-1.9-1.8-2.2-1.9
		c0.3-0.2,0.5-0.4,1.1-0.4c1.1,0,3.1,0.8,3.1,1.8c0,0.3-0.2,0.7-0.3,0.9c-0.8,1.4-1.1,2.3-1.8,3.9c0.5-0.1,1.2-0.3,2-0.3
		c3.3,0,3.3,2.9,3.3,4.4c0,2.7-0.8,9.1-3.8,11.3c-0.5,0.4-1.1,0.6-1.4,0.6c-0.4,0-0.4-0.1-0.7-1.1c-0.2-0.9-1.6-2.7-2.3-3.4
		L212.5,19.8z M224.2,14.3c1.5-0.1,2.7-0.4,2.9-0.5c0.4-0.1,0.7-0.4,0.7-0.8c0-0.5-1.6-3.1-5.5-5.5c2.5-0.1,7.6,3.7,7.6,7.2
		c0,0.5-0.1,1.2-0.6,1.2c-0.2,0-1-0.5-1.2-0.6c-0.6-0.2-3.5-0.7-4-0.8V14.3z M224.1,4.6c1.3,0,4.5,0.9,4.5,2.5
		c0,0.2-0.1,0.7-0.6,0.7c-0.3,0-1.1-0.9-1.3-1c-1.4-1.1-2.7-1.6-3.6-2C223.4,4.6,223.7,4.6,224.1,4.6z M227,2.4
		c1.3,0,4.3,0.4,4.3,2.4c0,0.3-0.1,0.6-0.4,0.6c-0.3,0-1.3-1-1.5-1.1c-0.4-0.3-1.6-1-3.9-1.7C226,2.5,226.5,2.4,227,2.4z"/>
	<path class="st0" d="M239.2,4.1c0.6,0,3.5-0.6,5.1-1.1c0.5-0.1,1.2-0.4,1.5-0.4c0.8,0,1.8,1.1,1.8,1.8c0,0.3-0.1,0.4-0.6,0.8
		c-0.6,0.4-0.8,0.6-1.2,1.1c-0.8,1-4.4,5.5-5.1,6.4c-0.4,0.5-0.8,1-1.5,2c1.4-0.9,3.9-2.3,7.1-2.3c4.1,0,6.1,2.4,6.1,5.3
		c0,3.7-3.4,6.3-7.7,6.3c-2.4,0-5.4-0.9-5.4-3c0-1.9,1.8-2.3,2.9-2.3c2.3,0,3.6,1.5,4.3,3.8c2.8-0.4,4.2-2.9,4.2-5
		c0-2.9-2.1-4.4-4.8-4.4c-5.3,0-9.3,5.1-9.6,5.5c-0.7,1.2-1,1.7-1.6,1.7c-0.4,0-0.6-0.3-0.6-0.9c0-0.9,0.3-1.2,0.9-1.8
		C239.2,13.5,245,5.5,245,4.4c0-0.4-0.3-0.4-0.4-0.4c-0.4,0-3.2,0.8-4.2,1.4c-0.3,0.2-0.9,0.6-1.1,0.6c-0.8,0-2.3-1.2-2.3-2.5
		c0-0.3,0.1-0.4,0.3-0.6C237.6,3.7,238.3,4.1,239.2,4.1z M241.6,19.8c-0.7,0-1.4,0.4-1.4,1.1c0,1.4,3,2,3.8,2c0.2,0,0.5,0,1-0.2
		C244.6,21.1,242.8,19.8,241.6,19.8z"/>
	<path class="st0" d="M257.7,18.4c1.3,0.3,3.5,0.7,5.3,2.2c1.6,1.4,1.6,2.9,1.6,3.2c0,0.9-0.7,1.5-1.3,1.5c-0.4,0-0.8-0.4-1.3-1.5
		c-1.4-2.8-2-4-4.3-5L257.7,18.4z"/>
	<path class="st0" d="M305.8,25.5c-1.2-0.2-3.8-0.8-6.5-2.7c-1.1-0.8-2.8-2.3-3.8-5.1H295c-0.6,2.3-1.8,4.4-4.7,6.1
		c-2.1,1.2-4.5,1.9-7,2v-0.2c4.2-0.9,6.7-2.9,7.9-4.1c1.6-1.6,2-3,2.1-3.8h-6.4c-1,0-2.5,0.1-3.6,0.3l-0.7-1.2
		c2.1,0.2,4.1,0.2,4.6,0.2h6.2c0.2-1.1,0.3-2,0.3-2.6s-0.1-0.9-0.1-1.1H287c-1,0-2.5,0.1-3.6,0.3l-0.7-1.2c2.1,0.2,4.1,0.2,4.7,0.2
		h6.5V9.2h-4.3c-1,0-2.5,0.1-3.6,0.3l-0.6-1.2c2.1,0.2,4.1,0.2,4.6,0.2h3.9V5.9h-6c-1,0-2.5,0.1-3.6,0.3L283.6,5
		c2.1,0.2,4.1,0.2,4.6,0.2h8.3c0.3-0.6,0.9-1.8,1.5-3.5c0.2-0.5,0.2-0.7,0.3-1.7l2.4,1.3c0.2,0.1,0.3,0.2,0.3,0.4
		c0,0.3-0.2,0.4-0.3,0.4c-0.1,0.1-0.7,0.3-0.8,0.3c-1.1,1-1.6,1.5-2.9,2.7h5.9l1-1.1c0.3-0.3,0.3-0.4,0.4-0.4c0.2,0,0.5,0.2,0.6,0.3
		l1,1c0.3,0.3,0.3,0.4,0.3,0.5c0,0.3-0.3,0.3-0.4,0.3h-10.4v2.7h5.6l0.4-0.7c0.3-0.4,0.4-0.4,0.5-0.4c0.1,0,0.3,0.1,0.5,0.3l1,0.8
		c0.1,0.1,0.3,0.2,0.3,0.4c0,0.3-0.2,0.3-0.4,0.3h-7.9v3.3h9l0.8-1.2c0.1-0.1,0.3-0.4,0.5-0.4c0.2,0,0.4,0.2,0.5,0.3l1.3,1.1
		c0.2,0.2,0.3,0.3,0.3,0.5c0,0.3-0.3,0.3-0.4,0.3h-13.5l1.7,0.4c0.3,0.1,0.5,0.2,0.5,0.4c0,0.3-0.4,0.5-0.7,0.6
		c-0.1,0.8-0.1,1.4-0.3,2.3h8.7l1-1.1c0.3-0.3,0.3-0.4,0.4-0.4c0.2,0,0.5,0.3,0.5,0.3l1.4,1.1c0.1,0.1,0.3,0.3,0.3,0.4
		c0,0.3-0.3,0.3-0.4,0.3h-11.2c2.1,3.6,6.5,5.8,10.9,5.8c0.4,0,0.8,0,1.1-0.1l0.1,0.2C306.4,24.3,306,25,305.8,25.5z M291.6,4.3
		c-0.7,0-1-0.6-1.4-1.3c-0.5-1-0.9-1.6-1.8-2.1l0.1-0.2c3.3,0.3,4,2,4,2.6C292.5,4,292.1,4.3,291.6,4.3z"/>
	<path class="st0" d="M331.8,18.3c-2,3.8-6.8,6.4-11.2,6.4c-0.8,0-3.2-0.2-4.1-1.3c-0.9-1.1-1.1-2.8-1.1-5.6c0-0.4,0.1-6,0.2-6.8
		c0-0.9,0.2-4.6,0.2-5.4c0-2.3-0.8-2.6-2-3.1c0.2-0.2,0.5-0.4,1.2-0.4c1.2,0,2.7,1.3,2.7,2.1c0,0.3-0.1,1-0.2,1.5
		c-0.6,3.4-1,9.1-1,12.6c0,1.1,0,3.5,0.6,4.3c0.6,0.8,1.7,1,2.7,1c3.5,0,9.6-2.9,12-5.3L331.8,18.3z"/>
	<path class="st0" d="M346.2,11.7c-0.4,0.8-3.4,6.9-3.5,7.2c-0.1,0.4-0.2,0.7-0.2,1c0,0.2,0.2,1.1,0.2,1.3c0,0.3-0.2,0.6-0.7,0.6
		s-3.5-0.2-4.9-6.1c-0.3-1-0.3-1.5-0.6-5.8c-0.2-2.3-0.3-3-1.3-4.7c1.5,0.1,3.1,1.6,3.1,2.9c0,0.3,0,0.4-0.2,1.2
		c-0.2,1-0.2,1.7-0.2,2.4c0,1.6,0.4,5.5,2.1,6.9c0.1,0.1,0.4,0.3,0.6,0.3c0.3,0,0.6-0.2,0.7-0.4c2.1-3.2,2.3-3.6,4.3-6.5
		c0-0.1,0.2-0.3,0.3-0.4L346.2,11.7z M352.5,15.1c0.4-0.1,2.2-0.3,2.6-0.4c0.2,0,0.7-0.1,0.7-0.7c0-0.6-1.2-5.1-5.2-6.6
		c0.1-0.1,0.5-0.2,0.9-0.2c0.5,0,1.9,0.3,3.2,1.7c2.1,2.4,3,5.3,3,6.6c0,0.8-0.4,1.7-0.8,1.7c-0.2,0-0.3-0.1-1-0.6
		c-1-0.8-1.6-0.9-3.4-1.3V15.1z"/>
	<path class="st0" d="M383.2,21.5c-2.3-0.8-3.8-1.9-4.9-2.8c-0.1,0.1-0.2,0.1-0.4,0.3c0,1,0.2,5.3,0.2,6.2c0,0.6-0.6,0.9-1.1,0.9
		c-0.5,0-0.5-0.3-0.5-1.1h-8.9c0,0.6,0,0.7-0.1,0.8c-0.2,0.3-0.7,0.4-1,0.4c-0.4,0-0.4-0.2-0.4-0.4c0-0.3,0.1-6.5,0.1-7
		c-1.1,0.8-3.7,3-7.2,3.8v-0.1c1.3-0.6,4.8-2.2,9-6.8h-4.2c-1,0-2.5,0.1-3.6,0.3l-0.6-1.2c2.1,0.2,4.1,0.2,4.6,0.2h4.4
		c1-1.1,1.4-2,1.7-2.5h-4.1c0,0.7-0.8,1-1.1,1c-0.4,0-0.4-0.2-0.4-0.5c0-0.2,0-0.8,0-0.9c0.1-1.4,0.1-2.9,0.1-4.2
		c0-0.9-0.1-1.4-0.2-1.9l1.9,0.9h11.2l0.4-0.4c0.3-0.3,0.3-0.3,0.5-0.3c0.1,0,0.1,0,0.4,0.2l0.9,0.6c0.1,0.1,0.3,0.3,0.3,0.4
		c0,0.1-0.1,0.3-0.3,0.4c-0.2,0.1-0.3,0.2-0.4,0.4c0,0.8,0,1.8,0,2.6c0,0.3,0.1,1.7,0.1,1.8c0,0.6-0.7,0.8-1,0.8
		c-0.4,0-0.4-0.4-0.4-0.8h-6.8l0.6,0.3c0.1,0,0.2,0.2,0.2,0.4c0,0.3-0.3,0.4-1,0.5c-0.3,0.4-0.4,0.5-1.1,1.3h11.1l0.9-1.2
		c0.1-0.2,0.3-0.4,0.4-0.4c0.2,0,0.4,0.2,0.5,0.3l1.4,1.2c0.2,0.1,0.3,0.2,0.3,0.4c0,0.3-0.2,0.3-0.4,0.3H376
		c2.3,2.6,5.7,3.7,9.1,4.2v0.1C384.1,20.1,383.7,20.7,383.2,21.5z M383.8,3.9h-8c0,0.2,0.1,1,0.1,1.2c0,0.5-0.7,0.7-1,0.7
		c-0.3,0-0.4-0.2-0.4-0.4V3.9h-5.3c0,0.5,0,1.2-0.1,1.4c-0.2,0.3-0.6,0.6-1,0.6c-0.2,0-0.4-0.1-0.4-0.4c0-0.2,0-1.3,0-1.5h-3.3
		c-1,0-2.5,0.1-3.6,0.3l-0.7-1.2c2.1,0.2,4.1,0.2,4.7,0.2h2.9c0-1.8-0.1-2.1-0.3-2.8l2,0.5c0.2,0.1,0.4,0.1,0.4,0.3
		c0,0.2-0.1,0.3-0.7,0.6v1.4h5.3c0-1.9,0-2.1-0.2-2.7L376,1c0.3,0.1,0.5,0.1,0.5,0.3c0,0.2,0,0.2-0.8,0.7c0,0.5,0,0.8,0,1.3h5.1
		l0.8-1.1c0.3-0.4,0.4-0.4,0.4-0.4c0.2,0,0.5,0.3,0.5,0.3l1.3,1.1c0.2,0.1,0.3,0.3,0.3,0.4C384.2,3.9,383.9,3.9,383.8,3.9z
		 M378.2,7.3h-12v1.8h12V7.3z M378.2,9.8h-12v1.9h12V9.8z M375.6,15.5h-6c-1.1,1.1-1.7,1.7-2.2,2.2l0.1,0h9.2l0.3-0.4
		C376.5,16.9,376.1,16.4,375.6,15.5z M376.6,18.4h-8.9v2.5h8.9V18.4z M376.6,21.6h-8.9v2.6h8.9V21.6z"/>
	<path class="st0" d="M395.1,24.2c2.3-0.3,4.2-1.1,5.1-1.5c2.9-1.2,5.1-2.9,5.1-5.6c0-2.2-1.6-3.8-3.8-3.8c-4.2,0-8.4,3.6-9.5,5.5
		c-0.3,0.4-0.3,0.6-0.6,0.6c-0.7,0-1.3-1.5-1.3-2.2c0-0.3,0.2-1,0.3-1.5c0.2-1,0.6-4.1,0.6-6.2c0-2.2,0-2.4,0.4-3.1
		c0.7-1,1.1-1.1,4.5-1.8c0.1,0,0.3-0.1,0.3-0.2c0-0.1-0.1-0.2-0.5-0.4c-0.6-0.3-2.3-1.5-2.2-2.8c0.9,0.8,2.1,1.4,4.1,2.3
		c1.6,0.7,1.8,1.9,1.8,2.3c0,0.6-0.3,0.6-0.5,0.6c-0.4,0-0.6-0.1-1.2-0.4c-0.4-0.2-1.6-0.3-2.5-0.3c-1.1,0-3.4,0.1-3.4,1.8
		c0,0.6,0.2,1.3,0.3,1.4c0.1,0.3,0.3,1,0.3,1.3c0,0.1-0.2,1-0.2,1.2c-0.1,0.2-0.6,2.7-0.6,4.4c0,0.3,0.1,0.6,0.4,0.6
		c0.1,0,0.1,0,0.3-0.2c2.6-2.3,6.4-3.8,9.3-3.8c3.5,0,5.3,2.6,5.3,4.9c0,2.9-2.5,4.7-3.9,5.4c-2.1,1-4.6,1.6-8,1.6V24.2z"/>
	<path class="st0" d="M434.6,18.3c-2,3.8-6.8,6.4-11.2,6.4c-0.8,0-3.2-0.2-4.1-1.3c-0.9-1.1-1.1-2.8-1.1-5.6c0-0.4,0.1-6,0.2-6.8
		c0-0.9,0.2-4.6,0.2-5.4c0-2.3-0.8-2.6-2-3.1c0.2-0.2,0.5-0.4,1.2-0.4c1.2,0,2.7,1.3,2.7,2.1c0,0.3-0.1,1-0.2,1.5
		c-0.6,3.4-1,9.1-1,12.6c0,1.1,0,3.5,0.6,4.3c0.6,0.8,1.7,1,2.7,1c3.5,0,9.6-2.9,12-5.3L434.6,18.3z"/>
	<path class="st0" d="M450,23.1c8.4-2.9,8.8-8.9,8.8-10.3c0-4.9-4.6-7.5-8.8-7.5c-0.6,0-0.8,0.1-1,0.1c1.4,1.1,1.4,2,1.4,2.1
		c0,0.3-0.1,0.4-0.7,1.7c-3.4,7.2-3.7,7.9-5.3,10.2c-0.1,0.2-1,1.5-1.6,1.7c-0.2,0.1-0.4,0.1-0.5,0.1c-0.6,0-0.8-0.3-1.6-1.4
		c-0.2-0.3-0.4-0.4-0.8-0.8c-1.1-0.9-1.5-1.9-1.5-3.8c0-5.6,4.7-10.9,11.9-10.9c5.1,0,10.2,2.9,10.2,8.7c0,5.1-4.1,9.7-10.4,10.3
		L450,23.1z M446.8,12.2c0.8-1.6,1.6-3.7,1.6-4.9c0-1-0.6-1.5-0.8-1.8c-3.1,0.3-7.9,4.4-7.9,9.9c0,2.1,1.3,4,2.4,4
		c0.2,0,0.4,0,0.5-0.2c0.6-0.6,1.1-1.5,1.6-2.5L446.8,12.2z"/>
	<path class="st0" d="M486.3,25c-0.7,0.1-1.2,0.1-2.9,0.1c-8.9,0-14.7-0.4-17.4-6.8c-0.5,2.7-1.1,4.3-3.9,7.2l-0.1-0.1
		c1.5-2.6,3-5.2,3-11c0-0.8-0.1-0.9-0.3-1.3l2.1,0.6c0.4,0.1,0.5,0.1,0.5,0.4c0,0.2,0,0.3-0.8,0.8c-0.1,1.1-0.2,1.8-0.4,3
		c0.8,1.2,1.6,2.2,2.5,3c0-1.1-0.1-7.1-0.1-7.3c0-1.2-0.1-1.5-0.2-2.2h-1.7c-0.9,0-2.4,0.1-3.6,0.3l-0.7-1.2
		c1.5,0.1,3.1,0.2,4.6,0.2h1.5c0-1.5,0-3.1,0-4.5h-1c-0.9,0-2.5,0.1-3.6,0.3l-0.6-1.2c1.5,0.1,3.1,0.2,4.6,0.2h0.6
		c0-0.5,0-2.9-0.1-3.3c0-0.5-0.1-1-0.4-2l2.3,0.7c0.3,0.1,0.5,0.2,0.5,0.4S470.8,1.6,470,2c0,0.4,0,1.1,0,3.4h1.9l0.8-0.9
		c0.3-0.3,0.3-0.3,0.5-0.3c0.1,0,0.2,0.1,0.5,0.3l0.9,0.9c0.3,0.2,0.3,0.4,0.3,0.4c0,0.3-0.3,0.3-0.4,0.3h-4.5c0,0.6,0,4.1,0,4.5
		h2.3l0.9-1.2c0.3-0.3,0.3-0.4,0.4-0.4c0.2,0,0.2,0.1,0.5,0.3l1.3,1.1c0.2,0.2,0.3,0.3,0.3,0.4c0,0.3-0.3,0.3-0.4,0.3h-6l1.3,0.4
		c0.3,0.1,0.5,0.2,0.5,0.4c0,0.3-0.1,0.3-0.9,0.8c0,0.4,0,2.3,0,2.7h1.6l0.8-1.1c0.1-0.2,0.2-0.4,0.4-0.4c0.1,0,0.3,0.1,0.5,0.3
		l1.1,1.1c0.1,0.1,0.3,0.3,0.3,0.4c0,0.3-0.2,0.3-0.4,0.3H470c0,1.4,0,4.1,0.1,5.5c2.7,1.5,7.2,1.6,8.8,1.6c3,0,6.1-0.3,9-1.1
		l0.1,0.2C487.8,22.7,486.6,23.6,486.3,25z M485.8,18.8c-0.6,0.2-1.2,0.3-4.2,0.3c-5.1,0-5.1-0.1-5.1-3.1c0-0.9-0.1-4.9-0.1-5.8
		c0-0.7,0-0.8,0-1.2l1.9,0.7h5.4V4.1h-3.9c-0.9,0-2.5,0.1-3.6,0.3l-0.6-1.2c1.5,0.1,3.1,0.2,4.6,0.2h3.2l0.4-0.5
		c0.3-0.3,0.3-0.4,0.5-0.4c0.1,0,0.2,0,0.5,0.2l1.1,0.8c0.2,0.1,0.3,0.3,0.3,0.4c0,0.3-0.3,0.5-1,0.9c0,0.2-0.1,0.4-0.1,0.6
		c0,0.8,0.2,4.3,0.2,5c0,0.7-1,1-1.1,1c-0.5,0-0.5-0.4-0.5-0.8h-5.6c-0.1,1.1-0.1,4.9-0.1,6.2c0,0.6,0.1,1,0.7,1
		c0.4,0,1.8,0.1,2.8,0.1c3,0,3.4-0.5,3.7-0.9c0.3-0.4,0.8-2,1-3.1h0.2c0,0.3,0.2,2.2,0.3,2.5c0.1,0.3,0.1,0.3,0.6,0.6
		c0.1,0.1,0.2,0.2,0.2,0.4C487.5,17.8,487,18.4,485.8,18.8z"/>
	<path class="st0" d="M489.9,25.8c-0.8,0-1-0.5-1-0.9c0-0.3,0.1-0.6,0.8-1.2c1.1-0.8,1.8-1.4,2.5-3.6h0.2c0,0.4,0.1,0.8,0.1,1.3
		C492.4,24.3,491.3,25.8,489.9,25.8z M511.8,5.7h-10.5v3.4h5.5l0.4-0.6c0.2-0.3,0.3-0.3,0.3-0.3c0.2,0,0.4,0.2,0.4,0.2l1,0.8
		c0.2,0.2,0.3,0.3,0.3,0.4c0,0.3-0.1,0.3-0.9,0.8c0,2.7,0,4.1,0.1,5.6c0,0.3,0.1,1.8,0.1,2.1c0,0.7-0.8,1-1.2,1
		c-0.5,0-0.5-0.2-0.5-1.7h-11.8c0.1,0.7,0,0.9-0.1,1.1c-0.3,0.5-1.1,0.6-1.3,0.6c-0.3,0-0.4-0.2-0.4-0.5c0-0.1,0-0.3,0.1-0.7
		c0.2-1.5,0.2-5.1,0.2-6.2c0-2.1-0.1-2.7-0.3-3.8l2,1.2h4.5c0-1.1,0-4.1-0.1-5.3c-0.1-2.4-0.3-2.8-0.6-3.5l2.5,0.5
		c0.2,0,0.4,0.1,0.4,0.4c0,0.4-0.3,0.5-0.8,0.7v3h7.6l0.8-1.2c0.1-0.1,0.3-0.4,0.5-0.4c0.2,0,0.4,0.2,0.5,0.3l1.3,1.3
		c0.2,0.2,0.3,0.3,0.3,0.4C512.2,5.7,511.9,5.7,511.8,5.7z M506.9,9.7h-11.8v7h11.8V9.7z M498.1,25.1c-0.4,0-0.8-0.2-0.8-0.9
		c0-0.2,0.1-1.1,0.1-1.3c0-1.5-0.2-2-0.3-2.4l0.1-0.1c0.8,0.8,2.1,2,2.1,3.5C499.2,24.9,498.5,25.1,498.1,25.1z M505,25
		c-0.8,0-0.9-0.6-1-1.3c-0.2-1-0.4-1.5-1.1-3l0.2-0.1c1.9,1.1,2.9,2.3,2.9,3.6C505.9,24.7,505.3,25,505,25z M512,25.3
		c-0.6,0-0.9-0.5-1.2-1.3c-0.7-1.6-1-2.1-2.2-3.4l0.2-0.2c2.1,0.8,4.2,2.3,4.2,3.7C513,24.9,512.5,25.3,512,25.3z"/>
	<path class="st0" d="M514.7,21c0-2.3,1.8-4.1,4.1-4.1c2.2,0,4.1,1.8,4.1,4.1c0,2.3-1.9,4.1-4.1,4.1C516.5,25.1,514.7,23.3,514.7,21
		z M522,21c0-1.8-1.5-3.3-3.3-3.3c-1.9,0-3.3,1.5-3.3,3.3c0,1.8,1.4,3.3,3.3,3.3C520.5,24.3,522,22.9,522,21z"/>
	<path class="st0" d="M15.9,53.6c0.9-1.1,2.6-3.2,3.8-5.5c-0.6,0.2-1.2,0.4-6.5,2c-0.4,0.1-2,0.6-2.4,0.7c0,0.8-0.1,2.1-0.1,3.5
		c0,5.1,0.1,5.8,3.5,5.8c1.4,0,3.1-0.2,5.1-0.7c0.3-0.1,0.6-0.1,0.8-0.1c0.4,0,1.4,0.2,1.6,0.4c0.1,0.1,0.2,0.3,0.2,0.5
		c0,0.4-0.3,0.6-0.6,0.6C20.9,61,18,61.4,15,61.4c-1.7,0-3.5,0-4.6-1.1c-0.8-0.8-1-1.3-1-5.5c0-1.2,0-2.2,0.1-3.6
		c-3.4,1-3.4,1.1-5.1,2c-0.2,0.1-0.4,0.2-0.8,0.2c-0.4,0-0.9-0.4-1.3-0.7c-0.9-0.9-0.9-1.5-0.9-1.8c0-0.3,0-0.4,0.1-1
		c1.2,1.6,1.7,1.7,2.2,1.7c0.8,0,2-0.3,5.9-1.4c0-0.5,0.1-1.5,0.1-3c0-0.8,0-3.5-0.3-4c0-0.1-0.6-0.9-2.1-1.3
		c0.7-0.3,1.1-0.5,1.9-0.5c1.3,0,2.7,0.8,2.7,1.5c0,0.1-0.2,0.6-0.3,1c-0.3,1.1-0.5,4.5-0.6,5.9c0.8-0.2,4.2-1.2,4.9-1.4
		c3.4-1,3.4-1.1,4.2-1.7c0.3-0.2,0.4-0.3,0.6-0.3c0.6,0,2.6,1.8,2.6,2.3c0,0.4-0.4,0.5-0.7,0.5c-0.1,0-0.5-0.1-0.6,0
		c-0.2,0-0.4,0.1-0.8,0.5c-1.9,1.8-2.9,2.6-4.9,4.2L15.9,53.6z"/>
	<path class="st0" d="M41.9,58.9c1.6,1,2,2.4,2,2.7c0,0.3-0.2,0.8-0.8,0.8c-0.5,0-0.8-0.3-1.8-1.3c-2.7-2.5-6.7-4.1-11.4-5.4
		C34.3,55.5,39.2,57.2,41.9,58.9z M32.8,42c1,0,5.7,0.4,8.3,1.9c1.1,0.6,1.4,1.6,1.4,1.8c0,0.3-0.1,0.7-0.6,0.7
		c-0.3,0-1-0.4-1.3-0.6c-2.9-1.9-3.7-2.3-9.1-3.7C32.2,42,32.5,42,32.8,42z M33.3,48.9c2.7,0,5.6,0.8,7.2,1.5c1,0.5,1.5,1.4,1.5,1.8
		s-0.3,0.7-0.7,0.7c-0.4,0-0.8-0.3-1.6-0.9c-1.1-0.8-2.8-1.6-7.4-3C32.9,48.9,33,48.9,33.3,48.9z"/>
	<path class="st0" d="M53.2,59.8c1.9-1.2,3.6-2.6,5.3-4.2c2.2-2.1,4.2-4.5,5.7-7.3c-2.2,0.2-5.9,0.8-7.3,1.4
		C56.6,50,56.5,50,56.2,50c-0.9,0-2.3-1.3-2.3-2.5c0-0.3,0-0.5,0.1-1c0.9,1.4,1.1,1.8,2.5,1.8c0.9,0,6.9-0.6,8.2-0.8
		c0-0.5,0-2.6,0-3c0-1.9-0.3-2.3-0.8-2.6c-0.2-0.1-1.4-0.6-1.6-0.8c0.4-0.3,0.9-0.5,1.6-0.5c1.3,0,2.8,1.1,2.8,1.4
		c0,0.2-0.3,0.8-0.3,1C66,44.1,66,45.9,66,47.4c3-0.3,3.4-0.3,3.9-0.4c0.2,0,1.2-0.3,1.4-0.3c0.6,0,2.4,0.5,2.4,1.2
		c0,0.1,0,0.6-0.6,0.6c-0.1,0-0.2,0-0.3,0c-1.1-0.2-2.3-0.3-3.7-0.3c-1,0-2.2,0.1-3,0.1c0,4.8,0,5,0,6.7c0,0.7,0.1,3.6,0.1,4.2
		c0,2.5-0.8,3.9-1.5,3.9c-0.4,0-0.6-0.4-0.6-0.7s-0.2-0.8-0.9-1.4c-0.6-0.5-1.6-1.3-2.3-1.9l0.1-0.2c1.3,0.4,1.5,0.5,2.7,1
		C64,60,64,60,64.1,60c0.4,0,0.4,0,0.5-1.9c0.1-3.7,0.1-6.1,0.1-7.8c-1.7,2.9-6.2,7.9-11.4,9.8L53.2,59.8z"/>
	<path class="st0" d="M80.6,51c0.4,0.1,0.7,0.1,3.1,0.1c0.5,0,9.8-0.1,11.7-0.3c0.5-0.1,0.6-0.1,0.9-0.2c0.2-0.1,0.3-0.1,0.5-0.1
		c0.1,0,2.6,0.3,2.6,1.1c0,0.7-0.7,0.7-1.5,0.7c-0.4,0-3-0.2-3.6-0.2c-1.7,0-9.6,0.1-11,0.3c-0.3,0-1.1,0.1-1.9,0.4
		c-0.5,0.2-0.7,0.3-0.9,0.3c-0.2,0-0.4,0-1-0.8c-0.2-0.2-0.8-1-0.8-2c0-0.4,0-0.7,0.2-1.1C79.3,50.2,79.9,50.9,80.6,51z"/>
	<path class="st0" d="M105.7,63c4.3-2.5,7.9-5.5,10.4-9.3c1.4-2.2,3.2-5.4,4.1-7.9c-0.9,0.2-4.1,0.6-5.2,0.6c-0.3,0-1.1,0-1.6-0.2
		c-0.3,0.5-1.7,2.6-2,3c-0.1,0.2-0.3,0.3-0.4,0.5c1.2,0.3,2.4,0.7,3.5,1.3c1,0.5,1.8,1.2,1.8,2.3c0,0.8-0.4,1-0.6,1
		c-0.4,0-0.6-0.3-1.1-0.9c-0.9-1.2-1.6-1.8-3.9-3.2c-2,2.2-3.8,3.2-4.6,3.7l-0.1-0.1c3.8-3.7,7-9.4,7-10.4c0-0.8-0.9-1.2-1.6-1.6
		c0.4-0.1,0.7-0.1,1-0.1c1.6,0,3,1.5,3,1.9c0,0.3-0.1,0.4-0.5,0.8c-0.2,0.2-0.6,0.8-1,1.3c0.4,0.1,1.3,0.1,1.4,0.1
		c2.3,0,4.4-0.5,5.1-1c0.4-0.3,0.5-0.4,0.6-0.4c0.2,0,1.9,1.6,2,1.8V46c0,0.3-0.2,0.4-0.8,0.6c-0.4,0.1-0.6,0.3-1,1.1
		c-2.7,5.1-3,5.6-3.7,6.7c-4.2,6-8.4,7.8-11.6,8.9L105.7,63z M122.2,41.6c1.6,0.6,2.5,1.3,2.5,2.3c0,0.5-0.3,0.8-0.6,0.8
		c-0.4,0-0.5-0.1-1.3-1.3c-0.8-1.2-1.6-1.6-2.8-2.3C120.7,41.2,121.3,41.2,122.2,41.6z M126,40.9c0.6,0.3,1.8,0.8,1.8,2.1
		c0,0.4-0.1,0.8-0.5,0.8c-0.4,0-0.5-0.1-1.3-1.1c-1-1.3-1.9-1.8-2.9-2.3C123.8,40.3,124.5,40.3,126,40.9z"/>
	<path class="st0" d="M132,51c0.4,0.1,0.7,0.1,3.1,0.1c0.5,0,9.8-0.1,11.7-0.3c0.5-0.1,0.6-0.1,0.9-0.2c0.2-0.1,0.3-0.1,0.5-0.1
		c0.1,0,2.6,0.3,2.6,1.1c0,0.7-0.7,0.7-1.5,0.7c-0.4,0-3-0.2-3.6-0.2c-1.7,0-9.6,0.1-11,0.3c-0.3,0-1.1,0.1-1.9,0.4
		c-0.5,0.2-0.7,0.3-0.9,0.3c-0.2,0-0.4,0-1-0.8c-0.2-0.2-0.8-1-0.8-2c0-0.4,0-0.7,0.2-1.1C130.8,50.2,131.4,50.9,132,51z"/>
	<path class="st0" d="M161.6,41.3c-0.4,0.8-0.9,1.8-2.1,3.9l0.4,0.3c0.3,0.2,0.4,0.3,0.4,0.4c0,0.4-0.5,0.7-0.8,0.8
		c-0.2,1.4-0.2,3.2-0.2,4.8c0,0.6,0.1,6.8,0.1,7c0,0.7,0.1,3.6,0.1,4.2c0,0.1,0,1.1-0.1,1.2c-0.2,0.6-0.8,0.7-1.1,0.7
		c-0.7,0-0.8-0.3-0.8-0.8c0-0.4,0.1-2.4,0.1-2.8c0.2-4.7,0.3-9.3,0.3-13.5c-0.8,1.2-1.6,2.3-2.6,3.5c-0.9,1.1-1.5,1.5-1.9,1.8
		l-0.2-0.1c1.8-2.6,4.8-7.2,6-10.4c0.6-1.5,0.7-2.4,0.8-3.3l2.1,1.3c0.3,0.2,0.4,0.3,0.4,0.4C162.7,41.1,162.3,41.2,161.6,41.3z
		 M178.6,62.8h-14c-0.9,0-2.5,0.1-3.6,0.3l-0.7-1.2c1.5,0.1,3.2,0.2,4.7,0.2h3.4v-8.7h-1.8c-0.8,0-2.4,0.1-3.6,0.3l-0.7-1.2
		c1.5,0.1,3.2,0.2,4.6,0.2h1.4v-7.2h-2.9c-0.9,0-2.4,0.1-3.6,0.3l-0.7-1.2c1.5,0.1,3.2,0.2,4.7,0.2h8.6l1.1-1
		c0.2-0.2,0.3-0.3,0.4-0.3c0.1,0,0.3,0.1,0.5,0.3l1.4,1c0.1,0.1,0.3,0.3,0.3,0.4c0,0.3-0.3,0.3-0.4,0.3h-7.7v7.2h3.6l1-1.1
		c0.2-0.2,0.3-0.4,0.4-0.4s0.3,0.2,0.5,0.3l1.6,1.1c0.1,0.1,0.3,0.3,0.3,0.4c0,0.3-0.3,0.3-0.4,0.3h-7v8.7h5.3l1.1-1.3
		c0.2-0.2,0.3-0.3,0.4-0.3c0.2,0,0.3,0.2,0.5,0.3l1.3,1.3c0.1,0.1,0.3,0.3,0.3,0.4C179.1,62.7,178.8,62.8,178.6,62.8z M169.7,44.3
		c-0.7,0-0.8-0.2-1.3-1.7c-0.4-1.2-1-2.4-1.8-3.4l0.1-0.1c0.6,0.3,3.9,1.8,3.9,4.1C170.7,43.9,170.3,44.3,169.7,44.3z"/>
	<path class="st0" d="M203.5,63c-1.1,0.6-2.7,0.6-4.9,0.6c-1.3,0-6.3-0.1-7.3-0.3c-1.3-0.3-1.3-1.4-1.3-2v-5.4l-5.7,1
		c-0.6,0.1-2.3,0.5-3.5,1l-0.9-1.1c1.5-0.1,3.1-0.3,4.6-0.6l5.4-1c0-0.7,0-4.3,0-5.1c-2.4,0.7-6.3,1.7-8.8,1.8v-0.1
		c7.9-2.2,11-3.6,13.5-5.1c0.5-0.3,0.8-0.6,0.9-0.8l1.9,1.5c0.1,0.1,0.1,0.2,0.1,0.4c0,0.2-0.3,0.3-0.5,0.3c-0.1,0-0.7-0.1-1-0.2
		c-0.8,0.3-1.8,0.8-4.5,1.7V55l9-1.6l0.9-1.4c0.3-0.4,0.3-0.4,0.4-0.4c0.1,0,0.4,0.1,0.5,0.2l1.6,0.9c0.1,0.1,0.4,0.2,0.4,0.4
		c0,0.2-0.1,0.3-0.4,0.3l-12.5,2.3c0,0.7,0,5.5,0,5.6c0,0.2,0.1,0.5,0.5,0.6c0.4,0.1,5.3,0.2,6.1,0.2c2.9,0,3.4,0,4-1.1
		c0.5-1,0.9-2.9,1-3.9h0.2c0.1,0.4,0.3,2.3,0.4,2.7c0.2,1,0.2,1.1,0.5,1.3c0.4,0.3,0.4,0.3,0.4,0.6C204.7,62.4,203.8,62.9,203.5,63z
		 M203.7,45.2c-0.2,0-1.2,0.1-1.5,0.1c-0.6,0.4-1.6,1.1-2.3,1.6l-0.2-0.1c0.1-0.2,1-2.6,1-2.7h-16.9c-0.1,3.2-1.9,4.4-2.7,4.4
		c-0.7,0-1-0.5-1-0.9c0-0.6,0.6-1,1.4-1.6c1.6-1.2,1.9-2.4,2.1-3.4h0.1c0.1,0.3,0.1,0.5,0.1,0.9h7.6c0-2.8,0-2.9-0.5-4.3l2.6,0.8
		c0.2,0.1,0.3,0.2,0.3,0.4c0,0.3-0.2,0.5-0.9,0.8c0,0.5,0,2,0,2.3h7.5l0.9-0.7c0.1-0.1,0.3-0.2,0.4-0.2c0.2,0,0.4,0.2,0.5,0.3
		l1.4,1.4c0.1,0.1,0.3,0.4,0.3,0.7C204.1,45.1,203.8,45.2,203.7,45.2z"/>
	<path class="st0" d="M208.9,45.8c0.8,0,1.5-0.2,4.6-1c4.2-1.1,12.5-2.9,12.9-2.9c0.4,0,2,0.5,2,1.3c0,0.7-0.7,0.7-1.1,0.7
		c-0.3,0-1.5-0.1-1.7-0.1c-3.2,0-4.7,0.8-6.3,2.2c-2.9,2.5-3.7,5.5-3.7,7.5c0,4.9,4.9,6.3,7.1,6.7c0.8,0.1,1.2,0.2,1.6,0.7
		c0.2,0.3,0.3,0.5,0.3,0.8c0,0.4-0.4,0.5-0.7,0.5c-2.9,0-9.4-2.1-9.4-8.4c0-4.8,3.6-7.7,6.5-10c-1.7,0.5-3.7,1-5.6,1.4
		c-3.5,0.9-4.5,1.5-5.9,2.3c-0.2,0.1-0.5,0.3-0.8,0.3c-0.4,0-1.8-0.7-1.8-2.4c0-0.4,0.1-0.6,0.2-0.9C207.8,45.6,208,45.8,208.9,45.8
		z M224.8,47.7c1.9,1.2,2.1,1.9,2.1,2.5c0,0.3-0.1,0.9-0.6,0.9c-0.3,0-0.5-0.3-0.7-0.6c-0.9-1.7-2.7-3.2-3.4-3.7
		C223.1,46.9,224,47.2,224.8,47.7z M230.1,49.1c0,0.7-0.4,0.8-0.5,0.8c-0.3,0-0.5-0.3-0.8-0.7c-1-1.4-2.3-2.3-3.6-3.3
		C227,46.1,230.1,47.2,230.1,49.1z"/>
	<path class="st0" d="M231.9,56.9c1.3,0.3,3.5,0.7,5.3,2.2c1.6,1.4,1.6,2.9,1.6,3.2c0,0.9-0.7,1.5-1.3,1.5c-0.4,0-0.8-0.4-1.3-1.5
		c-1.4-2.8-2-4-4.3-5L231.9,56.9z"/>
	<path class="st0" d="M270.1,63.7c0.5-0.1,1.7-0.4,3.2-1.1c2.6-1.3,4.9-3.3,4.9-6.6c0-1.7-0.6-3.2-2.3-4.2c-1-0.6-1.9-0.8-2.3-0.9
		c-0.4,0.8-1.7,2.5-2.4,3.5c-1.9,2.5-2.5,2.9-3.2,3.5c0.1,0.2,0.1,0.4,0.3,0.7c0.6,1.1,0.6,1.2,0.6,1.5c0,0.1,0,0.8-0.6,0.8
		c-0.8,0-1.5-1.8-1.6-2c-2,1.5-4.5,2.9-5.5,2.9c-1,0-1.2-0.4-1.6-1.2c-0.1-0.2-0.6-0.8-0.7-0.9c-0.2-0.2-0.4-0.6-0.4-1.1
		c0-1.6,2-5.3,7.2-7.5c0.2-2.3,0.5-3.7,0.6-4.4c-1.8,0.3-2.8,0.4-3.8,0.4c-0.9,0-2.2-0.1-3-1.6c1.5,0.5,2.5,0.5,3.2,0.5
		c1.3,0,2.6-0.2,3.9-0.4c0.1-0.3,0.4-1.6,0.4-1.8c0-0.1,0.3-1.6,0.3-2c0-1-1-1.5-1.5-1.8c0.2-0.1,0.3-0.2,0.7-0.2
		c1.9,0,3.1,1.3,3.1,1.7c0,0.2,0,0.2-0.3,0.8c-0.5,1-0.6,1.3-1.2,3c1.6-0.4,2.5-0.8,4.1-1.3c0.4-0.1,0.5-0.2,0.7-0.2
		c0.5,0,1.5,0.6,1.5,0.9c0,0.3-0.4,0.4-1.7,0.8c-1.9,0.5-4.4,1-4.9,1.1c-0.6,2.3-0.6,3.6-0.7,4.2c1.7-0.5,3.3-0.7,4.9-0.7
		c0-0.2-0.1-0.4-0.2-0.6c-0.4-0.6-0.4-0.7-0.5-1c1.2-0.1,2.3,0.9,2.5,1.8c2.9,0.5,6.3,2,6.3,6.1c0,3.3-2.2,5.3-4.4,6.5
		c-2.4,1.3-4.3,1.5-5.7,1.4V63.7z M265.7,52c-3.2,1.6-5.8,4.5-5.8,6.7c0,1.1,0.6,1.6,1.4,1.6c1.1,0,3.5-1.3,5.1-2.5
		C266.1,56.8,265.6,54.9,265.7,52z M267.6,56.7c1.8-1.8,3.9-5.2,4.2-6.1c-0.4,0-2.4-0.1-4.8,0.9C267,53.7,267.3,55.3,267.6,56.7z"/>
	<path class="st0" d="M293.1,64.5c2-1.4,3.7-3.7,4.9-6.3c1.1-2.4,1.3-5.1,1.3-7.7c0-2.9-0.4-5.3-0.9-6.1c-0.3-0.5-0.8-0.9-1.4-0.9
		c-0.3,0-0.8,0.1-1.3,0.5c-2.6,2.5-3.9,7.9-4,8.2c-0.2,1-0.3,2.8-0.3,3.2c0,0.2,0.1,1.1,0.1,1.3c0,0.3-0.2,0.4-0.4,0.4
		c-0.4,0-0.8-0.4-0.9-0.6c-1.1-1.5-1.1-4.3-1.1-4.8c0-1.7,0.8-6.4,1.1-8.4c0.1-0.6,0.1-1,0.1-1.3c0-1.3-0.8-1.9-1.8-2.6
		c0.2,0,0.4-0.1,0.7-0.1c0.9,0,2.7,0.5,2.7,1.9c0,0.4-0.1,0.7-0.3,1.3c-0.2,0.4-1.4,4.6-1.4,7.9c0,0.3,0,1.9,0.3,2.1
		c0,0.1,0.1,0.1,0.1,0.1c0.1,0,0.2-0.1,0.3-0.3c0.4-1.7,2-7.4,5.1-9.4c0.4-0.3,1-0.3,1.2-0.3c3.4,0,3.7,5.5,3.7,8
		c0,3.7-0.6,8.4-4.5,11.8c-0.8,0.7-2.2,1.7-3.3,2V64.5z"/>
	<path class="st0" d="M321.4,61.6c8.4-2.9,8.8-8.9,8.8-10.3c0-4.9-4.6-7.5-8.8-7.5c-0.6,0-0.8,0.1-1,0.1c1.4,1.1,1.4,2,1.4,2.1
		c0,0.3-0.1,0.4-0.7,1.7c-3.4,7.2-3.7,7.9-5.3,10.2c-0.1,0.2-1,1.5-1.6,1.7c-0.2,0.1-0.4,0.1-0.5,0.1c-0.6,0-0.8-0.3-1.6-1.4
		c-0.2-0.3-0.4-0.4-0.8-0.8c-1.1-0.9-1.5-1.9-1.5-3.8c0-5.6,4.7-10.9,11.9-10.9c5.1,0,10.2,2.9,10.2,8.7c0,5.1-4.1,9.7-10.4,10.3
		L321.4,61.6z M318.3,50.8c0.8-1.6,1.6-3.7,1.6-4.9c0-1-0.6-1.5-0.8-1.8c-3.1,0.3-7.9,4.4-7.9,9.9c0,2.1,1.3,4,2.4,4
		c0.2,0,0.4,0,0.5-0.2c0.6-0.6,1.1-1.5,1.6-2.5L318.3,50.8z"/>
	<path class="st0" d="M346.8,42.1c0-1.2-0.2-1.3-2.1-2.2c0.3-0.2,0.6-0.4,1.4-0.4c1.5,0,2.6,1,2.6,1.7c0,0.1-0.1,0.6-0.3,1.2
		c-0.1,0.6-0.2,1.2-0.3,2.1c1.9-0.4,2.8-0.7,4.4-1.3c0.2-0.1,0.5-0.2,0.7-0.2c0.5,0,1.5,0.5,1.5,0.9c0,0.3-0.4,0.5-0.5,0.6
		c-0.9,0.4-3.3,1-6.2,1.4c-0.1,1.2-0.1,2.9-0.1,4.5c1.8-0.4,2.5-0.7,3.7-1.1c0.1-0.1,0.4-0.1,0.5-0.1c0.5,0,1.5,0.3,1.5,0.8
		c0,0.4-0.3,0.6-0.6,0.7c-0.5,0.2-3,0.7-5,1.1c0.1,1.1,0.3,5,0.4,6.4c3.2,0.8,6,2.1,6,3.5c0,0.5-0.3,0.8-0.6,0.8
		c-0.2,0-0.3-0.1-1.3-0.7c-0.3-0.2-2.1-1.3-3.9-1.8c0,1.6-0.7,2.3-1.1,2.6c-1.3,0.9-3,1-3.4,1c-2.9,0-4.7-1.4-4.7-2.8
		c0-0.9,0.6-1.5,1.4-1.9c1.6-0.9,4.2-0.9,4.8-0.9c0.6,0,1.1,0,1.5,0.1c0-0.9-0.3-5-0.3-5.9c-1.4,0.2-2.8,0.3-4.2,0.3
		c-1.7,0-2.7-0.3-2.7-1.3c0-0.5,0.5-1.2,1.4-1.4c-0.2,0.2-0.4,0.5-0.4,0.9c0,0.5,0.6,0.6,2,0.6c1.1,0,2.4-0.1,4-0.4
		c0-1.5,0-2.3,0.1-4.6c-1.1,0.1-4.8,0.5-5.6,0.5c-0.7,0-2.9-0.2-3.7-1.9c0.5,0.2,1.6,0.7,3.6,0.7c0.6,0,2.9-0.1,5.8-0.6
		C346.7,44.4,346.8,42.5,346.8,42.1z M343.9,59c-1.8,0-3.7,0.5-3.7,1.6c0,0.8,1.2,1.5,3.4,1.5c1.2,0,3.7-0.3,3.4-2.8
		C346.4,59.1,345.6,59,343.9,59z"/>
	<path class="st0" d="M372.5,42.1c0-1.2-0.2-1.3-2.1-2.2c0.3-0.2,0.6-0.4,1.4-0.4c1.5,0,2.6,1,2.6,1.7c0,0.1-0.1,0.6-0.3,1.2
		c-0.1,0.6-0.2,1.2-0.3,2.1c1.9-0.4,2.8-0.7,4.4-1.3c0.2-0.1,0.5-0.2,0.7-0.2c0.5,0,1.5,0.5,1.5,0.9c0,0.3-0.4,0.5-0.5,0.6
		c-0.9,0.4-3.3,1-6.2,1.4c-0.1,1.2-0.1,2.9-0.1,4.5c1.8-0.4,2.5-0.7,3.7-1.1c0.1-0.1,0.4-0.1,0.5-0.1c0.5,0,1.5,0.3,1.5,0.8
		c0,0.4-0.3,0.6-0.6,0.7c-0.5,0.2-3,0.7-5,1.1c0.1,1.1,0.3,5,0.4,6.4c3.2,0.8,6,2.1,6,3.5c0,0.5-0.3,0.8-0.6,0.8
		c-0.2,0-0.3-0.1-1.3-0.7c-0.3-0.2-2.1-1.3-3.9-1.8c0,1.6-0.7,2.3-1.1,2.6c-1.3,0.9-3,1-3.4,1c-2.9,0-4.7-1.4-4.7-2.8
		c0-0.9,0.6-1.5,1.4-1.9c1.6-0.9,4.2-0.9,4.8-0.9c0.6,0,1.1,0,1.5,0.1c0-0.9-0.3-5-0.3-5.9c-1.4,0.2-2.8,0.3-4.2,0.3
		c-1.7,0-2.7-0.3-2.7-1.3c0-0.5,0.5-1.2,1.4-1.4c-0.2,0.2-0.4,0.5-0.4,0.9c0,0.5,0.6,0.6,2,0.6c1.1,0,2.4-0.1,4-0.4
		c0-1.5,0-2.3,0.1-4.6c-1.1,0.1-4.8,0.5-5.6,0.5c-0.7,0-2.9-0.2-3.7-1.9c0.5,0.2,1.6,0.7,3.6,0.7c0.6,0,2.9-0.1,5.8-0.6
		C372.4,44.4,372.5,42.5,372.5,42.1z M369.6,59c-1.8,0-3.7,0.5-3.7,1.6c0,0.8,1.2,1.5,3.4,1.5c1.2,0,3.7-0.3,3.4-2.8
		C372.1,59.1,371.3,59,369.6,59z"/>
	<path class="st0" d="M398.6,61.6c8.4-2.9,8.8-8.9,8.8-10.3c0-4.9-4.6-7.5-8.8-7.5c-0.6,0-0.8,0.1-1,0.1c1.4,1.1,1.4,2,1.4,2.1
		c0,0.3-0.1,0.4-0.7,1.7c-3.4,7.2-3.7,7.9-5.3,10.2c-0.1,0.2-1,1.5-1.6,1.7c-0.2,0.1-0.4,0.1-0.5,0.1c-0.6,0-0.8-0.3-1.6-1.4
		c-0.2-0.3-0.4-0.4-0.8-0.8c-1.1-0.9-1.5-1.9-1.5-3.8c0-5.6,4.7-10.9,11.9-10.9c5.1,0,10.2,2.9,10.2,8.7c0,5.1-4.1,9.7-10.4,10.3
		L398.6,61.6z M395.4,50.8c0.8-1.6,1.6-3.7,1.6-4.9c0-1-0.6-1.5-0.8-1.8c-3.1,0.3-7.9,4.4-7.9,9.9c0,2.1,1.3,4,2.4,4
		c0.2,0,0.4,0,0.5-0.2c0.6-0.6,1.1-1.5,1.6-2.5L395.4,50.8z"/>
	<path class="st0" d="M434.7,60.1c-2.3-0.8-3.8-1.9-4.9-2.8c-0.1,0.1-0.2,0.1-0.4,0.3c0,1,0.2,5.3,0.2,6.1c0,0.6-0.6,0.9-1.1,0.9
		c-0.5,0-0.5-0.3-0.5-1.1h-8.9c0,0.6,0,0.7-0.1,0.8c-0.2,0.3-0.7,0.4-1,0.4c-0.4,0-0.4-0.2-0.4-0.4c0-0.3,0.1-6.5,0.1-7
		c-1.1,0.8-3.7,3-7.2,3.8v-0.1c1.3-0.6,4.8-2.2,9-6.8h-4.2c-1,0-2.5,0.1-3.6,0.3l-0.6-1.2c2.1,0.2,4.1,0.2,4.6,0.2h4.4
		c1-1.1,1.4-2,1.7-2.5h-4.1c0,0.7-0.8,1-1.1,1c-0.4,0-0.4-0.2-0.4-0.5c0-0.2,0-0.8,0-0.9c0.1-1.4,0.1-2.9,0.1-4.2
		c0-0.9-0.1-1.4-0.2-1.9l1.9,0.9h11.2l0.4-0.4c0.3-0.3,0.3-0.3,0.5-0.3c0.1,0,0.1,0,0.4,0.2l0.9,0.6c0.1,0.1,0.3,0.3,0.3,0.4
		c0,0.1-0.1,0.3-0.3,0.4c-0.2,0.1-0.3,0.2-0.4,0.4c0,0.8,0,1.8,0,2.6c0,0.3,0.1,1.7,0.1,1.8c0,0.6-0.7,0.8-1,0.8
		c-0.4,0-0.4-0.4-0.4-0.8h-6.8l0.6,0.3c0.1,0,0.2,0.2,0.2,0.4c0,0.3-0.3,0.4-1,0.5c-0.3,0.4-0.4,0.5-1.1,1.3h11.1l0.9-1.2
		c0.1-0.2,0.3-0.4,0.4-0.4c0.2,0,0.4,0.2,0.5,0.3l1.4,1.2c0.2,0.1,0.3,0.2,0.3,0.4c0,0.3-0.2,0.3-0.4,0.3h-8.4
		c2.3,2.6,5.7,3.7,9.1,4.2v0.1C435.5,58.7,435.1,59.3,434.7,60.1z M435.2,42.5h-8c0,0.2,0.1,1,0.1,1.2c0,0.5-0.7,0.7-1,0.7
		c-0.3,0-0.4-0.2-0.4-0.4v-1.5h-5.3c0,0.5,0,1.2-0.1,1.4c-0.2,0.3-0.6,0.6-1,0.6c-0.2,0-0.4-0.1-0.4-0.4c0-0.2,0-1.3,0-1.5h-3.3
		c-1,0-2.5,0.1-3.6,0.3l-0.7-1.2c2.1,0.2,4.1,0.2,4.7,0.2h2.9c0-1.8-0.1-2.1-0.3-2.8l2,0.5c0.2,0.1,0.4,0.1,0.4,0.3
		c0,0.2-0.1,0.3-0.7,0.6v1.4h5.3c0-1.9,0-2.1-0.2-2.7l1.9,0.4c0.3,0.1,0.5,0.1,0.5,0.3c0,0.2,0,0.2-0.8,0.7c0,0.5,0,0.8,0,1.3h5.1
		l0.8-1.1c0.3-0.4,0.4-0.4,0.4-0.4c0.2,0,0.5,0.3,0.5,0.3l1.3,1.1c0.2,0.1,0.3,0.3,0.3,0.4C435.6,42.5,435.4,42.5,435.2,42.5z
		 M429.6,45.9h-12v1.8h12V45.9z M429.6,48.4h-12v1.9h12V48.4z M427,54.1h-6c-1.1,1.1-1.7,1.7-2.2,2.2l0.1,0h9.2l0.3-0.4
		C428,55.5,427.5,55,427,54.1z M428,57h-8.9v2.5h8.9V57z M428,60.2h-8.9v2.6h8.9V60.2z"/>
	<path class="st0" d="M446.6,62.8c2.3-0.3,4.2-1.1,5.1-1.5c2.9-1.2,5.1-2.9,5.1-5.6c0-2.2-1.6-3.8-3.8-3.8c-4.2,0-8.4,3.6-9.5,5.5
		c-0.3,0.4-0.3,0.6-0.6,0.6c-0.7,0-1.3-1.5-1.3-2.2c0-0.3,0.2-1,0.3-1.5c0.2-1,0.6-4.1,0.6-6.2c0-2.2,0-2.4,0.4-3.1
		c0.7-1,1.1-1.1,4.5-1.8c0.1,0,0.3-0.1,0.3-0.2c0-0.1-0.1-0.2-0.5-0.4c-0.6-0.3-2.3-1.5-2.2-2.8c0.9,0.8,2.1,1.4,4.1,2.3
		c1.6,0.7,1.8,1.9,1.8,2.3c0,0.6-0.3,0.6-0.5,0.6c-0.4,0-0.6-0.1-1.2-0.4c-0.4-0.2-1.6-0.3-2.5-0.3c-1.1,0-3.4,0.1-3.4,1.8
		c0,0.6,0.2,1.3,0.3,1.4c0.1,0.3,0.3,1,0.3,1.3c0,0.1-0.2,1-0.2,1.2c-0.1,0.2-0.6,2.7-0.6,4.4c0,0.3,0.1,0.6,0.4,0.6
		c0.1,0,0.1,0,0.3-0.2c2.6-2.3,6.4-3.8,9.3-3.8c3.5,0,5.3,2.6,5.3,4.9c0,2.9-2.5,4.7-3.9,5.4c-2.1,1-4.6,1.6-8,1.6V62.8z"/>
	<path class="st0" d="M486.1,56.9c-2,3.8-6.8,6.4-11.2,6.4c-0.8,0-3.2-0.2-4.1-1.3c-0.9-1.1-1.1-2.8-1.1-5.6c0-0.4,0.1-6,0.2-6.8
		c0-0.9,0.2-4.6,0.2-5.4c0-2.3-0.8-2.6-2-3.1c0.2-0.2,0.5-0.4,1.2-0.4c1.2,0,2.7,1.3,2.7,2.1c0,0.3-0.1,1-0.2,1.5
		c-0.6,3.4-1,9.1-1,12.6c0,1.1,0,3.6,0.6,4.3c0.6,0.8,1.7,1,2.7,1c3.5,0,9.6-2.9,12-5.3L486.1,56.9z"/>
	<path class="st0" d="M499.6,41.1c0-0.6-0.5-0.8-1.7-1.3c0.2-0.2,0.5-0.4,1.1-0.4c1.4,0,2.5,0.9,2.5,1.5c0,0.1,0,0.3-0.4,0.9
		c-0.2,0.3-1.3,1.9-1.5,2.2c0.7-0.2,1.4-0.4,3.2-1.1c0.1-0.1,0.5-0.2,0.8-0.2c0.4,0,1.4,0.2,1.4,0.8c0,0.4-0.4,0.6-1.1,0.8
		c-1.9,0.5-3,0.7-5.3,1.1c-1.2,1.6-2.5,3.5-3.3,5.1c0.6-0.4,1.5-0.9,2.8-0.9c2.6,0,3.1,1.8,3.4,2.9c1.3-0.8,2.8-1.6,6-3
		c0.4-0.2,0.6-0.3,0.6-0.7c0-0.4-0.3-0.6-0.8-1c0.2-0.1,0.3-0.1,0.4-0.1c0.6,0,2.8,0.7,2.8,2.2c0,0.6-0.3,0.6-1.4,0.8
		c-1.5,0.2-5.3,1.8-7.4,2.8c0.1,0.7,0.3,1.9,0.3,3.5c0,0.3,0,2.3-0.9,2.3c-0.8,0-0.8-1.2-0.8-1.5c0-0.1,0.1-1.8,0.1-2.2
		c0-0.1,0-0.7-0.1-1.3c-2.2,1.4-4.2,3.6-4.2,5.2c0,2.1,3.5,2.1,4.4,2.1c1.5,0,3.1-0.3,4.3-0.5c0.5-0.1,0.6-0.1,0.9-0.1
		c0.9,0,1.6,0.4,1.6,1c0,0.2-0.1,0.6-0.8,0.7c-0.7,0.1-2.3,0.3-4.1,0.3c-4.2,0-5.3-0.5-6.1-1.1c-0.6-0.4-1.3-1.2-1.3-2.3
		c0-0.4,0.2-1.6,1-2.6c0.8-1.1,2.1-2.3,4.1-3.7c-0.3-1.6-0.8-2.9-2.6-2.9c-1.6,0-3,1.3-3.6,2.2c-1.1,1.6-1.2,1.8-1.6,1.8
		c-0.7,0-0.7-0.8-0.7-1c0-0.6,0.2-0.8,0.6-1.1c1.4-1,3.4-4.3,4.8-6.6c-1.6,0.3-2.1,0.4-2.9,0.4c-2.2,0-2.5-1.5-2.6-2.2
		c0.9,0.6,1.5,1,2.7,1c1.2,0,2.6-0.2,3.6-0.4C498.3,43.7,499.6,41.6,499.6,41.1z"/>
	<path class="st0" d="M540.5,51v1.5h-28V51H540.5z"/>
	<path class="st0" d="M540.4,59.6c0-2.3,1.8-4.1,4.1-4.1c2.2,0,4.1,1.8,4.1,4.1c0,2.3-1.9,4.1-4.1,4.1
		C542.2,63.7,540.4,61.8,540.4,59.6z M547.7,59.6c0-1.8-1.5-3.3-3.3-3.3c-1.9,0-3.3,1.5-3.3,3.3c0,1.8,1.4,3.3,3.3,3.3
		C546.3,62.9,547.7,61.5,547.7,59.6z"/>
</g>
<g>
	<g>
		<g>
			<path class="st1" d="M183.1,174.4c0.1,0.2,0.1,0.4,0.1,0.5c0,0.1,0,0.2-0.1,0.4c-0.4,0.1-0.7,0.1-0.9,0.1c-0.1,0-0.3,0-0.5,0
				c-0.2,0-0.4,0-0.6,0c-0.6,0-1.1,0.1-1.5,0.4c-0.2,0.2-0.4,0.4-0.5,0.6l-0.2,2.4l0.1,10.3c0,3.8,0.1,6.1,0.4,7
				c0.2,0.9,0.6,1.7,1.2,2.3c0.6,0.6,1.4,1.1,2.5,1.5c1.1,0.4,2.2,0.6,3.3,0.6c2.4,0,4.2-0.3,5.4-1c1.3-0.7,2.2-1.6,2.7-2.8
				c0.5-1.2,0.8-3,0.8-5.5c0-0.1,0-0.6-0.1-1.7v-0.6c0-0.2,0-0.7,0-1.3c0-0.6,0-1,0-1.1l-0.3-6c-0.1-2-0.2-3.2-0.3-3.6
				c-0.1-0.4-0.3-0.6-0.6-0.8c-0.5-0.4-1.6-0.7-3.1-1c-0.1-0.2-0.1-0.4-0.1-0.6c0.5-0.1,1.1-0.1,1.6-0.1c0.6,0,1.1,0,1.7,0.1
				c0.9,0.1,1.4,0.1,1.5,0.1l3.3-0.1l0.6,0l0,0.7c-1.7,0.2-2.7,0.5-3.1,0.8c-0.3,0.3-0.5,0.8-0.5,1.7c0,0.4,0,1.4,0.1,2.8l0.1,4.3
				l0,1.7l0.1,2.2c0,2.7-0.1,4.6-0.2,5.5c-0.2,1.4-0.5,2.5-0.9,3.3c-0.4,0.8-1,1.5-1.8,2.2c-0.8,0.6-1.8,1.2-3.1,1.6
				c-1.3,0.4-2.6,0.6-3.8,0.6c-2,0-3.4-0.1-4.3-0.4c-1.6-0.5-2.9-1.1-3.8-1.9c-0.9-0.8-1.6-1.6-2-2.3c-0.5-1-0.7-2.5-0.7-4.5v-1.4
				l-0.1-5.8l0.1-4.7v-3.2c0-0.8-0.1-1.4-0.3-1.7c-0.2-0.2-0.4-0.3-0.7-0.3l-1.2,0c-0.9,0-1.5-0.1-1.7-0.3c0-0.1-0.1-0.2-0.1-0.3
				c0-0.1,0-0.2,0.1-0.3c0.2-0.1,0.3-0.2,0.6-0.2h0.5l1.4,0h3.3L183.1,174.4z"/>
			<path class="st1" d="M202,201.1l-0.1-0.3c0-0.1,0.1-0.2,0.2-0.4l1.2-0.2l1.7-0.3c0.1-0.1,0.2-0.2,0.3-0.3
				c0.1-0.2,0.1-0.7,0.1-1.6c0-4.7,0-7.4-0.1-8.1c-0.1-0.7-0.2-1.2-0.4-1.4c-0.2-0.2-0.7-0.3-1.5-0.5c-0.5-0.1-0.8-0.2-1.1-0.3
				l0.1-0.6c1.5-0.6,2.4-1.1,2.9-1.5c0.7-0.6,1.3-1.4,1.8-2.5l0.7,0c0.1,0.7,0.1,2.2,0.1,4.6l0,0.4c0,0.1,0,0.2,0,0.4
				c0.5-1,1.2-1.8,2-2.6l0.5-0.5c0.2-0.2,0.4-0.4,0.6-0.5c1-0.6,1.7-0.9,2.2-0.9c0.6,0,1.1,0.2,1.5,0.6c0.4,0.4,0.6,0.9,0.6,1.5
				c0,0.5-0.1,0.8-0.4,1.1c-0.4,0.3-0.8,0.5-1.3,0.5c-0.2,0-0.7-0.1-1.3-0.4c-0.7-0.2-1.1-0.4-1.3-0.4c-0.4,0-0.7,0.1-0.8,0.2
				c-0.4,0.3-0.9,0.9-1.4,1.9c-0.4,0.7-0.6,1.4-0.6,2l0.1,3.4l0,4.1c0,0.5,0.1,0.8,0.2,0.9c0.1,0.1,0.2,0.2,0.4,0.4
				c1.5,0.1,2.4,0.2,2.7,0.3c0.2,0,0.3,0,0.4,0c0.6,0,1,0.1,1.2,0.2c0.1,0.1,0.2,0.2,0.2,0.3c0,0.1-0.1,0.2-0.2,0.3l-2.3,0l-0.9,0
				l-1.3,0h-2.1l-1.1,0.1L202,201.1z"/>
			<path class="st1" d="M216.1,175v-0.1c0-0.1,0.1-0.3,0.2-0.6c1.5-0.3,3.1-0.7,4.9-1.2c0.1,0,0.2,0,0.5,0c0.1,0.2,0.1,0.4,0.1,0.4
				v6.2l0,2l0,2.2l0,1.8c0,0.1,0,0.3,0,0.7l1.7-0.6c0.2-0.1,0.8-0.2,1.8-0.5c1.3-0.2,2-0.3,2.2-0.3c1.4,0,2.6,0.2,3.7,0.7
				c0.7,0.3,1.4,0.7,2,1.4c0.7,0.6,1.2,1.3,1.5,2c0.6,1.3,0.8,2.5,0.8,3.4c0,1.5-0.1,2.6-0.3,3.1c-0.5,1.4-1,2.5-1.7,3.3
				c-0.7,0.8-1.6,1.5-2.9,2.1c-1.2,0.6-2.5,0.9-3.9,0.9c-1.3,0-2.5-0.2-3.6-0.7c-1.1-0.5-1.8-0.7-1.9-0.7c-0.4,0-1,0.6-1.6,1.7
				l-0.6,0c-0.1-0.9-0.1-2.1-0.1-3.4l0-3.1l0-1.6l0-4.5l0-0.9l0.1-2.1v-1.8l0-0.7c0-0.2,0-0.8,0-1.8v-1.2c0-2.4-0.1-3.8-0.3-4.2
				C218.3,175.9,217.4,175.4,216.1,175z M226,200.5c2.1,0,3.7-0.6,4.8-1.8c1.1-1.2,1.7-2.9,1.7-5.3c0-2.1-0.6-3.9-1.9-5.2
				c-1.2-1.3-2.8-2-4.6-2c-1.3,0-2.4,0.2-3.4,0.6c-0.5,0.3-0.8,0.5-0.9,0.7c-0.1,0.2-0.1,1.7-0.1,4.4c0,3.3,0.1,5.2,0.2,5.7
				c0.2,0.9,0.7,1.5,1.3,1.8C224.1,200.2,225.1,200.5,226,200.5z"/>
			<path class="st1" d="M254.1,198.2c0.1,0.2,0.1,0.3,0.1,0.4c0,0.2-0.2,0.6-0.5,1.1c-0.4,0.7-0.9,1.2-1.4,1.5
				c-0.3,0.2-0.8,0.3-1.4,0.3c-1,0-1.7-0.3-2.2-0.9c-0.3-0.4-0.5-1-0.6-1.9l-2.3,1.6c-0.8,0.5-1.4,0.8-1.9,0.9
				c-0.7,0.2-1.5,0.3-2.5,0.3c-0.7,0-1.3-0.2-1.7-0.6c-0.4-0.4-0.6-1-0.6-1.6c0-1,0.6-2.1,1.8-3.4s2.8-2.4,4.8-3.3
				c1.4-0.6,2.3-1,2.6-1.1c0-0.5,0-1,0-1.5c0-1.8-0.2-2.9-0.7-3.6c-0.5-0.6-1.2-0.9-2.1-0.9c-1,0-1.9,0.4-2.7,1.1
				c-0.5,0.5-0.9,1.4-1.2,2.7c-0.1,0.4-0.2,0.7-0.5,1.2c-0.6,0.4-1.1,0.6-1.4,0.6c-0.3,0-0.6-0.1-0.8-0.3c-0.1-0.1-0.2-0.2-0.2-0.3
				c0-0.4,0.4-1.2,1.2-2.4c0.8-1.3,1.7-2.2,2.9-2.8c1.2-0.6,2.2-0.9,3.1-0.9c1.2,0,2.1,0.1,2.7,0.3c0.6,0.2,1.1,0.6,1.5,1.1
				c0.4,0.5,0.7,1.1,0.8,1.8c0.1,0.3,0.1,1.4,0.1,3.3l-0.1,3.3l0,2.4c0,0.3,0,0.6,0,0.8c0,0.4,0,0.7,0,0.9c0,0.5,0.1,0.8,0.4,1.1
				c0.3,0.3,0.6,0.4,0.9,0.4c0.5,0,1-0.3,1.4-0.8l0.2-0.3C253.7,198.3,253.8,198.3,254.1,198.2z M248,197.6c0.1-1.8,0.1-3,0.1-3.7
				c0-0.4,0-0.9-0.1-1.5c-0.9,0.3-1.9,0.8-3,1.5c-1,0.7-1.9,1.5-2.5,2.3c-0.4,0.6-0.7,1.2-0.7,1.8c0,0.5,0.2,1,0.6,1.3
				c0.4,0.4,0.8,0.5,1.4,0.5c0.4,0,1-0.2,1.6-0.5C246.2,199.1,247.1,198.4,248,197.6z"/>
			<path class="st1" d="M255.3,200.3c0.3-0.1,0.7-0.2,1.2-0.2c0.9-0.1,1.4-0.3,1.6-0.4c0.2-0.2,0.3-0.5,0.3-1.1l0-0.7
				c0-0.3,0-0.6,0-1.1l0-6.4c0-0.9-0.1-1.4-0.3-1.7c-0.4-0.4-1.1-0.7-2.1-0.8v-0.8c1-0.3,1.8-0.6,2.3-1.1c0.8-0.6,1.5-1.5,2-2.5
				l0.7,0c0,0.7,0.1,1.1,0.1,1.4v1.4l0,0.4c0.2-0.1,0.4-0.2,0.6-0.4c0.8-0.6,1.7-1.1,2.6-1.5c0.9-0.4,1.7-0.7,2.3-0.8
				c0.4-0.1,0.9-0.2,1.5-0.2c1.1,0,2.1,0.3,2.9,0.9c0.8,0.6,1.3,1.3,1.6,2.2c0.2,0.8,0.4,2.5,0.4,4.9v3.1c0,0.1,0,0.4,0,0.8
				s0,1,0,1.6c0,1,0,1.6,0.1,1.9c0.1,0.2,0.3,0.4,0.5,0.5c1.3,0.2,2.1,0.4,2.3,0.6v0.2c0,0.1,0,0.3-0.1,0.5h-0.4l-2.7,0l-2.7,0.1
				c-1,0-1.9,0-2.8,0l-0.1-0.4c0-0.1,0-0.2,0.1-0.3c0.4-0.2,0.9-0.3,1.6-0.3c0.4,0,0.7-0.1,0.8-0.1c0.2-0.1,0.3-0.2,0.6-0.3
				c0.2-0.3,0.2-0.6,0.2-0.8c0-0.1,0-0.3,0-0.6c0-0.6-0.1-2.2-0.1-4.8v-1.1l0-1.7c0-1.8-0.4-3-1.1-3.7c-0.7-0.7-1.7-1-2.9-1
				c-0.9,0-1.8,0.2-2.7,0.6c-0.9,0.4-1.7,1-2.6,1.8c0,0.7,0,1.2,0,1.7l0.1,4.6c0,2.4,0,3.9,0.1,4.4c0,0.2,0.1,0.4,0.1,0.5
				c0.1,0.1,0.3,0.2,0.7,0.3c0.3,0.1,0.7,0.2,1.2,0.3c0.4,0.1,0.7,0.2,0.9,0.2c0.3,0.1,0.5,0.2,0.6,0.4l0,0.4h-2.2l-4.5-0.1
				c-1,0-1.7,0-2,0h-0.5l0-0.3C255.2,200.7,255.2,200.5,255.3,200.3z"/>
			<path class="st1" d="M298.2,181.9c-1.7-2.2-2.8-3.7-3.3-4.8c-0.5-1-0.7-2-0.7-2.9c0-1.6,0.7-3,2-4.2c1.3-1.2,3.2-1.8,5.6-1.8
				c2.2,0,4,0.6,5.2,1.7s1.8,2.6,1.8,4.3c0,1.6-0.4,3-1.2,4c-0.8,1.1-2.2,2-4.1,2.9c0.6,0.9,1.6,2.1,3,3.7c0.5,0.5,0.8,0.9,1.1,1.2
				l4.6,5.7c1.5-1.7,2.7-3.3,3.4-4.7c0.7-1.4,1.1-2.5,1.1-3.2c0-0.5-0.2-1-0.5-1.3c-0.3-0.4-0.9-0.7-1.7-0.9
				c-0.1-0.2-0.1-0.3-0.1-0.4l0.1-0.2l3.1-0.3c0.6-0.1,1.5-0.2,2.7-0.2c1.1,0,2.8-0.1,4.8-0.3l0.1,0.3c0,0.1,0,0.3-0.1,0.5
				c-1.3,0.5-2.3,1.2-3.2,1.8c-0.9,0.7-2.2,2.1-4,4.2c-1.8,2.1-3.4,4-4.7,5.8c2.3,2.7,3.9,4.4,4.8,5c0.9,0.6,1.9,0.9,3,0.9
				c1.2,0,2.2-0.4,3-1.1c0.6-0.4,1-0.7,1.2-0.7c0.1,0,0.2,0,0.5,0.1c-0.4,1.7-0.8,2.7-1.1,2.9c-1.4,1.1-2.9,1.7-4.5,1.7
				c-1,0-1.9-0.2-2.8-0.5c-0.9-0.3-1.8-0.8-2.7-1.5c-0.5-0.4-1.4-1.2-2.7-2.4c-0.8-0.8-1.3-1.3-1.6-1.5c-1.4,1.4-2.5,2.4-3.2,2.9
				c-1.2,0.9-2.6,1.6-4.1,2.2c-1.5,0.5-3.1,0.8-5,0.8c-2.3,0-4.2-0.5-5.8-1.5c-1.5-1-2.7-2.2-3.3-3.8c-0.7-1.5-1-3-1-4.4
				c0-1.1,0.2-2.1,0.6-3.1c0.4-1,0.9-1.8,1.6-2.6c0.6-0.7,1.5-1.4,2.6-2.2c0.4-0.3,1.3-0.7,2.8-1.5
				C296.1,182.4,297.1,182.1,298.2,181.9z M309.4,195l-0.2-0.3l-0.1-0.1l-6-7.1c-0.7-0.9-2.1-2.5-4.1-4.6c-2.2,0.8-4,2-5.1,3.6
				s-1.7,3.2-1.7,4.9c0,0.5,0.1,1.2,0.4,2c0.3,0.9,0.8,1.7,1.6,2.6c0.8,0.8,1.8,1.5,2.9,1.9c1.2,0.5,2.5,0.7,4.1,0.7
				c1.8,0,3.4-0.3,4.8-1C307.4,196.8,308.5,196,309.4,195z M302.5,180.2c1-0.4,1.8-1.2,2.4-2.2c0.6-1,0.9-2.1,0.9-3.3
				c0-1.7-0.4-3-1.2-3.9c-0.8-0.9-1.8-1.4-3-1.4c-1.1,0-2,0.3-2.7,1c-0.7,0.7-1,1.4-1,2.4c0,1,0.4,2,1.1,3.1
				C300,177.5,301.2,178.9,302.5,180.2z"/>
			<path class="st1" d="M368,175.8l0.2,3.2c0.1,1,0.1,1.6,0.1,2l-0.6,0.1c-0.9-2.1-2.1-3.7-3.5-4.7s-3.1-1.6-5.1-1.6
				c-2.4,0-4.3,0.3-5.7,0.9c-2,0.8-3.7,2.3-5.1,4.4c-1.4,2.1-2.1,4.6-2.1,7.6c0,1.7,0.3,3.2,0.8,4.6c0.5,1.4,1.2,2.6,2.2,3.8
				s2,2.2,3.3,3c0.8,0.6,1.8,1,3,1.3c0.7,0.2,1.6,0.2,2.9,0.2c0.8,0,1.8-0.1,2.8-0.4c1-0.2,1.8-0.6,2.3-0.9c0.5-0.4,0.9-0.8,1.1-1.3
				c0.2-0.5,0.3-1.5,0.3-2.9c0-2.4-0.2-3.8-0.5-4.2c-0.3-0.4-1.3-0.7-3-0.8l-0.8-0.1l-0.6,0c-0.1,0-0.2,0-0.3-0.1l-0.3-0.5
				c0-0.1,0-0.2,0.1-0.3c0.7-0.1,2.3-0.2,4.7-0.2c0.5,0,1.4,0,2.6,0l2.1,0.1l1.9,0c0.4,0,0.8,0,1.4,0c0.1,0,0.2,0,0.2,0.1
				c0,0,0,0.1,0,0.2c0,0.2,0,0.3-0.1,0.6c-0.6,0.1-1,0.2-1.4,0.2l-1.4,0c-0.5,0-0.8,0.2-1.1,0.5c-0.1,0.2-0.2,0.7-0.2,1.6l0,2.7
				c0,1.9-0.1,3.1-0.2,3.6c-0.1,0.3-0.3,0.6-0.5,0.8c-0.3,0.2-0.8,0.5-1.7,0.9c-1.2,0.5-2.3,0.8-3.3,1c-1.8,0.3-3.6,0.5-5.3,0.5
				c-2.7,0-5-0.4-6.8-1c-1.8-0.7-3.3-1.7-4.5-2.9c-1.3-1.2-2.2-2.5-2.7-3.8c-0.8-1.9-1.2-3.8-1.2-5.7c0-2.4,0.6-4.8,1.9-7.1
				c1.3-2.3,3.4-4.2,6.2-5.7c2-1,4.7-1.5,8.2-1.5c2.4,0,4.3,0.2,5.9,0.6C365.9,174.8,367.1,175.3,368,175.8z"/>
			<path class="st1" d="M390.1,198.2c0.1,0.2,0.1,0.3,0.1,0.4c0,0.2-0.2,0.6-0.5,1.1c-0.4,0.7-0.9,1.2-1.4,1.5
				c-0.3,0.2-0.8,0.3-1.4,0.3c-1,0-1.7-0.3-2.2-0.9c-0.3-0.4-0.5-1-0.6-1.9l-2.3,1.6c-0.8,0.5-1.4,0.8-1.9,0.9
				c-0.7,0.2-1.5,0.3-2.5,0.3c-0.7,0-1.3-0.2-1.7-0.6c-0.4-0.4-0.6-1-0.6-1.6c0-1,0.6-2.1,1.8-3.4s2.8-2.4,4.8-3.3
				c1.4-0.6,2.3-1,2.6-1.1c0-0.5,0-1,0-1.5c0-1.8-0.2-2.9-0.7-3.6c-0.5-0.6-1.2-0.9-2.1-0.9c-1,0-1.9,0.4-2.7,1.1
				c-0.5,0.5-0.9,1.4-1.2,2.7c-0.1,0.4-0.2,0.7-0.5,1.2c-0.6,0.4-1.1,0.6-1.4,0.6c-0.3,0-0.6-0.1-0.8-0.3c-0.1-0.1-0.2-0.2-0.2-0.3
				c0-0.4,0.4-1.2,1.2-2.4c0.8-1.3,1.7-2.2,2.9-2.8c1.2-0.6,2.2-0.9,3.1-0.9c1.2,0,2.1,0.1,2.7,0.3c0.6,0.2,1.1,0.6,1.5,1.1
				c0.4,0.5,0.7,1.1,0.8,1.8c0.1,0.3,0.1,1.4,0.1,3.3l-0.1,3.3l0,2.4c0,0.3,0,0.6,0,0.8c0,0.4,0,0.7,0,0.9c0,0.5,0.1,0.8,0.4,1.1
				c0.3,0.3,0.6,0.4,0.9,0.4c0.5,0,1-0.3,1.4-0.8l0.2-0.3C389.7,198.3,389.8,198.3,390.1,198.2z M383.9,197.6c0.1-1.8,0.1-3,0.1-3.7
				c0-0.4,0-0.9-0.1-1.5c-0.9,0.3-1.9,0.8-3,1.5c-1,0.7-1.9,1.5-2.5,2.3c-0.4,0.6-0.7,1.2-0.7,1.8c0,0.5,0.2,1,0.6,1.3
				c0.4,0.4,0.8,0.5,1.4,0.5c0.4,0,1-0.2,1.6-0.5C382.2,199.1,383.1,198.4,383.9,197.6z"/>
			<path class="st1" d="M391.3,201.1l-0.1-0.3c0-0.1,0.1-0.2,0.2-0.4l1.2-0.2l1.7-0.3c0.1-0.1,0.2-0.2,0.3-0.3
				c0.1-0.2,0.1-0.7,0.1-1.6c0-4.7,0-7.4-0.1-8.1c-0.1-0.7-0.2-1.2-0.4-1.4c-0.2-0.2-0.7-0.3-1.5-0.5c-0.5-0.1-0.8-0.2-1.1-0.3
				l0.1-0.6c1.5-0.6,2.4-1.1,2.9-1.5c0.7-0.6,1.3-1.4,1.8-2.5l0.7,0c0.1,0.7,0.1,2.2,0.1,4.6l0,0.4c0,0.1,0,0.2,0,0.4
				c0.5-1,1.2-1.8,2-2.6l0.5-0.5c0.2-0.2,0.4-0.4,0.6-0.5c1-0.6,1.7-0.9,2.2-0.9c0.6,0,1.1,0.2,1.5,0.6c0.4,0.4,0.6,0.9,0.6,1.5
				c0,0.5-0.1,0.8-0.4,1.1c-0.4,0.3-0.8,0.5-1.3,0.5c-0.2,0-0.7-0.1-1.3-0.4c-0.7-0.2-1.1-0.4-1.3-0.4c-0.4,0-0.7,0.1-0.8,0.2
				c-0.4,0.3-0.9,0.9-1.4,1.9c-0.4,0.7-0.6,1.4-0.6,2l0.1,3.4l0,4.1c0,0.5,0.1,0.8,0.2,0.9c0.1,0.1,0.2,0.2,0.4,0.4
				c1.5,0.1,2.4,0.2,2.7,0.3c0.2,0,0.3,0,0.4,0c0.6,0,1,0.1,1.2,0.2c0.1,0.1,0.2,0.2,0.2,0.3c0,0.1-0.1,0.2-0.2,0.3l-2.3,0l-0.9,0
				l-1.3,0h-2.1l-1.1,0.1L391.3,201.1z"/>
			<path class="st1" d="M419.9,186l0-0.6l0-2.4l0-4.6c0-1.3-0.1-2.1-0.4-2.4c-0.3-0.3-1.1-0.7-2.4-1.1c-0.1,0-0.2-0.1-0.5-0.1v-0.2
				c0-0.1,0-0.3,0-0.5c1.9-0.2,3.5-0.5,4.9-1l1.1,0c0.1,0.9,0.1,2,0.1,3.2l-0.1,8l0.1,9l-0.1,4.8c0,1,0.1,1.5,0.2,1.7
				c0.3,0.3,0.9,0.4,1.8,0.4c0.2,0,0.5,0,0.8,0v0.4c0,0.1,0,0.2,0,0.3c-0.4,0.1-0.9,0.2-1.3,0.3l-3,0.6c-0.4,0.1-0.8,0.1-1.1,0.1v-2
				c-0.2,0.1-0.6,0.2-1.1,0.4c-2.2,0.9-4.2,1.4-6,1.4c-1.1,0-2.2-0.4-3.4-1.1c-1.1-0.7-2-1.7-2.6-3c-0.6-1.3-0.9-2.6-0.9-3.9
				c0-1.2,0.2-2.3,0.6-3.4c0.4-1.1,0.9-2,1.6-2.7c0.4-0.5,1-0.9,1.8-1.4c0.8-0.5,1.4-0.8,1.9-0.9c1.2-0.3,2.1-0.5,2.5-0.5
				c1.9,0,3.4,0.3,4.6,0.8C419.4,185.8,419.7,185.9,419.9,186z M419.9,198.8c0.1-0.9,0.1-2.8,0.1-5.7c0-2.5-0.1-4-0.3-4.6
				s-0.8-1.3-1.7-1.8s-1.9-0.9-3.1-0.9c-1.6,0-2.9,0.6-4,1.8c-1.1,1.2-1.7,3.1-1.7,5.5c0,2.1,0.6,3.8,1.8,5.1
				c1.2,1.3,2.7,1.9,4.5,1.9c1,0,2-0.1,2.8-0.4C419,199.3,419.6,199,419.9,198.8z"/>
			<path class="st1" d="M442.5,190.1l-8.3,0.1l-1.6,0c-0.6,0-1.3,0-2,0.1c-0.1,0.4-0.2,0.7-0.2,0.9l0,0.2v0.2l0,1
				c0,0.8,0.3,1.9,0.8,3.1c0.5,1.2,1.3,2.2,2.3,2.8c1,0.6,2.2,1,3.7,1c0.8,0,1.4-0.1,1.9-0.3c0.5-0.2,1.1-0.5,2-1.1l1.5-1.2l0.1,0.8
				c0,0.1,0,0.2,0,0.3c-0.6,0.8-1.4,1.5-2.4,2.1c-1,0.6-1.9,1-2.9,1.3c-0.5,0.1-1.2,0.2-2.3,0.2c-1,0-2-0.2-2.9-0.6
				c-1.4-0.6-2.5-1.6-3.3-2.9c-0.8-1.3-1.2-3-1.2-4.9c0-0.6,0.1-1.4,0.3-2.3c0.2-1,0.6-2,1.2-3.1c0.4-0.7,0.9-1.3,1.5-1.8
				c0.8-0.7,1.6-1.1,2.2-1.4c0.9-0.4,1.9-0.6,3.1-0.6c1.3,0,2.3,0.2,3.2,0.7c1.1,0.6,1.9,1.4,2.5,2.4c0.5,1,0.8,1.9,0.8,2.7V190.1z
				 M430.9,189.3h1c0.7,0,2.8-0.1,6.3-0.3c0.6,0,0.9-0.1,1-0.2c0.3-0.3,0.4-0.5,0.4-0.7c0-0.4-0.1-0.9-0.4-1.5
				c-0.3-0.5-0.7-1-1.3-1.3c-0.6-0.3-1.2-0.4-2-0.4c-1.6,0-2.9,0.6-3.9,1.8C431.2,187.7,430.9,188.5,430.9,189.3z"/>
			<path class="st1" d="M444.5,200.3c0.3-0.1,0.7-0.2,1.2-0.2c0.9-0.1,1.4-0.3,1.6-0.4c0.2-0.2,0.3-0.5,0.3-1.1l0-0.7
				c0-0.3,0-0.6,0-1.1l0-6.4c0-0.9-0.1-1.4-0.3-1.7c-0.4-0.4-1.1-0.7-2.1-0.8v-0.8c1-0.3,1.8-0.6,2.3-1.1c0.8-0.6,1.5-1.5,2-2.5
				l0.7,0c0,0.7,0.1,1.1,0.1,1.4v1.4l0,0.4c0.2-0.1,0.4-0.2,0.6-0.4c0.8-0.6,1.7-1.1,2.6-1.5c0.9-0.4,1.7-0.7,2.3-0.8
				c0.4-0.1,0.9-0.2,1.5-0.2c1.1,0,2.1,0.3,2.9,0.9c0.8,0.6,1.3,1.3,1.6,2.2c0.2,0.8,0.4,2.5,0.4,4.9v3.1c0,0.1,0,0.4,0,0.8
				s0,1,0,1.6c0,1,0,1.6,0.1,1.9c0.1,0.2,0.3,0.4,0.5,0.5c1.3,0.2,2.1,0.4,2.3,0.6v0.2c0,0.1,0,0.3-0.1,0.5h-0.4l-2.7,0l-2.7,0.1
				c-1,0-1.9,0-2.8,0l-0.1-0.4c0-0.1,0-0.2,0.1-0.3c0.4-0.2,0.9-0.3,1.6-0.3c0.4,0,0.7-0.1,0.8-0.1c0.2-0.1,0.3-0.2,0.6-0.3
				c0.2-0.3,0.2-0.6,0.2-0.8c0-0.1,0-0.3,0-0.6c0-0.6-0.1-2.2-0.1-4.8v-1.1l0-1.7c0-1.8-0.4-3-1.1-3.7c-0.7-0.7-1.7-1-2.9-1
				c-0.9,0-1.8,0.2-2.7,0.6c-0.9,0.4-1.7,1-2.6,1.8c0,0.7,0,1.2,0,1.7l0.1,4.6c0,2.4,0,3.9,0.1,4.4c0,0.2,0.1,0.4,0.1,0.5
				c0.1,0.1,0.3,0.2,0.7,0.3c0.3,0.1,0.7,0.2,1.2,0.3c0.4,0.1,0.7,0.2,0.9,0.2c0.3,0.1,0.5,0.2,0.6,0.4l0,0.4h-2.2L447,201
				c-1,0-1.7,0-2,0h-0.5l0-0.3C444.5,200.7,444.5,200.5,444.5,200.3z"/>
		</g>
	</g>
	<g>
		<path class="st1" d="M384.9,156.5c1.4,1.7,4,3.1,6.3,3.6l0,0.2c-0.4,0.1-0.8,0.4-0.9,0.8c-2.3-0.8-4.4-2.5-5.7-4.6v4.6
			c0,0.1-0.4,0.4-0.8,0.4h-0.2v-4.3c-1.5,1.7-3.7,3-6.2,3.9l-0.1-0.3c2.3-1.1,4.4-2.7,5.7-4.5h-2.5v0.5c0,0.1-0.4,0.3-0.8,0.3h-0.2
			v-6l1.1,0.5h3v-1.6h-5.9l-0.1-0.4h6v-2l1.5,0.2c0,0.2-0.2,0.4-0.5,0.4v1.4h3.9l0.8-1c0,0,0.9,0.7,1.5,1.2c0,0.2-0.2,0.2-0.4,0.2
			h-5.7v1.6h3l0.6-0.6l1.2,0.9c-0.1,0.1-0.3,0.2-0.6,0.3v4.5c0,0.1-0.5,0.3-0.9,0.3h-0.2v-0.8H384.9z M380.4,152.2v1.6h3.1v-1.6
			H380.4z M380.4,156h3.1v-1.7h-3.1V156z M384.5,152.2v1.6h3.2v-1.6H384.5z M387.7,156v-1.7h-3.2v1.7H387.7z"/>
		<path class="st1" d="M402.2,150.7c-0.1,0.1-0.3,0.2-0.6,0.2c-0.2,0.6-0.3,1.3-0.6,1.9c0.4,3,1.7,5.8,5.3,7.6l0,0.2
			c-0.5,0.1-0.8,0.3-1,0.8c-3.2-1.9-4.2-5.1-4.5-8c-1.4,3.5-3.8,6.5-8.5,8.1l-0.2-0.2c4.9-2.1,7.3-5.9,8.3-10.5h-3.6
			c-1.1,2.3-2.5,4.1-4.2,5.3l-0.2-0.2c1.8-1.8,3.4-4.8,4.2-8.1l1.6,0.5c-0.1,0.2-0.2,0.3-0.6,0.3c-0.2,0.6-0.4,1.2-0.7,1.8h3.4
			l0.6-0.7L402.2,150.7z"/>
		<path class="st1" d="M411.5,150.1c3.1,1.8,2.3,3.9,1.3,3.1c0-0.3-0.2-0.6-0.3-1c-1.1,0.6-2.5,1.3-4.2,2.2c0,0.2-0.2,0.3-0.3,0.4
			l-0.7-1.2c0.3-0.1,0.9-0.2,1.5-0.4v-4.6l1.2,0.5c1-0.4,2.1-0.9,2.7-1.3l1.1,1c-0.1,0.1-0.4,0.1-0.7,0c-0.8,0.3-2.2,0.6-3.4,0.8
			v3.3c0.8-0.3,1.7-0.6,2.7-0.9c-0.3-0.6-0.7-1.3-1.1-1.7L411.5,150.1z M418.4,154.6l1.2,0.9c-0.1,0.1-0.3,0.2-0.6,0.3v5.3
			c0,0.1-0.5,0.3-0.8,0.3H418v-0.9h-7.6v0.6c0,0.1-0.4,0.3-0.8,0.3h-0.2v-6.8l1.1,0.5h7.4L418.4,154.6z M410.4,155.6v2h3.3v-2H410.4
			z M410.4,160.1h3.3v-2h-3.3V160.1z M420.8,149.2c-0.1,0.1-0.3,0.2-0.6,0.2c-0.2,2.6-0.5,4-1.1,4.5c-0.4,0.3-0.9,0.4-1.4,0.4
			c0-0.3,0-0.5-0.2-0.7c-0.2-0.2-0.7-0.3-1.2-0.3l0-0.3c0.5,0,1.4,0.1,1.7,0.1c0.3,0,0.4,0,0.5-0.1c0.3-0.3,0.6-1.6,0.8-3.8H417
			c-0.2,2.1-0.8,4.1-4.1,5.4l-0.2-0.2c2.8-1.5,3.2-3.4,3.3-5.2H414l-0.1-0.4h5.3l0.5-0.6L420.8,149.2z M414.7,155.6v2h3.3v-2H414.7z
			 M418,160.1v-2h-3.3v2H418z"/>
		<path class="st1" d="M429.9,153.8c1.4,2.3,4,4.3,6.3,5.2l0,0.2c-0.4,0-0.8,0.3-0.9,0.8c-2.2-1.2-4.3-3.4-5.6-6.1v7.2
			c0,0.1-0.4,0.4-0.8,0.4h-0.2v-6.8c-1.5,2.3-3.7,4.2-6.4,5.6l-0.2-0.2c2.5-1.5,4.6-3.9,5.8-6.2h-5.4l-0.1-0.4h6.3v-5.7l1.5,0.2
			c0,0.2-0.2,0.4-0.5,0.4v5.1h4.2l0.8-0.9c0,0,0.9,0.7,1.4,1.1c0,0.2-0.2,0.2-0.4,0.2H429.9z M423.9,148.8c3.8,1.9,3,4.4,2,3.6
			c-0.2-1.1-1.3-2.6-2.1-3.5L423.9,148.8z M434.8,149.4c-0.1,0.2-0.3,0.3-0.6,0.2c-1,1.2-2.1,2.3-3.2,3.1l-0.2-0.2
			c0.8-0.9,1.8-2.4,2.5-3.9L434.8,149.4z"/>
		<path class="st1" d="M449.7,151.1c0,0,0.9,0.7,1.4,1.1c0,0.2-0.2,0.2-0.4,0.2h-3.9l1.5,0.4c-0.1,0.2-0.2,0.3-0.6,0.3
			c-0.4,0.6-1.2,1.5-1.8,2.1h2.6l0.8-0.9c0,0,0.8,0.6,1.4,1.1c0,0.2-0.2,0.2-0.4,0.2h-5.6v2.3h3.2l0.7-0.9c0,0,0.9,0.6,1.4,1.1
			c0,0.2-0.2,0.2-0.4,0.2h-4.9v2.8c0,0.1-0.3,0.3-0.9,0.3h-0.2v-3.1h-5.1l-0.1-0.4h5.2v-2.3h-5.8l-0.1-0.4h7.9
			c0.4-0.8,0.9-1.9,1.1-2.7h-9.2l-0.1-0.4h6.4v-2h-4.8l-0.1-0.4h4.9v-1.8l1.5,0.2c0,0.2-0.2,0.3-0.5,0.4v1.3h2.9l0.8-0.9
			c0,0,0.8,0.7,1.4,1.1c0,0.2-0.2,0.2-0.4,0.2h-4.6v2h4.2L449.7,151.1z M440.8,152.5c2.9,1.2,1.7,3.4,0.8,2.4c0-0.8-0.5-1.8-0.9-2.4
			L440.8,152.5z"/>
		<path class="st1" d="M458.6,148.4l1.2,0.9c-0.1,0.1-0.3,0.2-0.6,0.3v9.4c0,0.1-0.5,0.3-0.8,0.3h-0.1v-1.1h-4.3v1.2
			c0,0.1-0.3,0.3-0.8,0.3H453v-11.3l1,0.5h4.1L458.6,148.4z M453.9,149.5v3.9h1.7v-3.9H453.9z M453.9,157.9h1.7v-4h-1.7V157.9z
			 M456.5,149.5v3.9h1.8v-3.9H456.5z M458.3,157.9v-4h-1.8v4H458.3z M465.1,148.4c0,0,0.9,0.6,1.4,1.1c0,0.2-0.2,0.2-0.4,0.2h-2.2
			v10.2c0,0.8-0.2,1.4-1.6,1.5c0-0.3-0.1-0.6-0.3-0.7c-0.3-0.2-0.7-0.3-1.4-0.4v-0.2c0,0,1.7,0.1,2,0.1c0.3,0,0.4-0.1,0.4-0.3v-10.1
			h-2.9l-0.1-0.4h4.5L465.1,148.4z"/>
	</g>
	<g>
		<polygon class="st2" points="88.7,118.5 67.9,130.5 88.7,118.5 99.1,112.5 99.1,112.5 		"/>
		<polygon class="st2" points="88.7,118.5 88.7,118.5 67.9,130.5 		"/>
		<polygon class="st2" points="99.1,112.5 88.7,118.5 88.7,118.5 99.1,112.5 99.2,112.5 		"/>
		<polygon class="st3" points="109.5,142.5 109.5,202.4 88.7,202.4 88.7,154.5 		"/>
		<polygon class="st2" points="151.2,142.5 151.2,202.4 130.4,202.4 130.4,154.4 		"/>
		<linearGradient id="SVGID_1_" gradientUnits="userSpaceOnUse" x1="124.828" y1="147.8994" x2="152.9184" y2="191.1549">
			<stop  offset="4.402730e-02" style="stop-color:#000000"/>
			<stop  offset="9.548742e-02" style="stop-color:#272727"/>
			<stop  offset="0.1876" style="stop-color:#686868"/>
			<stop  offset="0.2755" style="stop-color:#9E9E9E"/>
			<stop  offset="0.3567" style="stop-color:#C8C8C8"/>
			<stop  offset="0.4297" style="stop-color:#E6E6E6"/>
			<stop  offset="0.4921" style="stop-color:#F8F8F8"/>
			<stop  offset="0.5364" style="stop-color:#FFFFFF"/>
		</linearGradient>
		<polygon class="st4" points="151.2,142.5 151.2,202.4 130.4,202.4 130.4,154.4 		"/>
		<polygon class="st5" points="67.9,130.5 67.9,202.4 47.1,202.4 47.1,142.5 		"/>
		<polygon class="st2" points="119.9,124.5 67.9,154.4 67.9,130.5 99.1,112.5 		"/>
		
			<linearGradient id="SVGID_00000044867958497930086850000007709658793575022492_" gradientUnits="userSpaceOnUse" x1="61.6506" y1="134.611" x2="115.1286" y2="131.8083">
			<stop  offset="0" style="stop-color:#000000"/>
			<stop  offset="8.064883e-03" style="stop-color:#0A0A0A"/>
			<stop  offset="5.472636e-02" style="stop-color:#3D3D3D"/>
			<stop  offset="0.1047" style="stop-color:#6B6B6B"/>
			<stop  offset="0.1568" style="stop-color:#939393"/>
			<stop  offset="0.2117" style="stop-color:#B4B4B4"/>
			<stop  offset="0.27" style="stop-color:#D0D0D0"/>
			<stop  offset="0.3331" style="stop-color:#E5E5E5"/>
			<stop  offset="0.4032" style="stop-color:#F4F4F4"/>
			<stop  offset="0.486" style="stop-color:#FCFCFC"/>
			<stop  offset="0.6131" style="stop-color:#FFFFFF"/>
		</linearGradient>
		
			<polygon style="fill-rule:evenodd;clip-rule:evenodd;fill:url(#SVGID_00000044867958497930086850000007709658793575022492_);" points="
			119.9,124.5 67.9,154.4 67.9,130.5 99.1,112.5 		"/>
		<polygon class="st2" points="151.2,142.5 130.4,154.4 109.5,166.4 109.5,142.5 130.4,130.5 		"/>
		
			<linearGradient id="SVGID_00000119114976453862747730000006103585915778311814_" gradientUnits="userSpaceOnUse" x1="99.7065" y1="148.4532" x2="141.3496" y2="148.4532">
			<stop  offset="8.637680e-02" style="stop-color:#000000"/>
			<stop  offset="0.1027" style="stop-color:#0C0C0C"/>
			<stop  offset="0.1989" style="stop-color:#4B4B4B"/>
			<stop  offset="0.2939" style="stop-color:#828282"/>
			<stop  offset="0.3854" style="stop-color:#AFAFAF"/>
			<stop  offset="0.4727" style="stop-color:#D2D2D2"/>
			<stop  offset="0.5548" style="stop-color:#EBEBEB"/>
			<stop  offset="0.6296" style="stop-color:#FAFAFA"/>
			<stop  offset="0.6903" style="stop-color:#FFFFFF"/>
		</linearGradient>
		
			<polygon style="fill-rule:evenodd;clip-rule:evenodd;fill:url(#SVGID_00000119114976453862747730000006103585915778311814_);" points="
			151.2,142.5 130.4,154.4 109.5,166.4 109.5,142.5 130.4,130.5 		"/>
	</g>
	<g>
		<g id="XMLID_00000129187373161238440020000001183001424489540759_">
			<path id="XMLID_00000123421674062757916930000008513931311443794834_" class="st1" d="M182.1,152.7c0,0,1,0,1.4,0
				c0.5,0,1.1,0.1,1.1,0.6c0,0.6,0,5,0,5s-1.6,0.6-4.6,0.6c-2.9,0-6.9-1.6-6.9-6.1c0-4.5,4.1-6.2,7.1-6.2c1.4,0,3.1,0.1,3.1,0.8v1.5
				c-1.1-0.9-1.6-1.1-3.4-1.1c-1.8,0-4.9,1.1-4.9,4.9c0,3.7,4.2,5.9,7.7,4.5c0,0,0-2.3,0-2.8C182.8,153.8,182.7,152.7,182.1,152.7z"
				/>
			<path id="XMLID_00000042696834830064964350000003061957786486346642_" class="st1" d="M204,158.6h3.7c-1-0.4-1.4-1.6-1.8-2.5
				c-0.3-0.9-3-7.4-3.3-8.3c-0.3-0.9-0.7-0.9-1.1-0.9c-0.3,0-2.1,0-2.1,0c1,0.3,0.5,1.1,0.3,1.6c-0.2,0.5-3.7,9.3-3.7,9.3
				c-1.2-0.3-4.4-4.9-4.4-4.9c4.1-1.2,3.5-6-0.5-6c-0.5,0-4.6,0-4.6,0c0.9,0.2,0.9,1.2,0.9,2c0,0.8,0,6.9,0,8c0,1.1-0.3,1.4-0.9,1.7
				h3.4c-0.9-0.4-0.7-1.4-0.7-1.9c0-0.5,0-8.7,0-8.7s0.9,0,1.8,0c1,0,1.7,1.2,1.7,2c0,1.3-1,1.8-2,2.2c-1,0.4-0.5,1.2,0,1.9
				c0.5,0.7,1.8,2.6,2.6,3.5c0.8,0.9,1.5,0.9,1.9,0.9c0.4,0,3.1,0,3.1,0c-1.2-0.4-0.6-1.3-0.4-1.8c0.2-0.5,0.9-2.5,0.9-2.5h4.6
				c0,0,0.6,1.4,1.1,2.7C204.9,158.4,204.5,158.5,204,158.6z M199.2,153l1.7-4.5l1.9,4.5H199.2z"/>
			<path id="XMLID_00000165936551801904430070000003505055063124680367_" class="st1" d="M241.3,158.6h3.7c-1-0.4-1.5-1.6-1.8-2.5
				c-0.3-0.9-3-7.4-3.3-8.3c-0.3-0.9-0.7-0.9-1.1-0.9c-0.3,0-2.1,0-2.1,0c1,0.3,0.5,1.1,0.3,1.6c-0.2,0.5-3.7,9.3-3.7,9.3
				c-0.2,0.6-0.6,0.6-0.8,0.8c0.4,0,3.1,0,3.1,0c-1.2-0.4-0.6-1.3-0.4-1.8c0.2-0.5,0.9-2.5,0.9-2.5h4.6c0,0,0.6,1.4,1.1,2.7
				C242.2,158.4,241.9,158.5,241.3,158.6z M236.5,153l1.7-4.5l1.9,4.5H236.5z"/>
			<path id="XMLID_00000045586060450612738000000002501490356192124576_" class="st1" d="M228.2,158.8c0.4-0.4,0.8-0.7,0.8-2
				c0-1.4,0-7.4,0-8c0-0.6,0-1.4-0.8-1.6h3.3c-0.3,0.3-0.7,0.7-0.7,1.5c0,0.8,0,7.4,0,8.1c0,0.7-0.1,1.8,0.8,2H228.2z"/>
			<path id="XMLID_00000119798926232355490990000014678117165223535522_" class="st1" d="M210.6,149.7c0,0,0,6.4,0,7.1
				c0,0.7,0.1,1.8,1,2h-3.1c0.4-0.4,0.8-0.7,0.8-2c0-1.4,0.1-7.4,0.1-8c0-0.6-0.1-1.4-0.9-1.6h2.4l7.2,9c0,0,0-6.8,0-7.3
				c0-0.5,0.1-1.4-0.9-1.7h3.2c-0.4,0.3-0.9,0.4-0.9,1.7c0,1.2,0,10.5,0,10.5s-0.9,0.2-2.3-1.6C215.5,156,210.6,149.7,210.6,149.7z"
				/>
			<path id="XMLID_00000061473717134749197990000006469942210808127875_" class="st1" d="M230.9,167.9c-9.4-7.9-13-17.1-0.1-29.8
				c0.4-0.4,0.8-0.2,0.5,0.2c-5.6,6.4-11.9,16.6-0.1,29.2C231.3,167.7,231.2,168.1,230.9,167.9z"/>
		</g>
	</g>
</g>
</svg>
