<?xml version="1.0" encoding="utf-8"?>
<!-- Generator: Adobe Illustrator 27.0.0, SVG Export Plug-In . SVG Version: 6.00 Build 0)  -->
<svg version="1.1" id="レイヤー_1" xmlns="http://www.w3.org/2000/svg" xmlns:xlink="http://www.w3.org/1999/xlink" x="0px"
	 y="0px" viewBox="0 0 1320 207" style="enable-background:new 0 0 1320 207;" xml:space="preserve">
<style type="text/css">
	.st0{fill:#80665D;}
</style>
<path d="M1320,207H0V0h1320V207z M1,206h1318V1H1V206z"/>
<g>
	<g>
		<path d="M89.2,87.6l0,1.4c-1.1,1.2-2.2,2-3.3,2.5c-1.1,0.5-2.4,0.7-3.8,0.7c-1.6,0-3.1-0.4-4.3-1.3s-2.3-2-3-3.6
			c-0.7-1.5-1-3-1-4.5c0-1.6,0.4-3.1,1.3-4.6s1.9-2.5,3.3-3.2c1.4-0.7,3.1-1.1,5.2-1.1c2,0,3.5,0.3,4.6,1c0.6,0.4,0.9,0.9,0.9,1.5
			c0,0.5-0.2,0.8-0.5,1.1s-0.7,0.5-1.2,0.5c-0.7,0-1.5-0.4-2.4-1.3c-0.5-0.5-1-0.9-1.4-1.1c-0.4-0.2-0.9-0.3-1.4-0.3
			c-1.3,0-2.3,0.5-3.2,1.6c-1.2,1.5-1.8,3.4-1.8,5.6c0,2.3,0.6,4.2,1.8,5.5s2.6,2.1,4.2,2.1c1.1,0,2.1-0.2,3-0.5
			C87,89.2,88,88.6,89.2,87.6z"/>
		<path d="M91.9,82.9c0-1,0.2-2,0.6-3.1c0.4-1.1,1-2.1,1.9-3c0.8-0.9,1.7-1.5,2.6-2c1.3-0.6,2.9-0.9,4.8-0.9c2.7,0,4.9,0.9,6.7,2.8
			c1.8,1.8,2.7,4,2.7,6.6c0,2.3-0.9,4.3-2.8,6.1c-1.9,1.8-4.3,2.7-7.1,2.7c-1.8,0-3.5-0.5-5-1.4c-1.2-0.7-2.2-1.7-3-3.1
			C92.3,86.2,91.9,84.6,91.9,82.9z M101.4,91.2c1.1,0,2.1-0.3,3.2-0.9c1-0.6,1.8-1.5,2.4-2.8c0.6-1.3,0.9-2.8,0.9-4.5
			c0-1.1-0.2-2.4-0.7-3.9c-0.5-1.5-1.2-2.6-2.2-3.3c-1-0.7-2.1-1.1-3.4-1.1c-0.9,0-1.9,0.2-2.9,0.7c-1,0.4-1.8,1.3-2.5,2.6
			c-0.7,1.3-1,3.1-1,5.4c0,2.6,0.6,4.6,1.8,5.9C98.2,90.6,99.6,91.2,101.4,91.2z"/>
		<path d="M113.9,64.9v-0.5c0.4-0.1,0.8-0.3,1.3-0.4c0.7-0.2,1.8-0.6,3.2-1.1h1c0,0.7,0,1.1,0,1.2c0,11.8,0,18.8-0.1,21
			c0,1.3-0.1,2-0.1,2.1c0,1.6,0.1,2.5,0.2,2.7c0.2,0.3,0.7,0.4,1.6,0.5s1.4,0.2,1.6,0.3c0.1,0.1,0.2,0.2,0.2,0.3
			c0,0.2,0,0.3-0.1,0.3s-0.2,0.1-0.4,0.1c-0.1,0-0.9,0-2.3-0.1l-2.8-0.1l-3.6,0.2c-0.2,0-0.4,0-0.5-0.1c-0.1-0.1-0.1-0.2-0.1-0.3
			c0-0.1,0-0.3,0.1-0.3c0.1-0.1,0.6-0.2,1.5-0.3c0.9-0.2,1.5-0.3,1.6-0.4c0.1-0.1,0.2-0.3,0.3-0.7c0.1-0.5,0.1-2,0.1-4.4l0-4.9
			l0.1-5.1l0-5.1l0.1-2.5c0-0.5-0.1-0.9-0.2-1.1c-0.2-0.2-0.5-0.4-1-0.7C114.7,65.3,114.2,65,113.9,64.9z"/>
		<path d="M123.6,74.6h1.6l0.7,0l0.6,0c1.5,0,2.4,0,2.7,0l0,0.4c0,2,0,4-0.1,5.9c0,1.1-0.1,1.8-0.1,1.9c0,2.5,0.1,4.1,0.2,4.7
			c0.2,0.6,0.6,1.1,1.2,1.5c0.6,0.4,1.3,0.6,2.2,0.6c1,0,2-0.2,3-0.7c1-0.4,1.8-1,2.4-1.6c0.1-0.5,0.1-1.1,0.1-1.8
			c0-2.1,0-3.6,0.1-4.3c0-0.4,0-0.8,0-1.2c0-2.3-0.1-3.6-0.3-3.9c-0.2-0.3-1.1-0.5-2.6-0.7c-0.5-0.1-0.9-0.1-1.1-0.2
			c-0.1-0.2-0.2-0.3-0.2-0.4l0.1-0.2c0.4,0,0.7-0.1,1.1-0.1l3.4,0c1.2,0,1.9,0,1.9,0c0.2,0,0.3,0,0.5,0l0,1.6
			c-0.1,2.2-0.2,4.9-0.2,8.1l0,1.7l0.1,2.9c0.1,0.2,0.2,0.4,0.3,0.4c0.2,0.1,0.5,0.1,1.1,0.1h0.2c0.2,0,0.7,0,1.6,0.1
			c0,0.2,0,0.3,0,0.4v0.2c-1.9,0.4-3.5,0.8-4.7,1.2c-0.5,0.2-0.9,0.3-1.2,0.3c-0.1-0.5-0.1-0.8-0.1-0.9v-1.7c0-0.1,0-0.3,0-0.6
			c-0.2,0.1-0.4,0.3-0.6,0.5c-1.1,0.9-2.3,1.6-3.6,2.2c-0.8,0.4-1.7,0.6-2.4,0.6c-1.5,0-2.7-0.6-3.7-1.7c-1-1.1-1.4-3-1.4-5.7
			c0-0.1,0-0.4,0-0.8c0.1-0.7,0.1-1.2,0.1-1.4c0-0.1,0-0.4,0-0.9c0-0.2,0-0.4,0-0.6c0-0.1,0-0.4,0-0.9c0-0.5,0-0.8,0-1
			c0-0.2,0-0.5,0-0.6l0-1.1l0-0.6c0-0.2-0.1-0.4-0.3-0.6c-0.9-0.2-1.5-0.4-1.8-0.4c-0.3,0-0.5-0.1-0.7-0.2V74.6z"/>
		<path d="M145.3,90.8c0.2-0.2,0.5-0.3,0.9-0.3c0.6-0.1,1-0.2,1.3-0.3c0.3-0.2,0.4-0.5,0.5-0.9c0.1-0.5,0.2-2.3,0.2-5.4
			c0-3.1-0.1-5-0.3-5.9c-0.3-0.2-0.7-0.4-1.2-0.5c-0.2,0-0.5-0.1-1-0.2v-0.7c0.8-0.2,1.5-0.6,2.1-0.9s1.3-1.2,2.2-2.3h0.1
			c0.1,0,0.2,0,0.4,0c0.1,0,0.2,0.1,0.3,0.1l0,2.4c0,0.5,0,1,0,1.6c1.5-1.4,2.9-2.4,4.1-2.9c0.8-0.4,1.8-0.6,2.8-0.6
			c1.2,0,2.2,0.2,3,0.7c0.7,0.5,1.4,1.3,2.1,2.6c1.3-1.3,2.4-2.1,3.5-2.6c1-0.5,2.1-0.8,3.1-0.8c1.6,0,2.9,0.5,4,1.6
			c1,1.1,1.5,2.6,1.6,4.7v1.8l0,2l0,5c0,0.6,0.1,1,0.4,1.3c0.1,0,0.6,0.2,1.3,0.4c0.5,0.1,0.8,0.2,0.8,0.3s0.1,0.2,0.1,0.3
			c0,0.2,0,0.3-0.1,0.6h-0.1l-2.2-0.1c-0.3,0-0.7,0-1.2,0c-0.7,0-1.6,0-2.9,0.1h-1.1c-0.2,0-0.5,0-0.9,0c0-0.1,0-0.2,0-0.3
			c0-0.1,0-0.3,0.2-0.4c0.4-0.2,0.9-0.3,1.6-0.4c0.7-0.1,1.1-0.3,1.3-0.6c0.2-0.3,0.2-1.4,0.2-3.3c0-4.2-0.1-6.7-0.2-7.4
			c-0.2-1.1-0.6-1.9-1.4-2.5c-0.7-0.6-1.7-0.9-2.8-0.9c-0.9,0-1.7,0.2-2.5,0.7c-0.8,0.5-1.6,1.1-2.4,2l0,0.5v3.3l-0.1,2.6
			c0,2.6,0,4.1,0.1,4.4c0,0.4,0.2,0.6,0.4,0.8c0.2,0.2,0.8,0.3,1.7,0.4c0.4,0.1,0.7,0.1,1,0.2c0.2,0.1,0.3,0.3,0.3,0.6
			c0,0.2-0.1,0.3-0.2,0.4h-0.4l-1.1,0h-6.3l-1.7,0c0-0.2,0-0.4,0-0.5l0-0.3c0.3-0.2,0.9-0.3,1.8-0.5c0.4-0.1,0.9-0.2,1.4-0.4
			c0.1-0.1,0.2-0.2,0.2-0.3c0.1-0.2,0.1-0.8,0.2-1.7l0.1-2.5l0-2.8l0-1.6c0-1.8-0.4-3-1.1-3.9c-0.7-0.8-1.6-1.2-2.7-1.2
			c-1,0-2,0.3-3.1,0.8c-1,0.5-1.9,1.2-2.5,2c0,0.4,0,0.8,0,1.1l0.1,7.2c0,1.6,0.1,2.5,0.3,2.7c0.2,0.2,0.5,0.4,1.1,0.5
			c0.9,0.1,1.5,0.3,1.8,0.5c0.1,0.1,0.2,0.2,0.2,0.4c0,0.1,0,0.3,0,0.4c-1.6-0.1-2.7-0.2-3.3-0.2c-0.6,0-1.1,0-1.6,0l-1.1,0.1h-0.7
			l-2.4,0.1c0-0.1,0-0.2,0-0.2C145.2,91.1,145.2,91,145.3,90.8z"/>
		<path d="M179.1,90.8c0.4-0.1,0.8-0.2,1.2-0.3c0.9-0.1,1.4-0.3,1.6-0.4c0.2-0.2,0.3-0.6,0.3-1.2l0-0.8c0-0.3,0-0.6,0-1.1l0-6.6
			c0-0.9-0.1-1.5-0.3-1.7c-0.4-0.4-1.1-0.7-2.1-0.8v-0.8c1-0.3,1.8-0.7,2.4-1.1c0.8-0.6,1.5-1.5,2.1-2.6l0.7,0
			c0,0.7,0.1,1.2,0.1,1.4v1.4l0,0.4c0.2-0.1,0.4-0.3,0.6-0.4c0.9-0.6,1.7-1.2,2.6-1.6c0.9-0.4,1.7-0.7,2.4-0.9
			c0.4-0.1,0.9-0.2,1.5-0.2c1.2,0,2.2,0.3,3,0.9c0.8,0.6,1.4,1.4,1.6,2.2c0.2,0.9,0.4,2.5,0.4,5.1v3.2c0,0.1,0,0.4,0,0.9s0,1,0,1.7
			c0,1,0,1.6,0.1,1.9c0.1,0.2,0.3,0.4,0.6,0.6c1.4,0.2,2.2,0.4,2.4,0.7V91c0,0.1,0,0.3-0.1,0.5h-0.4l-2.8,0l-2.8,0.1c-1,0-2,0-2.9,0
			l-0.1-0.5c0-0.1,0-0.2,0.2-0.3c0.4-0.2,0.9-0.3,1.6-0.3c0.4,0,0.7-0.1,0.9-0.1c0.2-0.1,0.4-0.2,0.6-0.3c0.2-0.3,0.3-0.6,0.3-0.9
			c0-0.1,0-0.3,0-0.6c0-0.7-0.1-2.3-0.1-4.9v-1.1l0-1.7c0-1.9-0.4-3.1-1.1-3.8c-0.7-0.7-1.7-1.1-3-1.1c-1,0-1.9,0.2-2.8,0.6
			c-0.9,0.4-1.8,1.1-2.7,1.9c0,0.7,0,1.3,0,1.8l0.1,4.7c0,2.5,0,4,0.1,4.6c0,0.2,0.1,0.4,0.2,0.5c0.1,0.1,0.3,0.2,0.7,0.3
			c0.3,0.1,0.7,0.2,1.2,0.3s0.7,0.2,0.9,0.2c0.3,0.1,0.5,0.2,0.6,0.4l0,0.4h-2.3l-4.6-0.1c-1.1,0-1.8,0-2,0h-0.5l0-0.3
			C179.1,91.1,179.1,91,179.1,90.8z"/>
	</g>
</g>
<g>
	<g>
		<path d="M95.3,133.8H76c-0.9,0-2.4,0.1-3.3,0.3L72,133c1.9,0.2,3.8,0.2,4.3,0.2h2.1c0-0.5-0.1-2.8-0.1-3.3c0-0.7-0.1-0.9-0.3-1.4
			l2,0.5c0.4,0.1,0.5,0.2,0.5,0.3c0,0.2-0.1,0.2-0.8,0.8c0,0.4-0.1,2.5-0.1,3.1h3.5v-5.9h-4.2c-0.9,0-2.3,0.1-3.3,0.3l-0.6-1.1
			c1.9,0.2,3.8,0.2,4.3,0.2h10l0.8-1c0.2-0.3,0.3-0.3,0.4-0.3c0.1,0,0.4,0.2,0.5,0.3l1.2,1c0.1,0.1,0.3,0.2,0.3,0.4
			c0,0.2-0.2,0.3-0.4,0.3h-7.7v2.5H88l0.6-0.9c0.1-0.1,0.2-0.3,0.4-0.3c0.1,0,0.4,0.2,0.5,0.3l1.1,0.9c0.1,0.1,0.3,0.2,0.3,0.4
			c0,0.2-0.2,0.3-0.4,0.3h-5.8v2.8h7.9l0.8-1c0.1-0.2,0.3-0.3,0.4-0.3c0.1,0,0.4,0.2,0.5,0.3l1.3,1c0.1,0.1,0.3,0.2,0.3,0.4
			C95.7,133.7,95.5,133.8,95.3,133.8z M84.5,114.6h-4.5v1.7h2.4l0.3-0.4c0.1-0.1,0.2-0.2,0.3-0.2c0.1,0,0.3,0.1,0.4,0.2l0.8,0.5
			c0.1,0,0.2,0.1,0.2,0.3s-0.1,0.2-0.7,0.8c0,0.5,0,2.9,0,3c-0.1,0.5-0.8,0.5-1,0.5c-0.3,0-0.3-0.2-0.3-0.8h-2.5l0,0.8
			c0.3,0.1,0.8,0.2,1.5,0.5c1.1,0.4,1.7,0.9,1.7,1.6c0,0.4-0.2,0.7-0.6,0.7c-0.5,0-0.7-0.3-1.1-0.9c-0.6-0.9-0.9-1.3-1.5-1.7
			c0,0.7,0.1,3.2,0.1,3.8c0,0.5-0.3,0.9-1,0.9c-0.4,0-0.4-0.2-0.4-0.5c0-0.1,0-0.3,0-0.6c0.1-1.1,0.1-2.6,0.1-3.9
			c-1.2,1.7-3.6,4.1-6.3,5.3l-0.1-0.1c2.3-1.9,4.7-4.7,5.4-6h-2c0,0.3,0,0.4-0.1,0.5c-0.2,0.2-0.8,0.4-1.1,0.4
			c-0.2,0-0.3-0.2-0.3-0.4c0-0.1,0-0.7,0-0.8c0.1-0.8,0.1-1.7,0.1-2.6c0-0.7,0-1-0.1-1.7l1.7,0.7h2.7l0-1.7h-2.3
			c-0.9,0-2.4,0.1-3.4,0.3l-0.6-1.1c1.9,0.2,3.8,0.2,4.3,0.2h1.9c0-2.3-0.1-2.5-0.2-3.4l1.9,0.7c0.2,0.1,0.3,0.1,0.3,0.3
			c0,0.3-0.3,0.4-0.8,0.7v1.7h2.4l0.5-0.8c0.2-0.3,0.3-0.4,0.4-0.4c0.2,0,0.4,0.2,0.5,0.3l0.9,0.8c0.2,0.1,0.3,0.2,0.3,0.4
			C84.9,114.6,84.7,114.6,84.5,114.6z M78.7,117h-3v2.6h3C78.7,118.1,78.7,117.9,78.7,117z M82.4,117h-2.5v1.1c0,0.5,0,1.1,0,1.5
			h2.5V117z M94.2,124.7c-1-0.5-3.5-1.7-5.1-3.4c-1.3,1.6-3.1,3.2-6.8,4.1l-0.1-0.1c1.5-0.7,3.9-2,6.1-4.9c-1.2-1.7-1.7-3.7-1.9-4.4
			c-0.3,0.5-0.8,1.1-2.2,2.6l-0.2-0.2c1.2-1.9,2.2-3.9,2.8-5.3c0.5-1.2,0.6-1.8,0.7-2.5l1.8,1c0.1,0.1,0.2,0.1,0.2,0.3
			c0,0.2,0,0.2-1,0.5c-0.5,0.9-1.1,2-1.7,2.9h5.7l0.7-1c0.1-0.1,0.3-0.3,0.4-0.3s0.4,0.2,0.5,0.3l1.2,1c0.1,0.1,0.3,0.2,0.3,0.4
			c0,0.3-0.3,0.3-0.4,0.3H91l1.2,0.6c0.2,0.1,0.3,0.2,0.3,0.3c0,0.2-0.6,0.4-1,0.5c-0.8,1.4-1.3,2.2-1.9,3.1
			c1.8,1.5,4.2,2.2,6.4,2.6v0.2C95.1,123.6,94.6,124,94.2,124.7z M86.8,116c0.3,1.1,0.9,2.4,2,3.7c0.7-1.1,1.5-2.6,1.7-3.7H86.8z"/>
		<path d="M113.7,120.8h-4.3c0.1,2.2,0,5.7,0.1,7.9c0,0.7,0.1,3.8,0.1,4.4c0,0.7-0.7,0.9-1.3,0.9c-0.5,0-0.5-0.2-0.5-0.5
			c0-0.1,0.1-1.3,0.1-1.6c0.1-2.3,0.1-4.4,0.1-5c0-0.4,0.1-5.8,0.1-6.2H105c0,5.9-0.7,10.2-5.6,13l-0.2-0.2
			c3.5-3.2,4.3-6.4,4.3-12.8h-0.9c-0.8,0-2.3,0.1-3.4,0.3l-0.6-1.1c1.5,0.1,2.9,0.2,4.3,0.2h0.5v-6.8c-1,0-2.4,0.1-3.4,0.3l-0.6-1.1
			c1.4,0.1,2.9,0.2,4.3,0.2h6.8l0.7-0.9c0.1-0.2,0.2-0.3,0.4-0.3c0.1,0,0.2,0,0.4,0.3l1.1,1c0.1,0.1,0.3,0.2,0.3,0.4
			c0,0.2-0.2,0.3-0.4,0.3h-3.8v6.8h1.6l0.8-1c0.2-0.2,0.3-0.3,0.4-0.3c0.1,0,0.3,0.1,0.5,0.3l1.1,1c0.2,0.2,0.3,0.2,0.3,0.4
			C114.1,120.8,113.8,120.8,113.7,120.8z M107.9,113.4H105v6.8h2.9V113.4z M122.2,127.5c-0.2,0-0.4,0-0.6-0.1c-3,3-5.7,5.2-10.8,6.8
			l-0.1-0.2c2.6-1.3,5.8-3.7,7.9-5.8c1.6-1.6,2.2-2.4,2.4-3.3l1.7,1.8c0.1,0.1,0.2,0.2,0.2,0.4C122.9,127.5,122.6,127.5,122.2,127.5
			z M120.3,120.4c-1.4,1.6-4.3,4.6-8.4,6.4l-0.1-0.2c2.3-1.6,4.4-3.6,6.2-5.7c1.6-1.9,1.6-2.3,1.7-2.9l1.9,1.7
			c0.2,0.1,0.2,0.3,0.2,0.4C121.6,120.4,121.1,120.4,120.3,120.4z M119.6,113c-1.2,1.5-3.8,4.2-6.4,5.5l-0.2-0.2
			c1.6-1.3,3.4-3.5,4.3-4.7c1.1-1.6,1.2-2.2,1.4-2.8l2,1.5c0.1,0.1,0.2,0.2,0.2,0.4C120.9,113,120.4,113,119.6,113z"/>
		<path d="M134.2,120h-3.4c0,2.9,0,5.8,0,8.7c0.7-0.2,3.3-1,3.7-1.2l0.1,0.2c-1.1,0.8-2.7,1.5-3.9,2.1c-1.9,0.9-2.6,1.2-3.2,1.5
			c-0.3,0.7-0.3,0.8-0.5,0.8c-0.2,0-0.3-0.1-0.3-0.2l-1.2-1.9c1.7-0.1,1.9-0.2,4.2-0.8V120h-0.4c-0.9,0-2.4,0.1-3.4,0.3l-0.6-1.1
			c1.6,0.1,3,0.2,4.3,0.2c0-4.1,0-4.2-0.1-5.4c-0.1-1.3-0.2-1.8-0.4-2.3l2.4,0.9c0.3,0.1,0.4,0.1,0.4,0.3c0,0.3-0.6,0.8-0.9,1
			c-0.1,2.6-0.1,3.5-0.1,5.6h1.3l0.6-0.7c0.2-0.2,0.3-0.3,0.4-0.3s0.4,0.2,0.5,0.3l0.8,0.7c0.1,0.1,0.3,0.3,0.3,0.4
			C134.6,120,134.4,120,134.2,120z M145.8,133.2c-0.5,0.1-5.2,0.1-6.1,0.1c-2.8,0-3.1,0-3.8-0.3c-0.7-0.3-0.8-1-0.8-1.7
			c0-1.4,0-7.7,0-8.9c-1.2,0.5-2.2,1.1-2.8,1.6l-1-0.8c0.5-0.2,1.7-0.6,3.8-1.4c0-0.7,0.1-4,0.1-4.6c0-1-0.1-1.6-0.4-2.9l2.2,0.8
			c0.2,0.1,0.3,0.1,0.3,0.3c0,0.2-0.1,0.2-0.9,0.9c0,0.8-0.1,4.2-0.1,4.9l3.2-1.4c0-6.2-0.1-6.8-0.5-8.5l2.4,0.8
			c0.2,0.1,0.4,0.2,0.4,0.3c0,0.2-0.1,0.3-0.3,0.4c-0.2,0.2-0.6,0.6-0.7,0.7c0,1.1-0.1,1.9,0,5.8l3-1.3l0.5-0.9
			c0.2-0.3,0.2-0.3,0.3-0.3c0.1,0,0.3,0.1,0.3,0.1l1.1,0.7c0.1,0.1,0.2,0.1,0.2,0.3c0,0.2-0.1,0.3-0.7,0.8c-0.1,4.8-0.1,6.8-0.4,7.9
			c-0.4,1.9-1.7,2.3-2.4,2.5c-0.4-1.2-1.2-1.5-1.5-1.6l0-0.2c0.4,0.1,0.6,0.1,1,0.1c1.1,0,1.4-0.5,1.6-0.9c0.4-1.1,0.4-5.2,0.4-6.6
			c0-0.4-0.1-1-0.1-1.5l-3.5,1.5c0,0.8,0,4.1,0,4.8c0,0.4,0.2,4.2,0.2,4.5c0,0.3,0,1.2-1.1,1.2c-0.3,0-0.5-0.1-0.5-0.4
			c0-0.3,0.1-1.4,0.1-1.6c0-1.3,0-2.9,0.1-7.9l-3.2,1.4c0,1.1,0,9.3,0,9.6c0.1,0.5,0.6,0.6,0.8,0.6c0.2,0,3.5,0,3.9,0
			c3.6,0,3.8-0.1,4.1-0.2c0.5-0.2,0.7-0.6,1.1-1.4c0.2-0.5,0.3-0.7,0.9-2.5h0.2c0,0.3,0,1.7,0.1,2.1s0.1,1,0.5,1.2
			c0.2,0.1,0.2,0.2,0.2,0.3C148.2,131.8,147.7,133,145.8,133.2z"/>
		<path d="M162,131.8c7.8-2.7,8.1-8.3,8.1-9.6c0-4.5-4.3-7-8.1-7c-0.5,0-0.7,0.1-1,0.1c1.3,1.1,1.3,1.8,1.3,2c0,0.3-0.1,0.4-0.6,1.6
			c-3.2,6.6-3.5,7.3-4.9,9.5c-0.1,0.2-1,1.4-1.5,1.6c-0.2,0.1-0.3,0.1-0.5,0.1c-0.6,0-0.8-0.3-1.5-1.3c-0.2-0.3-0.3-0.4-0.7-0.7
			c-1-0.8-1.4-1.7-1.4-3.5c0-5.2,4.4-10.1,11-10.1c4.8,0,9.5,2.7,9.5,8.1c0,4.8-3.8,9-9.7,9.6L162,131.8z M159,121.7
			c0.8-1.5,1.5-3.5,1.5-4.5c0-0.9-0.5-1.4-0.7-1.7c-2.9,0.2-7.3,4.1-7.3,9.2c0,2,1.2,3.7,2.3,3.7c0.2,0,0.3,0,0.5-0.2
			c0.6-0.6,1-1.4,1.5-2.3L159,121.7z"/>
		<path d="M176.8,132c6.5-3.5,9.1-7.4,10.4-9.4c-1.1-1-2.5-2.1-5.9-3.6c2.7,0.1,5.4,1.7,6.6,2.5c0.8-1.3,2.4-4.8,2.4-5.7
			c0-0.8-0.5-1.2-1.5-2c0.4-0.1,0.6-0.1,0.9-0.1c0.4,0,0.8,0.1,1.8,0.7c1,0.7,1.3,1,1.3,1.4c0,0.3-0.1,0.4-0.7,0.9
			c-0.2,0.2-0.4,0.6-0.7,1.2c-0.8,2-1.7,3.7-2.2,4.4c0.7,0.6,3.2,2.7,3.2,4.4c0,0.1,0,0.9-0.7,0.9c-0.4,0-0.5-0.3-0.8-0.8
			c-0.8-1.3-1.5-2.2-2.5-3.3c-3.9,5.8-8.9,8.1-11.4,8.5L176.8,132z"/>
		<path d="M207,122.7v0.8c0,0.4,0,1.7-0.7,1.7c-0.7,0-0.9-1.5-0.9-2.1c0-0.3,0-0.4,0.2-1.4c0.1-0.3,0.1-0.7,0.1-2.5
			c0-0.8,0-2.9-0.2-3.5c-0.2-0.4-0.3-0.5-1.7-0.9c0.6-0.4,0.9-0.6,1.4-0.6c0.4,0,2.4,0.4,2.4,1.1c0,0.2-0.3,0.9-0.3,1.1
			c-0.1,0.9-0.2,3.5-0.2,5.5V122.7z M208.9,133.5c5.1-3.9,6.1-7.2,6.1-15.5c0-0.7,0-3.3-0.3-3.7c-0.3-0.5-1.5-0.6-1.9-0.7
			c0.3-0.3,0.8-0.8,1.6-0.8c0.8,0,2.1,0.5,2.4,0.8c0.2,0.2,0.2,0.3,0.2,0.4c0,0.2-0.3,1-0.3,1.2c-0.1,0.4-0.1,1-0.1,1.6
			c-0.2,6.4-0.2,7.3-0.8,9.6c-0.3,1.1-1.6,5.5-6.7,7.2L208.9,133.5z"/>
		<path d="M232.4,122.6c0,0.5-0.3,0.9-0.8,0.9c-0.3,0-0.4-0.1-0.9-1.2c0,0-0.9-1.8-1.9-2.8C230.7,119.7,232.4,121.7,232.4,122.6z
			 M231.2,132.4c1.5-0.6,4.4-1.9,7.9-7.3c1.9-3,2.1-4.5,2.1-5c0-0.5-0.3-0.8-1.4-1.3c0.3-0.1,0.7-0.2,1.2-0.2c0.9,0,2.1,1.2,2.1,1.6
			c0,0.2-0.1,0.3-0.5,0.9c-0.2,0.2-0.2,0.3-0.5,0.8c-1,2.2-2.2,4.8-4.9,7.6c-2,2-4.2,2.8-5.9,3.4L231.2,132.4z M236.9,121.5
			c0,0.8-0.5,0.9-0.7,0.9c-0.4,0-0.5-0.2-0.8-1.2c-0.4-1.2-1.2-2.2-1.7-2.8C235.3,118.9,236.9,120.1,236.9,121.5z"/>
		<path d="M267.2,122.9c0.4,0.4,0.6,0.9,0.6,1.5c0,0.6-0.2,1-0.6,1c-0.3,0-0.6-0.3-1.2-0.9c-1.9-2-3.8-3.2-5.7-4.1
			c0,2.4-0.1,4.8-0.1,7.1c0,0.5,0.1,2.9,0.1,3.4c0,1.2,0,2.4-0.8,2.4c-0.9,0-1.1-1.7-1.1-1.9c0-0.1,0.2-1.4,0.2-1.5
			c0.2-1.4,0.4-10.9,0.4-11.9c0-0.8,0-3.5-0.2-4.1c-0.2-0.7-0.9-0.9-2.1-1.3c0.9-0.6,1.6-0.6,1.7-0.6c0.4,0,2.6,0.5,2.6,1.4
			c0,0.1-0.3,0.9-0.4,1.4c-0.3,0.9-0.3,4-0.3,5.1C262.3,120.3,265.6,121.3,267.2,122.9z"/>
	</g>
</g>
<g>
	<g>
		<path d="M448,59.9l-0.2-1.2l2.3-0.2v-5h-2.8v-1h2.8v-7.9h12.3v1h-11v1.7h10.3v1h-10.3v1.6h10.3v1h-10.3v1.7h12.2v1h-7.3
			c0.5,0.9,1.2,1.8,2,2.5c1.4-0.7,2.6-1.3,3.6-2l0.9,0.9c-1,0.7-2.2,1.3-3.6,1.9c1.1,0.8,2.6,1.5,4.5,2l-0.7,1.1
			c-1.8-0.4-3.4-1.2-4.8-2.3s-2.5-2.5-3.2-4h-3.5v4.9c2.7-0.3,4.5-0.5,5.3-0.7l0,1.1c-0.6,0.1-2,0.3-4.1,0.6S449,59.8,448,59.9z"/>
		<path d="M471.5,51.7c-0.6,3.6-2.6,6.3-5.9,8l-0.7-0.9c1-0.6,1.9-1.2,2.6-2s1.2-1.4,1.6-2.1s0.6-1.4,0.8-1.9s0.3-1.1,0.4-1.7
			s0.2-1.6,0.2-3.3h-5v-1.1h7.2v-2.7h1.4v2.7h7.6v1.1h-9.8c0,1.1-0.1,2.1-0.2,2.8h7.9v2.3c0,1,0,1.9-0.1,2.6s-0.2,1.4-0.3,1.9
			s-0.4,0.9-0.6,1.2s-0.6,0.5-0.9,0.6s-0.7,0.2-0.9,0.2s-0.9,0-1.8,0h-1.2l-0.2-1.2h2.3c1.1,0,1.7-0.4,2-1.3s0.4-2.1,0.4-3.8v-1.5
			H471.5z"/>
		<path d="M484.1,59.9l-0.9-0.7c0.5-0.5,1-1.4,1.4-2.6s0.7-2.7,0.8-4.7h-1.9v-1.1h1.9v-5h-1.5v-1.1h8.8v1.1h-1.6v5h1.5v1.1h-1.5v7.8
			h-1.4v-7.8h-3C486.6,55.3,485.7,57.9,484.1,59.9z M486.7,45.8v5h3v-5H486.7z M492.5,59.8l-0.6-1c1.3-0.7,2.7-1.5,4-2.6
			s2.3-2,2.9-2.8l1.2,0.8c-1,1.1-2.2,2.1-3.5,3.2S493.8,59.2,492.5,59.8z M493.4,48.7l-0.7-0.9c0.9-0.5,1.8-1.1,2.8-1.8
			s1.8-1.4,2.4-2l1.1,0.7C497.4,46.3,495.5,47.6,493.4,48.7z M493.4,53.6l-0.6-1c2.2-1.1,4.2-2.5,5.8-4.1l1,0.8
			C498,50.9,496,52.3,493.4,53.6z"/>
		<path d="M507.9,52.4c0-0.4,0.2-0.8,0.5-1.1s0.7-0.5,1.1-0.5s0.8,0.2,1.1,0.5s0.5,0.7,0.5,1.1s-0.2,0.8-0.5,1.1S510,54,509.5,54
			s-0.8-0.2-1.1-0.5S507.9,52.8,507.9,52.4z"/>
		<path d="M519.4,59.4v-1.1h2.5v-9.2h1.4v9.2h4.1V46h-7.5v-1.1h15.4V46h-6.5v5.1h5.5v1.1h-5.5v6.1h6.8v1.1H519.4z"/>
		<path d="M543.5,51.7c-0.6,3.6-2.6,6.3-5.9,8l-0.7-0.9c1-0.6,1.9-1.2,2.6-2s1.2-1.4,1.6-2.1s0.6-1.4,0.8-1.9s0.3-1.1,0.4-1.7
			s0.2-1.6,0.2-3.3h-5v-1.1h7.2v-2.7h1.4v2.7h7.6v1.1h-9.8c0,1.1-0.1,2.1-0.2,2.8h7.9v2.3c0,1,0,1.9-0.1,2.6s-0.2,1.4-0.3,1.9
			s-0.4,0.9-0.6,1.2s-0.6,0.5-0.9,0.6s-0.7,0.2-0.9,0.2s-0.9,0-1.8,0h-1.2l-0.2-1.2h2.3c1.1,0,1.7-0.4,2-1.3s0.4-2.1,0.4-3.8v-1.5
			H543.5z"/>
		<path d="M556.1,59.9l-0.9-0.7c0.5-0.5,1-1.4,1.4-2.6s0.7-2.7,0.8-4.7h-1.9v-1.1h1.9v-5h-1.5v-1.1h8.8v1.1h-1.6v5h1.5v1.1h-1.5v7.8
			h-1.4v-7.8h-3C558.6,55.3,557.7,57.9,556.1,59.9z M558.7,45.8v5h3v-5H558.7z M564.5,59.8l-0.6-1c1.3-0.7,2.7-1.5,4-2.6
			s2.3-2,2.9-2.8l1.2,0.8c-1,1.1-2.2,2.1-3.5,3.2S565.8,59.2,564.5,59.8z M565.4,48.7l-0.7-0.9c0.9-0.5,1.8-1.1,2.8-1.8
			s1.8-1.4,2.4-2l1.1,0.7C569.4,46.3,567.5,47.6,565.4,48.7z M565.4,53.6l-0.6-1c2.2-1.1,4.2-2.5,5.8-4.1l1,0.8
			C570,50.9,568,52.3,565.4,53.6z"/>
		<path d="M578.5,44.8c0,0.9-0.1,1.8-0.2,2.6h3.9v1.2h-4.1c-0.6,3.5-1.8,6.5-3.7,9l-1-0.8c1.7-2.2,2.8-5,3.4-8.2h-2.9v-1.2h3.1
			c0.1-0.9,0.2-1.7,0.2-2.6L578.5,44.8z M589.7,57.3l-0.7,1.1c-1.2-1-2.3-1.7-3.3-2.2v0.8c0,1.7-1.3,2.6-3.8,2.6
			c-1,0-1.9-0.2-2.7-0.7s-1.1-1.1-1.1-1.8c0-0.9,0.4-1.5,1.1-2s1.7-0.7,2.7-0.7c0.8,0,1.6,0.1,2.3,0.2v-4.8h1.4V55
			C586.9,55.4,588.2,56.2,589.7,57.3z M584.4,55.7c-0.8-0.2-1.6-0.3-2.4-0.3c-0.7,0-1.3,0.1-1.8,0.4s-0.8,0.7-0.8,1.2
			c0,1,0.9,1.5,2.7,1.5c1.5,0,2.3-0.5,2.3-1.5V55.7z M589.7,49.7l-1.1,0.9c-1.1-1.4-2.6-2.8-4.5-4.2l0.8-0.9
			C586.6,46.4,588.2,47.9,589.7,49.7z"/>
		<path d="M606.7,59.1c-1.7,0.2-3.5,0.3-5.4,0.3c-1.1,0-2.1,0-2.9-0.1s-1.5-0.1-2-0.2s-0.9-0.2-1.3-0.4s-0.8-0.4-1.1-0.7
			s-0.5-0.6-0.7-1s-0.2-0.8-0.2-1.3c0-2,1.6-3.7,4.8-5c-0.2-1.9-0.3-3.8-0.3-5.9h1.5c0,0.3,0,0.5,0,0.8c0,1.4,0.1,2.9,0.2,4.6
			c1.1-0.4,3.3-1.1,6.5-2l0.4,1.2c-0.9,0.2-2.4,0.7-4.3,1.2s-3.4,1.1-4.4,1.6s-1.7,1.1-2.2,1.6s-0.7,1.2-0.7,1.8
			c0,0.6,0.2,1.1,0.7,1.5s1,0.7,1.7,0.8s2,0.2,4,0.2c2.2,0,4.1-0.1,5.9-0.3V59.1z M605.1,46.7l-1,0.4c-0.4-0.9-0.8-1.8-1.3-2.5
			l1-0.4C604.3,45,604.7,45.8,605.1,46.7z M607.7,46.1l-1,0.4c-0.4-0.9-0.8-1.7-1.3-2.4l0.9-0.4C606.8,44.4,607.3,45.3,607.7,46.1z"
			/>
		<path d="M610.1,59.9l-0.9-0.7c0.5-0.5,1-1.4,1.4-2.6s0.7-2.7,0.8-4.7h-1.9v-1.1h1.9v-5h-1.5v-1.1h8.8v1.1h-1.6v5h1.5v1.1h-1.5v7.8
			h-1.4v-7.8h-3C612.6,55.3,611.7,57.9,610.1,59.9z M612.7,45.8v5h3v-5H612.7z M618.5,59.8l-0.6-1c1.3-0.7,2.7-1.5,4-2.6
			s2.3-2,2.9-2.8l1.2,0.8c-1,1.1-2.2,2.1-3.5,3.2S619.8,59.2,618.5,59.8z M619.4,48.7l-0.7-0.9c0.9-0.5,1.8-1.1,2.8-1.8
			s1.8-1.4,2.4-2l1.1,0.7C623.4,46.3,621.5,47.6,619.4,48.7z M619.4,53.6l-0.6-1c2.2-1.1,4.2-2.5,5.8-4.1l1,0.8
			C624,50.9,622,52.3,619.4,53.6z"/>
		<path d="M632.5,46.2c0,0.5,0,1.1-0.1,1.8h3.4c0.8,0,1.5,0.3,2,0.9s0.7,1.4,0.7,2.3c0,2.4-0.2,4.3-0.7,5.9s-1.4,2.3-2.6,2.3
			c-0.7,0-1.7-0.3-3.1-1l0.4-1.1c0.3,0.2,0.8,0.3,1.3,0.5s1,0.3,1.2,0.3c0.5,0,0.9-0.2,1.1-0.8s0.5-1.2,0.7-2.2s0.3-2,0.3-3.3
			c0-1.2-0.2-1.9-0.5-2.2s-0.7-0.5-1.2-0.5h-3.1c-0.2,2-0.7,3.9-1.4,5.7s-1.7,3.4-2.8,4.6l-1-0.7c0.8-0.9,1.5-2.2,2.3-3.8
			s1.3-3.5,1.5-5.7h-3.4v-1.2h3.6c0-0.4,0.1-1.6,0.1-3.5h1.4V46.2z M643.3,53.5l-1.4,0.4c-0.8-2.9-2-5.2-3.5-6.9l1-0.7
			c0.8,0.8,1.6,1.9,2.3,3.3S643.1,52.3,643.3,53.5z M641.7,46.3l-1,0.4c-0.4-0.9-0.8-1.8-1.3-2.5l0.9-0.4
			C640.9,44.6,641.4,45.4,641.7,46.3z M644.3,45.9l-1,0.4c-0.4-0.9-0.8-1.7-1.3-2.4l0.9-0.4C643.3,44,643.8,44.9,644.3,45.9z"/>
		<path d="M645.7,52.7l-0.5-0.7c1.2-0.6,2.3-1.4,3.2-2.3H646v-2.9h2.7v-1h-3.2v-0.8h3.2V44h1.3v0.9h3.3v0.8H650v1h2.8v2.9h-2.7
			c1.2,0.9,2.1,1.5,2.8,1.7l-0.6,0.8c-0.6-0.3-1.4-0.8-2.4-1.6v2.2h-1.2v-2.2C647.7,51.6,646.7,52.3,645.7,52.7z M648.2,58.6v-2.9
			h1.3v2.9h3.2v-4h-6.9v-1h15v1h-6.8V56h5.8v1h-5.8v1.6h7.4v1h-16.1v-1H648.2z M648.8,47.5H647v1.4h1.8V47.5z M651.8,47.5h-1.9v1.4
			h1.9V47.5z M660.7,46.8c-0.3,1.4-1,2.6-2.1,3.6c0.9,0.6,2,1.1,3.3,1.5l-0.7,1c-1.4-0.5-2.6-1.1-3.5-1.7c-1.2,0.8-2.5,1.3-4,1.6
			l-0.4-0.9c1.4-0.3,2.6-0.8,3.5-1.4c-0.8-0.7-1.4-1.5-1.8-2.4c-0.3,0.4-0.6,0.8-0.8,1l-0.8-0.5c1.1-1.5,1.8-3,2.2-4.6l1.3,0.2
			c-0.1,0.6-0.3,1.1-0.6,1.8h5.3v0.9H660.7z M657.6,49.7c1-1,1.6-1.9,1.7-2.9h-3.6l-0.1,0.2C656,48,656.7,48.9,657.6,49.7z"/>
		<path d="M667.7,59l-0.2-1.1c3-0.1,5.2-0.5,6.4-1.2s1.9-1.8,1.9-3.1c0-1-0.3-1.8-1-2.5s-1.5-0.9-2.6-0.9c-1.5,0-4.1,0.4-7.8,1.1
			l-0.2-1.2l4.3-0.7c1.6-0.3,2.8-0.4,3.6-0.4c1.5,0,2.7,0.4,3.6,1.2s1.4,1.9,1.4,3.3c0,1.7-0.7,3.1-2.2,4S671.2,58.9,667.7,59z"/>
		<path d="M696.9,47.4h-4.4c-1.1,0.5-2.1,1.3-3.1,2.5s-1.5,2.5-1.5,3.8c0,1,0.3,1.9,0.8,2.5s1.3,1.2,2.2,1.5s2.1,0.5,3.6,0.5
			c0.3,0,0.7,0,1.1,0l-0.1,1.3h0c-1.1,0-2,0-2.7-0.1s-1.5-0.2-2.3-0.4s-1.5-0.6-2.1-1.1s-1.1-1.1-1.3-1.8s-0.4-1.4-0.4-2.3
			c0-1.2,0.4-2.3,1.1-3.5s1.7-2.1,2.8-2.9h-8.8v-1.2h15.3V47.4z"/>
		<path d="M707.4,54.2c-0.2,0.6-0.5,1.2-0.9,2s-0.9,1.5-1.3,2s-0.9,0.8-1.4,0.8c-0.3,0-0.6-0.1-0.8-0.2s-0.5-0.4-0.9-0.8
			s-0.7-1-1-1.7s-0.5-1.4-0.7-2.2s-0.2-1.5-0.2-2.3c0-0.7,0.1-1.6,0.2-2.8c0.1-1.3,0.2-2.2,0.2-2.8h1.5c0,0.5-0.1,1.4-0.3,2.8
			c-0.1,1.2-0.2,2.1-0.2,2.8c0,1,0.1,1.9,0.3,2.7s0.5,1.5,0.9,2.1s0.7,0.9,0.9,0.9c0.3,0,0.7-0.4,1.2-1.3s1-1.7,1.4-2.7L707.4,54.2z
			 M715.4,56.7l-1.5,0v-0.2c0-1.7-0.3-3.4-0.8-5.1s-1.4-3.1-2.4-4.4l1.1-0.7C714.1,49.2,715.4,52.6,715.4,56.7z"/>
		<path d="M727.9,58.2c2.2-0.5,3.3-1.7,3.3-3.4c0-1.1-0.4-1.9-1.2-2.5s-1.9-0.9-3.2-0.9c-0.9,0-1.8,0.1-2.7,0.4s-1.9,0.7-3,1.4
			s-1.9,1.3-2.4,1.7l-0.7-1.1c3.6-2.3,7.1-4.7,10.5-7.3l-8.9,0v-1.2h10.7l0.6,0.9l-6.2,4.3l0.1,0.1c0.7-0.2,1.4-0.3,2.1-0.3
			c1.7,0,3.1,0.4,4.1,1.2s1.6,1.8,1.6,3.2c0,1.6-0.7,2.8-2,3.7s-3.1,1.3-5.3,1.3c-3.1,0-4.6-0.8-4.6-2.5c0-0.7,0.3-1.2,0.9-1.7
			s1.3-0.7,2.1-0.7c1.1,0,2,0.3,2.7,0.9S727.7,57.1,727.9,58.2z M726.6,58.4c-0.3-1.7-1.3-2.5-2.7-2.5c-0.5,0-0.9,0.1-1.3,0.4
			s-0.6,0.5-0.6,0.9c0,0.9,1,1.3,3.1,1.3C725.6,58.5,726.1,58.5,726.6,58.4z"/>
		<path d="M743.9,59.2l-0.3-1.2c1.9-0.2,3.5-0.7,4.8-1.6s2-2.3,2-4.1c0-1.6-0.5-2.9-1.6-3.8s-2.6-1.4-4.5-1.4
			c-0.1,3.2-0.6,5.8-1.7,7.9s-2.4,3.2-4,3.2c-1,0-1.8-0.4-2.4-1.3s-0.9-1.9-0.9-3.1c0-2,0.9-3.8,2.6-5.4s3.8-2.4,6.2-2.4
			c2.2,0,4.1,0.6,5.5,1.7s2.2,2.6,2.2,4.6c0,2.2-0.7,3.9-2.2,5.1S746.2,59,743.9,59.2z M742.9,47.1c-1.7,0.3-3.2,1-4.4,2.3
			s-1.8,2.7-1.8,4.3c0,0.9,0.2,1.6,0.5,2.2s0.9,0.9,1.5,0.9c1.1,0,2.1-1,2.9-3.1S742.8,49.4,742.9,47.1z"/>
		<path d="M768.8,47.4h-4.4c-1.1,0.5-2.1,1.3-3.1,2.5s-1.5,2.5-1.5,3.8c0,1,0.3,1.9,0.8,2.5s1.3,1.2,2.2,1.5s2.1,0.5,3.6,0.5
			c0.3,0,0.7,0,1.1,0l-0.1,1.3h0c-1.1,0-2,0-2.7-0.1s-1.5-0.2-2.3-0.4s-1.5-0.6-2.1-1.1s-1.1-1.1-1.3-1.8s-0.4-1.4-0.4-2.3
			c0-1.2,0.4-2.3,1.1-3.5s1.7-2.1,2.8-2.9h-8.8v-1.2h15.3V47.4z M766.6,51.1l-1,0.5c-0.4-0.9-0.8-1.8-1.3-2.5l0.9-0.4
			C765.8,49.5,766.2,50.3,766.6,51.1z M769.1,50.6l-1,0.4c-0.4-0.9-0.8-1.7-1.3-2.4l0.9-0.5C768.2,48.7,768.7,49.6,769.1,50.6z"/>
		<path d="M775.9,58.9l-1.2,0.8c-0.8-1.3-1.7-2.5-2.7-3.7l1-0.7C774.3,56.7,775.2,57.9,775.9,58.9z"/>
		<path class="st0" d="M795,49.4c0,1.5-0.1,2.8-0.4,3.8s-0.6,1.8-1,2.5c0.6,0.6,1.2,1,1.8,1.2s1.4,0.4,2.2,0.5s2.2,0.1,4.1,0.1
			c1.4,0,2.8,0,4.3-0.1l-0.5,1.9c-0.8,0-1.5,0-2.2,0c-3.1,0-5.1,0-6-0.1s-1.7-0.3-2.6-0.6s-1.5-0.8-2.2-1.4c-0.8,1-1.8,1.8-2.9,2.5
			l-1.1-1.5c1-0.7,1.9-1.6,2.6-2.5c-0.7-0.9-1.3-2-1.8-3.3l1.7-0.8c0.3,0.8,0.7,1.5,1.1,2.2c0.3-0.8,0.5-1.8,0.6-2.7h-3l-0.4-0.6
			l2.3-4.3h-2.5v-1.9h5l0.6,0.6l-2.5,4.5H795z M805.5,55.9H801v1.2h-2.4v-1.2h-4.1v-1.7h4.1v-0.7h-3.5v-1.6h3.5v-0.8h-3v-1.5h3v-0.9
			h-3.9v-1.5h3.9v-0.9h-2.9v-1.5h2.9v-0.9h2.4v0.9h3.9v2.4h1.1v1.5h-1.1v2.4H801v0.8h4.3v1.6H801v0.7h4.6V55.9z M801,46.3v0.9h1.6
			v-0.9H801z M801,48.7v0.9h1.6v-0.9H801z"/>
		<path class="st0" d="M811.6,43.8c-0.1,0.3-0.3,0.6-0.4,0.9h4.1v1.5H813l0.6,1.1l-2,0.4l-0.7-1.5h-0.8c-0.5,0.7-1.1,1.2-1.7,1.7
			l-1.7-0.9c1.1-1.1,2-2.2,2.6-3.4L811.6,43.8z M814.2,56.9c-2.1,1.3-4.3,2.3-6.6,2.8l-0.8-1.7c1.7-0.4,3.5-1.1,5.3-2h-4.6v-1.7h6.6
			v-1l-0.6-0.5c0.8-0.6,1.3-1.5,1.3-2.8v-2.2h6.3v3.8c0,0.2,0.1,0.3,0.3,0.3c0,0,0.1,0,0.2,0c0.3,0,0.4,0,0.5-0.1s0.1-0.2,0.1-0.5
			s0-0.8,0-1.5l1.6,0.2v2.1c0,0.3-0.1,0.6-0.2,0.8s-0.4,0.3-0.7,0.4s-0.8,0.1-1.7,0.1c-0.5,0-0.8,0-1.1-0.1s-0.5-0.2-0.7-0.4
			s-0.3-0.5-0.3-0.8v-0.6l-1.1,0.8c-0.3-0.4-0.7-1-1.3-1.7c-0.1,1.1-0.5,1.9-1.1,2.6h1v1.1h6.9v1.7h-4.8c1.6,0.8,3.4,1.3,5.4,1.7
			l-0.9,1.9c-2.5-0.5-4.8-1.5-6.7-2.9v3.1h-2.3V56.9z M813.9,52.4c-0.5,0.2-2.6,0.5-6.3,1.1l-0.4-1.7c0.7-0.1,1.5-0.2,2.6-0.3v-1.8
			h-2.1v-1.6h6.3v1.6h-2.1v1.5c0.8-0.1,1.4-0.2,1.9-0.3L813.9,52.4z M819.4,43.9c-0.1,0.3-0.3,0.6-0.4,0.8h4.9v1.5h-2.6l0.6,1
			l-2,0.4l-0.8-1.4H818c-0.5,0.6-0.9,1-1.2,1.3l-1.7-0.8c0.9-0.9,1.6-1.9,2.2-3.1L819.4,43.9z M816.7,50.3l1-0.6
			c0.6,0.6,1.1,1.1,1.4,1.6v-2.1h-2.4v0.6C816.7,49.9,816.7,50.1,816.7,50.3z"/>
		<path class="st0" d="M832.1,48.3h-6.9v-1.8h6.9V48.3z M831.7,59h-3.9v0.7h-2.2v-5.9h6.1V59z M831.6,45.8h-5.8v-1.6h5.8V45.8z
			 M831.6,50.6h-5.7v-1.5h5.7V50.6z M831.6,53h-5.7v-1.5h5.7V53z M829.5,57.5v-2.1h-1.7v2.1H829.5z M841.9,46.9v1.9
			c0,0.3-0.1,0.6-0.3,0.8s-0.4,0.4-0.7,0.5s-0.7,0.1-1.3,0.1c-0.4,0-0.9,0-1.3-0.1s-0.7-0.2-1-0.4s-0.3-0.5-0.3-0.9v-3.1h-1.7V46
			v0.1v0.2c0,0.8-0.2,1.7-0.6,2.5s-0.9,1.5-1.5,2l-1.4-1.2c0.4-0.4,0.7-0.9,1-1.4s0.4-1.3,0.4-2.2v-1.8h6.1v4.1
			c0,0.2,0.1,0.3,0.2,0.3h0.3c0.1,0,0.2,0,0.2-0.1s0.1-0.1,0.1-0.1s0-0.3,0-0.6s0-0.7,0-1.1L841.9,46.9z M841.4,51
			c0,2.2-0.8,4.1-2.2,5.6c0.6,0.3,1.6,0.6,2.9,1l-1.2,2.1c-1.4-0.4-2.7-0.9-3.7-1.6c-1.4,0.9-2.9,1.4-4.4,1.7l-0.8-1.9
			c1.4-0.3,2.6-0.7,3.5-1.2c-1.1-1.1-1.9-2.4-2.2-3.8h-0.9V51H841.4z M837.2,55.4c0.7-0.8,1.2-1.6,1.5-2.5h-3.2
			C835.8,53.8,836.4,54.7,837.2,55.4z"/>
		<path class="st0" d="M850.2,48.3h-6.9v-1.8h6.9V48.3z M849.8,59h-3.9v0.7h-2.2v-5.9h6.1V59z M849.8,45.8H844v-1.6h5.8V45.8z
			 M849.7,50.6H844v-1.5h5.7V50.6z M849.7,53H844v-1.5h5.7V53z M847.6,57.5v-2.1H846v2.1H847.6z M856.5,59.9h-2.6V51h-3.5v-2.2h3.5
			v-4.9h2.6v4.9h3.5V51h-3.5V59.9z"/>
		<path class="st0" d="M877.4,52.2c-0.8,2.7-1.8,4.6-3.2,5.8s-3.1,1.8-5.2,1.8c-0.9,0-1.7-0.1-2.4-0.4s-1.2-0.6-1.7-1
			s-0.8-0.8-1-1.3s-0.4-1-0.5-1.5s-0.1-1.4-0.1-2.5c0-1.2,0.1-4.1,0.4-8.6h2.6c-0.2,4-0.4,6.9-0.4,8.4c0,1.3,0,2.1,0.1,2.5
			s0.2,0.7,0.5,1s0.6,0.6,1,0.7s1,0.3,1.6,0.3c1.4,0,2.6-0.5,3.6-1.5s1.7-2.5,2.3-4.6L877.4,52.2z"/>
		<path class="st0" d="M887,59.4l-2.6,0.5c-0.7-3-1.5-6.2-2.4-9.5l-2.6,0.8l-0.6-2.2l2.6-0.7c-0.4-1.4-0.7-2.7-1.1-3.8l2.5-0.5
			l1,3.7c1.1-0.3,2.1-0.5,2.8-0.7c-0.4-0.5-0.9-1.2-1.5-2l2-1c0.6,0.6,1.2,1.5,2,2.5c0.8-0.1,1.5-0.2,2-0.2c1.4,0,2.5,0.4,3.4,1.2
			s1.3,1.9,1.3,3.3c0,1.3-0.5,2.4-1.5,3.1s-2.2,1.1-3.8,1.1c-0.8,0-1.7-0.1-2.7-0.3l0.1-2.2c0.9,0.2,1.7,0.3,2.3,0.3c2,0,3-0.7,3-2
			c0-0.7-0.2-1.3-0.6-1.8s-0.9-0.7-1.6-0.7c-0.2,0-0.4,0-0.6,0c0.4,0.6,0.7,1.1,0.9,1.6l-2.3,0.9c-0.3-0.6-0.7-1.3-1.1-2.1
			c-1,0.2-2.2,0.5-3.6,0.9C885.4,53,886.2,56.2,887,59.4z"/>
		<path class="st0" d="M913.6,47.7h-5.2v3.3c0.3,0.7,0.5,1.6,0.5,2.7c0,1.8-0.6,3.2-1.9,4.3s-2.9,1.7-5,1.8l-0.6-2.1
			c2.6-0.2,4.2-1.1,4.9-2.8c-0.7,0.5-1.4,0.7-2.3,0.7c-1,0-1.9-0.3-2.6-0.9s-1-1.4-1-2.4c0-1.1,0.4-2,1.1-2.7s1.7-1,2.8-1
			c0.5,0,1.1,0.1,1.6,0.3v-1.2h-8.6v-2.1h8.6v-1.8h2.6v1.8h5.2V47.7z M905.9,51.7l0-0.5c-0.3-0.4-0.8-0.6-1.6-0.6
			c-0.4,0-0.7,0.2-1.1,0.5s-0.5,0.7-0.5,1.1c0,0.4,0.1,0.7,0.4,1s0.5,0.4,0.9,0.4c0.6,0,1-0.2,1.3-0.5S905.9,52.3,905.9,51.7z"/>
		<path d="M928.9,58.7l-1.1,1.1c-1.8-1.7-3.8-3.3-6-4.7c-0.4-0.3-1-0.6-1.8-1.1s-1.2-0.8-1.4-1s-0.4-0.4-0.5-0.6s-0.2-0.4-0.2-0.7
			c0-0.6,0.4-1.1,1.1-1.6c2.1-1.3,3.7-2.4,4.7-3.2s2.1-1.6,3.1-2.5l1.1,0.9c-2.1,1.8-4.5,3.5-7.3,5.3c-0.5,0.3-0.9,0.5-1,0.6
			s-0.2,0.3-0.2,0.4c0,0.1,0,0.3,0.1,0.3s0.4,0.3,1.1,0.7c2.4,1.5,4.1,2.7,5.3,3.5S927.9,57.9,928.9,58.7z"/>
		<path d="M937.9,58.9l-1.2,0.8c-0.8-1.3-1.7-2.5-2.7-3.7l1-0.7C936.3,56.7,937.2,57.9,937.9,58.9z"/>
		<path d="M955.1,46.9v-1h-3.8v-0.9h3.8v-1h1.3v1h3v0.9h-3v1h3.3v4.8h-3.3V53h4.1v1h-5.3c0,0.5-0.1,0.9-0.1,1.2h4.1v1.3
			c0,0.4,0,0.9-0.1,1.5s-0.3,1.1-0.7,1.3s-0.8,0.4-1.5,0.5h-1.8l-0.2-1.1c0.4,0,0.7,0,1,0l0.5,0h0.1c0.4,0,0.6-0.1,0.9-0.2
			s0.4-0.5,0.5-1s0.1-1,0.1-1.4h-3.1c-0.6,1.7-1.6,2.9-3.2,3.8l-0.7-0.8c1-0.7,1.7-1.4,2.2-2.2s0.8-1.8,0.8-3h-2.8v-1h4v-1.2h-3.3
			v-4.8H955.1z M953,48.9h2.1v-1.2H953V48.9z M955.1,49.7H953v1.2h2.1V49.7z M956.4,48.9h2.1v-1.2h-2.1V48.9z M958.5,49.7h-2.1v1.2
			h2.1V49.7z M960.3,46.1c-0.5-0.7-1-1.3-1.4-1.8l0.9-0.5c0.4,0.5,0.9,1.1,1.5,1.8L960.3,46.1z M964.2,56.5
			c-1.2,1.5-2.6,2.6-4.1,3.4l-0.6-0.9c1.7-1,3-2.2,4-3.7c-1-1.7-1.6-3.5-1.9-5.5c-0.2,0.4-0.5,0.7-0.8,1.1l-0.9-0.6
			c1.3-2.1,2.1-4.3,2.5-6.5l1.4,0.2c-0.3,1.5-0.6,2.5-0.9,3.1h5v1.1h-1c0,2.7-0.6,5.1-1.9,7.2c0.9,1.4,2,2.6,3.2,3.5l-1,0.9
			C966.2,59,965.2,57.9,964.2,56.5z M964.2,54.1c0.9-1.8,1.4-3.7,1.4-5.7v-0.1h-3.1C962.7,50.3,963.3,52.2,964.2,54.1z"/>
		<path d="M969,57l-0.3-1.2c0.7-0.1,1.5-0.3,2.3-0.4v-6.5h-1.8v-1.1h1.8V44h1.3v3.7h1.6v1.1h-1.6v6.2c0.9-0.2,1.6-0.4,2.1-0.5l0.1,1
			C973.4,56,971.5,56.5,969,57z M975.2,50.1l-1.5,0.4l-0.2-1.1l1.7-0.5v-4.3h1.3v3.9l2.7-0.7v-4h1.4v3.6l3.8-1l0.4,0.3v6.7
			c0,0.5-0.2,0.9-0.5,1.2s-0.7,0.4-1.3,0.4h-1.5l-0.2-1.2h1.2c0.6,0,0.8-0.2,0.8-0.7v-5.4l-2.9,0.8v7.9h-1.4V49l-2.7,0.8v7.7
			c0,0.4,0.2,0.7,0.6,0.9s1.4,0.2,3,0.2c0.7,0,1.5,0,2.3-0.1s1.3-0.1,1.4-0.2s0.3-0.1,0.4-0.3s0.2-0.4,0.2-0.8s0.1-0.9,0.1-1.5
			l1.2,0.1V58c0,0.3-0.1,0.5-0.2,0.7s-0.4,0.4-0.6,0.5s-0.6,0.2-0.9,0.2s-0.8,0.1-1.5,0.1s-1.5,0-2.2,0c-0.4,0-1,0-1.9,0
			s-1.4-0.1-1.9-0.1s-0.8-0.3-1-0.6s-0.4-0.7-0.4-1.1V50.1z"/>
		<path d="M1003.6,51c-1.3-0.5-2.7-1.4-4.3-2.6s-2.9-2.4-3.9-3.6c-1,1.4-2.3,2.6-3.9,3.8s-3,2-4.3,2.5l-0.6-0.9
			c1.5-0.7,3-1.6,4.4-2.8s2.6-2.3,3.3-3.5h2c1,1.2,2.2,2.4,3.7,3.5s3,1.9,4.3,2.4L1003.6,51z M987.6,59.5v-1.1h7.1v-3.7h-6v-1.1h6
			v-3.2h-3.9v-1.1h9.4v1.1h-4v3.2h6.1v1.1h-6.1v3.7h7.3v1.1H987.6z"/>
		<path d="M1010.7,44.1c-0.4,1.3-1.1,3-2.3,5.2h0.5v10.6h-1.4v-9.1c-0.6,1-1.3,1.9-2,2.7l-0.9-0.7c1.1-1.3,2-2.9,2.9-4.7
			s1.5-3.2,1.7-4.3L1010.7,44.1z M1022.4,56l-0.9,1c-0.9-0.8-1.8-1.8-2.8-3s-1.7-2.4-2.3-3.4v4.7h2.3v1h-2.3v3.5h-1.3v-3.5h-2.6v-1
			h2.6v-4.7c-1.8,2.9-3.5,5.1-5.3,6.4l-0.7-0.8c0.8-0.7,1.8-1.7,2.9-3.1s2-2.9,2.7-4.4h-4.6v-1.1h5.1v-3.7h1.4v3.7h5.3v1.1h-5
			c0.2,0.6,0.9,1.7,2,3.3S1021,54.9,1022.4,56z"/>
		<path d="M1033.9,56.6h-1.3v-2.9c0-0.3,0-0.6,0-0.9c-2.7,1.4-4,2.6-4,3.7c0,0.6,0.3,1,0.9,1.3s1.9,0.5,3.8,0.5
			c2.3,0,4.1-0.1,5.5-0.3l0.1,1.3c-1.4,0.2-3,0.2-4.8,0.2c-2.8,0-4.7-0.2-5.5-0.7s-1.3-1.2-1.3-2.1c0-0.8,0.4-1.6,1.1-2.4
			s2.1-1.7,4-2.6c-0.2-0.5-0.7-0.8-1.3-0.8c-0.7,0-1.5,0.1-2.3,0.4s-1.8,0.9-3,1.9l-1.5,1.2l-0.8-0.9c2.1-1.7,3.7-3.6,4.8-5.8h-4.1
			v-1.1h4.6c0.3-0.7,0.5-1.4,0.6-2.1l1.5,0.1c-0.1,0.7-0.3,1.3-0.6,2h6.5v1.1h-7c-0.3,0.7-0.9,1.6-1.7,2.7l0.1,0.1
			c0.2-0.1,0.7-0.3,1.4-0.4s1.2-0.2,1.6-0.2c1.1,0,1.9,0.4,2.3,1.3l5.2-2l0.6,1.2c-1.2,0.4-3,1-5.4,1.9c0.1,0.4,0.1,1,0.1,1.7V56.6z
			"/>
		<path d="M1054.7,55.9h-8.4v4h-1.4v-9.1c-1.1,1.4-2.2,2.6-3.3,3.4l-0.8-0.8c0.9-0.8,1.7-1.6,2.6-2.6s1.6-2.3,2.4-3.8h-4.4v-1.1h4.9
			c0.3-0.7,0.6-1.4,0.7-2.1l1.5,0.2c-0.2,0.6-0.4,1.3-0.7,1.9h10.1V47h-10.6c-0.3,0.7-0.7,1.4-1.1,2h10v9.4c0,0.4-0.2,0.7-0.5,0.9
			s-0.7,0.4-1.1,0.4h-2.7l-0.2-1.3h2.3c0.5,0,0.8-0.2,0.8-0.7V55.9z M1054.7,51.9V50h-8.4v1.9H1054.7z M1046.3,54.9h8.4v-2h-8.4
			V54.9z"/>
		<path d="M1059.7,52.1l-0.9-0.7c0.5-0.4,1-1,1.6-1.7s1-1.3,1.3-1.8l1.2,0.4c-0.3,0.6-0.8,1.3-1.5,2S1060.3,51.6,1059.7,52.1z
			 M1064.1,55.6c-1.4,1.8-2.8,3.2-4.4,4.3l-0.8-0.8c1.3-1,2.8-2.4,4.3-4.4c-1.1-1.1-1.8-1.9-2.2-2.2l0.9-0.8c0.4,0.3,1,1,2,1.9
			c0.5-0.9,0.9-1.7,1.2-2.5l1.3,0.4c-0.3,1.1-0.9,2.1-1.5,3.2c0.9,1,1.5,1.7,1.9,2.1l-1,0.8C1065.4,57,1064.8,56.4,1064.1,55.6z
			 M1059.4,47.1v-1h3.8V44h1.3V46h3.6v1H1059.4z M1067.7,51.4c-0.4-0.3-0.9-0.8-1.5-1.5s-1.1-1.3-1.4-1.7l1-0.5
			c1,1.3,1.9,2.2,2.8,2.9L1067.7,51.4z M1070.5,59.6l-0.1-1.2h1.6c0.9,0,1.4-0.4,1.6-1.2s0.3-2.5,0.3-5l0-3.7h-2.1
			c0,2.6-0.5,4.8-1.5,6.8s-2.2,3.5-3.7,4.7l-0.9-0.8c3.1-2.6,4.6-6.1,4.7-10.6h-1.8v-1.1h1.8v-3.5h1.4v3.5h3.4v1.1l0,2.6
			c0,1.4,0,2.7-0.1,3.9s-0.2,2.2-0.3,2.8c-0.1,0.3-0.2,0.6-0.3,0.8s-0.3,0.4-0.6,0.6s-0.5,0.3-0.8,0.3
			C1072.9,59.6,1072,59.6,1070.5,59.6z"/>
		<path d="M1079.9,51.6c-0.6-0.6-1.6-1.4-2.8-2.3l0.9-1c1.1,0.7,2,1.5,2.8,2.2L1079.9,51.6z M1078.5,59.4l-1.2-0.8
			c0.5-0.6,1-1.5,1.7-2.7s1.1-2.2,1.4-3l1.2,0.4c-0.2,0.8-0.6,1.7-1.3,2.9S1079.1,58.5,1078.5,59.4z M1080.9,47.5
			c-1.1-1-2.1-1.7-2.9-2.4l0.9-0.9c0.7,0.5,1.7,1.3,2.9,2.2L1080.9,47.5z M1091.2,59.1h-7.1v0.7h-1.4v-7.1h4.2v-2.8h-5.3v-1.1h5.3
			v-2.7c-1.4,0.1-2.8,0.2-4.3,0.3l-0.2-1.1c4.2-0.2,7.4-0.6,9.8-1.2l0.7,1.1c-1.1,0.3-2.6,0.6-4.6,0.8v2.9h5.3v1.1h-5.3v2.8h4.2v7.1
			h-1.4V59.1z M1084.1,58l7.1,0v-4.2h-7.1V58z"/>
		<path d="M1109.4,54.2h-4.9v5.5h-1.4v-5.5h-4.9c-0.3,2.3-1.1,4.2-2.4,5.7l-0.9-0.6c0.8-1.1,1.3-2.2,1.6-3.4s0.5-2.7,0.5-4.2v-6.9
			h13.8v13.7c0,0.4-0.2,0.7-0.5,0.9s-0.7,0.4-1.1,0.4h-2.4l-0.2-1.2h2c0.6,0,0.8-0.2,0.8-0.7V54.2z M1098.3,53.1h4.8v-3.2h-4.7v1.5
			C1098.3,51.5,1098.3,52.1,1098.3,53.1z M1103.1,45.7h-4.7v3.1h4.7V45.7z M1109.4,48.8v-3.1h-4.9v3.1H1109.4z M1104.4,53.1h4.9
			v-3.2h-4.9V53.1z"/>
		<path d="M1128.8,47.4h-4.4c-1.1,0.5-2.1,1.3-3.1,2.5s-1.5,2.5-1.5,3.8c0,1,0.3,1.9,0.8,2.5s1.3,1.2,2.2,1.5s2.1,0.5,3.6,0.5
			c0.3,0,0.7,0,1.1,0l-0.1,1.3h0c-1.1,0-2,0-2.7-0.1s-1.5-0.2-2.3-0.4s-1.5-0.6-2.1-1.1s-1.1-1.1-1.3-1.8s-0.4-1.4-0.4-2.3
			c0-1.2,0.4-2.3,1.1-3.5s1.7-2.1,2.8-2.9h-8.8v-1.2h15.3V47.4z M1126.6,51.1l-1,0.5c-0.4-0.9-0.8-1.8-1.3-2.5l0.9-0.4
			C1125.8,49.5,1126.2,50.3,1126.6,51.1z M1129.1,50.6l-1,0.4c-0.4-0.9-0.8-1.7-1.3-2.4l0.9-0.5
			C1128.2,48.7,1128.7,49.6,1129.1,50.6z"/>
		<path d="M1145.1,54.5l-1,1c-0.6-0.4-1.4-0.8-2.4-1s-1.8-0.4-2.7-0.4c-1.9,0-3.2,0.2-3.8,0.6s-1,0.9-1,1.6c0,0.6,0.4,1.1,1.1,1.4
			s2.2,0.5,4.4,0.5c1.9,0,3.7-0.1,5.2-0.4l0,1.3c-1.3,0.2-3.1,0.3-5.2,0.3c-2.5,0-4.3-0.3-5.4-0.8s-1.6-1.3-1.6-2.4
			c0-1.1,0.5-1.9,1.5-2.5s2.3-0.9,4-0.9c1.8,0,3.4,0.3,4.7,0.8c-0.6-0.8-1.1-1.6-1.6-2.5h-9.1V50h8.6c-0.3-0.7-0.6-1.4-0.8-2.1h-7.3
			v-1.1h6.9c-0.2-0.8-0.3-1.5-0.4-2.2l1.4-0.1c0.2,1,0.3,1.8,0.4,2.3h5.1v1.1h-4.8c0.2,0.5,0.4,1.2,0.8,2.1h4.8v1.1h-4.2
			C1143.3,52,1144,53.1,1145.1,54.5z"/>
		<path d="M1159.9,58.2c2.2-0.5,3.3-1.7,3.3-3.4c0-1.1-0.4-1.9-1.2-2.5s-1.9-0.9-3.2-0.9c-0.9,0-1.8,0.1-2.7,0.4s-1.9,0.7-3,1.4
			s-1.9,1.3-2.4,1.7l-0.7-1.1c3.6-2.3,7.1-4.7,10.5-7.3l-8.9,0v-1.2h10.7l0.6,0.9l-6.2,4.3l0.1,0.1c0.7-0.2,1.4-0.3,2.1-0.3
			c1.7,0,3.1,0.4,4.1,1.2s1.6,1.8,1.6,3.2c0,1.6-0.7,2.8-2,3.7s-3.1,1.3-5.3,1.3c-3.1,0-4.6-0.8-4.6-2.5c0-0.7,0.3-1.2,0.9-1.7
			s1.3-0.7,2.1-0.7c1.1,0,2,0.3,2.7,0.9S1159.7,57.1,1159.9,58.2z M1158.6,58.4c-0.3-1.7-1.3-2.5-2.7-2.5c-0.5,0-0.9,0.1-1.3,0.4
			s-0.6,0.5-0.6,0.9c0,0.9,1,1.3,3.1,1.3C1157.6,58.5,1158.1,58.5,1158.6,58.4z"/>
		<path d="M1178.4,59.9l-0.2-1.2h1.9c0.4,0,0.7-0.1,1-0.3s0.5-0.7,0.6-1.4s0.2-1.6,0.2-2.6V54h-10.7c-1.1,1.6-2.3,3-3.6,4.1
			l-0.8-0.8c2.6-2.3,4.7-5.6,6.4-10h-5.3v-1.1h2.6l-1.1-1.9l1.3-0.5l1.3,2.3h1.6c0.2-0.6,0.3-1.4,0.6-2.5l1.4,0.1
			c-0.2,1-0.4,1.8-0.5,2.3h6.3l-0.5,3.4h1.5l-0.4,3.4h1.4c0,1.7,0,2.6,0,2.8c-0.1,0.8-0.2,1.5-0.3,2.1s-0.3,1-0.4,1.2
			s-0.3,0.4-0.5,0.6s-0.4,0.2-0.7,0.3s-0.8,0.1-1.8,0.1C1178.8,59.9,1178.4,59.9,1178.4,59.9z M1170.9,59.5l-1.3-0.4
			c0.6-1,1-2.3,1.4-3.7l1.2,0.2C1172.1,56.9,1171.6,58.2,1170.9,59.5z M1171.9,52.8h8.6l0.3-2.2h-7.7
			C1172.7,51.4,1172.3,52.1,1171.9,52.8z M1173.8,58.9c0-0.2-0.2-1.3-0.6-3.3l1.3-0.2c0.2,0.9,0.4,2,0.7,3.3L1173.8,58.9z
			 M1174.6,47.2c-0.3,0.7-0.6,1.5-0.9,2.3h5.8l0.4-2.3H1174.6z M1176.7,58.2c0-0.1-0.3-1.1-0.9-2.9l1.2-0.3c0.5,1.5,0.8,2.5,0.9,2.9
			L1176.7,58.2z M1179.2,57.1c-0.1-0.2-0.4-1-0.9-2.2l1.1-0.3c0.4,0.8,0.7,1.5,1,2.2L1179.2,57.1z"/>
		<path d="M1189.9,58.9l-1.2,0.8c-0.8-1.3-1.7-2.5-2.7-3.7l1-0.7C1188.3,56.7,1189.2,57.9,1189.9,58.9z"/>
		<path class="st0" d="M455.1,85.9l0.6-2c0.8,0.4,1.6,0.6,2.4,0.6c0.8,0,1.5-0.2,2-0.6s0.7-1,0.7-1.7c0-0.9-0.4-1.5-1.1-2
			s-1.7-0.7-3-0.7c-0.8,0-1.6,0.1-2.5,0.2v4.8c0,0.7-0.3,1.2-0.8,1.6s-1.3,0.6-2.1,0.6c-1.2,0-2.1-0.3-2.9-1s-1.2-1.5-1.2-2.6
			c0-1,0.4-2,1.2-2.9s1.9-1.5,3.3-2V76h-4.1v-2.1h4.1v-2.8h2.6v2.8h4.3V76h-4.3v1.6c0.8-0.1,1.6-0.2,2.5-0.2c2,0,3.6,0.4,4.8,1.2
			s1.8,1.9,1.8,3.4c0,1.4-0.5,2.6-1.4,3.4s-2.2,1.3-3.7,1.3C457.2,86.7,456.1,86.4,455.1,85.9z M451.8,80.5
			c-1.5,0.7-2.3,1.6-2.3,2.6c0,0.4,0.2,0.8,0.5,1.1s0.8,0.4,1.2,0.4c0.3,0,0.5-0.2,0.5-0.5V80.5z M464.2,75.8l-1.9,1.5
			c-0.4-0.5-1.2-1.3-2.3-2.3s-1.9-1.7-2.5-2.1l1.5-1.5c0.8,0.5,1.6,1.1,2.6,2S463.5,75,464.2,75.8z"/>
		<path class="st0" d="M481.8,73.9h-13.5v2.8c0,2.1-0.2,4.1-0.6,6s-0.9,3.2-1.5,4l-1.7-1c0.3-0.4,0.5-1.2,0.8-2.3s0.5-2.1,0.6-3.1
			s0.1-2,0.1-3.1v-5h6.6v-1.3h2.4v1.3h6.7V73.9z M473.2,78.4c0,2-0.4,3.7-1.2,5c0.4,0.3,0.8,0.5,1.4,0.7s1.1,0.3,1.7,0.3
			s1.7,0.1,3.2,0.1c1.6,0,2.8,0,3.6-0.1l-0.4,1.9c-3.2,0-5.2,0-6-0.1s-1.7-0.2-2.4-0.4s-1.4-0.6-2-1c-0.7,0.7-1.4,1.3-2.3,1.8
			l-1-1.4c0.8-0.5,1.5-1.1,2.1-1.8c-0.5-0.7-1-1.5-1.3-2.4l1.5-0.7c0.2,0.6,0.5,1.1,0.8,1.6c0.3-0.7,0.5-1.3,0.5-2H469l-0.3-0.4
			l1.7-3.1h-1.7v-1.6h4.1l0.3,0.4l-1.8,3.2H473.2z M480.9,83.6h-7v-1.7h2.4v-2h-2.7v-1.7h2.7v-1.5c-0.7,0.1-1.5,0.1-2.4,0.2
			l-0.3-1.7c2.3-0.1,4.5-0.4,6.5-1l1,1.7c-0.6,0.2-1.4,0.4-2.4,0.6v1.7h2.7v1.7h-2.7v2h2.2V83.6z"/>
		<path class="st0" d="M491,86.4l-2.6,0.5c-0.7-3-1.5-6.2-2.4-9.5l-2.6,0.8l-0.6-2.2l2.6-0.7c-0.4-1.4-0.7-2.7-1.1-3.8l2.5-0.5
			l1,3.7c1.1-0.3,2.1-0.5,2.8-0.7c-0.4-0.5-0.9-1.2-1.5-2l2-1c0.6,0.6,1.2,1.5,2,2.5c0.8-0.1,1.5-0.2,2-0.2c1.4,0,2.5,0.4,3.4,1.2
			s1.3,1.9,1.3,3.3c0,1.3-0.5,2.4-1.5,3.1s-2.2,1.1-3.8,1.1c-0.8,0-1.7-0.1-2.7-0.3l0.1-2.2c0.9,0.2,1.7,0.3,2.3,0.3c2,0,3-0.7,3-2
			c0-0.7-0.2-1.3-0.6-1.8s-0.9-0.7-1.6-0.7c-0.2,0-0.4,0-0.6,0c0.4,0.6,0.7,1.1,0.9,1.6l-2.3,0.9c-0.3-0.6-0.7-1.3-1.1-2.1
			c-1,0.2-2.2,0.5-3.6,0.9C489.4,80,490.2,83.2,491,86.4z"/>
		<path class="st0" d="M502.7,81.5c0,0.6-0.1,1.4-0.2,2.5s-0.3,1.9-0.4,2.4l-1.2-0.6c0.2-0.4,0.3-1.1,0.4-2s0.2-1.7,0.2-2.4
			L502.7,81.5z M508.8,79.1c0,3.1-0.1,5.2-0.4,6.2s-1,1.5-2.1,1.5h-1.7l-0.2-1.7h1.4c0.3,0,0.5-0.1,0.7-0.3s0.3-0.5,0.3-0.9
			s0.1-1.4,0.1-3.2h-3.2V81h-2v-9.6h7.1v1.6h-2v1h1.6v1.5h-1.6v1.1h1.6V78h-1.6v1.1H508.8z M504.2,84.9l-0.9,0.1l-0.2-3.6l0.8-0.1
			L504.2,84.9z M504.9,72.9h-1.1v1h1.1V72.9z M503.8,75.5v1.1h1.1v-1.1H503.8z M503.8,78v1.1h1.1V78H503.8z M505.6,84.3l-0.8,0.2
			l-0.4-3.2l0.7-0.2L505.6,84.3z M506.7,83.2l-0.7,0.3l-0.4-2.5l0.6-0.2L506.7,83.2z M518.1,86.3h-9.4v-2.1h3.4v-3.4h-2.9v-2h2.9V76
			h-3v-2h3.6c-0.5-0.6-1.2-1.3-2-2l1.8-1.3c0.8,0.7,1.7,1.6,2.9,2.9l-0.6,0.5h2.9v2h-3.2v2.8h2.8v2h-2.8v3.4h3.6V86.3z"/>
		<path class="st0" d="M535.6,84.8h-7v1.9h-2.4v-1.9h-6.9v-1.9h6.9v-1h-5.7v-7.1h5.7v-1h-6.5V72h6.5v-1.2h2.4V72h6.7v1.8h-6.7v1h5.6
			v7.1h-5.6v1h7V84.8z M522.9,77.5h3.3v-1.1l-3.3,0V77.5z M526.2,79.1h-3.3v1.2h3.3V79.1z M528.7,77.5h3.3v-1.1l-3.3,0V77.5z
			 M531.9,79.1h-3.3v1.2h3.3V79.1z"/>
		<path class="st0" d="M541.6,82.7c-1,0.4-2.5,0.8-4.5,1.4l-0.4-2.2c0.6-0.1,1.3-0.3,2-0.4v-5.1H537v-1.8h1.6v-3.6h2.3v3.6h1.3v1.8
			h-1.3v4.5c0.5-0.2,1-0.3,1.3-0.4l0,0.6c0.7-0.7,1.3-1.3,1.7-1.8h-1.7v-1.7H554v1.7h-7.6c-0.2,0.3-0.3,0.6-0.5,0.8h7.6
			c0,1.5,0,2.5,0,3s-0.1,1.2-0.3,1.8s-0.4,1.1-0.8,1.4s-0.9,0.4-1.6,0.4h-1.7l-0.3-1.9h1.2c0.2,0,0.5-0.1,0.7-0.2s0.3-0.5,0.4-1
			s0.1-1.2,0.1-1.9H551c-1,2-2.6,3.7-4.7,5.1l-1.3-1.2c1.6-1.2,2.9-2.4,3.8-3.9h-1c-0.6,0.9-1.4,1.8-2.4,2.7s-2,1.6-2.9,2l-1.2-1.3
			c1.6-0.9,3-2.1,4.1-3.4h-0.9c-0.7,0.7-1.4,1.3-2.3,1.8L541.6,82.7z M552.9,76.8h-9.5v-5.7h9.5V76.8z M550.6,73.3v-0.8h-5v0.8
			H550.6z M550.6,75.4v-0.8h-5v0.8H550.6z"/>
		<path class="st0" d="M563,86.6l-0.7-2.2c2.3-0.3,4.1-0.8,5.2-1.6s1.8-2,1.8-3.6c0-1.4-0.4-2.4-1.3-3.3s-2-1.3-3.5-1.4
			c-0.1,3.3-0.7,5.9-1.8,8s-2.5,3.1-4.2,3.1c-1.1,0-2-0.5-2.6-1.5s-1-2.2-1-3.5v-0.2c0-2,0.8-3.8,2.4-5.4s3.7-2.4,6.2-2.5h0.4
			c2.4,0,4.3,0.6,5.8,1.8s2.3,2.8,2.3,4.9c0,2.3-0.8,4-2.3,5.3S566,86.4,563,86.6z M562.1,74.7c-1.3,0.3-2.4,1-3.4,2.1
			s-1.4,2.3-1.4,3.6c0,0.7,0.1,1.3,0.3,1.8s0.5,0.8,1,0.8c0.8,0,1.6-0.8,2.2-2.4S562,77.1,562.1,74.7z"/>
		<path class="st0" d="M590.1,84.9l-2,1.9c-1-1.1-3-3-6-5.5c-2.6,2.5-5.3,4.4-8.2,5.6l-1.3-2.1c2.2-1,4.4-2.4,6.5-4.2
			s3.7-3.9,4.7-6.2l-8.9,0v-2.3h11.5l0.7,0.7c-0.4,1.5-0.9,2.7-1.4,3.7s-1.2,1.9-2,3C586.3,81.5,588.4,83.3,590.1,84.9z"/>
		<path class="st0" d="M608.4,83.2l-1.6,2.6c-2-2.2-3.5-3.8-4.7-5.1s-2-2.1-2.5-2.6s-1.1-1.2-1.8-1.9c0,0-0.1,0-0.1,0
			c0,0-0.1,0-0.1,0s-0.3,0.3-0.7,0.9s-1,1.4-1.7,2.4l-2.7,3.9l-2-1.8c3-4.3,4.7-6.7,5.2-7.3s1.1-0.8,1.9-0.8c0.3,0,0.6,0,0.9,0.1
			s0.5,0.2,0.8,0.4s0.7,0.7,1.5,1.5l2.9,3C604.8,79.6,606.4,81.2,608.4,83.2z M606.4,74.3c0,0.5-0.2,1-0.6,1.3s-0.8,0.5-1.4,0.5
			s-1-0.2-1.4-0.5s-0.6-0.8-0.6-1.3s0.2-1,0.6-1.3s0.8-0.5,1.4-0.5s1,0.2,1.4,0.5S606.4,73.7,606.4,74.3z M605.2,73.5
			c-0.2-0.2-0.5-0.3-0.8-0.3s-0.6,0.1-0.8,0.3s-0.3,0.5-0.3,0.8s0.1,0.6,0.3,0.8s0.5,0.3,0.8,0.3s0.6-0.1,0.8-0.3s0.3-0.5,0.3-0.8
			S605.4,73.7,605.2,73.5z"/>
		<path class="st0" d="M625.6,80.3h-16.1V78h16.1V80.3z"/>
		<path class="st0" d="M644.1,84.9l-2,1.9c-1-1.1-3-3-6-5.5c-2.6,2.5-5.3,4.4-8.2,5.6l-1.3-2.1c2.2-1,4.4-2.4,6.5-4.2
			s3.7-3.9,4.7-6.2l-8.9,0v-2.3h11.5l0.7,0.7c-0.4,1.5-0.9,2.7-1.4,3.7s-1.2,1.9-2,3C640.3,81.5,642.4,83.3,644.1,84.9z"/>
		<path class="st0" d="M656.5,83.8H654l0-3.5c-2.1,1-3.1,2-3.1,2.9c0,0.9,1,1.3,3,1.3l1,0c2.7,0,4.7-0.1,6-0.3l0.1,2.2
			c-1.6,0.2-3.3,0.2-4.8,0.2c-3,0-5.1-0.3-6.1-0.8s-1.6-1.3-1.6-2.4c0-1.8,1.7-3.5,5.1-5.2c-0.2-0.2-0.4-0.3-0.7-0.3
			c-0.6,0-1.2,0.2-2.1,0.6s-1.8,1-2.8,1.9c-0.7,0.6-1.2,1.1-1.5,1.3l-1.5-1.7c2-1.5,3.6-3.2,4.6-5.1h-3.8V73h4.7
			c0.2-0.7,0.4-1.4,0.6-2l2.6,0.1c-0.2,0.7-0.3,1.3-0.5,1.9h5.8v2.1h-6.6c-0.2,0.3-0.4,0.8-0.8,1.4c0.6-0.2,1.1-0.3,1.7-0.3
			c1.2,0,2.1,0.4,2.6,1.1c0.8-0.3,2.4-1,4.8-1.9l1,2.1c-1.2,0.4-2.9,1-5.2,1.8c0.1,0.4,0.1,0.9,0.1,1.4L656.5,83.8z"/>
		<path class="st0" d="M669.2,84.8h-2.8v1h-1.9v-5.1c-0.2,0.3-0.4,0.6-0.5,0.8l-1.3-1.2c1.3-2.1,2.1-4.4,2.5-7.1h-1.9v-1.8h6v1.8
			h-1.9c-0.1,1-0.3,1.9-0.6,2.8h2.4v2.6c1.5-1.4,2.6-3,3.2-4.7h-0.9v1.6h-1.9v-3.4h3.3c0.1-0.5,0.2-1,0.2-1.5l2.3,0.1
			c-0.1,0.6-0.1,1-0.2,1.4h4.7v3.4h-1.9V74h-3.3c-0.3,0.8-0.6,1.5-1,2.2h1.3c0.2-0.6,0.4-1.2,0.6-1.9l2.2,0.3l-0.7,1.5h2.9V78h-3v1
			h2.4v1.5H677v1.1h2.4v1.5H677v1.2h3v1.8H673v0.6h-2.3v-7c-0.3,0.2-0.5,0.5-0.7,0.7l-0.9-1.2V84.8z M667.3,83.1v-5.3h-1v5.3H667.3z
			 M674.7,78H673v1h1.7V78z M673,81.6h1.7v-1.1H673V81.6z M673,84.3h1.7v-1.2H673V84.3z"/>
		<path class="st0" d="M685.6,86.8h-2.4v-7.3c-0.2,0.4-0.6,0.9-1,1.5l-1.6-1.3c0.7-1.1,1.4-2.5,2.1-4.2s1.2-3.3,1.4-4.8l2.4,0.3
			c-0.3,1.6-0.9,3.3-1.6,5.1h0.6v8.2c1.5-1,2.8-2.3,3.9-3.8H686v-1.9h4.5v-1.3h-3.8v-6h10.1v6h-4v1.3h4.8v1.9h-3.8
			c1.3,1.6,2.8,2.9,4.5,3.9l-1.4,1.9c-1.5-0.9-2.8-2.1-4.1-3.6v4h-2.4v-3.9c-1,1.3-2.4,2.4-3.9,3.5l-1-1.4V86.8z M694.5,75.5v-2.4
			h-5.4v2.4H694.5z"/>
		<path class="st0" d="M715.4,79.2c-0.8,2.7-1.8,4.6-3.2,5.8s-3.1,1.8-5.2,1.8c-0.9,0-1.7-0.1-2.4-0.4s-1.2-0.6-1.7-1
			s-0.8-0.8-1-1.3s-0.4-1-0.5-1.5s-0.1-1.4-0.1-2.5c0-1.2,0.1-4.1,0.4-8.6h2.6c-0.2,4-0.4,6.9-0.4,8.4c0,1.3,0,2.1,0.1,2.5
			s0.2,0.7,0.5,1s0.6,0.6,1,0.7s1,0.3,1.6,0.3c1.4,0,2.6-0.5,3.6-1.5s1.7-2.5,2.3-4.6L715.4,79.2z"/>
		<path class="st0" d="M725,86.4l-2.6,0.5c-0.7-3-1.5-6.2-2.4-9.5l-2.6,0.8l-0.6-2.2l2.6-0.7c-0.4-1.4-0.7-2.7-1.1-3.8l2.5-0.5
			l1,3.7c1.1-0.3,2.1-0.5,2.8-0.7c-0.4-0.5-0.9-1.2-1.5-2l2-1c0.6,0.6,1.2,1.5,2,2.5c0.8-0.1,1.5-0.2,2-0.2c1.4,0,2.5,0.4,3.4,1.2
			s1.3,1.9,1.3,3.3c0,1.3-0.5,2.4-1.5,3.1s-2.2,1.1-3.8,1.1c-0.8,0-1.7-0.1-2.7-0.3l0.1-2.2c0.9,0.2,1.7,0.3,2.3,0.3c2,0,3-0.7,3-2
			c0-0.7-0.2-1.3-0.6-1.8s-0.9-0.7-1.6-0.7c-0.2,0-0.4,0-0.6,0c0.4,0.6,0.7,1.1,0.9,1.6l-2.3,0.9c-0.3-0.6-0.7-1.3-1.1-2.1
			c-1,0.2-2.2,0.5-3.6,0.9C723.4,80,724.2,83.2,725,86.4z"/>
		<path class="st0" d="M751.6,74.7h-5.2v3.3c0.3,0.7,0.5,1.6,0.5,2.7c0,1.8-0.6,3.2-1.9,4.3s-2.9,1.7-5,1.8l-0.6-2.1
			c2.6-0.2,4.2-1.1,4.9-2.8c-0.7,0.5-1.4,0.7-2.3,0.7c-1,0-1.9-0.3-2.6-0.9s-1-1.4-1-2.4c0-1.1,0.4-2,1.1-2.7s1.7-1,2.8-1
			c0.5,0,1.1,0.1,1.6,0.3v-1.2h-8.6v-2.1h8.6v-1.8h2.6v1.8h5.2V74.7z M743.9,78.7l0-0.5c-0.3-0.4-0.8-0.6-1.6-0.6
			c-0.4,0-0.7,0.2-1.1,0.5s-0.5,0.7-0.5,1.1c0,0.4,0.1,0.7,0.4,1s0.5,0.4,0.9,0.4c0.6,0,1-0.2,1.3-0.5S743.9,79.3,743.9,78.7z"/>
		<path class="st0" d="M762.5,80.8c-0.3,0.8-0.7,1.7-1.1,2.7s-0.9,1.7-1.4,2.2s-0.9,0.7-1.5,0.7c-1.3,0-2.4-0.8-3.3-2.3
			s-1.4-3.4-1.4-5.4c0-0.7,0.1-1.6,0.2-2.9c0.1-1.3,0.2-2.3,0.2-2.9h2.7c0,0.6-0.1,1.6-0.3,2.9c-0.2,1.2-0.2,2.2-0.2,2.9
			c0,1.3,0.2,2.5,0.7,3.6s0.8,1.5,1.2,1.5c0.5,0,1.2-1.3,2.2-4L762.5,80.8z M769.7,84l-2.6,0.2c0-1.8-0.3-3.6-0.9-5.5
			s-1.5-3.4-2.6-4.7l2.1-1.1C768.4,75.9,769.7,79.6,769.7,84z"/>
		<path d="M771.4,84.1l-0.7-0.8c0.8-0.7,1.7-1.6,2.6-2.8s1.6-2.3,2-3.2h-3.7v-1.1h3.9v-3c-1.2,0.2-2.4,0.3-3.5,0.4l-0.2-1.1
			c1.2-0.1,2.6-0.2,4.2-0.5s2.7-0.5,3.5-0.7l0.6,1c-0.7,0.2-1.7,0.4-3,0.7v3.3h3.2v1.1h-3.2v0.9l0,0c0.3,0.4,0.8,0.8,1.4,1.4
			s1.2,1,1.7,1.3l-0.8,1.1c-0.8-0.6-1.6-1.4-2.4-2.2v7.2h-1.4v-7.4C774.1,81.5,772.8,83,771.4,84.1z M781.6,82.7V72.3h1.4v10.4
			H781.6z M785.3,86.7h-2.2l-0.2-1.3h2c0.5,0,0.8-0.2,0.8-0.7V71.1h1.4v14.1c0,0.4-0.2,0.8-0.5,1S785.8,86.7,785.3,86.7z"/>
		<path d="M790.2,87l-1.2-0.6c0.8-1,1.5-2.1,2.1-3.4l1.3,0.4c-0.1,0.4-0.5,1.1-1,1.9S790.5,86.6,790.2,87z M790.9,82.1v-5.7h5.5
			v-5.5h1.4V73h7.6v1.1h-7.6v2.3h6.3v5.7H790.9z M802.7,77.4h-10.6v3.6h10.6V77.4z M795,86.8l-0.9-3.4l1.3-0.2
			c0.2,0.7,0.6,1.8,1,3.4L795,86.8z M799.4,86.6c-0.4-1.2-0.8-2.3-1.2-3.4l1.3-0.3c0.5,1.1,1,2.2,1.4,3.4L799.4,86.6z M804.5,86.7
			c-0.4-0.9-1.2-2-2.2-3.5l1.3-0.5c0.9,1.3,1.7,2.4,2.3,3.6L804.5,86.7z"/>
		<path d="M812.5,73.2c0,0.5,0,1.1-0.1,1.8h3.4c0.8,0,1.5,0.3,2,0.9s0.7,1.4,0.7,2.3c0,2.4-0.2,4.3-0.7,5.9s-1.4,2.3-2.6,2.3
			c-0.7,0-1.7-0.3-3.1-1l0.4-1.1c0.3,0.2,0.8,0.3,1.3,0.5s1,0.3,1.2,0.3c0.5,0,0.9-0.2,1.1-0.8s0.5-1.2,0.7-2.2s0.3-2,0.3-3.3
			c0-1.2-0.2-1.9-0.5-2.2s-0.7-0.5-1.2-0.5h-3.1c-0.2,2-0.7,3.9-1.4,5.7s-1.7,3.4-2.8,4.6l-1-0.7c0.8-0.9,1.5-2.2,2.3-3.8
			s1.3-3.5,1.5-5.7h-3.4v-1.2h3.6c0-0.4,0.1-1.6,0.1-3.5h1.4V73.2z M823.3,80.5l-1.4,0.4c-0.8-2.9-2-5.2-3.5-6.9l1-0.7
			c0.8,0.8,1.6,1.9,2.3,3.3S823.1,79.3,823.3,80.5z M821.7,73.3l-1,0.4c-0.4-0.9-0.8-1.8-1.3-2.5l0.9-0.4
			C820.9,71.6,821.4,72.4,821.7,73.3z M824.3,72.9l-1,0.4c-0.4-0.9-0.8-1.7-1.3-2.4l0.9-0.4C823.3,71,823.8,71.9,824.3,72.9z"/>
		<path d="M833.3,86.5l-0.2-1.1c2.2,0,4-0.4,5.2-1s1.8-1.6,1.8-2.9c0-0.8-0.3-1.5-0.9-2s-1.4-1-2.4-1.2c-0.8,2-2,3.7-3.6,5.3
			s-3.3,2.3-5.1,2.3c-0.8,0-1.4-0.2-1.8-0.7s-0.7-1.1-0.7-1.9c0-1.1,0.4-2.2,1.3-3.2s2-1.8,3.4-2.3c0-0.5,0-0.9,0-1.4
			c0-0.5,0-0.9,0-1.3H826v-1.2h4.4c0.1-0.9,0.1-1.7,0.2-2.4l1.4,0c-0.1,0.6-0.1,1.4-0.2,2.4h8.1V75h-8.2c0,0.7-0.1,1.3-0.1,1.8
			l0,0.5c0.9-0.2,1.9-0.4,2.8-0.4c2,0,3.7,0.4,5,1.2s2,2,2,3.4c0,1.6-0.7,2.8-2.2,3.7s-3.4,1.3-5.7,1.3H833.3z M830.4,79
			c-0.9,0.5-1.8,1.1-2.5,1.9s-1.1,1.5-1.1,2.3c0,1.1,0.4,1.6,1.3,1.6c0.9,0,1.9-0.4,3-1.1C830.8,82.3,830.5,80.8,830.4,79z
			 M835.5,78.1c-0.3,0-0.6,0-0.9,0c-1,0-1.9,0.2-2.9,0.5c0.1,1.6,0.3,3,0.6,4.3C833.6,81.6,834.6,80,835.5,78.1z"/>
		<path d="M848.8,86.8l-0.3-1.2c2.5-0.2,4.4-0.8,5.8-1.7s2-2.6,2-5.1c0-1.7-0.3-3.1-0.8-4s-1.2-1.4-2.1-1.4c-0.8,0-1.7,0.3-2.6,0.8
			s-1.6,1.5-2.3,2.7s-0.9,2.9-0.9,4.8l-1.2,0.1c-0.2-1.3-0.3-2.9-0.3-4.5c0-2.2,0.2-4.1,0.5-5.9l1.4,0.1c-0.4,2.1-0.6,4.1-0.7,5.9
			h0.1c0.4-1.6,1.2-2.8,2.4-3.8s2.4-1.4,3.6-1.4c1.4,0,2.4,0.6,3.2,1.7s1.2,2.8,1.2,4.9c0,2.7-0.8,4.7-2.2,5.9
			S851.7,86.6,848.8,86.8z"/>
		<path d="M876.8,84.5l-0.8,1.2c-1.4-1-3.1-2-5.3-2.8v1.3c0,1.5-1.4,2.3-4.2,2.3c-1.1,0-2.1-0.2-2.9-0.7s-1.2-1.1-1.2-2
			c0-0.9,0.4-1.5,1.1-2.1s1.7-0.8,2.8-0.8c1.1,0,2.1,0.1,3,0.3v-2.6h-6.7v-1.2h6.7v-2.7h-7.1v-1.2h7.1v-1.9h1.4v1.9h6.5v1.2h-6.5
			v2.7h5.8v1.2h-5.8v2.9C873.4,82.6,875.4,83.6,876.8,84.5z M869.4,83.7v-1.2c-0.8-0.3-1.7-0.4-3-0.4c-0.6,0-1.2,0.1-1.8,0.4
			s-0.8,0.7-0.8,1.2c0,0.5,0.3,0.9,0.8,1.2s1.2,0.4,2.1,0.4c0.8,0,1.4-0.1,1.7-0.2s0.6-0.3,0.8-0.4S869.4,84.1,869.4,83.7z"/>
		<path d="M895.7,74.7h-5.5v3.4c0.4,0.7,0.6,1.6,0.6,2.8c0,1.5-0.6,2.8-1.7,3.9s-2.5,1.6-4.2,1.7l-0.4-1.1c1.4-0.1,2.6-0.6,3.5-1.5
			s1.4-1.9,1.4-3.2c0-0.2,0-0.4,0-0.6c-0.1,0.7-0.5,1.2-1,1.6s-1.2,0.6-1.9,0.6c-0.9,0-1.6-0.3-2.2-0.8s-0.9-1.2-0.9-2
			c0-0.9,0.3-1.7,1-2.4s1.5-0.9,2.4-0.9c0.7,0,1.4,0.2,1.9,0.6v-2.1h-8.8v-1.2h8.8v-2.1h1.4v2.1h5.5V74.7z M888.7,78.3
			c-0.3-0.7-1-1-2.1-1c-0.5,0-1,0.2-1.4,0.6s-0.6,0.9-0.6,1.4c0,0.6,0.2,1,0.5,1.4s0.7,0.5,1.3,0.5c0.7,0,1.2-0.2,1.7-0.7
			s0.6-1,0.6-1.8V78.3z"/>
		<path d="M898,84.2c0-0.6,0.2-1.2,0.7-1.6s1-0.7,1.7-0.7s1.2,0.2,1.7,0.7s0.7,1,0.7,1.6s-0.2,1.2-0.7,1.6s-1,0.7-1.7,0.7
			s-1.2-0.2-1.7-0.7S898,84.9,898,84.2z M899,84.2c0,0.4,0.1,0.7,0.4,0.9s0.6,0.4,0.9,0.4s0.7-0.1,0.9-0.4s0.4-0.6,0.4-0.9
			s-0.1-0.7-0.4-0.9s-0.6-0.4-0.9-0.4s-0.7,0.1-0.9,0.4S899,83.9,899,84.2z"/>
	</g>
</g>
<g>
	<g>
		<path d="M447.3,127.6l-0.5-1.2c1-0.5,2.2-1.2,3.6-2.2V116h1.4v15.9h-1.4v-6.3C449.3,126.5,448.2,127.1,447.3,127.6z M448,122.4
			c-0.1-1-0.3-2.3-0.7-4.1l1.3-0.2c0.2,0.7,0.4,2,0.7,4.1L448,122.4z M453,118.1l-0.2-1c4.6-0.2,7.9-0.5,9.8-0.9l0.6,1
			c-1,0.2-2.6,0.4-4.9,0.6S454.3,118,453,118.1z M460.3,131.7h-2.4l-0.2-1.2l2,0c0.2,0,0.4-0.1,0.5-0.2s0.2-0.3,0.2-0.4v-4.4h-7.6
			v-1.1h7.6v-1.7h1.4v1.7h2v1.1h-2v5c0,0.4-0.1,0.7-0.4,1S460.7,131.7,460.3,131.7z M454,122.9c-0.3-1.4-0.6-2.5-0.9-3.3l1.3-0.3
			c0.4,1,0.7,2.1,0.9,3.3L454,122.9z M456,129.8c-0.8-1.2-1.5-2.2-2.1-2.9l1.1-0.7c0.5,0.7,1.3,1.6,2.2,2.9L456,129.8z M457.3,121.9
			c-0.3-1.5-0.6-2.5-0.9-3.2l1.2-0.3c0.4,1.4,0.7,2.5,0.9,3.2L457.3,121.9z M460.5,122.7l-1.1-0.4c0.7-1,1.5-2.4,2.3-4.2l1.4,0.5
			C462,120.6,461.1,122,460.5,122.7z"/>
		<path d="M465.3,131l-0.6-1c1.6-0.7,3.1-1.7,4.5-2.8s2.5-2.2,3.1-3h-6.9v-1.1h3.4c-0.6-1.4-1.1-2.4-1.4-3l1.3-0.4
			c0.4,0.7,0.9,1.8,1.6,3.4h2.4v-4.3h-6.7v-1.1h6.7v-1.9h1.4v1.9h6.9v1.1H474v4.3h2.5c0.8-1.4,1.4-2.5,1.8-3.4l1.4,0.4
			c-0.5,0.9-1.1,1.9-1.7,3h3.6v1.1h-7.3c0.6,0.9,1.7,1.9,3.4,3.1s3.2,2.1,4.4,2.5l-0.8,1.2c-1.3-0.6-2.7-1.4-4.1-2.4s-2.5-2-3.2-2.9
			v6.2h-1.4v-6.1c-0.9,1-2.1,2-3.4,2.9S466.5,130.5,465.3,131z"/>
		<path d="M487.9,130.9l-1.2,0.8c-0.8-1.3-1.7-2.5-2.7-3.7l1-0.7C486.3,128.7,487.2,129.9,487.9,130.9z"/>
		<path d="M501.8,131.9l-0.4-1c1.6-0.4,2.8-1,3.7-1.9s1.3-2.2,1.3-4h1.4c0,1.5-0.2,2.7-0.7,3.5s-1.2,1.6-2,2.1
			S503,131.7,501.8,131.9z M510.1,118.6v1.9h6v1.1h-13.4v-1.1h6v-1.9h-7.1v-1.1h7.1V116h1.4v1.5h7.1v1.1H510.1z M515.9,125.9v-1.8
			H503v1.9h-1.3v-3h15.4v2.9H515.9z M510.5,125h1.4v4.7c0,0.2,0.1,0.4,0.3,0.5s0.7,0.2,1.6,0.2c0.7,0,1.2,0,1.5-0.1s0.5-0.3,0.6-0.5
			s0.1-1,0.1-2.1l1.2,0.1v2.1c0,0.5-0.1,0.8-0.4,1.1s-0.7,0.4-1.2,0.5s-1.2,0.1-2,0.1c-0.8,0-1.3,0-1.7-0.1s-0.7-0.1-0.9-0.3
			s-0.3-0.3-0.5-0.5s-0.2-0.5-0.2-0.8V125z"/>
		<path d="M519.1,131.2l-0.2-1.2l1.2-0.1c0.8-1.9,1.5-3.8,2.1-5.8h-3v-1.1h3.9v-3.6h-3.2v-1.1h3.2v-2.4h1.4v2.4h3.1v1.1h-3.1v3.6
			h3.6v1.1h-4.4c-0.6,1.9-1.4,3.8-2.2,5.7c1.9-0.2,3.4-0.4,4.5-0.6l-1.3-3l1.2-0.4c0.3,0.5,1,2.3,2.3,5.2l-1.3,0.4
			c-0.1-0.2-0.2-0.6-0.5-1.2C524.6,130.6,522.2,130.9,519.1,131.2z M533.5,129.2h-2.2l-0.2-1.2h1.7c0.6,0,0.8-0.2,0.8-0.7v-9.7h-3.4
			v14.3h-1.4v-15.3h6.2v11.3c0,0.4-0.2,0.7-0.5,0.9S534,129.2,533.5,129.2z"/>
		<path d="M544.2,131.3l-1.4,0.3c-0.4-2-1.2-5.1-2.4-9.5c-1.1,0.3-2.2,0.6-3.2,0.9l-0.2-1.2l3.2-0.9c-0.4-1.6-0.8-2.9-1.1-4l1.4-0.3
			l1.1,4c1.7-0.4,3.1-0.8,4.3-1.1c-0.5-0.8-1-1.5-1.5-2.1l1.1-0.6c0.4,0.4,0.9,1.2,1.8,2.4c1.1-0.2,1.9-0.3,2.5-0.3
			c1.2,0,2.2,0.3,3,1s1.1,1.6,1.1,2.8c0,1.2-0.4,2.2-1.3,2.9s-2,1.1-3.6,1.1c-0.8,0-1.6-0.1-2.4-0.2l0-1.1c0.6,0.1,1.3,0.2,2,0.2
			c0.6,0,1,0,1.5-0.1s0.8-0.2,1.2-0.5s0.6-0.5,0.8-0.9s0.3-0.8,0.3-1.3c0-0.9-0.2-1.5-0.7-2s-1.1-0.7-2-0.7c-0.4,0-1,0.1-1.8,0.2
			c0.4,0.6,0.7,1.2,1,1.8l-1.3,0.5c-0.2-0.5-0.6-1.2-1.2-2.1c-1.3,0.3-2.9,0.7-4.7,1.2L544.2,131.3z"/>
		<path d="M558.3,123.5c-0.7,1.7-1.7,3.2-2.9,4.6l-0.8-0.7c0.7-1,1.5-2.1,2.1-3.5s1.2-2.5,1.4-3.5h-2.7v-1.1h2.8v-3.5h1.4v3.5h2.1
			v1.1h-2.1v1.8c0.8,0.9,1.6,1.7,2.5,2.2l-0.7,1c-0.7-0.6-1.3-1.2-1.7-1.7v8.1h-1.4V123.5z M569.6,130.9h-5.4v0.8h-1.4v-15.1h8.2
			v15.1h-1.4V130.9z M569.6,120.9v-3.3h-5.4v3.3H569.6z M564.2,125.2h5.4v-3.3h-5.4V125.2z M564.2,129.8h5.4v-3.6h-5.4V129.8z"/>
		<path d="M574.9,126.1c-0.1,0.6-0.2,1.4-0.4,2.3s-0.4,1.5-0.5,1.9l-1.1-0.2c0.5-1.9,0.8-3.3,0.9-4.1L574.9,126.1z M579.4,125.1
			l-1.1,0.2l-0.2-0.8c-0.3,0-0.6,0.1-1.1,0.1v7.3h-1.3v-7.2l-2.6,0.3L573,124c0.3,0,0.6,0,1,0c0.5-0.6,1-1.3,1.6-2.2
			c-0.3-0.3-1.1-1.1-2.6-2.5l0.7-0.9l0.5,0.4c0.8-1,1.4-2,1.8-2.9l1.2,0.4c-0.6,1.1-1.4,2.1-2.2,3.2c0.6,0.6,1,1,1.3,1.2
			c0.8-1.1,1.3-2,1.7-2.7l1.1,0.5c-1.4,2.1-2.6,3.8-3.8,5.2c0.6-0.1,1.4-0.1,2.6-0.3c-0.1-0.5-0.3-1-0.4-1.2l1-0.2
			C578.7,122.4,579,123.4,579.4,125.1z M579.6,128.9l-1.1,0.2c-0.2-1.2-0.3-2.2-0.4-2.9l1.1-0.1L579.6,128.9z M583.6,124.7
			c0,0.9,0,1.6-0.1,2.2s-0.3,1.3-0.6,1.9s-0.7,1.2-1.3,1.7s-1.2,1-2.1,1.3l-0.6-0.9c1.3-0.7,2.1-1.4,2.6-2.3s0.7-2.1,0.7-3.6v-0.4
			H583.6z M589.6,118.4h-4.4v1.8h3.6v1h-8.4v-1h3.4v-1.8h-4.1v-1.1h4.1v-1.5h1.4v1.5h4.4V118.4z M589.5,125.3h-1.1v-1.7h-7.3v1.7
			H580v-2.6h9.5V125.3z M589.8,130.3c0,0.3-0.1,0.6-0.2,0.8s-0.4,0.4-0.7,0.5s-0.7,0.1-1.3,0.1c-0.6,0-1.1,0-1.4-0.1
			s-0.6-0.2-0.8-0.4s-0.3-0.6-0.3-1v-5.6h1.3v5.3c0,0.2,0.1,0.4,0.2,0.5s0.4,0.2,0.8,0.2c0.5,0,0.8-0.1,0.9-0.2s0.2-0.3,0.2-0.6
			s0-0.9,0.1-1.8l1.1,0.1V130.3z"/>
		<path d="M599.9,131.2l-0.3-1.2c1.9-0.2,3.5-0.7,4.8-1.6s2-2.3,2-4.1c0-1.6-0.5-2.9-1.6-3.8s-2.6-1.4-4.5-1.4
			c-0.1,3.2-0.6,5.8-1.7,7.9s-2.4,3.2-4,3.2c-1,0-1.8-0.4-2.4-1.3s-0.9-1.9-0.9-3.1c0-2,0.9-3.8,2.6-5.4s3.8-2.4,6.2-2.4
			c2.2,0,4.1,0.6,5.5,1.7s2.2,2.6,2.2,4.6c0,2.2-0.7,3.9-2.2,5.1S602.2,131,599.9,131.2z M598.9,119.1c-1.7,0.3-3.2,1-4.4,2.3
			s-1.8,2.7-1.8,4.3c0,0.9,0.2,1.6,0.5,2.2s0.9,0.9,1.5,0.9c1.1,0,2.1-1,2.9-3.1S598.8,121.4,598.9,119.1z"/>
		<path d="M613,121.6c0.2,0.2,0.4,0.6,0.7,1.2s0.5,1.1,0.6,1.5s0.1,0.8,0.1,1.2c0,0.5,0,1-0.1,1.4s-0.2,0.7-0.4,1s-0.4,0.5-0.7,0.6
			s-0.5,0.2-0.7,0.2s-0.5,0-1.1,0l-0.2-1.1l1,0c0.6-0.1,0.9-0.8,0.9-2c0-1.3-0.5-2.5-1.4-3.7l0-0.3c0.2-0.5,0.5-1.3,0.8-2.3
			s0.5-1.6,0.5-1.8H611V132h-1.2v-15.5h4.6l0.3,0.4c-0.1,0.6-0.4,1.5-0.8,2.6S613.2,121.3,613,121.6z M614.5,131.3l-0.8-0.8
			c1.4-1,2.5-2,3.3-3.1l1.2,0.6c-0.4,0.5-1,1.2-1.7,1.9S615,131,614.5,131.3z M616.8,122.1c-0.5-0.5-1.1-0.9-1.6-1.3
			c-0.1,0.1-0.2,0.3-0.4,0.5l-0.7-0.5c1.2-1.6,2.1-3.2,2.6-4.9l1.2,0.2c-0.1,0.3-0.2,0.5-0.3,0.8h3.5c0.4,1.2,1.1,2.4,2,3.8
			c0.6-1,1-2,1.3-3h-2.5v-0.9h3.7l0.3,0.4c-0.6,1.8-1.3,3.3-2.1,4.5c0.6,0.7,1.4,1.5,2.4,2.3l-0.8,0.9c-1-0.9-2-1.9-2.9-3.1
			s-1.6-2.4-2.1-3.7c-0.7,2.6-2.4,4.8-5,6.8l-0.6-0.7C615.5,123.5,616.2,122.8,616.8,122.1z M619,130.7c0.4,0,0.6-0.2,0.6-0.5v-3.7
			h-4.3v-1h10.2v1H621v4.2c0,0.8-0.5,1.2-1.5,1.2h-1.8l-0.1-1.2H619z M615.7,120.1c0.4,0.3,1,0.7,1.7,1.3c0.4-0.6,0.7-1,0.8-1.2
			c-0.4-0.3-1-0.7-1.8-1.1C616.1,119.5,615.9,119.8,615.7,120.1z M618.6,119.4c0.3-0.6,0.6-1.2,0.7-1.7h-2.2
			c-0.1,0.2-0.2,0.4-0.4,0.7C617.6,118.8,618.2,119.2,618.6,119.4z M618.1,123.5v-1h4.8v1H618.1z M625.3,131.3
			c-0.5-0.3-1.1-0.9-1.7-1.6s-1.2-1.3-1.5-1.9l1.1-0.5c0.3,0.4,0.7,1,1.4,1.6s1.2,1.2,1.7,1.5L625.3,131.3z"/>
		<path d="M639.1,124.8H633c-0.3,1.7-0.4,2.8-0.4,3.3c0,1.5,1.4,2.3,4.1,2.3c3.4,0,5-0.9,5-2.6c0-1.3-0.3-2.5-1-3.7l1.1-0.4
			c0.8,1.4,1.2,2.9,1.2,4.3c0,2.4-2.1,3.7-6.4,3.7c-3.6,0-5.5-1.2-5.5-3.5c0-0.7,0.1-1.7,0.3-3.2H628v-1.2h3.7
			c0.1-0.8,0.3-1.8,0.6-3.2h-4.3v-1.2h4.5c0.1-0.6,0.3-1.4,0.6-2.5l1.4,0.1l-0.6,2.5h7.9v1.2h-8.2c-0.2,1.1-0.5,2.2-0.7,3.2h5.9
			V124.8z"/>
		<path d="M649.9,130.9l-1.2,0.8c-0.8-1.3-1.7-2.5-2.7-3.7l1-0.7C648.3,128.7,649.2,129.9,649.9,130.9z"/>
		<path d="M663.7,124.7l-0.5-0.7c1.2-0.6,2.3-1.4,3.2-2.3H664v-2.9h2.7v-1h-3.2v-0.8h3.2V116h1.3v0.9h3.3v0.8H668v1h2.8v2.9h-2.7
			c1.2,0.9,2.1,1.5,2.8,1.7l-0.6,0.8c-0.6-0.3-1.4-0.8-2.4-1.6v2.2h-1.2v-2.2C665.7,123.6,664.7,124.3,663.7,124.7z M666.2,130.6
			v-2.9h1.3v2.9h3.2v-4h-6.9v-1h15v1h-6.8v1.4h5.8v1h-5.8v1.6h7.4v1h-16.1v-1H666.2z M666.8,119.5H665v1.4h1.8V119.5z M669.8,119.5
			h-1.9v1.4h1.9V119.5z M678.7,118.8c-0.3,1.4-1,2.6-2.1,3.6c0.9,0.6,2,1.1,3.3,1.5l-0.7,1c-1.4-0.5-2.6-1.1-3.5-1.7
			c-1.2,0.8-2.5,1.3-4,1.6l-0.4-0.9c1.4-0.3,2.6-0.8,3.5-1.4c-0.8-0.7-1.4-1.5-1.8-2.4c-0.3,0.4-0.6,0.8-0.8,1l-0.8-0.5
			c1.1-1.5,1.8-3,2.2-4.6l1.3,0.2c-0.1,0.6-0.3,1.1-0.6,1.8h5.3v0.9H678.7z M675.6,121.7c1-1,1.6-1.9,1.7-2.9h-3.6l-0.1,0.2
			C674,120,674.7,120.9,675.6,121.7z"/>
		<path d="M682.1,131.9l-0.9-0.7c0.5-0.5,1-1.4,1.4-2.6s0.7-2.7,0.8-4.7h-1.9v-1.1h1.9v-5h-1.5v-1.1h8.8v1.1h-1.6v5h1.5v1.1h-1.5
			v7.8h-1.4v-7.8h-3C684.6,127.3,683.7,129.9,682.1,131.9z M684.7,117.8v5h3v-5H684.7z M690.5,131.8l-0.6-1c1.3-0.7,2.7-1.5,4-2.6
			s2.3-2,2.9-2.8l1.2,0.8c-1,1.1-2.2,2.1-3.5,3.2S691.8,131.2,690.5,131.8z M691.4,120.7l-0.7-0.9c0.9-0.5,1.8-1.1,2.8-1.8
			s1.8-1.4,2.4-2l1.1,0.7C695.4,118.3,693.5,119.6,691.4,120.7z M691.4,125.6l-0.6-1c2.2-1.1,4.2-2.5,5.8-4.1l1,0.8
			C696,122.9,694,124.3,691.4,125.6z"/>
		<path d="M699,129l-0.3-1.2c0.7-0.1,1.5-0.3,2.3-0.4v-6.5h-1.8v-1.1h1.8V116h1.3v3.7h1.6v1.1h-1.6v6.2c0.9-0.2,1.6-0.4,2.1-0.5
			l0.1,1C703.4,128,701.5,128.5,699,129z M705.2,122.1l-1.5,0.4l-0.2-1.1l1.7-0.5v-4.3h1.3v3.9l2.7-0.7v-4h1.4v3.6l3.8-1l0.4,0.3
			v6.7c0,0.5-0.2,0.9-0.5,1.2s-0.7,0.4-1.3,0.4h-1.5l-0.2-1.2h1.2c0.6,0,0.8-0.2,0.8-0.7v-5.4l-2.9,0.8v7.9h-1.4V121l-2.7,0.8v7.7
			c0,0.4,0.2,0.7,0.6,0.9s1.4,0.2,3,0.2c0.7,0,1.5,0,2.3-0.1s1.3-0.1,1.4-0.2s0.3-0.1,0.4-0.3s0.2-0.4,0.2-0.8s0.1-0.9,0.1-1.5
			l1.2,0.1v2.2c0,0.3-0.1,0.5-0.2,0.7s-0.4,0.4-0.6,0.5s-0.6,0.2-0.9,0.2s-0.8,0.1-1.5,0.1s-1.5,0-2.2,0c-0.4,0-1,0-1.9,0
			s-1.4-0.1-1.9-0.1s-0.8-0.3-1-0.6s-0.4-0.7-0.4-1.1V122.1z"/>
		<path d="M720.6,131l-1.3,0.3c-0.6-1.9-0.9-4-0.9-6.3c0-2.5,0.4-5.1,1.2-8l1.3,0.2c-0.8,2.6-1.2,5.2-1.2,7.6
			C719.8,127,720,129,720.6,131z M734.1,129.2l-0.8,1.1c-0.6-0.5-1.6-1.2-3-2.2v0.5c0,0.9-0.3,1.6-0.9,2s-1.6,0.7-3,0.7
			c-1,0-1.8-0.2-2.5-0.7s-1-1.1-1-1.9c0-0.8,0.3-1.4,1-1.9s1.4-0.7,2.4-0.7c0.9,0,1.8,0.1,2.6,0.3v-5.2h-6.2V120h6.2v-3.2h1.4v3.2
			h3.3v1.2h-3.3v5.7C731.6,127.4,732.9,128.2,734.1,129.2z M728.9,128.6v-1.1c-0.7-0.3-1.6-0.4-2.7-0.4c-0.6,0-1.1,0.1-1.5,0.4
			s-0.6,0.6-0.6,1.1c0,0.5,0.2,0.8,0.7,1.1s1,0.4,1.6,0.4C728.1,130.2,728.9,129.7,728.9,128.6z"/>
		<path class="st0" d="M740,119.7c-0.4,0.4-1,0.9-1.7,1.5s-1.4,1-2.1,1.4l-1.4-1.5c1.2-0.7,2.4-1.5,3.4-2.4L740,119.7z M741.6,130.2
			c-0.6,0.3-1.5,0.7-2.7,1s-2.3,0.5-3.3,0.6l-0.6-1.7c1.7-0.2,3.2-0.5,4.6-1h-2.8v-6.5h12.6c-1.1-0.2-1.9-0.5-2.5-0.9
			s-1.1-0.8-1.6-1.4c-0.5,0.6-1.3,1.1-2.3,1.5s-2.2,0.6-3.5,0.7l-0.5-1.7c1.3-0.1,2.5-0.4,3.4-0.8s1.5-1,1.6-1.8h-1
			c-0.6,0.6-1.2,1.1-1.9,1.5l-1.5-1c0.5-0.4,1.1-0.9,1.7-1.6s1-1.2,1.2-1.6l2.1,0.3c-0.2,0.3-0.3,0.6-0.4,0.8h7l0.7,0.5
			c-0.3,0.4-0.7,0.9-1.2,1.5s-1,1-1.3,1.2l-1.6-0.7c0.4-0.3,0.7-0.7,1-1.1h-2.4c0.2,0.4,0.5,0.8,0.9,1.1s0.8,0.6,1.2,0.8
			s1,0.3,1.7,0.5s1.5,0.3,2.3,0.3l-0.8,1.9c-0.4,0-0.8-0.1-1.2-0.1v6.3h-2.9c0.9,0.3,2.5,0.6,4.6,0.9l-0.8,1.8
			c-2.9-0.4-4.9-0.9-6-1.5l0.9-1.2h-5.6L741.6,130.2z M740.2,117.2l-1.5,1.4c-0.7-0.3-1.7-0.8-2.9-1.5l1.4-1.3
			C737.9,116.2,738.9,116.6,740.2,117.2z M747.9,124.4v-0.8H739v0.8H747.9z M739,126.2h8.9v-0.9H739V126.2z M747.9,127.1H739v0.9
			h8.9V127.1z"/>
		<path class="st0" d="M769.4,121.9h-12.8v1.3c0,1.9-0.2,3.7-0.6,5.1s-0.9,2.6-1.5,3.4l-1.8-1c0.4-0.7,0.8-1.6,1.1-2.8
			s0.5-2.7,0.5-4.5v-3.2h2.9l-0.6-1.5h-2.6v-1.8h6.4v-1.1h2.4v1.1h6.3v1.8h-2.6l-0.7,1.5h3.7V121.9z M769.5,131.4h-13.3v-1.8h5.7
			v-1.2H758v-1l-1.6-0.9c1-1.2,1.8-2.7,2.2-4.3l2.3,0.3c-0.1,0.4-0.2,0.8-0.4,1.1h1.3v-1.3h2.5v1.3h4.4v1.8h-4.4v1.1h3.8v1.8h-3.8
			v1.2h5.2V131.4z M759.7,125.5c-0.2,0.4-0.4,0.7-0.7,1.1h2.8v-1.1H759.7z M759.7,120.2h3.6l0.6-1.5H759L759.7,120.2z"/>
		<path class="st0" d="M775.1,131.8h-2.2v-7.4c-0.3,0.5-0.6,0.9-0.9,1.4l-1.4-1.3c0.8-1.3,1.4-2.7,2-4.3s1-3,1.1-4.3l2.2,0.3
			c-0.2,1.4-0.7,3.1-1.5,4.9h0.6V131.8z M785.2,130.9h-6.8v0.7h-2.2v-11.2h3v-2.1H776v-1.9h12.1v1.9h-3.8v2.1h3.1v11.2h-2.2V130.9z
			 M778.3,129.1h0.9v-6.8h-0.9V129.1z M781.2,129.1h1v-6.8h-1V129.1z M781.3,120.5h0.9v-2.1h-0.9V120.5z M784.1,129.1h1.1v-6.8h-1.1
			V129.1z"/>
		<path class="st0" d="M793.1,131.8H791v-7.6c-0.3,0.6-0.7,1.1-1.1,1.6l-1.3-1.4c0.7-1.1,1.4-2.5,2-4.1s1-3.1,1.3-4.4l2.2,0.3
			c-0.3,1.6-0.8,3.2-1.5,4.9h0.6V131.8z M797.4,128.8v-9.1h2.1v-0.9h-5.6v-1.8h5.6v-1.2h2.4v1.2h3.9v1.8h-3.9v0.9h3.1v9.1H797.4z
			 M796.5,131.8h-2.2V120h2.2v9.6h9.4v1.7h-9.4V131.8z M802.8,122.2v-1h-3.1v1H802.8z M799.7,124.7h3.1v-1.1h-3.1V124.7z
			 M799.7,127.2h3.1v-1.1h-3.1V127.2z"/>
		<path class="st0" d="M813.2,118.1c0,0.4,0,0.8,0,1.4h2.3c1,0,1.8,0.3,2.4,1s0.9,1.5,0.9,2.5c0,2.6-0.3,4.7-0.9,6.3s-1.6,2.4-3,2.4
			c-0.4,0-0.8-0.1-1.3-0.2s-1.2-0.5-2.2-1.1l0.8-2.1c1.1,0.6,1.9,0.9,2.4,0.9c0.2,0,0.4-0.1,0.6-0.3s0.3-0.5,0.5-1.1
			s0.3-1.2,0.4-1.9s0.1-1.5,0.1-2.3c0-0.6,0-1-0.1-1.2s-0.2-0.4-0.4-0.5s-0.4-0.2-0.7-0.2h-2c-0.6,4.2-2,7.6-4.4,10.2l-2-1.2
			c0.7-0.7,1.4-1.9,2.1-3.5s1.3-3.4,1.6-5.4h-3.2v-2.2h3.5l0-3.4h2.6V118.1z M824.1,125.7l-2.4,0.7c-0.5-1.6-1-3-1.5-4.1
			s-1.2-2.2-2.1-3.2l2-1.2C822.2,120.8,823.6,123.4,824.1,125.7z M822,118.3l-1.3,0.5c-0.5-1.2-0.9-2.1-1.2-2.7l1.2-0.5
			C821.3,116.6,821.7,117.5,822,118.3z M824.4,118.1l-1.2,0.5c-0.4-1-0.8-1.9-1.2-2.7l1.2-0.4C823.6,116.3,824.1,117.2,824.4,118.1z
			"/>
		<path class="st0" d="M834.1,131.8h-2.6v-13.1h-6v-2.1h16v2.1h-7.4v2.1c1.9,1.2,3.9,2.1,6,2.8l-1.1,2.4c-1.4-0.5-3.1-1.3-4.9-2.4
			V131.8z"/>
		<path class="st0" d="M849.2,118.1c0,0.4,0,0.8,0,1.4h2.3c1,0,1.8,0.3,2.4,1s0.9,1.5,0.9,2.5c0,2.6-0.3,4.7-0.9,6.3s-1.6,2.4-3,2.4
			c-0.4,0-0.8-0.1-1.3-0.2s-1.2-0.5-2.2-1.1l0.8-2.1c1.1,0.6,1.9,0.9,2.4,0.9c0.2,0,0.4-0.1,0.6-0.3s0.3-0.5,0.5-1.1
			s0.3-1.2,0.4-1.9s0.1-1.5,0.1-2.3c0-0.6,0-1-0.1-1.2s-0.2-0.4-0.4-0.5s-0.4-0.2-0.7-0.2h-2c-0.6,4.2-2,7.6-4.4,10.2l-2-1.2
			c0.7-0.7,1.4-1.9,2.1-3.5s1.3-3.4,1.6-5.4h-3.2v-2.2h3.5l0-3.4h2.6V118.1z M860.1,125.7l-2.4,0.7c-0.5-1.6-1-3-1.5-4.1
			s-1.2-2.2-2.1-3.2l2-1.2C858.2,120.8,859.6,123.4,860.1,125.7z M858,118.3l-1.3,0.5c-0.5-1.2-0.9-2.1-1.2-2.7l1.2-0.5
			C857.3,116.6,857.7,117.5,858,118.3z M860.4,118.1l-1.2,0.5c-0.4-1-0.8-1.9-1.2-2.7l1.2-0.4C859.6,116.3,860.1,117.2,860.4,118.1z
			"/>
		<path class="st0" d="M866.5,132.1l-0.5-2.2c2.9-0.3,4.9-0.9,5.9-1.8s1.6-2.2,1.6-4.1c0-3.3-0.7-4.9-2.2-4.9
			c-0.8,0-1.6,0.2-2.4,0.7s-1.5,1.3-2.1,2.5s-0.8,2.4-0.8,3.6c0,0.4,0,0.8,0.1,1.2l-2.3,0.1c-0.3-1.5-0.4-3.2-0.4-5
			c0-2.2,0.2-4.3,0.6-6.4l2.5,0.2c-0.2,0.9-0.4,2.3-0.7,4.1c0.4-0.9,1.2-1.7,2.2-2.4s2.2-1.1,3.4-1.1c1.6,0,2.7,0.6,3.6,1.9
			s1.2,2.9,1.2,5.1c0,2.7-0.8,4.8-2.4,6S869.7,131.8,866.5,132.1z"/>
		<path class="st0" d="M883.7,116.8c-0.7,2.7-1.1,5-1.1,6.8c0,2.5,0.3,5,1,7.3l-2.4,0.6c-0.6-2.4-0.9-4.8-0.9-7.2
			c0-2.5,0.3-5.1,1-7.8L883.7,116.8z M895,130.9c-1.4,0.1-2.7,0.2-3.7,0.2c-2.6,0-4.3-0.3-5.3-0.9s-1.4-1.4-1.4-2.5
			c0-1.3,0.6-2.5,1.8-3.8l1.9,1c-0.9,0.9-1.4,1.8-1.4,2.6c0,0.4,0.2,0.7,0.7,1s1.5,0.4,3.1,0.4c0.8,0,2.2-0.1,4.1-0.3L895,130.9z
			 M894.8,119.9l-0.7,0c-0.8,0-2,0-3.8,0s-3.5,0.1-5.2,0.2V118c4-0.2,6.7-0.3,8.2-0.3c0.6,0,1.1,0,1.5,0.1V119.9z"/>
		<path class="st0" d="M911,130.4l-2,1.9l-2.5-2.1c-0.8-0.7-1.5-1.2-2.2-1.7l-2-1.4c-1.3-0.9-2.1-1.5-2.4-1.7s-0.5-0.5-0.7-0.8
			s-0.2-0.6-0.2-0.9c0-0.8,0.4-1.5,1.3-2.1c0.3-0.2,1-0.7,2.1-1.4s2-1.4,2.6-1.9s1.6-1.3,2.9-2.4l2.1,1.6c-1.7,1.4-4,3.1-6.8,5
			c-0.2,0.1-0.5,0.3-0.9,0.6s-0.6,0.4-0.6,0.4s0,0.1,0,0.1c0,0.1,0,0.1,0,0.1l1.6,1.1c2,1.3,3.5,2.4,4.6,3.2S909.9,129.5,911,130.4z
			"/>
		<path class="st0" d="M929,130.4l-2,1.9l-2.5-2.1c-0.8-0.7-1.5-1.2-2.2-1.7l-2-1.4c-1.3-0.9-2.1-1.5-2.4-1.7s-0.5-0.5-0.7-0.8
			s-0.2-0.6-0.2-0.9c0-0.8,0.4-1.5,1.3-2.1c0.3-0.2,1-0.7,2.1-1.4s2-1.4,2.6-1.9s1.6-1.3,2.9-2.4l2.1,1.6c-1.7,1.4-4,3.1-6.8,5
			c-0.2,0.1-0.5,0.3-0.9,0.6s-0.6,0.4-0.6,0.4s0,0.1,0,0.1c0,0.1,0,0.1,0,0.1l1.6,1.1c2,1.3,3.5,2.4,4.6,3.2S927.9,129.5,929,130.4z
			"/>
		<path class="st0" d="M938.8,130.4l-2.1,1.4c-0.9-1.4-2-2.9-3.3-4.4l1.9-1.4C936.6,127.6,937.8,129,938.8,130.4z"/>
		<path class="st0" d="M967.7,131.3h-16.3v-2.2h6.7v-6.2h-5.9v-2.2h5.9v-4.5h2.6v4.5h6.1v2.2h-6.1v6.2h7V131.3z"/>
		<path class="st0" d="M985.9,129.6c0,0.4-0.1,0.7-0.3,0.9s-0.4,0.5-0.7,0.6s-0.7,0.3-1,0.3s-0.9,0.1-1.6,0.1s-1.4,0-2,0
			c-0.7,0-1.3,0-2-0.1s-1.2-0.1-1.4-0.1s-0.5-0.2-0.8-0.4s-0.4-0.4-0.6-0.7s-0.2-0.6-0.2-0.9v-7.2l-0.9,0.2l-0.2-1.2h-1.2v5.1
			c0.6-0.2,1.2-0.3,1.7-0.5l0.1,1.9c-0.8,0.4-2.6,1-5.7,1.8l-0.4-2.2c0.6-0.1,1.2-0.3,2-0.4v-5.7H969v-1.8h1.6v-3.6h2.3v3.6h1.3v0.9
			l1-0.3v-3.5h2.3v3l1.5-0.4v-3.4h2.3v2.8l3.4-0.8l0.6,0.5v6.8c0,0.6-0.2,1-0.6,1.3s-0.9,0.5-1.5,0.5h-1.4l-0.3-2h0.9
			c0.3,0,0.5-0.1,0.5-0.4v-4.1l-1.7,0.4v7.6H979v-7.1l-1.5,0.4v7c0,0.3,0.2,0.5,0.5,0.6c0.8,0,1.5,0.1,2.3,0.1c0.5,0,1.1,0,1.7,0
			l1.2,0c0.1,0,0.3-0.1,0.3-0.1s0.2-0.2,0.2-0.3s0.1-0.8,0.1-1.9l2,0.3V129.6z"/>
		<path class="st0" d="M999.9,130.9h-9v0.9h-2.5v-14.2h5.1c0.4-0.9,0.6-1.7,0.7-2.2l2.6,0.4c-0.2,0.6-0.5,1.2-0.8,1.9h6.4v14.2h-2.5
			V130.9z M999.9,121.3v-1.9h-9v1.9H999.9z M991,125.1h9v-1.9h-9V125.1z M991,129h9v-2.1l-9,0V129z"/>
		<path class="st0" d="M1009.8,131.9h-2.4v-7.5c-0.3,0.5-0.7,1.1-1.2,1.7l-1.5-1.4c0.6-0.8,1.4-2.1,2.2-3.7s1.5-3.4,1.9-5.2l2.4,0.4
			c-0.4,1.7-1,3.2-1.7,4.6h0.3v6.7c0.8-0.8,1.7-1.8,2.5-3.1s1.5-2.3,1.9-3.2h-3.8v-2h4.4v-3.4h2.5v3.4h4.8v2h-4.4
			c0.5,1,1.2,2.1,2.1,3.4s1.8,2.2,2.8,3l-1.6,1.8c-0.6-0.6-1.2-1.1-1.7-1.8v1.1h-2v2.9h-2.3v-2.9h-2.1v-1.1
			c-0.5,0.7-1.1,1.2-1.6,1.7l-1.3-1.4V131.9z M1013.3,126.8h1.5v-2.1C1014.3,125.5,1013.8,126.2,1013.3,126.8z M1017.1,126.8h1.3
			c-0.5-0.7-1-1.3-1.3-2V126.8z"/>
		<path class="st0" d="M1031,131.6l-0.7-2.2c2.3-0.3,4.1-0.8,5.2-1.6s1.8-2,1.8-3.6c0-1.4-0.4-2.4-1.3-3.3s-2-1.3-3.5-1.4
			c-0.1,3.3-0.7,5.9-1.8,8s-2.5,3.1-4.2,3.1c-1.1,0-2-0.5-2.6-1.5s-1-2.2-1-3.5v-0.2c0-2,0.8-3.8,2.4-5.4s3.7-2.4,6.2-2.5h0.4
			c2.4,0,4.3,0.6,5.8,1.8s2.3,2.8,2.3,4.9c0,2.3-0.8,4-2.3,5.3S1034,131.4,1031,131.6z M1030.1,119.7c-1.3,0.3-2.4,1-3.4,2.1
			s-1.4,2.3-1.4,3.6c0,0.7,0.1,1.3,0.3,1.8s0.5,0.8,1,0.8c0.8,0,1.6-0.8,2.2-2.4S1030,122.1,1030.1,119.7z"/>
		<path class="st0" d="M1049.7,125.3c-1.3,3-3.7,5.1-7.4,6.4l-1.1-2c1.2-0.4,2.2-0.9,3-1.5s1.5-1.2,2-1.9s0.9-1.4,1.2-2.1
			s0.5-1.4,0.5-2.1s0.1-1.9,0.1-3.5l0-2.3h2.6v4.4c0,0.3,0.1,0.8,0.3,1.6s0.6,1.6,1.2,2.5s1.4,1.7,2.4,2.5s2.1,1.5,3.4,2l-1.6,2.2
			c-1.6-0.7-2.9-1.6-4.1-2.8S1050.3,126.5,1049.7,125.3z"/>
		<path class="st0" d="M1065.2,116c-0.2,0.4-0.4,0.8-0.5,1.1h10.2v1.8h-11.4c-0.2,0.3-0.4,0.6-0.6,0.8h10.5v1.7h-10.9v-1.3
			c-0.8,0.9-1.5,1.6-2.2,2.1l-1.5-1.4c0.9-0.8,1.7-1.8,2.5-2.9s1.3-1.9,1.5-2.5L1065.2,116z M1070.1,125.6c-0.6,0.7-1.3,1.4-2.1,2.1
			c1,0.6,1.8,1.2,2.6,1.8l-1.6,1.7c-0.6-0.5-1.6-1.2-3-2.1c-2,1.3-4.2,2.2-6.4,2.7l-0.7-2c1.8-0.5,3.5-1.2,5.1-2.1
			c-1.5-0.9-2.5-1.5-3.2-1.8l1.2-1.8c1.2,0.6,2.5,1.3,3.9,2.1c0.8-0.7,1.5-1.4,2.2-2.1L1070.1,125.6z M1076,126.8
			c-0.1,1.8-0.1,2.9-0.2,3.4s-0.3,0.8-0.7,1.1s-0.7,0.4-1.2,0.4c-2.3,0-3.4-2.5-3.5-7.5h-10.5v-1.9h13c0,0.6,0,1.1,0,1.5
			c0,0.8,0,1.7,0.1,2.6s0.2,1.6,0.3,2s0.2,0.7,0.3,0.8s0.2,0.1,0.2,0.1c0.1,0,0.1,0,0.1-0.1s0.1-0.4,0.1-1s0.1-1.2,0.1-1.7
			L1076,126.8z"/>
		<path class="st0" d="M1083.2,118.1c0,0.4,0,0.8,0,1.4h2.3c1,0,1.8,0.3,2.4,1s0.9,1.5,0.9,2.5c0,2.6-0.3,4.7-0.9,6.3
			s-1.6,2.4-3,2.4c-0.4,0-0.8-0.1-1.3-0.2s-1.2-0.5-2.2-1.1l0.8-2.1c1.1,0.6,1.9,0.9,2.4,0.9c0.2,0,0.4-0.1,0.6-0.3s0.3-0.5,0.5-1.1
			s0.3-1.2,0.4-1.9s0.1-1.5,0.1-2.3c0-0.6,0-1-0.1-1.2s-0.2-0.4-0.4-0.5s-0.4-0.2-0.7-0.2h-2c-0.6,4.2-2,7.6-4.4,10.2l-2-1.2
			c0.7-0.7,1.4-1.9,2.1-3.5s1.3-3.4,1.6-5.4h-3.2v-2.2h3.5l0-3.4h2.6V118.1z M1094.1,125.7l-2.4,0.7c-0.5-1.6-1-3-1.5-4.1
			s-1.2-2.2-2.1-3.2l2-1.2C1092.2,120.8,1093.6,123.4,1094.1,125.7z M1092,118.3l-1.3,0.5c-0.5-1.2-0.9-2.1-1.2-2.7l1.2-0.5
			C1091.3,116.6,1091.7,117.5,1092,118.3z M1094.4,118.1l-1.2,0.5c-0.4-1-0.8-1.9-1.2-2.7l1.2-0.4
			C1093.6,116.3,1094.1,117.2,1094.4,118.1z"/>
		<path class="st0" d="M1111.7,118.5h-16.5v-1.7h6.9v-1.1h2.6v1.1h7.1V118.5z M1106.8,130.2l-5,0v0.4h-2.2v-4.4h7.6v3.6h0.9
			c0.3,0,0.5-0.1,0.5-0.4v-4h-10.3v6.5h-2.5v-8h15.3v6.2c0,0.5-0.2,0.9-0.5,1.3s-0.8,0.5-1.4,0.5h-2.2L1106.8,130.2z M1109.9,123
			h-12.7v-3.7h12.7V123z M1107.5,121.7v-1.1h-7.9v1.1H1107.5z M1105.1,128.7v-1.2h-3.2v1.2H1105.1z"/>
		<path class="st0" d="M1122.5,125.8c-0.3,0.8-0.7,1.7-1.1,2.7s-0.9,1.7-1.4,2.2s-0.9,0.7-1.5,0.7c-1.3,0-2.4-0.8-3.3-2.3
			s-1.4-3.4-1.4-5.4c0-0.7,0.1-1.6,0.2-2.9c0.1-1.3,0.2-2.3,0.2-2.9h2.7c0,0.6-0.1,1.6-0.3,2.9c-0.2,1.2-0.2,2.2-0.2,2.9
			c0,1.3,0.2,2.5,0.7,3.6s0.8,1.5,1.2,1.5c0.5,0,1.2-1.3,2.2-4L1122.5,125.8z M1129.7,129l-2.6,0.2c0-1.8-0.3-3.6-0.9-5.5
			s-1.5-3.4-2.6-4.7l2.1-1.1C1128.4,120.9,1129.7,124.6,1129.7,129z"/>
		<path d="M1139.9,131.2l-0.3-1.2c1.9-0.2,3.5-0.7,4.8-1.6s2-2.3,2-4.1c0-1.6-0.5-2.9-1.6-3.8s-2.6-1.4-4.5-1.4
			c-0.1,3.2-0.6,5.8-1.7,7.9s-2.4,3.2-4,3.2c-1,0-1.8-0.4-2.4-1.3s-0.9-1.9-0.9-3.1c0-2,0.9-3.8,2.6-5.4s3.8-2.4,6.2-2.4
			c2.2,0,4.1,0.6,5.5,1.7s2.2,2.6,2.2,4.6c0,2.2-0.7,3.9-2.2,5.1S1142.2,131,1139.9,131.2z M1138.9,119.1c-1.7,0.3-3.2,1-4.4,2.3
			s-1.8,2.7-1.8,4.3c0,0.9,0.2,1.6,0.5,2.2s0.9,0.9,1.5,0.9c1.1,0,2.1-1,2.9-3.1S1138.8,121.4,1138.9,119.1z"/>
		<path d="M1164.8,119.4h-4.4c-1.1,0.5-2.1,1.3-3.1,2.5s-1.5,2.5-1.5,3.8c0,1,0.3,1.9,0.8,2.5s1.3,1.2,2.2,1.5s2.1,0.5,3.6,0.5
			c0.3,0,0.7,0,1.1,0l-0.1,1.3h0c-1.1,0-2,0-2.7-0.1s-1.5-0.2-2.3-0.4s-1.5-0.6-2.1-1.1s-1.1-1.1-1.3-1.8s-0.4-1.4-0.4-2.3
			c0-1.2,0.4-2.3,1.1-3.5s1.7-2.1,2.8-2.9h-8.8v-1.2h15.3V119.4z M1162.6,123.1l-1,0.5c-0.4-0.9-0.8-1.8-1.3-2.5l0.9-0.4
			C1161.8,121.5,1162.2,122.3,1162.6,123.1z M1165.1,122.6l-1,0.4c-0.4-0.9-0.8-1.7-1.3-2.4l0.9-0.5
			C1164.2,120.7,1164.7,121.6,1165.1,122.6z"/>
		<path d="M1171.9,130.9l-1.2,0.8c-0.8-1.3-1.7-2.5-2.7-3.7l1-0.7C1170.3,128.7,1171.2,129.9,1171.9,130.9z"/>
		<path d="M447.8,158.9l-0.4-1c1.6-0.4,2.8-1,3.7-1.9s1.3-2.2,1.3-4h1.4c0,1.5-0.2,2.7-0.7,3.5s-1.2,1.6-2,2.1
			S449,158.7,447.8,158.9z M456.1,145.6v1.9h6v1.1h-13.4v-1.1h6v-1.9h-7.1v-1.1h7.1V143h1.4v1.5h7.1v1.1H456.1z M461.9,152.9v-1.8
			H449v1.9h-1.3v-3h15.4v2.9H461.9z M456.5,152h1.4v4.7c0,0.2,0.1,0.4,0.3,0.5s0.7,0.2,1.6,0.2c0.7,0,1.2,0,1.5-0.1s0.5-0.3,0.6-0.5
			s0.1-1,0.1-2.1l1.2,0.1v2.1c0,0.5-0.1,0.8-0.4,1.1s-0.7,0.4-1.2,0.5s-1.2,0.1-2,0.1c-0.8,0-1.3,0-1.7-0.1s-0.7-0.1-0.9-0.3
			s-0.3-0.3-0.5-0.5s-0.2-0.5-0.2-0.8V152z"/>
		<path d="M465.1,158.2l-0.2-1.2l1.2-0.1c0.8-1.9,1.5-3.8,2.1-5.8h-3v-1.1h3.9v-3.6h-3.2v-1.1h3.2v-2.4h1.4v2.4h3.1v1.1h-3.1v3.6
			h3.6v1.1h-4.4c-0.6,1.9-1.4,3.8-2.2,5.7c1.9-0.2,3.4-0.4,4.5-0.6l-1.3-3l1.2-0.4c0.3,0.5,1,2.3,2.3,5.2l-1.3,0.4
			c-0.1-0.2-0.2-0.6-0.5-1.2C470.6,157.6,468.2,157.9,465.1,158.2z M479.5,156.2h-2.2l-0.2-1.2h1.7c0.6,0,0.8-0.2,0.8-0.7v-9.7h-3.4
			v14.3h-1.4v-15.3h6.2v11.3c0,0.4-0.2,0.7-0.5,0.9S480,156.2,479.5,156.2z"/>
		<path d="M499.2,151.7c-0.7,2.3-1.6,4.1-2.9,5.2s-2.9,1.7-5,1.7c-0.8,0-1.5-0.1-2.1-0.2s-1.1-0.4-1.6-0.7s-0.8-0.7-1.1-1.2
			s-0.4-1-0.5-1.5s-0.1-1.5-0.1-2.7c0-2.2,0.1-4.8,0.4-8h1.4c-0.3,3-0.5,5.7-0.5,8c0,0.8,0,1.5,0.1,2.1s0.2,1.1,0.5,1.6
			s0.8,0.8,1.3,1.1s1.3,0.4,2.2,0.4c1.6,0,2.9-0.4,4-1.3s1.9-2.5,2.6-4.7L499.2,151.7z"/>
		<path d="M508.2,158.3l-1.4,0.3c-0.4-2-1.2-5.1-2.4-9.5c-1.1,0.3-2.2,0.6-3.2,0.9l-0.2-1.2l3.2-0.9c-0.4-1.6-0.8-2.9-1.1-4l1.4-0.3
			l1.1,4c1.7-0.4,3.1-0.8,4.3-1.1c-0.5-0.8-1-1.5-1.5-2.1l1.1-0.6c0.4,0.4,0.9,1.2,1.8,2.4c1.1-0.2,1.9-0.3,2.5-0.3
			c1.2,0,2.2,0.3,3,1s1.1,1.6,1.1,2.8c0,1.2-0.4,2.2-1.3,2.9s-2,1.1-3.6,1.1c-0.8,0-1.6-0.1-2.4-0.2l0-1.1c0.6,0.1,1.3,0.2,2,0.2
			c0.6,0,1,0,1.5-0.1s0.8-0.2,1.2-0.5s0.6-0.5,0.8-0.9s0.3-0.8,0.3-1.3c0-0.9-0.2-1.5-0.7-2s-1.1-0.7-2-0.7c-0.4,0-1,0.1-1.8,0.2
			c0.4,0.6,0.7,1.2,1,1.8l-1.3,0.5c-0.2-0.5-0.6-1.2-1.2-2.1c-1.3,0.3-2.9,0.7-4.7,1.2L508.2,158.3z"/>
		<path d="M535.7,146.7h-5.5v3.4c0.4,0.7,0.6,1.6,0.6,2.8c0,1.5-0.6,2.8-1.7,3.9s-2.5,1.6-4.2,1.7l-0.4-1.1c1.4-0.1,2.6-0.6,3.5-1.5
			s1.4-1.9,1.4-3.2c0-0.2,0-0.4,0-0.6c-0.1,0.7-0.5,1.2-1,1.6s-1.2,0.6-1.9,0.6c-0.9,0-1.6-0.3-2.2-0.8s-0.9-1.2-0.9-2
			c0-0.9,0.3-1.7,1-2.4s1.5-0.9,2.4-0.9c0.7,0,1.4,0.2,1.9,0.6v-2.1h-8.8v-1.2h8.8v-2.1h1.4v2.1h5.5V146.7z M528.7,150.3
			c-0.3-0.7-1-1-2.1-1c-0.5,0-1,0.2-1.4,0.6s-0.6,0.9-0.6,1.4c0,0.6,0.2,1,0.5,1.4s0.7,0.5,1.3,0.5c0.7,0,1.2-0.2,1.7-0.7
			s0.6-1,0.6-1.8V150.3z"/>
		<path d="M550.9,157.7l-1.1,1.1c-1.8-1.7-3.8-3.3-6-4.7c-0.4-0.3-1-0.6-1.8-1.1s-1.2-0.8-1.4-1s-0.4-0.4-0.5-0.6s-0.2-0.4-0.2-0.7
			c0-0.6,0.4-1.1,1.1-1.6c2.1-1.3,3.7-2.4,4.7-3.2s2.1-1.6,3.1-2.5l1.1,0.9c-2.1,1.8-4.5,3.5-7.3,5.3c-0.5,0.3-0.9,0.5-1,0.6
			s-0.2,0.3-0.2,0.4c0,0.1,0,0.3,0.1,0.3s0.4,0.3,1.1,0.7c2.4,1.5,4.1,2.7,5.3,3.5S549.9,156.9,550.9,157.7z"/>
		<path d="M559.9,157.9l-1.2,0.8c-0.8-1.3-1.7-2.5-2.7-3.7l1-0.7C558.3,155.7,559.2,156.9,559.9,157.9z"/>
		<path d="M586.8,144.5c-1.2,1.6-3.1,3.3-5.8,4.9s-5.1,2.7-7.3,3.3l-0.5-1c2.1-0.6,4.2-1.6,6.4-2.8c-0.6-0.5-1.5-1.1-2.7-1.9
			c-1.1,0.6-2.1,1.2-3.1,1.6l-0.6-0.9c3.4-1.5,5.8-3.3,7.4-5.2l1.4,0.3c-0.3,0.4-0.6,0.8-0.9,1.1h5L586.8,144.5z M589.7,150.8
			c-1.2,2.1-3.1,3.9-5.8,5.4s-5.9,2.4-9.7,2.8l-0.3-1.1c3.4-0.4,6.2-1.2,8.6-2.4c-0.8-0.7-1.8-1.4-3-2.1c-1.4,0.7-2.7,1.3-3.9,1.8
			l-0.5-0.9c1.5-0.6,3.1-1.4,4.8-2.4s3-2.1,4.1-3.4l1.2,0.4c-0.3,0.4-0.7,0.9-1.1,1.3h4.7L589.7,150.8z M585,144.9h-4.9
			c-0.7,0.5-1.4,1-2.1,1.5c1.1,0.7,2,1.3,2.8,1.9C582.6,147.1,584,146,585,144.9z M587.9,151.1h-4.8c-0.7,0.5-1.5,1.1-2.3,1.6
			c0.8,0.5,1.8,1.2,3.1,2.1C585.7,153.7,587,152.5,587.9,151.1z"/>
		<path d="M604.9,157.7l-1.1,1.1c-1.8-1.7-3.8-3.3-6-4.7c-0.4-0.3-1-0.6-1.8-1.1s-1.2-0.8-1.4-1s-0.4-0.4-0.5-0.6s-0.2-0.4-0.2-0.7
			c0-0.6,0.4-1.1,1.1-1.6c2.1-1.3,3.7-2.4,4.7-3.2s2.1-1.6,3.1-2.5l1.1,0.9c-2.1,1.8-4.5,3.5-7.3,5.3c-0.5,0.3-0.9,0.5-1,0.6
			s-0.2,0.3-0.2,0.4c0,0.1,0,0.3,0.1,0.3s0.4,0.3,1.1,0.7c2.4,1.5,4.1,2.7,5.3,3.5S603.9,156.9,604.9,157.7z"/>
		<path d="M617.9,158.2l-0.3-1.2c1.9-0.2,3.5-0.7,4.8-1.6s2-2.3,2-4.1c0-1.6-0.5-2.9-1.6-3.8s-2.6-1.4-4.5-1.4
			c-0.1,3.2-0.6,5.8-1.7,7.9s-2.4,3.2-4,3.2c-1,0-1.8-0.4-2.4-1.3s-0.9-1.9-0.9-3.1c0-2,0.9-3.8,2.6-5.4s3.8-2.4,6.2-2.4
			c2.2,0,4.1,0.6,5.5,1.7s2.2,2.6,2.2,4.6c0,2.2-0.7,3.9-2.2,5.1S620.2,158,617.9,158.2z M616.9,146.1c-1.7,0.3-3.2,1-4.4,2.3
			s-1.8,2.7-1.8,4.3c0,0.9,0.2,1.6,0.5,2.2s0.9,0.9,1.5,0.9c1.1,0,2.1-1,2.9-3.1S616.8,148.4,616.9,146.1z"/>
		<path d="M627.8,159l-0.4-1c0.7-0.1,1.6-0.3,2.7-0.6s1.8-0.6,2.4-0.9l0.9,0.8c-0.6,0.3-1.5,0.6-2.7,1S628.6,158.9,627.8,159z
			 M628.3,148.9l-0.8-0.8c1.1-0.7,2.2-1.4,3.1-2.3l0.9,0.5C630.7,147.3,629.6,148.1,628.3,148.9z M630.8,145
			c-0.5-0.3-1.3-0.7-2.4-1.1l0.7-0.8c0.7,0.2,1.5,0.6,2.4,1.1L630.8,145z M629.1,156.4v-6.8h13v6.8H629.1z M630.4,151.5h10.4v-1.1
			h-10.4V151.5z M630.4,153.4h10.4v-1.1h-10.4V153.4z M640.8,154.2h-10.4v1.2h10.4V154.2z M637.6,144.7c0,0.2,0,0.3-0.1,0.5
			c0.2,0.6,0.7,1.2,1.7,1.8s2.5,1.1,4.6,1.4l-0.5,1c-1.8-0.3-3.2-0.7-4.1-1.2s-1.6-1-2.1-1.7c-0.4,0.7-1.2,1.3-2.4,1.8
			s-2.3,0.8-3.5,0.8l-0.2-0.9c1.7-0.2,3-0.6,3.9-1.2s1.4-1.4,1.4-2.2v-0.1h-1.8c-0.7,0.7-1.3,1.2-1.8,1.5l-0.8-0.6
			c0.5-0.4,1.1-0.9,1.6-1.5s0.9-1,1.1-1.5l1.3,0.2c-0.3,0.4-0.5,0.7-0.7,0.9h7.5l0.3,0.4c-0.7,1-1.4,1.8-2.1,2.4l-0.9-0.5
			c0.3-0.3,0.8-0.8,1.2-1.5H637.6z M643,159c-2.5-0.5-4.4-1-5.6-1.6l0.8-0.9c1.6,0.6,3.4,1.1,5.4,1.4L643,159z"/>
		<path d="M647.8,148.5v1.5c0,1.9-0.2,3.6-0.6,5.1s-0.9,2.7-1.6,3.5l-0.9-0.6c1.2-1.8,1.7-4.3,1.7-7.6v-2.9h3.3l-1-2.5h-2.8v-1h6.8
			v-1.3h1.4v1.3h6.8v1h-2.8l-1.3,2.5h4.5v1H647.8z M648,158.6v-1.1h6v-2.4h-4.1V154h4.1v-2h-3.3c-0.6,0.9-1.1,1.6-1.7,2.2l-0.9-0.6
			c1.2-1.4,2-2.8,2.5-4.2l1.3,0.3c-0.2,0.4-0.3,0.8-0.6,1.3h2.7v-1.6h1.4v1.6h5.1v1h-5.1v2h4.4v1.1h-4.4v2.4h5.9v1.1H648z
			 M651.1,147.6h4.3l1.1-2.5h-6.4L651.1,147.6z"/>
		<path d="M673.9,155.6h-1.3v-2.9c0-0.3,0-0.6,0-0.9c-2.7,1.4-4,2.6-4,3.7c0,0.6,0.3,1,0.9,1.3s1.9,0.5,3.8,0.5
			c2.3,0,4.1-0.1,5.5-0.3l0.1,1.3c-1.4,0.2-3,0.2-4.8,0.2c-2.8,0-4.7-0.2-5.5-0.7s-1.3-1.2-1.3-2.1c0-0.8,0.4-1.6,1.1-2.4
			s2.1-1.7,4-2.6c-0.2-0.5-0.7-0.8-1.3-0.8c-0.7,0-1.5,0.1-2.3,0.4s-1.8,0.9-3,1.9l-1.5,1.2l-0.8-0.9c2.1-1.7,3.7-3.6,4.8-5.8h-4.1
			v-1.1h4.6c0.3-0.7,0.5-1.4,0.6-2.1l1.5,0.1c-0.1,0.7-0.3,1.3-0.6,2h6.5v1.1h-7c-0.3,0.7-0.9,1.6-1.7,2.7l0.1,0.1
			c0.2-0.1,0.7-0.3,1.4-0.4s1.2-0.2,1.6-0.2c1.1,0,1.9,0.4,2.3,1.3l5.2-2l0.6,1.2c-1.2,0.4-3,1-5.4,1.9c0.1,0.4,0.1,1,0.1,1.7V155.6
			z"/>
		<path d="M682.1,158.9l-0.7-0.8c1.6-1.2,2.9-2.9,3.9-5c-0.7-0.6-1.5-1.2-2.5-1.9c-0.3,0.6-0.6,1-0.8,1.5l-0.9-0.5
			c0.6-0.9,1.1-2.1,1.5-3.5s0.8-2.7,1-4.1h-2v-1h7v1h-3.6c-0.1,0.8-0.3,1.6-0.6,2.5h3.3c0,2.8-0.5,5.2-1.6,7.2
			S683.6,157.8,682.1,158.9z M685.7,151.9c0.4-1.2,0.6-2.5,0.6-3.9H684c-0.3,0.8-0.5,1.5-0.8,2.2C684.3,151,685.2,151.5,685.7,151.9
			z M693.1,156.1c-2.1,1.3-4.4,2.2-6.6,2.8l-0.4-0.9c2.3-0.7,4.5-1.6,6.5-2.9c-0.4-0.8-0.8-1.7-1.1-2.6l-3.4,0.2l-0.1-1.1l3.1-0.2
			c-0.1-0.6-0.3-1.2-0.4-1.8l-2.3,0.1l0-1l2.2-0.1c-0.1-0.6-0.1-1.2-0.2-1.8l-2.1,0.1l0-1l2-0.1c0-0.6,0-1.6,0-2.9h1.4
			c0,0.8,0,1.8,0,2.9l5.2-0.3l0,1l-5.2,0.3c0,0.6,0.1,1.2,0.1,1.8l5-0.3l0,1l-4.9,0.3c0.1,0.6,0.2,1.3,0.4,1.8l4.8-0.2l0.1,1
			l-4.6,0.2c0.2,0.7,0.5,1.4,0.8,2c0.8-0.6,1.5-1.1,1.9-1.5l1,0.8c-0.6,0.6-1.4,1.1-2.3,1.8c0.9,1.4,1.6,2.1,2,2.1
			c0.1,0,0.3-0.1,0.4-0.3s0.2-0.9,0.3-2.3l1,0.2c0,0.6,0,1.3-0.1,2s-0.2,1.2-0.4,1.5s-0.6,0.3-1,0.3c0,0,0,0-0.1,0s-0.2,0-0.4-0.1
			s-0.4-0.1-0.6-0.3s-0.5-0.3-0.7-0.6s-0.5-0.5-0.7-0.8S693.3,156.5,693.1,156.1z M694.6,145.5c-0.5-0.7-0.9-1.3-1.3-1.8l1-0.6
			l1.4,1.7L694.6,145.5z"/>
		<path d="M715.7,146.7h-5.5v3.4c0.4,0.7,0.6,1.6,0.6,2.8c0,1.5-0.6,2.8-1.7,3.9s-2.5,1.6-4.2,1.7l-0.4-1.1c1.4-0.1,2.6-0.6,3.5-1.5
			s1.4-1.9,1.4-3.2c0-0.2,0-0.4,0-0.6c-0.1,0.7-0.5,1.2-1,1.6s-1.2,0.6-1.9,0.6c-0.9,0-1.6-0.3-2.2-0.8s-0.9-1.2-0.9-2
			c0-0.9,0.3-1.7,1-2.4s1.5-0.9,2.4-0.9c0.7,0,1.4,0.2,1.9,0.6v-2.1h-8.8v-1.2h8.8v-2.1h1.4v2.1h5.5V146.7z M708.7,150.3
			c-0.3-0.7-1-1-2.1-1c-0.5,0-1,0.2-1.4,0.6s-0.6,0.9-0.6,1.4c0,0.6,0.2,1,0.5,1.4s0.7,0.5,1.3,0.5c0.7,0,1.2-0.2,1.7-0.7
			s0.6-1,0.6-1.8V150.3z"/>
		<path d="M732.9,157.6c-1.8,0.3-3.7,0.4-5.9,0.4h-1c-2.8,0-4.7-0.3-5.6-0.8s-1.5-1.4-1.5-2.4c0-1.3,0.6-2.4,1.8-3.5l1,0.7
			c-0.9,0.9-1.4,1.8-1.4,2.7c0,0.7,0.4,1.3,1.3,1.6s2.6,0.5,5.2,0.5c2,0,4-0.1,6-0.4L732.9,157.6z M732.2,146.4
			c-0.3,0.1-0.6,0.2-1,0.3s-0.7,0.3-1,0.4s-1.2,0.6-2.9,1.5l-0.6-0.9c0.6-0.3,1.5-0.8,2.7-1.4l0-0.2c-2.1,0-5.2,0.1-9.4,0.3
			l-0.1-1.2c2.3-0.1,5.5-0.1,9.5-0.1c1.3,0,2.1,0,2.6,0L732.2,146.4z"/>
		<path d="M750.8,158.1c-1.7,0.2-3.5,0.3-5.4,0.3c-0.8,0-1.7,0-2.7,0s-1.8-0.1-2.4-0.2s-1.2-0.4-1.7-0.7s-0.9-0.7-1.1-1.2
			s-0.3-1-0.3-1.5c0-2,1.6-3.7,4.8-5c-0.2-1.9-0.3-3.8-0.3-5.9h1.5c0,0.3,0,0.5,0,0.8c0,1.4,0.1,2.9,0.2,4.6c1.1-0.4,3.3-1.1,6.5-2
			l0.4,1.2c-0.9,0.2-2.4,0.7-4.3,1.2s-3.4,1.1-4.4,1.6s-1.7,1.1-2.2,1.6s-0.7,1.2-0.7,1.8c0,0.3,0.1,0.6,0.2,0.9s0.3,0.5,0.6,0.7
			s0.6,0.4,1.1,0.6s1.1,0.3,1.9,0.3s1.7,0,2.6,0c2.2,0,4.1-0.1,5.9-0.3V158.1z"/>
		<path d="M758.5,145.2c0,0.5,0,1.1-0.1,1.8h3.4c0.8,0,1.5,0.3,2,0.9s0.7,1.4,0.7,2.3c0,2.4-0.2,4.3-0.7,5.9s-1.4,2.3-2.6,2.3
			c-0.7,0-1.7-0.3-3.1-1l0.4-1.1c0.3,0.2,0.8,0.3,1.3,0.5s1,0.3,1.2,0.3c0.5,0,0.9-0.2,1.1-0.8s0.5-1.2,0.7-2.2s0.3-2,0.3-3.3
			c0-1.2-0.2-1.9-0.5-2.2s-0.7-0.5-1.2-0.5h-3.1c-0.2,2-0.7,3.9-1.4,5.7s-1.7,3.4-2.8,4.6l-1-0.7c0.8-0.9,1.5-2.2,2.3-3.8
			s1.3-3.5,1.5-5.7h-3.4v-1.2h3.6c0-0.4,0.1-1.6,0.1-3.5h1.4V145.2z M769.3,152.5l-1.4,0.4c-0.8-2.9-2-5.2-3.5-6.9l1-0.7
			c0.8,0.8,1.6,1.9,2.3,3.3S769.1,151.3,769.3,152.5z M767.7,145.3l-1,0.4c-0.4-0.9-0.8-1.8-1.3-2.5l0.9-0.4
			C766.9,143.6,767.4,144.4,767.7,145.3z M770.3,144.9l-1,0.4c-0.4-0.9-0.8-1.7-1.3-2.4l0.9-0.4C769.3,143,769.8,143.9,770.3,144.9z
			"/>
		<path d="M786.8,146.4h-4.4c-1.1,0.5-2.1,1.3-3.1,2.5s-1.5,2.5-1.5,3.8c0,1,0.3,1.9,0.8,2.5s1.3,1.2,2.2,1.5s2.1,0.5,3.6,0.5
			c0.3,0,0.7,0,1.1,0l-0.1,1.3h0c-1.1,0-2,0-2.7-0.1s-1.5-0.2-2.3-0.4s-1.5-0.6-2.1-1.1s-1.1-1.1-1.3-1.8s-0.4-1.4-0.4-2.3
			c0-1.2,0.4-2.3,1.1-3.5s1.7-2.1,2.8-2.9h-8.8v-1.2h15.3V146.4z M784.6,150.1l-1,0.5c-0.4-0.9-0.8-1.8-1.3-2.5l0.9-0.4
			C783.8,148.5,784.2,149.3,784.6,150.1z M787.1,149.6l-1,0.4c-0.4-0.9-0.8-1.7-1.3-2.4l0.9-0.5
			C786.2,147.7,786.7,148.6,787.1,149.6z"/>
		<path d="M803.1,153.5l-1,1c-0.6-0.4-1.4-0.8-2.4-1s-1.8-0.4-2.7-0.4c-1.9,0-3.2,0.2-3.8,0.6s-1,0.9-1,1.6c0,0.6,0.4,1.1,1.1,1.4
			s2.2,0.5,4.4,0.5c1.9,0,3.7-0.1,5.2-0.4l0,1.3c-1.3,0.2-3.1,0.3-5.2,0.3c-2.5,0-4.3-0.3-5.4-0.8s-1.6-1.3-1.6-2.4
			c0-1.1,0.5-1.9,1.5-2.5s2.3-0.9,4-0.9c1.8,0,3.4,0.3,4.7,0.8c-0.6-0.8-1.1-1.6-1.6-2.5h-9.1V149h8.6c-0.3-0.7-0.6-1.4-0.8-2.1
			h-7.3v-1.1h6.9c-0.2-0.8-0.3-1.5-0.4-2.2l1.4-0.1c0.2,1,0.3,1.8,0.4,2.3h5.1v1.1h-4.8c0.2,0.5,0.4,1.2,0.8,2.1h4.8v1.1h-4.2
			C801.3,151,802,152.1,803.1,153.5z"/>
		<path d="M822.8,156.5l-0.8,1.2c-1.4-1-3.1-2-5.3-2.8v1.3c0,1.5-1.4,2.3-4.2,2.3c-1.1,0-2.1-0.2-2.9-0.7s-1.2-1.1-1.2-2
			c0-0.9,0.4-1.5,1.1-2.1s1.7-0.8,2.8-0.8c1.1,0,2.1,0.1,3,0.3v-2.6h-6.7v-1.2h6.7v-2.7h-7.1v-1.2h7.1v-1.9h1.4v1.9h6.5v1.2h-6.5
			v2.7h5.8v1.2h-5.8v2.9C819.4,154.6,821.4,155.6,822.8,156.5z M815.4,155.7v-1.2c-0.8-0.3-1.7-0.4-3-0.4c-0.6,0-1.2,0.1-1.8,0.4
			s-0.8,0.7-0.8,1.2c0,0.5,0.3,0.9,0.8,1.2s1.2,0.4,2.1,0.4c0.8,0,1.4-0.1,1.7-0.2s0.6-0.3,0.8-0.4S815.4,156.1,815.4,155.7z"/>
		<path d="M841.7,146.7h-5.5v3.4c0.4,0.7,0.6,1.6,0.6,2.8c0,1.5-0.6,2.8-1.7,3.9s-2.5,1.6-4.2,1.7l-0.4-1.1c1.4-0.1,2.6-0.6,3.5-1.5
			s1.4-1.9,1.4-3.2c0-0.2,0-0.4,0-0.6c-0.1,0.7-0.5,1.2-1,1.6s-1.2,0.6-1.9,0.6c-0.9,0-1.6-0.3-2.2-0.8s-0.9-1.2-0.9-2
			c0-0.9,0.3-1.7,1-2.4s1.5-0.9,2.4-0.9c0.7,0,1.4,0.2,1.9,0.6v-2.1h-8.8v-1.2h8.8v-2.1h1.4v2.1h5.5V146.7z M834.7,150.3
			c-0.3-0.7-1-1-2.1-1c-0.5,0-1,0.2-1.4,0.6s-0.6,0.9-0.6,1.4c0,0.6,0.2,1,0.5,1.4s0.7,0.5,1.3,0.5c0.7,0,1.2-0.2,1.7-0.7
			s0.6-1,0.6-1.8V150.3z"/>
		<path d="M844,156.2c0-0.6,0.2-1.2,0.7-1.6s1-0.7,1.7-0.7s1.2,0.2,1.7,0.7s0.7,1,0.7,1.6s-0.2,1.2-0.7,1.6s-1,0.7-1.7,0.7
			s-1.2-0.2-1.7-0.7S844,156.9,844,156.2z M845,156.2c0,0.4,0.1,0.7,0.4,0.9s0.6,0.4,0.9,0.4s0.7-0.1,0.9-0.4s0.4-0.6,0.4-0.9
			s-0.1-0.7-0.4-0.9s-0.6-0.4-0.9-0.4s-0.7,0.1-0.9,0.4S845,155.9,845,156.2z"/>
	</g>
</g>
<polygon points="355.5,96.5 334,112.7 334,80.3 "/>
</svg>
