<?xml version="1.0" encoding="utf-8"?>
<!-- Generator: Adobe Illustrator 27.0.0, SVG Export Plug-In . SVG Version: 6.00 Build 0)  -->
<svg version="1.1" id="レイヤー_1" xmlns="http://www.w3.org/2000/svg" xmlns:xlink="http://www.w3.org/1999/xlink" x="0px"
	 y="0px" viewBox="0 0 718 335" style="enable-background:new 0 0 718 335;" xml:space="preserve">
<style type="text/css">
	.st0{fill:#8A665D;}
</style>
<path d="M717.6,334.6H0V0h717.6V334.6z M1.1,333.5h715.4V1.1H1.1V333.5z"/>
<g>
	<g>
		<g>
			<path d="M161.7,65.9l0,1.6c-1.3,1.4-2.6,2.4-3.9,2.9c-1.3,0.6-2.8,0.8-4.5,0.8c-1.9,0-3.6-0.5-5.1-1.5c-1.5-1-2.7-2.4-3.5-4.2
				c-0.8-1.8-1.2-3.6-1.2-5.3c0-1.9,0.5-3.7,1.5-5.4c1-1.7,2.3-2.9,3.9-3.8c1.6-0.8,3.7-1.2,6.1-1.2c2.3,0,4.1,0.4,5.4,1.2
				c0.7,0.5,1,1.1,1,1.8c0,0.5-0.2,1-0.5,1.3c-0.4,0.4-0.8,0.5-1.4,0.5c-0.8,0-1.8-0.5-2.8-1.6c-0.6-0.6-1.2-1.1-1.7-1.3
				c-0.5-0.2-1.1-0.4-1.7-0.4c-1.5,0-2.7,0.6-3.7,1.8c-1.4,1.7-2.1,3.9-2.1,6.6c0,2.7,0.7,4.9,2.1,6.5c1.4,1.6,3.1,2.4,4.9,2.4
				c1.3,0,2.5-0.2,3.5-0.6C159.1,67.8,160.3,67,161.7,65.9z"/>
			<path d="M164.8,60.3c0-1.1,0.2-2.4,0.7-3.7c0.5-1.3,1.2-2.5,2.2-3.5c1-1,2-1.8,3.1-2.3c1.5-0.7,3.4-1.1,5.6-1.1
				c3.1,0,5.8,1.1,7.9,3.2c2.1,2.1,3.2,4.7,3.2,7.7c0,2.7-1.1,5.1-3.3,7.2c-2.2,2.1-5,3.2-8.4,3.2c-2.1,0-4-0.5-5.9-1.6
				c-1.4-0.8-2.6-2-3.5-3.6C165.3,64.2,164.8,62.4,164.8,60.3z M176,70.2c1.3,0,2.5-0.3,3.7-1c1.2-0.7,2.1-1.8,2.8-3.3
				c0.7-1.5,1.1-3.3,1.1-5.3c0-1.3-0.3-2.8-0.8-4.6c-0.5-1.7-1.4-3-2.5-3.9c-1.1-0.9-2.5-1.3-4-1.3c-1.1,0-2.2,0.3-3.4,0.8
				s-2.1,1.5-2.9,3c-0.8,1.5-1.2,3.6-1.2,6.3c0,3.1,0.7,5.4,2.1,6.9C172.2,69.4,173.9,70.2,176,70.2z"/>
			<path d="M190.6,39.3v-0.6c0.5-0.2,1-0.3,1.6-0.5c0.8-0.3,2.1-0.7,3.7-1.2h1.2c0,0.8,0,1.3,0,1.4c0,13.8,0,22-0.1,24.6
				c-0.1,1.6-0.1,2.4-0.1,2.5c0,1.9,0.1,2.9,0.2,3.1c0.2,0.3,0.8,0.5,1.8,0.6c1,0.1,1.6,0.2,1.8,0.4c0.1,0.1,0.2,0.2,0.2,0.4
				c0,0.2,0,0.3-0.1,0.4c-0.1,0.1-0.2,0.1-0.4,0.1c-0.1,0-1,0-2.6-0.1l-3.3-0.1l-4.2,0.2c-0.3,0-0.5,0-0.6-0.2
				c-0.1-0.1-0.2-0.2-0.2-0.4c0-0.2,0.1-0.3,0.2-0.4c0.1-0.1,0.7-0.2,1.8-0.4s1.7-0.3,1.9-0.5c0.2-0.1,0.3-0.4,0.3-0.8
				c0.1-0.6,0.1-2.3,0.1-5.1l0-5.8l0.1-6l0-6l0.1-2.9c0-0.6-0.1-1-0.3-1.3c-0.2-0.3-0.6-0.5-1.2-0.8
				C191.6,39.7,190.9,39.5,190.6,39.3z"/>
			<path d="M201.9,50.7h1.9l0.8,0.1l0.7-0.1c1.7,0,2.8,0,3.2,0.1l0,0.5c0,2.4,0,4.7-0.1,6.9c-0.1,1.3-0.1,2.1-0.1,2.2
				c0,3,0.1,4.8,0.3,5.5c0.2,0.7,0.6,1.3,1.4,1.8c0.7,0.4,1.6,0.7,2.6,0.7c1.2,0,2.4-0.3,3.5-0.8c1.1-0.5,2.1-1.1,2.9-1.9
				c0.1-0.6,0.1-1.3,0.1-2.1c0-2.5,0-4.2,0.1-5.1c0-0.5,0-1,0-1.4c0-2.7-0.1-4.3-0.4-4.6c-0.3-0.4-1.3-0.6-3.1-0.8
				c-0.6-0.1-1-0.1-1.3-0.2c-0.1-0.2-0.2-0.4-0.2-0.5l0.1-0.3c0.4-0.1,0.9-0.1,1.3-0.1l4,0.1c1.4,0,2.2-0.1,2.3-0.1
				c0.2,0,0.4,0,0.5,0l0,1.8c-0.1,2.5-0.2,5.7-0.2,9.5l0,2l0.1,3.4c0.2,0.3,0.3,0.4,0.4,0.5c0.2,0.1,0.6,0.1,1.2,0.1h0.2
				c0.2,0,0.8,0.1,1.9,0.2c0,0.2,0,0.4,0,0.5V69c-2.2,0.5-4.1,1-5.5,1.5c-0.6,0.2-1,0.3-1.4,0.4c-0.1-0.6-0.1-0.9-0.1-1.1v-2
				c0-0.1,0-0.3,0-0.7c-0.2,0.2-0.5,0.3-0.8,0.6c-1.3,1-2.7,1.9-4.2,2.6c-1,0.5-1.9,0.7-2.9,0.7c-1.8,0-3.2-0.7-4.3-2
				c-1.1-1.3-1.7-3.5-1.7-6.7c0-0.2,0-0.5,0-0.9c0.1-0.8,0.1-1.4,0.1-1.7c0-0.1,0-0.5,0-1.1c0-0.3,0-0.5,0-0.7c0-0.2,0-0.5,0-1
				s0-0.9,0-1.1c0-0.3,0-0.5,0-0.8l0-1.3l0-0.7c0-0.3-0.1-0.5-0.4-0.7c-1.1-0.3-1.7-0.4-2.1-0.5c-0.3,0-0.6-0.1-0.9-0.2V50.7z"/>
			<path d="M227.3,69.6c0.3-0.2,0.6-0.3,1.1-0.4c0.7-0.1,1.2-0.2,1.6-0.4c0.3-0.3,0.5-0.6,0.6-1.1c0.1-0.6,0.2-2.7,0.2-6.4
				c0-3.6-0.1-5.9-0.3-6.9c-0.4-0.2-0.8-0.4-1.4-0.6c-0.2,0-0.6-0.1-1.2-0.3v-0.8c1-0.3,1.8-0.7,2.4-1.1c0.6-0.5,1.5-1.4,2.6-2.7
				h0.2c0.1,0,0.3,0,0.5,0c0.1,0,0.2,0.1,0.3,0.1l0,2.9c0,0.6,0,1.2,0,1.9c1.8-1.6,3.4-2.8,4.8-3.4c1-0.4,2.1-0.7,3.3-0.7
				c1.5,0,2.6,0.3,3.5,0.8c0.9,0.6,1.7,1.6,2.4,3c1.5-1.5,2.8-2.5,4.1-3.1c1.2-0.6,2.4-0.9,3.7-0.9c1.9,0,3.4,0.6,4.6,1.8
				c1.2,1.2,1.8,3.1,1.8,5.5V59l0,2.3l0,5.9c0,0.7,0.1,1.2,0.5,1.6c0.1,0.1,0.6,0.2,1.5,0.5c0.6,0.2,0.9,0.3,1,0.4
				c0.1,0.1,0.2,0.2,0.2,0.4c0,0.2-0.1,0.4-0.2,0.7h-0.2l-2.5-0.2c-0.3,0-0.8,0-1.4,0c-0.8,0-1.9,0-3.4,0.1h-1.3c-0.2,0-0.5,0-1.1,0
				c0-0.2,0-0.3,0-0.4c0-0.1,0.1-0.3,0.2-0.5c0.5-0.2,1.1-0.4,1.9-0.5c0.8-0.1,1.3-0.4,1.5-0.7c0.2-0.3,0.3-1.6,0.3-3.9
				c0-5-0.1-7.8-0.2-8.6c-0.2-1.3-0.7-2.2-1.6-3c-0.9-0.7-2-1.1-3.3-1.1c-1,0-2,0.3-3,0.8S249,54,248.1,55l0,0.6v3.8l-0.1,3
				c0,3.1,0,4.8,0.1,5.2c0.1,0.4,0.2,0.7,0.4,0.9c0.2,0.2,0.9,0.4,2,0.5c0.5,0.1,0.9,0.1,1.1,0.2c0.2,0.2,0.3,0.4,0.3,0.7
				c0,0.2-0.1,0.4-0.2,0.5h-0.4l-1.3,0h-7.3l-2,0c0-0.3-0.1-0.4-0.1-0.6l0-0.3c0.4-0.2,1.1-0.4,2.1-0.6c0.5-0.1,1.1-0.2,1.6-0.4
				c0.1-0.1,0.2-0.2,0.2-0.3c0.1-0.2,0.1-0.9,0.2-2l0.1-2.9l0-3.3l0-1.8c0-2.1-0.4-3.6-1.3-4.5c-0.8-0.9-1.9-1.4-3.2-1.4
				c-1.2,0-2.4,0.3-3.6,0.9c-1.2,0.6-2.2,1.4-3,2.4c0,0.5,0,0.9,0,1.3l0.1,8.5c0,1.8,0.1,2.9,0.3,3.2c0.2,0.3,0.6,0.4,1.3,0.5
				c1.1,0.2,1.8,0.3,2.1,0.6c0.2,0.1,0.2,0.3,0.2,0.5c0,0.1,0,0.3,0,0.5c-1.9-0.1-3.2-0.2-3.9-0.2c-0.7,0-1.3,0-1.8,0l-1.3,0.1h-0.8
				l-2.8,0.1c0-0.1-0.1-0.2-0.1-0.3C227.2,70,227.3,69.9,227.3,69.6z"/>
			<path d="M267,69.6c0.4-0.1,0.9-0.2,1.5-0.3c1.1-0.2,1.7-0.3,1.9-0.5s0.3-0.7,0.3-1.4l0.1-0.9c0-0.3,0-0.8,0-1.3l-0.1-7.7
				c0-1-0.1-1.7-0.4-2c-0.5-0.5-1.3-0.8-2.5-1v-0.9c1.2-0.3,2.2-0.8,2.8-1.3c1-0.8,1.8-1.8,2.4-3.1l0.9,0c0.1,0.8,0.1,1.4,0.1,1.7
				v1.7l0,0.5c0.2-0.1,0.4-0.3,0.7-0.5c1-0.8,2-1.4,3.1-1.9s2-0.8,2.8-1c0.5-0.1,1.1-0.2,1.8-0.2c1.4,0,2.6,0.4,3.5,1.1
				c1,0.7,1.6,1.6,1.9,2.6c0.3,1,0.4,3,0.4,6V63c0,0.1,0,0.4,0,1c0,0.6,0,1.2,0,2c0,1.2,0,1.9,0.2,2.2c0.1,0.2,0.3,0.4,0.7,0.7
				c1.6,0.2,2.5,0.5,2.8,0.8v0.2c0,0.2-0.1,0.4-0.2,0.6h-0.5l-3.3-0.1l-3.3,0.1c-1.2,0-2.3,0-3.3,0l-0.2-0.5c0-0.1,0.1-0.2,0.2-0.4
				c0.5-0.2,1.1-0.3,1.9-0.4c0.5,0,0.8-0.1,1-0.2c0.2-0.1,0.4-0.2,0.7-0.4c0.2-0.4,0.3-0.7,0.3-1c0-0.1,0-0.4,0-0.7
				c-0.1-0.8-0.1-2.7-0.1-5.8v-1.3l0-2c0-2.2-0.4-3.7-1.3-4.5c-0.9-0.8-2-1.2-3.5-1.2c-1.1,0-2.2,0.2-3.3,0.7
				c-1.1,0.5-2.1,1.2-3.1,2.2c0,0.8,0,1.5,0,2.1l0.1,5.6c0,2.9,0,4.7,0.1,5.3c0,0.3,0.1,0.5,0.2,0.6c0.1,0.1,0.4,0.2,0.8,0.3
				c0.4,0.1,0.9,0.2,1.4,0.4s0.9,0.2,1,0.3c0.3,0.1,0.6,0.3,0.7,0.5l0,0.5h-2.6l-5.4-0.1c-1.3,0-2.1,0-2.4,0H267l0-0.3
				C266.9,70,267,69.8,267,69.6z"/>
		</g>
	</g>
	<g>
		<g>
			<path d="M350.3,72h-22.6c-1.1,0-2.8,0.2-3.9,0.4l-0.7-1.3c2.3,0.2,4.5,0.2,5.1,0.2h2.5c0-0.6-0.1-3.3-0.1-3.9
				c0-0.9-0.1-1.1-0.3-1.6l2.3,0.6c0.5,0.2,0.6,0.2,0.6,0.4c0,0.2-0.1,0.3-0.9,0.9c0,0.5-0.1,2.9-0.1,3.6h4.1v-6.9h-4.9
				c-1.1,0-2.7,0.1-3.9,0.3l-0.7-1.3c2.3,0.2,4.5,0.2,5.1,0.2h11.7l0.9-1.2c0.3-0.4,0.4-0.4,0.5-0.4c0.2,0,0.5,0.2,0.6,0.3l1.5,1.2
				c0.2,0.1,0.3,0.3,0.3,0.5c0,0.3-0.2,0.3-0.5,0.3h-9v3h4l0.7-1c0.1-0.2,0.2-0.4,0.5-0.4c0.2,0,0.4,0.2,0.5,0.3l1.3,1.1
				c0.2,0.1,0.3,0.2,0.3,0.5c0,0.3-0.2,0.3-0.5,0.3h-6.8v3.2h9.2l0.9-1.2c0.2-0.2,0.3-0.4,0.5-0.4c0.2,0,0.5,0.3,0.5,0.3l1.5,1.2
				c0.1,0.1,0.3,0.2,0.3,0.5C350.8,71.9,350.5,72,350.3,72z M337.7,49.5h-5.3v2h2.9l0.4-0.5c0.1-0.1,0.2-0.3,0.4-0.3
				c0.1,0,0.3,0.2,0.5,0.2l0.9,0.6c0.1,0,0.2,0.2,0.2,0.3s-0.1,0.2-0.8,0.9c0,0.6,0,3.4,0,3.6c-0.1,0.5-0.9,0.6-1.1,0.6
				c-0.4,0-0.4-0.2-0.4-0.9h-2.9l0,0.9c0.3,0.1,0.9,0.2,1.8,0.5c1.3,0.5,1.9,1.1,1.9,1.9c0,0.4-0.2,0.8-0.7,0.8
				c-0.6,0-0.9-0.4-1.2-1c-0.7-1-1-1.5-1.8-2c0,0.9,0.1,3.8,0.1,4.4c0,0.6-0.3,1.1-1.2,1.1c-0.4,0-0.5-0.2-0.5-0.5
				c0-0.1,0-0.3,0-0.7c0.1-1.3,0.1-3,0.2-4.5c-1.4,2-4.2,4.8-7.4,6.2l-0.1-0.2c2.7-2.2,5.5-5.5,6.3-7h-2.3c0,0.4,0,0.5-0.1,0.6
				c-0.2,0.2-1,0.5-1.2,0.5c-0.2,0-0.4-0.2-0.4-0.5c0-0.2,0-0.8,0-0.9c0.1-1,0.1-2,0.1-3c0-0.8,0-1.1-0.1-2l2,0.8h3.2l0-2h-2.7
				c-1.1,0-2.8,0.1-3.9,0.3l-0.7-1.3c2.3,0.2,4.5,0.2,5.1,0.2h2.3c0-2.7-0.1-3-0.3-3.9l2.3,0.8c0.2,0.1,0.4,0.2,0.4,0.4
				c0,0.3-0.4,0.5-0.9,0.8v2h2.8l0.6-0.9c0.2-0.4,0.4-0.4,0.5-0.4c0.2,0,0.5,0.2,0.5,0.3l1.1,0.9c0.2,0.1,0.3,0.2,0.3,0.5
				C338.1,49.4,337.9,49.5,337.7,49.5z M330.9,52.3h-3.5v3h3.5C331,53.6,331,53.4,330.9,52.3z M335.3,52.3h-3v1.3c0,0.6,0,1.2,0,1.8
				h2.9V52.3z M349.1,61.3c-1.1-0.5-4.1-2-6-3.9c-1.5,1.9-3.7,3.7-7.9,4.8l-0.1-0.2c1.8-0.9,4.5-2.3,7.1-5.8c-1.5-2-2-4.3-2.2-5.1
				c-0.4,0.5-1,1.3-2.6,3l-0.2-0.2c1.4-2.3,2.6-4.5,3.3-6.2c0.6-1.5,0.8-2.1,0.8-2.9l2.2,1.1c0.1,0.1,0.3,0.2,0.3,0.3s0,0.3-1.2,0.6
				c-0.5,1-1.2,2.3-2,3.4h6.7l0.8-1.2c0.1-0.1,0.3-0.4,0.5-0.4s0.4,0.2,0.5,0.3l1.4,1.2c0.1,0.1,0.3,0.3,0.3,0.5
				c0,0.3-0.3,0.3-0.5,0.3h-5l1.4,0.8c0.2,0.1,0.4,0.2,0.4,0.4c0,0.2-0.7,0.4-1.1,0.5c-0.9,1.6-1.5,2.6-2.2,3.6
				c2.1,1.7,4.9,2.6,7.5,3v0.2C350.2,60,349.5,60.5,349.1,61.3z M340.4,51.1c0.4,1.2,1,2.9,2.3,4.4c0.9-1.3,1.7-3,1.9-4.4H340.4z"/>
			<path d="M371.8,56.7h-5.1c0.1,2.6,0,6.7,0.1,9.3c0,0.8,0.1,4.4,0.1,5.2c0,0.8-0.8,1-1.5,1c-0.5,0-0.6-0.2-0.6-0.5
				c0-0.1,0.1-1.6,0.1-1.8c0.2-2.7,0.2-5.1,0.2-5.8c0-0.4,0.1-6.8,0.1-7.3h-3.4c0,7-0.9,11.9-6.5,15.2l-0.2-0.2
				c4.1-3.7,5.1-7.5,5.1-15H359c-1,0-2.7,0.1-3.9,0.4l-0.7-1.3c1.7,0.1,3.4,0.2,5.1,0.2h0.6v-7.9c-1.2,0-2.9,0.2-4,0.4l-0.7-1.3
				c1.7,0.1,3.4,0.2,5.1,0.2h8l0.9-1.1c0.2-0.2,0.3-0.4,0.5-0.4c0.2,0,0.2,0,0.5,0.3l1.2,1.1c0.2,0.2,0.3,0.2,0.3,0.5
				c0,0.3-0.2,0.3-0.5,0.3h-4.5V56h1.9l0.9-1.2c0.2-0.2,0.3-0.4,0.5-0.4c0.2,0,0.3,0.2,0.6,0.4l1.3,1.1c0.2,0.2,0.3,0.3,0.3,0.5
				C372.3,56.7,372.1,56.7,371.8,56.7z M365.1,48.1h-3.4V56h3.4V48.1z M381.9,64.6c-0.3,0-0.5,0-0.7-0.1c-3.5,3.5-6.7,6.1-12.7,7.9
				l-0.1-0.3c3.1-1.5,6.8-4.3,9.2-6.8c1.9-1.9,2.6-2.8,2.8-3.8l2,2.2c0.1,0.1,0.2,0.2,0.2,0.5C382.7,64.6,382.3,64.6,381.9,64.6z
				 M379.6,56.3c-1.6,1.9-5,5.4-9.9,7.5l-0.2-0.2c2.7-1.9,5.1-4.2,7.2-6.7c1.8-2.2,1.9-2.7,1.9-3.4l2.2,2c0.2,0.2,0.2,0.3,0.2,0.5
				C381.2,56.3,380.5,56.3,379.6,56.3z M378.8,47.6c-1.5,1.7-4.5,4.9-7.5,6.5l-0.2-0.3c1.8-1.5,3.9-4,5-5.5c1.3-1.8,1.4-2.5,1.6-3.3
				l2.4,1.8c0.2,0.1,0.2,0.2,0.2,0.4C380.4,47.6,379.8,47.6,378.8,47.6z"/>
			<path d="M395.9,55.9h-4c0,3.4,0,6.8,0,10.2c0.8-0.3,3.8-1.2,4.3-1.4l0.1,0.2c-1.3,0.9-3.2,1.8-4.6,2.4c-2.3,1-3,1.4-3.8,1.8
				c-0.3,0.8-0.4,0.9-0.6,0.9c-0.2,0-0.3-0.2-0.4-0.3l-1.4-2.3c1.9-0.2,2.3-0.2,4.9-1V55.9H390c-1.1,0-2.8,0.1-3.9,0.4l-0.7-1.3
				c1.9,0.2,3.5,0.2,5.1,0.2c0-4.7,0-4.9-0.1-6.3c-0.1-1.5-0.3-2.2-0.5-2.7l2.8,1c0.4,0.2,0.5,0.2,0.5,0.3c0,0.3-0.7,0.9-1.1,1.2
				c-0.1,3.1-0.1,4.1-0.1,6.5h1.5l0.7-0.8c0.2-0.2,0.3-0.4,0.5-0.4s0.4,0.2,0.5,0.3l0.9,0.8c0.2,0.2,0.3,0.3,0.3,0.5
				C396.4,55.8,396.1,55.9,395.9,55.9z M409.4,71.3c-0.5,0.1-6.1,0.1-7.2,0.1c-3.3,0-3.6,0-4.4-0.4c-0.9-0.4-0.9-1.1-0.9-2
				c0-1.7,0-9,0-10.5c-1.4,0.6-2.5,1.3-3.3,1.8l-1.2-0.9c0.6-0.2,2-0.7,4.4-1.7c0-0.9,0.1-4.7,0.1-5.4c0-1.2-0.1-1.9-0.5-3.3
				l2.6,0.9c0.2,0.1,0.4,0.2,0.4,0.4c0,0.2-0.1,0.3-1,1.1c0,0.9-0.1,4.9-0.1,5.7l3.8-1.6c0-7.3-0.1-8-0.5-10l2.8,0.9
				c0.2,0.1,0.5,0.2,0.5,0.4s-0.1,0.3-0.3,0.5c-0.2,0.3-0.7,0.7-0.8,0.8c0,1.3-0.1,2.2,0,6.8l3.6-1.6l0.6-1c0.2-0.3,0.3-0.4,0.4-0.4
				c0.2,0,0.3,0.1,0.4,0.2l1.3,0.8c0.1,0.1,0.2,0.2,0.2,0.4c0,0.3-0.1,0.3-0.8,1c-0.1,5.6-0.2,7.9-0.5,9.3c-0.5,2.2-2,2.7-2.8,2.9
				c-0.4-1.4-1.4-1.8-1.8-1.9l0-0.2c0.5,0.1,0.8,0.2,1.1,0.2c1.3,0,1.7-0.6,1.8-1c0.5-1.2,0.5-6.1,0.5-7.8c0-0.4-0.1-1.2-0.1-1.7
				l-4.1,1.8c0,0.9,0,4.8,0,5.6c0,0.5,0.2,4.9,0.2,5.3c0,0.4,0,1.4-1.3,1.4c-0.4,0-0.6-0.1-0.6-0.5c0-0.3,0.1-1.6,0.1-1.9
				c0-1.5,0-3.4,0.1-9.3l-3.8,1.6c0,1.3,0,11,0,11.3c0.1,0.6,0.7,0.7,0.9,0.8c0.2,0,4,0,4.6,0c4.2,0,4.4-0.1,4.8-0.3
				c0.6-0.2,0.8-0.7,1.2-1.7c0.2-0.5,0.3-0.8,1-2.9h0.3c0,0.4,0,2,0.1,2.4c0,0.4,0.1,1.1,0.6,1.4c0.2,0.2,0.3,0.2,0.3,0.3
				C412.3,69.7,411.7,71,409.4,71.3z"/>
			<path d="M428.4,69.6c9.1-3.1,9.5-9.7,9.5-11.3c0-5.3-5-8.2-9.5-8.2c-0.6,0-0.8,0.1-1.1,0.2c1.5,1.2,1.5,2.2,1.5,2.3
				c0,0.4-0.1,0.5-0.7,1.8c-3.7,7.8-4,8.5-5.8,11.1c-0.2,0.2-1.1,1.6-1.7,1.9c-0.2,0.1-0.4,0.1-0.6,0.1c-0.7,0-0.9-0.3-1.8-1.6
				c-0.2-0.3-0.4-0.5-0.8-0.8c-1.2-1-1.6-2-1.6-4.1c0-6.1,5.1-11.9,12.9-11.9c5.6,0,11.1,3.2,11.1,9.5c0,5.6-4.5,10.6-11.3,11.2
				L428.4,69.6z M425,57.8c0.9-1.7,1.8-4.1,1.8-5.3c0-1-0.6-1.7-0.9-1.9c-3.4,0.3-8.5,4.8-8.5,10.7c0,2.3,1.5,4.4,2.6,4.4
				c0.2,0,0.4,0,0.6-0.2c0.7-0.7,1.2-1.7,1.8-2.7L425,57.8z"/>
			<path d="M445.8,69.9c7.6-4,10.7-8.7,12.2-11c-1.3-1.1-2.9-2.4-7-4.2c3.2,0.1,6.3,2,7.7,3c0.9-1.6,2.8-5.6,2.8-6.7
				c0-0.9-0.6-1.4-1.8-2.3c0.5-0.1,0.7-0.1,1-0.1c0.5,0,1,0.1,2.1,0.9c1.2,0.9,1.5,1.2,1.5,1.6c0,0.3-0.2,0.5-0.9,1.1
				c-0.3,0.2-0.5,0.7-0.8,1.5c-0.9,2.3-2,4.3-2.6,5.2c0.9,0.7,3.8,3.2,3.8,5.1c0,0.1,0,1.1-0.8,1.1c-0.4,0-0.6-0.3-1-1
				c-0.9-1.5-1.7-2.6-2.9-3.8c-4.6,6.8-10.4,9.4-13.4,10L445.8,69.9z"/>
			<path d="M481.1,59v1c0,0.4,0,2-0.9,2c-0.9,0-1.1-1.7-1.1-2.4c0-0.3,0-0.5,0.2-1.6c0.1-0.4,0.1-0.9,0.1-2.9c0-0.9,0-3.4-0.2-4.1
				c-0.2-0.5-0.4-0.6-2-1.1c0.7-0.5,1.1-0.7,1.6-0.7c0.5,0,2.8,0.4,2.8,1.3c0,0.2-0.3,1.1-0.3,1.2c-0.2,1-0.2,4.1-0.2,6.5V59z
				 M483.4,71.6c6-4.5,7.1-8.5,7.1-18.1c0-0.8,0-3.8-0.4-4.4c-0.4-0.6-1.8-0.8-2.3-0.8c0.4-0.4,0.9-0.9,1.8-0.9
				c0.9,0,2.5,0.5,2.9,0.9c0.2,0.2,0.2,0.4,0.2,0.5c0,0.2-0.3,1.2-0.4,1.4c-0.1,0.5-0.1,1.2-0.1,1.9c-0.2,7.5-0.2,8.5-0.9,11.3
				c-0.3,1.2-1.9,6.4-7.9,8.5L483.4,71.6z"/>
			<path d="M510.9,58.8c0,0.6-0.4,1-0.9,1c-0.4,0-0.4-0.1-1.1-1.4c0,0-1.1-2.1-2.3-3.2C508.9,55.4,510.9,57.9,510.9,58.8z
				 M509.5,70.4c1.8-0.8,5.2-2.3,9.2-8.6c2.2-3.5,2.4-5.3,2.4-5.9c0-0.6-0.4-0.9-1.6-1.6c0.4-0.1,0.9-0.2,1.4-0.2
				c1.1,0,2.5,1.4,2.5,1.9c0,0.3-0.1,0.4-0.6,1c-0.2,0.2-0.3,0.4-0.5,0.9c-1.2,2.6-2.6,5.6-5.8,8.9c-2.3,2.3-4.9,3.3-7,3.9
				L509.5,70.4z M516.2,57.6c0,0.9-0.6,1.1-0.8,1.1c-0.5,0-0.6-0.3-1-1.4c-0.5-1.4-1.4-2.6-1.9-3.3
				C514.3,54.6,516.2,55.9,516.2,57.6z"/>
			<path d="M551.7,59.2c0.5,0.4,0.7,1.1,0.7,1.7c0,0.7-0.3,1.2-0.7,1.2c-0.4,0-0.7-0.3-1.4-1c-2.2-2.3-4.5-3.7-6.7-4.8
				c0,2.8-0.1,5.6-0.1,8.4c0,0.6,0.1,3.4,0.1,4c0,1.5,0,2.8-0.9,2.8c-1,0-1.3-1.9-1.3-2.3c0-0.1,0.2-1.6,0.3-1.8
				c0.2-1.6,0.5-12.7,0.5-13.9c0-0.9,0-4.1-0.2-4.8c-0.2-0.8-1-1.1-2.5-1.5c1.1-0.7,1.9-0.7,2-0.7c0.5,0,3,0.6,3,1.6
				c0,0.2-0.3,1.1-0.5,1.6c-0.3,1-0.4,4.7-0.4,6C545.9,56.1,549.7,57.4,551.7,59.2z"/>
		</g>
	</g>
</g>
<g>
	<g>
		<path d="M22.7,129.7l-0.3-1.4l2.7-0.3v-5.9H22V121h3.2v-9.2h14.3v1.2H26.7v2h12.1v1.1H26.7v1.9h12v1.1h-12v2H41v1.2h-8.5
			c0.6,1.1,1.4,2.1,2.3,2.9c1.7-0.8,3-1.6,4.2-2.4l1.1,1c-1.2,0.8-2.6,1.5-4.2,2.2c1.3,0.9,3,1.7,5.2,2.4l-0.9,1.3
			c-2.1-0.5-3.9-1.4-5.6-2.7c-1.7-1.3-2.9-2.9-3.8-4.7h-4.1v5.7c3.2-0.3,5.2-0.6,6.2-0.8l0,1.3c-0.7,0.1-2.3,0.3-4.8,0.7
			S23.9,129.6,22.7,129.7z"/>
		<path d="M50.6,120.2c-0.7,4.2-3,7.3-6.9,9.4l-0.8-1.1c1.2-0.7,2.2-1.5,3-2.3c0.8-0.8,1.4-1.7,1.8-2.5s0.7-1.6,0.9-2.3
			c0.2-0.7,0.3-1.3,0.5-2s0.2-1.9,0.2-3.8h-5.8v-1.3h8.4v-3.1h1.7v3.1h8.8v1.3H50.9c0,1.3-0.1,2.4-0.2,3.2H60v2.7
			c0,1.2,0,2.2-0.1,3.1s-0.2,1.6-0.4,2.2c-0.2,0.6-0.4,1.1-0.7,1.4s-0.7,0.6-1.1,0.8c-0.4,0.2-0.8,0.2-1.1,0.3s-1,0-2.1,0h-1.3
			l-0.2-1.4h2.7c1.2,0,2-0.5,2.3-1.5s0.5-2.5,0.5-4.5v-1.8H50.6z"/>
		<path d="M65.5,129.8l-1.1-0.8c0.6-0.6,1.1-1.6,1.7-3c0.6-1.4,0.9-3.2,0.9-5.5h-2.2v-1.2H67v-5.9h-1.7v-1.3h10.3v1.3h-1.8v5.9h1.8
			v1.2h-1.8v9.1H72v-9.1h-3.5C68.4,124.4,67.4,127.5,65.5,129.8z M68.6,113.4v5.9H72v-5.9H68.6z M75.4,129.6l-0.7-1.1
			c1.6-0.8,3.1-1.8,4.6-3c1.5-1.2,2.6-2.3,3.4-3.3l1.4,0.9c-1.1,1.3-2.5,2.5-4.1,3.7C78.3,128,76.8,129,75.4,129.6z M76.4,116.7
			l-0.8-1.1c1-0.5,2.1-1.2,3.3-2.1s2.1-1.6,2.8-2.3l1.3,0.8C81.1,113.9,78.9,115.4,76.4,116.7z M76.4,122.4l-0.7-1.2
			c2.6-1.3,4.9-2.9,6.7-4.8l1.2,0.9C81.8,119.2,79.4,120.9,76.4,122.4z"/>
		<path d="M93.3,121c0-0.5,0.2-1,0.6-1.3s0.8-0.6,1.3-0.6s1,0.2,1.3,0.6s0.6,0.8,0.6,1.3s-0.2,1-0.6,1.3s-0.8,0.6-1.3,0.6
			s-1-0.2-1.3-0.6S93.3,121.5,93.3,121z"/>
		<path d="M106.7,129.2v-1.3h2.9v-10.8h1.6v10.8h4.8v-14.3h-8.8v-1.3h18v1.3h-7.5v5.9h6.4v1.3h-6.4v7.1h7.9v1.3H106.7z"/>
		<path d="M135.2,120.2c-0.7,4.2-3,7.3-6.9,9.4l-0.8-1.1c1.2-0.7,2.2-1.5,3-2.3c0.8-0.8,1.4-1.7,1.8-2.5s0.7-1.6,0.9-2.3
			c0.2-0.7,0.3-1.3,0.5-2s0.2-1.9,0.2-3.8h-5.8v-1.3h8.4v-3.1h1.7v3.1h8.8v1.3h-11.5c0,1.3-0.1,2.4-0.2,3.2h9.2v2.7
			c0,1.2,0,2.2-0.1,3.1s-0.2,1.6-0.4,2.2c-0.2,0.6-0.4,1.1-0.7,1.4c-0.3,0.3-0.7,0.6-1.1,0.8c-0.4,0.2-0.8,0.2-1.1,0.3s-1,0-2.1,0
			h-1.3l-0.2-1.4h2.7c1.2,0,2-0.5,2.3-1.5s0.5-2.5,0.5-4.5v-1.8H135.2z"/>
		<path d="M150.1,129.8L149,129c0.6-0.6,1.1-1.6,1.7-3c0.5-1.4,0.9-3.2,0.9-5.5h-2.2v-1.2h2.2v-5.9h-1.7v-1.3h10.3v1.3h-1.8v5.9h1.8
			v1.2h-1.8v9.1h-1.6v-9.1h-3.5C153,124.4,152,127.5,150.1,129.8z M153.2,113.4v5.9h3.5v-5.9H153.2z M160,129.6l-0.7-1.1
			c1.6-0.8,3.1-1.8,4.6-3c1.5-1.2,2.6-2.3,3.4-3.3l1.4,0.9c-1.1,1.3-2.5,2.5-4.1,3.7C162.9,128,161.4,129,160,129.6z M161,116.7
			l-0.8-1.1c1-0.5,2.1-1.2,3.3-2.1s2.1-1.6,2.8-2.3l1.3,0.8C165.7,113.9,163.5,115.4,161,116.7z M161,122.4l-0.7-1.2
			c2.6-1.3,4.9-2.9,6.7-4.8l1.2,0.9C166.4,119.2,164,120.9,161,122.4z"/>
		<path d="M176.5,112.2c0,1.1-0.1,2.1-0.3,3h4.6v1.4H176c-0.7,4.1-2.2,7.6-4.3,10.5l-1.2-0.9c1.9-2.6,3.2-5.8,3.9-9.6h-3.4v-1.4h3.6
			c0.1-1,0.2-2,0.2-3L176.5,112.2z M189.6,126.8l-0.8,1.3c-1.4-1.2-2.7-2-3.8-2.6v1c0,2-1.5,3-4.4,3c-1.2,0-2.3-0.3-3.1-0.8
			c-0.9-0.5-1.3-1.2-1.3-2.2c0-1,0.4-1.8,1.3-2.4c0.9-0.6,1.9-0.9,3.2-0.9c1,0,1.9,0.1,2.7,0.2V118h1.6v6
			C186.4,124.6,187.9,125.5,189.6,126.8z M183.4,124.9c-0.9-0.2-1.8-0.4-2.7-0.4c-0.8,0-1.5,0.2-2.1,0.5c-0.6,0.3-0.9,0.8-0.9,1.4
			c0,1.2,1,1.7,3.1,1.7c1.8,0,2.6-0.6,2.6-1.7V124.9z M189.7,117.9l-1.3,1c-1.3-1.6-3-3.2-5.2-4.9l0.9-1
			C186,114.1,187.9,115.7,189.7,117.9z"/>
		<path d="M209.8,128.8c-1.9,0.2-4,0.3-6.3,0.3c-1.3,0-2.4,0-3.4-0.1c-1,0-1.8-0.1-2.3-0.2c-0.5-0.1-1-0.3-1.5-0.5
			c-0.5-0.2-0.9-0.5-1.2-0.8c-0.4-0.3-0.6-0.7-0.8-1.2c-0.2-0.5-0.3-1-0.3-1.5c0-2.3,1.9-4.3,5.6-5.9c-0.2-2.2-0.3-4.5-0.3-6.9h1.7
			c0,0.3,0,0.6,0,0.9c0,1.6,0.1,3.4,0.2,5.4c1.3-0.5,3.8-1.3,7.6-2.3l0.4,1.5c-1.1,0.3-2.8,0.8-5,1.4c-2.3,0.7-4,1.3-5.1,1.9
			c-1.1,0.6-2,1.2-2.5,1.9s-0.8,1.4-0.8,2.1c0,0.7,0.3,1.3,0.8,1.7s1.2,0.8,2,0.9c0.8,0.2,2.4,0.2,4.7,0.2c2.5,0,4.8-0.1,6.9-0.4
			V128.8z M207.9,114.3l-1.2,0.5c-0.5-1.1-1-2.1-1.5-2.9l1.1-0.5C206.9,112.4,207.5,113.3,207.9,114.3z M210.9,113.7l-1.2,0.5
			c-0.5-1.1-0.9-2-1.5-2.8l1.1-0.5C209.9,111.7,210.4,112.7,210.9,113.7z"/>
		<path d="M214,129.8l-1.1-0.8c0.6-0.6,1.1-1.6,1.7-3c0.6-1.4,0.9-3.2,0.9-5.5h-2.2v-1.2h2.2v-5.9h-1.7v-1.3H224v1.3h-1.8v5.9h1.8
			v1.2h-1.8v9.1h-1.6v-9.1h-3.5C216.9,124.4,215.9,127.5,214,129.8z M217.1,113.4v5.9h3.5v-5.9H217.1z M223.9,129.6l-0.7-1.1
			c1.6-0.8,3.1-1.8,4.6-3c1.5-1.2,2.6-2.3,3.4-3.3l1.4,0.9c-1.1,1.3-2.5,2.5-4.1,3.7C226.8,128,225.3,129,223.9,129.6z M224.9,116.7
			l-0.8-1.1c1-0.5,2.1-1.2,3.3-2.1s2.1-1.6,2.8-2.3l1.3,0.8C229.6,113.9,227.4,115.4,224.9,116.7z M224.9,122.4l-0.7-1.2
			c2.6-1.3,4.9-2.9,6.7-4.8l1.2,0.9C230.3,119.2,227.9,120.9,224.9,122.4z"/>
		<path d="M240.5,113.7c0,0.6,0,1.3-0.1,2.1h3.9c1,0,1.7,0.3,2.3,1c0.6,0.7,0.8,1.6,0.8,2.7c0,2.8-0.3,5-0.9,6.8s-1.6,2.7-3.1,2.7
			c-0.8,0-2-0.4-3.6-1.2l0.5-1.3c0.4,0.2,0.9,0.4,1.5,0.6c0.7,0.2,1.1,0.3,1.4,0.3c0.6,0,1-0.3,1.3-0.9c0.3-0.6,0.6-1.4,0.8-2.5
			c0.2-1.1,0.3-2.4,0.3-3.9c0-1.4-0.2-2.2-0.5-2.6c-0.4-0.4-0.8-0.5-1.5-0.5h-3.6c-0.2,2.3-0.8,4.6-1.7,6.7c-0.9,2.1-2,3.9-3.3,5.4
			l-1.2-0.8c0.9-1.1,1.8-2.5,2.7-4.4c0.9-1.9,1.5-4.1,1.8-6.6h-4V116h4.2c0-0.5,0.1-1.9,0.1-4.1h1.7V113.7z M253.1,122.2l-1.6,0.4
			c-0.9-3.4-2.3-6.1-4.1-8l1.2-0.8c0.9,1,1.8,2.3,2.7,3.9C252.2,119.4,252.8,120.9,253.1,122.2z M251.2,113.8l-1.2,0.5
			c-0.5-1.1-1-2.1-1.5-2.9l1.1-0.5C250.3,111.9,250.8,112.9,251.2,113.8z M254.2,113.4l-1.2,0.5c-0.5-1.1-0.9-2-1.5-2.8l1.1-0.5
			C253.1,111.3,253.6,112.2,254.2,113.4z"/>
		<path d="M256.1,121.4l-0.6-0.9c1.4-0.7,2.7-1.6,3.8-2.7h-2.8v-3.4h3.2v-1.1H256v-1h3.7v-1h1.5v1h3.8v1h-3.8v1.1h3.3v3.4h-3.1
			c1.4,1,2.4,1.7,3.2,2l-0.7,1c-0.7-0.3-1.6-0.9-2.8-1.9v2.6h-1.5V119C258.5,120.1,257.3,120.9,256.1,121.4z M259,128.2v-3.4h1.6
			v3.4h3.8v-4.7h-8v-1.2h17.5v1.2H266v1.7h6.8v1.2H266v1.9h8.6v1.2h-18.8v-1.2H259z M259.8,115.3h-2.1v1.7h2.1V115.3z M263.3,115.3
			H261v1.7h2.2V115.3z M273.7,114.5c-0.3,1.6-1.1,3-2.4,4.2c1.1,0.7,2.4,1.2,3.9,1.7l-0.8,1.1c-1.6-0.6-3-1.2-4.1-2
			c-1.4,0.9-3,1.6-4.7,1.9l-0.5-1c1.6-0.4,3-0.9,4.1-1.7c-0.9-0.8-1.6-1.7-2.1-2.7c-0.4,0.5-0.7,0.9-0.9,1.2l-1-0.6
			c1.3-1.7,2.1-3.5,2.6-5.4l1.5,0.2c-0.1,0.6-0.4,1.3-0.7,2.1h6.2v1.1H273.7z M270.1,117.9c1.2-1.1,1.8-2.3,2-3.4h-4.2l-0.1,0.2
			C268.2,115.9,269,117,270.1,117.9z"/>
		<path d="M282.2,128.8l-0.2-1.3c3.5-0.1,6-0.6,7.5-1.4c1.5-0.9,2.2-2.1,2.2-3.7c0-1.2-0.4-2.2-1.2-2.9c-0.8-0.7-1.8-1.1-3-1.1
			c-1.7,0-4.7,0.4-9,1.3l-0.2-1.4l5-0.8c1.9-0.3,3.3-0.4,4.2-0.4c1.7,0,3.1,0.5,4.2,1.4c1.1,0.9,1.6,2.2,1.6,3.8
			c0,2-0.8,3.6-2.5,4.7C289,128.1,286.2,128.7,282.2,128.8z"/>
		<path d="M316.5,115.1h-5.1c-1.3,0.5-2.5,1.5-3.7,2.9c-1.2,1.4-1.8,2.9-1.8,4.4c0,1.2,0.3,2.2,0.9,3c0.6,0.8,1.5,1.4,2.5,1.7
			s2.4,0.5,4.2,0.5c0.4,0,0.8,0,1.2,0l-0.1,1.5h-0.1c-1.3,0-2.3,0-3.1-0.1c-0.8,0-1.7-0.2-2.6-0.5c-0.9-0.3-1.7-0.7-2.4-1.3
			s-1.2-1.3-1.6-2.1s-0.5-1.7-0.5-2.6c0-1.4,0.4-2.7,1.3-4.1s1.9-2.5,3.3-3.4h-10.3v-1.4h17.9V115.1z"/>
		<path d="M329,123.1c-0.2,0.6-0.6,1.4-1.1,2.4c-0.5,0.9-1,1.7-1.5,2.3c-0.5,0.6-1.1,0.9-1.6,0.9c-0.3,0-0.6-0.1-0.9-0.2
			s-0.6-0.5-1-1s-0.8-1.1-1.2-1.9c-0.4-0.8-0.6-1.7-0.8-2.6c-0.2-0.9-0.3-1.8-0.3-2.6c0-0.8,0.1-1.8,0.2-3.3
			c0.2-1.5,0.3-2.5,0.3-3.2h1.7c0,0.6-0.1,1.7-0.3,3.2c-0.2,1.4-0.3,2.4-0.3,3.2c0,1.2,0.1,2.3,0.4,3.2c0.2,0.9,0.6,1.8,1.1,2.4
			c0.5,0.7,0.8,1,1,1c0.4,0,0.8-0.5,1.4-1.5c0.6-1,1.1-2,1.6-3.2L329,123.1z M338.4,126.1l-1.7,0.1V126c0-2-0.3-4-1-5.9
			s-1.6-3.6-2.8-5.1l1.3-0.8C336.9,117.3,338.3,121.3,338.4,126.1z"/>
		<path d="M353.3,127.7c2.6-0.6,3.8-1.9,3.8-4c0-1.3-0.5-2.2-1.4-2.9s-2.2-1-3.8-1c-1.1,0-2.1,0.1-3.2,0.4c-1,0.3-2.2,0.8-3.5,1.7
			c-1.3,0.8-2.3,1.5-2.8,1.9l-0.8-1.3c4.2-2.7,8.2-5.5,12.2-8.5l-10.4,0v-1.4H356l0.7,1l-7.2,5l0.1,0.1c0.8-0.3,1.7-0.4,2.5-0.4
			c2,0,3.6,0.5,4.8,1.4c1.3,0.9,1.9,2.1,1.9,3.7c0,1.9-0.8,3.3-2.3,4.3c-1.5,1-3.6,1.5-6.2,1.5c-3.6,0-5.4-1-5.4-2.9
			c0-0.8,0.4-1.4,1.1-1.9s1.5-0.8,2.4-0.8c1.2,0,2.3,0.3,3.2,1S353,126.5,353.3,127.7z M351.8,128c-0.4-2-1.5-2.9-3.2-2.9
			c-0.6,0-1.1,0.1-1.5,0.4c-0.4,0.3-0.7,0.6-0.7,1.1c0,1,1.2,1.6,3.6,1.6C350.6,128.1,351.1,128.1,351.8,128z"/>
		<path d="M372.2,128.9l-0.4-1.4c2.2-0.2,4.1-0.8,5.6-1.9c1.6-1.1,2.3-2.7,2.3-4.8c0-1.9-0.6-3.4-1.9-4.4c-1.3-1-3-1.6-5.3-1.7
			c-0.1,3.7-0.7,6.7-2,9.2s-2.8,3.7-4.7,3.7c-1.2,0-2.1-0.5-2.7-1.5c-0.7-1-1-2.2-1-3.6c0-2.3,1-4.5,3-6.3c2-1.9,4.4-2.8,7.2-2.8
			c2.6,0,4.8,0.7,6.4,2c1.7,1.3,2.5,3.1,2.5,5.3c0,2.6-0.9,4.5-2.6,5.9S374.9,128.7,372.2,128.9z M371,114.8c-2,0.3-3.7,1.2-5.1,2.7
			s-2.1,3.2-2.1,5.1c0,1,0.2,1.8,0.6,2.5c0.4,0.7,1,1,1.7,1c1.3,0,2.4-1.2,3.3-3.6C370.4,120.2,370.9,117.6,371,114.8z"/>
		<path d="M401.5,115.1h-5.1c-1.2,0.5-2.5,1.5-3.7,2.9c-1.2,1.4-1.8,2.9-1.8,4.4c0,1.2,0.3,2.2,0.9,3c0.6,0.8,1.5,1.4,2.5,1.7
			s2.4,0.5,4.2,0.5c0.4,0,0.8,0,1.2,0l-0.1,1.5h-0.1c-1.3,0-2.3,0-3.1-0.1c-0.8,0-1.7-0.2-2.6-0.5c-0.9-0.3-1.7-0.7-2.4-1.3
			c-0.7-0.6-1.2-1.3-1.6-2.1s-0.5-1.7-0.5-2.6c0-1.4,0.4-2.7,1.3-4.1c0.8-1.4,1.9-2.5,3.3-3.4h-10.3v-1.4h17.9V115.1z M399,119.5
			l-1.2,0.5c-0.5-1.1-1-2.1-1.5-2.9l1.1-0.5C398,117.6,398.5,118.5,399,119.5z M402,118.9l-1.2,0.5c-0.5-1.1-0.9-2-1.5-2.8l1.1-0.5
			C400.9,116.7,401.4,117.7,402,118.9z"/>
		<path d="M409.8,128.6l-1.4,0.9c-0.9-1.5-2-2.9-3.2-4.4l1.2-0.8C407.9,126.1,409.1,127.5,409.8,128.6z"/>
		<path class="st0" d="M432.2,117.6c0,1.8-0.2,3.2-0.5,4.4s-0.7,2.2-1.1,2.9c0.7,0.6,1.4,1.1,2.1,1.4c0.7,0.3,1.6,0.5,2.5,0.6
			c0.9,0.1,2.6,0.2,4.8,0.2c1.6,0,3.3,0,5-0.1l-0.6,2.2c-0.9,0-1.8,0-2.6,0c-3.6,0-5.9-0.1-7-0.2c-1-0.1-2-0.4-3-0.8
			c-1-0.4-1.8-0.9-2.6-1.6c-0.9,1.1-2.1,2.1-3.4,2.9l-1.3-1.8c1.2-0.8,2.2-1.8,3-3c-0.8-1.1-1.5-2.3-2.1-3.8l2-0.9
			c0.3,0.9,0.8,1.8,1.3,2.5c0.4-1,0.6-2,0.7-3.2h-3.5l-0.4-0.7l2.7-5h-2.9v-2.2h5.9l0.6,0.7l-2.9,5.2H432.2z M444.4,125.1h-5.3v1.4
			h-2.7v-1.4h-4.8v-2h4.8v-0.9h-4.1v-1.9h4.1v-0.9h-3.4v-1.8h3.4v-1.1h-4.6v-1.8h4.6v-1H433v-1.8h3.4v-1h2.7v1h4.5v2.8h1.2v1.8h-1.2
			v2.8h-4.5v0.9h5v1.9h-5v0.9h5.3V125.1z M439.1,113.9v1h1.9v-1H439.1z M439.1,116.7v1.1h1.9v-1.1H439.1z"/>
		<path class="st0" d="M451.7,111c-0.1,0.3-0.3,0.7-0.5,1h4.8v1.7h-2.6l0.7,1.3l-2.3,0.5l-0.9-1.7H450c-0.6,0.8-1.2,1.4-1.9,2
			l-2-1.1c1.3-1.2,2.3-2.5,3-3.9L451.7,111z M454.8,126.2c-2.4,1.5-5,2.6-7.7,3.3l-0.9-2c2-0.5,4.1-1.2,6.2-2.3h-5.4v-1.9h7.7V122
			l-0.7-0.6c1-0.7,1.5-1.8,1.5-3.2v-2.6h7.3v4.5c0,0.2,0.1,0.3,0.3,0.3c0,0,0.1,0,0.2,0c0.3,0,0.5,0,0.6-0.1
			c0.1-0.1,0.1-0.2,0.1-0.6c0-0.3,0-0.9,0-1.8l1.8,0.2v2.4c0,0.4-0.1,0.7-0.3,0.9c-0.2,0.2-0.4,0.4-0.8,0.5c-0.3,0.1-1,0.1-1.9,0.1
			c-0.6,0-1,0-1.3-0.1s-0.5-0.3-0.8-0.5c-0.2-0.3-0.3-0.6-0.3-0.9V120l-1.3,0.9c-0.3-0.5-0.9-1.1-1.6-2c-0.1,1.3-0.6,2.3-1.3,3h1.2
			v1.2h8.1v1.9h-5.6c1.8,0.9,3.9,1.6,6.3,2l-1.1,2.2c-3-0.6-5.6-1.7-7.8-3.3v3.6h-2.7V126.2z M454.5,121.1c-0.6,0.2-3.1,0.6-7.3,1.2
			l-0.4-2c0.8-0.1,1.8-0.2,3-0.3v-2.1h-2.5v-1.8h7.4v1.8h-2.4v1.7c0.9-0.1,1.6-0.2,2.2-0.3L454.5,121.1z M460.9,111.1
			c-0.2,0.3-0.3,0.6-0.5,0.9h5.7v1.7h-3.1l0.7,1.1l-2.4,0.4l-0.9-1.6h-1.3c-0.5,0.7-1,1.2-1.4,1.5l-2-0.9c1-1.1,1.9-2.3,2.6-3.6
			L460.9,111.1z M457.8,118.6l1.2-0.7c0.7,0.7,1.2,1.3,1.7,1.9v-2.5h-2.8v0.6C457.8,118.1,457.8,118.4,457.8,118.6z"/>
		<path class="st0" d="M476,116.2H468v-2.1h8.1V116.2z M475.5,128.7H471v0.8h-2.6v-6.9h7.1V128.7z M475.5,113.3h-6.8v-1.8h6.8V113.3
			z M475.4,118.9h-6.6v-1.8h6.6V118.9z M475.4,121.7h-6.6v-1.8h6.6V121.7z M473,126.9v-2.5h-2v2.5H473z M487.5,114.6v2.2
			c0,0.4-0.1,0.7-0.3,0.9c-0.2,0.3-0.5,0.5-0.8,0.6c-0.3,0.1-0.8,0.2-1.6,0.2c-0.5,0-1,0-1.5-0.1c-0.5,0-0.8-0.2-1.1-0.5
			c-0.3-0.3-0.4-0.6-0.4-1v-3.6h-2v0.2v0.1v0.2c0,1-0.2,2-0.7,2.9c-0.4,1-1,1.7-1.8,2.3l-1.7-1.4c0.5-0.5,0.8-1,1.1-1.6
			c0.3-0.6,0.4-1.5,0.4-2.5v-2.1h7.2v4.7c0,0.2,0.1,0.3,0.3,0.3h0.3c0.1,0,0.2,0,0.2-0.1c0.1,0,0.1-0.1,0.1-0.2c0-0.1,0-0.3,0.1-0.7
			c0-0.4,0-0.8,0-1.3L487.5,114.6z M486.8,119.3c0,2.6-0.9,4.7-2.6,6.5c0.7,0.3,1.8,0.7,3.4,1.2l-1.4,2.4c-1.7-0.5-3.1-1.1-4.3-1.9
			c-1.6,1-3.4,1.7-5.1,2l-1-2.2c1.7-0.4,3-0.8,4.1-1.4c-1.3-1.3-2.2-2.8-2.6-4.5h-1v-2.2H486.8z M482,124.5c0.8-0.9,1.4-1.9,1.7-3
			H480C480.4,122.7,481,123.6,482,124.5z"/>
		<path class="st0" d="M497.5,116.2h-8.1v-2.1h8.1V116.2z M497,128.7h-4.6v0.8h-2.6v-6.9h7.1V128.7z M496.9,113.3h-6.8v-1.8h6.8
			V113.3z M496.8,118.9h-6.6v-1.8h6.6V118.9z M496.8,121.7h-6.6v-1.8h6.6V121.7z M494.4,126.9v-2.5h-1.9v2.5H494.4z M504.8,129.8h-3
			v-10.4h-4.1v-2.6h4.1V111h3v5.8h4v2.6h-4V129.8z"/>
		<path class="st0" d="M529.4,120.8c-0.9,3.1-2.1,5.4-3.7,6.7s-3.6,2.1-6.1,2.1c-1.1,0-2-0.1-2.8-0.4c-0.8-0.3-1.5-0.7-2-1.1
			s-0.9-1-1.2-1.5c-0.3-0.6-0.5-1.1-0.5-1.8c-0.1-0.6-0.1-1.6-0.1-2.9c0-1.4,0.1-4.8,0.4-10.1h3.1c-0.3,4.7-0.4,8-0.4,9.9
			c0,1.5,0,2.5,0.1,2.9s0.3,0.8,0.5,1.2s0.7,0.7,1.2,0.9c0.5,0.2,1.1,0.3,1.9,0.3c1.7,0,3-0.6,4.1-1.7s2-2.9,2.6-5.4L529.4,120.8z"
			/>
		<path class="st0" d="M540.9,129.2l-3,0.5c-0.8-3.5-1.8-7.2-2.8-11.1l-3.1,0.9l-0.7-2.6l3.1-0.8c-0.4-1.7-0.9-3.1-1.2-4.5l3-0.6
			l1.2,4.3c1.3-0.3,2.4-0.6,3.3-0.8c-0.5-0.6-1-1.4-1.8-2.3l2.4-1.2c0.7,0.7,1.4,1.7,2.3,2.9c0.9-0.2,1.7-0.2,2.3-0.2
			c1.6,0,3,0.5,4,1.4c1,1,1.5,2.2,1.5,3.8c0,1.6-0.6,2.8-1.7,3.7s-2.6,1.3-4.5,1.3c-0.9,0-2-0.1-3.1-0.3l0.1-2.6
			c1,0.2,1.9,0.3,2.7,0.3c2.3,0,3.5-0.8,3.5-2.3c0-0.9-0.2-1.6-0.7-2.1c-0.5-0.5-1.1-0.8-1.9-0.8c-0.2,0-0.4,0-0.6,0
			c0.4,0.7,0.8,1.3,1.1,1.9l-2.7,1.1c-0.3-0.7-0.8-1.5-1.3-2.4c-1.2,0.3-2.6,0.6-4.1,1.1C539.1,121.7,540,125.5,540.9,129.2z"/>
		<path class="st0" d="M572.3,115.6h-6.1v3.9c0.4,0.8,0.6,1.8,0.6,3.1c0,2.1-0.7,3.7-2.2,5c-1.5,1.3-3.4,2-5.8,2.1l-0.7-2.5
			c3-0.2,4.9-1.3,5.7-3.2c-0.8,0.6-1.7,0.8-2.7,0.8c-1.2,0-2.2-0.4-3-1.1c-0.8-0.7-1.2-1.6-1.2-2.8c0-1.3,0.4-2.3,1.3-3.1
			s1.9-1.2,3.2-1.2c0.6,0,1.2,0.1,1.8,0.3v-1.4h-10v-2.4h10v-2.1h3v2.1h6.1V115.6z M563.3,120.2l0-0.6c-0.3-0.5-0.9-0.7-1.8-0.7
			c-0.5,0-0.9,0.2-1.2,0.6c-0.4,0.4-0.6,0.8-0.6,1.3c0,0.5,0.1,0.9,0.4,1.2s0.6,0.5,1.1,0.5c0.7,0,1.2-0.2,1.6-0.6
			C563.1,121.4,563.3,120.9,563.3,120.2z"/>
		<path d="M590.4,128.4l-1.3,1.3c-2.1-2-4.4-3.8-7-5.5c-0.5-0.3-1.2-0.7-2.1-1.3c-0.9-0.6-1.5-1-1.7-1.2c-0.2-0.2-0.4-0.4-0.6-0.7
			c-0.1-0.3-0.2-0.5-0.2-0.8c0-0.6,0.4-1.3,1.3-1.9c2.4-1.6,4.3-2.8,5.5-3.7s2.4-1.9,3.6-3l1.3,1.1c-2.4,2.1-5.3,4.1-8.6,6.2
			c-0.6,0.4-1,0.6-1.2,0.7c-0.2,0.1-0.2,0.3-0.2,0.5c0,0.2,0,0.3,0.1,0.4c0.1,0.1,0.5,0.4,1.2,0.9c2.7,1.8,4.8,3.2,6.1,4.1
			S589.3,127.4,590.4,128.4z"/>
		<path d="M600.9,128.6l-1.4,0.9c-0.9-1.5-2-2.9-3.2-4.4l1.2-0.8C599,126.1,600.2,127.5,600.9,128.6z"/>
		<path d="M621,114.6v-1.2h-4.4v-1.1h4.4v-1.2h1.5v1.2h3.5v1.1h-3.5v1.2h3.9v5.6h-3.8v1.4h4.8v1.2h-6.2c0,0.5-0.1,1-0.2,1.4h4.8v1.5
			c0,0.5-0.1,1.1-0.2,1.8c-0.1,0.7-0.4,1.2-0.8,1.6c-0.4,0.3-1,0.5-1.7,0.5H621l-0.2-1.3c0.4,0,0.8,0,1.1,0l0.6,0h0.1
			c0.4,0,0.8-0.1,1-0.2c0.3-0.2,0.5-0.5,0.6-1.2c0.1-0.6,0.1-1.2,0.1-1.6h-3.6c-0.6,2-1.9,3.4-3.8,4.4l-0.8-0.9
			c1.1-0.8,2-1.6,2.5-2.5s0.9-2.1,0.9-3.5h-3.3v-1.2h4.7v-1.4h-3.9v-5.6H621z M618.6,116.9h2.4v-1.4h-2.4V116.9z M621,117.8h-2.4
			v1.5h2.4V117.8z M622.6,116.9h2.4v-1.4h-2.4V116.9z M625,117.8h-2.4v1.5h2.4V117.8z M627.1,113.7c-0.6-0.9-1.2-1.6-1.7-2.1
			l1.1-0.6c0.5,0.6,1.1,1.2,1.7,2.1L627.1,113.7z M631.7,125.8c-1.4,1.7-3,3.1-4.8,4l-0.7-1c1.9-1.1,3.5-2.6,4.7-4.3
			c-1.1-2-1.9-4.1-2.2-6.4c-0.2,0.4-0.5,0.8-0.9,1.3l-1-0.7c1.5-2.5,2.4-5,2.9-7.6l1.6,0.2c-0.4,1.7-0.7,2.9-1,3.6h5.8v1.3h-1.2
			c0,3.1-0.7,5.9-2.2,8.4c1.1,1.6,2.3,3,3.7,4.1l-1.1,1.1C634,128.7,632.8,127.4,631.7,125.8z M631.7,123c1.1-2.1,1.6-4.3,1.6-6.7
			v-0.1h-3.6C629.9,118.6,630.6,120.8,631.7,123z"/>
		<path d="M637.5,126.4l-0.3-1.4c0.8-0.1,1.7-0.3,2.6-0.5v-7.6h-2.1v-1.3h2.1v-4.3h1.5v4.3h1.8v1.3h-1.8v7.3
			c1.1-0.2,1.9-0.5,2.4-0.6l0.1,1.2C642.6,125.2,640.5,125.8,637.5,126.4z M644.8,118.4l-1.7,0.5l-0.3-1.3l2-0.5v-5h1.6v4.6l3.1-0.9
			v-4.7h1.6v4.2l4.4-1.2l0.5,0.3v7.8c0,0.6-0.2,1-0.5,1.4c-0.4,0.3-0.9,0.5-1.5,0.5h-1.7l-0.2-1.3h1.5c0.6,0,1-0.3,1-0.9v-6.3
			l-3.3,1v9.2h-1.6V117l-3.1,0.9v9c0,0.5,0.2,0.9,0.7,1c0.4,0.2,1.6,0.3,3.6,0.3c0.9,0,1.8,0,2.7-0.1c0.9-0.1,1.5-0.1,1.7-0.2
			s0.4-0.2,0.5-0.3c0.1-0.2,0.2-0.5,0.3-1s0.1-1.1,0.1-1.8l1.4,0.1v2.5c0,0.3-0.1,0.6-0.3,0.9s-0.4,0.5-0.8,0.6
			c-0.3,0.2-0.7,0.2-1,0.3s-0.9,0.1-1.8,0.1c-0.8,0-1.7,0.1-2.6,0.1c-0.5,0-1.2,0-2.2,0c-1,0-1.7-0.1-2.2-0.2
			c-0.5-0.1-0.9-0.3-1.2-0.7c-0.3-0.4-0.4-0.8-0.4-1.3V118.4z"/>
		<path d="M678.2,119.4c-1.5-0.6-3.2-1.6-5-3c-1.8-1.4-3.3-2.8-4.5-4.2c-1.2,1.6-2.7,3.1-4.5,4.4c-1.8,1.3-3.5,2.3-5,3l-0.7-1.1
			c1.7-0.8,3.5-1.9,5.2-3.2s3-2.7,3.9-4h2.3c1.1,1.4,2.6,2.8,4.3,4.1s3.5,2.2,5,2.8L678.2,119.4z M659.5,129.4v-1.3h8.3v-4.3h-7
			v-1.3h7v-3.8h-4.6v-1.2h10.9v1.2h-4.7v3.8h7.1v1.3h-7.1v4.3h8.6v1.3H659.5z"/>
		<path d="M686.8,111.4c-0.4,1.5-1.3,3.5-2.7,6.1h0.6v12.4H683v-10.6c-0.7,1.2-1.5,2.2-2.3,3.1l-1-0.8c1.2-1.5,2.4-3.3,3.4-5.5
			c1-2.1,1.7-3.8,2-5L686.8,111.4z M700.4,125.3l-1,1.2c-1.1-0.9-2.1-2.1-3.2-3.5c-1.1-1.4-2-2.8-2.7-4v5.5h2.7v1.2h-2.7v4.1h-1.5
			v-4.1h-3v-1.2h3v-5.4c-2.1,3.4-4.1,5.9-6.2,7.5l-0.9-0.9c0.9-0.8,2-2,3.4-3.7c1.3-1.7,2.4-3.4,3.1-5.1h-5.4v-1.3h5.9v-4.3h1.6v4.3
			h6.2v1.3h-5.9c0.3,0.7,1.1,2,2.3,3.8C697.4,122.4,698.8,123.9,700.4,125.3z"/>
		<path d="M34.4,155.9h-1.5v-3.4c0-0.4,0-0.7,0-1c-3.1,1.6-4.7,3-4.7,4.3c0,0.6,0.4,1.2,1.1,1.5c0.7,0.4,2.2,0.6,4.4,0.6
			c2.7,0,4.8-0.1,6.4-0.4l0.1,1.5c-1.6,0.2-3.5,0.3-5.6,0.3c-3.3,0-5.4-0.3-6.4-0.9s-1.5-1.4-1.5-2.5c0-1,0.4-1.9,1.3-2.8
			c0.9-0.9,2.4-1.9,4.6-3c-0.3-0.6-0.8-0.9-1.5-0.9c-0.8,0-1.7,0.1-2.7,0.4c-0.9,0.3-2.1,1-3.5,2.2l-1.7,1.4l-0.9-1
			c2.5-1.9,4.4-4.2,5.6-6.7h-4.8v-1.3h5.3c0.3-0.8,0.6-1.6,0.7-2.5l1.7,0.1c-0.2,0.8-0.4,1.6-0.7,2.3h7.6v1.3h-8.2
			c-0.4,0.8-1,1.8-2,3.1l0.2,0.1c0.3-0.2,0.8-0.3,1.6-0.5s1.4-0.2,1.8-0.2c1.3,0,2.2,0.5,2.7,1.5l6-2.3l0.7,1.4
			c-1.4,0.5-3.5,1.2-6.3,2.3c0.1,0.5,0.1,1.2,0.1,1.9V155.9z"/>
		<path d="M58.9,155.1H49v4.7h-1.6v-10.7c-1.2,1.6-2.5,3-3.9,4l-0.9-1c1-0.9,2-1.9,3-3s1.9-2.6,2.8-4.4h-5.1v-1.2H49
			c0.4-0.8,0.6-1.7,0.8-2.4l1.7,0.2c-0.2,0.7-0.5,1.5-0.8,2.2h11.7v1.2H50.1c-0.4,0.8-0.8,1.6-1.3,2.3h11.7v10.9
			c0,0.4-0.2,0.8-0.6,1.1s-0.8,0.5-1.3,0.5h-3.1l-0.2-1.5H58c0.6,0,0.9-0.3,0.9-0.8V155.1z M58.9,150.5v-2.2H49v2.2H58.9z M49,153.9
			h9.9v-2.3H49V153.9z"/>
		<path d="M65,150.6l-1-0.8c0.6-0.5,1.2-1.1,1.9-1.9c0.7-0.8,1.2-1.5,1.5-2.1l1.4,0.5c-0.4,0.7-1,1.5-1.7,2.3
			C66.3,149.4,65.6,150.1,65,150.6z M70.1,154.8c-1.6,2.1-3.3,3.8-5.1,5l-0.9-0.9c1.6-1.1,3.2-2.9,5-5.2c-1.2-1.3-2.1-2.2-2.6-2.6
			l1.1-0.9c0.4,0.4,1.2,1.1,2.3,2.2c0.6-1,1.1-2,1.4-3l1.5,0.4c-0.4,1.2-1,2.5-1.8,3.7c1.1,1.1,1.8,1.9,2.2,2.4l-1.2,1
			C71.6,156.4,71,155.7,70.1,154.8z M64.6,144.8v-1.2h4.5v-2.4h1.6v2.4h4.2v1.2H64.6z M74.3,149.9c-0.4-0.3-1-0.9-1.7-1.7
			c-0.7-0.8-1.3-1.5-1.7-2l1.2-0.6c1.2,1.5,2.3,2.6,3.3,3.3L74.3,149.9z M77.5,159.4l-0.2-1.4h1.9c1,0,1.6-0.4,1.9-1.3
			s0.4-2.9,0.4-5.9l0-4.3H79c0,3-0.6,5.6-1.7,7.9s-2.5,4.1-4.3,5.5l-1.1-0.9c3.6-3,5.4-7.1,5.5-12.4h-2.1v-1.3h2.1v-4.1h1.6v4.1h4
			v1.3l0,3.1c0,1.6,0,3.1-0.1,4.6s-0.2,2.5-0.4,3.3c-0.1,0.4-0.2,0.7-0.4,1s-0.4,0.5-0.7,0.7s-0.6,0.3-0.9,0.4
			C80.4,159.4,79.4,159.4,77.5,159.4z"/>
		<path d="M88.8,150.1c-0.7-0.7-1.8-1.6-3.3-2.7l1-1.2c1.3,0.9,2.4,1.7,3.3,2.6L88.8,150.1z M87.2,159.2l-1.4-0.9
			c0.6-0.7,1.2-1.8,2-3.1c0.7-1.4,1.3-2.6,1.7-3.5l1.4,0.5c-0.3,0.9-0.8,2-1.5,3.4C88.6,157,87.8,158.2,87.2,159.2z M90,145.3
			c-1.3-1.1-2.4-2-3.4-2.8l1.1-1.1c0.8,0.6,2,1.5,3.4,2.6L90,145.3z M102,158.8h-8.3v0.8h-1.6v-8.3H97v-3.3h-6.1v-1.3H97v-3.2
			c-1.6,0.2-3.3,0.3-5,0.4l-0.2-1.3c4.9-0.2,8.7-0.7,11.4-1.4l0.8,1.2c-1.2,0.3-3,0.7-5.3,0.9v3.3h6.2v1.3h-6.2v3.3h4.9v8.2H102
			V158.8z M93.7,157.5l8.3,0v-4.9h-8.3V157.5z"/>
		<path d="M123.4,153.2h-5.8v6.4h-1.6v-6.4h-5.7c-0.3,2.6-1.3,4.9-2.7,6.7l-1.1-0.7c0.9-1.2,1.5-2.6,1.9-4c0.4-1.5,0.6-3.1,0.6-4.9
			V142H125v16c0,0.4-0.2,0.8-0.6,1.1c-0.4,0.3-0.8,0.5-1.3,0.5h-2.8l-0.2-1.5h2.3c0.6,0,1-0.3,1-0.8V153.2z M110.5,151.9h5.6v-3.8
			h-5.5v1.7C110.6,150,110.5,150.7,110.5,151.9z M116.1,143.2h-5.5v3.6h5.5V143.2z M123.4,146.9v-3.6h-5.8v3.6H123.4z M117.7,151.9
			h5.8v-3.8h-5.8V151.9z"/>
		<path d="M146.3,145.1h-5.1c-1.3,0.5-2.5,1.5-3.7,2.9c-1.2,1.4-1.8,2.9-1.8,4.4c0,1.2,0.3,2.2,0.9,3c0.6,0.8,1.5,1.4,2.5,1.7
			c1.1,0.4,2.4,0.5,4.2,0.5c0.4,0,0.8,0,1.2,0l-0.1,1.5h-0.1c-1.3,0-2.3,0-3.1-0.1c-0.8,0-1.7-0.2-2.6-0.5c-0.9-0.3-1.7-0.7-2.4-1.3
			s-1.2-1.3-1.6-2.1s-0.5-1.7-0.5-2.6c0-1.4,0.4-2.7,1.3-4.1c0.8-1.4,1.9-2.5,3.3-3.4h-10.3v-1.4h17.9V145.1z M143.8,149.5l-1.2,0.5
			c-0.5-1.1-1-2.1-1.5-2.9l1.1-0.5C142.8,147.6,143.3,148.5,143.8,149.5z M146.8,148.9l-1.2,0.5c-0.5-1.1-0.9-2-1.5-2.8l1.1-0.5
			C145.7,146.7,146.2,147.7,146.8,148.9z"/>
		<path d="M165.6,153.4l-1.1,1.1c-0.7-0.5-1.7-0.9-2.8-1.2c-1.1-0.3-2.1-0.4-3.2-0.4c-2.2,0-3.7,0.2-4.5,0.7
			c-0.8,0.5-1.1,1.1-1.1,1.9c0,0.7,0.4,1.3,1.3,1.7s2.6,0.6,5.2,0.6c2.3,0,4.3-0.1,6-0.4l0,1.5c-1.5,0.3-3.6,0.4-6.1,0.4
			c-2.9,0-5-0.3-6.2-0.9c-1.2-0.6-1.8-1.6-1.8-2.8c0-1.3,0.6-2.3,1.7-2.9c1.2-0.7,2.7-1,4.7-1c2.1,0,3.9,0.3,5.5,0.9
			c-0.7-0.9-1.3-1.9-1.9-3h-10.6v-1.3h10c-0.4-0.8-0.7-1.7-0.9-2.5h-8.5v-1.3h8c-0.2-0.9-0.4-1.7-0.5-2.6l1.6-0.1
			c0.2,1.2,0.4,2.1,0.5,2.7h5.9v1.3h-5.6c0.2,0.6,0.5,1.4,0.9,2.5h5.6v1.3h-5C163.5,150.6,164.4,151.9,165.6,153.4z"/>
		<path d="M183.2,157.7c2.6-0.6,3.8-1.9,3.8-4c0-1.3-0.5-2.2-1.4-2.9s-2.2-1-3.8-1c-1.1,0-2.1,0.1-3.2,0.4s-2.2,0.8-3.5,1.7
			s-2.3,1.5-2.8,1.9l-0.8-1.3c4.2-2.7,8.2-5.5,12.2-8.5l-10.4,0v-1.4h12.5l0.7,1l-7.2,5l0.1,0.1c0.8-0.3,1.7-0.4,2.5-0.4
			c2,0,3.6,0.5,4.8,1.4c1.3,0.9,1.9,2.1,1.9,3.7c0,1.9-0.8,3.3-2.3,4.3c-1.5,1-3.6,1.5-6.2,1.5c-3.6,0-5.4-1-5.4-2.9
			c0-0.8,0.4-1.4,1.1-1.9s1.5-0.8,2.4-0.8c1.2,0,2.3,0.3,3.2,1S183,156.5,183.2,157.7z M181.7,158c-0.4-2-1.5-2.9-3.2-2.9
			c-0.6,0-1.1,0.1-1.5,0.4c-0.4,0.3-0.7,0.6-0.7,1.1c0,1,1.2,1.6,3.6,1.6C180.5,158.1,181,158.1,181.7,158z"/>
		<path d="M205,159.8l-0.2-1.4h2.2c0.4,0,0.8-0.1,1.1-0.3c0.3-0.2,0.5-0.8,0.7-1.6s0.2-1.9,0.2-3.1v-0.4h-12.5
			c-1.3,1.9-2.7,3.5-4.2,4.7l-0.9-1c3-2.7,5.5-6.6,7.5-11.7h-6.2v-1.3h3.1l-1.3-2.2l1.5-0.5l1.5,2.7h1.9c0.2-0.6,0.4-1.6,0.6-2.9
			l1.7,0.1c-0.2,1.2-0.4,2.1-0.6,2.7h7.4l-0.6,3.9h1.7l-0.5,3.9h1.6c0,1.9,0,3,0,3.3c-0.1,0.9-0.2,1.7-0.3,2.4
			c-0.2,0.7-0.3,1.2-0.5,1.5c-0.2,0.3-0.4,0.5-0.6,0.6s-0.5,0.3-0.8,0.3c-0.3,0.1-1,0.1-2.1,0.1C205.5,159.8,205,159.8,205,159.8z
			 M196.3,159.3l-1.5-0.5c0.7-1.2,1.2-2.6,1.6-4.3l1.5,0.2C197.6,156.3,197.1,157.8,196.3,159.3z M197.4,151.5h10l0.4-2.6h-9
			C198.4,149.8,197.9,150.7,197.4,151.5z M199.6,158.6c0-0.2-0.3-1.5-0.7-3.9l1.5-0.3c0.2,1.1,0.5,2.3,0.8,3.8L199.6,158.6z
			 M200.6,145c-0.3,0.8-0.7,1.7-1.1,2.6h6.8l0.4-2.6H200.6z M203.1,157.8c0-0.2-0.4-1.3-1-3.3l1.4-0.3c0.6,1.8,1,2.9,1.1,3.3
			L203.1,157.8z M206,156.5c-0.1-0.3-0.4-1.1-1.1-2.6l1.2-0.4c0.5,0.9,0.9,1.8,1.2,2.6L206,156.5z"/>
		<path d="M218.4,158.6l-1.4,0.9c-0.9-1.5-2-2.9-3.2-4.4l1.2-0.8C216.5,156.1,217.6,157.5,218.4,158.6z"/>
		<path class="st0" d="M243.2,158.5l0.7-2.4c1,0.5,1.9,0.7,2.8,0.7c1,0,1.8-0.2,2.4-0.7c0.6-0.5,0.9-1.1,0.9-2c0-1-0.4-1.8-1.2-2.3
			c-0.8-0.5-2-0.8-3.4-0.8c-0.9,0-1.9,0.1-2.9,0.3v5.6c0,0.8-0.3,1.4-1,1.9c-0.7,0.5-1.5,0.7-2.5,0.7c-1.3,0-2.5-0.4-3.4-1.2
			s-1.4-1.8-1.4-3c0-1.2,0.5-2.3,1.4-3.3c1-1,2.3-1.8,3.9-2.4v-2.6h-4.8v-2.4h4.8v-3.3h3v3.3h5v2.4h-5v1.8c0.9-0.2,1.9-0.2,2.9-0.2
			c2.3,0,4.2,0.5,5.6,1.4c1.4,0.9,2.1,2.3,2.1,4c0,1.7-0.5,3-1.6,4c-1.1,1-2.5,1.5-4.3,1.5C245.6,159.5,244.3,159.2,243.2,158.5z
			 M239.4,152.3c-1.8,0.8-2.6,1.9-2.6,3c0,0.5,0.2,0.9,0.6,1.2c0.4,0.3,0.9,0.5,1.4,0.5c0.4,0,0.6-0.2,0.6-0.6V152.3z M253.8,146.8
			l-2.2,1.7c-0.5-0.6-1.4-1.5-2.7-2.7c-1.3-1.2-2.2-2-2.9-2.5l1.8-1.8c0.9,0.5,1.9,1.3,3.1,2.3C252,144.9,253,145.9,253.8,146.8z"/>
		<path class="st0" d="M274.6,144.6h-15.8v3.3c0,2.4-0.2,4.8-0.7,7c-0.5,2.2-1,3.7-1.7,4.6l-2-1.2c0.3-0.5,0.6-1.4,1-2.7
			c0.3-1.3,0.6-2.5,0.7-3.6c0.1-1.1,0.2-2.3,0.2-3.7v-5.8h7.7V141h2.8v1.5h7.8V144.6z M264.6,149.9c0,2.3-0.5,4.3-1.4,5.9
			c0.5,0.3,1,0.6,1.6,0.8c0.6,0.2,1.3,0.3,2,0.4c0.7,0.1,2,0.1,3.8,0.1c1.8,0,3.2,0,4.2-0.1l-0.5,2.2c-3.7,0-6,0-7-0.1
			c-1-0.1-2-0.2-2.8-0.5s-1.6-0.7-2.3-1.2c-0.8,0.8-1.7,1.6-2.7,2.1l-1.2-1.6c1-0.6,1.8-1.3,2.4-2.1c-0.6-0.8-1.1-1.8-1.5-2.8
			l1.7-0.8c0.2,0.7,0.5,1.3,0.9,1.8c0.3-0.8,0.5-1.6,0.6-2.4h-2.5l-0.4-0.5l2-3.6h-2v-1.9h4.8l0.4,0.5l-2.1,3.7H264.6z M273.5,155.9
			h-8.1v-2h2.8v-2.4h-3.1v-2h3.1v-1.7c-0.8,0.1-1.8,0.1-2.8,0.2l-0.4-2c2.7-0.1,5.2-0.4,7.6-1.1l1.2,2c-0.7,0.2-1.6,0.5-2.8,0.6v2
			h3.1v2h-3.1v2.4h2.6V155.9z"/>
		<path class="st0" d="M285.5,159.2l-3,0.5c-0.8-3.5-1.8-7.2-2.8-11.1l-3.1,0.9l-0.7-2.6l3.1-0.8c-0.4-1.7-0.9-3.1-1.2-4.5l3-0.6
			l1.2,4.3c1.3-0.3,2.4-0.6,3.3-0.8c-0.5-0.6-1-1.4-1.8-2.3l2.4-1.2c0.6,0.7,1.4,1.7,2.3,2.9c0.9-0.2,1.7-0.2,2.3-0.2
			c1.6,0,3,0.5,4,1.4c1,1,1.5,2.2,1.5,3.8c0,1.6-0.6,2.8-1.7,3.7s-2.6,1.3-4.5,1.3c-0.9,0-2-0.1-3.1-0.3l0.1-2.6
			c1,0.2,1.9,0.3,2.7,0.3c2.3,0,3.5-0.8,3.5-2.3c0-0.9-0.2-1.6-0.7-2.1c-0.5-0.5-1.1-0.8-1.9-0.8c-0.2,0-0.4,0-0.6,0
			c0.4,0.7,0.8,1.3,1.1,1.9l-2.7,1.1c-0.3-0.7-0.8-1.5-1.3-2.4c-1.2,0.3-2.6,0.6-4.1,1.1C283.6,151.7,284.6,155.5,285.5,159.2z"/>
		<path class="st0" d="M299.4,153.5c0,0.7-0.1,1.6-0.2,3c-0.2,1.3-0.3,2.2-0.5,2.8l-1.4-0.6c0.2-0.5,0.3-1.3,0.5-2.4s0.2-2,0.2-2.8
			L299.4,153.5z M306.5,150.7c0,3.7-0.2,6.1-0.5,7.2c-0.3,1.1-1.2,1.7-2.5,1.7h-1.9l-0.3-2h1.7c0.4,0,0.6-0.1,0.8-0.4
			c0.2-0.3,0.3-0.6,0.3-1.1c0-0.4,0.1-1.7,0.1-3.7h-3.7v0.3h-2.3v-11.2h8.3v1.8h-2.3v1.2h1.9v1.7h-1.9v1.3h1.9v1.7h-1.9v1.3H306.5z
			 M301.2,157.5l-1,0.2l-0.2-4.2l1-0.2L301.2,157.5z M302,143.5h-1.3v1.2h1.3V143.5z M300.7,146.4v1.3h1.3v-1.3H300.7z M300.7,149.4
			v1.3h1.3v-1.3H300.7z M302.9,156.7l-0.9,0.2l-0.5-3.7l0.8-0.2L302.9,156.7z M304.1,155.5l-0.8,0.3l-0.5-3l0.7-0.2L304.1,155.5z
			 M317.4,159.1h-11v-2.5h4v-3.9H307v-2.4h3.4v-3.3h-3.5v-2.3h4.2c-0.6-0.7-1.4-1.5-2.3-2.4l2.1-1.5c0.9,0.8,2,1.9,3.4,3.4l-0.7,0.5
			h3.4v2.3h-3.7v3.3h3.2v2.4h-3.2v3.9h4.1V159.1z"/>
		<path class="st0" d="M338.1,157.3H330v2.3h-2.9v-2.3h-8v-2.2h8v-1.2h-6.6v-8.3h6.6v-1.1h-7.6v-2.1h7.6v-1.3h2.9v1.3h7.8v2.1H330
			v1.1h6.6v8.3H330v1.2h8.2V157.3z M323.3,148.8h3.9v-1.3l-3.9,0V148.8z M327.1,150.6h-3.9v1.4h3.9V150.6z M330,148.8h3.8v-1.3
			l-3.8,0V148.8z M333.8,150.6H330v1.4h3.8V150.6z"/>
		<path class="st0" d="M345.3,154.9c-1.2,0.4-2.9,1-5.2,1.6l-0.5-2.5c0.7-0.1,1.5-0.3,2.3-0.5v-6H340v-2.1h1.8v-4.3h2.7v4.3h1.5v2.1
			h-1.5v5.3c0.6-0.2,1.1-0.3,1.5-0.5l0,0.7c0.8-0.8,1.5-1.5,1.9-2.1h-1.9v-2h13.7v2h-8.9c-0.2,0.3-0.4,0.6-0.6,0.9h8.9
			c0,1.7,0,2.9,0,3.5s-0.1,1.3-0.3,2.1c-0.2,0.8-0.5,1.3-1,1.6s-1.1,0.5-1.8,0.5h-2l-0.3-2.2h1.4c0.3,0,0.5-0.1,0.8-0.2
			s0.4-0.5,0.5-1.2c0.1-0.6,0.1-1.4,0.1-2.3h-0.3c-1.2,2.4-3,4.3-5.5,5.9l-1.5-1.4c1.9-1.4,3.3-2.9,4.4-4.5h-1.2
			c-0.7,1.1-1.6,2.1-2.8,3.2s-2.3,1.9-3.4,2.4l-1.3-1.6c1.9-1.1,3.4-2.4,4.8-4h-1.1c-0.8,0.8-1.7,1.5-2.6,2.1L345.3,154.9z
			 M358.5,148h-11.1v-6.7h11.1V148z M355.9,144v-1H350v1H355.9z M355.9,146.3v-1H350v1H355.9z"/>
		<path class="st0" d="M370.6,159.4l-0.8-2.6c2.7-0.3,4.8-0.9,6.1-1.9s2.1-2.4,2.1-4.3c0-1.6-0.5-2.8-1.5-3.8c-1-1-2.3-1.5-4.1-1.7
			c-0.1,3.8-0.9,6.9-2.1,9.3c-1.3,2.4-2.9,3.6-4.9,3.6c-1.3,0-2.3-0.6-3.1-1.8c-0.8-1.2-1.2-2.6-1.2-4.1V152c0-2.4,1-4.5,2.9-6.3
			c1.9-1.8,4.3-2.8,7.2-2.9h0.4c2.8,0,5,0.7,6.8,2.1c1.8,1.4,2.7,3.3,2.7,5.7c0,2.6-0.9,4.7-2.7,6.2
			C376.7,158.3,374,159.2,370.6,159.4z M369.6,145.6c-1.5,0.4-2.8,1.2-3.9,2.4c-1.1,1.3-1.6,2.6-1.6,4.1c0,0.8,0.1,1.5,0.4,2.2
			s0.6,1,1.1,1c1,0,1.8-0.9,2.6-2.8C369,150.6,369.4,148.3,369.6,145.6z"/>
		<path class="st0" d="M402.5,157.4l-2.3,2.2c-1.2-1.3-3.5-3.5-7-6.4c-3,2.9-6.2,5.1-9.6,6.5l-1.5-2.4c2.6-1.1,5.2-2.8,7.6-4.9
			c2.5-2.2,4.3-4.6,5.5-7.2l-10.4,0v-2.7h13.5l0.8,0.8c-0.5,1.7-1.1,3.2-1.7,4.3c-0.6,1.1-1.4,2.3-2.4,3.5
			C398,153.4,400.5,155.6,402.5,157.4z"/>
		<path class="st0" d="M424.1,155.5l-1.9,3.1c-2.3-2.5-4.1-4.5-5.5-5.9s-2.3-2.5-2.9-3.1c-0.5-0.6-1.2-1.4-2.1-2.3c0,0-0.1,0-0.1,0
			c0,0-0.1,0-0.1,0s-0.3,0.4-0.8,1.1s-1.2,1.7-2,2.8l-3.2,4.6l-2.3-2.1c3.5-5,5.5-7.9,6-8.5s1.3-0.9,2.2-0.9c0.4,0,0.7,0.1,1.1,0.2
			c0.3,0.1,0.6,0.3,0.9,0.5c0.2,0.2,0.8,0.8,1.8,1.7l3.4,3.4C419.9,151.3,421.7,153.1,424.1,155.5z M421.7,145
			c0,0.6-0.2,1.2-0.7,1.6s-1,0.6-1.7,0.6s-1.2-0.2-1.7-0.6s-0.7-0.9-0.7-1.6s0.2-1.2,0.7-1.6c0.4-0.4,1-0.6,1.7-0.6s1.2,0.2,1.7,0.6
			C421.5,143.9,421.7,144.4,421.7,145z M420.3,144.1c-0.2-0.3-0.6-0.4-0.9-0.4s-0.7,0.1-0.9,0.4c-0.2,0.3-0.4,0.6-0.4,0.9
			s0.1,0.7,0.4,0.9c0.2,0.3,0.6,0.4,0.9,0.4s0.7-0.1,0.9-0.4s0.4-0.6,0.4-0.9S420.6,144.3,420.3,144.1z"/>
		<path class="st0" d="M444.4,152.1h-18.8v-2.7h18.8V152.1z"/>
		<path class="st0" d="M466.3,157.4l-2.3,2.2c-1.2-1.3-3.5-3.5-7-6.4c-3,2.9-6.2,5.1-9.6,6.5l-1.5-2.4c2.6-1.1,5.2-2.8,7.6-4.9
			s4.3-4.6,5.5-7.2l-10.4,0v-2.7h13.5l0.8,0.8c-0.5,1.7-1.1,3.2-1.7,4.3c-0.6,1.1-1.4,2.3-2.4,3.5
			C461.8,153.4,464.3,155.6,466.3,157.4z"/>
		<path class="st0" d="M481,156.1h-2.9l0-4c-2.4,1.2-3.7,2.3-3.7,3.4c0,1,1.2,1.5,3.5,1.5l1.1,0c3.1,0,5.5-0.1,7-0.3l0.1,2.6
			c-1.9,0.2-3.8,0.3-5.7,0.3c-3.5,0-5.9-0.3-7.1-0.9c-1.2-0.6-1.8-1.5-1.8-2.8c0-2.1,2-4.1,6-6.1c-0.2-0.2-0.4-0.3-0.8-0.3
			c-0.6,0-1.4,0.2-2.4,0.7s-2,1.2-3.2,2.3c-0.8,0.7-1.4,1.2-1.8,1.5l-1.8-1.9c2.4-1.8,4.2-3.7,5.4-5.9h-4.4v-2.4h5.4
			c0.3-0.8,0.5-1.6,0.6-2.3l3,0.2c-0.2,0.8-0.4,1.6-0.6,2.2h6.8v2.4h-7.8c-0.2,0.4-0.5,0.9-1,1.6c0.7-0.2,1.3-0.3,2-0.3
			c1.4,0,2.4,0.4,3,1.3c0.9-0.4,2.8-1.1,5.6-2.3l1.2,2.4c-1.3,0.5-3.4,1.2-6,2.2c0.1,0.5,0.1,1.1,0.1,1.7L481,156.1z"/>
		<path class="st0" d="M496,157.3h-3.3v1.2h-2.2v-5.9c-0.2,0.3-0.4,0.7-0.6,1l-1.5-1.4c1.5-2.4,2.5-5.2,2.9-8.3H489v-2.1h7v2.1h-2.2
			c-0.1,1.1-0.4,2.2-0.6,3.2h2.9v3c1.8-1.7,3-3.5,3.7-5.5h-1.1v1.9h-2.3v-3.9h3.9c0.1-0.6,0.2-1.1,0.2-1.8l2.7,0.2
			c-0.1,0.6-0.2,1.2-0.2,1.6h5.5v3.9h-2.2v-1.9h-3.8c-0.3,0.9-0.7,1.8-1.2,2.6h1.5c0.2-0.7,0.5-1.4,0.7-2.2l2.6,0.4l-0.8,1.8h3.4
			v2.1h-3.5v1.2h2.8v1.7h-2.8v1.3h2.8v1.8h-2.8v1.4h3.5v2.1h-8.1v0.7h-2.6v-8.1c-0.3,0.3-0.6,0.5-0.9,0.8l-1-1.4V157.3z
			 M493.8,155.3v-6.2h-1.1v6.2H493.8z M502.5,149.3h-2v1.2h2V149.3z M500.5,153.6h2v-1.3h-2V153.6z M500.5,156.7h2v-1.4h-2V156.7z"
			/>
		<path class="st0" d="M515.4,159.6h-2.8v-8.5c-0.3,0.4-0.7,1-1.2,1.8l-1.9-1.5c0.8-1.3,1.7-2.9,2.5-4.9s1.4-3.9,1.7-5.6l2.8,0.3
			c-0.4,1.9-1,3.9-1.9,5.9h0.7v9.6c1.8-1.2,3.3-2.7,4.5-4.4h-4v-2.2h5.3v-1.6h-4.4v-7h11.8v7H524v1.6h5.6v2.2h-4.5
			c1.5,1.8,3.3,3.3,5.3,4.5l-1.6,2.2c-1.7-1-3.3-2.4-4.8-4.2v4.7h-2.8v-4.5c-1.2,1.5-2.7,2.8-4.6,4l-1.2-1.6V159.6z M525.8,146.4
			v-2.8h-6.3v2.8H525.8z"/>
		<path class="st0" d="M550.4,150.8c-0.9,3.1-2.1,5.4-3.7,6.7s-3.6,2.1-6.1,2.1c-1.1,0-2-0.1-2.8-0.4c-0.8-0.3-1.5-0.7-2-1.1
			s-0.9-1-1.2-1.5c-0.3-0.6-0.5-1.1-0.5-1.8c-0.1-0.6-0.1-1.6-0.1-2.9c0-1.4,0.1-4.8,0.4-10.1h3.1c-0.3,4.7-0.4,8-0.4,9.9
			c0,1.5,0,2.5,0.1,2.9c0.1,0.4,0.3,0.8,0.5,1.2s0.7,0.7,1.2,0.9s1.1,0.3,1.9,0.3c1.7,0,3-0.6,4.1-1.7s2-2.9,2.6-5.4L550.4,150.8z"
			/>
		<path class="st0" d="M561.9,159.2l-3,0.5c-0.8-3.5-1.8-7.2-2.8-11.1l-3.1,0.9l-0.7-2.6l3.1-0.8c-0.4-1.7-0.9-3.1-1.2-4.5l3-0.6
			l1.2,4.3c1.3-0.3,2.4-0.6,3.3-0.8c-0.5-0.6-1-1.4-1.8-2.3l2.4-1.2c0.6,0.7,1.4,1.7,2.3,2.9c0.9-0.2,1.7-0.2,2.3-0.2
			c1.6,0,3,0.5,4,1.4c1,1,1.5,2.2,1.5,3.8c0,1.6-0.6,2.8-1.7,3.7s-2.6,1.3-4.5,1.3c-0.9,0-2-0.1-3.1-0.3l0.1-2.6
			c1,0.2,1.9,0.3,2.7,0.3c2.3,0,3.5-0.8,3.5-2.3c0-0.9-0.2-1.6-0.7-2.1c-0.5-0.5-1.1-0.8-1.9-0.8c-0.2,0-0.4,0-0.6,0
			c0.4,0.7,0.8,1.3,1.1,1.9l-2.7,1.1c-0.3-0.7-0.8-1.5-1.3-2.4c-1.2,0.3-2.6,0.6-4.1,1.1C560,151.7,561,155.5,561.9,159.2z"/>
		<path class="st0" d="M593.3,145.6h-6.1v3.9c0.4,0.8,0.6,1.8,0.6,3.1c0,2.1-0.7,3.7-2.2,5c-1.5,1.3-3.4,2-5.9,2.1l-0.7-2.5
			c3-0.2,4.9-1.3,5.7-3.2c-0.8,0.6-1.7,0.8-2.7,0.8c-1.2,0-2.2-0.4-3-1.1c-0.8-0.7-1.2-1.6-1.2-2.8c0-1.3,0.4-2.3,1.3-3.1
			c0.9-0.8,1.9-1.2,3.2-1.2c0.6,0,1.2,0.1,1.8,0.3v-1.4h-10v-2.4h10v-2.1h3v2.1h6.1V145.6z M584.2,150.2l0-0.6
			c-0.3-0.5-0.9-0.7-1.8-0.7c-0.5,0-0.9,0.2-1.2,0.6c-0.4,0.4-0.6,0.8-0.6,1.3c0,0.5,0.1,0.9,0.4,1.2c0.3,0.3,0.6,0.5,1.1,0.5
			c0.7,0,1.2-0.2,1.6-0.6C584,151.4,584.2,150.9,584.2,150.2z"/>
		<path class="st0" d="M606.1,152.6c-0.3,1-0.8,2-1.3,3.2c-0.6,1.2-1.1,2-1.6,2.6c-0.5,0.6-1.1,0.8-1.8,0.8c-1.5,0-2.7-0.9-3.8-2.7
			s-1.6-3.9-1.6-6.3c0-0.8,0.1-1.9,0.2-3.4c0.1-1.5,0.2-2.7,0.2-3.4h3.1c0,0.7-0.1,1.8-0.3,3.4c-0.2,1.5-0.3,2.6-0.3,3.4
			c0,1.6,0.3,3,0.8,4.1c0.5,1.2,1,1.8,1.3,1.8c0.5,0,1.4-1.6,2.5-4.7L606.1,152.6z M614.6,156.4l-3.1,0.2c0-2.1-0.4-4.2-1.1-6.4
			s-1.7-4-3-5.5l2.5-1.2C613,146.9,614.6,151.3,614.6,156.4z"/>
		<path d="M616.9,156.4l-0.9-1c0.9-0.8,1.9-1.9,3-3.3c1.1-1.4,1.9-2.7,2.3-3.7H617v-1.3h4.6v-3.5c-1.5,0.2-2.8,0.4-4.1,0.5l-0.3-1.3
			c1.4-0.1,3-0.3,4.8-0.6c1.8-0.3,3.2-0.6,4.1-0.9l0.7,1.2c-0.8,0.3-2,0.5-3.5,0.8v3.8h3.8v1.3h-3.8v1l0,0c0.3,0.4,0.9,1,1.7,1.7
			s1.4,1.2,2,1.5l-0.9,1.2c-1-0.7-1.9-1.6-2.8-2.6v8.4h-1.7v-8.7C620,153.4,618.4,155.2,616.9,156.4z M628.8,154.9v-12.1h1.6v12.1
			H628.8z M633,159.5h-2.6l-0.3-1.5h2.3c0.6,0,0.9-0.3,0.9-0.8v-15.9h1.7v16.5c0,0.5-0.2,0.9-0.6,1.2S633.6,159.5,633,159.5z"/>
		<path d="M639,159.8l-1.4-0.7c1-1.2,1.8-2.5,2.4-4l1.5,0.4c-0.2,0.5-0.5,1.3-1.1,2.2C639.8,158.8,639.3,159.5,639,159.8z
			 M639.8,154.2v-6.6h6.5v-6.4h1.6v2.4h8.8v1.3h-8.8v2.7h7.4v6.6H639.8z M653.6,148.7h-12.3v4.3h12.3V148.7z M644.6,159.6l-1-4
			l1.6-0.3c0.3,0.8,0.6,2.1,1.1,4L644.6,159.6z M649.7,159.5c-0.4-1.4-0.9-2.7-1.5-4l1.5-0.3c0.6,1.3,1.1,2.6,1.6,3.9L649.7,159.5z
			 M655.8,159.5c-0.5-1-1.4-2.4-2.6-4.1l1.5-0.6c1.1,1.5,1.9,2.9,2.7,4.2L655.8,159.5z"/>
		<path d="M665.3,143.7c0,0.6,0,1.3-0.1,2.1h3.9c1,0,1.7,0.3,2.3,1c0.5,0.7,0.8,1.6,0.8,2.7c0,2.8-0.3,5-0.9,6.8s-1.6,2.7-3.1,2.7
			c-0.8,0-2-0.4-3.6-1.2l0.5-1.3c0.4,0.2,0.9,0.4,1.5,0.6c0.7,0.2,1.1,0.3,1.4,0.3c0.6,0,1-0.3,1.3-0.9c0.3-0.6,0.6-1.4,0.8-2.5
			c0.2-1.1,0.3-2.4,0.3-3.9c0-1.4-0.2-2.2-0.5-2.6c-0.4-0.4-0.8-0.5-1.5-0.5h-3.6c-0.2,2.3-0.8,4.6-1.7,6.7c-0.9,2.1-2,3.9-3.3,5.4
			l-1.2-0.8c0.9-1.1,1.8-2.5,2.7-4.4c0.9-1.9,1.5-4.1,1.8-6.6h-4V146h4.2c0-0.5,0.1-1.9,0.1-4.1h1.7V143.7z M677.9,152.2l-1.6,0.4
			c-0.9-3.4-2.3-6.1-4.1-8l1.2-0.8c0.9,1,1.8,2.3,2.7,3.9C677,149.4,677.6,150.9,677.9,152.2z M676.1,143.8l-1.2,0.5
			c-0.5-1.1-1-2.1-1.5-2.9l1.1-0.5C675.1,141.9,675.6,142.9,676.1,143.8z M679,143.4l-1.2,0.5c-0.5-1.1-0.9-2-1.5-2.8l1.1-0.5
			C677.9,141.3,678.4,142.2,679,143.4z"/>
		<path d="M689.8,159.3l-0.3-1.3c2.6,0,4.6-0.4,6-1.2c1.4-0.8,2.1-1.9,2.1-3.4c0-0.9-0.3-1.7-1-2.4c-0.7-0.7-1.6-1.1-2.8-1.4
			c-0.9,2.3-2.3,4.4-4.3,6.1s-3.9,2.7-5.9,2.7c-0.9,0-1.6-0.3-2.2-0.8c-0.5-0.5-0.8-1.3-0.8-2.2c0-1.3,0.5-2.6,1.6-3.8
			c1-1.2,2.4-2.1,4-2.7c0-0.5,0-1.1,0-1.6c0-0.5,0-1.1,0-1.6h-5.1v-1.3h5.1c0.1-1,0.1-2,0.2-2.8l1.6,0c-0.1,0.7-0.2,1.6-0.3,2.7h9.5
			v1.3h-9.6c0,0.8-0.1,1.5-0.1,2.2l0,0.6c1.1-0.3,2.2-0.4,3.3-0.4c2.3,0,4.3,0.5,5.8,1.4c1.6,0.9,2.3,2.3,2.3,4
			c0,1.9-0.9,3.3-2.6,4.3c-1.7,1-3.9,1.5-6.6,1.5H689.8z M686.4,150.5c-1.1,0.5-2.1,1.3-2.9,2.2c-0.8,0.9-1.3,1.8-1.3,2.6
			c0,1.2,0.5,1.9,1.5,1.9c1.1,0,2.2-0.4,3.5-1.2C686.9,154.4,686.6,152.6,686.4,150.5z M692.3,149.4c-0.4,0-0.7-0.1-1.1-0.1
			c-1.1,0-2.3,0.2-3.4,0.5c0.1,1.8,0.3,3.5,0.7,5.1C690.1,153.6,691.4,151.7,692.3,149.4z"/>
		<path d="M28.4,189.7l-0.4-1.3c2.9-0.2,5.2-0.9,6.7-2s2.3-3,2.3-5.9c0-2-0.3-3.6-0.9-4.6c-0.6-1.1-1.4-1.6-2.5-1.6c-1,0-2,0.3-3,1
			c-1,0.6-1.9,1.7-2.6,3.2c-0.7,1.5-1.1,3.3-1.1,5.5l-1.5,0.1c-0.3-1.6-0.4-3.3-0.4-5.3c0-2.5,0.2-4.8,0.6-6.9l1.6,0.1
			c-0.5,2.5-0.7,4.8-0.8,6.8h0.1c0.5-1.9,1.4-3.3,2.8-4.4c1.3-1.1,2.7-1.6,4.2-1.6c1.6,0,2.8,0.7,3.7,2c0.9,1.3,1.4,3.2,1.4,5.7
			c0,3.2-0.9,5.5-2.6,6.8S31.8,189.5,28.4,189.7z"/>
		<path d="M61,186.9l-0.9,1.4c-1.6-1.2-3.7-2.3-6.2-3.2v1.5c0,1.8-1.6,2.6-4.9,2.6c-1.3,0-2.4-0.3-3.3-0.8c-0.9-0.6-1.4-1.3-1.4-2.3
			c0-1,0.4-1.8,1.3-2.4c0.9-0.6,2-0.9,3.2-0.9c1.3,0,2.5,0.1,3.4,0.4v-3h-7.8v-1.3h7.8v-3.1H44v-1.3h8.3v-2.2h1.6v2.2h7.6v1.3h-7.6
			v3.1h6.7v1.3h-6.7v3.4C57.1,184.8,59.4,185.9,61,186.9z M52.4,186.1v-1.4c-0.9-0.3-2-0.5-3.5-0.5c-0.8,0-1.4,0.2-2.1,0.5
			s-1,0.8-1,1.4c0,0.6,0.3,1,1,1.4c0.6,0.3,1.4,0.5,2.4,0.5c0.9,0,1.6-0.1,2-0.2c0.4-0.2,0.7-0.3,0.9-0.5
			C52.3,186.9,52.4,186.5,52.4,186.1z"/>
		<path d="M83.1,175.5h-6.5v3.9c0.5,0.8,0.7,1.9,0.7,3.3c0,1.8-0.7,3.3-2,4.5c-1.3,1.2-3,1.9-4.9,2L70,188c1.6-0.1,3-0.7,4.1-1.7
			c1.1-1,1.7-2.3,1.7-3.8c0-0.3,0-0.5,0-0.7c-0.2,0.8-0.6,1.4-1.2,1.9c-0.6,0.5-1.4,0.7-2.3,0.7c-1,0-1.8-0.3-2.5-0.9
			c-0.7-0.6-1-1.4-1-2.4c0-1.1,0.4-2,1.2-2.8c0.8-0.7,1.7-1.1,2.9-1.1c0.8,0,1.6,0.2,2.3,0.7v-2.5H64.7v-1.3H75v-2.5h1.7v2.5h6.5
			V175.5z M75,179.7c-0.4-0.8-1.2-1.2-2.4-1.2c-0.6,0-1.1,0.3-1.6,0.7c-0.5,0.5-0.7,1-0.7,1.7c0,0.7,0.2,1.2,0.6,1.6
			s0.9,0.6,1.5,0.6c0.8,0,1.5-0.3,1.9-0.8c0.5-0.5,0.7-1.2,0.8-2.1V179.7z"/>
		<path d="M85.8,186.7c0-0.7,0.3-1.4,0.8-1.9c0.5-0.5,1.2-0.8,2-0.8s1.4,0.3,2,0.8c0.5,0.5,0.8,1.2,0.8,1.9s-0.3,1.4-0.8,1.9
			c-0.5,0.5-1.2,0.8-2,0.8s-1.4-0.3-2-0.8C86.1,188,85.8,187.4,85.8,186.7z M87,186.7c0,0.4,0.2,0.8,0.5,1.1s0.7,0.5,1.1,0.5
			s0.8-0.2,1.1-0.5s0.5-0.7,0.5-1.1s-0.2-0.8-0.5-1.1s-0.7-0.5-1.1-0.5s-0.8,0.2-1.1,0.5S87,186.2,87,186.7z"/>
		<path d="M21.9,244.8l-0.6-1.4c1.2-0.6,2.6-1.4,4.2-2.6v-9.6h1.6v18.6h-1.6v-7.4C24.3,243.4,23.1,244.2,21.9,244.8z M22.9,238.7
			c-0.1-1.1-0.4-2.7-0.8-4.7l1.5-0.3c0.2,0.8,0.5,2.4,0.8,4.7L22.9,238.7z M28.7,233.6l-0.2-1.2c5.4-0.2,9.2-0.6,11.5-1.1l0.7,1.2
			c-1.1,0.2-3,0.5-5.7,0.7C32.3,233.4,30.2,233.6,28.7,233.6z M37.1,249.6h-2.8l-0.2-1.4l2.3,0c0.2,0,0.4-0.1,0.6-0.2
			c0.2-0.1,0.3-0.3,0.3-0.5v-5.1h-8.8V241h8.8v-2h1.7v2h2.3v1.2h-2.3v5.8c0,0.5-0.2,0.8-0.5,1.1S37.6,249.6,37.1,249.6z M29.8,239.2
			c-0.4-1.7-0.7-2.9-1-3.8l1.5-0.4c0.4,1.2,0.8,2.5,1,3.8L29.8,239.2z M32.2,247.3c-0.9-1.4-1.8-2.6-2.5-3.4l1.3-0.8
			c0.6,0.8,1.5,1.9,2.6,3.4L32.2,247.3z M33.6,238.2c-0.4-1.7-0.7-2.9-1-3.7l1.5-0.3c0.5,1.7,0.9,2.9,1,3.7L33.6,238.2z M37.4,239
			l-1.3-0.5c0.8-1.2,1.7-2.8,2.7-4.9l1.6,0.6C39.1,236.5,38.1,238.2,37.4,239z"/>
		<path d="M42.9,248.7l-0.7-1.1c1.8-0.8,3.6-1.9,5.3-3.3s2.9-2.5,3.6-3.6h-8v-1.3H47c-0.7-1.6-1.3-2.8-1.6-3.5l1.5-0.5
			c0.4,0.8,1,2.1,1.8,3.9h2.7v-5h-7.8v-1.2h7.8v-2.2h1.7v2.2h8v1.2h-8v5H56c1-1.6,1.7-2.9,2.1-4l1.6,0.5c-0.5,1.1-1.2,2.3-2,3.6H62
			v1.3h-8.5c0.7,1,2,2.2,4,3.7s3.7,2.4,5.2,2.9l-0.9,1.4c-1.5-0.7-3.1-1.6-4.8-2.8c-1.7-1.2-2.9-2.3-3.8-3.4v7.3h-1.7v-7.1
			c-1.1,1.2-2.4,2.3-4,3.4C45.9,247.2,44.4,248.1,42.9,248.7z"/>
		<path d="M69.3,248.6l-1.4,0.9c-0.9-1.5-2-2.9-3.2-4.4l1.2-0.8C67.4,246.1,68.6,247.5,69.3,248.6z"/>
		<path d="M85.6,249.8l-0.5-1.1c1.9-0.4,3.3-1.2,4.3-2.2c1-1,1.5-2.6,1.5-4.7h1.6c0,1.7-0.3,3.1-0.9,4.1c-0.6,1-1.4,1.8-2.4,2.5
			C88.2,249,87,249.5,85.6,249.8z M95.3,234.3v2.2h7.1v1.3H86.7v-1.3h7v-2.2h-8.3V233h8.3v-1.8h1.6v1.8h8.3v1.3H95.3z M102,242.8
			v-2.1H87v2.2h-1.5v-3.5h18v3.4H102z M95.7,241.7h1.6v5.5c0,0.3,0.1,0.5,0.3,0.6c0.2,0.2,0.8,0.3,1.9,0.3c0.9,0,1.5,0,1.8-0.1
			c0.3-0.1,0.6-0.3,0.7-0.6c0.1-0.3,0.2-1.1,0.2-2.4l1.4,0.2v2.4c0,0.6-0.2,1-0.5,1.3c-0.3,0.3-0.8,0.5-1.4,0.5
			c-0.6,0.1-1.4,0.1-2.3,0.1c-0.9,0-1.6,0-2-0.1c-0.5,0-0.8-0.1-1-0.3c-0.2-0.2-0.4-0.4-0.5-0.6c-0.1-0.3-0.2-0.6-0.2-0.9V241.7z"/>
		<path d="M105.7,249l-0.2-1.4l1.4-0.1c1-2.2,1.8-4.5,2.5-6.7h-3.5v-1.3h4.5v-4.2h-3.8V234h3.8v-2.8h1.6v2.8h3.6v1.3H112v4.2h4.2
			v1.3H111c-0.8,2.3-1.6,4.5-2.6,6.6c2.3-0.2,4-0.4,5.2-0.7l-1.5-3.5l1.4-0.5c0.3,0.6,1.2,2.6,2.7,6.1l-1.5,0.5
			c-0.1-0.2-0.3-0.7-0.6-1.4C112.1,248.2,109.3,248.6,105.7,249z M122.6,246.6H120l-0.2-1.4h1.9c0.7,0,1-0.3,1-0.8v-11.3h-4v16.6
			h-1.6v-17.8h7.3v13.2c0,0.5-0.2,0.8-0.5,1.1C123.5,246.5,123.1,246.6,122.6,246.6z"/>
		<path d="M135,249.1l-1.6,0.3c-0.5-2.3-1.4-6-2.7-11.1c-1.3,0.4-2.6,0.7-3.8,1.1l-0.3-1.4l3.7-1.1c-0.5-1.9-0.9-3.4-1.3-4.7
			l1.6-0.4l1.2,4.7c1.9-0.5,3.6-0.9,5.1-1.2c-0.6-0.9-1.2-1.8-1.8-2.5l1.3-0.7c0.4,0.5,1.1,1.4,2.1,2.8c1.2-0.2,2.2-0.3,2.9-0.3
			c1.4,0,2.6,0.4,3.5,1.2s1.3,1.9,1.3,3.3c0,1.4-0.5,2.5-1.5,3.4s-2.4,1.3-4.2,1.3c-1,0-1.9-0.1-2.7-0.3l0-1.3
			c0.7,0.1,1.5,0.2,2.3,0.2c0.6,0,1.2,0,1.7-0.1c0.5-0.1,0.9-0.3,1.4-0.5c0.4-0.3,0.8-0.6,1-1.1c0.2-0.4,0.3-0.9,0.3-1.5
			c0-1-0.3-1.8-0.8-2.4c-0.6-0.6-1.3-0.9-2.3-0.9c-0.5,0-1.2,0.1-2.1,0.2c0.4,0.7,0.9,1.4,1.2,2.1l-1.5,0.6
			c-0.2-0.6-0.7-1.4-1.3-2.4c-1.5,0.3-3.4,0.8-5.5,1.4L135,249.1z"/>
		<path d="M151.5,240c-0.9,2-2,3.8-3.4,5.3l-0.9-0.8c0.9-1.1,1.7-2.5,2.5-4s1.3-2.9,1.6-4.1h-3.1v-1.3h3.2V231h1.6v4.1h2.4v1.3h-2.4
			v2.1c0.9,1.1,1.8,1.9,2.9,2.6l-0.8,1.2c-0.8-0.7-1.5-1.4-2-2v9.5h-1.6V240z M164.7,248.6h-6.4v0.9h-1.6v-17.6h9.6v17.6h-1.6V248.6
			z M164.7,236.9v-3.8h-6.4v3.8H164.7z M158.3,241.9h6.4v-3.8h-6.4V241.9z M158.3,247.3h6.4v-4.2h-6.4V247.3z"/>
		<path d="M170.8,243c-0.1,0.7-0.2,1.6-0.5,2.7c-0.2,1-0.4,1.8-0.6,2.3l-1.2-0.3c0.6-2.3,1-3.9,1-4.8L170.8,243z M176.2,241.8
			l-1.2,0.2l-0.2-0.9c-0.3,0-0.7,0.1-1.3,0.2v8.6h-1.5v-8.4l-3,0.3l-0.2-1.2c0.3,0,0.7,0,1.2-0.1c0.6-0.7,1.2-1.6,1.9-2.6
			c-0.3-0.3-1.3-1.3-3-2.9l0.8-1l0.5,0.5c1-1.2,1.7-2.4,2.1-3.4l1.4,0.5c-0.7,1.2-1.6,2.5-2.6,3.7c0.7,0.6,1.2,1.1,1.5,1.5
			c0.9-1.3,1.5-2.3,1.9-3.1l1.3,0.6c-1.6,2.4-3.1,4.4-4.4,6.1c0.6-0.1,1.6-0.2,3-0.3c-0.2-0.6-0.3-1.1-0.4-1.4l1.2-0.3
			C175.3,238.7,175.6,239.9,176.2,241.8z M176.3,246.3l-1.3,0.2c-0.2-1.4-0.4-2.5-0.5-3.3l1.2-0.2L176.3,246.3z M181,241.4
			c0,1-0.1,1.9-0.2,2.6c-0.1,0.7-0.3,1.5-0.7,2.2c-0.3,0.7-0.8,1.4-1.5,2s-1.5,1.1-2.4,1.6l-0.7-1c1.5-0.8,2.5-1.7,3.1-2.7
			c0.6-1,0.8-2.4,0.8-4.1v-0.5H181z M188,234H183v2.1h4.2v1.2h-9.8v-1.2h4V234h-4.8v-1.2h4.8V231h1.6v1.8h5.1V234z M187.9,242.1
			h-1.3v-2h-8.5v1.9h-1.3v-3.1h11.1V242.1z M188.2,247.9c0,0.4-0.1,0.7-0.3,1c-0.2,0.3-0.5,0.4-0.8,0.5c-0.3,0.1-0.8,0.1-1.5,0.1
			c-0.7,0-1.2,0-1.6-0.1c-0.4-0.1-0.7-0.2-0.9-0.5c-0.2-0.3-0.3-0.6-0.3-1.1v-6.5h1.5v6.1c0,0.2,0.1,0.4,0.2,0.6
			c0.2,0.1,0.5,0.2,0.9,0.2c0.6,0,0.9-0.1,1.1-0.2s0.3-0.4,0.3-0.7c0-0.3,0.1-1,0.1-2.1l1.3,0.1V247.9z"/>
		<path d="M200,248.9l-0.4-1.4c2.2-0.2,4.1-0.8,5.6-1.9c1.6-1.1,2.3-2.7,2.3-4.8c0-1.9-0.6-3.4-1.9-4.4c-1.3-1-3-1.6-5.3-1.7
			c-0.1,3.7-0.7,6.7-2,9.2s-2.8,3.7-4.7,3.7c-1.2,0-2.1-0.5-2.7-1.5c-0.7-1-1-2.2-1-3.6c0-2.3,1-4.5,3-6.3c2-1.9,4.4-2.8,7.2-2.8
			c2.6,0,4.8,0.7,6.4,2c1.7,1.3,2.5,3.1,2.5,5.3c0,2.6-0.9,4.5-2.6,5.9S202.7,248.7,200,248.9z M198.8,234.8c-2,0.3-3.7,1.2-5.1,2.7
			c-1.4,1.5-2.1,3.2-2.1,5.1c0,1,0.2,1.8,0.6,2.5c0.4,0.7,1,1,1.7,1c1.3,0,2.4-1.2,3.3-3.6C198.2,240.2,198.7,237.6,198.8,234.8z"/>
		<path d="M215.3,237.8c0.2,0.3,0.5,0.7,0.8,1.4c0.4,0.6,0.6,1.2,0.7,1.7s0.2,1,0.2,1.4c0,0.6-0.1,1.1-0.2,1.6
			c-0.1,0.5-0.3,0.9-0.5,1.2s-0.5,0.5-0.8,0.7s-0.6,0.2-0.8,0.3c-0.2,0-0.6,0-1.2,0l-0.2-1.3l1.2-0.1c0.7-0.1,1.1-0.9,1.1-2.3
			c0-1.5-0.5-2.9-1.6-4.3l-0.1-0.3c0.2-0.6,0.5-1.5,0.9-2.7c0.4-1.2,0.5-1.9,0.5-2.1h-2.4v16.9h-1.4v-18.1h5.3l0.3,0.4
			c-0.2,0.7-0.5,1.7-0.9,3S215.5,237.4,215.3,237.8z M217,249.1l-0.9-1c1.6-1.1,2.9-2.3,3.8-3.7l1.4,0.7c-0.4,0.6-1.1,1.3-2,2.2
			C218.3,248.2,217.6,248.8,217,249.1z M219.8,238.4c-0.6-0.5-1.3-1-1.9-1.6c-0.1,0.2-0.3,0.3-0.4,0.5l-0.9-0.6
			c1.4-1.9,2.4-3.8,3-5.7l1.4,0.2c-0.1,0.3-0.2,0.6-0.3,1h4.1c0.5,1.4,1.3,2.9,2.4,4.5c0.7-1.2,1.2-2.4,1.5-3.5h-3V232h4.4l0.4,0.4
			c-0.7,2.1-1.5,3.8-2.4,5.2c0.7,0.9,1.6,1.8,2.8,2.7l-0.9,1c-1.2-1-2.4-2.2-3.4-3.7s-1.9-2.8-2.4-4.3c-0.8,3-2.8,5.6-5.8,7.9
			l-0.7-0.8C218.3,239.9,219.1,239.2,219.8,238.4z M222.4,248.4c0.4,0,0.7-0.2,0.7-0.6v-4.3h-5v-1.2h11.9v1.2h-5.3v4.9
			c0,0.9-0.6,1.4-1.7,1.4h-2.1l-0.2-1.4H222.4z M218.4,236c0.5,0.3,1.1,0.8,2,1.5c0.5-0.7,0.8-1.1,0.9-1.4c-0.5-0.3-1.2-0.8-2.1-1.3
			C218.9,235.3,218.7,235.7,218.4,236z M221.9,235.2c0.4-0.7,0.7-1.4,0.8-2h-2.5c-0.1,0.2-0.3,0.5-0.4,0.8
			C220.6,234.5,221.3,234.9,221.9,235.2z M221.2,240v-1.2h5.6v1.2H221.2z M229.6,249.1c-0.6-0.4-1.2-1-2-1.9s-1.4-1.6-1.7-2.2
			l1.3-0.6c0.3,0.5,0.9,1.1,1.6,1.9c0.7,0.8,1.4,1.3,2,1.8L229.6,249.1z"/>
		<path d="M245.8,241.4h-7.1c-0.3,1.9-0.5,3.2-0.5,3.8c0,1.8,1.6,2.6,4.8,2.6c3.9,0,5.9-1,5.9-3c0-1.5-0.4-3-1.2-4.4l1.3-0.4
			c1,1.7,1.5,3.4,1.5,5c0,2.8-2.5,4.3-7.5,4.3c-4.3,0-6.4-1.4-6.4-4.1c0-0.8,0.1-2,0.4-3.8h-4.1v-1.4h4.4c0.1-0.9,0.4-2.1,0.7-3.7
			h-5V235h5.3c0.1-0.7,0.4-1.6,0.7-3l1.6,0.1l-0.7,2.9h9.3v1.4h-9.6c-0.3,1.3-0.5,2.5-0.8,3.7h6.9V241.4z"/>
		<path d="M258.3,248.6l-1.4,0.9c-0.9-1.5-2-2.9-3.2-4.4l1.2-0.8C256.4,246.1,257.6,247.5,258.3,248.6z"/>
		<path d="M274.4,241.4l-0.6-0.9c1.4-0.7,2.7-1.6,3.8-2.7h-2.8v-3.4h3.2v-1.1h-3.7v-1h3.7v-1h1.5v1h3.8v1h-3.8v1.1h3.3v3.4h-3.1
			c1.4,1,2.4,1.7,3.2,2l-0.7,1c-0.7-0.3-1.6-0.9-2.8-1.9v2.6H278V239C276.8,240.1,275.6,240.9,274.4,241.4z M277.3,248.2v-3.4h1.6
			v3.4h3.8v-4.7h-8v-1.2h17.5v1.2h-7.9v1.7h6.8v1.2h-6.8v1.9h8.6v1.2h-18.8v-1.2H277.3z M278.1,235.3H276v1.7h2.1V235.3z
			 M281.6,235.3h-2.2v1.7h2.2V235.3z M292,234.5c-0.3,1.6-1.1,3-2.4,4.2c1.1,0.7,2.4,1.2,3.9,1.7l-0.8,1.1c-1.6-0.6-3-1.2-4.1-2
			c-1.4,0.9-3,1.6-4.7,1.9l-0.5-1c1.6-0.4,3-0.9,4.1-1.7c-0.9-0.8-1.6-1.7-2.1-2.7c-0.4,0.5-0.7,0.9-0.9,1.2l-1-0.6
			c1.3-1.7,2.1-3.5,2.6-5.4l1.5,0.2c-0.1,0.6-0.4,1.3-0.7,2.1h6.2v1.1H292z M288.4,237.9c1.2-1.1,1.8-2.3,2-3.4h-4.2l-0.1,0.2
			C286.5,235.9,287.3,237,288.4,237.9z"/>
		<path d="M295.9,249.8l-1.1-0.8c0.6-0.6,1.1-1.6,1.7-3c0.5-1.4,0.9-3.2,0.9-5.5h-2.2v-1.2h2.2v-5.9h-1.7v-1.3h10.3v1.3h-1.8v5.9
			h1.8v1.2h-1.8v9.1h-1.6v-9.1H299C298.8,244.4,297.8,247.5,295.9,249.8z M299,233.4v5.9h3.5v-5.9H299z M305.8,249.6l-0.7-1.1
			c1.6-0.8,3.1-1.8,4.6-3c1.5-1.2,2.6-2.3,3.4-3.3l1.4,0.9c-1.1,1.3-2.5,2.5-4.1,3.7C308.7,248,307.2,249,305.8,249.6z M306.8,236.7
			l-0.8-1.1c1-0.5,2.1-1.2,3.3-2.1c1.2-0.9,2.1-1.6,2.8-2.3l1.3,0.8C311.5,233.9,309.3,235.4,306.8,236.7z M306.8,242.4l-0.7-1.2
			c2.6-1.3,4.9-2.9,6.7-4.8l1.2,0.9C312.2,239.2,309.8,240.9,306.8,242.4z"/>
		<path d="M315.6,246.4l-0.3-1.4c0.8-0.1,1.7-0.3,2.6-0.5v-7.6h-2.1v-1.3h2.1v-4.3h1.5v4.3h1.8v1.3h-1.8v7.3
			c1.1-0.2,1.9-0.5,2.4-0.6l0.1,1.2C320.7,245.2,318.6,245.8,315.6,246.4z M322.9,238.4l-1.7,0.5l-0.3-1.3l2-0.5v-5h1.6v4.6l3.1-0.9
			v-4.7h1.6v4.2l4.4-1.2l0.5,0.3v7.8c0,0.6-0.2,1-0.5,1.4c-0.4,0.3-0.9,0.5-1.5,0.5h-1.7l-0.2-1.3h1.5c0.6,0,1-0.3,1-0.9v-6.3
			l-3.3,1v9.2h-1.6V237l-3.1,0.9v9c0,0.5,0.2,0.9,0.7,1c0.4,0.2,1.6,0.3,3.6,0.3c0.9,0,1.8,0,2.7-0.1c0.9-0.1,1.5-0.1,1.7-0.2
			c0.2-0.1,0.4-0.2,0.5-0.3c0.1-0.2,0.2-0.5,0.3-1c0.1-0.5,0.1-1.1,0.1-1.8l1.4,0.1v2.5c0,0.3-0.1,0.6-0.3,0.9s-0.4,0.5-0.8,0.6
			c-0.3,0.2-0.7,0.2-1,0.3c-0.3,0-0.9,0.1-1.8,0.1c-0.8,0-1.7,0.1-2.6,0.1c-0.5,0-1.2,0-2.2,0c-1,0-1.7-0.1-2.2-0.2
			c-0.5-0.1-0.9-0.3-1.2-0.7c-0.3-0.4-0.4-0.8-0.4-1.3V238.4z"/>
		<path d="M340.9,248.7l-1.5,0.3c-0.7-2.2-1-4.7-1-7.3c0-2.9,0.5-6,1.4-9.3l1.6,0.3c-0.9,3.1-1.4,6-1.4,8.8
			C339.9,244,340.2,246.4,340.9,248.7z M356.6,246.6l-0.9,1.3c-0.7-0.6-1.8-1.4-3.5-2.5v0.6c0,1-0.3,1.8-1,2.3
			c-0.7,0.5-1.9,0.8-3.5,0.8c-1.1,0-2.1-0.3-2.9-0.8c-0.8-0.5-1.2-1.3-1.2-2.2c0-0.9,0.4-1.7,1.1-2.3s1.7-0.9,2.7-0.9
			c1.1,0,2.1,0.1,3.1,0.4v-6.1h-7.2v-1.4h7.2v-3.8h1.6v3.8h3.8v1.4h-3.8v6.6C353.7,244.5,355.2,245.5,356.6,246.6z M350.6,246v-1.2
			c-0.8-0.3-1.9-0.5-3.1-0.5c-0.7,0-1.3,0.2-1.7,0.5c-0.5,0.3-0.7,0.8-0.7,1.3c0,0.6,0.3,1,0.8,1.3c0.5,0.3,1.2,0.5,1.9,0.5
			C349.6,247.8,350.6,247.2,350.6,246z"/>
		<path class="st0" d="M363.5,235.5c-0.5,0.5-1.1,1.1-2,1.8c-0.9,0.7-1.7,1.2-2.4,1.6l-1.6-1.7c1.4-0.8,2.7-1.7,4-2.8L363.5,235.5z
			 M365.3,247.8c-0.7,0.4-1.7,0.8-3.1,1.1c-1.4,0.4-2.7,0.6-3.9,0.7l-0.7-2c2-0.2,3.8-0.6,5.3-1.2h-3.3v-7.6h14.7
			c-1.2-0.3-2.2-0.6-2.9-1s-1.3-0.9-1.9-1.6c-0.6,0.7-1.5,1.3-2.7,1.7c-1.3,0.5-2.6,0.7-4.1,0.8l-0.6-1.9c1.6-0.1,2.9-0.4,4-1
			c1.1-0.5,1.7-1.2,1.9-2h-1.2c-0.7,0.7-1.4,1.3-2.2,1.8l-1.7-1.2c0.6-0.5,1.3-1.1,2-1.8c0.7-0.7,1.1-1.3,1.4-1.8l2.4,0.3
			c-0.2,0.4-0.4,0.7-0.5,0.9h8.2l0.8,0.6c-0.3,0.5-0.8,1-1.4,1.7c-0.6,0.7-1.2,1.2-1.6,1.4l-1.8-0.8c0.4-0.4,0.8-0.8,1.2-1.3h-2.8
			c0.2,0.4,0.5,0.9,1,1.3s0.9,0.7,1.4,0.9c0.5,0.2,1.1,0.4,2,0.6c0.9,0.2,1.7,0.3,2.6,0.4l-1,2.2c-0.5,0-1-0.1-1.3-0.2v7.4h-3.3
			c1.1,0.3,2.9,0.7,5.4,1l-0.9,2.1c-3.3-0.5-5.7-1-7-1.8l1-1.4h-6.5L365.3,247.8z M363.6,232.6l-1.7,1.7c-0.8-0.4-1.9-1-3.4-1.7
			l1.6-1.5C361,231.4,362.2,231.9,363.6,232.6z M372.7,241.1v-0.9h-10.4v0.9H372.7z M362.3,243.1h10.4v-1h-10.4V243.1z M372.7,244.2
			h-10.4v1.1h10.4V244.2z"/>
		<path class="st0" d="M397.8,238.1h-15v1.5c0,2.3-0.2,4.3-0.7,6c-0.5,1.7-1.1,3-1.8,4l-2.1-1.2c0.5-0.8,0.9-1.9,1.3-3.3
			c0.4-1.4,0.6-3.1,0.6-5.2v-3.7h3.4l-0.7-1.7h-3.1v-2.1h7.5v-1.3h2.8v1.3h7.3v2.1h-3l-0.8,1.7h4.3V238.1z M397.9,249.2h-15.6v-2.1
			h6.6v-1.4h-4.4v-1.2l-1.9-1.1c1.2-1.4,2.1-3.1,2.6-5l2.7,0.4c-0.1,0.4-0.3,0.9-0.5,1.3h1.5v-1.5h2.9v1.5h5.2v2.1h-5.2v1.3h4.4v2.1
			h-4.4v1.4h6.1V249.2z M386.4,242.3c-0.2,0.4-0.5,0.9-0.8,1.3h3.3v-1.3H386.4z M386.4,236.1h4.2l0.7-1.7h-5.7L386.4,236.1z"/>
		<path class="st0" d="M404.4,249.6h-2.6V241c-0.3,0.6-0.7,1.1-1.1,1.6l-1.6-1.6c0.9-1.5,1.7-3.2,2.3-5c0.7-1.9,1.1-3.6,1.3-5
			l2.6,0.3c-0.3,1.7-0.8,3.6-1.7,5.7h0.7V249.6z M416.2,248.6h-8v0.8h-2.5v-13h3.5v-2.5h-3.7v-2.3h14.1v2.3h-4.5v2.5h3.7v13h-2.6
			V248.6z M408.2,246.5h1.1v-8h-1.1V246.5z M411.5,246.5h1.1v-8h-1.1V246.5z M411.6,236.4h1v-2.5h-1V236.4z M414.9,246.5h1.2v-8
			h-1.2V246.5z"/>
		<path class="st0" d="M425.5,249.6h-2.5v-8.9c-0.4,0.7-0.8,1.3-1.2,1.9l-1.6-1.7c0.8-1.3,1.6-3,2.3-4.8s1.2-3.6,1.5-5.1l2.6,0.4
			c-0.3,1.8-0.9,3.7-1.7,5.7h0.6V249.6z M430.5,246.1v-10.6h2.4v-1h-6.6v-2.1h6.6V231h2.8v1.4h4.6v2.1h-4.6v1h3.7v10.6H430.5z
			 M429.4,249.6h-2.6v-13.8h2.6V247h11v2h-11V249.6z M436.7,238.5v-1.2h-3.6v1.2H436.7z M433.1,241.3h3.6v-1.3h-3.6V241.3z
			 M433.1,244.3h3.6v-1.3h-3.6V244.3z"/>
		<path class="st0" d="M448.9,233.7c0,0.4,0,1-0.1,1.6h2.6c1.2,0,2.1,0.4,2.8,1.1s1.1,1.7,1.1,2.9c0,3-0.3,5.4-1,7.3
			s-1.9,2.8-3.5,2.8c-0.5,0-1-0.1-1.5-0.2c-0.5-0.2-1.4-0.6-2.6-1.3l0.9-2.4c1.3,0.7,2.2,1.1,2.8,1.1c0.3,0,0.5-0.1,0.7-0.3
			c0.2-0.2,0.4-0.6,0.6-1.3c0.2-0.6,0.4-1.4,0.5-2.2s0.2-1.7,0.2-2.7c0-0.7,0-1.2-0.1-1.5s-0.2-0.5-0.4-0.6s-0.5-0.2-0.8-0.2h-2.4
			c-0.7,4.9-2.4,8.8-5.2,11.9l-2.3-1.4c0.8-0.9,1.6-2.2,2.5-4.1c0.9-1.9,1.5-4,1.9-6.3h-3.7v-2.6h4.1l0-4h3V233.7z M461.6,242.6
			l-2.8,0.8c-0.6-1.9-1.2-3.5-1.8-4.8c-0.6-1.3-1.5-2.5-2.4-3.8l2.3-1.4C459.4,236.8,461,239.8,461.6,242.6z M459.2,233.9l-1.5,0.6
			c-0.6-1.4-1-2.5-1.4-3.1l1.4-0.6C458.3,231.9,458.8,233,459.2,233.9z M462,233.7l-1.4,0.5c-0.5-1.1-0.9-2.2-1.4-3.1l1.4-0.5
			C461.1,231.6,461.5,232.7,462,233.7z"/>
		<path class="st0" d="M473.3,249.6h-3v-15.3h-7.1v-2.5h18.7v2.5h-8.6v2.4c2.2,1.4,4.5,2.4,7,3.2l-1.3,2.8c-1.7-0.6-3.6-1.6-5.7-2.8
			V249.6z"/>
		<path class="st0" d="M490.9,233.7c0,0.4,0,1-0.1,1.6h2.6c1.2,0,2.1,0.4,2.8,1.1s1.1,1.7,1.1,2.9c0,3-0.3,5.4-1,7.3
			s-1.9,2.8-3.5,2.8c-0.5,0-1-0.1-1.5-0.2c-0.5-0.2-1.4-0.6-2.6-1.3l0.9-2.4c1.3,0.7,2.2,1.1,2.8,1.1c0.3,0,0.5-0.1,0.7-0.3
			c0.2-0.2,0.4-0.6,0.6-1.3c0.2-0.6,0.4-1.4,0.5-2.2s0.2-1.7,0.2-2.7c0-0.7,0-1.2-0.1-1.5s-0.2-0.5-0.4-0.6s-0.5-0.2-0.8-0.2h-2.4
			c-0.7,4.9-2.4,8.8-5.2,11.9l-2.3-1.4c0.8-0.9,1.6-2.2,2.5-4.1c0.9-1.9,1.5-4,1.9-6.3h-3.7v-2.6h4.1l0-4h3V233.7z M503.6,242.6
			l-2.8,0.8c-0.6-1.9-1.2-3.5-1.8-4.8c-0.6-1.3-1.5-2.5-2.4-3.8l2.3-1.4C501.4,236.8,503,239.8,503.6,242.6z M501.2,233.9l-1.5,0.6
			c-0.6-1.4-1-2.5-1.4-3.1l1.4-0.6C500.3,231.9,500.8,233,501.2,233.9z M504,233.7l-1.4,0.5c-0.5-1.1-0.9-2.2-1.4-3.1l1.4-0.5
			C503.1,231.6,503.5,232.7,504,233.7z"/>
		<path class="st0" d="M511,250l-0.6-2.5c3.4-0.4,5.7-1.1,6.9-2.1c1.2-1,1.8-2.6,1.8-4.8c0-3.8-0.9-5.7-2.6-5.7
			c-0.9,0-1.9,0.3-2.8,0.9c-1,0.6-1.8,1.5-2.4,2.9c-0.6,1.4-1,2.8-1,4.2c0,0.4,0,0.9,0.1,1.4l-2.7,0.2c-0.3-1.8-0.5-3.7-0.5-5.8
			c0-2.5,0.2-5,0.7-7.5l2.9,0.3c-0.2,1.1-0.5,2.7-0.8,4.8c0.5-1,1.3-1.9,2.6-2.8s2.6-1.2,4-1.2c1.8,0,3.2,0.7,4.1,2.2
			c0.9,1.4,1.4,3.4,1.4,5.9c0,3.2-0.9,5.6-2.8,7C517.5,248.8,514.7,249.7,511,250z"/>
		<path class="st0" d="M531.1,232.2c-0.9,3.1-1.3,5.8-1.3,7.9c0,2.9,0.4,5.8,1.1,8.6l-2.8,0.6c-0.7-2.9-1.1-5.6-1.1-8.4
			c0-2.9,0.4-6,1.2-9.2L531.1,232.2z M544.3,248.6c-1.7,0.2-3.1,0.2-4.3,0.2c-3,0-5-0.3-6.1-1s-1.6-1.7-1.6-3c0-1.5,0.7-2.9,2.1-4.4
			l2.3,1.2c-1.1,1-1.7,2.1-1.7,3.1c0,0.5,0.3,0.9,0.9,1.2s1.8,0.4,3.6,0.4c0.9,0,2.5-0.1,4.8-0.3L544.3,248.6z M544.1,235.7l-0.9,0
			c-0.9,0-2.4,0-4.5,0.1c-2.1,0-4.1,0.1-6,0.3v-2.5c4.6-0.2,7.8-0.3,9.6-0.3c0.7,0,1.3,0,1.8,0.1V235.7z"/>
		<path class="st0" d="M563,248.1l-2.3,2.2l-3-2.5c-0.9-0.8-1.8-1.4-2.6-2l-2.4-1.6c-1.5-1-2.4-1.7-2.8-2s-0.6-0.6-0.8-1
			s-0.2-0.7-0.2-1.1c0-0.9,0.5-1.8,1.6-2.5c0.4-0.2,1.2-0.8,2.5-1.6c1.3-0.9,2.3-1.6,3.1-2.2c0.8-0.6,1.9-1.5,3.3-2.8l2.4,1.9
			c-2,1.6-4.6,3.6-8,5.8c-0.3,0.2-0.6,0.4-1.1,0.7c-0.5,0.3-0.7,0.5-0.7,0.5s0,0.1,0,0.1c0,0.1,0,0.1,0.1,0.1l1.9,1.2
			c2.3,1.6,4.1,2.8,5.3,3.7C560.5,245.9,561.7,246.9,563,248.1z"/>
		<path class="st0" d="M584,248.1l-2.3,2.2l-3-2.5c-0.9-0.8-1.8-1.4-2.6-2l-2.4-1.6c-1.5-1-2.4-1.7-2.8-2s-0.6-0.6-0.8-1
			s-0.2-0.7-0.2-1.1c0-0.9,0.5-1.8,1.6-2.5c0.4-0.2,1.2-0.8,2.5-1.6c1.3-0.9,2.3-1.6,3.1-2.2c0.8-0.6,1.9-1.5,3.3-2.8l2.4,1.9
			c-2,1.6-4.6,3.6-8,5.8c-0.3,0.2-0.6,0.4-1.1,0.7c-0.5,0.3-0.7,0.5-0.7,0.5s0,0.1,0,0.1c0,0.1,0,0.1,0.1,0.1l1.9,1.2
			c2.3,1.6,4.1,2.8,5.3,3.7C581.5,245.9,582.7,246.9,584,248.1z"/>
		<path class="st0" d="M595.4,248l-2.5,1.7c-1-1.7-2.3-3.4-3.8-5.2l2.2-1.6C592.9,244.7,594.3,246.4,595.4,248z"/>
		<path class="st0" d="M629.1,249.1h-19.1v-2.6h7.9v-7.2H611v-2.6h6.9v-5.3h3.1v5.3h7.1v2.6H621v7.2h8.2V249.1z"/>
		<path class="st0" d="M650.4,247c0,0.4-0.1,0.8-0.3,1.1s-0.5,0.6-0.9,0.8c-0.4,0.2-0.8,0.3-1.2,0.3c-0.4,0-1.1,0.1-1.9,0.1
			c-0.9,0-1.6,0-2.3,0c-0.8,0-1.6,0-2.4-0.1c-0.8,0-1.4-0.1-1.7-0.2c-0.3-0.1-0.6-0.2-0.9-0.4c-0.3-0.2-0.5-0.5-0.7-0.8
			s-0.2-0.7-0.2-1v-8.3l-1,0.3l-0.2-1.4h-1.4v5.9c0.7-0.2,1.4-0.4,2-0.6l0.2,2.2c-0.9,0.4-3.1,1.1-6.6,2.1l-0.5-2.5
			c0.7-0.1,1.4-0.3,2.3-0.5v-6.6h-1.8v-2.1h1.8v-4.3h2.7v4.3h1.5v1l1.2-0.3v-4.1h2.7v3.5l1.7-0.4V231h2.7v3.3l3.9-1l0.7,0.5v7.9
			c0,0.7-0.2,1.2-0.6,1.6s-1,0.6-1.7,0.6h-1.6l-0.3-2.4h1.1c0.4,0,0.6-0.2,0.6-0.5v-4.8l-2,0.5v8.9h-2.7v-8.3l-1.7,0.4v8.2
			c0,0.4,0.2,0.6,0.6,0.7c0.9,0.1,1.8,0.1,2.6,0.1c0.6,0,1.2,0,2,0l1.4,0c0.2,0,0.3-0.1,0.4-0.1c0.1-0.1,0.2-0.2,0.2-0.4
			c0-0.2,0.1-0.9,0.1-2.2l2.3,0.3V247z"/>
		<path class="st0" d="M666.7,248.6h-10.5v1h-2.9v-16.6h5.9c0.4-1.1,0.7-2,0.9-2.6l3,0.4c-0.3,0.7-0.6,1.4-0.9,2.2h7.4v16.6h-3
			V248.6z M666.7,237.4v-2.2h-10.5v2.2H666.7z M656.3,241.8h10.5v-2.2h-10.5V241.8z M656.3,246.4h10.5v-2.4l-10.5,0V246.4z"/>
		<path class="st0" d="M678.2,249.7h-2.8v-8.7c-0.4,0.6-0.9,1.3-1.4,2l-1.8-1.6c0.7-1,1.6-2.4,2.5-4.4s1.7-4,2.2-6.1l2.8,0.5
			c-0.5,2-1.1,3.8-1.9,5.4h0.4v7.8c1-0.9,1.9-2.1,2.9-3.6c1-1.5,1.7-2.7,2.2-3.8h-4.5v-2.3h5.1v-4h2.9v4h5.6v2.3h-5.2
			c0.5,1.2,1.4,2.5,2.4,3.9c1.1,1.4,2.2,2.6,3.2,3.5l-1.8,2.1c-0.7-0.6-1.4-1.3-2-2.1v1.3h-2.3v3.4h-2.7v-3.4h-2.5v-1.3
			c-0.6,0.8-1.3,1.4-1.9,2l-1.5-1.6V249.7z M682.4,243.9h1.7v-2.5C683.5,242.3,683,243.1,682.4,243.9z M686.8,243.9h1.5
			c-0.6-0.8-1.1-1.5-1.5-2.3V243.9z"/>
		<path class="st0" d="M31,280.4l-0.8-2.6c2.7-0.3,4.8-0.9,6.1-1.9s2.1-2.4,2.1-4.3c0-1.6-0.5-2.8-1.5-3.8c-1-1-2.3-1.5-4.1-1.7
			c-0.1,3.8-0.9,6.9-2.1,9.3c-1.3,2.4-2.9,3.6-4.9,3.6c-1.3,0-2.3-0.6-3.1-1.8c-0.8-1.2-1.2-2.6-1.2-4.1V273c0-2.4,1-4.5,2.9-6.3
			c1.9-1.8,4.3-2.8,7.2-2.9H32c2.8,0,5,0.7,6.8,2.1c1.8,1.4,2.7,3.3,2.7,5.7c0,2.6-0.9,4.7-2.7,6.2C37,279.3,34.4,280.2,31,280.4z
			 M30,266.6c-1.5,0.4-2.8,1.2-3.9,2.4c-1.1,1.3-1.6,2.6-1.6,4.1c0,0.8,0.1,1.5,0.4,2.2c0.3,0.7,0.6,1,1.1,1c1,0,1.8-0.9,2.6-2.8
			S29.8,269.3,30,266.6z"/>
		<path class="st0" d="M52.8,273.1c-1.5,3.5-4.4,6-8.7,7.5l-1.3-2.3c1.4-0.5,2.5-1,3.5-1.7c1-0.7,1.8-1.4,2.4-2.2
			c0.6-0.8,1.1-1.6,1.4-2.4c0.3-0.8,0.5-1.6,0.6-2.4c0.1-0.8,0.1-2.2,0.1-4.1l0-2.7h3v5.1c0,0.4,0.1,1,0.4,1.9
			c0.2,0.9,0.7,1.8,1.4,2.9c0.7,1,1.6,2,2.8,3c1.2,0.9,2.5,1.7,4,2.4l-1.8,2.6c-1.8-0.8-3.4-1.9-4.8-3.2
			C54.4,275.8,53.4,274.5,52.8,273.1z"/>
		<path class="st0" d="M70.9,262.2c-0.2,0.5-0.4,0.9-0.6,1.2h11.9v2.1H68.9c-0.3,0.4-0.5,0.7-0.7,1h12.3v2H67.8v-1.6
			c-0.9,1-1.7,1.8-2.6,2.5l-1.8-1.7c1-1,2-2.1,2.9-3.3s1.5-2.2,1.7-2.9L70.9,262.2z M76.6,273.4c-0.7,0.8-1.5,1.6-2.5,2.4
			c1.1,0.7,2.1,1.4,3,2.1l-1.8,2c-0.7-0.6-1.9-1.4-3.4-2.4c-2.4,1.6-4.9,2.6-7.5,3.2l-0.8-2.3c2.2-0.6,4.1-1.4,5.9-2.4
			c-1.7-1.1-3-1.8-3.7-2.1l1.5-2.1c1.4,0.7,2.9,1.5,4.6,2.5c0.9-0.8,1.8-1.6,2.5-2.5L76.6,273.4z M83.4,274.9
			c-0.1,2.1-0.2,3.4-0.3,4s-0.4,1-0.8,1.3s-0.9,0.5-1.4,0.5c-2.7,0-4-2.9-4.1-8.8H64.6v-2.2h15.1c0,0.7,0,1.2,0,1.7c0,1,0,2,0.1,3
			c0.1,1.1,0.2,1.8,0.4,2.3c0.2,0.5,0.3,0.8,0.4,0.9c0.1,0.1,0.2,0.1,0.3,0.1c0.1,0,0.1,0,0.2-0.1c0-0.1,0.1-0.4,0.2-1.1
			c0.1-0.7,0.1-1.3,0.1-2L83.4,274.9z"/>
		<path class="st0" d="M91.9,264.7c0,0.4,0,1-0.1,1.6h2.6c1.2,0,2.1,0.4,2.8,1.1s1.1,1.7,1.1,2.9c0,3-0.3,5.4-1,7.3
			s-1.9,2.8-3.5,2.8c-0.5,0-1-0.1-1.5-0.2c-0.5-0.2-1.4-0.6-2.6-1.3l0.9-2.4c1.3,0.7,2.2,1.1,2.8,1.1c0.3,0,0.5-0.1,0.7-0.3
			c0.2-0.2,0.4-0.6,0.6-1.3c0.2-0.6,0.4-1.4,0.5-2.2s0.2-1.7,0.2-2.7c0-0.7,0-1.2-0.1-1.5s-0.2-0.5-0.4-0.6s-0.5-0.2-0.8-0.2h-2.4
			c-0.7,4.9-2.4,8.8-5.2,11.9l-2.3-1.4c0.8-0.9,1.6-2.2,2.5-4.1c0.9-1.9,1.5-4,1.9-6.3h-3.7v-2.6h4.1l0-4h3V264.7z M104.6,273.6
			l-2.8,0.8c-0.6-1.9-1.2-3.5-1.8-4.8c-0.6-1.3-1.5-2.5-2.4-3.8l2.3-1.4C102.4,267.8,104,270.8,104.6,273.6z M102.2,264.9l-1.5,0.6
			c-0.6-1.4-1-2.5-1.4-3.1l1.4-0.6C101.3,262.9,101.8,264,102.2,264.9z M105,264.7l-1.4,0.5c-0.5-1.1-0.9-2.2-1.4-3.1l1.4-0.5
			C104.1,262.6,104.5,263.7,105,264.7z"/>
		<path class="st0" d="M125.1,265.2h-19.3v-2h8v-1.3h3v1.3h8.2V265.2z M119.4,278.7l-5.8,0v0.5h-2.5v-5.1h8.8v4.2h1.1
			c0.4,0,0.6-0.2,0.6-0.5v-4.6h-12.1v7.5h-2.9v-9.3h17.9v7.2c0,0.6-0.2,1.1-0.6,1.5c-0.4,0.4-0.9,0.5-1.6,0.5h-2.6L119.4,278.7z
			 M123,270.4h-14.8v-4.3H123V270.4z M120.2,268.8v-1.2h-9.3v1.2H120.2z M117.4,277v-1.3h-3.8v1.3H117.4z"/>
		<path class="st0" d="M137.7,273.6c-0.3,1-0.8,2-1.3,3.2c-0.6,1.2-1.1,2-1.6,2.6c-0.5,0.6-1.1,0.8-1.8,0.8c-1.5,0-2.7-0.9-3.8-2.7
			s-1.6-3.9-1.6-6.3c0-0.8,0.1-1.9,0.2-3.4c0.1-1.5,0.2-2.7,0.2-3.4h3.1c0,0.7-0.1,1.8-0.3,3.4c-0.2,1.5-0.3,2.6-0.3,3.4
			c0,1.6,0.3,3,0.8,4.1c0.5,1.2,1,1.8,1.3,1.8c0.5,0,1.4-1.6,2.5-4.7L137.7,273.6z M146.1,277.4l-3.1,0.2c0-2.1-0.4-4.2-1.1-6.4
			s-1.7-4-3-5.5l2.5-1.2C144.6,267.9,146.1,272.3,146.1,277.4z"/>
		<path d="M158,279.9l-0.4-1.4c2.2-0.2,4.1-0.8,5.6-1.9c1.6-1.1,2.3-2.7,2.3-4.8c0-1.9-0.6-3.4-1.9-4.4c-1.3-1-3-1.6-5.3-1.7
			c-0.1,3.7-0.7,6.7-2,9.2s-2.8,3.7-4.7,3.7c-1.2,0-2.1-0.5-2.7-1.5c-0.7-1-1-2.2-1-3.6c0-2.3,1-4.5,3-6.3c2-1.9,4.4-2.8,7.2-2.8
			c2.6,0,4.8,0.7,6.4,2c1.7,1.3,2.5,3.1,2.5,5.3c0,2.6-0.9,4.5-2.6,5.9S160.7,279.7,158,279.9z M156.8,265.8c-2,0.3-3.7,1.2-5.1,2.7
			c-1.4,1.5-2.1,3.2-2.1,5.1c0,1,0.2,1.8,0.6,2.5c0.4,0.7,1,1,1.7,1c1.3,0,2.4-1.2,3.3-3.6C156.2,271.2,156.7,268.6,156.8,265.8z"/>
		<path d="M187,266.1h-5.1c-1.2,0.5-2.5,1.5-3.7,2.9c-1.2,1.4-1.8,2.9-1.8,4.4c0,1.2,0.3,2.2,0.9,3c0.6,0.8,1.5,1.4,2.5,1.7
			s2.4,0.5,4.2,0.5c0.4,0,0.8,0,1.2,0l-0.1,1.5h-0.1c-1.3,0-2.3,0-3.1-0.1c-0.8,0-1.7-0.2-2.6-0.5c-0.9-0.3-1.7-0.7-2.4-1.3
			c-0.7-0.6-1.2-1.3-1.6-2.1s-0.5-1.7-0.5-2.6c0-1.4,0.4-2.7,1.3-4.1c0.8-1.4,1.9-2.5,3.3-3.4h-10.3v-1.4H187V266.1z M184.5,270.5
			l-1.2,0.5c-0.5-1.1-1-2.1-1.5-2.9l1.1-0.5C183.5,268.6,184,269.5,184.5,270.5z M187.5,269.9l-1.2,0.5c-0.5-1.1-0.9-2-1.5-2.8
			l1.1-0.5C186.4,267.7,186.9,268.7,187.5,269.9z"/>
		<path d="M195.3,279.6l-1.4,0.9c-0.9-1.5-2-2.9-3.2-4.4l1.2-0.8C193.4,277.1,194.6,278.5,195.3,279.6z"/>
		<path d="M211.6,280.8l-0.5-1.1c1.9-0.4,3.3-1.2,4.3-2.2c1-1,1.5-2.6,1.5-4.7h1.6c0,1.7-0.3,3.1-0.9,4.1c-0.6,1-1.4,1.8-2.4,2.5
			C214.2,280,213,280.5,211.6,280.8z M221.3,265.3v2.2h7.1v1.3h-15.7v-1.3h7v-2.2h-8.3V264h8.3v-1.8h1.6v1.8h8.3v1.3H221.3z
			 M228,273.8v-2.1h-15v2.2h-1.5v-3.5h18v3.4H228z M221.7,272.7h1.6v5.5c0,0.3,0.1,0.5,0.3,0.6c0.2,0.2,0.8,0.3,1.9,0.3
			c0.9,0,1.5,0,1.8-0.1c0.3-0.1,0.6-0.3,0.7-0.6c0.1-0.3,0.2-1.1,0.2-2.4l1.4,0.2v2.4c0,0.6-0.2,1-0.5,1.3c-0.3,0.3-0.8,0.5-1.4,0.5
			c-0.6,0.1-1.4,0.1-2.3,0.1c-0.9,0-1.6,0-2-0.1c-0.5,0-0.8-0.1-1-0.3c-0.2-0.2-0.4-0.4-0.5-0.6c-0.1-0.3-0.2-0.6-0.2-0.9V272.7z"/>
		<path d="M231.7,280l-0.2-1.4l1.4-0.1c1-2.2,1.8-4.5,2.5-6.7h-3.5v-1.3h4.5v-4.2h-3.8V265h3.8v-2.8h1.6v2.8h3.6v1.3H238v4.2h4.2
			v1.3H237c-0.8,2.3-1.6,4.5-2.6,6.6c2.3-0.2,4-0.4,5.2-0.7l-1.5-3.5l1.4-0.5c0.3,0.6,1.2,2.6,2.7,6.1l-1.5,0.5
			c-0.1-0.2-0.3-0.7-0.6-1.4C238.1,279.2,235.3,279.6,231.7,280z M248.6,277.6H246l-0.2-1.4h1.9c0.7,0,1-0.3,1-0.8v-11.3h-4v16.6
			h-1.6v-17.8h7.3v13.2c0,0.5-0.2,0.8-0.5,1.1C249.5,277.5,249.1,277.6,248.6,277.6z"/>
		<path d="M271.5,272.3c-0.8,2.7-1.9,4.7-3.4,6s-3.4,1.9-5.8,1.9c-0.9,0-1.7-0.1-2.5-0.3s-1.3-0.5-1.8-0.8c-0.5-0.4-0.9-0.8-1.2-1.4
			c-0.3-0.5-0.5-1.1-0.6-1.8c-0.1-0.6-0.1-1.7-0.1-3.2c0-2.5,0.2-5.6,0.5-9.3h1.7c-0.4,3.5-0.5,6.6-0.5,9.4c0,1,0,1.8,0.1,2.4
			c0,0.7,0.2,1.3,0.6,1.8c0.4,0.6,0.9,1,1.6,1.3s1.6,0.4,2.6,0.4c1.9,0,3.4-0.5,4.6-1.6c1.2-1,2.2-2.9,3-5.5L271.5,272.3z"/>
		<path d="M282,280.1l-1.6,0.3c-0.5-2.3-1.4-6-2.7-11.1c-1.3,0.4-2.6,0.7-3.8,1.1l-0.3-1.4l3.7-1.1c-0.5-1.9-0.9-3.4-1.3-4.7
			l1.6-0.4l1.2,4.7c1.9-0.5,3.6-0.9,5.1-1.2c-0.6-0.9-1.2-1.8-1.8-2.5l1.3-0.7c0.4,0.5,1.1,1.4,2.1,2.8c1.2-0.2,2.2-0.3,2.9-0.3
			c1.4,0,2.6,0.4,3.5,1.2s1.3,1.9,1.3,3.3c0,1.4-0.5,2.5-1.5,3.4s-2.4,1.3-4.2,1.3c-1,0-1.9-0.1-2.7-0.3l0-1.3
			c0.7,0.1,1.5,0.2,2.3,0.2c0.6,0,1.2,0,1.7-0.1c0.5-0.1,0.9-0.3,1.4-0.5c0.4-0.3,0.8-0.6,1-1.1c0.2-0.4,0.3-0.9,0.3-1.5
			c0-1-0.3-1.8-0.8-2.4c-0.6-0.6-1.3-0.9-2.3-0.9c-0.5,0-1.2,0.1-2.1,0.2c0.4,0.7,0.9,1.4,1.2,2.1l-1.5,0.6
			c-0.2-0.6-0.7-1.4-1.3-2.4c-1.5,0.3-3.4,0.8-5.5,1.4L282,280.1z"/>
		<path d="M314.1,266.5h-6.5v3.9c0.5,0.8,0.7,1.9,0.7,3.3c0,1.8-0.7,3.3-2,4.5c-1.3,1.2-3,1.9-4.9,2L301,279c1.6-0.1,3-0.7,4.1-1.7
			c1.1-1,1.7-2.3,1.7-3.8c0-0.3,0-0.5,0-0.7c-0.2,0.8-0.6,1.4-1.2,1.9c-0.6,0.5-1.4,0.7-2.3,0.7c-1,0-1.8-0.3-2.5-0.9
			c-0.7-0.6-1-1.4-1-2.4c0-1.1,0.4-2,1.2-2.8c0.8-0.7,1.7-1.1,2.9-1.1c0.8,0,1.6,0.2,2.3,0.7v-2.5h-10.3v-1.3H306v-2.5h1.7v2.5h6.5
			V266.5z M306,270.7c-0.4-0.8-1.2-1.2-2.4-1.2c-0.6,0-1.1,0.3-1.6,0.7c-0.5,0.5-0.7,1-0.7,1.7c0,0.7,0.2,1.2,0.6,1.6
			s0.9,0.6,1.5,0.6c0.8,0,1.5-0.3,1.9-0.8c0.5-0.5,0.7-1.2,0.8-2.1V270.7z"/>
		<path d="M331.8,279.4l-1.3,1.3c-2.1-2-4.4-3.8-7-5.5c-0.5-0.3-1.2-0.7-2.1-1.3c-0.9-0.6-1.5-1-1.7-1.2c-0.2-0.2-0.4-0.4-0.6-0.7
			c-0.1-0.3-0.2-0.5-0.2-0.8c0-0.6,0.4-1.3,1.3-1.9c2.4-1.6,4.3-2.8,5.5-3.7s2.4-1.9,3.6-3l1.3,1.1c-2.4,2.1-5.3,4.1-8.6,6.2
			c-0.6,0.4-1,0.6-1.2,0.7s-0.2,0.3-0.2,0.5c0,0.2,0,0.3,0.1,0.4c0.1,0.1,0.5,0.4,1.2,0.9c2.7,1.8,4.8,3.2,6.1,4.1
			S330.7,278.4,331.8,279.4z"/>
		<path d="M342.3,279.6l-1.4,0.9c-0.9-1.5-2-2.9-3.2-4.4l1.2-0.8C340.4,277.1,341.6,278.5,342.3,279.6z"/>
		<path d="M373.8,264c-1.4,1.9-3.6,3.8-6.7,5.7s-6,3.2-8.5,3.9l-0.6-1.2c2.4-0.7,4.9-1.8,7.4-3.3c-0.8-0.6-1.8-1.3-3.1-2.2
			c-1.3,0.7-2.5,1.4-3.6,1.8l-0.7-1.1c3.9-1.8,6.8-3.8,8.6-6l1.6,0.3c-0.3,0.5-0.7,0.9-1,1.3h5.9L373.8,264z M377.1,271.4
			c-1.4,2.5-3.6,4.5-6.7,6.2c-3.1,1.7-6.8,2.8-11.3,3.2l-0.3-1.3c3.9-0.4,7.3-1.4,10.1-2.8c-1-0.8-2.1-1.6-3.4-2.5
			c-1.6,0.9-3.1,1.6-4.6,2.1l-0.6-1.1c1.8-0.7,3.7-1.6,5.6-2.8c1.9-1.2,3.5-2.5,4.8-4l1.5,0.4c-0.4,0.5-0.8,1-1.3,1.5h5.5
			L377.1,271.4z M371.6,264.4h-5.7c-0.8,0.6-1.6,1.2-2.4,1.8c1.3,0.8,2.3,1.5,3.2,2.2C368.8,267,370.4,265.7,371.6,264.4z
			 M375,271.7h-5.6c-0.8,0.6-1.7,1.2-2.7,1.8c0.9,0.6,2.1,1.4,3.6,2.4C372.4,274.7,374,273.3,375,271.7z"/>
		<path d="M394.8,279.4l-1.3,1.3c-2.1-2-4.4-3.8-7-5.5c-0.5-0.3-1.2-0.7-2.1-1.3c-0.9-0.6-1.5-1-1.7-1.2c-0.2-0.2-0.4-0.4-0.6-0.7
			c-0.1-0.3-0.2-0.5-0.2-0.8c0-0.6,0.4-1.3,1.3-1.9c2.4-1.6,4.3-2.8,5.5-3.7s2.4-1.9,3.6-3l1.3,1.1c-2.4,2.1-5.3,4.1-8.6,6.2
			c-0.6,0.4-1,0.6-1.2,0.7s-0.2,0.3-0.2,0.5c0,0.2,0,0.3,0.1,0.4c0.1,0.1,0.5,0.4,1.2,0.9c2.7,1.8,4.8,3.2,6.1,4.1
			S393.7,278.4,394.8,279.4z"/>
		<path d="M410,279.9l-0.4-1.4c2.2-0.2,4.1-0.8,5.6-1.9c1.6-1.1,2.3-2.7,2.3-4.8c0-1.9-0.6-3.4-1.9-4.4c-1.3-1-3-1.6-5.3-1.7
			c-0.1,3.7-0.7,6.7-2,9.2s-2.8,3.7-4.7,3.7c-1.2,0-2.1-0.5-2.7-1.5c-0.7-1-1-2.2-1-3.6c0-2.3,1-4.5,3-6.3c2-1.9,4.4-2.8,7.2-2.8
			c2.6,0,4.8,0.7,6.4,2c1.7,1.3,2.5,3.1,2.5,5.3c0,2.6-0.9,4.5-2.6,5.9S412.7,279.7,410,279.9z M408.8,265.8c-2,0.3-3.7,1.2-5.1,2.7
			c-1.4,1.5-2.1,3.2-2.1,5.1c0,1,0.2,1.8,0.6,2.5c0.4,0.7,1,1,1.7,1c1.3,0,2.4-1.2,3.3-3.6C408.2,271.2,408.7,268.6,408.8,265.8z"/>
		<path d="M421.6,280.9l-0.5-1.1c0.9-0.1,1.9-0.4,3.2-0.7c1.2-0.4,2.2-0.7,2.8-1l1,1c-0.8,0.4-1.8,0.8-3.1,1.1
			C423.6,280.5,422.5,280.7,421.6,280.9z M422.1,269.1l-0.9-0.9c1.3-0.8,2.6-1.7,3.7-2.7l1.1,0.6
			C424.9,267.2,423.7,268.2,422.1,269.1z M425.1,264.6c-0.6-0.4-1.5-0.8-2.8-1.3l0.8-0.9c0.8,0.3,1.7,0.7,2.8,1.3L425.1,264.6z
			 M423.1,277.8v-8h15.2v8H423.1z M424.6,272.1h12.1v-1.3h-12.1V272.1z M424.6,274.4h12.1V273h-12.1V274.4z M436.7,275.3h-12.1v1.4
			h12.1V275.3z M433,264.2c0,0.2,0,0.4-0.1,0.6c0.2,0.7,0.8,1.4,2,2.1c1.1,0.7,2.9,1.2,5.4,1.7l-0.6,1.1c-2.1-0.4-3.7-0.9-4.8-1.4
			c-1.1-0.5-1.9-1.2-2.4-1.9c-0.5,0.8-1.4,1.6-2.8,2.1s-2.7,0.9-4.1,1l-0.3-1c1.9-0.2,3.5-0.7,4.6-1.4s1.7-1.6,1.7-2.6v-0.1h-2.2
			c-0.8,0.8-1.5,1.4-2.1,1.7l-0.9-0.7c0.6-0.5,1.3-1,1.9-1.7c0.6-0.7,1.1-1.2,1.3-1.7l1.5,0.3c-0.3,0.4-0.6,0.8-0.8,1.1h8.7l0.3,0.5
			c-0.8,1.1-1.6,2.1-2.5,2.8l-1-0.5c0.4-0.4,0.9-0.9,1.4-1.7H433z M439.3,280.9c-3-0.6-5.1-1.2-6.5-1.9l0.9-1
			c1.8,0.7,3.9,1.3,6.3,1.6L439.3,280.9z"/>
		<path d="M444.9,268.7v1.8c0,2.2-0.2,4.2-0.7,6c-0.5,1.8-1.1,3.1-1.8,4.1l-1-0.7c1.3-2,2-5,2-8.9v-3.4h3.8l-1.2-2.9h-3.3v-1.2h8
			V262h1.6v1.5h7.9v1.2h-3.2l-1.5,2.9h5.2v1.1H444.9z M445.2,280.4v-1.2h7v-2.8h-4.8v-1.3h4.8v-2.4h-3.8c-0.7,1.1-1.3,1.9-2,2.6
			l-1.1-0.7c1.4-1.6,2.3-3.2,2.9-4.9l1.5,0.3c-0.2,0.5-0.4,1-0.7,1.5h3.1v-1.8h1.6v1.8h5.9v1.2h-5.9v2.4h5.1v1.3h-5.1v2.8h6.9v1.2
			H445.2z M448.8,267.6h5l1.3-2.9h-7.5L448.8,267.6z"/>
		<path d="M475.4,276.9h-1.5v-3.4c0-0.4,0-0.7,0-1c-3.1,1.6-4.7,3-4.7,4.3c0,0.6,0.4,1.2,1.1,1.5c0.7,0.4,2.2,0.6,4.4,0.6
			c2.7,0,4.8-0.1,6.4-0.4l0.1,1.5c-1.6,0.2-3.5,0.3-5.6,0.3c-3.3,0-5.4-0.3-6.4-0.9s-1.5-1.4-1.5-2.5c0-1,0.4-1.9,1.3-2.8
			c0.9-0.9,2.4-1.9,4.6-3c-0.3-0.6-0.8-0.9-1.5-0.9c-0.8,0-1.7,0.1-2.7,0.4c-0.9,0.3-2.1,1-3.5,2.2l-1.7,1.4l-0.9-1
			c2.5-1.9,4.4-4.2,5.6-6.7h-4.8v-1.3h5.3c0.3-0.8,0.6-1.6,0.7-2.5l1.7,0.1c-0.2,0.8-0.4,1.6-0.7,2.3h7.6v1.3h-8.2
			c-0.4,0.8-1,1.8-2,3.1l0.2,0.1c0.3-0.2,0.8-0.3,1.6-0.5s1.4-0.2,1.8-0.2c1.3,0,2.2,0.5,2.7,1.5l6-2.3l0.7,1.4
			c-1.4,0.5-3.5,1.2-6.3,2.3c0.1,0.5,0.1,1.2,0.1,1.9V276.9z"/>
		<path d="M484.9,280.7l-0.9-1c1.9-1.5,3.4-3.4,4.5-5.9c-0.8-0.7-1.8-1.4-2.9-2.2c-0.3,0.7-0.7,1.2-1,1.7l-1-0.6
			c0.7-1.1,1.2-2.5,1.8-4.1c0.5-1.6,0.9-3.2,1.2-4.7h-2.4v-1.1h8.1v1.1h-4.2c-0.2,0.9-0.4,1.9-0.7,3h3.9c0,3.2-0.6,6-1.9,8.4
			C488.2,277.6,486.7,279.4,484.9,280.7z M489.1,272.6c0.5-1.4,0.7-2.9,0.7-4.6h-2.7c-0.3,0.9-0.6,1.8-0.9,2.5
			C487.5,271.5,488.5,272.2,489.1,272.6z M497.7,277.4c-2.5,1.5-5.1,2.6-7.7,3.2l-0.5-1.1c2.7-0.8,5.2-1.9,7.6-3.3
			c-0.5-0.9-0.9-2-1.3-3.1l-3.9,0.2l-0.1-1.2l3.7-0.2c-0.2-0.6-0.3-1.4-0.4-2.1l-2.7,0.2l0-1.2l2.6-0.1c-0.1-0.7-0.1-1.4-0.2-2.1
			l-2.4,0.1l0-1.1l2.4-0.1c0-0.8-0.1-1.9-0.1-3.4h1.6c0,1,0,2.1,0,3.3l6-0.3l0,1.1l-6,0.3c0,0.7,0.1,1.4,0.2,2.1l5.8-0.3l0,1.2
			l-5.7,0.3c0.1,0.8,0.3,1.5,0.4,2.1l5.6-0.3l0.1,1.2l-5.3,0.3c0.3,0.8,0.6,1.6,1,2.3c1-0.7,1.7-1.3,2.2-1.8l1.2,0.9
			c-0.7,0.6-1.6,1.3-2.7,2.1c1,1.6,1.8,2.4,2.3,2.4c0.2,0,0.3-0.1,0.4-0.3c0.1-0.2,0.2-1.1,0.3-2.6l1.2,0.2c0,0.7,0,1.5-0.1,2.3
			c-0.1,0.9-0.2,1.4-0.5,1.7s-0.7,0.4-1.1,0.4c0,0-0.1,0-0.1,0s-0.2,0-0.4-0.1s-0.4-0.2-0.7-0.3s-0.5-0.4-0.8-0.7
			c-0.3-0.3-0.6-0.6-0.8-1C498.3,278.3,498,277.9,497.7,277.4z M499.5,265.1c-0.5-0.8-1.1-1.5-1.6-2.1l1.1-0.6l1.6,2L499.5,265.1z"
			/>
		<path d="M524.1,266.5h-6.5v3.9c0.5,0.8,0.7,1.9,0.7,3.3c0,1.8-0.7,3.3-2,4.5c-1.3,1.2-3,1.9-4.9,2L511,279c1.6-0.1,3-0.7,4.1-1.7
			c1.1-1,1.7-2.3,1.7-3.8c0-0.3,0-0.5,0-0.7c-0.2,0.8-0.6,1.4-1.2,1.9c-0.6,0.5-1.4,0.7-2.3,0.7c-1,0-1.8-0.3-2.5-0.9
			c-0.7-0.6-1-1.4-1-2.4c0-1.1,0.4-2,1.2-2.8c0.8-0.7,1.7-1.1,2.9-1.1c0.8,0,1.6,0.2,2.3,0.7v-2.5h-10.3v-1.3H516v-2.5h1.7v2.5h6.5
			V266.5z M516,270.7c-0.4-0.8-1.2-1.2-2.4-1.2c-0.6,0-1.1,0.3-1.6,0.7c-0.5,0.5-0.7,1-0.7,1.7c0,0.7,0.2,1.2,0.6,1.6
			s0.9,0.6,1.5,0.6c0.8,0,1.5-0.3,1.9-0.8c0.5-0.5,0.7-1.2,0.8-2.1V270.7z"/>
		<path d="M544.1,279.3c-2,0.3-4.3,0.5-6.9,0.5H536c-3.2,0-5.4-0.3-6.6-1c-1.1-0.7-1.7-1.6-1.7-2.8c0-1.5,0.7-2.8,2.1-4.1l1.1,0.8
			c-1.1,1.1-1.7,2.1-1.7,3.1c0,0.9,0.5,1.5,1.5,1.9c1,0.4,3,0.6,6.1,0.6c2.4,0,4.7-0.2,7-0.5L544.1,279.3z M543.4,266.2
			c-0.3,0.1-0.7,0.2-1.2,0.4c-0.4,0.2-0.8,0.3-1.1,0.5c-0.3,0.1-1.4,0.7-3.4,1.7l-0.7-1c0.7-0.4,1.7-0.9,3.1-1.6l0-0.2
			c-2.4,0-6.1,0.2-11,0.3l-0.1-1.4c2.7-0.1,6.4-0.2,11.1-0.2c1.5,0,2.5,0,3,0L543.4,266.2z"/>
		<path d="M565.1,279.8c-1.9,0.2-4,0.3-6.3,0.3c-1,0-2,0-3.2-0.1c-1.1,0-2.1-0.1-2.8-0.3c-0.7-0.2-1.4-0.4-2-0.8s-1-0.8-1.3-1.4
			c-0.3-0.5-0.4-1.1-0.4-1.8c0-2.3,1.9-4.3,5.6-5.9c-0.2-2.2-0.3-4.5-0.3-6.9h1.7c0,0.3,0,0.6,0,0.9c0,1.6,0.1,3.4,0.2,5.4
			c1.3-0.5,3.8-1.3,7.6-2.3l0.4,1.5c-1.1,0.3-2.8,0.8-5,1.4c-2.3,0.7-4,1.3-5.1,1.9c-1.1,0.6-2,1.2-2.5,1.9
			c-0.6,0.7-0.8,1.4-0.8,2.1c0,0.4,0.1,0.7,0.2,1s0.4,0.6,0.7,0.8c0.3,0.3,0.7,0.5,1.3,0.7c0.5,0.2,1.3,0.3,2.2,0.3
			c0.9,0,1.9,0.1,3,0.1c2.5,0,4.8-0.1,6.9-0.4V279.8z"/>
		<path d="M574.1,264.7c0,0.6,0,1.3-0.1,2.1h3.9c1,0,1.7,0.3,2.3,1c0.5,0.7,0.8,1.6,0.8,2.7c0,2.8-0.3,5-0.9,6.8
			c-0.6,1.8-1.6,2.7-3.1,2.7c-0.8,0-2-0.4-3.6-1.2l0.5-1.3c0.4,0.2,0.9,0.4,1.5,0.6c0.7,0.2,1.1,0.3,1.4,0.3c0.6,0,1-0.3,1.3-0.9
			c0.3-0.6,0.6-1.4,0.8-2.5c0.2-1.1,0.3-2.4,0.3-3.9c0-1.4-0.2-2.2-0.5-2.6c-0.4-0.4-0.8-0.5-1.5-0.5h-3.6c-0.2,2.3-0.8,4.6-1.7,6.7
			c-0.9,2.1-2,3.9-3.3,5.4l-1.2-0.8c0.9-1.1,1.8-2.5,2.7-4.4c0.9-1.9,1.5-4.1,1.8-6.6h-4V267h4.2c0-0.5,0.1-1.9,0.1-4.1h1.7V264.7z
			 M586.7,273.2l-1.6,0.4c-0.9-3.4-2.3-6.1-4.1-8l1.2-0.8c0.9,1,1.8,2.3,2.7,3.9C585.8,270.4,586.4,271.9,586.7,273.2z M584.8,264.8
			l-1.2,0.5c-0.5-1.1-1-2.1-1.5-2.9l1.1-0.5C583.9,262.9,584.4,263.9,584.8,264.8z M587.8,264.4l-1.2,0.5c-0.5-1.1-0.9-2-1.5-2.8
			l1.1-0.5C586.7,262.3,587.2,263.2,587.8,264.4z"/>
		<path d="M607,266.1h-5.1c-1.2,0.5-2.5,1.5-3.7,2.9c-1.2,1.4-1.8,2.9-1.8,4.4c0,1.2,0.3,2.2,0.9,3c0.6,0.8,1.5,1.4,2.5,1.7
			s2.4,0.5,4.2,0.5c0.4,0,0.8,0,1.2,0l-0.1,1.5h-0.1c-1.3,0-2.3,0-3.1-0.1c-0.8,0-1.7-0.2-2.6-0.5c-0.9-0.3-1.7-0.7-2.4-1.3
			c-0.7-0.6-1.2-1.3-1.6-2.1s-0.5-1.7-0.5-2.6c0-1.4,0.4-2.7,1.3-4.1c0.8-1.4,1.9-2.5,3.3-3.4h-10.3v-1.4H607V266.1z M604.5,270.5
			l-1.2,0.5c-0.5-1.1-1-2.1-1.5-2.9l1.1-0.5C603.5,268.6,604,269.5,604.5,270.5z M607.5,269.9l-1.2,0.5c-0.5-1.1-0.9-2-1.5-2.8
			l1.1-0.5C606.4,267.7,606.9,268.7,607.5,269.9z"/>
		<path d="M626.1,274.4l-1.1,1.1c-0.7-0.5-1.7-0.9-2.8-1.2c-1.1-0.3-2.2-0.4-3.2-0.4c-2.2,0-3.7,0.2-4.5,0.7
			c-0.8,0.5-1.1,1.1-1.1,1.9c0,0.7,0.4,1.3,1.3,1.7s2.6,0.6,5.2,0.6c2.3,0,4.3-0.1,6-0.4l0,1.5c-1.5,0.3-3.6,0.4-6.1,0.4
			c-2.9,0-5-0.3-6.2-0.9c-1.2-0.6-1.8-1.6-1.8-2.8c0-1.3,0.6-2.3,1.7-2.9c1.2-0.7,2.7-1,4.6-1c2.1,0,3.9,0.3,5.5,0.9
			c-0.7-0.9-1.3-1.9-1.9-3h-10.6v-1.3h10c-0.4-0.8-0.7-1.7-0.9-2.5h-8.5v-1.3h8c-0.2-0.9-0.4-1.7-0.5-2.6l1.6-0.1
			c0.2,1.2,0.4,2.1,0.5,2.7h5.9v1.3h-5.6c0.2,0.6,0.5,1.4,0.9,2.5h5.6v1.3h-5C623.9,271.6,624.8,272.9,626.1,274.4z"/>
		<path d="M649,277.9l-0.9,1.4c-1.6-1.2-3.7-2.3-6.2-3.2v1.5c0,1.8-1.6,2.6-4.9,2.6c-1.3,0-2.4-0.3-3.3-0.8
			c-0.9-0.6-1.4-1.3-1.4-2.3c0-1,0.4-1.8,1.3-2.4c0.9-0.6,2-0.9,3.2-0.9c1.3,0,2.5,0.1,3.4,0.4v-3h-7.8v-1.3h7.8v-3.1H632v-1.3h8.3
			v-2.2h1.6v2.2h7.6v1.3h-7.6v3.1h6.7v1.3h-6.7v3.4C645.1,275.8,647.4,276.9,649,277.9z M640.4,277.1v-1.4c-0.9-0.3-2-0.5-3.5-0.5
			c-0.8,0-1.4,0.2-2.1,0.5s-1,0.8-1,1.4c0,0.6,0.3,1,1,1.4c0.6,0.3,1.4,0.5,2.4,0.5c0.9,0,1.6-0.1,2-0.2c0.4-0.2,0.7-0.3,0.9-0.5
			C640.3,277.9,640.4,277.5,640.4,277.1z"/>
		<path d="M671.1,266.5h-6.5v3.9c0.5,0.8,0.7,1.9,0.7,3.3c0,1.8-0.7,3.3-2,4.5c-1.3,1.2-3,1.9-4.9,2L658,279c1.6-0.1,3-0.7,4.1-1.7
			c1.1-1,1.7-2.3,1.7-3.8c0-0.3,0-0.5,0-0.7c-0.2,0.8-0.6,1.4-1.2,1.9c-0.6,0.5-1.4,0.7-2.3,0.7c-1,0-1.8-0.3-2.5-0.9
			c-0.7-0.6-1-1.4-1-2.4c0-1.1,0.4-2,1.2-2.8c0.8-0.7,1.7-1.1,2.9-1.1c0.8,0,1.6,0.2,2.3,0.7v-2.5h-10.3v-1.3H663v-2.5h1.7v2.5h6.5
			V266.5z M663,270.7c-0.4-0.8-1.2-1.2-2.4-1.2c-0.6,0-1.1,0.3-1.6,0.7c-0.5,0.5-0.7,1-0.7,1.7c0,0.7,0.2,1.2,0.6,1.6
			s0.9,0.6,1.5,0.6c0.8,0,1.5-0.3,1.9-0.8c0.5-0.5,0.7-1.2,0.8-2.1V270.7z"/>
		<path d="M673.8,277.7c0-0.7,0.3-1.4,0.8-1.9c0.5-0.5,1.2-0.8,2-0.8s1.4,0.3,2,0.8c0.5,0.5,0.8,1.2,0.8,1.9s-0.3,1.4-0.8,1.9
			c-0.5,0.5-1.2,0.8-2,0.8s-1.4-0.3-2-0.8C674.1,279,673.8,278.4,673.8,277.7z M675,277.7c0,0.4,0.2,0.8,0.5,1.1s0.7,0.5,1.1,0.5
			s0.8-0.2,1.1-0.5s0.5-0.7,0.5-1.1s-0.2-0.8-0.5-1.1s-0.7-0.5-1.1-0.5s-0.8,0.2-1.1,0.5S675,277.2,675,277.7z"/>
	</g>
</g>
</svg>
