<?xml version="1.0" encoding="utf-8"?>
<!-- Generator: Adobe Illustrator 27.0.0, SVG Export Plug-In . SVG Version: 6.00 Build 0)  -->
<svg version="1.1" id="レイヤー_1" xmlns="http://www.w3.org/2000/svg" xmlns:xlink="http://www.w3.org/1999/xlink" x="0px"
	 y="0px" viewBox="0 0 1187 86" style="enable-background:new 0 0 1187 86;" xml:space="preserve">
<style type="text/css">
	.st0{fill:#7A3E3C;}
	.st1{fill-rule:evenodd;clip-rule:evenodd;fill:#E1D9D6;}
	.st2{fill-rule:evenodd;clip-rule:evenodd;fill:#D8CAC5;}
	.st3{fill-rule:evenodd;clip-rule:evenodd;fill:url(#SVGID_1_);}
	.st4{fill-rule:evenodd;clip-rule:evenodd;fill:#CBB5AD;}
	.st5{fill-rule:evenodd;clip-rule:evenodd;fill:url(#SVGID_00000095317585814304598410000004754724741686724244_);}
	.st6{fill-rule:evenodd;clip-rule:evenodd;fill:url(#SVGID_00000042700393053432440430000002471085356057707706_);}
	.st7{fill:#EACD00;}
	.st8{fill:#663411;}
	.st9{fill:url(#SVGID_00000039131645890785248530000001839638933451297935_);}
	.st10{fill:url(#SVGID_00000139996808211220642270000002599331873804492169_);}
	.st11{fill:url(#SVGID_00000083054172891144628920000002522424059627782823_);}
	.st12{fill:url(#SVGID_00000116219932031034918080000015914641256418843833_);}
	.st13{fill:url(#SVGID_00000158709781117017685020000000868885289797506487_);}
	.st14{fill:url(#SVGID_00000054248334950770655720000006731231910075604356_);}
	.st15{fill:url(#SVGID_00000127742267370910632560000000026335727243208097_);}
	.st16{fill:url(#SVGID_00000082368597230565034260000013210420954472079289_);}
	.st17{fill:url(#SVGID_00000035521441896667203510000012399102396263284377_);}
	.st18{fill:url(#SVGID_00000044154165973039321840000018140519016614556321_);}
	.st19{fill:url(#SVGID_00000036933265062728830310000014705716655176810895_);}
	.st20{fill:url(#SVGID_00000154404848592458609790000014540757397251226765_);}
	.st21{fill:url(#SVGID_00000009569403311278155380000001927949308484487565_);}
	.st22{fill:url(#SVGID_00000008135491808753019070000000572863948719702682_);}
	.st23{fill:url(#SVGID_00000125573675380294676750000008141489100567181756_);}
	.st24{fill:url(#SVGID_00000035520482086371498760000014205174526833054853_);}
	.st25{fill:url(#SVGID_00000163772034201217881550000014666325091594585006_);}
	.st26{fill:url(#SVGID_00000101791317061304729990000002516513718068850583_);}
	.st27{fill:url(#SVGID_00000149366605551321039490000013068529034812971965_);}
	.st28{fill:url(#SVGID_00000022524565296301769260000018328951894966707084_);}
	.st29{fill:url(#SVGID_00000036219082239960008010000006325392268496089272_);}
	.st30{fill:#231815;}
	.st31{fill:#2E2F29;}
</style>
<g>
	<g>
		<g>
			<path class="st0" d="M123.8,56.3c0.1,0.2,0.1,0.4,0.1,0.5c0,0.1,0,0.2-0.1,0.3c-0.3,0.1-0.6,0.1-0.8,0.1c-0.1,0-0.2,0-0.4,0
				c-0.2,0-0.4,0-0.5,0c-0.6,0-1,0.1-1.4,0.3c-0.2,0.1-0.4,0.3-0.4,0.5l-0.2,2.2l0.1,9.4c0,3.4,0.1,5.6,0.3,6.4
				c0.2,0.8,0.6,1.5,1.1,2.1c0.5,0.5,1.3,1,2.3,1.3c1,0.4,2,0.5,3,0.5c2.1,0,3.8-0.3,4.9-0.9c1.1-0.6,2-1.5,2.5-2.6
				c0.5-1.1,0.7-2.7,0.7-5c0-0.1,0-0.6-0.1-1.5v-0.5c0-0.2,0-0.6,0-1.2c0-0.6,0-0.9,0-1l-0.3-5.4c-0.1-1.8-0.2-2.9-0.3-3.2
				c-0.1-0.3-0.3-0.6-0.5-0.7c-0.5-0.4-1.4-0.7-2.8-0.9c-0.1-0.2-0.1-0.4-0.1-0.5c0.5-0.1,1-0.1,1.5-0.1c0.5,0,1,0,1.6,0.1
				c0.8,0.1,1.3,0.1,1.4,0.1l3-0.1l0.6,0l0,0.7c-1.6,0.2-2.5,0.4-2.8,0.7c-0.3,0.3-0.5,0.8-0.5,1.5c0,0.4,0,1.2,0.1,2.6l0.1,3.9
				l0,1.6l0.1,2c0,2.5-0.1,4.2-0.2,5c-0.2,1.2-0.5,2.2-0.9,3c-0.4,0.7-0.9,1.4-1.6,2c-0.7,0.6-1.7,1.1-2.8,1.4
				c-1.2,0.4-2.3,0.6-3.5,0.6c-1.8,0-3.1-0.1-3.9-0.4c-1.5-0.4-2.6-1-3.5-1.7c-0.9-0.7-1.5-1.4-1.8-2.1c-0.4-0.9-0.7-2.3-0.7-4.1
				v-1.3l-0.1-5.3l0.1-4.3v-2.9c0-0.7-0.1-1.2-0.3-1.5c-0.1-0.2-0.3-0.3-0.6-0.3l-1.1,0c-0.8,0-1.4-0.1-1.6-0.3
				c0-0.1-0.1-0.2-0.1-0.3c0-0.1,0-0.2,0.1-0.3c0.1-0.1,0.3-0.2,0.5-0.2h0.5l1.3,0h3L123.8,56.3z"/>
			<path class="st0" d="M141,80.6l-0.1-0.2c0-0.1,0.1-0.2,0.2-0.4l1.1-0.2l1.6-0.3c0.1-0.1,0.2-0.2,0.3-0.3c0.1-0.2,0.1-0.6,0.1-1.5
				c0-4.3,0-6.7-0.1-7.4c-0.1-0.7-0.2-1.1-0.3-1.3c-0.2-0.2-0.6-0.3-1.4-0.4c-0.4-0.1-0.8-0.1-1-0.2l0.1-0.6c1.3-0.5,2.2-1,2.7-1.4
				c0.6-0.6,1.2-1.3,1.6-2.2l0.6,0c0.1,0.6,0.1,2,0.1,4.2l0,0.3c0,0.1,0,0.2,0,0.4c0.5-0.9,1.1-1.7,1.8-2.4l0.4-0.4
				c0.2-0.2,0.3-0.4,0.5-0.5c0.9-0.5,1.5-0.8,2-0.8c0.6,0,1,0.2,1.4,0.6c0.4,0.4,0.5,0.8,0.5,1.4c0,0.4-0.1,0.8-0.4,1
				c-0.3,0.3-0.7,0.5-1.2,0.5c-0.2,0-0.6-0.1-1.2-0.3c-0.6-0.2-1-0.3-1.2-0.3c-0.4,0-0.6,0.1-0.7,0.2c-0.4,0.3-0.8,0.8-1.3,1.7
				c-0.4,0.6-0.6,1.2-0.6,1.8l0.1,3.1l0,3.8c0,0.4,0.1,0.7,0.2,0.8c0.1,0.1,0.2,0.2,0.4,0.3c1.4,0.1,2.2,0.2,2.4,0.2
				c0.2,0,0.3,0,0.4,0c0.5,0,0.9,0.1,1.1,0.2c0.1,0.1,0.2,0.2,0.2,0.3c0,0.1-0.1,0.2-0.2,0.3l-2.1,0l-0.8,0l-1.2,0h-1.9l-1,0.1
				L141,80.6z"/>
			<path class="st0" d="M153.8,56.9L153.8,56.9c0-0.2,0.1-0.4,0.2-0.6c1.4-0.2,2.9-0.6,4.4-1.1c0.1,0,0.2,0,0.4,0
				c0.1,0.2,0.1,0.3,0.1,0.4v5.6l0,1.8l0,2l0,1.6c0,0.1,0,0.3,0,0.6l1.6-0.6c0.2-0.1,0.7-0.2,1.6-0.5c1.2-0.2,1.9-0.3,2-0.3
				c1.3,0,2.4,0.2,3.4,0.6c0.6,0.3,1.2,0.7,1.8,1.3c0.6,0.6,1.1,1.2,1.3,1.9c0.5,1.2,0.8,2.2,0.8,3.1c0,1.4-0.1,2.3-0.3,2.9
				c-0.4,1.3-1,2.3-1.6,3c-0.6,0.7-1.5,1.4-2.6,1.9c-1.1,0.5-2.3,0.8-3.5,0.8c-1.1,0-2.2-0.2-3.3-0.6c-1-0.4-1.6-0.6-1.7-0.6
				c-0.4,0-0.9,0.5-1.5,1.5l-0.5,0c-0.1-0.8-0.1-1.9-0.1-3.1l0-2.8l0-1.4l0-4.1l0-0.8l0.1-1.9v-1.7l0-0.7c0-0.1,0-0.7,0-1.6v-1.1
				c0-2.2-0.1-3.5-0.3-3.8C155.8,57.7,155,57.3,153.8,56.9z M162.8,80.1c1.9,0,3.4-0.5,4.4-1.6c1-1.1,1.5-2.7,1.5-4.8
				c0-2-0.6-3.5-1.7-4.7c-1.1-1.2-2.5-1.8-4.2-1.8c-1.2,0-2.2,0.2-3,0.6c-0.5,0.2-0.8,0.5-0.8,0.7c-0.1,0.2-0.1,1.5-0.1,4
				c0,3,0.1,4.7,0.2,5.2c0.2,0.8,0.6,1.3,1.2,1.7C161.1,79.8,162,80.1,162.8,80.1z"/>
			<path class="st0" d="M188.4,78c0.1,0.2,0.1,0.3,0.1,0.4c0,0.2-0.2,0.5-0.5,1c-0.4,0.6-0.8,1.1-1.3,1.4c-0.3,0.2-0.7,0.3-1.3,0.3
				c-0.9,0-1.6-0.3-2-0.8c-0.3-0.3-0.5-0.9-0.6-1.8l-2.1,1.5c-0.7,0.4-1.3,0.7-1.7,0.8c-0.6,0.2-1.4,0.2-2.3,0.2
				c-0.6,0-1.2-0.2-1.5-0.6c-0.4-0.4-0.6-0.9-0.6-1.5c0-0.9,0.5-1.9,1.6-3.1c1.1-1.2,2.5-2.2,4.4-3c1.3-0.5,2.1-0.9,2.4-1
				c0-0.4,0-0.9,0-1.4c0-1.6-0.2-2.7-0.7-3.3c-0.4-0.6-1.1-0.8-1.9-0.8c-0.9,0-1.7,0.3-2.5,1c-0.5,0.4-0.8,1.2-1.1,2.4
				c-0.1,0.3-0.2,0.7-0.4,1.1c-0.5,0.4-1,0.5-1.3,0.5c-0.3,0-0.5-0.1-0.8-0.2c-0.1-0.1-0.2-0.2-0.2-0.3c0-0.3,0.4-1.1,1.1-2.2
				c0.7-1.2,1.6-2,2.7-2.6c1.1-0.6,2-0.9,2.8-0.9c1.1,0,1.9,0.1,2.4,0.3c0.5,0.2,1,0.5,1.4,1c0.4,0.5,0.7,1,0.7,1.6
				c0.1,0.3,0.1,1.3,0.1,3l-0.1,3l0,2.2c0,0.3,0,0.5,0,0.7c0,0.4,0,0.6,0,0.8c0,0.4,0.1,0.8,0.4,1c0.2,0.3,0.5,0.4,0.9,0.4
				c0.5,0,0.9-0.2,1.2-0.7l0.2-0.3C188,78.1,188.1,78.1,188.4,78z M182.8,77.5c0.1-1.6,0.1-2.7,0.1-3.4c0-0.3,0-0.8-0.1-1.4
				c-0.8,0.3-1.7,0.8-2.7,1.4c-0.9,0.6-1.7,1.3-2.3,2.1c-0.4,0.6-0.6,1.1-0.6,1.6c0,0.5,0.2,0.9,0.5,1.2c0.3,0.3,0.8,0.5,1.3,0.5
				c0.4,0,0.9-0.1,1.4-0.4C181.2,78.8,182,78.2,182.8,77.5z"/>
			<path class="st0" d="M189.4,80c0.3-0.1,0.7-0.2,1.1-0.2c0.8-0.1,1.3-0.2,1.4-0.4c0.2-0.2,0.2-0.5,0.2-1l0-0.7c0-0.3,0-0.6,0-1
				l0-5.8c0-0.8-0.1-1.3-0.3-1.5c-0.3-0.4-1-0.6-1.9-0.7V68c0.9-0.3,1.6-0.6,2.1-1c0.7-0.6,1.3-1.3,1.8-2.3l0.6,0
				c0,0.6,0.1,1,0.1,1.3v1.3l0,0.3c0.2-0.1,0.3-0.2,0.5-0.4c0.8-0.6,1.5-1,2.3-1.4s1.5-0.6,2.1-0.7c0.4-0.1,0.8-0.2,1.3-0.2
				c1,0,1.9,0.3,2.7,0.8s1.2,1.2,1.4,2c0.2,0.8,0.3,2.2,0.3,4.5V75c0,0.1,0,0.3,0,0.8c0,0.4,0,0.9,0,1.5c0,0.9,0,1.4,0.1,1.7
				c0.1,0.2,0.2,0.3,0.5,0.5c1.2,0.2,1.9,0.4,2.1,0.6v0.2c0,0.1,0,0.3-0.1,0.5h-0.4l-2.5,0l-2.5,0.1c-0.9,0-1.8,0-2.5,0l-0.1-0.4
				c0-0.1,0-0.2,0.1-0.3c0.3-0.2,0.8-0.3,1.4-0.3c0.4,0,0.6-0.1,0.8-0.1c0.1-0.1,0.3-0.2,0.5-0.3c0.2-0.3,0.2-0.6,0.2-0.8
				c0-0.1,0-0.3,0-0.5c0-0.6-0.1-2-0.1-4.3v-1l0-1.5c0-1.6-0.3-2.7-1-3.4c-0.7-0.6-1.5-0.9-2.6-0.9c-0.8,0-1.7,0.2-2.5,0.6
				c-0.8,0.4-1.6,0.9-2.3,1.7c0,0.6,0,1.1,0,1.5l0.1,4.2c0,2.2,0,3.5,0.1,4c0,0.2,0.1,0.3,0.1,0.4c0.1,0.1,0.3,0.2,0.6,0.2
				c0.3,0.1,0.7,0.2,1.1,0.3c0.4,0.1,0.7,0.2,0.8,0.2c0.3,0.1,0.4,0.2,0.5,0.4l0,0.4h-2l-4.1-0.1c-0.9,0-1.5,0-1.8,0h-0.5l0-0.2
				C189.4,80.3,189.4,80.1,189.4,80z"/>
			<path class="st0" d="M228.5,63.2c-1.5-2-2.5-3.4-3-4.3c-0.4-0.9-0.7-1.8-0.7-2.7c0-1.4,0.6-2.7,1.8-3.8c1.2-1.1,2.9-1.6,5.1-1.6
				c2,0,3.6,0.5,4.8,1.6c1.1,1,1.7,2.3,1.7,3.9c0,1.5-0.4,2.7-1.1,3.7c-0.8,1-2,1.9-3.7,2.6c0.6,0.8,1.5,1.9,2.7,3.3
				c0.4,0.5,0.7,0.8,1,1.1l4.2,5.2c1.4-1.6,2.4-3,3.1-4.3c0.7-1.3,1-2.3,1-2.9c0-0.5-0.2-0.9-0.5-1.2c-0.3-0.3-0.8-0.6-1.6-0.8
				c-0.1-0.2-0.1-0.3-0.1-0.4l0-0.2l2.8-0.3c0.6-0.1,1.4-0.1,2.4-0.2c1,0,2.5-0.1,4.4-0.3l0,0.3c0,0.1,0,0.2-0.1,0.4
				c-1.1,0.5-2.1,1-2.9,1.7c-0.8,0.6-2,1.9-3.7,3.8c-1.6,1.9-3.1,3.7-4.2,5.3c2.1,2.5,3.5,4,4.4,4.6c0.8,0.6,1.7,0.8,2.7,0.8
				c1.1,0,2-0.3,2.8-1c0.5-0.4,0.9-0.6,1.1-0.6c0.1,0,0.2,0,0.4,0.1c-0.4,1.5-0.7,2.4-1,2.7c-1.2,1-2.6,1.5-4.1,1.5
				c-0.9,0-1.8-0.1-2.6-0.4c-0.8-0.3-1.6-0.7-2.5-1.3c-0.5-0.4-1.3-1.1-2.5-2.2c-0.7-0.7-1.2-1.2-1.4-1.4c-1.3,1.3-2.3,2.2-2.9,2.7
				c-1.1,0.8-2.4,1.5-3.7,2c-1.3,0.5-2.9,0.7-4.6,0.7c-2.1,0-3.9-0.4-5.3-1.3c-1.4-0.9-2.4-2-3-3.4s-0.9-2.7-0.9-4
				c0-1,0.2-1.9,0.5-2.8c0.4-0.9,0.8-1.7,1.4-2.3s1.4-1.3,2.4-2c0.3-0.2,1.2-0.7,2.5-1.3C226.6,63.7,227.5,63.4,228.5,63.2z
				 M238.7,75.1l-0.2-0.3l-0.1-0.1l-5.5-6.5c-0.7-0.8-1.9-2.2-3.7-4.2c-2,0.8-3.6,1.9-4.7,3.3c-1.1,1.4-1.6,2.9-1.6,4.5
				c0,0.4,0.1,1.1,0.4,1.9c0.3,0.8,0.8,1.6,1.5,2.3c0.7,0.8,1.6,1.3,2.7,1.8c1.1,0.4,2.3,0.6,3.7,0.6c1.6,0,3.1-0.3,4.4-0.9
				C236.9,76.8,237.9,76,238.7,75.1z M232.5,61.6c0.9-0.4,1.6-1.1,2.2-2c0.5-0.9,0.8-1.9,0.8-3c0-1.6-0.4-2.7-1.1-3.6
				c-0.7-0.8-1.6-1.2-2.7-1.2c-1,0-1.8,0.3-2.4,0.9c-0.6,0.6-0.9,1.3-0.9,2.1c0,0.9,0.3,1.8,1,2.8C230.1,59.2,231.2,60.5,232.5,61.6
				z"/>
			<path class="st0" d="M292.1,57.7l0.2,2.9c0.1,0.9,0.1,1.5,0.1,1.8l-0.5,0.1c-0.8-1.9-1.9-3.4-3.2-4.3s-2.8-1.4-4.6-1.4
				c-2.2,0-4,0.3-5.2,0.8c-1.8,0.8-3.3,2.1-4.6,4c-1.3,1.9-1.9,4.2-1.9,6.9c0,1.5,0.2,2.9,0.7,4.2c0.5,1.2,1.1,2.4,2,3.4
				c0.9,1.1,1.9,2,3,2.8c0.8,0.5,1.7,0.9,2.7,1.2c0.6,0.1,1.5,0.2,2.7,0.2c0.8,0,1.6-0.1,2.5-0.3c0.9-0.2,1.6-0.5,2.1-0.9
				c0.5-0.4,0.8-0.8,1-1.2c0.2-0.5,0.3-1.3,0.3-2.6c0-2.2-0.1-3.4-0.4-3.8c-0.3-0.4-1.2-0.6-2.7-0.7l-0.8-0.1l-0.5,0
				c-0.1,0-0.2,0-0.3-0.1l-0.3-0.5c0-0.1,0-0.1,0.1-0.2c0.7-0.1,2.1-0.2,4.3-0.2c0.5,0,1.3,0,2.4,0l2,0.1l1.8,0c0.3,0,0.8,0,1.2,0
				c0.1,0,0.1,0,0.2,0.1c0,0,0,0.1,0,0.2c0,0.1,0,0.3-0.1,0.5c-0.5,0.1-0.9,0.2-1.2,0.2l-1.2,0c-0.4,0-0.8,0.1-1,0.4
				c-0.1,0.1-0.2,0.6-0.2,1.4l0,2.5c0,1.7-0.1,2.8-0.2,3.3c-0.1,0.3-0.2,0.5-0.5,0.7c-0.2,0.2-0.7,0.5-1.5,0.8
				c-1.1,0.4-2.1,0.7-3,0.9c-1.7,0.3-3.3,0.4-4.8,0.4c-2.5,0-4.5-0.3-6.1-1c-1.6-0.6-3-1.5-4.1-2.7c-1.2-1.1-2-2.3-2.5-3.4
				c-0.7-1.7-1.1-3.4-1.1-5.2c0-2.2,0.6-4.4,1.8-6.5c1.2-2.1,3.1-3.8,5.7-5.1c1.8-0.9,4.3-1.4,7.5-1.4c2.2,0,4,0.2,5.3,0.6
				C290.2,56.7,291.2,57.2,292.1,57.7z"/>
			<path class="st0" d="M312.1,78c0.1,0.2,0.1,0.3,0.1,0.4c0,0.2-0.2,0.5-0.5,1c-0.4,0.6-0.8,1.1-1.3,1.4c-0.3,0.2-0.7,0.3-1.3,0.3
				c-0.9,0-1.6-0.3-2-0.8c-0.3-0.3-0.5-0.9-0.6-1.8l-2.1,1.5c-0.7,0.4-1.3,0.7-1.7,0.8c-0.6,0.2-1.4,0.2-2.3,0.2
				c-0.6,0-1.2-0.2-1.5-0.6c-0.4-0.4-0.6-0.9-0.6-1.5c0-0.9,0.5-1.9,1.6-3.1c1.1-1.2,2.5-2.2,4.4-3c1.3-0.5,2.1-0.9,2.4-1
				c0-0.4,0-0.9,0-1.4c0-1.6-0.2-2.7-0.7-3.3c-0.4-0.6-1.1-0.8-1.9-0.8c-0.9,0-1.7,0.3-2.5,1c-0.5,0.4-0.8,1.2-1.1,2.4
				c-0.1,0.3-0.2,0.7-0.4,1.1c-0.5,0.4-1,0.5-1.3,0.5c-0.3,0-0.5-0.1-0.8-0.2c-0.1-0.1-0.2-0.2-0.2-0.3c0-0.3,0.4-1.1,1.1-2.2
				c0.7-1.2,1.6-2,2.7-2.6c1.1-0.6,2-0.9,2.8-0.9c1.1,0,1.9,0.1,2.4,0.3c0.5,0.2,1,0.5,1.4,1c0.4,0.5,0.7,1,0.7,1.6
				c0.1,0.3,0.1,1.3,0.1,3l-0.1,3l0,2.2c0,0.3,0,0.5,0,0.7c0,0.4,0,0.6,0,0.8c0,0.4,0.1,0.8,0.4,1c0.2,0.3,0.5,0.4,0.9,0.4
				c0.5,0,0.9-0.2,1.2-0.7l0.2-0.3C311.7,78.1,311.9,78.1,312.1,78z M306.6,77.5c0.1-1.6,0.1-2.7,0.1-3.4c0-0.3,0-0.8-0.1-1.4
				c-0.8,0.3-1.7,0.8-2.7,1.4c-0.9,0.6-1.7,1.3-2.3,2.1c-0.4,0.6-0.6,1.1-0.6,1.6c0,0.5,0.2,0.9,0.5,1.2c0.3,0.3,0.8,0.5,1.3,0.5
				c0.4,0,0.9-0.1,1.4-0.4C305,78.8,305.8,78.2,306.6,77.5z"/>
			<path class="st0" d="M313.2,80.6l-0.1-0.2c0-0.1,0.1-0.2,0.2-0.4l1.1-0.2l1.6-0.3c0.1-0.1,0.2-0.2,0.3-0.3
				c0.1-0.2,0.1-0.6,0.1-1.5c0-4.3,0-6.7-0.1-7.4c-0.1-0.7-0.2-1.1-0.3-1.3c-0.2-0.2-0.6-0.3-1.4-0.4c-0.4-0.1-0.8-0.1-1-0.2
				l0.1-0.6c1.3-0.5,2.2-1,2.7-1.4c0.6-0.6,1.2-1.3,1.6-2.2l0.6,0c0.1,0.6,0.1,2,0.1,4.2l0,0.3c0,0.1,0,0.2,0,0.4
				c0.5-0.9,1.1-1.7,1.8-2.4l0.4-0.4c0.2-0.2,0.3-0.4,0.5-0.5c0.9-0.5,1.5-0.8,2-0.8c0.6,0,1,0.2,1.4,0.6c0.4,0.4,0.5,0.8,0.5,1.4
				c0,0.4-0.1,0.8-0.4,1c-0.3,0.3-0.7,0.5-1.2,0.5c-0.2,0-0.6-0.1-1.2-0.3c-0.6-0.2-1-0.3-1.2-0.3c-0.4,0-0.6,0.1-0.7,0.2
				c-0.4,0.3-0.8,0.8-1.3,1.7c-0.4,0.6-0.6,1.2-0.6,1.8l0.1,3.1l0,3.8c0,0.4,0.1,0.7,0.2,0.8c0.1,0.1,0.2,0.2,0.4,0.3
				c1.4,0.1,2.2,0.2,2.4,0.2c0.2,0,0.3,0,0.4,0c0.5,0,0.9,0.1,1.1,0.2c0.1,0.1,0.2,0.2,0.2,0.3c0,0.1-0.1,0.2-0.2,0.3l-2.1,0l-0.8,0
				l-1.2,0h-1.9l-1,0.1L313.2,80.6z"/>
			<path class="st0" d="M339.2,66.9l0-0.5l0-2.2l0-4.2c0-1.2-0.1-1.9-0.4-2.2c-0.3-0.3-1-0.6-2.2-1c-0.1,0-0.2-0.1-0.4-0.1v-0.2
				c0-0.1,0-0.3,0-0.4c1.7-0.2,3.2-0.5,4.4-0.9l1,0c0.1,0.9,0.1,1.8,0.1,2.9l-0.1,7.3l0.1,8.2l-0.1,4.4c0,0.9,0.1,1.4,0.2,1.5
				c0.3,0.3,0.8,0.4,1.7,0.4c0.2,0,0.4,0,0.7,0v0.3c0,0.1,0,0.2,0,0.3c-0.4,0.1-0.8,0.2-1.2,0.2l-2.7,0.5c-0.4,0.1-0.7,0.1-1,0.1
				v-1.8c-0.2,0.1-0.5,0.2-1,0.4c-2,0.8-3.8,1.2-5.4,1.2c-1,0-2-0.3-3-1c-1-0.6-1.8-1.6-2.4-2.7c-0.6-1.2-0.8-2.3-0.8-3.6
				c0-1.1,0.2-2.1,0.5-3.1c0.4-1,0.8-1.8,1.4-2.5c0.4-0.4,0.9-0.9,1.6-1.3c0.7-0.4,1.3-0.7,1.7-0.8c1.1-0.3,1.9-0.4,2.3-0.4
				c1.7,0,3.1,0.3,4.2,0.8C338.8,66.7,339.1,66.8,339.2,66.9z M339.3,78.6c0.1-0.8,0.1-2.6,0.1-5.2c0-2.2-0.1-3.6-0.3-4.2
				c-0.2-0.6-0.7-1.1-1.6-1.7c-0.8-0.5-1.8-0.8-2.8-0.8c-1.4,0-2.7,0.6-3.7,1.7s-1.5,2.8-1.5,5c0,1.9,0.5,3.5,1.6,4.6
				c1.1,1.1,2.4,1.7,4.1,1.7c0.9,0,1.8-0.1,2.5-0.4C338.5,79,339,78.8,339.3,78.6z"/>
			<path class="st0" d="M359.8,70.6l-7.6,0.1l-1.4,0c-0.6,0-1.2,0-1.8,0.1c-0.1,0.4-0.2,0.6-0.2,0.8l0,0.2v0.2l0,0.9
				c0,0.8,0.2,1.7,0.7,2.8s1.2,2,2.1,2.6c0.9,0.6,2,0.9,3.4,0.9c0.7,0,1.3-0.1,1.7-0.3c0.4-0.1,1-0.5,1.8-1l1.4-1.1l0.1,0.8
				c0,0.1,0,0.2,0,0.3c-0.6,0.7-1.3,1.3-2.2,1.9c-0.9,0.5-1.8,0.9-2.7,1.2c-0.4,0.1-1.1,0.2-2.1,0.2c-0.9,0-1.8-0.2-2.7-0.5
				c-1.3-0.6-2.3-1.4-3-2.7c-0.7-1.2-1.1-2.7-1.1-4.5c0-0.6,0.1-1.3,0.3-2.1c0.2-0.9,0.6-1.8,1.1-2.8c0.4-0.7,0.8-1.2,1.3-1.6
				c0.8-0.6,1.4-1,2-1.3c0.8-0.3,1.8-0.5,2.9-0.5c1.2,0,2.1,0.2,2.9,0.6c1,0.6,1.8,1.3,2.3,2.2c0.5,0.9,0.7,1.7,0.7,2.5V70.6z
				 M349.2,69.9h0.9c0.6,0,2.6-0.1,5.8-0.3c0.5,0,0.8-0.1,0.9-0.2c0.2-0.2,0.3-0.5,0.3-0.6c0-0.4-0.1-0.8-0.4-1.3
				c-0.3-0.5-0.6-0.9-1.2-1.2c-0.5-0.3-1.1-0.4-1.8-0.4c-1.5,0-2.6,0.5-3.5,1.6C349.6,68.4,349.2,69.2,349.2,69.9z"/>
			<path class="st0" d="M361.7,80c0.3-0.1,0.7-0.2,1.1-0.2c0.8-0.1,1.3-0.2,1.4-0.4c0.2-0.2,0.2-0.5,0.2-1l0-0.7c0-0.3,0-0.6,0-1
				l0-5.8c0-0.8-0.1-1.3-0.3-1.5c-0.3-0.4-1-0.6-1.9-0.7V68c0.9-0.3,1.6-0.6,2.1-1c0.7-0.6,1.3-1.3,1.8-2.3l0.6,0
				c0,0.6,0.1,1,0.1,1.3v1.3l0,0.3c0.2-0.1,0.3-0.2,0.5-0.4c0.8-0.6,1.5-1,2.3-1.4c0.8-0.4,1.5-0.6,2.1-0.7c0.4-0.1,0.8-0.2,1.3-0.2
				c1,0,1.9,0.3,2.7,0.8s1.2,1.2,1.4,2c0.2,0.8,0.3,2.2,0.3,4.5V75c0,0.1,0,0.3,0,0.8c0,0.4,0,0.9,0,1.5c0,0.9,0,1.4,0.1,1.7
				c0.1,0.2,0.2,0.3,0.5,0.5c1.2,0.2,1.9,0.4,2.1,0.6v0.2c0,0.1,0,0.3-0.1,0.5h-0.4l-2.5,0l-2.5,0.1c-0.9,0-1.8,0-2.5,0l-0.1-0.4
				c0-0.1,0-0.2,0.1-0.3c0.3-0.2,0.8-0.3,1.4-0.3c0.4,0,0.6-0.1,0.8-0.1s0.3-0.2,0.5-0.3c0.2-0.3,0.2-0.6,0.2-0.8c0-0.1,0-0.3,0-0.5
				c0-0.6-0.1-2-0.1-4.3v-1l0-1.5c0-1.6-0.3-2.7-1-3.4c-0.7-0.6-1.5-0.9-2.6-0.9c-0.8,0-1.7,0.2-2.5,0.6c-0.8,0.4-1.6,0.9-2.3,1.7
				c0,0.6,0,1.1,0,1.5l0.1,4.2c0,2.2,0,3.5,0.1,4c0,0.2,0.1,0.3,0.1,0.4c0.1,0.1,0.3,0.2,0.6,0.2c0.3,0.1,0.7,0.2,1.1,0.3
				c0.4,0.1,0.7,0.2,0.8,0.2c0.3,0.1,0.4,0.2,0.5,0.4l0,0.4h-2l-4.1-0.1c-0.9,0-1.5,0-1.8,0h-0.5l0-0.2
				C361.6,80.3,361.6,80.1,361.7,80z"/>
		</g>
	</g>
	<g>
		<path class="st0" d="M307.4,40c1.3,1.5,3.6,2.8,5.7,3.3l0,0.1c-0.4,0.1-0.7,0.4-0.8,0.8c-2.1-0.8-4-2.2-5.2-4.1v4.2
			c0,0.1-0.4,0.3-0.7,0.3h-0.2v-3.9c-1.4,1.5-3.4,2.8-5.6,3.6l-0.1-0.2c2.1-1,4-2.5,5.2-4.1h-2.2v0.5c0,0.1-0.4,0.3-0.8,0.3h-0.1
			v-5.5l1,0.5h2.8v-1.4h-5.4l-0.1-0.4h5.5v-1.8l1.4,0.2c0,0.2-0.2,0.3-0.5,0.4V34h3.5l0.7-0.9c0,0,0.8,0.6,1.3,1.1
			c0,0.1-0.2,0.2-0.4,0.2h-5.2v1.4h2.8l0.5-0.6l1.1,0.9c-0.1,0.1-0.3,0.2-0.6,0.3v4.1c0,0.1-0.5,0.3-0.8,0.3H310V40H307.4z
			 M303.3,36.2v1.5h2.8v-1.5H303.3z M303.3,39.6h2.8v-1.5h-2.8V39.6z M307.1,36.2v1.5h2.9v-1.5H307.1z M310,39.6v-1.5h-2.9v1.5H310z
			"/>
		<path class="st0" d="M323.1,34.8c-0.1,0.1-0.3,0.2-0.6,0.2c-0.2,0.6-0.3,1.2-0.5,1.7c0.4,2.7,1.5,5.3,4.8,7l0,0.2
			c-0.5,0.1-0.8,0.2-0.9,0.8c-2.9-1.7-3.8-4.6-4.1-7.3c-1.2,3.2-3.4,5.9-7.7,7.3l-0.1-0.2c4.4-1.9,6.7-5.4,7.6-9.6h-3.3
			c-1,2.1-2.3,3.7-3.8,4.8l-0.2-0.1c1.6-1.7,3.1-4.3,3.8-7.4l1.5,0.4c-0.1,0.2-0.2,0.3-0.5,0.3c-0.2,0.6-0.4,1.1-0.6,1.6h3.1
			l0.6-0.6L323.1,34.8z"/>
		<path class="st0" d="M331.6,34.2c2.9,1.6,2.1,3.5,1.2,2.8c0-0.3-0.1-0.6-0.3-0.9c-1,0.5-2.2,1.2-3.9,2c0,0.2-0.1,0.3-0.3,0.3
			l-0.6-1.1c0.3-0.1,0.8-0.2,1.3-0.4v-4.2l1.1,0.5c0.9-0.4,1.9-0.8,2.5-1.2l1,0.9c-0.1,0.1-0.4,0.1-0.7,0c-0.8,0.2-2,0.5-3.1,0.7v3
			c0.7-0.2,1.6-0.5,2.4-0.8c-0.3-0.6-0.7-1.2-1-1.6L331.6,34.2z M337.9,38.4l1.1,0.8c-0.1,0.1-0.3,0.2-0.6,0.3v4.8
			c0,0.1-0.5,0.3-0.8,0.3h-0.1v-0.8h-6.9v0.6c0,0.1-0.4,0.3-0.7,0.3h-0.2v-6.2l1,0.5h6.7L337.9,38.4z M330.6,39.3v1.8h3v-1.8H330.6z
			 M330.6,43.4h3v-1.9h-3V43.4z M340.1,33.4c-0.1,0.1-0.3,0.2-0.5,0.2c-0.1,2.3-0.5,3.7-1,4.1c-0.3,0.3-0.8,0.4-1.3,0.4
			c0-0.2,0-0.5-0.2-0.6c-0.2-0.1-0.6-0.2-1.1-0.3l0-0.2c0.5,0,1.3,0.1,1.5,0.1c0.2,0,0.4,0,0.5-0.1c0.3-0.3,0.6-1.5,0.7-3.5h-2.1
			c-0.2,1.9-0.7,3.7-3.8,5l-0.2-0.2c2.5-1.4,2.9-3.1,3-4.8h-1.7l-0.1-0.4h4.8l0.5-0.5L340.1,33.4z M334.5,39.3v1.8h3v-1.8H334.5z
			 M337.5,43.4v-1.9h-3v1.9H337.5z"/>
		<path class="st0" d="M348.4,37.7c1.3,2.1,3.6,4,5.7,4.8l0,0.1c-0.4,0-0.7,0.3-0.9,0.7c-2-1.1-4-3.1-5.1-5.6v6.5
			c0,0.1-0.4,0.4-0.7,0.4h-0.2v-6.2c-1.3,2.1-3.4,3.8-5.8,5.1l-0.2-0.2c2.2-1.4,4.2-3.5,5.3-5.6h-4.9l-0.1-0.4h5.7v-5.1l1.4,0.2
			c0,0.2-0.1,0.3-0.5,0.4v4.6h3.8l0.7-0.9c0,0,0.8,0.6,1.3,1c0,0.1-0.2,0.2-0.3,0.2H348.4z M342.9,33c3.4,1.8,2.8,4,1.8,3.3
			c-0.2-1-1.2-2.4-1.9-3.2L342.9,33z M352.8,33.6c-0.1,0.1-0.3,0.2-0.5,0.2c-0.9,1.1-2,2.1-2.9,2.8l-0.2-0.2
			c0.7-0.8,1.6-2.2,2.3-3.5L352.8,33.6z"/>
		<path class="st0" d="M366.4,35.2c0,0,0.8,0.6,1.3,1c0,0.1-0.2,0.2-0.4,0.2h-3.5l1.4,0.3c-0.1,0.2-0.2,0.3-0.5,0.3
			c-0.4,0.6-1.1,1.3-1.7,1.9h2.4l0.7-0.8c0,0,0.8,0.6,1.3,1c0,0.2-0.2,0.2-0.4,0.2h-5.1v2.1h2.9l0.7-0.8c0,0,0.8,0.6,1.3,1
			c0,0.1-0.2,0.2-0.3,0.2h-4.5v2.6c0,0.1-0.3,0.3-0.8,0.3h-0.2v-2.8h-4.7l-0.1-0.4h4.8v-2.1h-5.3l-0.1-0.4h7.2
			c0.4-0.7,0.8-1.7,1-2.5h-8.4l-0.1-0.4h5.8v-1.9h-4.3l-0.1-0.4h4.4v-1.7l1.4,0.1c0,0.2-0.2,0.3-0.4,0.4v1.2h2.6l0.7-0.8
			c0,0,0.8,0.6,1.3,1c0,0.1-0.2,0.2-0.4,0.2h-4.2V36h3.8L366.4,35.2z M358.3,36.4c2.6,1.1,1.6,3.1,0.7,2.2c0-0.7-0.4-1.6-0.8-2.1
			L358.3,36.4z"/>
		<path class="st0" d="M374.5,32.7l1.1,0.8c-0.1,0.1-0.3,0.2-0.6,0.3v8.6c0,0.1-0.4,0.3-0.7,0.3h-0.1v-1h-3.9v1.1
			c0,0.1-0.3,0.3-0.7,0.3h-0.2V32.8l0.9,0.5h3.7L374.5,32.7z M370.2,33.7v3.6h1.5v-3.6H370.2z M370.2,41.3h1.5v-3.7h-1.5V41.3z
			 M372.5,33.7v3.6h1.6v-3.6H372.5z M374.2,41.3v-3.7h-1.6v3.7H374.2z M380.4,32.7c0,0,0.8,0.6,1.2,1c0,0.1-0.2,0.2-0.4,0.2h-2v9.3
			c0,0.7-0.2,1.3-1.5,1.4c0-0.3-0.1-0.5-0.3-0.7c-0.2-0.2-0.6-0.3-1.3-0.4v-0.2c0,0,1.5,0.1,1.8,0.1c0.3,0,0.4-0.1,0.4-0.3v-9.2
			h-2.6l-0.1-0.4h4.1L380.4,32.7z"/>
	</g>
	<g>
		<polygon class="st1" points="37.9,5.5 18.9,16.4 37.9,5.5 47.4,0 47.4,0 		"/>
		<polygon class="st1" points="37.9,5.5 37.9,5.5 18.9,16.4 		"/>
		<polygon class="st1" points="47.4,0 37.9,5.5 37.9,5.5 47.4,0 47.4,0 		"/>
		<polygon class="st2" points="56.8,27.3 56.8,81.9 37.9,81.9 37.9,38.2 		"/>
		<polygon class="st1" points="94.7,27.3 94.7,81.9 75.8,81.9 75.8,38.2 		"/>
		<linearGradient id="SVGID_1_" gradientUnits="userSpaceOnUse" x1="70.7584" y1="32.2438" x2="96.3198" y2="71.6049">
			<stop  offset="4.402730e-02" style="stop-color:#000000"/>
			<stop  offset="9.548742e-02" style="stop-color:#272727"/>
			<stop  offset="0.1876" style="stop-color:#686868"/>
			<stop  offset="0.2755" style="stop-color:#9E9E9E"/>
			<stop  offset="0.3567" style="stop-color:#C8C8C8"/>
			<stop  offset="0.4297" style="stop-color:#E6E6E6"/>
			<stop  offset="0.4921" style="stop-color:#F8F8F8"/>
			<stop  offset="0.5364" style="stop-color:#FFFFFF"/>
		</linearGradient>
		<polygon class="st3" points="94.7,27.3 94.7,81.9 75.8,81.9 75.8,38.2 		"/>
		<polygon class="st4" points="18.9,16.4 18.9,81.9 0,81.9 0,27.3 		"/>
		<polygon class="st1" points="66.3,10.9 18.9,38.2 18.9,16.4 47.4,0 		"/>
		
			<linearGradient id="SVGID_00000126303976135897107780000001954514048825321900_" gradientUnits="userSpaceOnUse" x1="13.2691" y1="20.1518" x2="61.9323" y2="17.6014">
			<stop  offset="0" style="stop-color:#000000"/>
			<stop  offset="8.064883e-03" style="stop-color:#0A0A0A"/>
			<stop  offset="5.472636e-02" style="stop-color:#3D3D3D"/>
			<stop  offset="0.1047" style="stop-color:#6B6B6B"/>
			<stop  offset="0.1568" style="stop-color:#939393"/>
			<stop  offset="0.2117" style="stop-color:#B4B4B4"/>
			<stop  offset="0.27" style="stop-color:#D0D0D0"/>
			<stop  offset="0.3331" style="stop-color:#E5E5E5"/>
			<stop  offset="0.4032" style="stop-color:#F4F4F4"/>
			<stop  offset="0.486" style="stop-color:#FCFCFC"/>
			<stop  offset="0.6131" style="stop-color:#FFFFFF"/>
		</linearGradient>
		
			<polygon style="fill-rule:evenodd;clip-rule:evenodd;fill:url(#SVGID_00000126303976135897107780000001954514048825321900_);" points="
			66.3,10.9 18.9,38.2 18.9,16.4 47.4,0 		"/>
		<polygon class="st1" points="94.7,27.3 75.8,38.2 56.8,49.1 56.8,27.3 75.8,16.4 		"/>
		
			<linearGradient id="SVGID_00000152974498215999458840000008477183978964041115_" gradientUnits="userSpaceOnUse" x1="47.8988" y1="32.7477" x2="85.7926" y2="32.7477">
			<stop  offset="8.637680e-02" style="stop-color:#000000"/>
			<stop  offset="0.1027" style="stop-color:#0C0C0C"/>
			<stop  offset="0.1989" style="stop-color:#4B4B4B"/>
			<stop  offset="0.2939" style="stop-color:#828282"/>
			<stop  offset="0.3854" style="stop-color:#AFAFAF"/>
			<stop  offset="0.4727" style="stop-color:#D2D2D2"/>
			<stop  offset="0.5548" style="stop-color:#EBEBEB"/>
			<stop  offset="0.6296" style="stop-color:#FAFAFA"/>
			<stop  offset="0.6903" style="stop-color:#FFFFFF"/>
		</linearGradient>
		
			<polygon style="fill-rule:evenodd;clip-rule:evenodd;fill:url(#SVGID_00000152974498215999458840000008477183978964041115_);" points="
			94.7,27.3 75.8,38.2 56.8,49.1 56.8,27.3 75.8,16.4 		"/>
	</g>
	<g>
		<g id="XMLID_00000060022004330671312780000005072499034874294445_">
			<path id="XMLID_00000101074491948531210350000016873973654450469043_" class="st0" d="M122.8,36.6c0,0,0.9,0,1.3,0
				c0.4,0,1,0.1,1,0.6c0,0.5,0,4.6,0,4.6s-1.5,0.5-4.2,0.5c-2.7,0-6.2-1.5-6.2-5.5c0-4.1,3.7-5.6,6.5-5.6c1.2,0,2.8,0.1,2.8,0.8v1.4
				c-1-0.9-1.5-1-3.1-1c-1.6,0-4.4,1-4.4,4.4c0,3.4,3.8,5.4,7,4.1c0,0,0-2.1,0-2.6C123.5,37.6,123.5,36.6,122.8,36.6z"/>
			<path id="XMLID_00000172398131125417008510000013242394590300169097_" class="st0" d="M142.8,42h3.4c-0.9-0.3-1.3-1.5-1.6-2.3
				c-0.3-0.8-2.8-6.7-3-7.5c-0.3-0.8-0.7-0.8-1-0.8c-0.3,0-1.9,0-1.9,0c0.9,0.3,0.4,1,0.3,1.4c-0.2,0.5-3.4,8.5-3.4,8.5
				c-1.1-0.3-4-4.4-4-4.4c3.8-1.1,3.2-5.5-0.5-5.5c-0.4,0-4.2,0-4.2,0c0.9,0.2,0.8,1.1,0.8,1.8c0,0.7,0,6.3,0,7.3
				c0,1-0.3,1.3-0.8,1.5h3.1c-0.9-0.4-0.6-1.3-0.6-1.7c0-0.4,0-7.9,0-7.9s0.8,0,1.7,0c0.9,0,1.5,1.1,1.5,1.8c0,1.2-0.9,1.7-1.9,2
				c-0.9,0.3-0.4,1.1,0,1.7c0.4,0.6,1.7,2.4,2.4,3.2c0.7,0.9,1.4,0.8,1.7,0.8c0.3,0,2.8,0,2.8,0c-1.1-0.3-0.5-1.2-0.3-1.6
				c0.2-0.4,0.9-2.2,0.9-2.2h4.2c0,0,0.5,1.3,1,2.5C143.7,41.8,143.3,41.9,142.8,42z M138.5,36.9l1.6-4.1l1.7,4.1H138.5z"/>
			<path id="XMLID_00000015333569720899224690000007745066969229047989_" class="st0" d="M176.7,42h3.4c-0.9-0.3-1.3-1.5-1.6-2.3
				c-0.3-0.8-2.8-6.7-3-7.5c-0.3-0.8-0.7-0.8-1-0.8c-0.3,0-1.9,0-1.9,0c0.9,0.3,0.4,1,0.3,1.4c-0.2,0.5-3.4,8.5-3.4,8.5
				c-0.2,0.5-0.5,0.5-0.7,0.7c0.4,0,2.8,0,2.8,0c-1.1-0.3-0.5-1.2-0.4-1.6c0.2-0.4,0.9-2.2,0.9-2.2h4.2c0,0,0.5,1.3,1,2.5
				C177.6,41.8,177.3,41.9,176.7,42z M172.4,36.9l1.6-4.1l1.7,4.1H172.4z"/>
			<path id="XMLID_00000151517594621022713910000018379185299057647290_" class="st0" d="M164.8,42.2c0.4-0.3,0.7-0.6,0.7-1.9
				c0-1.2,0-6.7,0-7.3c0-0.6,0-1.2-0.7-1.5h3c-0.3,0.3-0.7,0.6-0.7,1.4c0,0.8,0,6.7,0,7.4c0,0.7-0.1,1.6,0.7,1.9H164.8z"/>
			<path id="XMLID_00000091013888618770094780000010215711083904283283_" class="st0" d="M148.8,33.9c0,0,0,5.8,0,6.5
				c0,0.7,0.1,1.6,0.9,1.9h-2.8c0.4-0.3,0.7-0.6,0.7-1.9c0-1.2,0.1-6.7,0.1-7.3c0-0.6-0.1-1.2-0.8-1.5h2.2l6.5,8.2c0,0,0-6.2,0-6.6
				c0-0.4,0.1-1.2-0.8-1.5h2.9c-0.3,0.3-0.9,0.4-0.9,1.5c0,1.1,0,9.6,0,9.6s-0.8,0.1-2.1-1.4C153.3,39.6,148.8,33.9,148.8,33.9z"/>
			<path id="XMLID_00000024723953843839724440000000975129482945720457_" class="st0" d="M167.3,50.4c-8.5-7.2-11.8-15.6-0.1-27.1
				c0.4-0.4,0.7-0.1,0.4,0.2c-5.1,5.8-10.8,15.1-0.1,26.6C167.6,50.3,167.6,50.6,167.3,50.4z"/>
		</g>
	</g>
</g>
<g>
	<g>
		<g>
			<path class="st7" d="M1085.5,84.4c-16.3,0-28-0.1-35-0.1c-2.9,0-5.1,0-6.3,0c-0.7,0-2-0.1-2-1c0-0.8,0.6-1.5,2.3-2.9
				c10.2-8.9,19.9-17.6,26.6-26.4c7.2-9.4,10.5-18.2,10.5-27.7c0-6.9-1.9-12.1-5.8-15.6c-2.9-2.6-7-4.1-11.2-4.1
				c-2.1,0-5.2,0.2-8.2,1c-3.1,0.8-5.3,2.1-6.8,3.8c-1,1.1-1.4,2.6-1.3,7.5c0,0.9,0,1.5-0.3,1.5c-0.3,0-0.4-0.4-0.5-1.3
				c-0.3-2.4-0.6-8.9-0.5-11c0-0.6,0.2-1,1.1-1.4c2.4-1.1,8.9-3.7,18.7-3.7c7.5,0,13.7,2.2,18,6.5c3.9,3.8,6,9.1,6,14.9
				c0,21.3-22.5,40.5-35.9,52c-0.4,0.3-0.8,0.7-1.1,1c-0.3,0.3-0.4,0.5-0.4,0.6c0.1,0.2,0.4,0.2,0.8,0.2h7.8c4.2,0,14.9-0.1,23-0.7
				c4.7-0.3,6.9-1.3,8.4-8.6c0.2-1.3,0.4-1.6,0.6-1.6c0,0,0,0,0.1,0c0.1,0.1,0.2,0.6,0.1,1.6c-0.1,1.6-1.8,8.7-3.2,13.4
				C1090.3,84.3,1089.9,84.4,1085.5,84.4"/>
			<path class="st8" d="M1093.9,67.2c0,2.8-2.3,11.6-6.4,13.2c1.1,1.1,2.2,2.8,2.6,3.5c0.4-0.3,0.6-0.8,0.9-1.6
				c1.4-4.8,3.1-11.8,3.2-13.4C1094.3,67.9,1094.2,67.2,1093.9,67.2"/>
			
				<linearGradient id="SVGID_00000072999903891825770950000003434167726286965384_" gradientUnits="userSpaceOnUse" x1="-116.0278" y1="-351.3048" x2="-115.0278" y2="-351.3048" gradientTransform="matrix(19.815 -71.9381 -71.9381 -19.815 -21922.3027 -15226.8018)">
				<stop  offset="0" style="stop-color:#663411"/>
				<stop  offset="0.278" style="stop-color:#663411"/>
				<stop  offset="0.951" style="stop-color:#EACD00"/>
				<stop  offset="1" style="stop-color:#EACD00"/>
			</linearGradient>
			<path style="fill:url(#SVGID_00000072999903891825770950000003434167726286965384_);" d="M1050.2,78.2c3.3-3.2,7.6-7,13.5-12.5
				c19.3-18.3,25.4-33.7,22-46.8C1082.1,5,1065,0.8,1049.7,8.3c-2.3,2.9-1.8,8.7-1.5,12.2c0.3,0,0.3-0.7,0.3-1.6
				c-0.1-3.7,0-6,1.3-7.4c3.2-3.7,9.9-4.8,15-4.8c7.1,0,16.9,4.5,16.9,19.7c0,20.4-15.7,35.3-37.1,54c-1.7,1.5-2.3,2.1-2.3,3
				c0,0.1,0,0.2,0,0.3c0.4-0.1,6.3-2.1,7.4-2.4C1049.6,80.4,1049.7,78.7,1050.2,78.2"/>
			
				<linearGradient id="SVGID_00000097495143422582354910000001179305539072391848_" gradientUnits="userSpaceOnUse" x1="-3.4543" y1="-1151.4346" x2="-2.4541" y2="-1151.4346" gradientTransform="matrix(2.6064 0 0 -2.6064 1055.0535 -2987.2539)">
				<stop  offset="0" style="stop-color:#EACD00"/>
				<stop  offset="0.934" style="stop-color:#EACD00"/>
				<stop  offset="1" style="stop-color:#EACD00"/>
			</linearGradient>
			<path style="fill:url(#SVGID_00000097495143422582354910000001179305539072391848_);" d="M1049.7,8.3c-1.3-0.6-2-1-2.3-1.2
				c-0.2,0.3-0.3,0.6-0.3,0.9c-0.1,2.2,0.2,8.7,0.5,11.1c0.1,1,0.2,1.4,0.5,1.4c0,0,0,0,0,0C1047.9,17,1047.3,11.2,1049.7,8.3"/>
			
				<linearGradient id="SVGID_00000120528775137936111960000012814643470120557205_" gradientUnits="userSpaceOnUse" x1="-94.7122" y1="-295.4406" x2="-93.7121" y2="-295.4406" gradientTransform="matrix(-47.8699 0 0 47.8699 -3439.7092 14225.1377)">
				<stop  offset="0" style="stop-color:#663411"/>
				<stop  offset="2.400000e-02" style="stop-color:#663411"/>
				<stop  offset="0.162" style="stop-color:#EACD00"/>
				<stop  offset="1" style="stop-color:#EACD00"/>
			</linearGradient>
			<path style="fill:url(#SVGID_00000120528775137936111960000012814643470120557205_);" d="M1049.6,81.2c-1.1,0.3-6.9,2.3-7.4,2.4
				c0.2,0.6,1.1,0.8,2,0.8c4.1,0,18.2,0.1,41.3,0.1c2.7,0,3.9,0,4.6-0.6c-0.3-0.7-1.4-2.3-2.6-3.5
				C1085.9,81.2,1060.8,81.2,1049.6,81.2"/>
			
				<linearGradient id="SVGID_00000003096501609418247480000003034676278412729771_" gradientUnits="userSpaceOnUse" x1="-64.1321" y1="-329.5913" x2="-63.1322" y2="-329.5913" gradientTransform="matrix(-22.3395 70.424 70.424 22.3395 22851.0078 11886.9932)">
				<stop  offset="0" style="stop-color:#663411"/>
				<stop  offset="0.413" style="stop-color:#663411"/>
				<stop  offset="1" style="stop-color:#EACD00"/>
			</linearGradient>
			<path style="fill:url(#SVGID_00000003096501609418247480000003034676278412729771_);" d="M1053.9,77.3c13.2-11.3,37.1-31,37.1-53
				c0-11.3-8-21.5-24-21.5c-10.1,0-16.7,2.8-18.7,3.7c-0.4,0.2-0.7,0.4-0.8,0.5c0.3,0.2,1,0.6,2.3,1.2c15.4-7.5,32.5-3.3,36.1,10.6
				c3.4,13-2.8,28.4-22,46.8c-5.9,5.6-10.2,9.3-13.5,12.5l3.3-0.3C1053.5,77.9,1053.6,77.6,1053.9,77.3"/>
			
				<linearGradient id="SVGID_00000044151070256547694660000012614287612934437524_" gradientUnits="userSpaceOnUse" x1="-89.3564" y1="-366.0569" x2="-88.3564" y2="-366.0569" gradientTransform="matrix(83.051 -6.8692 -6.8692 -83.051 5926.9292 -30935.4941)">
				<stop  offset="0" style="stop-color:#663411"/>
				<stop  offset="0.242" style="stop-color:#663411"/>
				<stop  offset="0.364" style="stop-color:#663411"/>
				<stop  offset="0.82" style="stop-color:#663411"/>
				<stop  offset="0.911" style="stop-color:#EACD00"/>
				<stop  offset="1" style="stop-color:#EACD00"/>
			</linearGradient>
			<path style="fill:url(#SVGID_00000044151070256547694660000012614287612934437524_);" d="M1093.3,68.8c-1.6,7.4-3.9,8.2-8.4,8.5
				c-8.9,0.6-21.1,0.6-23,0.6h-7.8c-0.4,0-0.6,0-0.7,0l-3.3,0.3c-0.5,0.5-0.7,2.2-0.6,2.9c11.2,0,36.3,0.1,37.9-0.7
				c4.1-1.6,6.4-10.3,6.4-13.2C1093.7,67.2,1093.5,67.7,1093.3,68.8"/>
			
				<linearGradient id="SVGID_00000047772817998973842070000007769225512900081590_" gradientUnits="userSpaceOnUse" x1="-84.2831" y1="-396.065" x2="-83.2831" y2="-396.065" gradientTransform="matrix(39.4568 0 0 -39.4568 4373.8247 -15553.2471)">
				<stop  offset="0" style="stop-color:#341000"/>
				<stop  offset="4.599999e-02" style="stop-color:#341000"/>
				<stop  offset="0.136" style="stop-color:#341000;stop-opacity:0.2"/>
				<stop  offset="0.337" style="stop-color:#341000;stop-opacity:0.5"/>
				<stop  offset="0.632" style="stop-color:#341000;stop-opacity:0.2"/>
				<stop  offset="0.856" style="stop-color:#341000;stop-opacity:0.5"/>
				<stop  offset="0.994" style="stop-color:#341000;stop-opacity:0"/>
				<stop  offset="1" style="stop-color:#341000;stop-opacity:0"/>
			</linearGradient>
			<path style="fill:url(#SVGID_00000047772817998973842070000007769225512900081590_);" d="M1093.3,68.8c-1.6,7.4-3.9,8.2-8.4,8.5
				c-8.9,0.6-21.1,0.6-23,0.6h-7.8c-0.4,0-0.6,0-0.7,0l-3.3,0.3c-0.5,0.5-0.7,2.2-0.6,2.9c11.2,0,36.3,0.1,37.9-0.7
				c4.1-1.6,6.4-10.3,6.4-13.2C1093.7,67.2,1093.5,67.7,1093.3,68.8"/>
			
				<linearGradient id="SVGID_00000163056107018107156880000000219200663312445363_" gradientUnits="userSpaceOnUse" x1="-84.7568" y1="-391.6978" x2="-83.7568" y2="-391.6978" gradientTransform="matrix(43.0216 0 0 -43.0216 4687.8301 -16768.834)">
				<stop  offset="0" style="stop-color:#EACD00"/>
				<stop  offset="7.200000e-02" style="stop-color:#EACD00"/>
				<stop  offset="0.204" style="stop-color:#EABD00;stop-opacity:0.8"/>
				<stop  offset="0.323" style="stop-color:#EAAF00;stop-opacity:0.5"/>
				<stop  offset="0.438" style="stop-color:#EABD00;stop-opacity:0.2"/>
				<stop  offset="0.611" style="stop-color:#EAAF00;stop-opacity:0.5"/>
				<stop  offset="0.923" style="stop-color:#EABD00;stop-opacity:0.5"/>
				<stop  offset="0.994" style="stop-color:#EACD00"/>
				<stop  offset="1" style="stop-color:#EACD00"/>
			</linearGradient>
			<path style="fill:url(#SVGID_00000163056107018107156880000000219200663312445363_);" d="M1049.6,81.2c-1.1,0.3-6.9,2.3-7.4,2.4
				c0.2,0.6,1.1,0.8,2,0.8c4.1,0,17.8,0.1,40.4,0.1v-3.7C1077.4,81.2,1058.8,81.2,1049.6,81.2"/>
			
				<linearGradient id="SVGID_00000083076147101422171300000011265735204487661498_" gradientUnits="userSpaceOnUse" x1="29.4249" y1="-325.0817" x2="30.4249" y2="-325.0817" gradientTransform="matrix(1.000000e-15 17.3882 17.3882 -1.000000e-15 6743.4438 -445.398)">
				<stop  offset="0" style="stop-color:#EACD00"/>
				<stop  offset="9.299999e-02" style="stop-color:#EACD00"/>
				<stop  offset="0.317" style="stop-color:#341000;stop-opacity:0.5"/>
				<stop  offset="0.458" style="stop-color:#341000"/>
				<stop  offset="0.594" style="stop-color:#341000;stop-opacity:0"/>
				<stop  offset="0.803" style="stop-color:#341000"/>
				<stop  offset="0.957" style="stop-color:#341000;stop-opacity:0.5"/>
				<stop  offset="1" style="stop-color:#341000;stop-opacity:0.5"/>
			</linearGradient>
			<path style="fill:url(#SVGID_00000083076147101422171300000011265735204487661498_);" d="M1093.9,67.2c0,2.8-2.3,11.6-6.4,13.2
				c1.1,1.1,2.2,2.8,2.6,3.5c0.4-0.3,0.6-0.8,0.9-1.6c1.4-4.8,3.1-11.8,3.2-13.4C1094.3,67.9,1094.2,67.2,1093.9,67.2"/>
			
				<linearGradient id="SVGID_00000028323932447335380340000000237941656995238326_" gradientUnits="userSpaceOnUse" x1="-78.1722" y1="-451.3269" x2="-77.1722" y2="-451.3269" gradientTransform="matrix(19.0712 0 0 -19.0712 2537.5154 -8601.7705)">
				<stop  offset="0" style="stop-color:#EACD00"/>
				<stop  offset="7.700000e-02" style="stop-color:#EACD00"/>
				<stop  offset="0.992" style="stop-color:#341000;stop-opacity:0"/>
				<stop  offset="1" style="stop-color:#341000;stop-opacity:0"/>
			</linearGradient>
			<path style="fill:url(#SVGID_00000028323932447335380340000000237941656995238326_);" d="M1048.2,6.6c-0.4,0.2-0.7,0.4-0.8,0.5
				c0.3,0.2,1,0.6,2.3,1.2c5.4-2.6,11-3.8,16.1-3.7V2.9C1056.3,3.1,1050.2,5.7,1048.2,6.6"/>
			
				<linearGradient id="SVGID_00000024704598045952731090000010855105851793720713_" gradientUnits="userSpaceOnUse" x1="76.5152" y1="-322.1234" x2="77.5152" y2="-322.1234" gradientTransform="matrix(1.000000e-15 12.4708 12.4708 -1.000000e-15 5066.627 -945.831)">
				<stop  offset="0" style="stop-color:#EACD00;stop-opacity:0"/>
				<stop  offset="0.171" style="stop-color:#EACD00;stop-opacity:0"/>
				<stop  offset="0.923" style="stop-color:#663411"/>
				<stop  offset="1" style="stop-color:#663411"/>
			</linearGradient>
			<path style="fill:url(#SVGID_00000024704598045952731090000010855105851793720713_);" d="M1049.7,8.3c-2.3,2.9-1.8,8.7-1.5,12.2
				c0.3,0,0.3-0.7,0.3-1.6c-0.1-3.7,0-6,1.3-7.4c0.4-0.5,0.8-0.9,1.3-1.3V7.7C1050.6,7.9,1050.1,8.1,1049.7,8.3"/>
			
				<radialGradient id="SVGID_00000180340388739088997620000006481885312195175835_" cx="-64.7013" cy="-108.1018" r="1" gradientTransform="matrix(8.9163 0 0 8.9163 1657.3829 975.9493)" gradientUnits="userSpaceOnUse">
				<stop  offset="0" style="stop-color:#FFFFFF;stop-opacity:0.85"/>
				<stop  offset="0.38" style="stop-color:#FFFFFF;stop-opacity:0.5"/>
				<stop  offset="1" style="stop-color:#FFFFFF;stop-opacity:0"/>
			</radialGradient>
			<path style="fill:url(#SVGID_00000180340388739088997620000006481885312195175835_);" d="M1085.8,18.9
				c-3.5-13.5-19.7-17.9-34.7-11.3v2.6c3.5-2.7,9.2-3.5,13.7-3.5c7.1,0,16.9,4.5,16.9,19.7c0,13.2-6.6,24-16.9,35.1l1.7,1.7
				C1083.6,45.9,1089,31.4,1085.8,18.9"/>
			
				<radialGradient id="SVGID_00000054230519786255209360000011520676743394186640_" cx="659.1736" cy="138.4152" r="1" gradientTransform="matrix(1.4284 1.9432 -1.7616 1.2948 348.8196 -1450.6693)" gradientUnits="userSpaceOnUse">
				<stop  offset="0" style="stop-color:#FFFFFF;stop-opacity:0.85"/>
				<stop  offset="0.573" style="stop-color:#FFFFFF;stop-opacity:0.5"/>
				<stop  offset="1" style="stop-color:#FFFFFF;stop-opacity:0"/>
			</radialGradient>
			<path style="fill:url(#SVGID_00000054230519786255209360000011520676743394186640_);" d="M1049.7,8.3c-1.3-0.6-2-1-2.3-1.2
				c-0.2,0.3-0.3,0.6-0.3,0.9c-0.1,1.9,0.1,6.7,0.4,9.6h0.5C1047.8,14.4,1047.9,10.5,1049.7,8.3"/>
			
				<linearGradient id="SVGID_00000070821480045291490300000010896553554492164796_" gradientUnits="userSpaceOnUse" x1="629.319" y1="-260.0317" x2="630.319" y2="-260.0317" gradientTransform="matrix(0 2.8869 2.8869 0 1798.4971 -1799.1909)">
				<stop  offset="0" style="stop-color:#EACD00;stop-opacity:0"/>
				<stop  offset="9.199999e-02" style="stop-color:#EACD00;stop-opacity:0"/>
				<stop  offset="0.895" style="stop-color:#663411"/>
				<stop  offset="1" style="stop-color:#663411"/>
			</linearGradient>
			<path style="fill:url(#SVGID_00000070821480045291490300000010896553554492164796_);" d="M1047.5,17.7c0,0.6,0.1,1,0.2,1.4
				c0.1,1,0.2,1.4,0.5,1.4c0,0,0,0,0,0c-0.1-0.8-0.2-1.8-0.2-2.8H1047.5"/>
			
				<radialGradient id="SVGID_00000139264308776081246400000010344017703537739431_" cx="-60.3123" cy="62.2501" r="1" gradientTransform="matrix(7.5981 0 0 5.1496 1509.5455 -241.793)" gradientUnits="userSpaceOnUse">
				<stop  offset="0" style="stop-color:#EAFFFF;stop-opacity:0.85"/>
				<stop  offset="7.300000e-02" style="stop-color:#EAFFFF;stop-opacity:0.85"/>
				<stop  offset="1" style="stop-color:#CEAD03;stop-opacity:0"/>
			</radialGradient>
			<path style="fill:url(#SVGID_00000139264308776081246400000010344017703537739431_);" d="M1050.2,78.2l3.3-0.3
				c0-0.1,0.1-0.4,0.4-0.6c2.9-2.5,6.4-5.4,10-8.7h-3.3C1056.3,72.6,1052.9,75.6,1050.2,78.2"/>
			
				<radialGradient id="SVGID_00000026152246876744950130000007796297835939369889_" cx="-74.3508" cy="-196.9348" r="1" gradientTransform="matrix(14.4142 0 0 14.4142 2154.8955 2850.1956)" gradientUnits="userSpaceOnUse">
				<stop  offset="0" style="stop-color:#341000"/>
				<stop  offset="0.541" style="stop-color:#341000;stop-opacity:0.5"/>
				<stop  offset="1" style="stop-color:#341000;stop-opacity:0"/>
			</radialGradient>
			<path style="fill:url(#SVGID_00000026152246876744950130000007796297835939369889_);" d="M1091,24.3c0-11.3-8-21.5-24-21.5
				c-0.4,0-0.8,0-1.2,0v1.8c9.6,0.3,17.6,5.3,20,14.3c3.4,13-2.8,28.4-22,46.8c-1.1,1-2.1,2-3.1,2.9h3.3
				C1076.5,57.2,1091,41.4,1091,24.3"/>
			
				<linearGradient id="SVGID_00000170983025696915427350000006172238472132474268_" gradientUnits="userSpaceOnUse" x1="-127.9678" y1="-390.58" x2="-126.9678" y2="-390.58" gradientTransform="matrix(24.2049 -23.0854 -23.0854 -24.2049 -4877.5552 -12322.3125)">
				<stop  offset="0" style="stop-color:#EACD00"/>
				<stop  offset="7.799999e-02" style="stop-color:#EACD00"/>
				<stop  offset="0.252" style="stop-color:#341000;stop-opacity:0.5"/>
				<stop  offset="0.381" style="stop-color:#341000"/>
				<stop  offset="0.554" style="stop-color:#341000"/>
				<stop  offset="0.715" style="stop-color:#341000;stop-opacity:0.5"/>
				<stop  offset="0.897" style="stop-color:#341000;stop-opacity:0"/>
				<stop  offset="1" style="stop-color:#341000;stop-opacity:0"/>
			</linearGradient>
			<path style="fill:url(#SVGID_00000170983025696915427350000006172238472132474268_);" d="M1044.5,80.3c-1.7,1.5-2.3,2.1-2.3,3
				c0,0.1,0,0.2,0,0.3c0.4-0.1,6.3-2.1,7.4-2.4c0-0.7,0.1-2.5,0.6-2.9c3.3-3.2,7.6-7,13.5-12.5c0.9-0.9,1.8-1.7,2.6-2.6l-1.7-1.7
				C1059,67.5,1052.1,73.7,1044.5,80.3"/>
			
				<radialGradient id="SVGID_00000153691829897004457380000010028497517686343861_" cx="-35.0791" cy="254.199" r="1" gradientTransform="matrix(4.1072 0 0 3.4889 1190.9545 -806.3608)" gradientUnits="userSpaceOnUse">
				<stop  offset="0" style="stop-color:#FFFFFF;stop-opacity:0.85"/>
				<stop  offset="0.299" style="stop-color:#FFFFFF;stop-opacity:0.9"/>
				<stop  offset="1" style="stop-color:#FFFFFF;stop-opacity:0"/>
			</radialGradient>
			<path style="fill:url(#SVGID_00000153691829897004457380000010028497517686343861_);" d="M1049.6,81.2c-1.1,0.3-6.9,2.3-7.4,2.4
				c0.2,0.6,1.1,0.8,2,0.8c1.6,0,4.5,0,8.8,0v-3.2C1051.8,81.2,1050.6,81.2,1049.6,81.2"/>
			
				<radialGradient id="SVGID_00000029737351143540739590000008087603382714022274_" cx="-83.1621" cy="1243.4283" r="1" gradientTransform="matrix(32.9882 0 0 1.3106 3809.5381 -1548.4257)" gradientUnits="userSpaceOnUse">
				<stop  offset="0" style="stop-color:#FFFFFF;stop-opacity:0.7"/>
				<stop  offset="0.656" style="stop-color:#FFFFFF;stop-opacity:0"/>
				<stop  offset="1" style="stop-color:#FFFFFF;stop-opacity:0"/>
			</radialGradient>
			<path style="fill:url(#SVGID_00000029737351143540739590000008087603382714022274_);" d="M1049.6,81.2c-1.1,0.3-6.9,2.3-7.4,2.4
				c0.2,0.6,1.1,0.8,2,0.8c4.1,0,18.2,0.1,41.3,0.1c2.7,0,3.9,0,4.6-0.6c-0.3-0.7-1.4-2.3-2.6-3.5
				C1085.9,81.2,1060.8,81.2,1049.6,81.2"/>
			
				<radialGradient id="SVGID_00000021119946869528605370000006429993068732235136_" cx="-82.5829" cy="2652.8535" r="1" gradientTransform="matrix(26.0032 -0.4091 1.092265e-02 0.6946 3189.0129 -1795.5236)" gradientUnits="userSpaceOnUse">
				<stop  offset="0" style="stop-color:#341000;stop-opacity:0.5"/>
				<stop  offset="1" style="stop-color:#341000;stop-opacity:0"/>
			</radialGradient>
			<path style="fill:url(#SVGID_00000021119946869528605370000006429993068732235136_);" d="M1093.3,68.8c-1.6,7.4-3.9,8.2-8.4,8.5
				c-8.9,0.6-21.1,0.6-23,0.6h-7.8c-0.4,0-0.6,0-0.7,0l-3.3,0.3c-0.5,0.5-0.7,2.2-0.6,2.9c11.2,0,36.3,0.1,37.9-0.7
				c4.1-1.6,6.4-10.3,6.4-13.2C1093.7,67.2,1093.5,67.7,1093.3,68.8"/>
			
				<radialGradient id="SVGID_00000175293212584094579820000015344963245180213133_" cx="-166.9609" cy="2147.3335" r="1" gradientTransform="matrix(11.9447 -11.4123 0.4601 0.4816 2068.9404 -2872.7075)" gradientUnits="userSpaceOnUse">
				<stop  offset="0" style="stop-color:#341000;stop-opacity:0.5"/>
				<stop  offset="1" style="stop-color:#341000;stop-opacity:0"/>
			</radialGradient>
			<path style="fill:url(#SVGID_00000175293212584094579820000015344963245180213133_);" d="M1069.5,59.8l-1.8-1.8
				c-6.2,7.2-14.2,14.4-23.2,22.3c-1.7,1.5-2.3,2.1-2.3,3c0,0.1,0,0.2,0,0.3c0.4-0.1,6.3-2.1,7.4-2.4c0-0.7,0.1-2.5,0.6-2.9
				c3.3-3.2,7.6-7,13.5-12.5C1065.8,63.7,1067.8,61.7,1069.5,59.8"/>
			
				<radialGradient id="SVGID_00000169523394024696686930000018059918322294539175_" cx="0.7148" cy="-3513.873" r="1" gradientTransform="matrix(-10.0589 9.2558 -0.3587 -0.3899 -193.9846 -1306.6073)" gradientUnits="userSpaceOnUse">
				<stop  offset="0" style="stop-color:#FFFFFF;stop-opacity:0.7"/>
				<stop  offset="0.936" style="stop-color:#FFFFFF;stop-opacity:0"/>
				<stop  offset="1" style="stop-color:#FFFFFF;stop-opacity:0"/>
			</radialGradient>
			<path style="fill:url(#SVGID_00000169523394024696686930000018059918322294539175_);" d="M1063.7,65.7
				c-5.9,5.6-10.2,9.3-13.5,12.5l3.3-0.3c0-0.1,0.1-0.4,0.4-0.6c4.9-4.2,11.3-9.6,17.4-15.8l-1.7-1.7
				C1067.8,61.7,1065.8,63.7,1063.7,65.7"/>
		</g>
	</g>
</g>
<g>
	<path class="st30" d="M448.3,43.5l1.4-1.5c0.2-0.2,0.3-0.3,0.4-0.3c0.1,0,0.3,0.2,0.5,0.3l1.7,1.5c0.2,0.2,0.3,0.2,0.3,0.4
		c0,0.2-0.2,0.2-0.4,0.2h-17.6c-0.9,0-2.3,0.1-3.3,0.3l-0.6-1.1c2.2,0.2,4.1,0.2,4.2,0.2H448.3z M448,26.1l1.1-1.2
		c0.2-0.2,0.3-0.3,0.4-0.3s0.3,0.2,0.5,0.3l1.5,1.2c0.1,0.1,0.3,0.2,0.3,0.4c0,0.2-0.2,0.3-0.4,0.3h-15.7c-0.9,0-2.3,0.1-3.3,0.3
		l-0.6-1.1c2.2,0.2,4.1,0.2,4.2,0.2H448z M445.8,34.5l1.3-1.2c0.2-0.2,0.3-0.3,0.4-0.3c0.1,0,0.3,0.1,0.5,0.3l1.7,1.3
		c0.1,0.1,0.3,0.2,0.3,0.4s-0.2,0.3-0.4,0.3H437c-0.9,0-2.3,0.1-3.3,0.3l-0.6-1.1c2.2,0.2,4.1,0.2,4.2,0.2H445.8z"/>
	<path class="st30" d="M474.7,46c-1.6-1-3.4-2.6-4.7-4.1c-2.3-2.4-4-5.7-4.6-10.7h-0.2c-0.8,6.9-3,9.9-5,11.9
		c-2.4,2.4-4.8,3.3-5.6,3.5l-0.1-0.2c3.4-2,6.1-5,7.6-8.6c0.9-2.1,1.4-4.3,1.7-6.6h-6.1c-0.9,0-2.3,0.1-3.3,0.3l-0.6-1.1
		c1.9,0.2,3.8,0.2,4.2,0.2h5.8c0.1-0.4,0.2-1.5,0.2-2.8c0-1.5-0.2-2.6-0.3-3.5c-0.1-0.7-0.2-0.9-0.4-1.2l2.7,0.7
		c0.3,0.1,0.5,0.2,0.5,0.4c0,0.3-0.4,0.5-0.9,0.9c0,0.8,0,2.4-0.3,5.4h8l0.8-1.1c0.2-0.2,0.3-0.3,0.4-0.3c0.1,0,0.2,0.1,0.5,0.3
		l1.6,1.1c0.1,0.1,0.3,0.2,0.3,0.4c0,0.2-0.2,0.3-0.4,0.3h-10.6c0.9,4.5,3.3,8.9,7.4,11.3c2,1.1,3.6,1.6,4.3,1.8v0.2
		C476.1,44.6,475.2,45.5,474.7,46z"/>
	<path class="st30" d="M491.1,26.2h-9.9c-0.9,0-2.3,0.1-3.3,0.3l-0.6-1.1c1.9,0.2,3.8,0.2,4.2,0.2h7.1l0.6-0.9
		c0.2-0.3,0.3-0.4,0.4-0.4c0.2,0,0.3,0.1,0.5,0.3l1.1,1c0.2,0.1,0.3,0.2,0.3,0.4C491.5,26.2,491.3,26.2,491.1,26.2z M490.5,36.8
		c-0.1,0.1-0.5,0.3-0.6,0.4c0,0.9,0,2.3,0.1,3.8c0,0.7,0.1,2.8,0.1,3.5c0,0.5,0,1.2-0.9,1.2c-0.5,0-0.5-0.2-0.5-1.5h-8.9
		c0,0.7,0,1.7-1,1.7c-0.2,0-0.5-0.1-0.5-0.4c0-0.1,0-0.3,0.1-0.5c0.2-0.9,0.2-4.2,0.2-5.2c0-4.1,0-4.2-0.1-4.9l1.6,1h8.4l0.6-0.6
		c0.3-0.2,0.3-0.3,0.4-0.3c0.1,0,0.2,0.1,0.4,0.3l0.9,0.8c0.3,0.2,0.3,0.3,0.3,0.4C490.8,36.6,490.8,36.6,490.5,36.8z M489,29.3
		c-0.2,0.1-0.3,0.2-0.4,0.4c0,0.5,0.1,2.8,0.1,3.3c0,0.5-0.2,0.6-0.4,0.7c-0.3,0.2-0.5,0.2-0.6,0.2c-0.3,0-0.3-0.4-0.3-0.8h-6.5
		c0,0.3,0,1-1,1c-0.3,0-0.4-0.1-0.4-0.4c0-0.1,0.1-0.7,0.1-0.8c0-1.1,0-2.1,0-2.6c0-2-0.1-2.3-0.1-2.7l1.6,1h6.1l0.5-0.5
		c0.1-0.1,0.2-0.2,0.3-0.2c0.1,0,0.1,0,0.4,0.2l0.8,0.5c0.1,0,0.2,0.2,0.2,0.3C489.4,29,489.3,29.1,489,29.3z M483.5,36.4h-3.8v3.2
		h3.8V36.4z M483.5,40.2h-3.8v3.4h3.8V40.2z M487.5,29.1h-6.6v3.4h6.6V29.1z M488.6,36.4h-3.9v3.2h3.9V36.4z M488.6,40.2h-3.9v3.4
		h3.9V40.2z M494.1,27.6c0,1.1-0.1,1.9-0.1,3.4c0,2.5,0.1,6.5,0.1,9c0,1.5-1,1.5-1.1,1.5c-0.3,0-0.5-0.2-0.5-0.7
		c0-0.2,0.1-1.1,0.1-1.3c0.1-3.5,0.2-7,0.2-10.6c0-1.8-0.1-2.1-0.4-3.2l2.1,0.8c0.1,0.1,0.3,0.1,0.3,0.3
		C494.8,27.1,494.7,27.2,494.1,27.6z M498.5,25.6c0,1.2-0.1,10-0.1,11.8c0,0.9,0.1,4.9,0.1,5.7c0,1.1-0.2,1.6-0.8,2.3
		c-0.7,0.7-1.3,0.9-1.7,1c-0.6-1-1.5-1.5-2.8-2.1v-0.2c1,0.1,1.8,0.1,2,0.1c1.2,0,2,0,2-1.7c0-2.7-0.1-14.7-0.1-17.2
		c-0.1-0.8-0.2-1.1-0.3-1.6l2.2,0.7c0.2,0.1,0.4,0.1,0.4,0.4S499.3,25.2,498.5,25.6z"/>
	<path class="st30" d="M513.8,32.3h-5.1c-1.7,2.2-1.9,2.4-2.7,3.3l0.2,0.1h4l0.6-0.6c0.2-0.1,0.2-0.2,0.3-0.2c0.1,0,0.3,0.1,0.3,0.1
		l1,0.7c0.2,0.2,0.3,0.2,0.3,0.4c0,0.2-0.1,0.3-1,0.7c0.1,2.3,0.1,3.6,0.1,5.4c0,0.4,0.1,2.2,0.1,2.5c0,0.8-1.1,0.9-1.1,0.9
		c-0.5,0-0.5-0.3-0.5-1.1H506c0,0.8,0,1.6-1,1.6c-0.4,0-0.5-0.1-0.5-0.5c0-0.1,0.1-0.7,0.1-0.8c0.1-1,0.3-5,0.2-8.1
		c-2.3,2-3.9,2.7-4.9,3.2l-0.2-0.1c1.8-1.2,3.7-3.1,4.9-4.4c0-0.1-0.1-0.6-0.1-0.6L505,35c0.9-1,1.8-2,2.4-2.7h-3
		c-0.9,0-2.3,0.1-3.3,0.3l-0.6-1.1c1.9,0.2,3.8,0.2,4.2,0.2h1v-3.7h-2.4c-0.4,0-1,0.1-1.4,0.1l-0.3-0.8c0.5,0.1,1.4,0.1,1.8,0.1h2.2
		c0-0.4,0-2.1,0-2.4c0-0.8-0.1-1-0.3-1.5l2.1,0.7c0.2,0.1,0.4,0.2,0.4,0.4c0,0.4-0.5,0.5-0.8,0.7c-0.1,0.5-0.1,0.9-0.1,2.2h0.8
		l0.4-0.6c0.2-0.3,0.3-0.3,0.4-0.3c0.2,0,0.4,0.2,0.5,0.3l0.7,0.6c0.2,0.1,0.3,0.2,0.3,0.4c0,0.2-0.2,0.3-0.4,0.3H507v0.7
		c0,1,0,2-0.1,3.1h0.9c2.3-2.9,3.6-5.3,3.8-5.9c0.2-0.4,0.2-0.6,0.2-0.9l1.7,1.2c0.1,0.1,0.2,0.2,0.2,0.3c0,0.3-0.3,0.4-0.9,0.5
		c-0.6,0.8-3.2,4.1-3.7,4.8h2.2l0.7-0.9c0.2-0.2,0.3-0.3,0.4-0.3c0.2,0,0.5,0.2,0.5,0.3l0.9,0.9c0.1,0.1,0.3,0.2,0.3,0.4
		C514.2,32.2,513.9,32.3,513.8,32.3z M510.4,36.3H506v3.4h4.4V36.3z M510.4,40.3H506v3.5h4.4V40.3z M521.6,43.1
		c-0.8,0.5-1.4,0.5-1.9,0.6c-0.1-0.5-0.6-1.6-1.9-2.2l0.1-0.2c1,0.2,1.5,0.3,2.3,0.3c1,0,1.6-0.6,1.6-2c0-2.2-1-4.3-3.9-6.7
		c0.8-1.6,2.2-5.5,2.7-6.9h-4.1c0,3.9,0,11.6,0.1,15.2c0,0.7,0.1,3.6,0.1,4.2c0,0.7-0.5,1.1-1.2,1.1c-0.5,0-0.5-0.4-0.5-0.5
		c0-0.1,0.1-0.6,0.1-0.7c0.2-3.9,0.2-10.4,0.2-14.6c0-1.2,0-4.3-0.2-5.3c-0.1-0.3-0.1-0.5-0.2-0.9l2.1,0.9h3.7l0.5-0.4
		c0.1-0.1,0.2-0.2,0.3-0.2c0.1,0,0.3,0.2,0.4,0.2l1.2,1.2c0.1,0.1,0.2,0.2,0.2,0.4c0,0.5-0.4,0.5-1.2,0.6c-0.3,0.4-0.9,1.3-1.9,2.8
		c-0.6,0.9-1.4,2.2-1.7,2.7c2.2,1.4,4.9,3.5,4.9,7.2C523.3,41.3,523,42.3,521.6,43.1z"/>
	<path class="st30" d="M525,40.4c-0.5,0-0.9-0.4-0.9-1.1c0-0.5,0.3-0.7,0.7-1c0.7-0.6,2.4-2.5,2.5-4.9h0.2c0.1,0.3,0.3,1,0.3,2
		C527.7,37.8,526.7,40.4,525,40.4z M540.2,45.3c-1,0.3-3.6,0.3-4.7,0.3c-3.2,0-4.2-0.2-4.2-3c0-5.8,0-6.4,0-11.8
		c0-1.2-0.1-1.4-0.3-2.1l2.4,0.9c0.3,0.1,0.4,0.2,0.4,0.3c0,0.3-0.2,0.4-1,0.7c-0.1,1.3-0.1,7.6-0.1,9.3c0,0.6,0,3.1,0.1,3.5
		c0.1,0.6,0.4,0.8,3.1,0.8c3,0,3.8,0,4.6-4.2l0.2,0c0,0.4,0.1,2,0.1,2.3c0.1,0.9,0.3,1.1,0.5,1.3c0.2,0.2,0.3,0.3,0.3,0.5
		C541.5,44.6,540.8,45.1,540.2,45.3z M537,28.1c-0.5,0-0.9-0.2-1.2-1.3c-0.4-1.6-0.5-2-1.5-3.1l0.2-0.2c0.6,0.2,1.7,0.6,2.4,1.3
		c1,1,1.1,2,1.1,2.1C538,27.7,537.5,28.1,537,28.1z M546,40.1c-0.7,0-0.8-0.4-1.2-1.6c-0.7-2.2-1.8-3.4-3.2-4.8l0.1-0.2
		c1.7,0.9,3,1.7,3.8,2.5c0.8,0.8,1.5,1.9,1.5,3C547,39.3,546.9,40.1,546,40.1z"/>
	<path class="st30" d="M554.7,35c-0.2,0.8-1,4.1-1.2,4.8c-0.4,1.5-0.5,2.3-0.5,2.9c0,0.3,0.1,1.8,0.1,1.8c0,0.3-0.1,0.7-0.5,0.7
		c-0.4,0-0.8-0.5-1.1-0.9c-1.1-2-1.4-3.9-1.4-6.5c0-0.5,0-1.3,0.2-2.4l0.8-5.6c0.1-0.5,0.2-1.1,0.2-1.9c0-1.4-0.5-2-0.8-2.3
		c1.2-0.2,2.5,1.4,2.5,2.3c0,0.2-0.3,1.1-0.4,1.4c-0.6,1.8-1.5,5.4-1.5,8.4c0,2.1,0.4,3.7,0.7,3.7c0.2,0,0.3-0.4,0.3-0.4
		c0.8-2.4,1.2-3.4,2.3-6.2L554.7,35z M559.6,40.8c1.5,0.7,3.7,0.7,4.2,0.7c0.9,0,1.3-0.1,2.7-0.2c0.2,0,0.3,0,0.4,0
		c0.4,0,1.8,0.3,1.8,1c0,0.7-0.9,0.7-2.4,0.7c-1.2,0-5.3-0.2-6.9-1.1c-1.6-0.9-1.8-2.4-1.8-3c0-0.3,0.1-0.5,0.1-0.8
		C558.2,39.4,558.5,40.3,559.6,40.8z M561.2,31.1c0.5-0.4,2.6-2.1,2.6-2.3c0-0.2-0.7-0.2-0.8-0.2c-0.7,0-2.7,0.3-4.9,1.1
		c2.3-1.8,3.9-2.2,5.7-2.2c1.6,0,3.6,0.4,3.6,1.2c0,0.4-0.4,0.5-1.3,0.7c-2.3,0.4-3.8,1.3-4.8,2L561.2,31.1z"/>
	<path class="st30" d="M577.1,41.7c2.9,0,7.8-1.2,10.6-2.7c2.2-1.1,3.2-3.4,3.2-5.2c0-3.2-2.8-4.8-5.3-4.8c-3.1,0-8,2.4-10.8,5
		c-0.5,0.4-0.7,0.6-1,0.6c-0.8,0-2-1.2-2-2.3c0-0.4,0.1-0.6,0.2-0.8c0.3,0.3,0.7,0.9,1.4,0.9c0.6,0,1.1-0.3,1.7-0.6
		c4-2.2,6.3-3.5,10.2-3.5c4.8,0,7.2,2.9,7.2,6c0,4.2-3.9,6.4-8.5,7.2c-2,0.4-3.9,0.4-6.7,0.4V41.7z"/>
	<path class="st30" d="M603.5,25.8c0-0.3-0.4-0.9-1.5-1.1c0.2-0.2,0.4-0.4,1-0.4c1,0,1.7,0.6,2.2,1.1c0.2,0.2,0.3,0.4,0.3,0.6
		c0,0.2-0.1,0.3-0.6,0.9c-0.3,0.4-0.4,0.5-1.2,1.9c0.6-0.2,1.3-0.4,2.3-0.9c0.8-0.4,0.9-0.4,1.2-0.4c0.3,0,1.3,0.3,1.3,0.7
		c0,0.3-0.5,0.5-0.5,0.5c-0.6,0.2-1,0.4-5,1.3c-0.6,1-3.1,6.4-3.4,6.9c-0.3,0.6-1.8,3.1-1.9,3.3c-0.2,0.2-0.4,0.2-0.4,0.2
		c-0.2,0-0.5-0.1-0.5-0.8c0-0.7,0.2-1,0.7-1.6c0.9-1.2,2.1-3.4,3-5.1c0.4-0.8,0.9-1.9,1.2-2.5c-1,0.3-1.7,0.4-2.6,0.4
		c-2.3,0-2.5-1.6-2.5-2c0.8,0.7,1.4,0.9,2.2,0.9c1,0,2.4-0.3,3.4-0.5C602.2,29,603.5,26.3,603.5,25.8z M610.1,30.8
		c2.9,0,5.1,2.5,5.1,3.6c0,0.4-0.3,0.5-0.5,0.5c-0.2,0-0.5-0.2-0.6-0.2c-0.7-0.4-1-0.6-2-0.6c-1,0-2.4,0.3-3.1,0.9
		c-0.3,0.3-0.5,0.8-0.5,1.7c0,0.7,0.3,3.2,0.4,3.9c2.4,0.6,4.8,1.7,4.8,3c0,0.5-0.3,0.7-0.6,0.7c-0.2,0-0.4-0.1-0.6-0.2
		c-2.1-1.5-2.5-1.8-3.6-2.1c-0.1,3.3-3.4,3.5-4,3.5c-1.9,0-3.6-1-3.6-2.5c0-1.7,2.2-2.7,4.6-2.7c0.7,0,1.1,0.1,1.6,0.1
		c-0.1-2.1-0.1-2.3-0.1-2.8c0-2.6,1.6-3.4,4.4-4.2c0.2-0.1,0.5-0.1,0.5-0.5c0-0.3-0.6-0.7-1-0.9c-0.6-0.4-1.1-0.6-2.5-1
		C609.1,30.8,609.5,30.8,610.1,30.8z M605.8,41.4c-1,0-3.5,0.3-3.5,1.7c0,1,1.6,1.2,2.3,1.2c0.8,0,3.1-0.3,3-2.7
		C607.2,41.5,606.6,41.4,605.8,41.4z"/>
	<path class="st30" d="M624.2,40.9c2.4,1.6,2.6,1.8,3.3,1.8c0.5,0,0.8-0.3,1-0.8c1.6-3.1,1.8-6.4,1.8-7.9c0-1.2,0-2.8-1.7-2.8
		c-0.6,0-1.2,0.1-2.2,0.4c-2.1,5.2-4.2,10.4-5.9,12.7c-0.1,0.2-0.3,0.3-0.5,0.3c-0.4,0-0.6-0.7-0.6-1.1c0-0.4,0-0.4,0.9-1.8
		c2.1-3.3,3.3-6.2,4.8-9.7c-1.9,0.7-2.8,1-3.7,1.6c-0.4,0.3-0.7,0.4-1,0.4c-0.5,0-2.1-0.8-2.1-2.4c0-0.2,0.1-0.4,0.2-0.6
		c0.6,1,1,1.3,1.7,1.3c0.2,0,0.4,0,1.2-0.3c1.2-0.4,2.8-0.8,4.2-1.2c0.4-1,1.3-3.3,1.3-4.2c0-1.2-1.7-1.7-2-1.7
		c0.2-0.2,0.4-0.3,1-0.3c1,0,2.8,0.7,2.8,1.6c0,0.3-0.2,0.6-0.3,0.8c-0.7,1.3-1,2.1-1.6,3.5c0.5-0.1,1.1-0.3,1.9-0.3c3,0,3,2.6,3,4
		c0,2.5-0.8,8.3-3.5,10.3c-0.5,0.3-1,0.5-1.3,0.5c-0.4,0-0.4-0.1-0.6-1c-0.2-0.8-1.5-2.4-2.1-3.1L624.2,40.9z M634.8,35.9
		c1.4-0.1,2.4-0.4,2.7-0.5c0.3-0.1,0.6-0.4,0.6-0.8c0-0.5-1.5-2.8-5-5c2.2-0.1,6.9,3.4,6.9,6.6c0,0.4-0.1,1.1-0.5,1.1
		c-0.2,0-0.9-0.5-1.1-0.5c-0.6-0.2-3.2-0.6-3.7-0.7V35.9z M634.7,27.1c1.2,0,4.1,0.8,4.1,2.3c0,0.2-0.1,0.6-0.5,0.6
		c-0.3,0-1-0.8-1.2-0.9c-1.2-1-2.4-1.5-3.3-1.8C634.1,27.1,634.3,27.1,634.7,27.1z M637.3,25.1c1.1,0,3.9,0.4,3.9,2.2
		c0,0.3-0.1,0.6-0.4,0.6s-1.2-0.9-1.4-1c-0.4-0.3-1.4-0.9-3.5-1.6C636.5,25.2,636.9,25.1,637.3,25.1z"/>
	<path class="st30" d="M648.4,26.7c0.5,0,3.2-0.6,4.7-1c0.4-0.1,1.1-0.3,1.3-0.3c0.7,0,1.7,1,1.7,1.6c0,0.3-0.1,0.3-0.6,0.7
		c-0.5,0.4-0.7,0.5-1.1,1c-0.7,0.9-4,5-4.7,5.8c-0.3,0.4-0.7,0.9-1.3,1.8c1.3-0.8,3.5-2.1,6.5-2.1c3.7,0,5.5,2.2,5.5,4.8
		c0,3.4-3.1,5.8-7,5.8c-2.2,0-4.9-0.8-4.9-2.8c0-1.7,1.6-2.1,2.6-2.1c2.1,0,3.3,1.3,3.9,3.5c2.5-0.4,3.9-2.7,3.9-4.6
		c0-2.6-1.9-4-4.3-4c-4.8,0-8.5,4.6-8.8,5c-0.6,1.1-0.9,1.6-1.5,1.6c-0.3,0-0.6-0.3-0.6-0.8c0-0.8,0.2-1.1,0.8-1.6
		c4-3.8,9.2-11.1,9.2-12.1c0-0.3-0.2-0.4-0.4-0.4c-0.4,0-2.9,0.7-3.8,1.3c-0.3,0.2-0.8,0.5-1,0.5c-0.7,0-2.1-1.1-2.1-2.3
		c0-0.3,0.1-0.4,0.3-0.5C647,26.3,647.6,26.7,648.4,26.7z M650.6,40.9c-0.6,0-1.2,0.4-1.2,1c0,1.3,2.7,1.9,3.4,1.9
		c0.2,0,0.5,0,0.9-0.2C653.4,42.1,651.7,40.9,650.6,40.9z"/>
	<path class="st30" d="M665.2,39.6c1.2,0.2,3.2,0.6,4.8,2c1.5,1.3,1.5,2.6,1.5,2.9c0,0.8-0.6,1.3-1.2,1.3c-0.4,0-0.7-0.3-1.2-1.3
		c-1.2-2.5-1.8-3.6-3.9-4.6L665.2,39.6z"/>
	<path class="st30" d="M709,46.1c-1.1-0.2-3.5-0.7-5.9-2.4c-1-0.7-2.5-2.1-3.5-4.7h-0.5c-0.6,2.1-1.7,4-4.3,5.5
		c-1.9,1.1-4.1,1.7-6.3,1.9v-0.2c3.8-0.8,6.1-2.6,7.1-3.8c1.4-1.5,1.8-2.7,1.9-3.4h-5.8c-0.9,0-2.3,0.1-3.3,0.3l-0.6-1.1
		c1.9,0.2,3.8,0.2,4.2,0.2h5.6c0.2-1,0.3-1.9,0.3-2.4s-0.1-0.8-0.1-1h-6.1c-0.9,0-2.3,0.1-3.3,0.3l-0.6-1.1c1.9,0.2,3.8,0.2,4.2,0.2
		h5.9v-3h-3.9c-0.9,0-2.3,0.1-3.3,0.3l-0.6-1.1c1.9,0.2,3.7,0.2,4.2,0.2h3.6v-2.4h-5.4c-0.9,0-2.3,0.1-3.3,0.3l-0.6-1.1
		c1.9,0.2,3.8,0.2,4.2,0.2h7.5c0.3-0.5,0.8-1.7,1.3-3.2c0.2-0.5,0.2-0.6,0.3-1.6l2.2,1.2c0.2,0.1,0.2,0.2,0.2,0.4
		c0,0.2-0.2,0.3-0.3,0.4c-0.1,0.1-0.7,0.3-0.8,0.3c-1,0.9-1.5,1.3-2.6,2.5h5.4l0.9-1c0.2-0.3,0.3-0.3,0.4-0.3c0.2,0,0.4,0.2,0.5,0.3
		l0.9,0.9c0.3,0.3,0.3,0.4,0.3,0.4c0,0.3-0.3,0.3-0.4,0.3h-9.5v2.4h5.1l0.4-0.6c0.2-0.4,0.4-0.4,0.4-0.4c0.1,0,0.2,0.1,0.5,0.2
		l0.9,0.7c0.1,0.1,0.3,0.2,0.3,0.4c0,0.2-0.2,0.3-0.4,0.3h-7.2v3h8.2l0.8-1.1c0.1-0.1,0.3-0.4,0.4-0.4c0.2,0,0.4,0.2,0.5,0.3l1.2,1
		c0.2,0.2,0.3,0.3,0.3,0.4c0,0.2-0.2,0.3-0.4,0.3h-12.3l1.6,0.4c0.3,0.1,0.5,0.2,0.5,0.4c0,0.3-0.4,0.5-0.6,0.6
		c-0.1,0.8-0.1,1.3-0.3,2.1h7.9l0.9-1c0.2-0.3,0.3-0.3,0.4-0.3c0.2,0,0.4,0.2,0.5,0.3l1.3,1c0.1,0.1,0.3,0.3,0.3,0.4
		c0,0.2-0.2,0.3-0.4,0.3H700c1.9,3.3,5.9,5.3,9.9,5.3c0.4,0,0.7,0,1-0.1l0.1,0.2C709.6,45,709.3,45.7,709,46.1z M696.1,26.9
		c-0.6,0-0.9-0.6-1.2-1.2c-0.5-0.9-0.8-1.4-1.6-1.9l0.1-0.2c3,0.3,3.6,1.9,3.6,2.4C697,26.6,696.6,26.9,696.1,26.9z"/>
	<path class="st30" d="M732.7,39.6c-1.8,3.5-6.2,5.8-10.2,5.8c-0.7,0-2.9-0.2-3.8-1.2c-0.8-1-1-2.6-1-5.1c0-0.4,0.1-5.4,0.2-6.2
		s0.2-4.2,0.2-4.9c0-2.1-0.7-2.4-1.8-2.8c0.2-0.2,0.4-0.4,1.1-0.4c1.1,0,2.5,1.2,2.5,1.9c0,0.2-0.1,0.9-0.2,1.4
		c-0.6,3.1-0.9,8.2-0.9,11.4c0,1,0,3.2,0.5,3.9c0.6,0.7,1.5,0.9,2.5,0.9c3.2,0,8.7-2.6,10.9-4.8L732.7,39.6z"/>
	<path class="st30" d="M745.8,33.5c-0.4,0.7-3.1,6.3-3.2,6.5c-0.1,0.3-0.2,0.6-0.2,0.9c0,0.2,0.2,1,0.2,1.2c0,0.3-0.2,0.6-0.6,0.6
		c-0.5,0-3.2-0.2-4.5-5.5c-0.2-0.9-0.2-1.3-0.5-5.3c-0.2-2.1-0.2-2.7-1.2-4.2c1.3,0.1,2.8,1.5,2.8,2.6c0,0.3,0,0.4-0.2,1.1
		c-0.2,0.9-0.2,1.6-0.2,2.2c0,1.4,0.3,5,1.9,6.3c0.1,0.1,0.3,0.3,0.6,0.3c0.3,0,0.5-0.2,0.6-0.4c1.9-3,2.1-3.2,3.9-5.9
		c0-0.1,0.2-0.3,0.2-0.4L745.8,33.5z M751.6,36.6c0.4-0.1,2-0.3,2.3-0.4c0.2,0,0.7-0.1,0.7-0.6c0-0.6-1.1-4.7-4.7-6
		c0.1-0.1,0.5-0.2,0.8-0.2c0.4,0,1.8,0.3,2.9,1.6c1.9,2.2,2.7,4.8,2.7,6c0,0.8-0.3,1.5-0.7,1.5c-0.2,0-0.3-0.1-0.9-0.6
		c-0.9-0.7-1.4-0.8-3.1-1.2V36.6z"/>
	<path class="st30" d="M779.5,42.5c-2.1-0.8-3.4-1.7-4.5-2.5c-0.1,0.1-0.2,0.1-0.4,0.3c0,0.9,0.2,4.8,0.2,5.6c0,0.5-0.6,0.8-1,0.8
		c-0.4,0-0.4-0.2-0.4-1h-8.1c0,0.6,0,0.6-0.1,0.7c-0.2,0.2-0.6,0.4-0.9,0.4c-0.4,0-0.4-0.2-0.4-0.4c0-0.2,0.1-5.9,0.1-6.4
		c-1,0.8-3.3,2.7-6.6,3.4v-0.1c1.2-0.6,4.3-2,8.2-6.2h-3.8c-0.9,0-2.3,0.1-3.3,0.3l-0.6-1.1c1.9,0.2,3.7,0.2,4.2,0.2h4
		c0.9-1,1.3-1.8,1.6-2.3H764c0,0.7-0.8,0.9-1,0.9c-0.3,0-0.4-0.2-0.4-0.4c0-0.2,0-0.7,0-0.8c0.1-1.3,0.1-2.6,0.1-3.9
		c0-0.8-0.1-1.3-0.2-1.8l1.8,0.8h10.2l0.4-0.4c0.2-0.2,0.3-0.3,0.4-0.3c0.1,0,0.1,0,0.3,0.2l0.8,0.6c0.1,0.1,0.3,0.2,0.3,0.4
		c0,0.1-0.1,0.2-0.3,0.4c-0.2,0.1-0.2,0.2-0.4,0.3c0,0.8,0,1.7,0,2.4c0,0.2,0.1,1.6,0.1,1.7c0,0.5-0.6,0.8-0.9,0.8
		c-0.4,0-0.4-0.4-0.4-0.7h-6.2l0.6,0.3c0.1,0,0.2,0.2,0.2,0.3c0,0.3-0.3,0.4-0.9,0.5c-0.3,0.4-0.4,0.5-1,1.2h10.1l0.8-1.1
		c0.1-0.2,0.3-0.3,0.4-0.3c0.2,0,0.4,0.2,0.5,0.3l1.3,1.1c0.2,0.1,0.3,0.2,0.3,0.4c0,0.2-0.2,0.3-0.4,0.3h-7.7
		c2.1,2.4,5.2,3.4,8.3,3.8V41C780.3,41.2,779.9,41.8,779.5,42.5z M780,26.5h-7.3c0,0.2,0.1,0.9,0.1,1.1c0,0.5-0.7,0.7-0.9,0.7
		c-0.3,0-0.4-0.2-0.4-0.4v-1.3h-4.8c0,0.4,0,1.1-0.1,1.2c-0.2,0.3-0.6,0.5-0.9,0.5c-0.2,0-0.3-0.1-0.4-0.4c0-0.2,0-1.2,0-1.4h-3
		c-0.9,0-2.3,0.1-3.3,0.3l-0.6-1.1c1.9,0.2,3.8,0.2,4.2,0.2h2.6c0-1.7-0.1-1.9-0.3-2.5l1.9,0.4c0.2,0.1,0.4,0.1,0.4,0.3
		c0,0.2-0.1,0.2-0.7,0.6v1.3h4.8c0-1.7,0-1.9-0.2-2.5l1.7,0.4c0.3,0.1,0.5,0.1,0.5,0.3c0,0.2,0,0.2-0.7,0.6c0,0.5,0,0.7,0,1.2h4.7
		l0.8-1c0.3-0.3,0.3-0.3,0.4-0.3c0.2,0,0.5,0.3,0.5,0.3l1.2,1c0.2,0.1,0.3,0.2,0.3,0.4C780.4,26.5,780.2,26.5,780,26.5z M774.9,29.6
		h-11v1.7h11V29.6z M774.9,31.8h-11v1.7h11V31.8z M772.5,37.1h-5.4c-1,1-1.6,1.6-2,2l0.1,0h8.3l0.3-0.3
		C773.4,38.3,773,37.8,772.5,37.1z M773.4,39.7h-8.1V42h8.1V39.7z M773.4,42.6h-8.1V45h8.1V42.6z"/>
	<path class="st30" d="M790.4,45c2.1-0.3,3.8-1,4.6-1.3c2.6-1.1,4.7-2.6,4.7-5.1c0-2-1.5-3.4-3.5-3.4c-3.8,0-7.6,3.3-8.6,5
		c-0.2,0.4-0.3,0.5-0.5,0.5c-0.7,0-1.1-1.4-1.1-2c0-0.2,0.2-0.9,0.3-1.4c0.2-0.9,0.6-3.8,0.6-5.6c0-2,0-2.2,0.4-2.8
		c0.6-0.9,1-1,4.1-1.6c0.1,0,0.2-0.1,0.2-0.2c0-0.1-0.1-0.2-0.5-0.4c-0.5-0.3-2.1-1.3-2-2.6c0.8,0.7,1.9,1.3,3.7,2.1
		c1.5,0.7,1.7,1.7,1.7,2.1c0,0.5-0.3,0.5-0.5,0.5c-0.3,0-0.6-0.1-1.1-0.4c-0.3-0.2-1.4-0.3-2.3-0.3c-1,0-3.1,0.1-3.1,1.7
		c0,0.5,0.2,1.1,0.3,1.2c0.1,0.3,0.3,0.9,0.3,1.2c0,0.1-0.2,0.9-0.2,1.1c-0.1,0.2-0.5,2.4-0.5,4c0,0.3,0.1,0.6,0.3,0.6
		c0.1,0,0.1,0,0.3-0.2c2.3-2.1,5.8-3.4,8.4-3.4c3.2,0,4.8,2.4,4.8,4.4c0,2.6-2.3,4.3-3.5,4.9c-1.9,0.9-4.2,1.5-7.2,1.5V45z"/>
	<path class="st30" d="M826.3,39.6c-1.8,3.5-6.2,5.8-10.2,5.8c-0.7,0-2.9-0.2-3.8-1.2c-0.8-1-1-2.6-1-5.1c0-0.4,0.1-5.4,0.2-6.2
		s0.2-4.2,0.2-4.9c0-2.1-0.7-2.4-1.8-2.8c0.2-0.2,0.4-0.4,1.1-0.4c1.1,0,2.5,1.2,2.5,1.9c0,0.2-0.1,0.9-0.2,1.4
		c-0.6,3.1-0.9,8.2-0.9,11.4c0,1,0,3.2,0.5,3.9c0.6,0.7,1.5,0.9,2.5,0.9c3.2,0,8.7-2.6,10.9-4.8L826.3,39.6z"/>
	<path class="st30" d="M840.3,43.9c7.6-2.6,8-8.1,8-9.4c0-4.5-4.2-6.8-8-6.8c-0.5,0-0.7,0.1-0.9,0.1c1.2,1,1.2,1.8,1.2,1.9
		c0,0.3-0.1,0.4-0.6,1.5c-3.1,6.5-3.4,7.1-4.8,9.3c-0.1,0.2-0.9,1.4-1.5,1.6c-0.2,0.1-0.3,0.1-0.5,0.1c-0.6,0-0.8-0.3-1.5-1.3
		c-0.2-0.3-0.3-0.4-0.7-0.7c-1-0.8-1.3-1.7-1.3-3.4c0-5.1,4.3-9.9,10.8-9.9c4.7,0,9.3,2.6,9.3,7.9c0,4.7-3.7,8.8-9.5,9.4L840.3,43.9
		z M837.4,34c0.8-1.4,1.5-3.4,1.5-4.4c0-0.9-0.5-1.4-0.7-1.6c-2.8,0.2-7.1,4-7.1,9c0,1.9,1.2,3.6,2.2,3.6c0.2,0,0.3,0,0.5-0.2
		c0.6-0.6,1-1.4,1.5-2.2L837.4,34z"/>
	<path class="st30" d="M873.3,45.6c-0.7,0.1-1.1,0.1-2.6,0.1c-8.1,0-13.4-0.3-15.8-6.2c-0.4,2.4-1,3.9-3.6,6.5l-0.1-0.1
		c1.4-2.4,2.7-4.7,2.7-10c0-0.7-0.1-0.8-0.2-1.1l1.9,0.5c0.3,0.1,0.5,0.1,0.5,0.4c0,0.2,0,0.3-0.7,0.7c-0.1,1-0.2,1.7-0.4,2.7
		c0.7,1.1,1.5,2,2.2,2.7c0-1-0.1-6.4-0.1-6.6c0-1.1-0.1-1.3-0.2-2h-1.6c-0.8,0-2.2,0.1-3.3,0.3l-0.6-1.1c1.4,0.1,2.8,0.2,4.2,0.2
		h1.3c0-1.4,0-2.8,0-4.1h-0.9c-0.8,0-2.3,0.1-3.3,0.3l-0.6-1.1c1.4,0.1,2.8,0.2,4.2,0.2h0.6c0-0.5,0-2.6-0.1-3
		c0-0.5-0.1-0.9-0.3-1.9l2.1,0.7c0.3,0.1,0.5,0.2,0.5,0.4s-0.1,0.3-0.8,0.7c0,0.3,0,1,0,3.1h1.7l0.8-0.8c0.3-0.3,0.3-0.3,0.4-0.3
		c0.1,0,0.2,0.1,0.4,0.3l0.8,0.8c0.2,0.2,0.3,0.3,0.3,0.4c0,0.3-0.3,0.3-0.4,0.3h-4.1c0,0.6,0,3.7,0,4.1h2.1l0.8-1.1
		c0.2-0.3,0.3-0.3,0.4-0.3s0.2,0.1,0.4,0.3l1.1,1c0.2,0.2,0.3,0.3,0.3,0.4c0,0.3-0.2,0.3-0.4,0.3h-5.5l1.2,0.4
		c0.3,0.1,0.5,0.2,0.5,0.4c0,0.2-0.1,0.3-0.8,0.7c0,0.4,0,2.1,0,2.5h1.5l0.7-1c0.1-0.2,0.2-0.3,0.4-0.3c0.1,0,0.3,0.1,0.5,0.3l1,1
		c0.1,0.1,0.2,0.3,0.2,0.4c0,0.2-0.2,0.3-0.4,0.3h-3.8c0,1.2,0,3.7,0.1,5c2.4,1.4,6.6,1.5,8,1.5c2.8,0,5.5-0.3,8.2-1l0.1,0.2
		C874.7,43.6,873.6,44.4,873.3,45.6z M872.9,40c-0.5,0.2-1.1,0.3-3.8,0.3c-4.7,0-4.7-0.1-4.7-2.8c0-0.8-0.1-4.5-0.1-5.2
		c0-0.7,0-0.7,0-1.1l1.7,0.7h4.9v-5.2h-3.6c-0.8,0-2.2,0.1-3.3,0.3l-0.6-1.1c1.4,0.1,2.8,0.2,4.2,0.2h3l0.4-0.5
		c0.3-0.3,0.3-0.4,0.5-0.4c0.1,0,0.2,0,0.4,0.2l1,0.7c0.2,0.1,0.3,0.3,0.3,0.4c0,0.3-0.3,0.4-0.9,0.8c0,0.2-0.1,0.4-0.1,0.5
		c0,0.7,0.2,3.9,0.2,4.6c0,0.7-0.9,0.9-1,0.9c-0.5,0-0.5-0.4-0.4-0.8h-5.1c-0.1,1-0.1,4.5-0.1,5.6c0,0.5,0.1,0.9,0.7,0.9
		c0.3,0,1.6,0.1,2.6,0.1c2.7,0,3.1-0.4,3.4-0.8c0.2-0.4,0.7-1.8,0.9-2.8h0.2c0,0.3,0.2,2,0.3,2.3c0.1,0.2,0.1,0.3,0.5,0.6
		c0.1,0.1,0.2,0.2,0.2,0.3C874.4,39.1,873.9,39.7,872.9,40z"/>
	<path class="st30" d="M876.6,46.4c-0.7,0-0.9-0.4-0.9-0.8c0-0.3,0.1-0.6,0.7-1.1c1-0.8,1.6-1.3,2.2-3.2h0.2c0,0.4,0.1,0.7,0.1,1.2
		C878.9,45,877.8,46.4,876.6,46.4z M896.5,28.1h-9.6v3.1h5l0.4-0.6c0.2-0.3,0.3-0.3,0.3-0.3c0.2,0,0.4,0.2,0.4,0.2l0.9,0.7
		c0.2,0.2,0.3,0.3,0.3,0.4c0,0.2-0.1,0.3-0.8,0.7c0,2.5,0,3.7,0.1,5.1c0,0.3,0.1,1.7,0.1,1.9c0,0.6-0.8,0.9-1.1,0.9
		c-0.5,0-0.5-0.2-0.4-1.5h-10.7c0.1,0.6,0,0.8-0.1,1c-0.2,0.5-1,0.6-1.1,0.6c-0.3,0-0.4-0.2-0.4-0.4c0-0.1,0-0.3,0.1-0.6
		c0.2-1.4,0.2-4.6,0.2-5.7c0-1.9-0.1-2.5-0.3-3.5l1.8,1.1h4.1c0-1,0-3.7-0.1-4.8c-0.1-2.2-0.3-2.6-0.5-3.2l2.3,0.5
		c0.2,0,0.4,0.1,0.4,0.4c0,0.3-0.2,0.4-0.8,0.7v2.7h6.9l0.7-1.1c0.1-0.1,0.2-0.4,0.4-0.4c0.2,0,0.3,0.2,0.4,0.3l1.2,1.2
		c0.2,0.2,0.3,0.2,0.3,0.4C896.9,28.1,896.6,28.1,896.5,28.1z M892,31.8h-10.7v6.3H892V31.8z M884.1,45.8c-0.4,0-0.8-0.2-0.8-0.8
		c0-0.2,0.1-1,0.1-1.1c0-1.4-0.2-1.8-0.3-2.2l0.1-0.1c0.7,0.7,1.9,1.8,1.9,3.2C885.1,45.6,884.4,45.8,884.1,45.8z M890.3,45.6
		c-0.7,0-0.8-0.5-0.9-1.2c-0.2-0.9-0.4-1.4-1-2.7l0.2-0.1c1.8,1,2.6,2.1,2.6,3.2C891.1,45.4,890.6,45.6,890.3,45.6z M896.7,46
		c-0.6,0-0.8-0.5-1.1-1.2c-0.6-1.5-0.9-1.9-2-3.1l0.2-0.2c1.9,0.7,3.8,2.1,3.8,3.4C897.6,45.6,897.1,46,896.7,46z"/>
	<path class="st30" d="M899.1,42.1c0-2.1,1.7-3.7,3.7-3.7c2,0,3.7,1.7,3.7,3.7c0,2.1-1.7,3.7-3.7,3.7
		C900.7,45.8,899.1,44.1,899.1,42.1z M905.8,42.1c0-1.7-1.3-3-3-3c-1.7,0-3,1.4-3,3c0,1.6,1.3,3,3,3
		C904.5,45.1,905.8,43.7,905.8,42.1z"/>
	<path class="st30" d="M445.2,71.6c0.8-1,2.4-2.9,3.4-5c-0.6,0.2-1.1,0.3-5.9,1.8c-0.4,0.1-1.9,0.6-2.2,0.7c0,0.7-0.1,1.9-0.1,3.2
		c0,4.7,0.1,5.3,3.2,5.3c1.2,0,2.8-0.2,4.6-0.6c0.2-0.1,0.5-0.1,0.8-0.1c0.4,0,1.3,0.2,1.5,0.4c0.1,0.1,0.2,0.3,0.2,0.5
		c0,0.4-0.3,0.5-0.6,0.6c-0.5,0.2-3.1,0.5-5.9,0.5c-1.6,0-3.2,0-4.1-1c-0.8-0.7-0.9-1.2-0.9-5c0-1.1,0-2,0.1-3.3
		c-3.1,0.9-3.1,1-4.7,1.8c-0.2,0.1-0.4,0.2-0.7,0.2c-0.4,0-0.8-0.4-1.1-0.7c-0.8-0.8-0.8-1.3-0.8-1.7c0-0.2,0-0.4,0.1-0.9
		c1.1,1.5,1.5,1.6,2,1.6c0.8,0,1.9-0.3,5.4-1.3c0-0.4,0.1-1.4,0.1-2.7c0-0.8,0-3.2-0.3-3.7c0-0.1-0.5-0.8-1.9-1.1
		c0.6-0.3,1-0.5,1.7-0.5c1.2,0,2.4,0.7,2.4,1.4c0,0.1-0.2,0.6-0.3,0.9c-0.3,1-0.5,4.1-0.6,5.3c0.7-0.2,3.8-1.1,4.5-1.3
		c3.1-0.9,3.1-1,3.8-1.6c0.3-0.2,0.4-0.3,0.5-0.3c0.5,0,2.3,1.6,2.3,2.1c0,0.4-0.3,0.5-0.7,0.5c-0.1,0-0.5-0.1-0.5,0
		c-0.2,0-0.4,0.1-0.7,0.5c-1.8,1.7-2.6,2.3-4.5,3.8L445.2,71.6z"/>
	<path class="st30" d="M468.9,76.5c1.5,0.9,1.8,2.2,1.8,2.5c0,0.3-0.2,0.7-0.7,0.7c-0.4,0-0.7-0.3-1.7-1.2
		c-2.4-2.3-6.1-3.8-10.4-4.9C462,73.4,466.5,75,468.9,76.5z M460.7,61.1c0.9,0,5.2,0.3,7.6,1.7c1,0.6,1.2,1.4,1.2,1.7
		c0,0.3-0.1,0.6-0.5,0.6c-0.3,0-0.9-0.4-1.2-0.6c-2.6-1.8-3.4-2.1-8.2-3.4C460.1,61.1,460.4,61.1,460.7,61.1z M461.1,67.4
		c2.5,0,5.1,0.7,6.5,1.3c0.9,0.5,1.3,1.2,1.3,1.7s-0.3,0.6-0.6,0.6c-0.4,0-0.8-0.3-1.4-0.8c-1-0.8-2.6-1.4-6.7-2.8
		C460.7,67.4,460.8,67.4,461.1,67.4z"/>
	<path class="st30" d="M479.2,77.4c1.7-1.1,3.3-2.4,4.8-3.8c2-1.9,3.8-4.1,5.2-6.6c-2,0.2-5.3,0.7-6.6,1.3c-0.4,0.2-0.4,0.2-0.7,0.2
		c-0.8,0-2.1-1.1-2.1-2.3c0-0.3,0-0.5,0.1-0.9c0.8,1.3,1,1.6,2.3,1.6c0.8,0,6.3-0.6,7.5-0.7c0-0.4,0-2.3,0-2.7
		c0-1.7-0.3-2.1-0.7-2.4c-0.2-0.1-1.2-0.6-1.5-0.7c0.4-0.2,0.8-0.5,1.5-0.5c1.2,0,2.5,1,2.5,1.3c0,0.2-0.3,0.7-0.3,0.9
		c-0.3,1-0.3,2.6-0.3,4c2.8-0.2,3.1-0.3,3.5-0.3c0.2,0,1.1-0.3,1.3-0.3c0.5,0,2.2,0.5,2.2,1.1c0,0.1,0,0.5-0.6,0.5
		c-0.1,0-0.2,0-0.3,0c-1-0.2-2.1-0.2-3.4-0.2c-0.9,0-2,0.1-2.7,0.1c0,4.3,0,4.6,0,6.1c0,0.6,0.1,3.3,0.1,3.8c0,2.3-0.7,3.6-1.4,3.6
		c-0.4,0-0.5-0.4-0.6-0.7s-0.2-0.7-0.8-1.3c-0.6-0.5-1.4-1.2-2.1-1.8l0.1-0.2c1.2,0.4,1.3,0.5,2.5,0.9c0.3,0.1,0.4,0.2,0.5,0.2
		c0.3,0,0.4,0,0.5-1.7c0.1-3.4,0.1-5.5,0.1-7.1c-1.6,2.6-5.7,7.2-10.4,8.9L479.2,77.4z"/>
	<path class="st30" d="M504.1,69.4c0.4,0.1,0.6,0.1,2.8,0.1c0.5,0,8.9-0.1,10.7-0.3c0.5-0.1,0.5-0.1,0.8-0.2
		c0.2-0.1,0.3-0.1,0.5-0.1c0.1,0,2.4,0.3,2.4,1c0,0.6-0.7,0.6-1.3,0.6c-0.4,0-2.8-0.2-3.3-0.2c-1.5,0-8.7,0.1-10,0.3
		c-0.3,0-1,0.1-1.8,0.4c-0.5,0.2-0.6,0.2-0.8,0.2c-0.2,0-0.3,0-0.9-0.7c-0.2-0.2-0.7-0.9-0.7-1.8c0-0.4,0-0.7,0.2-1
		C503,68.6,503.5,69.2,504.1,69.4z"/>
	<path class="st30" d="M527,80.3c3.9-2.2,7.2-5,9.4-8.4c1.3-2,3-4.9,3.7-7.2c-0.8,0.2-3.7,0.5-4.8,0.5c-0.3,0-1,0-1.5-0.2
		c-0.3,0.4-1.6,2.4-1.9,2.7c-0.1,0.2-0.3,0.3-0.4,0.5c1.1,0.3,2.2,0.6,3.2,1.2c0.9,0.5,1.6,1.1,1.6,2.1c0,0.7-0.4,0.9-0.6,0.9
		c-0.3,0-0.6-0.3-1-0.8c-0.8-1.1-1.5-1.7-3.5-3c-1.8,2-3.5,2.9-4.2,3.3l-0.1-0.1c3.5-3.3,6.4-8.6,6.4-9.5c0-0.7-0.8-1.1-1.4-1.5
		c0.4-0.1,0.6-0.1,0.9-0.1c1.5,0,2.8,1.4,2.8,1.7c0,0.2-0.1,0.3-0.5,0.7c-0.2,0.2-0.6,0.8-0.9,1.2c0.3,0.1,1.2,0.1,1.3,0.1
		c2.1,0,4-0.4,4.7-0.9c0.4-0.3,0.5-0.4,0.6-0.4c0.2,0,1.7,1.4,1.8,1.6v0.1c0,0.3-0.2,0.3-0.7,0.5c-0.4,0.1-0.5,0.3-0.9,1
		c-2.5,4.6-2.7,5.1-3.4,6.1c-3.8,5.4-7.7,7.1-10.6,8.1L527,80.3z M542,60.8c1.4,0.6,2.3,1.2,2.3,2.1c0,0.5-0.3,0.8-0.5,0.8
		c-0.4,0-0.5-0.1-1.2-1.2c-0.8-1.1-1.4-1.5-2.5-2.1C540.6,60.4,541.1,60.4,542,60.8z M545.5,60.1c0.6,0.2,1.6,0.7,1.6,1.9
		c0,0.4-0.1,0.7-0.4,0.7c-0.4,0-0.5-0.1-1.2-1c-0.9-1.2-1.7-1.7-2.6-2.1C543.4,59.6,544.1,59.6,545.5,60.1z"/>
	<path class="st30" d="M550.9,69.4c0.4,0.1,0.6,0.1,2.8,0.1c0.5,0,8.9-0.1,10.7-0.3c0.5-0.1,0.5-0.1,0.8-0.2
		c0.2-0.1,0.3-0.1,0.5-0.1c0.1,0,2.4,0.3,2.4,1c0,0.6-0.7,0.6-1.3,0.6c-0.4,0-2.8-0.2-3.3-0.2c-1.5,0-8.7,0.1-10,0.3
		c-0.3,0-1,0.1-1.8,0.4c-0.5,0.2-0.6,0.2-0.8,0.2c-0.2,0-0.3,0-0.9-0.7c-0.2-0.2-0.7-0.9-0.7-1.8c0-0.4,0-0.7,0.2-1
		C549.8,68.6,550.3,69.2,550.9,69.4z"/>
	<path class="st30" d="M577.8,60.5c-0.3,0.7-0.8,1.7-1.9,3.6l0.4,0.3c0.3,0.2,0.3,0.2,0.3,0.4c0,0.4-0.5,0.6-0.7,0.7
		c-0.2,1.2-0.2,2.9-0.2,4.4c0,0.5,0.1,6.2,0.1,6.3c0,0.6,0.1,3.3,0.1,3.9c0,0.1,0,1-0.1,1.1c-0.2,0.6-0.7,0.7-1,0.7
		c-0.6,0-0.7-0.3-0.7-0.7c0-0.4,0.1-2.2,0.1-2.5c0.2-4.3,0.3-8.5,0.3-12.3c-0.7,1.1-1.5,2.1-2.4,3.2c-0.8,1-1.3,1.3-1.8,1.6
		l-0.2-0.1c1.7-2.4,4.3-6.6,5.5-9.5c0.5-1.4,0.7-2.2,0.8-3l1.9,1.1c0.3,0.2,0.4,0.2,0.4,0.4C578.8,60.3,578.4,60.4,577.8,60.5z
		 M593.3,80h-12.7c-0.8,0-2.2,0.1-3.3,0.3l-0.6-1.1c1.3,0.1,2.9,0.2,4.2,0.2h3.1v-7.9h-1.6c-0.8,0-2.2,0.1-3.3,0.3l-0.6-1.1
		c1.3,0.1,2.9,0.2,4.2,0.2h1.3v-6.5h-2.6c-0.8,0-2.2,0.1-3.3,0.3l-0.6-1.1c1.3,0.1,2.9,0.2,4.2,0.2h7.8l1-0.9
		c0.2-0.2,0.3-0.3,0.4-0.3c0.1,0,0.3,0.1,0.5,0.3l1.2,0.9c0.1,0.1,0.3,0.2,0.3,0.4c0,0.3-0.3,0.3-0.4,0.3h-7v6.5h3.2l0.9-1
		c0.2-0.2,0.3-0.3,0.4-0.3c0.2,0,0.3,0.2,0.5,0.3l1.5,1c0.1,0.1,0.3,0.2,0.3,0.4c0,0.3-0.3,0.3-0.4,0.3h-6.3v7.9h4.8l1-1.2
		c0.2-0.2,0.3-0.3,0.4-0.3c0.2,0,0.3,0.2,0.5,0.3l1.2,1.1c0.1,0.1,0.2,0.2,0.2,0.4C593.7,80,593.5,80,593.3,80z M585.3,63.2
		c-0.7,0-0.7-0.2-1.2-1.6c-0.4-1.1-0.9-2.2-1.7-3.1l0.1-0.1c0.5,0.2,3.6,1.7,3.6,3.8C586.1,62.9,585.8,63.2,585.3,63.2z"/>
	<path class="st30" d="M616,80.3c-1,0.5-2.5,0.5-4.4,0.5c-1.2,0-5.7-0.1-6.7-0.3c-1.2-0.3-1.2-1.3-1.2-1.8v-4.9l-5.2,0.9
		c-0.6,0.1-2.1,0.5-3.2,0.9l-0.8-1c1.4-0.1,2.8-0.3,4.2-0.6l4.9-0.9c0-0.7,0-3.9,0-4.7c-2.2,0.6-5.7,1.6-8,1.6V70
		c7.2-2,10-3.2,12.3-4.7c0.5-0.3,0.7-0.6,0.8-0.7l1.7,1.4c0.1,0.1,0.1,0.2,0.1,0.3c0,0.2-0.2,0.3-0.5,0.3c-0.1,0-0.6-0.1-0.9-0.2
		c-0.7,0.3-1.7,0.8-4.1,1.5v4.9l8.2-1.5l0.8-1.3c0.2-0.3,0.3-0.4,0.4-0.4c0.1,0,0.4,0.1,0.5,0.2l1.5,0.8c0.1,0.1,0.3,0.2,0.3,0.4
		c0,0.2-0.1,0.2-0.3,0.3l-11.3,2.1c0,0.6,0,5,0,5.1c0,0.2,0.1,0.4,0.5,0.6c0.4,0.1,4.8,0.2,5.6,0.2c2.6,0,3.1,0,3.7-1
		c0.5-0.9,0.8-2.6,0.9-3.5h0.2c0.1,0.4,0.3,2.1,0.3,2.5c0.2,0.9,0.2,1,0.4,1.2c0.4,0.3,0.4,0.3,0.4,0.5
		C617.1,79.7,616.2,80.1,616,80.3z M616.1,64c-0.2,0-1.1,0.1-1.3,0.1c-0.6,0.4-1.5,1-2.1,1.5l-0.2-0.1c0.1-0.2,0.9-2.4,0.9-2.4
		h-15.4c-0.1,3-1.7,4-2.5,4c-0.6,0-0.9-0.5-0.9-0.8c0-0.6,0.5-0.9,1.3-1.4c1.5-1.1,1.7-2.2,1.9-3.1h0.1c0.1,0.3,0.1,0.4,0.1,0.8h6.9
		c0-2.5,0-2.6-0.5-3.9l2.4,0.7c0.2,0.1,0.3,0.2,0.3,0.3c0,0.3-0.2,0.4-0.8,0.7c0,0.4,0,1.8,0,2.1h6.8l0.8-0.7
		c0.1-0.1,0.3-0.2,0.4-0.2c0.2,0,0.4,0.2,0.5,0.3l1.3,1.3c0.1,0.1,0.3,0.4,0.3,0.6C616.5,64,616.2,64,616.1,64z"/>
	<path class="st30" d="M620.9,64.6c0.7,0,1.4-0.2,4.2-0.9c3.8-1,11.4-2.6,11.7-2.6c0.4,0,1.8,0.5,1.8,1.2c0,0.6-0.6,0.7-1,0.7
		c-0.2,0-1.3-0.1-1.5-0.1c-2.9,0-4.2,0.7-5.7,2c-2.6,2.3-3.4,5-3.4,6.8c0,4.5,4.5,5.7,6.5,6.1c0.7,0.1,1.1,0.2,1.4,0.6
		c0.2,0.2,0.3,0.5,0.3,0.7c0,0.4-0.4,0.5-0.6,0.5c-2.6,0-8.6-1.9-8.6-7.6c0-4.4,3.3-7,5.9-9.1c-1.5,0.4-3.4,0.9-5.1,1.3
		c-3.2,0.8-4.1,1.3-5.4,2.1c-0.2,0.1-0.4,0.3-0.7,0.3c-0.4,0-1.7-0.7-1.7-2.2c0-0.4,0.1-0.6,0.2-0.8C619.9,64.4,620,64.6,620.9,64.6
		z M635.3,66.3c1.7,1.1,1.9,1.7,1.9,2.3c0,0.3-0.1,0.8-0.5,0.8c-0.3,0-0.4-0.3-0.6-0.6c-0.8-1.6-2.4-2.9-3.1-3.4
		C633.8,65.6,634.6,65.9,635.3,66.3z M640.2,67.6c0,0.6-0.3,0.7-0.5,0.7c-0.3,0-0.5-0.3-0.7-0.6c-0.9-1.2-2.1-2.1-3.3-3
		C637.4,64.8,640.2,65.9,640.2,67.6z"/>
	<path class="st30" d="M641.8,74.7c1.2,0.2,3.2,0.6,4.8,2c1.5,1.3,1.5,2.6,1.5,2.9c0,0.8-0.6,1.3-1.2,1.3c-0.4,0-0.7-0.3-1.2-1.3
		c-1.2-2.5-1.8-3.6-3.9-4.6L641.8,74.7z"/>
	<path class="st30" d="M676.5,80.9c0.4-0.1,1.6-0.4,2.9-1c2.4-1.1,4.5-3,4.5-6c0-1.5-0.5-2.9-2.1-3.9c-0.9-0.6-1.8-0.7-2.1-0.8
		c-0.4,0.8-1.5,2.3-2.2,3.2c-1.7,2.3-2.2,2.7-2.9,3.2c0.1,0.2,0.1,0.4,0.3,0.6c0.5,1,0.5,1.1,0.5,1.4c0,0.1,0,0.7-0.6,0.7
		c-0.7,0-1.3-1.6-1.4-1.8c-1.8,1.4-4.1,2.6-5,2.6c-0.9,0-1.1-0.4-1.4-1.1c-0.1-0.2-0.6-0.7-0.6-0.8c-0.2-0.2-0.3-0.5-0.3-1
		c0-1.5,1.8-4.9,6.6-6.8c0.2-2.1,0.4-3.4,0.6-4c-1.6,0.3-2.5,0.4-3.5,0.4c-0.8,0-2-0.1-2.7-1.5c1.3,0.4,2.3,0.5,2.9,0.5
		c1.2,0,2.4-0.2,3.5-0.4c0.1-0.3,0.4-1.5,0.4-1.7c0-0.1,0.3-1.5,0.3-1.9c0-0.9-0.9-1.4-1.4-1.7c0.2-0.1,0.3-0.2,0.6-0.2
		c1.7,0,2.8,1.1,2.8,1.6c0,0.2,0,0.2-0.3,0.7c-0.4,0.9-0.6,1.2-1.1,2.7c1.4-0.4,2.2-0.7,3.7-1.2c0.3-0.1,0.5-0.2,0.6-0.2
		c0.5,0,1.4,0.6,1.4,0.8c0,0.3-0.4,0.4-1.6,0.7c-1.7,0.5-4,0.9-4.5,1c-0.5,2.1-0.6,3.3-0.6,3.8c1.6-0.5,3-0.6,4.5-0.6
		c0-0.2-0.1-0.3-0.2-0.6c-0.3-0.6-0.4-0.7-0.5-0.9c1.1-0.1,2.1,0.8,2.2,1.6c2.6,0.5,5.8,1.8,5.8,5.5c0,3-2,4.8-4,5.9
		c-2.2,1.2-3.9,1.3-5.2,1.3V80.9z M672.5,70.3c-2.9,1.4-5.3,4.1-5.3,6.1c0,1,0.6,1.4,1.3,1.4c1,0,3.2-1.2,4.6-2.3
		C672.9,74.6,672.5,72.8,672.5,70.3z M674.3,74.5c1.6-1.6,3.5-4.7,3.8-5.5c-0.4,0-2.2-0.1-4.4,0.8C673.7,71.7,674,73.2,674.3,74.5z"
		/>
	<path class="st30" d="M697.5,81.6c1.8-1.3,3.4-3.3,4.4-5.7c1-2.2,1.2-4.6,1.2-7c0-2.6-0.4-4.9-0.8-5.5c-0.3-0.4-0.8-0.8-1.2-0.8
		c-0.2,0-0.7,0.1-1.1,0.5c-2.4,2.3-3.5,7.2-3.6,7.5c-0.2,0.9-0.3,2.6-0.3,2.9c0,0.2,0.1,1,0.1,1.2c0,0.3-0.2,0.4-0.4,0.4
		c-0.3,0-0.7-0.3-0.8-0.5c-1-1.3-1-3.9-1-4.3c0-1.6,0.7-5.9,1-7.6c0.1-0.5,0.1-0.9,0.1-1.1c0-1.2-0.7-1.7-1.6-2.3
		c0.2,0,0.4-0.1,0.6-0.1c0.8,0,2.4,0.5,2.4,1.7c0,0.4-0.1,0.6-0.3,1.2c-0.2,0.4-1.3,4.2-1.3,7.2c0,0.3,0,1.7,0.2,1.9
		c0,0.1,0.1,0.1,0.1,0.1c0.1,0,0.2-0.1,0.2-0.3c0.4-1.6,1.8-6.7,4.7-8.6c0.4-0.3,0.9-0.3,1.1-0.3c3.1,0,3.4,5,3.4,7.3
		c0,3.4-0.5,7.6-4.1,10.7c-0.7,0.6-2,1.6-3,1.8V81.6z"/>
	<path class="st30" d="M723.3,79c7.6-2.6,8-8.1,8-9.4c0-4.5-4.2-6.8-8-6.8c-0.5,0-0.7,0.1-0.9,0.1c1.2,1,1.2,1.8,1.2,1.9
		c0,0.3-0.1,0.4-0.6,1.5c-3.1,6.5-3.4,7.1-4.8,9.3c-0.1,0.2-0.9,1.4-1.4,1.6c-0.2,0.1-0.3,0.1-0.5,0.1c-0.6,0-0.8-0.3-1.5-1.3
		c-0.2-0.3-0.3-0.4-0.7-0.7c-1-0.8-1.3-1.7-1.3-3.4c0-5.1,4.3-9.9,10.8-9.9c4.7,0,9.3,2.6,9.3,7.9c0,4.7-3.7,8.8-9.5,9.4L723.3,79z
		 M720.4,69.1c0.8-1.4,1.5-3.4,1.5-4.4c0-0.9-0.5-1.4-0.7-1.6c-2.8,0.2-7.1,4-7.1,9c0,1.9,1.2,3.6,2.2,3.6c0.2,0,0.3,0,0.5-0.2
		c0.6-0.6,1-1.4,1.5-2.2L720.4,69.1z"/>
	<path class="st30" d="M746.4,61.2c0-1.1-0.2-1.2-1.9-2c0.2-0.2,0.5-0.4,1.3-0.4c1.3,0,2.4,0.9,2.4,1.5c0,0.1-0.1,0.6-0.3,1.1
		c-0.1,0.5-0.2,1.1-0.3,1.9c1.8-0.4,2.5-0.7,4-1.2c0.2-0.1,0.4-0.2,0.6-0.2c0.5,0,1.4,0.5,1.4,0.8c0,0.3-0.3,0.5-0.5,0.5
		c-0.8,0.3-3,0.9-5.6,1.3c-0.1,1.1-0.1,2.6-0.1,4.1c1.7-0.4,2.2-0.6,3.4-1c0.1-0.1,0.3-0.1,0.5-0.1c0.5,0,1.3,0.3,1.3,0.7
		c0,0.4-0.3,0.5-0.6,0.6c-0.5,0.2-2.8,0.6-4.6,1c0.1,1,0.3,4.6,0.4,5.8c2.9,0.7,5.4,1.9,5.4,3.2c0,0.5-0.3,0.7-0.6,0.7
		c-0.2,0-0.3-0.1-1.2-0.7c-0.3-0.2-1.9-1.2-3.6-1.7c0,1.5-0.6,2.1-1,2.3c-1.1,0.8-2.7,0.9-3.1,0.9c-2.6,0-4.3-1.3-4.3-2.5
		c0-0.8,0.5-1.3,1.3-1.8c1.4-0.8,3.9-0.8,4.3-0.8c0.6,0,1,0,1.3,0.1c0-0.8-0.2-4.6-0.3-5.3c-1.3,0.2-2.6,0.3-3.8,0.3
		c-1.5,0-2.5-0.3-2.5-1.2c0-0.4,0.5-1.1,1.2-1.2c-0.2,0.2-0.4,0.5-0.4,0.8c0,0.5,0.5,0.6,1.8,0.6c1,0,2.2-0.1,3.6-0.4
		c0-1.4,0-2.1,0.1-4.2c-1,0.1-4.4,0.5-5.1,0.5c-0.7,0-2.7-0.2-3.4-1.7c0.4,0.2,1.5,0.6,3.3,0.6c0.5,0,2.6-0.1,5.2-0.6
		C746.3,63.3,746.4,61.6,746.4,61.2z M743.7,76.6c-1.7,0-3.4,0.4-3.4,1.5c0,0.7,1.1,1.3,3.1,1.3c1.1,0,3.3-0.3,3.1-2.5
		C746,76.7,745.3,76.6,743.7,76.6z"/>
	<path class="st30" d="M769.8,61.2c0-1.1-0.2-1.2-1.9-2c0.2-0.2,0.5-0.4,1.3-0.4c1.3,0,2.4,0.9,2.4,1.5c0,0.1-0.1,0.6-0.3,1.1
		c-0.1,0.5-0.2,1.1-0.3,1.9c1.8-0.4,2.5-0.7,4-1.2c0.2-0.1,0.4-0.2,0.6-0.2c0.5,0,1.4,0.5,1.4,0.8c0,0.3-0.3,0.5-0.5,0.5
		c-0.8,0.3-3,0.9-5.6,1.3c-0.1,1.1-0.1,2.6-0.1,4.1c1.7-0.4,2.2-0.6,3.4-1c0.1-0.1,0.3-0.1,0.5-0.1c0.5,0,1.3,0.3,1.3,0.7
		c0,0.4-0.3,0.5-0.6,0.6c-0.5,0.2-2.8,0.6-4.6,1c0.1,1,0.3,4.6,0.4,5.8c2.9,0.7,5.4,1.9,5.4,3.2c0,0.5-0.3,0.7-0.6,0.7
		c-0.2,0-0.3-0.1-1.2-0.7c-0.3-0.2-1.9-1.2-3.6-1.7c0,1.5-0.6,2.1-1,2.3c-1.1,0.8-2.7,0.9-3.1,0.9c-2.6,0-4.3-1.3-4.3-2.5
		c0-0.8,0.5-1.3,1.3-1.8c1.4-0.8,3.9-0.8,4.3-0.8c0.6,0,1,0,1.3,0.1c0-0.8-0.2-4.6-0.3-5.3c-1.3,0.2-2.6,0.3-3.8,0.3
		c-1.5,0-2.5-0.3-2.5-1.2c0-0.4,0.5-1.1,1.2-1.2c-0.2,0.2-0.4,0.5-0.4,0.8c0,0.5,0.5,0.6,1.8,0.6c1,0,2.2-0.1,3.6-0.4
		c0-1.4,0-2.1,0.1-4.2c-1,0.1-4.4,0.5-5.1,0.5c-0.7,0-2.7-0.2-3.4-1.7c0.4,0.2,1.5,0.6,3.3,0.6c0.5,0,2.6-0.1,5.2-0.6
		C769.7,63.3,769.8,61.6,769.8,61.2z M767.1,76.6c-1.7,0-3.4,0.4-3.4,1.5c0,0.7,1.1,1.3,3.1,1.3c1.1,0,3.3-0.3,3.1-2.5
		C769.4,76.7,768.7,76.6,767.1,76.6z"/>
	<path class="st30" d="M793.5,79c7.6-2.6,8-8.1,8-9.4c0-4.5-4.2-6.8-8-6.8c-0.5,0-0.7,0.1-0.9,0.1c1.2,1,1.2,1.8,1.2,1.9
		c0,0.3-0.1,0.4-0.6,1.5c-3.1,6.5-3.4,7.1-4.8,9.3c-0.1,0.2-0.9,1.4-1.4,1.6c-0.2,0.1-0.3,0.1-0.5,0.1c-0.6,0-0.8-0.3-1.5-1.3
		c-0.2-0.3-0.3-0.4-0.7-0.7c-1-0.8-1.3-1.7-1.3-3.4c0-5.1,4.3-9.9,10.8-9.9c4.7,0,9.3,2.6,9.3,7.9c0,4.7-3.7,8.8-9.5,9.4L793.5,79z
		 M790.6,69.1c0.8-1.4,1.5-3.4,1.5-4.4c0-0.9-0.5-1.4-0.7-1.6c-2.8,0.2-7.1,4-7.1,9c0,1.9,1.2,3.6,2.2,3.6c0.2,0,0.3,0,0.5-0.2
		c0.6-0.6,1-1.4,1.5-2.2L790.6,69.1z"/>
	<path class="st30" d="M826.3,77.6c-2.1-0.8-3.4-1.7-4.5-2.5c-0.1,0.1-0.2,0.1-0.4,0.3c0,0.9,0.2,4.8,0.2,5.6c0,0.5-0.6,0.8-1,0.8
		c-0.4,0-0.4-0.2-0.4-1h-8.1c0,0.6,0,0.6-0.1,0.7c-0.2,0.2-0.6,0.4-0.9,0.4c-0.4,0-0.4-0.2-0.4-0.4c0-0.2,0.1-5.9,0.1-6.4
		c-1,0.8-3.3,2.7-6.6,3.4v-0.1c1.2-0.6,4.3-2,8.2-6.2h-3.8c-0.9,0-2.3,0.1-3.3,0.3l-0.6-1.1c1.9,0.2,3.7,0.2,4.2,0.2h4
		c0.9-1,1.3-1.8,1.6-2.3h-3.7c0,0.7-0.8,0.9-1,0.9c-0.3,0-0.4-0.2-0.4-0.4c0-0.2,0-0.7,0-0.8c0.1-1.3,0.1-2.6,0.1-3.9
		c0-0.8-0.1-1.3-0.2-1.8l1.8,0.8h10.2l0.4-0.4c0.2-0.2,0.3-0.3,0.4-0.3c0.1,0,0.1,0,0.3,0.2l0.8,0.6c0.1,0.1,0.3,0.2,0.3,0.4
		c0,0.1-0.1,0.2-0.3,0.4c-0.2,0.1-0.2,0.2-0.4,0.3c0,0.8,0,1.7,0,2.4c0,0.2,0.1,1.6,0.1,1.7c0,0.5-0.6,0.8-0.9,0.8
		c-0.4,0-0.4-0.4-0.4-0.7h-6.2l0.6,0.3c0.1,0,0.2,0.2,0.2,0.3c0,0.3-0.3,0.4-0.9,0.5c-0.3,0.4-0.4,0.5-1,1.2h10.1l0.8-1.1
		c0.1-0.2,0.3-0.3,0.4-0.3c0.2,0,0.4,0.2,0.5,0.3l1.3,1.1c0.2,0.1,0.3,0.2,0.3,0.4c0,0.2-0.2,0.3-0.4,0.3h-7.7
		c2.1,2.4,5.2,3.4,8.3,3.8v0.1C827.1,76.3,826.7,76.9,826.3,77.6z M826.8,61.6h-7.3c0,0.2,0.1,0.9,0.1,1.1c0,0.5-0.7,0.7-0.9,0.7
		c-0.3,0-0.4-0.2-0.4-0.4v-1.3h-4.8c0,0.4,0,1.1-0.1,1.2c-0.2,0.3-0.6,0.5-0.9,0.5c-0.2,0-0.3-0.1-0.4-0.4c0-0.2,0-1.2,0-1.4h-3
		c-0.9,0-2.3,0.1-3.3,0.3l-0.6-1.1c1.9,0.2,3.8,0.2,4.2,0.2h2.6c0-1.7-0.1-1.9-0.3-2.5l1.9,0.4c0.2,0.1,0.4,0.1,0.4,0.3
		c0,0.2-0.1,0.2-0.7,0.6V61h4.8c0-1.7,0-1.9-0.2-2.5l1.7,0.4c0.3,0.1,0.5,0.1,0.5,0.3c0,0.2,0,0.2-0.7,0.6c0,0.5,0,0.7,0,1.2h4.7
		l0.8-1c0.3-0.3,0.3-0.3,0.4-0.3c0.2,0,0.5,0.3,0.5,0.3l1.2,1c0.2,0.1,0.3,0.2,0.3,0.4C827.2,61.6,827,61.6,826.8,61.6z M821.7,64.7
		h-11v1.7h11V64.7z M821.7,66.9h-11v1.7h11V66.9z M819.3,72.2h-5.4c-1,1-1.6,1.6-2,2l0.1,0h8.3l0.3-0.3
		C820.2,73.4,819.8,72.9,819.3,72.2z M820.2,74.8h-8.1v2.3h8.1V74.8z M820.2,77.7h-8.1v2.4h8.1V77.7z"/>
	<path class="st30" d="M837.2,80.1c2.1-0.3,3.8-1,4.6-1.3c2.6-1.1,4.7-2.6,4.7-5.1c0-2-1.5-3.4-3.5-3.4c-3.8,0-7.6,3.3-8.6,5
		c-0.2,0.4-0.3,0.5-0.5,0.5c-0.7,0-1.1-1.4-1.1-2c0-0.2,0.2-0.9,0.3-1.4c0.2-0.9,0.6-3.8,0.6-5.6c0-2,0-2.2,0.4-2.8
		c0.6-0.9,1-1,4.1-1.6c0.1,0,0.2-0.1,0.2-0.2c0-0.1-0.1-0.2-0.5-0.4c-0.5-0.3-2.1-1.3-2-2.6c0.8,0.7,1.9,1.3,3.7,2.1
		c1.5,0.7,1.7,1.7,1.7,2.1c0,0.5-0.3,0.5-0.5,0.5c-0.3,0-0.6-0.1-1.1-0.4c-0.3-0.2-1.5-0.3-2.3-0.3c-1,0-3.1,0.1-3.1,1.7
		c0,0.5,0.2,1.1,0.3,1.2c0.1,0.3,0.3,0.9,0.3,1.2c0,0.1-0.2,0.9-0.2,1.1c-0.1,0.2-0.5,2.4-0.5,4c0,0.3,0.1,0.6,0.3,0.6
		c0.1,0,0.1,0,0.3-0.2c2.3-2.1,5.8-3.4,8.4-3.4c3.2,0,4.8,2.4,4.8,4.4c0,2.6-2.3,4.3-3.5,4.9c-1.9,0.9-4.2,1.5-7.2,1.5V80.1z"/>
	<path class="st30" d="M873.1,74.7c-1.8,3.5-6.2,5.8-10.2,5.8c-0.7,0-2.9-0.2-3.8-1.2c-0.8-1-1-2.6-1-5.1c0-0.4,0.1-5.4,0.2-6.2
		c0-0.8,0.2-4.2,0.2-4.9c0-2.1-0.7-2.4-1.8-2.8c0.2-0.2,0.4-0.4,1.1-0.4c1.1,0,2.5,1.2,2.5,1.9c0,0.2-0.1,0.9-0.2,1.4
		c-0.6,3.1-0.9,8.2-0.9,11.4c0,1,0,3.2,0.5,3.9c0.6,0.7,1.5,0.9,2.5,0.9c3.2,0,8.7-2.6,10.9-4.8L873.1,74.7z"/>
	<path class="st30" d="M885.4,60.3c0-0.6-0.5-0.8-1.6-1.2c0.2-0.2,0.4-0.4,1-0.4c1.2,0,2.3,0.8,2.3,1.4c0,0.1,0,0.3-0.4,0.8
		c-0.2,0.3-1.2,1.8-1.4,2c0.6-0.2,1.3-0.3,3-1c0.1-0.1,0.5-0.2,0.7-0.2c0.4,0,1.3,0.2,1.3,0.7c0,0.4-0.4,0.6-1,0.7
		c-1.8,0.4-2.7,0.6-4.8,1c-1.1,1.5-2.2,3.2-3,4.6c0.6-0.4,1.3-0.8,2.5-0.8c2.3,0,2.8,1.7,3.1,2.7c1.2-0.7,2.6-1.4,5.5-2.7
		c0.3-0.2,0.5-0.3,0.5-0.7c0-0.3-0.3-0.6-0.7-0.9c0.2-0.1,0.3-0.1,0.4-0.1c0.5,0,2.5,0.6,2.5,2c0,0.5-0.3,0.6-1.3,0.7
		c-1.3,0.2-4.8,1.6-6.7,2.6c0.1,0.7,0.3,1.7,0.3,3.2c0,0.3,0,2.1-0.8,2.1c-0.7,0-0.7-1.1-0.7-1.4c0-0.1,0.1-1.7,0.1-2
		c0-0.1,0-0.6-0.1-1.2c-2,1.3-3.8,3.3-3.8,4.7c0,1.9,3.2,1.9,4,1.9c1.3,0,2.8-0.2,3.9-0.5c0.4-0.1,0.6-0.1,0.8-0.1
		c0.8,0,1.5,0.4,1.5,0.9c0,0.2-0.1,0.5-0.7,0.6c-0.6,0.1-2.1,0.3-3.7,0.3c-3.9,0-4.8-0.4-5.6-1c-0.5-0.4-1.2-1.1-1.2-2.1
		c0-0.4,0.2-1.4,0.9-2.4c0.8-1,1.9-2.1,3.7-3.4c-0.3-1.5-0.7-2.6-2.3-2.6c-1.5,0-2.7,1.2-3.3,2c-1,1.4-1.1,1.6-1.5,1.6
		c-0.6,0-0.6-0.7-0.6-0.9c0-0.6,0.2-0.7,0.6-1c1.3-0.9,3.1-3.9,4.4-6c-1.4,0.3-1.9,0.4-2.7,0.4c-2,0-2.3-1.4-2.4-2
		c0.8,0.6,1.4,0.9,2.4,0.9c1.1,0,2.4-0.2,3.3-0.4C884.3,62.7,885.4,60.8,885.4,60.3z"/>
	<path class="st30" d="M922.6,69.4v1.4h-25.4v-1.4H922.6z"/>
	<path class="st30" d="M922.5,77.2c0-2.1,1.7-3.7,3.7-3.7c2,0,3.7,1.7,3.7,3.7c0,2.1-1.7,3.7-3.7,3.7
		C924.1,80.9,922.5,79.2,922.5,77.2z M929.2,77.2c0-1.7-1.3-3-3-3c-1.7,0-3,1.4-3,3c0,1.6,1.3,3,3,3
		C927.9,80.2,929.2,78.8,929.2,77.2z"/>
</g>
<g>
	<g>
		<path class="st31" d="M1115.6,54.6h-2l0,1.3c0.6,0.2,2.2,1.1,2.2,1.9c0,0.2-0.1,0.5-0.4,0.5c-0.4,0-0.5-0.3-0.7-0.9
			c-0.1-0.4-0.5-1-1-1.3c0,2.1,0,2.9,0,4.1c0,1.5,0,2.4,0.1,3.3c0,0.2,0.1,1.1,0.1,1.2c0,0.4-0.3,0.6-0.7,0.6
			c-0.4,0-0.4-0.3-0.4-0.4c0-0.4,0.1-2.1,0.1-2.5c0-0.9,0.1-5.1,0.2-5.7c-0.5,1.4-1.6,3.5-3.2,4.9l-0.1-0.1c1.2-1.4,2.9-5.6,3.1-6.9
			c-0.6,0-1.5,0.1-2.1,0.2l-0.4-0.7c0.6,0,1.5,0.1,2.7,0.1c0-2.6-0.1-2.9-0.4-3.8l1.4,0.4c0.1,0,0.3,0.1,0.3,0.3
			c0,0.2-0.2,0.3-0.6,0.4c0,0.4,0,2.3,0,2.7h0.7l0.4-0.5c0.1-0.1,0.1-0.2,0.2-0.2c0.1,0,0.2,0.1,0.3,0.2l0.5,0.5
			c0.1,0.1,0.2,0.1,0.2,0.2C1115.9,54.6,1115.7,54.6,1115.6,54.6z M1124.2,64.2c-1.4-1-2.5-2.1-3.6-4.5h-0.1c0,1,0.1,2.6,0.1,3.9
			c0,0.2,0,0.9,0,1.1c0,0.5-0.3,0.7-0.7,0.7c-0.3,0-0.4-0.2-0.4-0.4c0,0,0-0.5,0-0.6c0-0.3,0-1.1,0-1.3v-1.5c0-0.3,0-0.4,0-1.4
			c-1.2,1.7-2.8,3.2-4.8,4.1l0-0.1c1.6-1.3,3.2-2.9,4.1-4.6h-1.4c0.1,0.6-0.5,0.7-0.6,0.7c-0.2,0-0.3-0.1-0.3-0.3c0-0.1,0-0.5,0-0.6
			c0-0.5,0-1.1,0-1.6c0-0.2,0-2.5,0-2.6c0-0.6-0.1-0.8-0.1-1.1l1.2,0.7h2l0-1.8h-1.4c-0.5,0-1.4,0.1-2.1,0.2l-0.4-0.7
			c0.9,0.1,1.8,0.1,2.7,0.1h1.1c0-1.4,0-1.6-0.2-2.2l1.3,0.3c0.2,0,0.3,0.1,0.3,0.2c0,0.2-0.2,0.3-0.6,0.5c0,0.1,0,0.7,0,1.1h2.4
			l0.5-0.6c0.1-0.1,0.2-0.2,0.3-0.2c0.1,0,0.2,0.1,0.3,0.2l0.6,0.6c0.1,0.1,0.1,0.2,0.1,0.2c0,0.2-0.1,0.2-0.2,0.2h-4l0,1.8h2
			l0.3-0.4c0.1-0.1,0.2-0.2,0.2-0.2s0.1,0,0.3,0.1l0.6,0.5c0,0,0.1,0.1,0.1,0.2c0,0.1-0.2,0.3-0.5,0.4c0,0.7,0,1.2,0,2
			c0,0.5,0.1,1.4,0.1,1.9c0,0.6-0.4,0.7-0.7,0.7c-0.3,0-0.3-0.2-0.3-0.4h-1.9c0.7,1.1,2.2,2.9,4.8,3.5v0.1
			C1125.2,63.4,1124.7,63.6,1124.2,64.2z M1119.7,55.2h-2.1V57h2.2L1119.7,55.2z M1117.6,57.4v1.9h2.2l0-1.9H1117.6z M1122.8,55.2
			h-2.2l0,1.8h2.2V55.2z M1122.8,57.4h-2.2v1.9h2.2V57.4z"/>
		<path class="st31" d="M1113.1,85.6c1.5-1,2.6-2.9,3-3.6c1-1.9,1.2-3.5,1.2-3.7c0-0.3,0-0.3-0.3-0.6c-1.4,0.2-3.5,0.5-3.8,0.6
			c-0.4,0.2-0.5,0.3-0.7,0.3c-0.3,0-1.2-0.6-1.2-1.7c0-0.1,0-0.2,0-0.4c0.8,1,1,1.1,1.5,1.1c0.1,0,0.7,0,1.5-0.1
			c1.7-0.2,1.9-0.2,7-0.6c0.2,0,0.3-0.1,0.4-0.1c0.2-0.1,0.3-0.1,0.3-0.1c0,0,1.6,0.4,1.6,1c0,0.2-0.1,0.4-0.3,0.4
			c-0.2,0-0.9-0.1-1.3-0.2c-0.6-0.1-1.1-0.2-2-0.2c-1.1,0-2,0.1-2.4,0.1c0.7,0.6,0.8,0.7,0.8,0.7c0,0.1,0.1,0.1,0.1,0.2
			c0,0.1-0.3,0.4-0.3,0.4c0,0.1-0.1,0.2-0.1,0.2c-1,3.5-2.9,6-5.1,6.7L1113.1,85.6z M1119.8,74.3c-0.9,0-2.8,0.2-3.7,0.3
			c-0.3,0-0.7,0-0.8,0c-0.8,0-1.3-0.4-1.4-1.3c0.7,0.5,1.5,0.5,1.9,0.5c0.5,0,2-0.1,2.5-0.2c0.3,0,0.6-0.1,1.1-0.3
			c0.2-0.1,0.2-0.1,0.3-0.1c0.1,0,0.7,0.1,1,0.2c0.1,0.1,0.3,0.2,0.3,0.4c0,0.4-0.3,0.4-1,0.4H1119.8z M1124.3,75.7
			c0,0.2-0.1,0.4-0.3,0.4c-0.3,0-0.6-0.4-0.8-0.7c-0.2-0.3-0.9-1-1.6-1.4C1122.7,74.1,1124.3,74.6,1124.3,75.7z M1125.7,74.5
			c0,0,0,0.6-0.3,0.6c-0.2,0-0.3-0.2-0.7-0.6c-0.1-0.2-0.7-0.9-1.8-1.5C1123.8,73,1125.7,73.5,1125.7,74.5z"/>
		<path class="st31" d="M1136.4,75.7c0-0.2-0.6-0.7-0.6-0.7c0.4,0,0.6,0,1.2,0.3c0.9,0.5,1,1.1,1,1.2c0,0.2,0,0.2-0.4,0.3
			c-0.2,0-0.5,0.1-0.7,0.2c-3.6,1.7-3.9,1.9-4.8,2.2c-0.8,0.3-1.5,0.4-1.7,0.4c0,0.6,0,1.2,0,1.9c0,0.9,0,1.3,0.5,1.6
			c0.6,0.4,2.1,0.5,2.9,0.5c1.2,0,1.9-0.2,3.1-0.5c0.3-0.1,0.4-0.1,0.6-0.1c0.2,0,0.6,0.1,0.9,0.2c0.2,0.1,0.3,0.2,0.3,0.4
			c0,0.2-0.3,0.4-0.3,0.4c-0.4,0.2-3.5,0.3-4.2,0.3c-0.3,0-3,0-3.9-0.8c-0.6-0.5-0.7-1.2-0.7-2.6c0-0.6,0.1-3.2,0.1-3.7
			c0-0.7,0-1.3,0-2c0-0.5,0-0.7-0.2-1c-0.2-0.3-0.7-0.5-1.1-0.7c0.4-0.2,0.5-0.2,0.7-0.2c0.4,0,2,0.5,2,1c0,0.1,0,0.2-0.2,0.5
			c-0.1,0.1-0.1,0.2-0.1,0.5c-0.1,1.1-0.2,2.8-0.2,3.9C1132.7,78.6,1136.4,76.1,1136.4,75.7z M1137.9,73.2c0.2,0.1,0.8,0.3,0.8,1
			c0,0.3-0.2,0.5-0.3,0.5c-0.2,0-0.2,0-0.6-0.6c-0.2-0.2-0.3-0.4-1.8-1.4C1136.6,72.7,1137.3,72.9,1137.9,73.2z M1137.8,71.8
			c0.5,0,2.6,0.4,2.6,1.5c0,0.2-0.1,0.4-0.3,0.4c-0.2,0-0.2,0-0.7-0.5c-0.1-0.1-0.6-0.5-0.9-0.7c-0.5-0.4-0.9-0.5-1.2-0.7
			C1137.6,71.9,1137.7,71.8,1137.8,71.8z"/>
		<path class="st31" d="M1152.6,82.5c0.1,0,0.7-0.1,0.9-0.1c0.2,0,1.2,0.4,1.2,0.8c0,0.1-0.1,0.4-0.4,0.4c-0.1,0-0.3,0-0.6-0.2
			c-0.4-0.2-1.1-0.3-2-0.3c-1.7,0-5.1,0.3-6.4,0.7c-0.1,0-0.7,0.3-0.8,0.3c-0.2,0-0.9-0.4-1-0.7c-0.1-0.3-0.1-0.8-0.1-0.9
			c0-0.1,0-0.1,0-0.3c0.4,0.6,0.6,0.9,1.2,0.9c0.2,0,2-0.2,2.3-0.2c0.6-0.1,2-0.2,2.7-0.2c0.1-0.4,0.4-2.2,0.5-2.5
			c0.2-1.6,0.3-1.8,0.4-2.2c-1.3,0.1-3.3,0.6-3.4,0.6c-0.1,0-0.7,0.2-0.8,0.2c-0.2,0-0.3-0.2-0.4-0.4c-0.4-0.5-0.4-0.6-0.4-0.9
			c0-0.1,0-0.2,0-0.4c0.3,0.6,0.8,0.7,1.1,0.7c0.1,0,3.5-0.3,3.7-0.6c0.3-0.3,0.3-0.3,0.4-0.3c0.2,0,1.2,0.8,1.2,1
			c0,0.1,0,0.1-0.4,0.3c-0.3,0.1-0.3,0.2-0.4,0.4c-0.1,0.6-0.2,0.9-0.4,1.8c-0.1,0.7-0.2,0.8-0.4,2
			C1150.7,82.6,1152.3,82.5,1152.6,82.5z"/>
		<path class="st31" d="M1159.7,78.6c0.2,0.1,0.4,0.1,1.8,0.1c0.3,0,5.7,0,6.9-0.2c0.3,0,0.3,0,0.5-0.1c0.1,0,0.2,0,0.3,0
			c0.1,0,1.5,0.2,1.5,0.6c0,0.4-0.4,0.4-0.9,0.4c-0.2,0-1.8-0.1-2.1-0.1c-1,0-5.6,0.1-6.4,0.2c-0.2,0-0.7,0.1-1.1,0.2
			c-0.3,0.1-0.4,0.1-0.5,0.1c-0.1,0-0.2,0-0.6-0.5c-0.1-0.1-0.5-0.6-0.5-1.2c0-0.2,0-0.4,0.1-0.6
			C1158.9,78.1,1159.3,78.5,1159.7,78.6z"/>
		<path class="st31" d="M1179.7,84.7c0-0.4,0.3-0.8,0.8-0.8s0.8,0.4,0.8,0.8c0,0.4-0.3,0.8-0.8,0.8
			C1180,85.6,1179.7,85.2,1179.7,84.7z M1180.3,80.5c0-0.9-0.3-5.6-0.4-6.4c0-0.1,0-0.2,0-0.3c0-0.4,0.3-0.7,0.7-0.7
			c0.4,0,0.7,0.3,0.7,0.7c0,0.1,0,0.2,0,0.3c-0.1,0.9-0.4,5.6-0.4,6.4v2.7h-0.5V80.5z"/>
		<path class="st31" d="M1184.9,84.7c0-0.4,0.3-0.8,0.8-0.8s0.8,0.4,0.8,0.8c0,0.4-0.3,0.8-0.8,0.8
			C1185.3,85.6,1184.9,85.2,1184.9,84.7z M1185.5,80.5c0-0.9-0.3-5.6-0.4-6.4c0-0.1,0-0.2,0-0.3c0-0.4,0.3-0.7,0.7-0.7
			c0.4,0,0.7,0.3,0.7,0.7c0,0.1,0,0.2,0,0.3c-0.1,0.9-0.4,5.6-0.4,6.4v2.7h-0.5V80.5z"/>
	</g>
</g>
<g>
	<path class="st31" d="M1003.3,45.3c-0.2,0.6-0.2,0.7-0.2,0.7c-0.2,0.4-0.6,0.4-0.7,0.4c-0.2,0-0.4-0.1-0.4-0.3
		c0-0.1,0.1-0.3,0.2-0.5c0.1-0.2,1.7-4.3,1.9-5.3h-0.4c-0.3,0-1.3,0-2.1,0.2l-0.4-0.7c0.9,0.1,1.9,0.1,2.8,0.1l0.4-0.3
		c0.1,0,0.2-0.1,0.3-0.1s0.2,0.1,0.3,0.1l0.5,0.4c0.1,0.1,0.1,0.2,0.1,0.3c0,0.2-0.5,0.4-0.8,0.5c0,0,0,0.1-0.1,0.2
		c-0.7,2-0.8,2.2-1.4,3.9h1.4l0.4-0.2c0.1,0,0.1-0.1,0.2-0.1c0.1,0,0.1,0,0.2,0.1l0.5,0.5c0.1,0.1,0.2,0.1,0.2,0.2
		c0,0.2-0.3,0.3-0.6,0.5c-0.1,1.8-0.4,3.3-1.2,4.7c0.8,0.7,2.1,1.6,6.2,1.6c2.5,0,4.3-0.3,5.4-0.5l0,0.1c-1,0.4-1.1,1-1.2,1.4
		c-5.7,0-8.6-0.2-10.7-2.1c-1,1.6-2.4,2.3-3.3,2.8l-0.1-0.1c0.8-0.7,2-1.8,2.8-3.3c-0.9-1.1-1.3-2.1-1.6-3.1l0.1-0.1
		c0.4,1,1,1.9,1.7,2.7c0.4-0.9,0.9-2.8,0.9-4.7H1003.3z M1012.5,40.4l0.4-0.4c0.1-0.1,0.2-0.2,0.3-0.2s0.2,0.1,0.3,0.2l0.4,0.4
		c0.1,0.1,0.2,0.2,0.2,0.3c0,0.1-0.3,0.3-0.5,0.4c0,0.5,0,1.3,0,1.7h0.9l0.4-0.5c0.1-0.1,0.1-0.2,0.2-0.2c0.1,0,0.2,0.1,0.3,0.2
		l0.6,0.5c0.1,0.1,0.2,0.1,0.2,0.2c0,0.2-0.2,0.2-0.3,0.2h-2.3c0,0.2,0.1,1.5,0.1,1.8c0,0.5,0,0.5-0.1,0.7c-0.2,0.2-0.5,0.2-0.6,0.2
		c-0.3,0-0.2-0.1-0.2-0.4h-2.3l0,1.6h2.8l0.4-0.5c0.1-0.2,0.2-0.2,0.2-0.2c0.1,0,0.2,0.1,0.3,0.2l0.6,0.5c0.1,0.1,0.2,0.1,0.2,0.2
		c0,0.2-0.2,0.2-0.3,0.2h-4.3l0,1.8h3.3l0.5-0.6c0.1-0.2,0.2-0.2,0.3-0.2c0,0,0.1,0,0.3,0.2l0.6,0.6c0.1,0.1,0.2,0.1,0.2,0.3
		c0,0.2-0.2,0.2-0.2,0.2h-4.9c0,0.2,0,1.1,0,1.3c0,0.5-0.6,0.7-0.7,0.7c-0.1,0-0.3-0.1-0.3-0.3c0-0.1,0-1.4,0-1.7h-1
		c-0.3,0-1.3,0-2.1,0.2l-0.4-0.7c0.9,0.1,1.9,0.1,2.7,0.1h0.8l0-1.8h-0.4c-0.3,0-1.3,0-2.1,0.2l-0.4-0.7c1.5,0.1,2.6,0.1,2.9,0.1
		l0-1.6h-0.2c-0.3,0-1.3,0-2.1,0.2l-0.4-0.7c1.2,0.1,2.2,0.1,2.8,0.1l0-1.9h-1.4c-0.3,0-1.3,0-2.1,0.2l-0.4-0.7
		c0.9,0.1,1.9,0.1,2.7,0.1h1.2l0-2h-0.3c-0.3,0-1.3,0-2.1,0.2l-0.4-0.7c1.2,0.1,2.3,0.1,2.8,0.1c0-0.9,0-1-0.2-1.5l1.3,0.3
		c0.1,0,0.3,0.1,0.3,0.2c0,0.1-0.1,0.2-0.5,0.5v0.4H1012.5z M1012.7,42.7v-2h-2.3l0,2H1012.7z M1012.7,45v-1.9h-2.4V45H1012.7z"/>
	<path class="st31" d="M1022.9,47.5c-0.1,2.5-0.6,3.9-2.2,5.1c-1.1,0.8-2.5,1.3-3.9,1.3v-0.1c1.4-0.3,2.4-0.9,3.5-1.8
		c1.4-1.2,1.6-3.1,1.6-4.1c0-0.7-0.1-1.2-0.2-1.5l1.4,0.4c0.2,0.1,0.2,0.1,0.2,0.2C1023.4,47.2,1023.3,47.3,1022.9,47.5z
		 M1031.1,41.3h-6.4v1.8h3.4l0.5-0.6c0-0.1,0.1-0.2,0.2-0.2s0.3,0.2,0.3,0.2l0.8,0.6c0.1,0.1,0.2,0.1,0.2,0.3c0,0.1-0.1,0.2-0.2,0.2
		h-8.9c-0.6,0-1.5,0.1-2.1,0.2l-0.4-0.7c1.2,0.1,2.4,0.1,2.7,0.1h2.6c0-1.5,0-1.7,0-1.8h-4c-0.6,0-1.5,0.1-2.1,0.2l-0.4-0.7
		c1.2,0.1,2.4,0.1,2.7,0.1h3.8c0-1.5,0-1.5-0.2-2.2l1.5,0.5c0.1,0,0.2,0.1,0.2,0.2c0,0.2-0.4,0.4-0.7,0.6c0,0.4,0,0.4,0,0.9h4.4
		l0.6-0.7c0.2-0.2,0.2-0.2,0.2-0.2c0.1,0,0.2,0.1,0.3,0.2l0.9,0.7c0.1,0.1,0.2,0.1,0.2,0.3C1031.3,41.3,1031.2,41.3,1031.1,41.3z
		 M1030.9,46.2c-0.1,0-0.2,0-0.5,0c-0.6,0.5-1.1,0.8-1.8,1.2l-0.1-0.1c0.3-0.4,0.9-1.5,1-1.7H1019c0,0.9-0.5,2.1-1.2,2.1
		c-0.3,0-0.5-0.3-0.5-0.5c0-0.3,0.3-0.6,0.5-0.8c0.6-0.6,0.9-1.2,0.9-1.8h0.1c0.1,0.2,0.1,0.3,0.1,0.6h10.5l0.3-0.4
		c0.2-0.2,0.2-0.2,0.3-0.2c0.1,0,0.1,0,0.3,0.2l1,0.9c0.1,0,0.2,0.2,0.2,0.2S1031.4,46.2,1030.9,46.2z M1031.1,53.2
		c-0.5,0.3-1.2,0.3-2.3,0.3c-2.5,0-2.7,0-3.1-0.2c-0.2-0.1-0.3-0.3-0.3-0.6c0-0.2,0-1.6,0-2c0-0.5,0-2.5,0-2.9c0-0.7,0-1-0.1-1.5
		l1.4,0.3c0.3,0,0.3,0.1,0.3,0.2c0,0.2-0.2,0.3-0.5,0.5c-0.1,1.1-0.1,2.6-0.1,3.7c0,1.5,0,1.5,1.1,1.5c1.6,0,1.9,0,2.1,0
		c0.5-0.1,0.6-0.6,0.7-0.8c0.1-0.5,0.2-0.8,0.4-1.9h0.2c0,0.4,0.2,2.1,0.4,2.3c0,0,0.2,0.2,0.3,0.3c0,0,0.1,0.1,0.1,0.2
		C1031.6,52.6,1031.5,53,1031.1,53.2z"/>
	<path class="st31" d="M1005.7,61.3c-0.2,0.5-0.5,1.1-1.2,2.3l0.2,0.2c0.2,0.1,0.2,0.1,0.2,0.2c0,0.2-0.3,0.4-0.4,0.5
		c-0.1,0.8-0.1,1.9-0.1,2.8c0,0.3,0,4,0,4.1c0,0.4,0.1,2.1,0.1,2.5c0,0.1,0,0.6,0,0.7c-0.1,0.4-0.5,0.4-0.7,0.4
		c-0.4,0-0.5-0.2-0.5-0.5c0-0.3,0.1-1.4,0.1-1.6c0.1-2.8,0.2-5.5,0.2-7.9c-0.5,0.7-1,1.4-1.5,2c-0.5,0.6-0.9,0.9-1.1,1l-0.1-0.1
		c1.1-1.5,2.8-4.2,3.5-6.1c0.3-0.9,0.4-1.4,0.5-1.9l1.2,0.7c0.2,0.1,0.2,0.1,0.2,0.3C1006.3,61.2,1006.1,61.2,1005.7,61.3z
		 M1015.7,73.9h-8.2c-0.5,0-1.4,0-2.1,0.2l-0.4-0.7c0.9,0.1,1.9,0.1,2.7,0.1h2v-5.1h-1c-0.5,0-1.4,0-2.1,0.2l-0.4-0.7
		c0.9,0.1,1.9,0.1,2.7,0.1h0.8v-4.2h-1.7c-0.5,0-1.4,0-2.1,0.2l-0.4-0.7c0.9,0.1,1.9,0.1,2.7,0.1h5l0.6-0.6c0.1-0.1,0.2-0.2,0.2-0.2
		s0.2,0.1,0.3,0.2l0.8,0.6c0.1,0.1,0.2,0.1,0.2,0.2c0,0.2-0.2,0.2-0.2,0.2h-4.5V68h2.1l0.6-0.7c0.1-0.1,0.2-0.2,0.3-0.2
		c0.1,0,0.2,0.1,0.3,0.2l0.9,0.7c0.1,0,0.2,0.1,0.2,0.2c0,0.2-0.2,0.2-0.2,0.2h-4.1v5.1h3.1l0.7-0.8c0.1-0.1,0.2-0.2,0.3-0.2
		c0.1,0,0.2,0.1,0.3,0.2l0.8,0.7c0.1,0.1,0.1,0.1,0.1,0.2C1015.9,73.9,1015.8,73.9,1015.7,73.9z M1010.5,63.1c-0.4,0-0.5-0.1-0.8-1
		c-0.2-0.7-0.6-1.4-1.1-2l0.1-0.1c0.3,0.1,2.3,1.1,2.3,2.4C1011,62.9,1010.8,63.1,1010.5,63.1z"/>
	<path class="st31" d="M1030.9,74.1c-0.7,0.3-1.6,0.3-2.9,0.3c-0.8,0-3.7-0.1-4.3-0.2c-0.8-0.2-0.8-0.8-0.8-1.2v-3.1l-3.3,0.6
		c-0.4,0.1-1.3,0.3-2,0.6l-0.5-0.6c0.9-0.1,1.8-0.2,2.7-0.4l3.2-0.6c0-0.4,0-2.5,0-3c-1.4,0.4-3.7,1-5.2,1v-0.1
		c4.6-1.3,6.5-2.1,7.9-3c0.3-0.2,0.4-0.4,0.5-0.4l1.1,0.9c0.1,0,0.1,0.1,0.1,0.2c0,0.1-0.1,0.2-0.3,0.2c-0.1,0-0.4-0.1-0.6-0.1
		c-0.4,0.2-1.1,0.5-2.7,1v3.1l5.3-1l0.5-0.8c0.1-0.2,0.2-0.2,0.2-0.2c0.1,0,0.2,0.1,0.3,0.1l1,0.5c0.1,0,0.2,0.1,0.2,0.3
		c0,0.1-0.1,0.1-0.2,0.2l-7.3,1.3c0,0.4,0,3.2,0,3.3c0,0.1,0.1,0.3,0.3,0.4c0.2,0.1,3.1,0.1,3.6,0.1c1.7,0,2,0,2.4-0.7
		c0.3-0.6,0.5-1.7,0.6-2.3h0.1c0,0.2,0.2,1.4,0.2,1.6c0.1,0.6,0.1,0.6,0.3,0.8c0.2,0.2,0.2,0.2,0.2,0.3
		C1031.6,73.7,1031.1,74,1030.9,74.1z M1031,63.6c-0.1,0-0.7,0-0.9,0c-0.4,0.2-1,0.6-1.3,1l-0.1-0.1c0-0.1,0.6-1.5,0.6-1.6h-9.9
		c-0.1,1.9-1.1,2.6-1.6,2.6c-0.4,0-0.6-0.3-0.6-0.5c0-0.4,0.3-0.6,0.8-0.9c1-0.7,1.1-1.4,1.2-2h0.1c0,0.2,0.1,0.3,0.1,0.5h4.5
		c0-1.6,0-1.7-0.3-2.5l1.5,0.5c0.1,0,0.2,0.1,0.2,0.2c0,0.2-0.1,0.3-0.5,0.5c0,0.3,0,1.2,0,1.4h4.4l0.5-0.4c0.1,0,0.2-0.1,0.3-0.1
		c0.1,0,0.3,0.1,0.3,0.2l0.8,0.8c0.1,0.1,0.2,0.2,0.2,0.4C1031.3,63.6,1031.1,63.6,1031,63.6z"/>
</g>
</svg>
