<?xml version="1.0" encoding="utf-8"?>
<!-- Generator: Adobe Illustrator 27.0.0, SVG Export Plug-In . SVG Version: 6.00 Build 0)  -->
<svg version="1.1" id="レイヤー_1" xmlns="http://www.w3.org/2000/svg" xmlns:xlink="http://www.w3.org/1999/xlink" x="0px"
	 y="0px" viewBox="0 0 1080 327" style="enable-background:new 0 0 1080 327;" xml:space="preserve">
<style type="text/css">
	.st0{fill:#FF0100;}
	.st1{fill:#636262;}
	.st2{clip-path:url(#SVGID_00000153707643740460791690000004050225186744108196_);}
	.st3{fill:#FFFFFF;stroke:#FF0100;stroke-width:0.5365;stroke-miterlimit:10;}
	.st4{fill:none;stroke:#FF0100;stroke-width:1.5895;stroke-linecap:round;stroke-miterlimit:10;}
	.st5{fill:#000248;}
	.st6{fill:#666666;}
	.st7{fill:#FFFFFF;}
	.st8{fill:none;stroke:#000248;stroke-width:2;stroke-miterlimit:10;}
</style>
<path class="st0" d="M1079.8,159c-8.8,5.8-9.4,11.4-1.9,18.6c-9.7,3.7-11.4,8.9-5.4,17.3c-10.2,1.6-12.8,6.3-8.5,15.7
	c-10.3-0.5-13.7,3.7-11.3,13.7c-10-2.4-14.1,1-13.7,11.3c-9.4-4.3-14.1-1.7-15.7,8.5c-8.4-6-13.7-4.4-17.3,5.4
	c-7.2-7.5-12.9-6.9-18.6,1.9c-5.8-8.8-11.4-9.4-18.6-1.9c-3.7-9.7-8.9-11.4-17.3-5.4c-1.6-10.2-6.3-12.8-15.7-8.5
	c0.5-10.3-3.7-13.7-13.7-11.3c2.4-10-1-14.1-11.3-13.7c4.3-9.4,1.7-14.1-8.5-15.7c6-8.4,4.4-13.7-5.4-17.3
	c7.5-7.2,6.9-12.9-1.9-18.6c8.8-5.8,9.4-11.4,1.9-18.6c9.7-3.7,11.4-8.9,5.4-17.3c10.2-1.6,12.8-6.3,8.5-15.7
	c10.3,0.5,13.7-3.7,11.3-13.7c10,2.4,14.1-1,13.7-11.3c9.4,4.3,14.1,1.7,15.7-8.5c8.4,6,13.7,4.4,17.3-5.4
	c7.2,7.5,12.9,6.9,18.6-1.9c5.8,8.8,11.4,9.4,18.6,1.9c3.7,9.7,8.9,11.4,17.3,5.4c1.6,10.2,6.3,12.8,15.7,8.5
	c-0.5,10.3,3.7,13.7,13.7,11.3c-2.4,10,1,14.1,11.3,13.7c-4.3,9.4-1.7,14.1,8.5,15.7c-6,8.4-4.4,13.7,5.4,17.3
	C1070.4,147.6,1071,153.2,1079.8,159z"/>
<g>
	<g>
		<g>
			<g>
				<g>
					<g>
						<path class="st1" d="M995.5,8.6v4.8c0,1.1-0.8,2-1.5,2.5l1,1.3c1.4-1.1,2.1-2.4,2.1-3.8V8.6H995.5z"/>
					</g>
					<path class="st1" d="M1001.9,13c0,1-0.2,1.7-0.7,2.1c-0.3,0.3-0.7,0.5-1.1,0.6V8.1h-1.6v9.3l0.1,0c0.7,0,2.5,0,3.7-1.2
						c0.8-0.8,1.2-1.9,1.2-3.3H1001.9z"/>
				</g>
				<g>
					<polygon class="st1" points="1004.9,11.6 1004.5,13.2 1011.7,13.2 1012.1,11.6 					"/>
				</g>
				<g>
					<path class="st1" d="M1018.3,8.6C1018.3,8.6,1018.3,8.6,1018.3,8.6l-5.5,0l-0.4,1.6h6.2c-0.4,3.5-2.3,5.3-5.7,5.6l-0.4,1.6
						c4.6-0.2,7.2-2.6,7.7-7.1c-0.1,0-0.1,0-0.2,0C1019.1,10.3,1018.3,9.5,1018.3,8.6z"/>
					<path class="st1" d="M1020,9.8c-0.7,0-1.2-0.5-1.2-1.2c0-0.7,0.5-1.2,1.2-1.2c0.7,0,1.2,0.5,1.2,1.2
						C1021.2,9.2,1020.7,9.8,1020,9.8z M1020,8.1c-0.3,0-0.5,0.2-0.5,0.5c0,0.3,0.2,0.5,0.5,0.5c0.3,0,0.5-0.2,0.5-0.5
						C1020.5,8.3,1020.3,8.1,1020,8.1z"/>
				</g>
				<g>
					<path class="st1" d="M993.7,9.2h-2.6l0.2-0.6H988c-0.2,1.1-0.9,2.4-1.7,2.8l-0.4,1.7c1.6,0,2.7-1.4,3.3-2.9h2.9
						c-0.2,5.3-2.6,5.5-5,5.6l-0.4,1.6l0.3,0c2.4-0.1,6.5-0.2,6.7-7.2h0L993.7,9.2z"/>
					<path class="st1" d="M994.4,7.4L994,8.9H993l0.4-1.5H994.4z"/>
					<path class="st1" d="M993,7.4l-0.4,1.5h-0.9l0.4-1.5H993z"/>
				</g>
			</g>
		</g>
		<g>
			<g>
				<polygon class="st1" points="964.1,7.8 962.4,7.8 960.1,11.2 960.1,13.7 960.9,12.5 960.9,17.4 962.4,17.4 962.4,10.4 				"/>
				<polygon class="st1" points="968,13.9 971.5,13.9 971.9,12.4 968,12.4 968,10.8 971.5,10.8 971.9,9.4 968,9.4 968,7.8 
					966.5,7.8 966.5,9.4 963.6,9.4 963.2,10.8 966.5,10.8 966.5,12.4 963.2,12.4 962.9,13.9 966.5,13.9 966.5,15.9 963.2,15.9 
					962.8,17.4 971.5,17.4 972,15.9 968,15.9 				"/>
			</g>
			<polygon class="st1" points="977,10.5 975.8,10.5 975.8,7.9 974.3,7.9 974.3,10.5 973.5,10.5 973.1,12.1 974.3,12.1 974.3,17.4 
				975.8,17.4 975.8,12.1 976.6,12.1 			"/>
			<path class="st1" d="M981.4,12.2l0,0.6h-0.3l-0.3,1.2h0.6v2H981l-0.4,1.5h0.7c0.9,0,1.4-0.5,1.5-1.2v-2.3h0.9l0,2l-0.5,0
				l-0.4,1.5h0.8c0.9,0,1.3-0.5,1.4-1.2v-3.5l-2.1,0v-0.6L981.4,12.2z"/>
			<path class="st1" d="M977.3,12.2l0,0.6h-0.4l-0.3,1.2h0.7v2h-0.5l-0.4,1.5h0.8c0.9,0,1.4-0.5,1.5-1.2v-2.3h0.9l0,2l-0.5,0
				l-0.4,1.5h0.8c0.9,0,1.3-0.5,1.4-1.2v-3.5l-2.1,0v-0.6L977.3,12.2z"/>
			<path class="st1" d="M981.4,10.5h1.6V10h-1.9v0.4c0,1.1-1,1.6-1.8,1.6h-2l0-1.5h2.3V10H977l0.3-1.3h2.3V7.8h1.5v0.8l3.2,0v2.2
				c0,0.7-0.4,1.1-1.3,1.1h-1.6L981.4,10.5z"/>
		</g>
	</g>
	<g>
		<defs>
			<rect id="SVGID_1_" x="913.2" y="0.2" width="39.5" height="44.7"/>
		</defs>
		<clipPath id="SVGID_00000058561372777151974750000009471738730060643502_">
			<use xlink:href="#SVGID_1_"  style="overflow:visible;"/>
		</clipPath>
		<g style="clip-path:url(#SVGID_00000058561372777151974750000009471738730060643502_);">
			<path class="st0" d="M964.5,28.5l0,26.3L929,55V29.9c0-0.7-0.6-1.4-1.4-1.4h-4.9l20.9-23.3L964.5,28.5z M950.2,28.3
				c0-1.8-1.5-3.3-3.3-3.3c-1.8,0-3.3,1.5-3.3,3.3c0-1.8-1.5-3.3-3.3-3.3c-1.8,0-3.3,1.5-3.3,3.3c0,4.5,6.6,8.7,6.6,8.7
				S950.2,32.8,950.2,28.3z"/>
			<path class="st0" d="M925.5,16.4c0,0-4.1-2.6-4.1-5.4c0-1.1,0.9-2.1,2.1-2.1c1.1,0,2.1,0.9,2.1,2.1c0-1.1,0.9-2.1,2.1-2.1
				c1.1,0,2.1,0.9,2.1,2.1C929.7,13.8,925.5,16.4,925.5,16.4z"/>
			<path class="st0" d="M918,7c0,0-2-1.3-2-2.6c0-0.6,0.5-1,1-1c0.6,0,1,0.4,1,1c0-0.6,0.4-1,1-1c0.6,0,1,0.4,1,1
				C920,5.8,918,7,918,7z"/>
		</g>
	</g>
	<g>
		<path class="st1" d="M1025,18.2l-0.5-0.9c0.7-0.2,1.1-0.5,1.4-0.9c0.4-0.7,0.5-1.3,0.2-1.9c-0.3-0.6-0.8-0.9-1.5-0.9
			c0,1.9-0.4,3.1-1.2,3.8c-0.3,0.3-0.7,0.3-1,0.2c-0.4-0.1-0.6-0.4-0.8-0.8c-0.4-0.7-0.4-1.5,0-2.3c0.3-0.8,0.9-1.3,1.7-1.6
			c0.6-0.2,1.1-0.3,1.6-0.2c0.6,0.1,1.1,0.3,1.5,0.6c0.5,0.4,0.7,1,0.8,1.6c0.1,0.7-0.1,1.3-0.5,1.9
			C1026.3,17.5,1025.7,17.9,1025,18.2z M1023.7,13.8c-0.8,0.3-1.3,0.9-1.3,1.8c0,0.3,0,0.5,0.1,0.8c0.1,0.3,0.3,0.4,0.4,0.3
			c0.2-0.1,0.4-0.4,0.6-0.9C1023.7,15.2,1023.7,14.6,1023.7,13.8z"/>
	</g>
	<g>
		<path class="st1" d="M962.5,34.8c-0.6,0.6-0.8,0.9-1.1,1.2l-0.9-5.1c2-2.4,3.2-5.7,3.5-8.6l3.5,0.3c-0.1,1-0.4,3.2-1.5,6v16.4
			h-3.5V34.8z M974.6,26.5c-1.2-0.9-2.1-1.5-3.7-2.4l3.5-2.1c1.5,0.8,3.3,2.2,4.5,3.1l-2.3,1.4h6.4v3.4h-5.9v3.7h5.1v3.4h-5.1v4.2
			h6.3v3.4h-16.4v-3.4h6.4v-4.2h-5v-3.4h5v-3.7h-5.8v-3.4H974.6z"/>
		<path class="st1" d="M994.8,25.2v-1.9h3.8v1.9h7.2v3.3h-7.2v1.7h6.7v3.3h-6.7V36c2.7,1.1,5.4,3,6.7,4.2l-2.4,3.4
			c-1-1-2.7-2.6-4.3-3.6c-0.2,3.3-2.6,4.2-5.5,4.2c-4.1,0-6.3-1.9-6.3-4.6c0-2.9,2.6-4.7,6.5-4.7c0.8,0,1.1,0,1.4,0.1v-1.6h-8v-3.3
			h8v-1.7h-8.5v-3.3H994.8z M994.8,38.3c-0.5-0.2-1-0.4-1.8-0.4c-0.9,0-2.5,0.3-2.5,1.6c0,1.3,1.8,1.4,2.3,1.4c2,0,2-1,2-1.6V38.3z"
			/>
		<path class="st1" d="M1014.1,24.6c-0.4,2.5-0.7,4.8-0.7,7.3c0,2.2,0.2,7.4,2.1,7.4c1.2,0,2.3-2.5,2.9-4.5l3.1,1.8
			c-0.7,2.1-2.6,7-6.3,7c-5,0-5.6-8.2-5.6-12.2c0-2.5,0.3-5.4,0.4-7.3L1014.1,24.6z M1026.6,41.3c0-0.5,0-1,0-1.7
			c0-8.1-2.7-11.6-4.2-12.9l3.1-2c2.1,2.2,5.4,5.5,5.2,16.4L1026.6,41.3z"/>
		<path class="st1" d="M1032.1,33.1c0.6-1.4,0.8-4.6,0.8-6l2,0.1c0,0.9,0,4.4-0.9,7.4L1032.1,33.1z M1039.4,29.6
			c-0.1-0.4-0.3-0.8-0.8-1.9v17.4h-3.4V22.4h3.4v3.5l1-0.5c0.4,0.7,0.5,1,1.2,2.3V27h4.9v-0.9h-5.5v-2.5h5.5v-1.2h3.5v1.2h5.6v2.5
			h-5.6V27h5.1v2h-5.1v0.9h6v2.6h-15.5v-2.6h6V29h-4.9v-0.2L1039.4,29.6z M1054.3,33.2v9.4c0,1.1-0.1,2.5-2.3,2.5h-3.4l-0.6-2.7h2.2
			c0.6,0,0.6-0.1,0.6-0.6v-0.6h-6.5v3.9h-3.4V33.2H1054.3z M1044.3,35.7v0.9h6.5v-0.9H1044.3z M1044.3,38.4v0.9h6.5v-0.9H1044.3z"/>
		<path class="st1" d="M1060.4,22.5h3.5v1.3h3.3V27h-3.3v1.3h3.9v3.1h-0.9c-0.2,0.8-0.3,1.4-0.5,2.2h1.3v3.2h-3.8v1.5h3.4v3.3h-3.4
			V45h-3.5v-3.5h-3.2v-3.3h3.2v-1.5h-3.7v-3.2h1.6c-0.1-0.6-0.3-1.6-0.4-2.2h-1.2v-3.1h3.8V27h-3.2v-3.2h3.2V22.5z M1060.9,31.4
			c0.1,0.3,0.4,1.8,0.4,2.2h1.9c0.2-1.1,0.3-1.8,0.3-2.2H1060.9z M1071.5,42.8V45h-3.3V23.1h10.5c0,1.7-0.2,5.6-0.5,6.5
			c-0.3,0.9-1.1,1.4-2.1,1.4h-3.2l-0.6-2.9h2c0.8,0,0.8-0.2,0.9-1.8h-3.7v5.5h7.3c-0.1,1.6-0.4,5.5-1.7,8.3c0.8,0.7,1.7,1.3,2.4,1.7
			l-1.7,3.2c-0.7-0.4-1.4-0.8-2.6-2c-0.9,1-1.5,1.6-2.1,2.1L1071.5,42.8z M1071.5,34.9v0.9l2.4-0.5c0.2,0.5,0.4,1.1,1,2.2
			c0.4-1,0.6-1.8,0.7-2.7H1071.5z M1071.5,42.2c0.9-0.7,1.4-1.3,1.8-1.8c-0.4-0.6-1.3-2.2-1.8-4.5V42.2z"/>
	</g>
</g>
<path class="st3" d="M600.1,185.4h245.3c13.4,0,24.3,10.9,24.3,24.3v2.8c0,13.4-10.9,24.3-24.3,24.3H600.1
	c-13.4,0-24.3-10.9-24.3-24.3v-2.8C575.8,196.3,586.7,185.4,600.1,185.4z"/>
<g>
	<path class="st0" d="M656,216.7c-1.1,1.3-2.2,2.3-3.4,3.1l-1.5-2c0.6-0.4,1.3-1.1,2.1-2s1.5-1.8,2.1-2.7h-3.3v-2.4h4v-1.3h-4.2V207
		h2.1l-0.5-2.1h-1.2v-2.4h3.9v-2h3v2h3.8v2.4h-1.1l-0.7,2.1h1.9v2.4h-4v1.3h3.4v2.4h-3c1,1,2,1.8,3,2.4l-1.4,2.4
		c-0.8-0.6-1.5-1.2-2-1.8v4.8h-3V216.7z M656.2,204.9l0.5,2.1h1.6l0.6-2.1H656.2z M671.4,220.7h-3.1v-11h-1.8
		c-0.1,4.6-1.1,8.3-3.1,11.1l-2.2-1.7c0.6-0.9,1.1-2.2,1.6-3.9c0.5-1.7,0.7-3.9,0.7-6.6V202c3.2-0.2,6-0.7,8.3-1.5l1.3,2.3
		c-1.1,0.4-3.3,0.8-6.6,1.3v3.1h7v2.5h-2.1V220.7z"/>
	<path class="st0" d="M680.4,214.6c-0.4,1.2-1,2.4-1.9,3.5c-0.9,1.1-1.8,2-2.8,2.7l-1.5-2.3c2.1-1.5,3.5-3.9,4.1-7.1H675v-2.5h3.6
		v-2.8h-3.1v-2.5h3.1v-3h3v3h2.9v2.5h-2.9v2.8h3v2.5h-2.9c0.6,1.6,1.7,3.1,3.3,4.6l-2,2.1C681.9,217,681.1,215.9,680.4,214.6z
		 M689.4,213.8c-0.2,1.7-0.7,3.2-1.5,4.5c-0.9,1.2-2,2.1-3.3,2.7L683,219c1.3-0.7,2.2-1.5,2.7-2.5c0.5-0.9,0.8-1.9,0.9-2.8h-1.4V201
		h10.1v12.8h-2.1v4.1c0,0.2,0.1,0.4,0.4,0.4h0.5c0.1,0,0.2,0,0.3-0.1s0.2-0.4,0.2-1s0.1-1.2,0.1-1.8l2.1,0.2v2.9
		c0,0.5-0.1,0.9-0.3,1.2c-0.2,0.3-0.5,0.6-0.9,0.7s-1.1,0.2-2,0.2c-1.3,0-2.1-0.2-2.5-0.5c-0.4-0.4-0.6-0.8-0.6-1.5v-4.9H689.4z
		 M692.4,204.8v-1.6h-4.2v1.6H692.4z M688.2,208.3h4.2v-1.6h-4.2V208.3z M692.4,210.1h-4.2v1.6h4.2V210.1z"/>
	<path class="st0" d="M715.2,209.7h-12.5v-1.3c-1.4,0.9-2.7,1.5-3.8,2l-1.5-2.4c1.6-0.6,3.5-1.7,5.5-3.3c2.1-1.5,3.5-3,4.3-4.3h3.1
		c2.4,3.1,5.8,5.5,10.1,7.2l-1.6,2.7c-1.1-0.4-2.2-1-3.4-1.7V209.7z M714.7,219.7c-3.6,0.4-8.6,0.8-15.2,1.1l-0.5-2.8l2.9-0.1
		c0.8-1.2,1.5-2.5,2.2-3.8h-5.5v-2.7h20.1v2.7h-4.7c1.9,1.9,3.5,3.8,4.7,5.6l-3.4,1.3C715.4,220.7,715.1,220.3,714.7,219.7z
		 M704.6,207.1h8.4c-1.7-1.3-3.1-2.6-4.2-3.9C707.8,204.5,706.4,205.8,704.6,207.1z M705.7,217.8c3-0.2,5.3-0.3,7.1-0.5
		c-0.7-0.9-1.4-1.7-2-2.3l1.5-0.8h-4.5C707.2,215.4,706.5,216.6,705.7,217.8z"/>
	<path class="st0" d="M729.8,218.3c-1.4,1-3.9,1.8-7.7,2.6l-0.9-2.5c1.8-0.2,3.7-0.8,5.8-1.6H723V207h18v9.9h-4
		c1.6,0.5,3.5,1,5.8,1.4l-1.2,2.6c-3.6-0.8-6.1-1.6-7.6-2.5l1-1.5h-6.1L729.8,218.3z M740.1,206h-16.4v-4.9h16.4V206z M737.8,209.9
		v-1.2h-11.6v1.2H737.8z M726.1,212.6h11.6v-1.3h-11.6V212.6z M737.8,214h-11.6v1.2h11.6V214z M737.3,204.3v-1.5h-10.7v1.5H737.3z"
		/>
	<path class="st0" d="M749.9,217.8l-0.8-2H747v-5.9c-0.6,0.3-1.2,0.6-1.9,0.8l-1.4-2.3c1.1-0.4,2.2-1,3.3-1.6
		c-1.1-0.9-1.8-1.5-2.2-1.8l1.7-1.8h-1v-2.4h11c0.3,0.5,0.8,1.1,1.4,1.8c1.4-0.9,2.4-1.7,3-2.3l2.1,1.7c-0.6,0.6-1.7,1.4-3.2,2.3
		c0.3,0.3,0.7,0.5,1,0.8c1.3-0.9,2.4-1.7,3.2-2.5l2,1.9c-0.9,0.7-1.8,1.4-2.8,2.1c1,0.5,2.2,1,3.4,1.4l-1.8,2.5
		c-0.6-0.2-1.1-0.5-1.7-0.8v6h-2l-1,2h5.5v2.7h-20.8v-2.7H749.9z M746.8,203.2l2.5,1.9c0.8-0.6,1.5-1.2,2.1-1.9H746.8z M747.4,209.6
		h15.3c-1-0.5-2-1.1-2.9-1.7v0.7h-9.4v-0.8C749.5,208.4,748.5,209,747.4,209.6z M759.9,213.5v-1.7h-9.8v1.7H759.9z M752.3,206.3h5.4
		c-1.1-0.9-2-1.8-2.8-2.8C754.4,204.4,753.5,205.3,752.3,206.3z M752.5,215.8l0.7,2h3.6l0.8-2H752.5z"/>
	<path class="st0" d="M775.9,217.7v1.9c-0.5,0.2-1.2,0.3-2.1,0.5c-0.9,0.1-3.1,0.4-6.5,0.8l-0.3-2.2c0.8,0,2.1-0.2,3.9-0.3v-6.3
		h-3.1V210h3.1v-1.8h-1.8v-1c-0.4,0.4-0.8,0.7-1.3,1l-1-2c0.8-0.7,1.6-1.5,2.3-2.6c0.8-1.1,1.3-2.2,1.6-3.2h2.9
		c0.4,1,1.4,2.2,2.9,3.4l-1.4,1.9c-1.1-0.8-2-1.8-2.7-3c-0.4,1.1-1.1,2.2-2.2,3.4h4.9v2.1h-1.9v1.8h2.7v2.1h-2.7v6
		C774.5,218,775.4,217.8,775.9,217.7z M770.2,217.4l-1.9,0.4l-0.5-4.3l1.9-0.4L770.2,217.4z M776.2,212.9l-0.7,4l-1.5-0.2l0.6-4
		L776.2,212.9z M780.9,216.2c-0.6,0.5-2.1,1.2-4.4,2.3l-0.9-2.3c2-0.8,3.6-1.5,4.7-2.2l0.6,1.9v-6.1H776v-2.2h8v-1.3h-7.1v-2h7.1
		v-1.3h-7.3v-2.1h10.2v6.8h1.9v2.2h-5.2v0.4c0.3,1.1,0.7,2,1.2,2.8c1.2-1.1,2-2,2.5-2.7l2,1.8c-0.6,0.8-1.7,1.7-3.1,2.7
		c1.3,1.5,2.5,2.6,3.4,3.2l-2,2.1c-1.6-1.2-2.9-2.8-4-4.7v3.7c0,0.5-0.2,1-0.7,1.3c-0.5,0.4-1,0.5-1.6,0.5h-2.7l-0.3-2.3h1.9
		c0.4,0,0.7-0.2,0.7-0.6V216.2z M780.2,213.4l-2.3,0.8c-0.3-0.9-0.8-2.1-1.5-3.7l2.2-0.7C779.3,211.2,779.8,212.4,780.2,213.4z"/>
</g>
<polyline class="st4" points="833.1,202.4 841.2,210.5 833.1,218.6 "/>
<g>
	<path class="st0" d="M30.9,76.9l2.8-3.5L46,76l-1.3,1.6c2.5,3.4,6.3,6.6,11.4,9.8c5.7,3.6,11.9,6.5,18.6,8.8l-5.7,11.4
		c-4.4-1.3-8.7-3.6-12.9-6.9v7.3H18.6v-6.6c-4.4,2.9-8.9,5-13.6,6.3l-5-11c6.7-2.3,12.3-4.9,16.7-7.9C22.8,84.8,27.5,80.9,30.9,76.9
		z M61.5,147.2l-3.2-4.7c-13.2,1.7-29.9,3.4-49.8,5l-2.2-10.7l7.6-0.3L24,122.3H3.8v-10.1H71v10.1H38.5L29,135.6l21.1-2.5l-4.1-5
		l9.8-5c3.4,2.9,8.6,9,15.8,18.3L61.5,147.2z M23.7,97.7h28.1c-4.6-2.7-9.3-6.7-13.9-12c-0.8,1.3-2.9,3.3-6.3,6
		C28.4,94.3,25.8,96.3,23.7,97.7z"/>
	<path class="st0" d="M96.5,135.6h-6.6V97.1H147v38.5h-6.3c4.2,1.3,9.1,2.1,14.8,2.5l-5.4,9.8c-5.9-0.4-11.9-1.7-18-3.8
		c-3.8-1.5-7-3-9.8-4.7l5.4-3.8h-18.9l5,3.8c-7.8,4.8-16.6,7.9-26.5,9.1l-6-10.4C86.6,137.7,91.7,136.8,96.5,135.6z M92.7,95.2V76
		h51.1v19.2H92.7z M101.2,107.8h34.4V105h-34.4V107.8z M101.2,117.3h34.4v-2.5h-34.4V117.3z M101.2,127.1h34.4v-3.2h-34.4V127.1z
		 M104.1,87.6h28.4v-4.1h-28.4V87.6z"/>
	<path class="st0" d="M237.5,137.5l-6,10.1c-5-2.3-9.5-5.6-13.2-9.8c-5.5-6.1-9.1-14.4-11-24.9H205v19.2l6.6-1.9l2.5,10.1
		c-7.1,2.7-15.6,4.7-25.2,6l-2.8-10.7l8.2-1.3V84.8l-6.6,16.7c1,2.9,2.1,5.9,3.2,8.8c2.1,6.5,1.9,12.3-0.6,17.3
		c-1.5,2.9-3.8,4.9-6.9,6l-3.2,0.9L176,122c3.4-0.4,5.1-2,5.4-4.7c0.4-4.8-1.2-10-4.7-15.5l6-15.1h-6.9v61.2h-10.7V76.6h21.4
		l0.3-0.9l7.6,4.4v-3.5h36v36.3h-1.6l6.9,4.7l-10.1,11.7c0.6,1.1,1.9,2.3,3.8,3.8C232.2,135.1,234.9,136.6,237.5,137.5z M205,90.2
		h14.2v-4.1H205V90.2z M205,103.1h14.2V99H205V103.1z M217.9,112.9c0,2.3,0.6,4.5,1.9,6.6l5.7-6.6H217.9z"/>
	<path class="st0" d="M275.6,134v-26.8h-23.3v-4.1h-7.6V80.4H274v-6h11v6h29.6v22.7h-7.9v4.1h-20.5v7.3h23v10.4h-23v11l30.3-0.6
		l-2.5,10.4l-21.4,0.3c-3.8,0-7.6-0.1-11.4-0.3c-4.2-0.2-7.6-0.9-10.1-2.2c-4.8-2.1-8.8-4.7-12-7.9c-2.9,5.7-6,9.6-9.1,11.7
		l-7.9-9.5c4-3.2,7.1-7,9.5-11.7c2.5-5,4.2-10.2,5-15.5l10.7,2.5c-0.4,4.4-1.7,8.7-3.8,12.9C266.2,130.1,270.2,132.7,275.6,134z
		 M255.8,96.8h47.9v-6h-47.9V96.8z"/>
	<path class="st0" d="M362.7,73.8L374,76c-1.1,3.6-2.2,6.3-3.5,8.2h24.9l-0.3,49.2c0,2.7-0.3,5.2-0.9,7.3c-0.6,2.3-1.7,3.9-3.2,4.7
		c-1.7,1-5.3,1.6-10.7,1.6h-4.1l-3.8-11h6.6c3.2,0,4.7-0.9,4.7-2.8l0.3-10.1l0.3-10.1c-1.7,5-4.8,10.6-9.5,16.7
		c-4.8,6.3-9.6,11-14.2,14.2l-7.3-8.2c6.7-4.4,12.7-10.4,18-18c2.3-3.2,4.5-7.3,6.6-12.3c2.1-4.8,3.5-8.5,4.1-11h-3.2
		c-1.9,5.7-4.5,11.1-7.9,16.4c-3.6,5.7-8.3,10.9-14.2,15.8l-6.3-6.9l-2.5,0.9v26.8h-11v-21.8l-9.5,3.8l-3.5-10.7l12.9-4.4v-13.6
		h-2.2c-0.6,5.5-1.3,8.9-1.9,10.4l-9.5-3.8c2.1-5.9,3.2-14.2,3.2-24.9l9.1,0.6c0,3.6-0.1,6.1-0.3,7.6h1.6V75h11v15.5h3.8V93
		c2.1-1.9,4.2-4.7,6.3-8.5C360.6,80.5,362,76.9,362.7,73.8z M368,94.3h-2.8c-0.6,1.5-1.8,3.3-3.5,5.4c-2.1,2.7-3.7,4.5-4.7,5.4
		l-5-4.4h-3.8v9.5l3.2-1.6l2.5,6.3c2.7-1.9,5.6-4.9,8.5-9.1C365.5,101.2,367.4,97.4,368,94.3z"/>
	<path class="st0" d="M403.7,104.7c6.1-7.1,11.1-17.3,15.1-30.6l10.4,3.2c-2.1,6.7-4,11.8-5.7,15.1v55.2h-11v-36.3l-3.5,5.4
		L403.7,104.7z M424.2,102.8c2.3-2.9,4.5-6.9,6.6-12c2.3-5.7,3.7-10.4,4.1-14.2l10.1,3.5c-0.6,4.2-1.6,7.6-2.8,10.1h5V73.8h11.4
		v16.4h15.8v9.8h-15.8v13.2h19.9v10.1h-19.9v23.7h-11.4v-23.7h-21.4v-10.1h21.4V99.9h-8.8c-2.3,5.9-4.3,9.7-6,11.4L424.2,102.8z"/>
	<path class="st0" d="M18.6,178.2l10.7,6c-1.1,5-3.6,10.1-7.6,15.1c-4,5-8.6,8.8-13.9,11.4l-6.6-11c5-2.7,8.5-5.1,10.4-7.3
		C15,188.6,17.3,183.9,18.6,178.2z M5.4,229l11-0.3c4.8-7.6,9.8-18.8,14.8-33.7l11,4.1c-4.6,12.8-9,22.5-13.2,29l22.7-2.2
		c-2.7-4.4-5.7-8.6-8.8-12.6l10.1-5.7c5.5,7.4,11.6,16.8,18.3,28.4l-10.7,6l-3.5-6c-16,1.9-32.5,3.5-49.5,4.7L5.4,229z M74.4,198.7
		l-6.9,12c-5.5-2.3-10.6-6.5-15.5-12.6c-4-5-6.9-10.8-8.8-17.3H28.1v-10.1h25.5c0.2,5,2.2,10.4,6,16.1
		C63,191.7,67.9,195.7,74.4,198.7z"/>
	<path class="st0" d="M84.2,241.9V170H117v27.4H95.6v44.5H84.2z M95.6,180.7h11v-2.5h-11V180.7z M95.6,189.5h11v-2.8h-11V189.5z
		 M105,223.6h-7.6v-9.1h8.5v-5.4H99v-9.1h39.4v9.1h-6.9v5.4h8.2v9.1h-8.2V240h-10.4v-16.4h-4.7c-0.6,3.6-1.6,6.6-2.8,9.1
		c-1.9,3.4-4.9,6.4-9.1,9.1l-7.6-8.8C102.1,229.9,104.8,226.8,105,223.6z M117,214.5h4.1v-5.4H117V214.5z M137.2,241.6l-3.8-10.4h6
		c1.5,0,2.2-1.4,2.2-4.1v-29.6h-21.1V170h32.5v61.2c0,3.4-0.4,5.8-1.3,7.3c-1.1,2.1-2.9,3.2-5.7,3.2H137.2z M130.6,180.7h11v-2.5
		h-11V180.7z M130.6,189.5h11v-2.8h-11V189.5z"/>
	<path class="st0" d="M166.2,220.4v-38.8h27.1v-13.2h11.4v13.2h27.4v38.8h-11V217h-16.4v24.9h-11.4V217h-16.4v3.5H166.2z
		 M176.9,206.9h16.4v-15.5h-16.4V206.9z M204.7,206.9h16.4v-15.5h-16.4V206.9z"/>
</g>
<g>
	<path class="st0" d="M262.3,199.5h3l5.6,13.3l5.8-13.3h3l3.5,20.9h-4.1l-1.9-12.9l-5.6,12.9H270l-5.4-12.9l-2.1,12.9h-4.1
		L262.3,199.5z"/>
	<path class="st0" d="M298.4,203h-7.5v4.7h7.2v3.5h-7.2v5.7h7.5v3.5h-11.6v-20.9h11.6V203z"/>
	<path class="st0" d="M305.2,199.5h3l5.6,13.3l5.8-13.3h3l3.5,20.9h-4.1l-1.9-12.9l-5.6,12.9h-1.4l-5.4-12.9l-2.1,12.9h-4.1
		L305.2,199.5z"/>
	<path class="st0" d="M334.9,199.5c1.2,0,3.4,0,5.1,1.3c1.2,0.9,1.9,2.6,1.9,4.3c0,2.7-1.8,3.8-2.4,4.1c1.4,0.2,2.2,0.8,2.7,1.3
		c1.3,1.2,1.5,2.8,1.5,3.9c0,1.2-0.3,3-1.8,4.2c-1.6,1.4-3.5,1.7-5.3,1.7h-7v-20.9H334.9z M333.8,208.1h1.2c0.6,0,3.2-0.1,3.2-2.7
		c0-1.9-1.5-2.6-3.1-2.6h-1.2V208.1z M333.8,217.1h1.8c0.8,0,1.9,0,2.8-0.6c1-0.6,1.3-1.6,1.3-2.4c0-0.7-0.2-1.8-1.5-2.4
		c-0.9-0.4-1.9-0.4-2.8-0.4h-1.5V217.1z"/>
	<path class="st0" d="M359.2,203h-7.5v4.7h7.2v3.5h-7.2v5.7h7.5v3.5h-11.6v-20.9h11.6V203z"/>
	<path class="st0" d="M369.2,199.5c2.9,0,4.4,0.8,5.3,1.6c1.6,1.3,2.1,3.1,2.1,4.7c0,2-0.8,3.8-2.4,4.9c-0.5,0.4-1.3,0.7-2.3,0.9
		l6.5,8.8h-5.1l-5.6-8.4h-0.5v8.4h-4.1v-20.9H369.2z M367.2,209.1h1.2c0.8,0,4-0.1,4-3.2c0-3.1-3.2-3.1-4-3.1h-1.2V209.1z"/>
	<path class="st0" d="M383.4,199l3.5,0.4l-4.4,8.3l-2.4-0.3L383.4,199z"/>
	<path class="st0" d="M402.3,204.2c-1.2-1.6-2.7-1.8-3.4-1.8c-2.2,0-2.9,1.4-2.9,2.4c0,0.5,0.2,1,0.7,1.4c0.5,0.5,1.2,0.7,2.5,1.2
		c1.6,0.6,3.2,1.1,4.2,2.1c0.9,0.8,1.8,2.3,1.8,4.4c0,4.1-3,6.9-7.3,6.9c-3.9,0-6.1-2.4-7.2-4l2.7-2.5c1,2,2.9,2.8,4.4,2.8
		c1.9,0,3.2-1.1,3.2-2.9c0-0.8-0.3-1.4-0.8-1.9c-0.8-0.7-2-1.1-3.2-1.5c-1.1-0.4-2.4-0.9-3.5-1.8c-0.7-0.6-1.7-1.8-1.7-3.9
		c0-3.1,2.1-6.2,6.7-6.2c1.3,0,3.8,0.3,5.9,2.5L402.3,204.2z"/>
	<path class="st0" d="M444.7,209.9c0,6.4-4.6,10.9-11.2,10.9s-11.2-4.6-11.2-10.9s4.6-11,11.2-11S444.7,203.6,444.7,209.9z
		 M440.5,209.9c0-4.2-2.9-7.3-7-7.3s-7,3-7,7.3s2.9,7.2,7,7.2S440.5,214.2,440.5,209.9z"/>
	<path class="st0" d="M448.5,220.4v-20.9h2.8l12.7,14v-14h4.1v20.9h-2.8l-12.7-14v14H448.5z"/>
	<path class="st0" d="M477,199.5v17.4h6.5v3.5h-10.6v-20.9H477z"/>
	<path class="st0" d="M491,210.8l-7.2-11.4h4.8l4.5,7.3l4.5-7.3h4.8l-7.4,11.4v9.6H491V210.8z"/>
</g>
<g>
	<path class="st0" d="M5.2,35.3H3v-3.9h2.8v-2.9H2.1v-4h3.8v-1.6l-1.5,1l-2.4-3.5c1.3-0.6,2.5-1.4,3.7-2.4c1.4-1.1,2.3-2.2,2.8-3.2
		l4.4,1c-0.2,0.8-0.8,1.5-1.6,2.1h17.9v3.9h-2.8v2.8h3.9v4h-3.9v2.9h2.8v3.9h-2.3c1.1,1.1,2.3,3,3.7,6l-4.3,2.2
		c-0.2-1-0.8-2.2-1.7-3.8c-0.8-1.3-1.5-2.3-2.1-3l2.6-1.3H6.6l2.8,1.5c-0.2,0.9-0.7,2.1-1.5,3.5c-0.9,1.5-1.8,2.6-2.7,3.2l-3.9-3
		C3.4,39,4.7,37.3,5.2,35.3z M10.1,24.5h1.1v-2.8h-1.1V24.5z M10.1,31.4h1.1v-2.9h-1.1V31.4z M10.1,36.2l4.1-0.1
		c0.5,2.1,0.7,4.5,0.7,7.2l-4.8,0.1c0.1-0.6,0.1-1.7,0.1-3.5C10.3,38.1,10.3,36.9,10.1,36.2z M15.6,24.5h1.1v-2.8h-1.1V24.5z
		 M15.6,31.4h1.1v-2.9h-1.1V31.4z M16.3,36.3l4.3-0.5c0.2,0.5,0.6,1.5,1.1,3.2c0.5,1.7,0.8,2.9,0.9,3.7l-4.6,0.7
		c0-0.9-0.2-2.1-0.5-3.5C17.1,38.4,16.7,37.2,16.3,36.3z M20.9,24.5H22v-2.8h-1.1V24.5z M20.9,31.4H22v-2.9h-1.1V31.4z"/>
	<path class="st0" d="M37,28.7h-4v-4.1h5.1V15h4.3v9.6h4.1v4.1h-3.8c1.5,1.5,2.5,2.4,3.2,2.9l-1.6,4.5c-0.9-0.7-1.5-1.4-1.9-2v9.4
		h-4.3v-8.5c-0.2,0.5-0.7,1.3-1.5,2.4c-0.7,1.1-1.4,1.9-1.9,2.4l-1.9-4.8c0.8-0.6,1.7-1.7,2.6-3.2C36.1,30.7,36.7,29.6,37,28.7z
		 M33,18l3.4-0.9c0.2,0.2,0.3,1,0.5,2.3c0.2,1.6,0.4,2.8,0.4,3.7L34,23.7c0.1-0.6,0-1.5-0.2-2.9C33.5,19.4,33.3,18.5,33,18z
		 M42.8,22.9c0.2-0.5,0.5-1.5,0.7-3c0.2-1.4,0.3-2.4,0.2-3l3.7,0.7c0,0.6-0.2,1.6-0.5,3.2c-0.3,1.5-0.6,2.6-0.9,3L42.8,22.9z
		 M46,32.8l8.7-1.2V15.1h4.5v15.7l1.7-0.2l0.5,4.4l-2.2,0.4v8.2h-4.5V36l-7.8,1.3L46,32.8z M48.6,24.8c0.5,0.1,1.3,0.5,2.6,1.2
		c1.3,0.8,2.2,1.5,2.6,2.1l-2.2,3c-0.4-0.4-1.1-0.9-2.2-1.6c-1.1-0.6-1.9-1.1-2.6-1.2L48.6,24.8z M47.4,21.3l1.8-3.4
		c0.6,0.2,1.5,0.7,2.6,1.5c1.1,0.7,1.9,1.3,2.2,1.8l-2.1,3.2c-0.2-0.3-0.9-0.9-1.8-1.6C49,22,48.1,21.5,47.4,21.3z"/>
	<path class="st5" d="M63.7,19.3c9.7-0.5,18-1.4,24.9-2.8l0.7,4.3c-2,0.3-3.3,0.6-3.9,0.7c-1.1,0.3-2.4,0.9-3.7,1.8
		c-1.8,1.2-3.3,2.9-4.5,5c-1.5,2.5-1.7,4.6-0.7,6.3c0.7,1.2,1.9,2.1,3.7,2.6c0.7,0.2,2.2,0.5,4.5,0.9l-1.3,4.3
		C81.1,42,79.3,41.5,78,41c-1.9-0.6-3.5-1.6-4.6-2.9c-2.2-2.4-2.7-5.2-1.5-8.4c1.1-2.8,2.9-5.2,5.6-7.3c-2.6,0.4-7,0.9-13.2,1.3
		L63.7,19.3z M82.8,25.4l2.4-1.1l1.7,3.3l-2.4,1.2L82.8,25.4z M86.1,24l2.6-1.1l1.6,3.3L88,27.3L86.1,24z"/>
	<path class="st0" d="M101.7,29.7h-9.6v-4h11.8v-3h-9.3v-3.9h9.3v-3.5h4.4v3.5h9v3.9h-9v3h11.6v4h-9.5c1.2,2,2.7,3.6,4.5,5
		c1.4,1.1,3.2,2.2,5.5,3.4l-2.8,3.9c-3.5-1.5-6.6-4.2-9.3-8v9.5h-4.4v-9.7c-2.4,3.9-5.4,6.8-9,8.7L92,38.2c2.1-0.8,4.1-2,5.8-3.7
		C99.5,33,100.8,31.4,101.7,29.7z"/>
	<path class="st0" d="M129.9,18.9l4.1,2.3c-0.4,1.9-1.4,3.9-2.9,5.8c-1.5,2-3.3,3.4-5.4,4.4l-2.6-4.3c1.9-1.1,3.3-2,4-2.8
		C128.5,22.9,129.4,21.1,129.9,18.9z M124.8,38.5l4.3-0.1c1.9-2.9,3.8-7.3,5.7-13l4.3,1.6c-1.8,5-3.5,8.7-5.1,11.2l8.8-0.9
		c-1.1-1.7-2.2-3.3-3.4-4.9l3.9-2.2c2.1,2.8,4.5,6.5,7.1,11l-4.1,2.3l-1.3-2.3c-6.2,0.7-12.6,1.3-19.1,1.8L124.8,38.5z M151.5,26.8
		l-2.7,4.6c-2.1-0.9-4.1-2.5-6-4.9c-1.5-2-2.7-4.2-3.4-6.7h-5.8v-3.9h9.9c0.1,1.9,0.9,4,2.3,6.2C147,24.1,148.9,25.6,151.5,26.8z"/>
	<path class="st0" d="M155.2,43.5V15.7h12.7v10.6h-8.3v17.2H155.2z M159.6,19.8h4.3v-1h-4.3V19.8z M159.6,23.2h4.3v-1.1h-4.3V23.2z
		 M163.3,36.4h-2.9v-3.5h3.3v-2.1H161v-3.5h15.2v3.5h-2.7v2.1h3.2v3.5h-3.2v6.3h-4v-6.3h-1.8c-0.2,1.4-0.6,2.6-1.1,3.5
		c-0.7,1.3-1.9,2.5-3.5,3.5l-2.9-3.4C162.1,38.8,163.2,37.6,163.3,36.4z M167.9,32.9h1.6v-2.1h-1.6V32.9z M175.7,43.4l-1.5-4h2.3
		c0.6,0,0.9-0.5,0.9-1.6V26.3h-8.2V15.7h12.6v23.6c0,1.3-0.2,2.2-0.5,2.8c-0.4,0.8-1.1,1.2-2.2,1.2H175.7z M173.1,19.8h4.3v-1h-4.3
		V19.8z M173.1,23.2h4.3v-1.1h-4.3V23.2z"/>
	<path class="st5" d="M200.4,15l4.4,0.9c-0.4,1.4-0.9,2.4-1.3,3.2h9.6L213,38c0,1.1-0.1,2-0.4,2.8c-0.2,0.9-0.7,1.5-1.2,1.8
		c-0.7,0.4-2,0.6-4.1,0.6h-1.6l-1.5-4.3h2.6c1.2,0,1.8-0.4,1.8-1.1l0.1-3.9l0.1-3.9c-0.7,1.9-1.9,4.1-3.7,6.5
		c-1.9,2.4-3.7,4.3-5.5,5.5l-2.8-3.2c2.6-1.7,4.9-4,6.9-6.9c0.9-1.2,1.7-2.8,2.6-4.8c0.8-1.9,1.3-3.3,1.6-4.3h-1.2
		c-0.7,2.2-1.7,4.3-3,6.3c-1.4,2.2-3.2,4.2-5.5,6.1l-2.4-2.7l-1,0.4v10.4h-4.3v-8.4l-3.7,1.5l-1.3-4.1l5-1.7v-5.2h-0.9
		c-0.2,2.1-0.5,3.5-0.7,4l-3.7-1.5c0.8-2.3,1.2-5.5,1.2-9.6l3.5,0.2c0,1.4,0,2.4-0.1,2.9h0.6v-6h4.3v6h1.5v1
		c0.8-0.7,1.6-1.8,2.4-3.3C199.6,17.6,200.2,16.2,200.4,15z M202.5,22.9h-1.1c-0.2,0.6-0.7,1.3-1.3,2.1c-0.8,1.1-1.4,1.7-1.8,2.1
		l-1.9-1.7h-1.5V29l1.2-0.6l1,2.4c1.1-0.7,2.2-1.9,3.3-3.5C201.5,25.6,202.3,24.1,202.5,22.9z"/>
	<path class="st5" d="M216.3,26.9c2.4-2.8,4.3-6.7,5.8-11.8l4,1.2c-0.8,2.6-1.5,4.6-2.2,5.8v21.3h-4.3v-14l-1.3,2.1L216.3,26.9z
		 M224.2,26.2c0.9-1.1,1.7-2.7,2.6-4.6c0.9-2.2,1.4-4,1.6-5.5l3.9,1.3c-0.2,1.6-0.6,2.9-1.1,3.9h1.9V15h4.4v6.3h6.1v3.8h-6.1v5.1
		h7.7v3.9h-7.7v9.1h-4.4v-9.1h-8.3v-3.9h8.3v-5.1h-3.4c-0.9,2.3-1.7,3.7-2.3,4.4L224.2,26.2z"/>
	<path class="st5" d="M247.6,39.9c2.8-3.8,5.1-8.1,6.8-12.9c-1.1,0.2-3,0.7-5.5,1.3l-1-4.3c2.5-0.4,5-0.8,7.6-1.2
		c0.5-1.8,0.9-4,1.1-6.6l4.8,1l-1.5,5.1c3-0.5,5,0.3,6.1,2.3c0.9,1.6,1.1,4.1,0.6,7.4c-0.2,1.9-0.7,3.7-1.2,5.2
		c-0.8,2.3-1.8,3.7-3,4.4c-1.1,0.6-2.7,0.7-5,0.5l-1-4.4c1.7,0.1,2.8,0.1,3.2,0c0.6-0.2,1.1-0.6,1.5-1.3c0.7-1.4,1.3-2.9,1.6-4.5
		c0.4-1.8,0.4-3.2,0.1-4.3c-0.2-0.9-0.8-1.4-1.6-1.5c-0.5,0-1.3,0-2.3,0.1c-1.7,5.8-4.2,11.2-7.6,16.1L247.6,39.9z M266.2,17.9
		l2.1-1.6l2.6,3.4l-2.1,1.5L266.2,17.9z M266.6,23.1l3.7-2.3c1.5,2.2,3,5.8,4.8,10.7l-4,1.9C269.6,28.8,268.1,25.3,266.6,23.1z
		 M269.5,16.3l2.1-1.5l2.4,3.4l-2.1,1.5L269.5,16.3z"/>
	<path class="st5" d="M285.5,32.6h-4V16.1h19.6v16.6H296V38c0,0.8,0.4,1.2,1.1,1.1h2.6c0.5,0,0.8-0.5,0.9-1.5l0.2-2.9l4.6,1.2
		c-0.1,0.8-0.2,1.7-0.2,2.7c-0.2,1.2-0.4,2.1-0.6,2.7c-0.6,1.2-1.6,1.8-3.2,1.8h-5.8c-2.5,0-3.8-1.1-3.8-3.4v-7.1H290
		c-0.3,3.1-1.4,5.5-3.2,7.3c-1.8,1.7-4.1,2.9-6.8,3.7l-2.7-4.3c2.5-0.4,4.5-1.2,5.8-2.3C284.7,35.7,285.5,34.3,285.5,32.6z
		 M285.7,20.9h11.1v-1.1h-11.1V20.9z M285.7,24.8h11.1v-1.1h-11.1V24.8z M285.7,28.9h11.1v-1.2h-11.1V28.9z"/>
	<path class="st5" d="M308.3,22.8l6-1.6c1.9-0.5,4.1-0.9,6.3-1.2c3.3-0.5,5.8-0.5,7.4-0.1c3.6,1,5.7,3.3,6.5,7.1
		c0.5,2.7,0,5.1-1.3,7.3c-1.3,2.1-3.2,3.8-5.7,5.1c-1.9,1.1-5.6,1.7-11.1,1.8l-1-4.6c1.3-0.1,2.6-0.2,4-0.2c1.6-0.1,3-0.2,4-0.5
		c2.9-0.6,5-2.3,6.2-4.9c0.6-1.3,0.7-2.6,0.2-4c-0.5-1.4-1.5-2.4-3-2.9c-1.5-0.6-4-0.4-7.6,0.4c-3.2,0.8-6.5,1.7-9.9,2.7L308.3,22.8
		z"/>
	<path class="st5" d="M337.2,39.9c2.8-3.8,5.1-8.1,6.8-12.9c-1.1,0.2-3,0.7-5.5,1.3l-1-4.3c2.5-0.4,5-0.8,7.6-1.2
		c0.5-1.8,0.9-4,1.1-6.6l4.8,1l-1.5,5.1c3-0.5,5,0.3,6.1,2.3c0.9,1.6,1.1,4.1,0.6,7.4c-0.2,1.9-0.7,3.7-1.2,5.2
		c-0.8,2.3-1.8,3.7-3,4.4c-1.1,0.6-2.7,0.7-5,0.5l-1-4.4c1.7,0.1,2.8,0.1,3.2,0c0.6-0.2,1.1-0.6,1.5-1.3c0.7-1.4,1.3-2.9,1.6-4.5
		c0.4-1.8,0.4-3.2,0.1-4.3c-0.2-0.9-0.8-1.4-1.6-1.5c-0.5,0-1.3,0-2.3,0.1c-1.7,5.8-4.2,11.2-7.6,16.1L337.2,39.9z M355,21.2l4-2.1
		c2.1,3.6,4,7.7,5.6,12.4l-4,1.9C359,28.4,357.1,24.3,355,21.2z"/>
	<path class="st5" d="M366.4,33.1c4.3-3.8,8.5-7.7,12.6-11.7c-3,0.5-6,0.9-8.9,1.1l-0.9-4.3c6.3-0.5,11.1-1.1,14.5-2l2.4,3.4
		c-2.4,2.4-4.3,4.3-6,6c1.9-0.3,3.7-0.2,5.4,0.4c1.8,0.6,3.1,1.7,4,3.3c1.1,2.1,1.3,4.3,0.4,6.6c-0.8,2.2-2.2,3.9-4.3,5
		c-1.7,1-3.7,1.5-6,1.6c-2.3,0.1-4.2-0.4-5.8-1.3c-1.6-0.9-2.3-2.2-2.1-4c0.2-1.8,1.2-3,2.9-3.7c1.9-0.7,3.8-0.9,5.6-0.4
		c1.9,0.5,3.3,1.6,4,3.4c1.1-0.7,1.7-1.7,1.8-2.9c0.2-1.2-0.2-2.3-1.1-3.2c-0.9-0.9-2.5-1.3-4.9-1.1c-1.5,0.2-2.9,0.6-4.1,1.2
		c-2.6,1.5-4.9,3.4-6.8,5.8L366.4,33.1z M380.8,38.4c-0.2-1.1-0.9-1.8-1.8-2.1c-0.7-0.2-1.4-0.1-2.1,0.1c-0.7,0.2-0.9,0.7-0.7,1.2
		c0.2,0.5,0.7,0.8,1.7,1C379.2,38.8,380.1,38.8,380.8,38.4z"/>
	<path class="st5" d="M407.5,42.4c-0.9,0-1.6-0.3-2.2-1c-0.4-0.5-0.6-1.1-0.6-1.7c0-0.6,0.2-1.3,0.6-1.8c0.5-0.6,1.1-1,1.9-1
		c0.8-0.1,1.5,0.2,2.1,0.7c0.6,0.6,0.9,1.2,0.9,2c0.1,0.7-0.1,1.4-0.6,1.9C409.1,42.1,408.4,42.4,407.5,42.4z M404.9,23.2v-6.9h5.2
		v6.9l-1.1,11.9h-3.2L404.9,23.2z"/>
</g>
<g>
	<path class="st6" d="M293,280.9l0,2.3c-0.8,0.2-2.3,0.4-4.6,0.7s-4.1,0.5-5.7,0.6l-0.4-2.5c0.6,0,1.3-0.1,2.1-0.1v-13.4h5.9v-1.7
		h2.7v1.7h5.9v8.3c0.1-0.1,0.3-0.2,0.5-0.3l1.8,2c-1.1,0.7-2.5,1.4-4.3,2c1,0.5,2.5,1.1,4.5,1.7l-1.6,2.4c-2.3-0.7-4.2-1.7-5.8-2.8
		s-2.9-2.7-3.8-4.5h-2.9v4.5C289.8,281.3,291.8,281.1,293,280.9z M296.1,271.9v-1.4h-8.8v1.4H296.1z M296.1,275v-1.5h-8.8v1.5H296.1
		z M293.1,277.1c0.5,0.6,1,1.2,1.5,1.7c1.4-0.6,2.6-1.2,3.6-1.7H293.1z"/>
	<path class="st6" d="M312.7,277.8c-0.3,0.9-0.7,1.9-1.3,3s-1,1.9-1.5,2.5s-1,0.8-1.7,0.8c-1.4,0-2.6-0.9-3.6-2.6s-1.5-3.7-1.5-6
		c0-0.7,0.1-1.8,0.2-3.3c0.1-1.5,0.2-2.5,0.2-3.3h3c0,0.7-0.1,1.7-0.3,3.2c-0.2,1.4-0.3,2.5-0.3,3.2c0,1.5,0.3,2.8,0.8,3.9
		s0.9,1.7,1.3,1.7c0.5,0,1.3-1.5,2.4-4.5L312.7,277.8z M320.7,281.4l-2.9,0.2c0-2-0.4-4-1.1-6.1s-1.7-3.8-2.9-5.3l2.4-1.2
		C319.2,272.4,320.7,276.6,320.7,281.4z"/>
	<path class="st6" d="M329.8,276.9c-0.3,0.2-0.9,0.5-1.8,0.8v6.8h-2.4v-6c-1.4,0.4-2.4,0.7-3.1,0.9l-0.5-2.4c0.8-0.1,2-0.4,3.6-0.8
		v-3.7h-0.9c-0.2,1.3-0.5,2.3-0.9,2.9l-2-0.7c0.3-0.7,0.5-1.8,0.7-3.1s0.3-2.6,0.3-4l2.3,0.1c0,0.9-0.1,1.8-0.1,2.6h0.6v-3.5h2.4
		v3.5h1.1v1.6c0.7-1.6,1.2-3.4,1.5-5.3l2.6,0.3c0,0.4-0.2,1-0.4,1.7h7.5c0,3.5,0,6.4-0.1,8.6s-0.2,3.8-0.4,4.7s-0.5,1.5-0.9,1.9
		s-1,0.6-1.8,0.6h-2.4l-0.3-2.4h1.8c0.3,0,0.6-0.1,0.8-0.3s0.4-0.5,0.5-1s0.2-1.2,0.3-2.3s0.1-2.4,0.1-4v-3.9h-0.2
		c-0.1,2.7-0.7,5.4-1.8,8s-2.3,4.6-3.8,5.9l-1.6-1.5c1.3-1.4,2.4-3.2,3.3-5.5s1.4-4.6,1.5-6.9h-0.5c-0.3,2.1-0.8,4.2-1.7,6.2
		s-2,3.8-3.2,5.2l-1.6-1.4c1.1-1.2,2-2.7,2.7-4.5s1.3-3.6,1.5-5.5h-0.3l-0.7,1.7c-0.2,0.5-0.4,0.9-0.6,1.3s-0.4,0.8-0.7,1.1
		l-1.9-1.1c0.2-0.4,0.4-0.8,0.6-1.2H328v3c0.7-0.2,1.2-0.4,1.5-0.6L329.8,276.9z"/>
	<path class="st6" d="M347.4,284.6h-2.7v-8.6c-0.4,0.5-0.9,1.2-1.4,1.9l-1.7-1.5c0.8-1,1.6-2.4,2.6-4.2s1.7-3.7,2.2-5.7l2.7,0.5
		c-0.5,1.8-1.3,3.6-2.2,5.3h0.4V284.6z M356.2,284.4h-2.8v-6.2h-5.3v-2.4h5.3v-3.7h-2.1c-0.3,0.8-0.8,1.7-1.5,2.8l-2.1-1.1
		c0.5-0.7,0.9-1.7,1.4-3s0.8-2.4,1-3.6l2.6,0.3c-0.1,0.6-0.3,1.4-0.6,2.4h1.4v-3.1h2.8v3.1h4.2v2.2h-4.2v3.7h4.9v2.4h-4.9V284.4z"/>
	<path class="st6" d="M369.1,269.4c0,0.4,0,0.9,0,1.5h2.5c1.1,0,2,0.4,2.7,1.1s1,1.7,1,2.8c0,2.9-0.3,5.2-1,7s-1.8,2.7-3.4,2.7
		c-0.4,0-0.9-0.1-1.4-0.2s-1.3-0.6-2.5-1.2l0.9-2.3c1.2,0.7,2.1,1,2.7,1c0.3,0,0.5-0.1,0.7-0.3s0.4-0.6,0.6-1.2s0.4-1.3,0.5-2.1
		s0.1-1.6,0.1-2.6c0-0.7,0-1.1-0.1-1.4s-0.2-0.5-0.4-0.6s-0.4-0.2-0.7-0.2h-2.3c-0.6,4.6-2.3,8.4-4.9,11.3l-2.2-1.4
		c0.7-0.8,1.5-2.1,2.4-3.9s1.5-3.8,1.8-6h-3.6v-2.4h3.9l0-3.8h2.9V269.4z M381.1,277.8l-2.7,0.8c-0.5-1.8-1.1-3.3-1.7-4.5
		s-1.4-2.4-2.3-3.6l2.2-1.3C379.1,272.3,380.6,275.2,381.1,277.8z M378.8,269.5l-1.4,0.5c-0.5-1.3-1-2.3-1.3-3l1.3-0.5
		C378,267.6,378.5,268.6,378.8,269.5z M381.5,269.3l-1.4,0.5c-0.4-1.1-0.9-2.1-1.3-3l1.3-0.5C380.6,267.4,381.1,268.4,381.5,269.3z"
		/>
	<path class="st6" d="M390.3,278.8c-0.3,1.7-1.1,3-2.5,4s-3.1,1.6-5.1,1.8l-0.7-2.2c1.5-0.2,2.7-0.6,3.7-1.2s1.6-1.4,1.8-2.4h-3.3
		v-11.6h14.7v11.6h-4v2.6c0,0.2,0,0.3,0.1,0.4s0.3,0.2,0.7,0.2s0.7,0,0.8,0c0.2,0,0.5,0,0.8,0s0.6-0.1,0.7-0.1s0.2-0.1,0.3-0.2
		s0.2-0.3,0.2-0.8s0.1-0.9,0.1-1.6l2.3,0.4v2.4c0,0.6-0.2,1.1-0.7,1.5s-1,0.6-1.8,0.6c-0.2,0-0.6,0-1.1,0c-0.4,0-0.8,0-1.1,0
		c-0.2,0-0.6,0-1,0l-1.1-0.1c-0.3,0-0.6-0.1-0.8-0.2s-0.4-0.3-0.6-0.4s-0.3-0.4-0.4-0.7s-0.1-0.5-0.1-0.9v-3.3H390.3z M396.2,270.6
		v-1.4H387v1.4H396.2z M387,273.7h9.3v-1.4H387V273.7z M396.2,275.4H387v1.4h9.3V275.4z"/>
	<path class="st6" d="M416.9,283.7h-14v-2.3h14v-2.1h-13.7v-2.3h13.7v-2H403v-2.2h2.7c-1.1-2.2-1.9-3.7-2.4-4.6l2.5-1
		c1.1,1.8,2,3.4,2.7,4.9l-1.9,0.7h3.2v-6.1h2.9v6.1h2.6l-1.3-0.5c0.7-1,1.7-2.8,2.8-5.2l2.8,0.9c-1.1,2.1-2.1,3.7-2.9,4.7h3v11.5
		h-2.9V283.7z"/>
	<path class="st6" d="M429.3,267c0,0.2,0,0.7,0,1.2c0,0.4,0,0.9,0,1.3h6.5v2.3H429c-0.2,2.2-0.7,4.5-1.6,7s-1.9,4.5-3,5.8l-2.3-1.3
		c1-1.4,1.9-3.2,2.6-5.3s1.2-4.2,1.5-6.2h-3.4v-2.3h3.6c0.1-1,0.1-1.9,0.1-2.5H429.3z M440.4,283.8c-1.4,0.2-2.9,0.3-4.6,0.3
		c-1.3,0-2.5-0.1-3.5-0.2s-1.8-0.5-2.4-1.1s-0.9-1.2-0.9-2c0-1,0.5-2,1.6-3.1l2.1,1c-0.6,0.8-1,1.4-1,1.9c0,0.2,0.1,0.4,0.4,0.6
		s0.7,0.3,1.4,0.3s1.5,0.1,2.4,0.1c1.5,0,2.9-0.1,4.4-0.4L440.4,283.8z M439.9,272.9l-0.1,2.3c-0.4,0-0.8,0-1.2,0
		c-2.2,0-4.9,0.1-8.2,0.4l-0.2-2.3c2.7-0.3,5.4-0.4,8.1-0.4C439,272.9,439.5,272.9,439.9,272.9z"/>
	<path class="st6" d="M447,284.6l-0.4-2.5c3.4,0,6-0.3,7.8-0.8s2.7-1.4,2.7-2.6c0-0.9-0.3-1.5-0.9-2s-1.5-0.7-2.6-0.7
		c-1.5,0-2.9,0.3-4.4,1s-2.6,1.6-3.5,2.7l-2.1-1.3c1-2.3,1.5-5,1.7-8.3l2.9,0.2c-0.1,2.1-0.4,3.8-0.9,5.2c0.8-0.5,1.8-0.9,3-1.3
		s2.3-0.5,3.3-0.5c2,0,3.6,0.4,4.8,1.3s1.7,2.1,1.7,3.7c0,1.2-0.4,2.2-1.1,3.1s-1.9,1.5-3.5,1.9S451,284.5,447,284.6z M458.5,269.3
		l-1.3,2.5c-1.4-0.6-3.1-1.1-5.2-1.5s-3.8-0.7-5.2-0.8l0.8-2.3C451.6,267.6,455.2,268.3,458.5,269.3z"/>
	<path class="st6" d="M469,267.4c0,1-0.1,2-0.2,2.9h4.3v2.3h-4.6c-0.7,3.8-2.2,7.1-4.4,9.9l-2.1-1.5c1.8-2.2,3-5,3.8-8.4h-3v-2.3
		h3.4c0.1-0.9,0.2-1.9,0.2-2.9L469,267.4z M481,281.4l-1.4,2.2c-1.3-1.1-2.4-1.9-3.3-2.4c0,1.1-0.4,2-1.1,2.5s-1.9,0.8-3.5,0.8
		c-1.3,0-2.4-0.3-3.2-0.9s-1.3-1.4-1.3-2.4c0-1.1,0.5-1.9,1.4-2.6s2-1,3.3-1c0.6,0,1.2,0,1.7,0.1v-5.1h2.7v5.8
		C477.6,279.1,479.1,280.1,481,281.4z M473.6,280.1c-0.5-0.1-1.1-0.2-1.7-0.2c-0.6,0-1.1,0.1-1.5,0.3s-0.6,0.5-0.6,0.9
		c0,0.8,0.8,1.2,2.3,1.2c1.1,0,1.6-0.4,1.6-1.1V280.1z M481.2,273.3l-2.1,1.6c-0.7-0.8-1.6-1.7-2.8-2.8s-2.2-1.9-3-2.3l1.6-1.8
		c0.9,0.5,2,1.3,3.2,2.3S480.4,272.4,481.2,273.3z"/>
	<path class="st6" d="M492.7,277.8c-0.3,0.9-0.7,1.9-1.3,3s-1,1.9-1.5,2.5s-1,0.8-1.7,0.8c-1.4,0-2.6-0.9-3.6-2.6s-1.5-3.7-1.5-6
		c0-0.7,0.1-1.8,0.2-3.3c0.1-1.5,0.2-2.5,0.2-3.3h3c0,0.7-0.1,1.7-0.3,3.2c-0.2,1.4-0.3,2.5-0.3,3.2c0,1.5,0.3,2.8,0.8,3.9
		s0.9,1.7,1.3,1.7c0.5,0,1.3-1.5,2.4-4.5L492.7,277.8z M500.7,281.4l-2.9,0.2c0-2-0.4-4-1.1-6.1s-1.7-3.8-2.9-5.3l2.4-1.2
		C499.2,272.4,500.7,276.6,500.7,281.4z"/>
	<path class="st6" d="M510.4,271.9c0,0.7-0.1,1.3-0.1,1.8h8.3c0,2.3-0.1,4.1-0.2,5.5s-0.3,2.4-0.5,2.9s-0.7,1.1-1.3,1.4
		s-1.4,0.6-2.2,0.6h-3.1l-0.4-2.5h3c0.9,0,1.4-0.5,1.6-1.5s0.3-2.4,0.3-4.2h-5.8c-0.4,2-1.2,3.8-2.4,5.1s-2.6,2.5-4.4,3.3l-1.4-2
		c1.9-1,3.3-2.3,4.3-3.8s1.4-3.6,1.5-6.2l0-0.4h-5v-2.4h7.3v-2.6h2.8v2.6h7.8v2.4H510.4z"/>
	<path class="st6" d="M527,267.9c-0.8,2.9-1.2,5.4-1.2,7.5c0,2.8,0.4,5.5,1.1,8.2l-2.7,0.6c-0.7-2.8-1.1-5.4-1.1-8.1
		c0-2.7,0.4-5.6,1.1-8.6L527,267.9z M541.5,281.3l-1.6,2.2c-1-0.9-1.9-1.6-2.8-2.2c-0.1,1-0.4,1.7-1,2.2s-1.8,0.8-3.5,0.8
		c-1.2,0-2.2-0.3-3.1-0.9s-1.2-1.4-1.2-2.4s0.4-1.8,1.3-2.5s1.8-1,3-1c0.5,0,1.1,0,1.8,0.1v-4.4H528v-2.4h6.3v-3.5h2.8v3.5h3.6v2.4
		h-3.6v5.2C538.5,279.1,540,280,541.5,281.3z M534.3,280.7V280c-0.5-0.2-1.1-0.3-1.8-0.3c-0.4,0-0.8,0.1-1.1,0.3s-0.5,0.5-0.5,0.8
		s0.2,0.6,0.5,0.8s0.7,0.3,1.2,0.3C533.8,282,534.3,281.5,534.3,280.7z"/>
	<path class="st6" d="M559.7,283.6c-2.6,0.3-4.9,0.5-7,0.5c-3.5,0-5.8-0.3-7.1-1s-2-1.7-2-3.1c0-1.7,0.9-3.2,2.7-4.6l1.9,1.5
		c-1.2,1.2-1.9,2.1-1.9,2.9c0,0.2,0,0.4,0.1,0.6s0.3,0.4,0.6,0.5s0.9,0.3,1.7,0.4s1.8,0.2,3,0.2h0.7c2.2,0,4.4-0.2,6.8-0.5
		L559.7,283.6z M559,271.2c-0.4,0.1-0.9,0.2-1.4,0.4s-0.9,0.3-1.3,0.5s-1.6,0.7-3.7,1.8l-1.2-1.7c0.2-0.1,1-0.5,2.3-1.1
		c-1.9,0-4.8,0.1-8.7,0.2l-0.1-2.4c1.8-0.1,5.4-0.1,10.6-0.1c1.2,0,2.1,0,2.6,0L559,271.2z"/>
	<path class="st6" d="M580.4,272.4h-10.6c-0.2,0.8-0.5,1.7-1,2.7c1.6-0.6,3.1-0.8,4.6-0.8c1.8,0,3.3,0.4,4.5,1.2s1.8,2,1.8,3.4
		c0,1.8-0.8,3.2-2.4,4.1s-3.8,1.4-6.5,1.4H570c-0.9,0-2-0.1-3.1-0.2l-0.2-2.5c1.7,0.1,3.2,0.2,4.7,0.2c1.5,0,2.8-0.2,3.9-0.7
		s1.6-1.2,1.6-2.1c0-0.8-0.3-1.4-0.9-1.8s-1.4-0.6-2.5-0.6c-1.3,0-2.6,0.3-4,0.8s-2.4,1.2-3.4,2.1l-1.7-1.7c1.3-1.6,2.2-3.4,2.7-5.4
		h-4.5V270h4.9c0.1-0.7,0.1-1.7,0.1-2.8l2.9,0c0,0.6-0.1,1.6-0.2,2.8h10.1V272.4z"/>
	<path class="st6" d="M587,284.6l-0.4-2.5c3.4,0,6-0.3,7.8-0.8s2.7-1.4,2.7-2.6c0-0.9-0.3-1.5-0.9-2s-1.5-0.7-2.6-0.7
		c-1.5,0-2.9,0.3-4.4,1s-2.6,1.6-3.5,2.7l-2.1-1.3c1-2.3,1.5-5,1.7-8.3l2.9,0.2c-0.1,2.1-0.4,3.8-0.9,5.2c0.8-0.5,1.8-0.9,3-1.3
		s2.3-0.5,3.3-0.5c2,0,3.6,0.4,4.8,1.3s1.7,2.1,1.7,3.7c0,1.2-0.4,2.2-1.1,3.1s-1.9,1.5-3.5,1.9S591,284.5,587,284.6z M598.5,269.3
		l-1.3,2.5c-1.4-0.6-3.1-1.1-5.2-1.5s-3.8-0.7-5.2-0.8l0.8-2.3C591.6,267.6,595.2,268.3,598.5,269.3z"/>
	<path class="st6" d="M613.4,268.7l-0.4,10.4h-2.7l-0.4-10.4H613.4z M613.3,283.4h-3.4v-2.5h3.4V283.4z"/>
	<path class="st0" d="M625.9,280.8c-0.9,1.1-1.9,2-2.9,2.7l-1.3-1.7c0.5-0.4,1.1-1,1.8-1.7s1.3-1.5,1.8-2.3h-2.8v-2.1h3.4v-1.2h-3.6
		v-2.1h1.8l-0.5-1.8h-1.1v-2.1h3.4v-1.7h2.6v1.7h3.3v2.1h-1l-0.6,1.8h1.7v2.1h-3.4v1.2h3v2.1h-2.6c0.8,0.8,1.7,1.5,2.6,2.1l-1.2,2.1
		c-0.7-0.6-1.3-1.1-1.7-1.5v4.2h-2.6V280.8z M626.1,270.6l0.4,1.8h1.4l0.5-1.8H626.1z M639.2,284.3h-2.6v-9.5H635
		c-0.1,4-1,7.2-2.7,9.6l-1.9-1.4c0.5-0.8,1-1.9,1.4-3.4s0.6-3.4,0.6-5.7v-5.8c2.8-0.2,5.2-0.6,7.2-1.3l1.1,2
		c-0.9,0.3-2.8,0.7-5.7,1.1v2.6h6v2.2h-1.8V284.3z"/>
	<path class="st0" d="M647,279.1c-0.3,1.1-0.9,2.1-1.6,3.1s-1.6,1.8-2.4,2.4l-1.3-2c1.8-1.3,3-3.3,3.5-6.2h-2.9v-2.2h3.1v-2.5h-2.7
		v-2.2h2.7v-2.6h2.6v2.6h2.5v2.2H648v2.5h2.6v2.2h-2.5c0.5,1.3,1.5,2.7,2.8,4l-1.7,1.8C648.3,281.2,647.6,280.1,647,279.1z
		 M654.8,278.4c-0.1,1.5-0.6,2.8-1.3,3.9s-1.7,1.9-2.9,2.3l-1.3-1.6c1.1-0.6,1.9-1.3,2.4-2.1s0.7-1.6,0.8-2.4h-1.2v-11h8.7v11h-1.8
		v3.6c0,0.2,0.1,0.3,0.3,0.3h0.4c0.1,0,0.2,0,0.3-0.1s0.2-0.3,0.2-0.8s0.1-1,0.1-1.6l1.8,0.2v2.5c0,0.4-0.1,0.8-0.3,1
		s-0.5,0.5-0.8,0.6s-0.9,0.2-1.7,0.2c-1.1,0-1.8-0.2-2.2-0.5s-0.5-0.7-0.5-1.3v-4.2H654.8z M657.4,270.6v-1.4h-3.6v1.4H657.4z
		 M653.8,273.6h3.6v-1.4h-3.6V273.6z M657.4,275.2h-3.6v1.4h3.6V275.2z"/>
	<path class="st0" d="M669.8,276.9c-0.3,0.2-0.9,0.5-1.8,0.8v6.8h-2.4v-6c-1.4,0.4-2.4,0.7-3.1,0.9l-0.5-2.4c0.8-0.1,2-0.4,3.6-0.8
		v-3.7h-0.9c-0.2,1.3-0.5,2.3-0.9,2.9l-2-0.7c0.3-0.7,0.5-1.8,0.7-3.1s0.3-2.6,0.3-4l2.3,0.1c0,0.9-0.1,1.8-0.1,2.6h0.6v-3.5h2.4
		v3.5h1.1v1.6c0.7-1.6,1.2-3.4,1.5-5.3l2.6,0.3c0,0.4-0.2,1-0.4,1.7h7.5c0,3.5,0,6.4-0.1,8.6s-0.2,3.8-0.4,4.7s-0.5,1.5-0.9,1.9
		s-1,0.6-1.8,0.6h-2.4l-0.3-2.4h1.8c0.3,0,0.6-0.1,0.8-0.3s0.4-0.5,0.5-1s0.2-1.2,0.3-2.3s0.1-2.4,0.1-4v-3.9h-0.2
		c-0.1,2.7-0.7,5.4-1.8,8s-2.3,4.6-3.8,5.9l-1.6-1.5c1.3-1.4,2.4-3.2,3.3-5.5s1.4-4.6,1.5-6.9h-0.5c-0.3,2.1-0.8,4.2-1.7,6.2
		s-2,3.8-3.2,5.2l-1.6-1.4c1.1-1.2,2-2.7,2.7-4.5s1.3-3.6,1.5-5.5h-0.3l-0.7,1.7c-0.2,0.5-0.4,0.9-0.6,1.3s-0.4,0.8-0.7,1.1
		l-1.9-1.1c0.2-0.4,0.4-0.8,0.6-1.2H668v3c0.7-0.2,1.2-0.4,1.5-0.6L669.8,276.9z"/>
	<path class="st0" d="M687.4,284.6h-2.7v-8.6c-0.4,0.5-0.9,1.2-1.4,1.9l-1.7-1.5c0.8-1,1.6-2.4,2.6-4.2s1.7-3.7,2.2-5.7l2.7,0.5
		c-0.5,1.8-1.3,3.6-2.2,5.3h0.4V284.6z M696.2,284.4h-2.8v-6.2h-5.3v-2.4h5.3v-3.7h-2.1c-0.3,0.8-0.8,1.7-1.5,2.8l-2.1-1.1
		c0.5-0.7,0.9-1.7,1.4-3s0.8-2.4,1-3.6l2.6,0.3c-0.1,0.6-0.3,1.4-0.6,2.4h1.4v-3.1h2.8v3.1h4.2v2.2h-4.2v3.7h4.9v2.4h-4.9V284.4z"/>
	<path class="st0" d="M704.6,277.7c-0.2,2.4-0.6,4.3-1.1,5.7l-1.7-0.4c0.5-2.2,0.8-4,0.9-5.4L704.6,277.7z M707.2,284.6H705v-7.8
		c-1.1,0.1-2,0.2-2.7,0.2l-0.2-1.9c0.3,0,0.8,0,1.4,0c0.3-0.4,0.7-0.9,1.1-1.6c-0.9-1.1-1.8-2.1-2.6-3l1.3-1.4
		c0.1,0.1,0.1,0.2,0.3,0.3c0.7-1.1,1.2-2,1.5-2.9l2,0.8c-0.6,1.2-1.4,2.4-2.2,3.6c0.1,0.1,0.4,0.5,0.8,0.9c0.8-1.3,1.4-2.4,1.8-3.2
		l2,0.9c-0.9,1.7-2.1,3.5-3.7,5.4c0.7,0,1.4-0.1,1.9-0.1c-0.2-0.7-0.4-1.2-0.5-1.4l1.8-0.5c0.3,0.9,0.6,2.1,1,3.7l-1.8,0.5
		c0-0.1-0.1-0.3-0.1-0.7c-0.1,0-0.4,0.1-0.8,0.1V284.6z M710,281.4l-1.8,0.4c-0.2-1.1-0.4-2.5-0.5-4.1l1.7-0.3L710,281.4z
		 M714.9,276.5c0,1.4-0.1,2.6-0.3,3.4s-0.7,1.7-1.4,2.6s-1.7,1.6-2.8,2.1l-1.2-1.9c0.8-0.4,1.4-0.9,1.8-1.3s0.7-0.9,0.9-1.5
		s0.4-1.1,0.5-1.5s0.1-1.1,0.1-2H714.9z M720.8,270.1h-4.4v1.1h3.5v1.8h-9.7v-1.8h3.6v-1.1h-4.1v-1.9h4.1v-1.4h2.6v1.4h4.4V270.1z
		 M720.8,277.6h-2.1v-1.9h-6.6v1.8h-2v-3.6h10.7V277.6z M720.9,282.4c0,0.3-0.1,0.6-0.2,0.9s-0.3,0.5-0.5,0.6s-0.5,0.3-0.7,0.3
		s-0.6,0.1-1,0.1c-0.7,0-1.2,0-1.7-0.1s-0.8-0.3-1-0.6s-0.4-0.7-0.4-1.3v-6h2.4v5.5c0,0.2,0.1,0.3,0.3,0.3h0.4
		c0.2,0,0.3-0.1,0.4-0.4s0.1-1,0.1-2.3l1.9,0.3V282.4z"/>
	<path class="st0" d="M739.4,272.3c-0.3,1-0.9,2.2-1.8,3.9c-1,1.8-2,3.3-3,4.5c1.4,1,2.4,1.8,2.9,2.3l-2,2c-0.9-0.9-2.2-2-4-3.3
		c-1.6-1.2-2.9-2-3.8-2.5l1.8-1.9c0.7,0.4,1.7,1,3,1.9c1.6-2.1,2.7-3.9,3.3-5.4H730c-1.7,2.8-3.7,5.1-6.1,6.9l-1.6-1.7
		c1.5-1.1,2.8-2.7,4.2-4.6c1.3-1.9,2.2-3.8,2.8-5.4l2.8,0.4c-0.3,0.8-0.6,1.6-1,2.3h7.5L739.4,272.3z"/>
	<path class="st0" d="M747.5,284.6h-2.7v-8.4c-0.4,0.6-0.9,1.3-1.4,1.9l-1.7-1.4c0.5-0.5,1.3-1.9,2.4-3.9s1.9-4.1,2.5-6.1l2.7,0.5
		c-0.5,1.8-1.2,3.5-2.2,5.2h0.4V284.6z M760.5,284.2h-12.1v-2.4h4.6v-7.1h-5v-2.3h5V267h2.8v5.4h5.2v2.3h-5.2v7.1h4.7V284.2z"/>
	<path class="st0" d="M771.9,276.6c-0.8,1.7-1.9,3.2-3.2,4.5s-3.1,2.4-5.2,3.4l-1.3-2.2c2.3-1,4.2-2.3,5.6-4.1s2.3-3.9,2.6-6.3v-2
		l-4.8,0v-2.3h7.7c0,0.2,0,0.3,0,0.5v1.8c0,1.3,0.1,2.4,0.4,3.4s0.7,2.1,1.3,3.2s1.5,2.1,2.5,3.1s2.2,1.8,3.6,2.7l-1.9,2.3
		c-2-1.4-3.5-2.7-4.6-4S772.5,277.9,771.9,276.6z"/>
	<path class="st0" d="M797.1,278.7h-4.2v5.8h-2.8v-5.8h-4.1v0.8h-2.7v-10.1h6.9v-2.6h2.8v2.6h7v10.1h-2.8V278.7z M785.9,276.6h4.1
		v-5h-4.1V276.6z M792.9,276.6h4.2v-5h-4.2V276.6z"/>
	<path class="st6" d="M813.4,268.7l-0.4,10.4h-2.7l-0.4-10.4H813.4z M813.3,283.4h-3.4v-2.5h3.4V283.4z"/>
</g>
<g>
	<path class="st5" d="M656.5,166.1h-6.1c-0.2,1.5-0.4,2.5-0.4,3c0,1.3,1.2,1.9,3.7,1.9c1.9,0,3.2-0.2,3.9-0.6s0.9-0.9,0.9-1.6
		c0-1.5-0.4-3-1.3-4.7l2.4-0.7c1.1,2,1.7,3.8,1.7,5.4c0,3-2.5,4.6-7.6,4.6c-2.1,0-3.7-0.4-4.8-1.1s-1.7-1.8-1.7-3.3
		c0-0.6,0.1-1.6,0.3-3h-3.8v-2.4h4.2c0.1-0.7,0.3-1.5,0.5-2.4h-4.4v-2.3h4.9c0.3-1.1,0.5-2.1,0.8-2.9l2.8,0.2l-0.7,2.6h8v2.3h-8.5
		l-0.5,2.4h5.7V166.1z"/>
	<path class="st5" d="M667.8,172.9l-0.4-2.1c2.2-0.1,4-0.3,5.3-0.5s2.4-0.7,3.2-1.4s1.2-1.6,1.2-2.7c0-1-0.3-1.9-1-2.5
		s-1.6-0.9-2.7-0.9c-1.5,0-4.6,0.4-9.2,1.3l-0.4-2.2l5.2-0.8c2.1-0.3,3.5-0.4,4.4-0.4c1.9,0,3.4,0.5,4.6,1.5s1.7,2.3,1.7,4
		C679.7,170.6,675.7,172.9,667.8,172.9z"/>
	<path class="st5" d="M700.6,173.1c-2.1,0.2-4,0.3-5.9,0.3c-2.7,0-4.6-0.1-5.5-0.3c-1.3-0.3-2.3-0.7-3-1.5s-1.1-1.7-1.1-2.8
		c0-2.2,1.6-4.1,4.9-5.7c-0.2-2.2-0.3-4.5-0.3-6.8h2.8l0,0.9v0.3c0,1.4,0,2.9,0.1,4.5c1.5-0.6,3.7-1.3,6.7-2.1l0.8,2.4
		c-4,1-7,2.1-9.2,3.1s-3.2,2.2-3.2,3.3c0,1.4,1.6,2.2,4.8,2.2h0.9c2.1,0,4.4-0.1,7.1-0.4L700.6,173.1z"/>
	<path class="st5" d="M709.6,172l-2.4,1.6c-1-1.6-2.2-3.2-3.7-4.9l2.1-1.5C707.2,168.8,708.5,170.4,709.6,172z"/>
	<path class="st5" d="M729.1,165.8c-0.3,0.1-0.8,0.3-1.4,0.5v5.2c0,0.6-0.2,1.1-0.6,1.5s-1,0.5-1.6,0.5h-2l-0.3-2.2h1.4
		c0.4,0,0.7-0.2,0.7-0.6V167c-0.7,0.2-1.3,0.4-1.8,0.5l-0.5-2.3c0.6-0.1,1.4-0.2,2.3-0.4v-3.5h-1.9v-2h1.9v-3.3h2.5v3.3h1.2v2h-1.2
		v2.9c0.5-0.1,0.9-0.3,1.2-0.4L729.1,165.8z M733.8,169.5c-1.4,1.3-3,2.4-4.9,3.3l-1.1-2c1.5-0.6,3.1-1.8,4.9-3.5h-3.5v-2.1h4.5
		v-1.7h2.6v1.7h5v2.1h-4c0.5,0.6,1.3,1.2,2.3,1.9s1.9,1.3,2.7,1.6l-1.5,2.1c-1.6-0.8-3.1-2-4.5-3.4v3.9h-2.6V169.5z M734.6,158.4
		c-0.2,1.5-0.6,2.7-1.3,3.6s-1.7,1.7-3.1,2.4l-1.1-1.8c1.2-0.7,2-1.4,2.5-2s0.7-1.4,0.8-2.2h-1.1v1.6h-2.1v-3.6h12.2v3.4h-2v-1.4
		h-1.9v2.9c0,0.3,0.1,0.4,0.4,0.4h0.9c0.3,0,0.4-0.1,0.5-0.4s0-0.6,0-1.1l1.9,0.2v1.3c0,0.6-0.2,1-0.6,1.3s-1.3,0.5-2.6,0.5
		c-0.8,0-1.3-0.1-1.6-0.2s-0.6-0.3-0.7-0.6s-0.2-0.7-0.2-1.1v-3.3H734.6z"/>
	<path class="st5" d="M759.5,170.8l-0.1,2.6c-0.6,0-1.1,0-1.6,0c-2.8,0-5-0.4-6.6-1.3s-2.3-2.2-2.3-3.8c0-1.1,0.3-2.1,1-2.9
		c-1.8,0.1-3.8,0.4-6,0.7l-0.3-2.4c0.7-0.1,1.6-0.2,2.5-0.5s1.6-0.4,1.9-0.6s1.1-0.5,2.3-1.2s2.4-1.4,3.7-2.4
		c-3,0.1-5.6,0.2-7.6,0.2h-0.8v-2.5l12,0l1.3,1.5c-1.5,1.4-3.9,3-7.1,4.8c3.4-0.2,6.2-0.3,8.5-0.3l0.9,0l0,2.5
		c-1.5-0.1-2.9-0.1-4.1-0.1c-1.1,0-2.2,0-3.4,0.1c-1.4,0.8-2,1.8-2,3c0,1.8,1.8,2.8,5.5,2.8C757.9,170.9,758.6,170.9,759.5,170.8z"
		/>
	<path class="st5" d="M767.7,173.4l-0.5-2.4c3.2-0.1,5.7-0.7,7.5-1.6s2.6-2.3,2.6-3.9c0-0.7-0.3-1.3-0.8-1.7s-1.3-0.6-2.2-0.6
		c-0.6,0-1.3,0-2,0.1s-1.4,0.1-1.9,0.2s-2.4,0.4-5.4,0.9l-0.2-2.5l4.1-0.6c1.2-0.2,2.2-0.3,3.2-0.4s1.7-0.1,2.4-0.1
		c1.8,0,3.2,0.4,4.3,1.2s1.6,2,1.6,3.5c0,2.5-1.1,4.4-3.3,5.8S771.6,173.3,767.7,173.4z M778.2,157.5l-0.6,2.5
		c-1.2-0.3-2.9-0.5-5.1-0.7s-4-0.3-5.5-0.3c-0.4,0-0.7,0-1.1,0l0-2.4c2.1,0,4,0.1,5.8,0.2S775.7,157.2,778.2,157.5z"/>
	<path class="st5" d="M794.4,157.7l-0.4,10.4h-2.7l-0.4-10.4H794.4z M794.3,172.4h-3.4v-2.5h3.4V172.4z"/>
</g>
<g>
	<path class="st7" d="M935.9,127.6l-0.5,0.2h1.6v-1.7h2.2v1.7h1l1-1.8l2,0.7l-0.7,1.1h2.2v4.2h-2.1v-2.3h-8.8v2.3h-2.1v-4.2h2.1
		l-0.7-1.1l2-0.8L935.9,127.6z M940.4,139.2l-0.5-1.9h0.9c0.4,0,0.6-0.1,0.5-0.5v-0.4h-2.2v3.5H937v-3.5h-2.2v2.7h-2.1v-4.5h4.2
		v-0.7h-2.8v-3.7h7.6v3.7h-2.7v0.7h4.3v3.3c0,0.9-0.4,1.3-1.3,1.3H940.4z M936.3,132.3h3.6v-0.6h-3.6V132.3z"/>
	<path class="st7" d="M946.7,139.2v-12.1h4.5v11.4h-2.7v0.8H946.7z M948.5,131.7h0.9v-2.8h-0.9V131.7z M948.5,136.6h0.9v-2.9h-0.9
		V136.6z M955,139.9l-0.6-1.9l-0.5,0.4c-0.2-0.4-0.8-1.2-1.8-2.2l1.4-0.9h-2.1v-1.9h5v-0.8h-5v-1.9h3.1v-1.1h-2.7v-1.8h2.7v-1.5h2
		v1.5h2.9v1.8h-2.9v1.1h3.5v1.9h-1.5v0.8h1.4v1.9h-1.4v3c0,1.1-0.5,1.6-1.5,1.6H955z M956.4,135.3H954c0.7,0.6,1.2,1.2,1.6,1.8
		l-0.9,0.7h1.2c0.5,0.1,0.7-0.1,0.6-0.6V135.3z"/>
	<path class="st7" d="M961.2,129.8l0.9-1.8l0.6,0.6l1.2-2.4l1.7,0.7l-1.6,3l0.3,0.3l1.4-2.3l1.7,0.9l-1.7,2.8l1.5-0.5
		c0.7,1.5,1.1,2.5,1.2,3l-0.9,0.3c0.3,1.1,0.5,2.2,0.6,3.6l-1.8,0.2c0-1.1-0.1-2.3-0.4-3.5l0.6-0.1l-0.2-0.6l-0.7,0.1v5.7h-1.9v-5.6
		l-2.4,0.1l-0.2-2h1.6l0.4-0.6L961.2,129.8z M961.5,138.7c0.3-1.1,0.5-2.5,0.5-4l1.6,0.2c0,1.9-0.1,3.3-0.4,4.2L961.5,138.7z
		 M965.3,132.3l0.6-0.1l-0.2-0.5L965.3,132.3z M972.4,139.8h-2.2l-0.6-2.1h2c0.4,0,0.6-0.3,0.6-0.8l0.2-2.1l0.1-2.6l0.1-1.9h-2.8
		c-0.1,0.2-0.3,0.5-0.5,0.9c-0.2,0.4-0.4,0.6-0.6,0.8l-1.6-1.3c1.3-1.6,2.1-3.1,2.5-4.6l2,0.5c-0.1,0.4-0.3,1-0.6,1.8h3.8l-0.1,2.5
		l-0.1,4.2l-0.2,2.3c-0.1,1-0.2,1.6-0.5,1.9C973.5,139.6,973.1,139.8,972.4,139.8z M968.8,132.6l1.8-0.8c0.2,0.2,0.4,0.7,0.7,1.5
		c0.4,0.9,0.5,1.5,0.6,1.8l-1.8,0.6c0-0.4-0.2-0.9-0.5-1.6C969.2,133.4,969,132.9,968.8,132.6z"/>
</g>
<g>
	<path class="st7" d="M967,204.7l2.5,0.5c-0.2,0.8-0.5,1.4-0.8,1.8h5.6l-0.1,11c0,0.6-0.1,1.1-0.2,1.6c-0.1,0.5-0.4,0.9-0.7,1.1
		c-0.4,0.2-1.2,0.4-2.4,0.4H970l-0.8-2.5h1.5c0.7,0,1.1-0.2,1.1-0.6l0.1-2.2l0.1-2.2c-0.4,1.1-1.1,2.4-2.1,3.7
		c-1.1,1.4-2.1,2.5-3.2,3.2l-1.6-1.8c1.5-1,2.8-2.3,4-4c0.5-0.7,1-1.6,1.5-2.7c0.5-1.1,0.8-1.9,0.9-2.5h-0.7c-0.4,1.3-1,2.5-1.8,3.7
		c-0.8,1.3-1.9,2.4-3.2,3.5l-1.4-1.5l-0.6,0.2v6h-2.5v-4.9l-2.1,0.8l-0.8-2.4l2.9-1v-3h-0.5c-0.1,1.2-0.3,2-0.4,2.3l-2.1-0.8
		c0.5-1.3,0.7-3.2,0.7-5.6l2,0.1c0,0.8,0,1.4-0.1,1.7h0.4V205h2.5v3.4h0.8v0.6c0.5-0.4,0.9-1.1,1.4-1.9
		C966.5,206.2,966.9,205.4,967,204.7z M968.2,209.3h-0.6c-0.1,0.3-0.4,0.7-0.8,1.2c-0.5,0.6-0.8,1-1.1,1.2l-1.1-1h-0.8v2.1l0.7-0.4
		l0.6,1.4c0.6-0.4,1.2-1.1,1.9-2C967.6,210.9,968.1,210,968.2,209.3z"/>
	<path class="st7" d="M976.2,211.6c1.4-1.6,2.5-3.9,3.4-6.8l2.3,0.7c-0.5,1.5-0.9,2.6-1.3,3.4v12.3h-2.5v-8.1l-0.8,1.2L976.2,211.6z
		 M980.7,211.2c0.5-0.7,1-1.5,1.5-2.7c0.5-1.3,0.8-2.3,0.9-3.2l2.2,0.8c-0.1,0.9-0.4,1.7-0.6,2.2h1.1v-3.7h2.5v3.7h3.5v2.2h-3.5v3
		h4.4v2.2h-4.4v5.3h-2.5v-5.3h-4.8v-2.2h4.8v-3h-2c-0.5,1.3-1,2.2-1.3,2.5L980.7,211.2z"/>
	<path class="st7" d="M1002.4,213.7l1.3,1.8c-0.6,0.8-1.8,1.8-3.6,2.9c-1.5,0.9-3.1,1.7-4.7,2.2l-1.1-2.4l1.3-0.4v-12.7h2.5v11.7
		c0.6-0.2,1.2-0.6,2-1.1C1001.1,215,1001.9,214.3,1002.4,213.7z M1002.9,211.7c-1-1.8-2.1-3.2-3.4-4.1l2-1.5c1.3,1,2.4,2.3,3.5,4.1
		L1002.9,211.7z M1006.4,212.7c0.4-1.7,0.6-3.6,0.6-5.7v-1.9h2.5v3.3c0,1.4-0.2,2.9-0.5,4.4c-0.3,1.4-0.6,2.3-1.1,2.9
		c1.1,1,2.1,2.2,3,3.5l-1.9,1.8c-0.9-1.6-1.7-2.6-2.5-3.1c-1.2,1.6-2.9,2.7-5,3.4l-1.5-2.2c1.4-0.5,2.6-1.2,3.7-2
		C1005.1,216.1,1006,214.6,1006.4,212.7z"/>
	<path class="st7" d="M1012.4,218.1h6.5v-13.2h2.4v5h6.1v2.3h-6.1v5.9h7.2v2.3h-16.2V218.1z"/>
</g>
<g>
	<path class="st7" d="M1016.7,126.5h-13.3c-1.9,0-3.4-1.5-3.4-3.4v-8.9c0-1.9,1.5-3.4,3.4-3.4h13.3c1.9,0,3.4,1.5,3.4,3.4v8.9
		C1020.1,124.9,1018.6,126.5,1016.7,126.5z M1003.3,112.6c-0.9,0-1.5,0.7-1.5,1.5v8.9c0,0.9,0.7,1.5,1.5,1.5h13.3
		c0.9,0,1.5-0.7,1.5-1.5v-8.9c0-0.9-0.7-1.5-1.5-1.5H1003.3z"/>
	<path class="st7" d="M1010,120.8c-0.5,0-0.9-0.4-0.9-0.9v-2.6c0-0.5,0.4-0.9,0.9-0.9s0.9,0.4,0.9,0.9v2.6
		C1011,120.4,1010.6,120.8,1010,120.8z"/>
	<path class="st7" d="M1016.7,108.2c-0.5,0-0.9-0.4-0.9-0.9v-0.6c0-2.2-1.8-4-4-4h-2.8c-2.2,0-4,1.8-4,4v4.9c0,0.5-0.4,0.9-0.9,0.9
		c-0.5,0-0.9-0.4-0.9-0.9v-4.9c0-3.2,2.6-5.9,5.9-5.9h2.8c3.2,0,5.9,2.6,5.9,5.9v0.6C1017.6,107.8,1017.2,108.2,1016.7,108.2z"/>
	<path class="st7" d="M1011,138h-20.9c-2.5,0-4.7-2.2-4.7-4.7V94c0-2.6,2.1-4.7,4.7-4.7h20.9c2.6,0,4.6,2.1,4.6,4.7v5
		c0,0.5-0.4,0.9-0.9,0.9s-0.9-0.4-0.9-0.9v-5c0-1.6-1.2-2.8-2.8-2.8h-20.9c-1.6,0-2.8,1.3-2.8,2.8v39.3c0,1.5,1.3,2.8,2.8,2.8h20.9
		c1.5,0,2.8-1.3,2.8-2.8v-4.7c0-0.5,0.4-0.9,0.9-0.9s0.9,0.4,0.9,0.9v4.7C1015.6,135.9,1013.5,138,1011,138z"/>
	<path class="st7" d="M1014.7,97.8h-28.4c-0.5,0-0.9-0.4-0.9-0.9s0.4-0.9,0.9-0.9h28.4c0.5,0,0.9,0.4,0.9,0.9
		S1015.2,97.8,1014.7,97.8z"/>
	<path class="st7" d="M1014.7,131.4h-28.4c-0.5,0-0.9-0.4-0.9-0.9s0.4-0.9,0.9-0.9h28.4c0.5,0,0.9,0.4,0.9,0.9
		S1015.2,131.4,1014.7,131.4z"/>
	<path class="st7" d="M1001.9,134.7h-2.8c-0.5,0-0.9-0.4-0.9-0.9s0.4-0.9,0.9-0.9h2.8c0.5,0,0.9,0.4,0.9,0.9
		S1002.4,134.7,1001.9,134.7z"/>
</g>
<g>
	<path class="st7" d="M957.7,150.5l-11.6,15.1c1.4-0.6,3.1-1.1,5.2-1.1c3.5,0,7.7,1.4,10.5,4.1c2.5,2.4,4.5,6.4,4.5,11.4
		c0,4-1.1,8-4.4,11.5c-4.1,4.4-8.7,5.4-13.6,5.4c-5.1,0-9.6-0.9-13.6-4.9c-2.6-2.6-4.6-6.2-4.6-11.6c0-5.8,2.6-10.4,6-14.9l14-18.7
		L957.7,150.5z M954.5,187c1.1-1.1,2.6-3.1,2.6-6.3c0-2.9-1-5-2.6-6.6c-1.8-1.7-3.8-2.3-6.1-2.3c-2.8,0-4.6,0.9-6.2,2.6
		c-1.7,1.8-2.6,3.6-2.6,6.2s0.9,4.8,2.6,6.4c1.2,1.1,3.3,2.4,6.1,2.4C951.3,189.4,953.3,188.2,954.5,187z"/>
	<path class="st7" d="M970.5,171.9c0-16.4,8.9-24.9,18.4-24.9s18.4,8.5,18.4,24.9c0,16.4-8.9,24.9-18.4,24.9
		S970.5,188.3,970.5,171.9z M979.8,171.9c0,12.4,5.1,16.9,9.1,16.9s9.1-4.5,9.1-16.9c0-12.4-5.1-16.9-9.1-16.9
		S979.8,159.5,979.8,171.9z"/>
	<path class="st7" d="M1011,171.9c0-16.4,8.9-24.9,18.4-24.9s18.4,8.5,18.4,24.9c0,16.4-8.9,24.9-18.4,24.9S1011,188.3,1011,171.9z
		 M1020.3,171.9c0,12.4,5.1,16.9,9.1,16.9s9.1-4.5,9.1-16.9c0-12.4-5.1-16.9-9.1-16.9S1020.3,159.5,1020.3,171.9z"/>
</g>
<line class="st8" x1="613.4" y1="149.8" x2="635.2" y2="171.6"/>
<line class="st8" x1="824.2" y1="149.8" x2="802.4" y2="171.6"/>
<rect x="1" y="326" class="st0" width="1078.6" height="1"/>
<circle class="st0" cx="106.9" cy="4.5" r="4.5"/>
<circle class="st0" cx="137.4" cy="4.5" r="4.5"/>
<circle class="st0" cx="167.9" cy="4.5" r="4.5"/>
</svg>
