<?xml version="1.0" encoding="utf-8"?>
<!-- Generator: Adobe Illustrator 27.0.0, SVG Export Plug-In . SVG Version: 6.00 Build 0)  -->
<svg version="1.1" id="レイヤー_1" xmlns="http://www.w3.org/2000/svg" xmlns:xlink="http://www.w3.org/1999/xlink" x="0px"
	 y="0px" viewBox="0 0 637 87" style="enable-background:new 0 0 637 87;" xml:space="preserve">
<g>
	<g>
		<path d="M15.8,14.2c-1.4-1-2.9-2.3-4.4-4.6c-0.9-1.4-1.7-2.9-2.1-4.5H9.1C9.1,7.7,9.1,7.9,9.1,8.9c0,0.5,0,1.9,0.1,3.8h1.5
			l0.6-0.7c0.2-0.2,0.2-0.2,0.3-0.2c0.1,0,0.1,0,0.3,0.2l0.7,0.6c0.1,0.1,0.2,0.2,0.2,0.3c0,0.2-0.2,0.2-0.3,0.2H9.1
			c0,0.6,0.2,3.9,0.2,4c0,0.2,0,0.5-0.3,0.7C8.7,18,8.4,18,8.3,18c-0.3,0-0.5-0.2-0.5-0.4c0,0,0-0.1,0-0.2c0.2-2.2,0.2-3.7,0.2-4.2
			H7.2c-0.7,0-1.7,0.1-2.4,0.2l-0.5-0.8c1.4,0.1,2.8,0.2,3.2,0.2h0.6c0-0.9,0.1-6.1,0.1-6.5c-2.5,4.8-5.6,7.1-8.1,8.2L0,14.2
			c3.7-2.6,6.2-6.3,7.5-9.2H3.4C2.8,5.1,1.7,5.1,1,5.3L0.6,4.5C2,4.6,3.3,4.6,3.7,4.6h4.5C8.1,2,8.1,1.6,7.8,0.8l1.8,0.6
			c0.2,0.1,0.3,0.1,0.3,0.2S9.8,1.8,9.2,2.2c0,0.5,0,0.8,0,2.4H14l0.9-1c0.2-0.2,0.2-0.2,0.3-0.2c0.1,0,0.3,0.2,0.4,0.2l1.2,1
			c0.1,0.1,0.2,0.2,0.2,0.3c0,0.2-0.2,0.2-0.3,0.2H9.5c1.6,3.8,5.1,7.2,8.3,8v0.2C16.8,13.3,16.2,13.7,15.8,14.2z"/>
		<path d="M23.9,11c0,0.9,0.1,4.9,0.1,5.7c0,0.1,0,0.2,0,0.3c0,0.4-0.1,0.5-0.2,0.6c-0.2,0.2-0.5,0.3-0.7,0.3
			c-0.3,0-0.4-0.2-0.4-0.4c0-0.2,0.1-0.8,0.1-0.9c0-0.8,0.1-4.3,0.1-5.1c-1.3,0.7-2.1,0.9-2.5,1.1c0,0.3-0.1,0.6-0.4,0.6
			c-0.1,0-0.2-0.1-0.3-0.3l-0.8-1.4c0.7,0,1.3,0,3.9-0.8c0-0.2,0-1.2,0-1.4c0-0.1,0-0.2,0-0.4c0-0.5,0-2.8-0.1-3.3h-2
			c-0.1,0.3-0.6,2.5-1.5,4.1l-0.2-0.1c0.8-2.9,0.9-6.2,0.9-6.6c0-0.5-0.1-0.7-0.2-1l1.6,0.4c0.2,0.1,0.3,0.1,0.3,0.2
			c0,0.2-0.3,0.4-0.6,0.5c-0.1,1.1-0.2,1.6-0.3,2.1h1.9c0-3.1,0-3.5-0.4-4.4l1.8,0.6c0.1,0,0.3,0.1,0.3,0.2c0,0.2-0.1,0.2-0.6,0.6
			c0,0,0,2.7,0,2.9h0.7l0.5-0.6c0.1-0.1,0.2-0.2,0.3-0.2c0.1,0,0.3,0.1,0.3,0.2l0.6,0.6c0,0.1,0.2,0.2,0.2,0.3
			c0,0.2-0.2,0.2-0.3,0.2h-2.3c0,0.5,0,2.8,0,3.2c0,0.3,0,0.3,0,1.6c0.4-0.1,2.2-0.8,2.6-0.9l0.1,0.2C26.1,9.9,25.4,10.3,23.9,11z
			 M35.3,5.8c-0.2,5.1-0.3,6.5-1.1,9.2c-0.4,1.3-0.9,2.5-3.2,2.8c-0.1-0.9-0.8-1.3-1.7-1.9l0.1-0.2c1.3,0.4,2.1,0.4,2.2,0.4
			c0.6,0,1,0,1.6-1.7c1-3.2,1-7.6,1-9.1h-1.3c-0.2,1.3-0.3,2.2-0.7,3.5c-1.8,5.9-5.5,7.9-7.2,8.5l0-0.2c4.5-2.9,5.9-6.6,6.8-11.8
			h-1.4c-0.8,4.2-3,7.5-5.5,8.8l-0.1-0.1c2.1-1.9,3.9-5.3,4.5-8.6h-1.3c-0.5,1.2-1.2,2.6-2.3,3.7l-0.1-0.1C26.9,6.6,28,2.2,28,1.3
			c0-0.3,0-0.4-0.1-0.7l1.7,0.7c0,0,0.3,0.1,0.3,0.3c0,0.2,0,0.2-0.8,0.4c-0.2,0.6-0.4,1.4-0.9,2.8H34l0.4-0.4
			c0.1-0.2,0.2-0.2,0.2-0.2s0.2,0.1,0.3,0.1l0.8,0.6C35.9,5,35.9,5,35.9,5.1C35.9,5.5,35.5,5.7,35.3,5.8z"/>
		<path d="M42.1,5.5c0.1,0.1,0.2,0.1,0.2,0.3c0,0.1-0.3,0.4-0.5,0.6c0,0.8,0,1.4,0,2.5c0,1.3,0.1,6.9,0.1,8.1c0,0.4,0,0.5-0.2,0.7
			c-0.2,0.2-0.6,0.3-0.7,0.3c-0.4,0-0.5-0.3-0.5-0.5c0,0,0-0.4,0.1-0.6c0.2-2.1,0.2-3.4,0.2-10.3C39.9,7.8,38.9,9,38,9.7l-0.1-0.1
			c1.6-2,3.4-5.5,4.3-7.9c0.2-0.5,0.2-0.8,0.2-1.2l1.6,1c0.1,0.1,0.2,0.2,0.2,0.3c0,0.2-0.2,0.2-0.7,0.3c-0.3,0.6-0.7,1.6-1.7,3.3
			L42.1,5.5z M45.7,5.9c-0.6,1.1-1.2,2.3-2.3,3.4l-0.1-0.1c0.9-1.9,1.7-3.8,2.3-5.9c0.1-0.3,0.1-0.4,0.2-1l1.4,0.7
			c0.1,0.1,0.3,0.2,0.3,0.3c0,0.2-0.1,0.2-0.8,0.4c-0.2,0.5-0.3,0.8-0.8,1.7h3c0-1.3-0.1-3.7-0.3-4.7l1.7,0.5c0.1,0,0.2,0.1,0.2,0.3
			c0,0.1-0.1,0.2-0.2,0.3C50.3,1.8,50,2,49.9,2.1v3.3h2l0.6-0.9c0.1-0.1,0.2-0.2,0.3-0.2c0.1,0,0.3,0.1,0.4,0.2l1,0.9
			c0.1,0.1,0.2,0.2,0.2,0.3c0,0.2-0.2,0.2-0.3,0.2h-4.2c0,2.9,0,3.3,0.1,4.9h2.9l0.7-0.9c0-0.1,0.2-0.2,0.3-0.2s0.3,0.1,0.4,0.2
			l1.1,0.9c0.1,0.1,0.2,0.2,0.2,0.3c0,0.2-0.2,0.2-0.3,0.2h-5.3c0,1,0.2,5.2,0.2,6c0,0.7-0.7,0.8-0.9,0.8c-0.5,0-0.5-0.3-0.5-0.8
			c0-0.2,0-1.1,0-1.3c0-0.7,0.1-4.1,0.1-4.7H46c-0.7,0-1.7,0.1-2.5,0.2l-0.5-0.8c1.4,0.1,2.8,0.1,3.2,0.1h2.6
			c0.1-2.3,0.1-2.5,0.1-4.9H45.7z"/>
		<path d="M66.1,16.1c5.7-2,5.9-6,5.9-7c0-3.3-3.2-5.1-5.9-5.1c-0.4,0-0.5,0-0.7,0.1c0.9,0.8,0.9,1.3,0.9,1.4c0,0.2-0.1,0.3-0.5,1.1
			c-2.3,4.9-2.5,5.3-3.6,7c-0.1,0.1-0.7,1-1.1,1.2c-0.1,0.1-0.2,0.1-0.4,0.1c-0.4,0-0.6-0.2-1.1-1c-0.1-0.2-0.2-0.3-0.5-0.5
			c-0.7-0.6-1-1.3-1-2.6c0-3.8,3.2-7.4,8.1-7.4c3.5,0,6.9,2,6.9,5.9c0,3.5-2.8,6.6-7.1,7L66.1,16.1z M64,8.7
			c0.6-1.1,1.1-2.5,1.1-3.3c0-0.6-0.4-1-0.5-1.2c-2.1,0.2-5.3,3-5.3,6.7c0,1.4,0.9,2.7,1.7,2.7c0.1,0,0.2,0,0.4-0.1
			c0.4-0.4,0.8-1,1.1-1.7L64,8.7z"/>
		<path d="M81,2.3c-0.2,0.5-0.5,1.2-1,2.4L80.6,5c0.1,0.1,0.2,0.1,0.2,0.2c0,0.2-0.3,0.5-0.6,0.7c0,1.8,0,3.6,0,6.1
			c0,0.7,0.1,4.2,0.1,4.7c0,0.5,0,1.2-0.9,1.2c-0.2,0-0.4-0.1-0.4-0.4c0-0.7,0.1-1.7,0.1-2.4c0.1-2.7,0.1-3.2,0.1-9.1
			c-1,1.8-1.8,3-3.3,4.5l-0.1-0.1c2.3-3.7,4.2-8.2,4.3-9.7l1.4,0.7c0.1,0.1,0.2,0.1,0.2,0.2C81.8,1.9,81.7,1.9,81,2.3z M92.4,16.8
			C91.4,17,88.2,17,87.9,17c-1,0-3.4,0-4.1-0.3c-0.9-0.4-0.9-1.1-0.9-1.5c0-0.2,0-1.9,0-2.3c0-1.3,0-3.4,0-5.1
			c-0.7,0.3-0.9,0.4-1.3,0.6l-0.7-0.6c0.7-0.2,1.3-0.4,2-0.6c0-0.5,0-2.4,0-2.8c0-0.7-0.2-1.2-0.2-1.4l1.7,0.6
			c0.2,0.1,0.3,0.1,0.3,0.2c0,0.3-0.2,0.4-0.6,0.7c0,0.1-0.1,2.1-0.1,2.4L86.4,6c0-0.6,0-3.2,0-3.7c-0.1-0.8-0.2-1.1-0.2-1.4
			l1.6,0.4c0.2,0,0.3,0.1,0.3,0.2c0,0.2-0.3,0.5-0.6,0.8c0,0.2,0,0.5,0,1.4v2l3-1L90.9,4c0.1-0.1,0.2-0.2,0.3-0.2
			c0.2,0,0.3,0.1,0.4,0.2l0.7,0.6c0.1,0.1,0.2,0.2,0.2,0.3c0,0.2-0.4,0.4-0.7,0.6c0,1.1,0,5.1-0.3,6.1c-0.2,0.5-0.9,1.5-2,1.5
			c0-0.3-0.1-0.6-0.5-0.9c-0.4-0.4-0.7-0.5-0.8-0.6l0-0.1c0.7,0.1,1.2,0.1,1.3,0.1c0.4,0,0.9,0,1.1-0.8s0.4-2.3,0.4-3.7
			c0-1.2-0.1-1.7-0.1-2l-3.2,1.1c0,1.7,0,3.6,0,5.3c0,0.4,0.1,1.9,0.1,2.3c0,0.4,0,0.5-0.1,0.6c-0.1,0.2-0.4,0.4-0.7,0.4
			c-0.4,0-0.4-0.4-0.4-0.6c0-0.3,0-0.9,0-1.2c0.1-2.9,0.1-4.6,0-6.4l-2.5,0.9c0,1.8-0.1,4.9-0.1,6.5c0,1.6,0,1.8,0.7,2
			c0.4,0.1,3.4,0.2,3.9,0.2c0.7,0,2.7,0,3.2-0.5c0.6-0.5,1-2.5,1.2-3.3h0.1c0,0.6,0,1.4,0.1,2c0,0.8,0.1,1,0.3,1.2
			c0.2,0.2,0.3,0.3,0.3,0.4C93.6,16.3,93.1,16.7,92.4,16.8z"/>
		<path d="M100.6,9.4c-0.1,0.6-0.8,3.1-0.9,3.6c-0.3,1.1-0.4,1.7-0.4,2.2c0,0.2,0.1,1.3,0.1,1.3c0,0.2,0,0.5-0.4,0.5
			c-0.3,0-0.6-0.4-0.8-0.6c-0.9-1.5-1-2.9-1-4.9c0-0.4,0-1,0.1-1.8l0.6-4.2C97.9,5.2,98,4.7,98,4.1c0-1-0.4-1.5-0.6-1.7
			c0.9-0.1,1.9,1,1.9,1.7c0,0.1-0.2,0.8-0.3,1c-0.4,1.3-1.1,4.1-1.1,6.3c0,1.6,0.3,2.8,0.6,2.8c0.1,0,0.2-0.3,0.2-0.3
			c0.6-1.8,0.9-2.6,1.7-4.6L100.6,9.4z M104.2,13.7c1.1,0.5,2.7,0.5,3.2,0.5c0.7,0,1,0,2-0.2c0.2,0,0.2,0,0.3,0
			c0.3,0,1.3,0.2,1.3,0.7c0,0.5-0.6,0.5-1.8,0.5c-0.9,0-4-0.1-5.2-0.8c-1.2-0.6-1.3-1.8-1.3-2.2c0-0.2,0-0.4,0.1-0.6
			C103.2,12.7,103.4,13.3,104.2,13.7z M105.5,6.5c0.4-0.3,2-1.6,2-1.7c0-0.2-0.6-0.2-0.6-0.2c-0.6,0-2,0.2-3.7,0.8
			c1.7-1.3,2.9-1.7,4.2-1.7c1.2,0,2.7,0.3,2.7,0.9c0,0.3-0.3,0.4-1,0.5c-1.7,0.3-2.9,1-3.6,1.5L105.5,6.5z"/>
		<path d="M123.8,8.3c1.5,0.9,4.1,2.5,4.1,5.4c0,2.9-2.8,3.6-4.1,3.6c-1.3,0-2.4-0.5-3.1-1.3c-0.5-0.6-0.7-1.7-0.7-2.5
			c0-0.6,0.1-1.3,0.2-1.9c-1.2-0.5-2.5-1.3-2.5-2.4c0-0.8,0.4-1.2,2-2.4c0.2-0.1,0.2-0.2,0.2-0.3c0-0.1,0-0.2-0.2-0.3
			c-1.4-0.9-1.5-1-1.7-1.3c-0.2-0.3-0.2-0.5-0.2-0.9c0.9,1,2.6,1.6,3.5,1.8c0.5-2.2,0.6-3.3,0.6-3.4c0-0.7-0.6-1.2-1-1.5
			c0.2,0,0.3-0.1,0.6-0.1c1,0,1.9,1,1.9,1.6c0,0.2,0,0.3-0.3,1c-0.2,0.5-0.5,1.2-0.9,2.7c0.5,0.3,0.5,0.7,0.5,0.7
			c0,0.4-0.2,0.4-0.8,0.3c-0.1,0.4-0.5,2.2-0.8,3.9c0.5,0.1,1,0.2,1.5,0.2c0.7,0,1.3,0.5,1.3,0.9c0,0.3-0.2,0.3-0.9,0.3
			c-0.9,0-1.7-0.3-2-0.4c0,0.3-0.1,0.7-0.1,1.3c0,0.7,0.1,1.5,0.5,2.1c0.6,0.8,1.5,1.2,2.5,1.2c2,0,3-1.5,3-2.9c0-1.5-1.1-3.7-3-5.2
			L123.8,8.3z M119.9,7.2c-0.8,0.5-1.5,1.3-1.5,2c0,0.9,1,1.3,1.9,1.5c0.3-2.1,0.6-3.2,0.7-3.8C120.5,7,120.3,7,119.9,7.2z"/>
		<path d="M133.8,12.9c0.9,0.2,2.4,0.5,3.6,1.5c1.1,1,1.1,2,1.1,2.1c0,0.6-0.5,1-0.9,1c-0.3,0-0.5-0.2-0.9-1
			c-0.9-1.9-1.3-2.7-2.9-3.4L133.8,12.9z"/>
		<path d="M157.3,2.8c-0.3,1-0.9,1.9-1.4,2.8l0.7,0.3c0.1,0,0.3,0.1,0.3,0.3s-0.3,0.4-0.6,0.6c0,0.6-0.1,0.9-0.1,3.1
			c0,1.8,0,3.1,0.1,5.3c0,0.3,0.1,1.7,0.1,2c0,0.8-0.8,0.8-0.9,0.8c-0.2,0-0.4-0.1-0.4-0.5c0-0.2,0.1-1.8,0.1-2.2
			c0-1.5,0.1-2.1,0.1-8.6c-0.5,0.6-1,1.4-1.9,2.6c-0.7,0.9-1,1.2-1.3,1.4l-0.1-0.1c1.5-2.3,2.8-4.3,3.8-7c0.7-1.7,0.7-2.1,0.7-2.5
			l1.6,1c0,0,0.2,0.2,0.2,0.3C158.2,2.6,157.6,2.7,157.3,2.8z M168.2,5.6c0,0.6,0.1,3.8,0.1,4.6c0,0.2,0.1,1.4,0.1,1.5
			c0,0.7-0.8,0.8-0.9,0.8c-0.4,0-0.4-0.4-0.4-0.8h-3.2c0,0.9,0.1,5.4,0.1,5.6c0,0.2,0,0.4-0.2,0.5c-0.2,0.2-0.5,0.2-0.7,0.2
			c-0.2,0-0.4-0.2-0.4-0.5c0-0.3,0-1.9,0-2.2c0-1.7,0-1.9,0.1-3.7h-3c0,0.2,0,0.4,0,0.5c0,0.2,0,0.3-0.2,0.5
			c-0.2,0.2-0.5,0.2-0.6,0.2c-0.3,0-0.3-0.2-0.3-0.4c0-0.2,0.1-1.3,0.1-1.5c0-0.8,0-1.4,0-2.9c0-2.8,0-3.1-0.1-3.9l1.3,0.7h2.9
			c0-2.8,0-3.1-0.3-3.9l1.8,0.4c0.2,0,0.3,0.1,0.3,0.3c0,0.2-0.4,0.5-0.8,0.7c0,0.4,0,2.2,0,2.5h3l0.4-0.5c0.1-0.2,0.2-0.3,0.3-0.3
			c0.1,0,0.2,0.1,0.3,0.2l0.7,0.5c0.2,0.1,0.2,0.2,0.2,0.3C168.8,5.2,168.5,5.4,168.2,5.6z M162.9,5.2h-3.1v6h3.1c0-0.2,0-1.9,0-2
			C162.9,8.7,162.9,5.9,162.9,5.2z M167.2,5.2h-3.3c0,4.1,0,4.6,0,6h3.3V5.2z"/>
		<path d="M187.3,9.4c-4.4-1.9-6.5-5-7.4-7.4c-0.7,1.1-1,1.7-1.7,2.6c-2.2,2.9-4.9,5-7.3,5.9l0-0.1c3.2-2.2,6.2-5.2,8-9
			c0.2-0.3,0.2-0.4,0.3-1.1l1.7,0.8c0.1,0.1,0.2,0.2,0.2,0.2c0,0.4-0.6,0.5-0.8,0.5c1.6,3.6,6.1,5.9,8.9,6V8
			C187.9,8.5,187.6,8.9,187.3,9.4z M178,8.8c-0.3,4.4-0.8,6.3-2.6,7.6c-1.5,1-2.8,1.2-3.4,1.3l0-0.1c4.5-1.9,4.9-4.9,4.9-8.3
			c0-0.9,0-1-0.2-1.9l1.7,0.4c0.1,0,0.3,0.1,0.3,0.2C178.6,8.3,178.5,8.3,178,8.8z M183.4,8.4c-0.1,0.1-0.5,0.4-0.6,0.4
			c0,0.9,0,2.8,0.1,5.9c0,0.4,0.1,2.3,0.1,2.6c0,0.3-0.3,0.6-0.8,0.6c-0.5,0-0.5-0.3-0.5-0.5c0-0.1,0-0.8,0-0.9
			c0.1-3.2,0.1-5.4,0.1-6.5c0-1.4,0-1.8-0.3-2.6l1.7,0.5c0.1,0,0.2,0.1,0.2,0.3C183.5,8.3,183.5,8.3,183.4,8.4z"/>
		<path d="M207.4,11.2h-8c0,0.7,0.1,4,0.1,4.5c0,0.5,0,1-0.6,1.6c-0.5,0.6-1.1,0.7-1.5,0.8c-0.2-0.6-0.4-1-2-1.7l0-0.1
			c0.3,0,1.7,0.1,1.9,0.1c0.8,0,1-0.1,1-0.9c0-1.3,0-3.1,0-4.4h-5.1c-0.7,0-1.7,0.1-2.5,0.2l-0.4-0.8c1.4,0.1,2.8,0.2,3.2,0.2h4.8
			V9.8c0-1.4,0-1.5,0-2.7h-3.8c-0.7,0-1.7,0.1-2.4,0.2l-0.5-0.8c1.4,0.1,2.8,0.2,3.2,0.2h3.5V3c-1.3,0.2-3.7,0.5-5.5,0.5
			c-0.3,0-0.8,0-1.4-0.1V3.3c0.9,0,4.1-0.3,9.7-1.8c1.7-0.5,1.9-0.6,2.3-1l1.6,1.1c0.1,0.1,0.1,0.2,0.1,0.2c0,0.2-0.2,0.3-0.3,0.3
			c0,0-0.7-0.1-0.8-0.2c-1.5,0.4-3,0.7-4.5,1v3.7h4.3l0.7-0.9c0,0,0.2-0.2,0.3-0.2c0.1,0,0.2,0.1,0.3,0.2l1,0.9
			c0.1,0.1,0.2,0.2,0.2,0.3c0,0.2-0.2,0.2-0.3,0.2h-6.5c0,2.1,0,2.4,0,3.7h5.6l0.7-0.9c0.1-0.1,0.2-0.2,0.3-0.2
			c0.1,0,0.3,0.2,0.3,0.2l1.1,1c0.1,0.1,0.2,0.2,0.2,0.3C207.6,11.1,207.5,11.2,207.4,11.2z"/>
		<path d="M218.7,4.7h-4.1v0.7c2.5,0.7,3.1,1.1,3.1,1.8c0,0.3-0.2,0.6-0.5,0.6c-0.3,0-0.5-0.2-0.6-0.4c-0.5-0.6-1.3-1.2-2-1.6
			c0,0.2,0,3.1,0,3.1c0,0.6-0.4,0.6-0.7,0.6c-0.4,0-0.4-0.2-0.4-0.4c0-0.1,0.1-0.7,0.1-0.8c0.1-1.2,0.1-2.2,0.1-2.5
			c-1.1,1.5-2.5,2.8-4.1,3.8l-0.1-0.2c1.5-1.4,2.8-3,3.9-4.7h-0.9c-0.7,0-1.7,0.1-2.5,0.2l-0.4-0.8c1.4,0.1,2.8,0.1,3.2,0.1h1
			c0-2.2-0.2-2.9-0.3-3.4l1.3,0.3c0.2,0,0.4,0.1,0.4,0.3c0,0.2-0.1,0.2-0.5,0.5c0,0.4-0.1,1,0,2.3h2.7l0.2-0.4
			c0.1-0.1,0.2-0.3,0.3-0.3c0.1,0,0.3,0.1,0.4,0.2l0.6,0.5c0.1,0.1,0.2,0.2,0.2,0.3C219,4.7,218.8,4.7,218.7,4.7z M219.1,12h-2.5
			l0.4,0.1c0.2,0.1,0.3,0.2,0.3,0.3c0,0.2-0.3,0.3-0.4,0.3c-0.4,0.9-0.9,1.6-1.3,2.1c0.2,0.1,1.7,0.8,1.7,1.5c0,0.3-0.2,0.5-0.5,0.5
			c-0.3,0-0.5-0.2-0.7-0.4c-0.4-0.5-0.9-0.8-1.1-0.9c-0.7,0.7-2.8,2.4-5.2,2.4l0-0.2c1.2-0.3,2.7-0.9,4.4-2.7
			c-0.9-0.5-1.5-0.7-1.9-0.7c-0.2,0.4-0.3,0.6-0.7,0.6c-0.2,0-0.5,0-0.5-0.3c0-0.1,0.1-0.2,0.1-0.2c0.4-0.6,0.7-1.4,1.2-2.4
			c-0.6,0-1.7,0.1-2.4,0.2l-0.4-0.8c1,0.1,2.1,0.1,3.1,0.2c0.6-1.3,0.6-1.6,0.7-2.1l1.1,0.6c0.1,0,0.2,0.1,0.2,0.3
			c0,0.2-0.1,0.2-0.6,0.4c-0.1,0.3-0.2,0.4-0.4,0.9h3.7l0.5-0.6c0.1-0.1,0.2-0.2,0.3-0.2c0.1,0,0.3,0.1,0.4,0.2l0.7,0.6
			c0.1,0.1,0.2,0.2,0.2,0.3C219.4,12,219.2,12,219.1,12z M212.2,3.5c-0.3,0-0.5-0.3-0.6-0.6c-0.2-0.5-0.5-1-0.9-1.4l0.1-0.1
			c1,0.3,1.4,0.7,1.5,0.8c0.3,0.3,0.3,0.6,0.3,0.8C212.6,3.4,212.4,3.5,212.2,3.5z M213.4,12c-0.1,0.3-0.2,0.3-0.3,0.6
			c-0.1,0.2-0.6,1.3-0.7,1.6c0.4,0,1.1,0,2.2,0.4c0.8-1,1.1-1.9,1.3-2.5H213.4z M217.1,2.4c-0.9,0.9-1.5,1.3-1.9,1.5l-0.1-0.1
			c0.3-0.3,1.3-1.7,1.4-2.6l1.2,0.8c0.1,0,0.1,0.1,0.1,0.2C217.8,2.3,217.8,2.3,217.1,2.4z M225.5,17.6c-1.6-1.2-2.6-2.2-3.5-3.4
			c-1.3,1.8-3.1,3.2-5.2,3.9l-0.1-0.1c1.8-0.9,3.8-3,4.7-4.6c-1.3-2.2-1.6-4.7-1.6-6.8c-0.7,1.1-1.5,2.5-2.3,3.2l-0.1-0.1
			c1.6-2.6,3.5-7.4,3.5-8.4c0-0.2,0-0.5-0.1-0.7l1.6,0.7c0.2,0.1,0.4,0.2,0.4,0.4c0,0.2-0.2,0.3-0.8,0.5c-0.2,0.6-0.7,1.8-1.7,3.6h4
			l0.4-0.7c0.1-0.1,0.2-0.3,0.3-0.3c0.1,0,0.2,0.1,0.3,0.2l0.9,0.7c0.1,0.1,0.2,0.2,0.2,0.3c0,0.2-0.2,0.2-0.3,0.2h-2.7l1.2,0.7
			c0.2,0.1,0.2,0.2,0.2,0.3c0,0.2-0.2,0.3-0.6,0.5c-0.7,3.1-0.9,4.1-1.8,5.8c1.2,1.5,2.9,2.4,4.7,2.8v0.1
			C226.8,16.7,226,17,225.5,17.6z M220.1,6.2c0.3,2.9,0.9,4.9,1.8,6.4c0.6-1.1,0.9-2.2,1.2-4.3c0.1-1,0.2-1.9,0.2-2.1H220.1z"/>
		<path d="M236.3,7.6h-3.1v1.1c1.1,0.3,1.6,0.5,2.1,1c0.5,0.4,0.6,0.7,0.6,0.9c0,0.5-0.3,0.6-0.6,0.6c-0.3,0-0.6-0.2-0.9-0.8
			c-0.4-0.7-0.7-1-1.2-1.5c0,3.2,0,4.6,0.1,6.6c0,0.3,0.1,1.4,0.1,1.6c0,0.5-0.4,0.9-0.8,0.9c-0.4,0-0.5-0.3-0.5-0.6
			c0-0.1,0.1-1.6,0.1-1.8c0.2-3.7,0.2-4,0.2-6.2c-1.2,2-2.7,3.8-4.5,5.2l-0.1-0.2c2-2,4.2-6.5,4.4-6.9h-0.9c-0.7,0-1.7,0.1-2.4,0.2
			L228.3,7c1.4,0.1,2.8,0.2,3.2,0.2h0.8c0-0.6,0-3.3,0-3.9c0-1.4,0-1.9-0.3-2.7l1.6,0.5c0.1,0,0.3,0.1,0.3,0.3s-0.3,0.4-0.5,0.5
			c-0.1,0.9-0.1,2.5-0.1,3.7v1.6h1.3l0.6-0.6c0.1-0.1,0.2-0.2,0.3-0.2c0.1,0,0.3,0.1,0.3,0.2l0.6,0.6c0.1,0.1,0.2,0.2,0.2,0.3
			C236.6,7.6,236.4,7.6,236.3,7.6z M230.6,5.7c-0.4,0-0.5-0.3-0.7-1.1c-0.2-0.7-0.5-1.3-0.9-1.8l0.1-0.1c1.5,1,2.2,1.4,2.2,2.2
			C231.2,5.1,231.2,5.7,230.6,5.7z M236.1,3.4C236,3.6,234,6,234,6.1L233.9,6c0.5-0.8,1.1-2.5,1.3-3.1c0.1-0.4,0.1-0.6,0.1-0.8
			l1.4,0.7c0.2,0.1,0.2,0.2,0.2,0.2C236.8,3.3,236.3,3.4,236.1,3.4z M245.7,10.6l-3.5,0.7c0,0.7,0.1,3.7,0.1,4.4
			c0,0.2,0.1,1.1,0.1,1.3c0,0.5-0.1,0.6-0.2,0.8c-0.2,0.2-0.5,0.3-0.7,0.3c-0.4,0-0.4-0.4-0.4-0.6c0-0.5,0.1-2.4,0.1-2.9
			c0-1.5,0-2.6,0-3l-4.1,0.8c-0.9,0.2-1.8,0.5-2.4,0.7l-0.6-0.7c1.3-0.2,2.7-0.4,3.1-0.5l4-0.8c0-1.1-0.1-3-0.1-4.1
			c0-4.5,0-4.9-0.3-6.2l1.8,0.5c0.2,0,0.3,0.1,0.3,0.3c0,0.2-0.1,0.3-0.6,0.6c-0.1,0.6-0.1,1.3-0.1,3.2c0,0.2,0,2.9,0.1,5.5l1.7-0.3
			l0.4-0.9c0.1-0.3,0.2-0.3,0.3-0.3c0.1,0,0.3,0.1,0.3,0.1l0.8,0.6c0.2,0.1,0.2,0.2,0.2,0.3C245.9,10.6,245.8,10.6,245.7,10.6z
			 M238.9,9.6c-0.4,0-0.6-0.3-0.6-0.6c-0.3-1-0.8-1.7-1-2l0.1-0.1c0.6,0.2,2.2,0.9,2.2,1.9C239.5,9.4,239.2,9.6,238.9,9.6z
			 M239.1,5.1c-0.4,0-0.5-0.4-0.6-0.6c-0.3-1-0.8-1.7-1-2l0.1,0c0.6,0.2,2.2,0.9,2.2,1.9C239.7,4.9,239.3,5.1,239.1,5.1z"/>
		<path d="M263.9,3h-7.5l0.6,0.6c0.1,0.1,0.1,0.1,0.1,0.3c0,0.2-0.1,0.2-0.8,0.2c-0.5,0.7-0.9,1.4-1.3,2l1.3,0.6
			c0.1,0,0.2,0.1,0.2,0.2c0,0.1-0.1,0.2-0.2,0.3c-0.1,0.1-0.3,0.3-0.5,0.5c0,0.9-0.1,1.2-0.1,2.8c0,1.7,0,3.8,0.1,4.7
			c0,0.3,0.1,1.6,0.1,1.9c0,0.8-0.5,1-0.8,1c-0.5,0-0.5-0.5-0.5-0.9c0-1.9,0.2-5,0.2-6.9c0-1-0.1-2.4-0.1-3.8
			c-1.7,2.4-4.3,5.8-7.9,7.8l-0.1-0.2c1.5-1.3,5.9-5.8,8.2-10.1c0.1-0.2,0.2-0.3,0.5-1.1h-5.2c-0.4,0-1.5,0-2.5,0.2l-0.4-0.8
			c1,0.1,2.2,0.2,3.2,0.2h11l0.7-0.9c0.1-0.2,0.2-0.2,0.3-0.2c0.1,0,0.2,0.1,0.4,0.2l1.2,0.9c0.1,0.1,0.2,0.2,0.2,0.3
			C264.2,3,264,3,263.9,3z M263.2,12.8c-0.6,0-0.8-0.3-1.5-1.6c-0.8-1.4-2.9-3.4-3.9-4l0.1-0.2c1.6,0.6,3.2,1.3,4.7,2.9
			c0.2,0.2,1.3,1.3,1.3,2.2C263.8,12.6,263.5,12.8,263.2,12.8z"/>
		<path d="M283.1,11.4h-5l0.5,0.4c0,0,0.1,0.1,0.1,0.2c0,0.3-0.4,0.2-0.8,0.2c-0.2,0.4-0.7,1.2-1.8,2.2c1.4,0.4,3.5,1.2,3.8,1.3
			c0.4,0.2,1.7,0.7,1.7,1.5c0,0.4-0.3,0.6-0.6,0.6c-0.3,0-0.6-0.2-0.8-0.3c-1-0.8-2.6-1.8-4.8-2.5c-1.2,0.9-4.1,3-8.9,3v-0.2
			c2.1-0.3,5.4-1.2,7.8-3.2c-0.8-0.2-1.8-0.5-3.2-0.7l-0.4,0.8c-0.1,0.2-0.2,0.3-0.5,0.3c-0.3,0-0.8-0.1-0.8-0.4
			c0-0.1,0-0.1,0.1-0.2c0.1-0.1,0.5-0.6,0.5-0.7c0.6-0.8,1.1-1.6,1.7-2.4h-2.8c-0.4,0-1.5,0-2.5,0.2l-0.5-0.8c1,0.1,2.2,0.2,3.2,0.2
			h2.8c1-1.5,1.3-2.2,1.4-2.9h-4.4c0,0.3,0,0.4,0,0.5c-0.1,0.4-0.6,0.6-0.9,0.6c-0.2,0-0.3-0.1-0.3-0.4c0-0.1,0-0.2,0-0.3
			c0-0.7,0.1-1.9,0.1-2.7c0-0.7,0-1.1-0.1-2l1.3,0.7h2.7v-2h-2.5c-0.4,0-1.5,0-2.5,0.2l-0.4-0.8c1,0.1,2.2,0.2,3.2,0.2h10.8l0.6-0.8
			c0.1-0.1,0.2-0.2,0.3-0.2c0,0,0.2,0,0.3,0.2l0.9,0.8c0.1,0.1,0.2,0.2,0.2,0.3c0,0.2-0.2,0.2-0.3,0.2h-5.9v2h2.8l0.4-0.5
			c0.1-0.1,0.2-0.2,0.3-0.2c0.1,0,0.2,0.1,0.3,0.2l0.7,0.6c0,0,0.1,0.1,0.1,0.2c0,0.2-0.3,0.3-0.7,0.4c0,0.3,0,0.6,0.1,1.6
			c0,0.2,0.1,1,0.1,1.2c0,0.5-0.6,0.7-0.8,0.7c-0.3,0-0.4-0.3-0.3-0.7h-6.1l1.2,0.7c0.1,0.1,0.2,0.2,0.2,0.3c0,0.3-0.4,0.3-0.8,0.2
			c-0.3,0.5-0.5,0.9-1.1,1.7h7.7l0.7-0.8c0.2-0.2,0.2-0.2,0.3-0.2c0.1,0,0.3,0.2,0.3,0.2l0.9,0.8c0.1,0.1,0.2,0.2,0.2,0.3
			C283.4,11.4,283.2,11.4,283.1,11.4z M272,4.9h-2.8v2.6h2.8V4.9z M273,11.4l-0.5,0.7c-0.6,0.8-0.9,1.4-1.1,1.7
			c1.5,0.1,2.6,0.2,3.6,0.4c1.3-1.3,1.9-2.4,2.1-2.8H273z M275.9,2.5h-2.8v2h2.8V2.5z M275.9,4.9h-2.8v2.6h2.8V4.9z M279.9,4.9h-3
			v2.6h3V4.9z"/>
		<path d="M294.1,16.1c5.7-2,5.9-6,5.9-7c0-3.3-3.2-5.1-5.9-5.1c-0.4,0-0.5,0-0.7,0.1c0.9,0.8,0.9,1.3,0.9,1.4
			c0,0.2-0.1,0.3-0.5,1.1c-2.3,4.9-2.5,5.3-3.6,7c-0.1,0.1-0.7,1-1.1,1.2c-0.1,0.1-0.2,0.1-0.4,0.1c-0.4,0-0.6-0.2-1.1-1
			c-0.1-0.2-0.2-0.3-0.5-0.5c-0.7-0.6-1-1.3-1-2.6c0-3.8,3.2-7.4,8.1-7.4c3.5,0,6.9,2,6.9,5.9c0,3.5-2.8,6.6-7.1,7L294.1,16.1z
			 M292,8.7c0.6-1.1,1.1-2.5,1.1-3.3c0-0.6-0.4-1-0.5-1.2c-2.1,0.2-5.3,3-5.3,6.7c0,1.4,0.9,2.7,1.7,2.7c0.1,0,0.2,0,0.4-0.1
			c0.4-0.4,0.8-1,1.1-1.7L292,8.7z"/>
		<path d="M319.9,16.1c-4.4-2.5-5.9-5.5-6.5-7.1h-0.1v3.4c0,0.2,0.2,4.5,0.2,4.7c0,0.2,0,0.4-0.2,0.6c-0.2,0.2-0.6,0.3-0.7,0.3
			c-0.4,0-0.4-0.3-0.4-0.5c0-0.1,0-0.2,0-0.2c0.1-1.8,0.1-3.4,0.1-6.9c-1.4,2.1-4.8,5.2-7.8,6.2v-0.1c3.2-2.1,5.8-4.9,7.4-7.4h-4.6
			c-0.7,0-1.7,0.1-2.5,0.2l-0.5-0.8c1.4,0.1,2.8,0.1,3.2,0.1h4.8c0-2.2,0-3,0-3.8H309c-0.7,0-1.7,0.1-2.5,0.2l-0.4-0.8
			c1.4,0.1,2.8,0.2,3.2,0.2h3.1c-0.1-2.2-0.1-3.1-0.3-3.7l1.6,0.4c0.2,0.1,0.2,0.2,0.2,0.2c0,0.2-0.3,0.4-0.6,0.6v1.3v1.2h3.5
			l0.6-0.9c0.1-0.1,0.2-0.2,0.3-0.2c0.1,0,0.2,0.1,0.3,0.2l1,1c0.1,0.1,0.2,0.2,0.2,0.3c0,0.2-0.2,0.2-0.3,0.2h-5.6v3.8h5.4l0.6-1
			c0.1-0.2,0.2-0.2,0.3-0.2c0.1,0,0.2,0,0.4,0.2l1.1,1c0.1,0.1,0.2,0.2,0.2,0.3c0,0.2-0.2,0.2-0.3,0.2h-7.4c1.4,2.4,4,4.9,8,5.8v0.1
			C320.9,15,320.3,15.4,319.9,16.1z"/>
		<path d="M330.7,2.9c-1.2,1.8-2,3.1-3.3,4.4c-1.6,1.6-2.6,2.1-4.4,3l-0.1-0.1c0.9-0.7,3.1-2.4,4.6-4.3c1.1-1.5,1.9-2.7,2.2-3.7
			h-1.6c-0.4,0-1.5,0-2.5,0.2l-0.5-0.8c1,0.1,2.2,0.2,3.2,0.2h1.4l0.5-0.5c0.1-0.1,0.2-0.1,0.2-0.1c0.1,0,0.2,0.1,0.2,0.1l0.8,0.9
			c0.1,0.1,0.1,0.2,0.1,0.2C331.6,2.6,331.4,2.7,330.7,2.9z M339,16.9c-0.7,0.4-1.1,0.4-2.9,0.4c-2.6,0-3.1,0-3.4-0.7
			c-0.1-0.1-0.1-0.3-0.1-0.9c0-0.6,0-3,0-3.5h-2.2c-0.3,3.1-1.6,4.7-6.1,5.7l-0.1-0.2c3.9-1.5,4.9-2.8,5.2-5.5h-1.9
			c-0.7,0-1.7,0.1-2.4,0.2l-0.5-0.8c1.4,0.1,2.8,0.2,3.2,0.2h1.7c0-0.1,0-0.2,0-0.3V9c-0.6,0-1.3,0.1-1.9,0.2L327,8.4
			c1.4,0.1,2.8,0.1,3.2,0.1h3.4l0.5-0.6c0.1-0.1,0.2-0.2,0.3-0.2s0.3,0.1,0.4,0.2l0.8,0.6c0.1,0.1,0.2,0.2,0.2,0.3
			c0,0.2-0.2,0.2-0.3,0.2h-1.9v2.7h2.5l0.7-0.9c0.1-0.1,0.2-0.2,0.3-0.2c0.1,0,0.3,0.1,0.3,0.2l1,0.9c0.1,0.1,0.2,0.2,0.2,0.3
			c0,0.2-0.2,0.2-0.3,0.2h-4.8c0,0.6,0,3.2,0,3.5c0.1,0.6,0.5,0.6,2.3,0.6c1.9,0,2.2,0,2.7-3.2l0.2,0c0.1,0.6,0.2,2.2,0.7,2.5
			c0.2,0.2,0.3,0.2,0.3,0.3C339.7,16.2,339.5,16.6,339,16.9z M327,5.8c-0.2,0-0.3-0.1-0.7-0.7c-0.6-0.8-0.9-1.1-1.3-1.4l0.1-0.1
			c1.1,0.1,2.5,0.7,2.5,1.6C327.5,5.4,327.2,5.8,327,5.8z M332.6,9h-2.2v2.5v0.3h2.2V9z M339.2,9.3c-1.3-0.5-5.6-3.1-7.2-7.7
			l0.2-0.1c0.7,1.2,1.1,1.6,1.3,2c1.3-1.6,1.6-2,1.7-2.8l1.2,1c0.2,0.1,0.2,0.2,0.2,0.3c0,0.2-0.2,0.2-0.8,0.2
			c-1.1,0.8-1.5,1.1-2.3,1.6c0.1,0.2,0.6,0.8,1.3,1.5c0.8-0.6,1.3-1.3,1.6-1.6c0.2-0.3,0.3-0.5,0.5-0.9l1.3,1
			c0.1,0.1,0.2,0.1,0.2,0.3c0,0.2-0.2,0.2-0.3,0.2c-0.2,0-0.3,0-0.6-0.1c-1.5,0.7-2,0.9-2.5,1.2c1.8,1.7,4.4,2.5,6,2.5v0.2
			C340.7,8.2,339.7,8.4,339.2,9.3z"/>
		<path d="M358.2,17.4c-4.8-2.3-6.6-5.7-7.3-8.2c-0.7,0.7-1.5,1.4-2.5,2.2v4.7c2-0.5,3-0.8,4.9-1.4l0.1,0.2
			c-1.1,0.7-3.1,1.4-4.1,1.7c-0.9,0.3-2.5,0.9-3.8,1.3c0,0.3-0.1,0.5-0.3,0.5c-0.2,0-0.3-0.2-0.3-0.2l-1-1.3c0.8,0,1.2-0.1,3.5-0.6
			v-4.2c-1.5,1-3.2,1.9-4.9,2.4l-0.1-0.2c2.2-1.1,5.7-3.6,6.8-5.2h-4c-0.4,0-1.5,0.1-2.4,0.2l-0.5-0.8c1,0.1,2.2,0.1,3.2,0.1h4.6
			V6.2h-2.8c-0.4,0-1.5,0-2.5,0.2l-0.4-0.8c1,0.1,2.2,0.2,3.2,0.2h2.5c0-0.3,0-1.8,0-2.2h-3.9c-0.4,0-1.5,0.1-2.5,0.2L343.3,3
			c1,0.1,2.2,0.1,3.2,0.1h3.6c0-0.5,0-0.9,0-1c-0.1-1-0.2-1.2-0.4-1.6l1.8,0.5c0.1,0,0.3,0.1,0.3,0.2c0,0.2-0.6,0.5-0.7,0.6
			c0,0.5,0,0.6,0,1.3h5l0.5-0.7c0.1-0.1,0.2-0.3,0.3-0.3c0.1,0,0.3,0.1,0.4,0.2l0.9,0.7c0.1,0.1,0.2,0.2,0.2,0.3
			c0,0.2-0.2,0.2-0.3,0.2h-6.9v2.2h3.6l0.5-0.6c0.1-0.1,0.2-0.3,0.3-0.3c0.1,0,0.2,0.1,0.4,0.2l0.9,0.6c0.1,0.1,0.2,0.2,0.2,0.3
			c0,0.2-0.2,0.2-0.3,0.2h-5.5c0,0.2,0,2.4,0,2.4h5.8l0.6-0.8c0.1-0.1,0.2-0.3,0.3-0.3c0.1,0,0.3,0.2,0.3,0.2l1,0.9
			c0.1,0.1,0.2,0.2,0.2,0.3c0,0.2-0.2,0.2-0.3,0.2h-7.9c0.2,0.5,0.6,1.7,1.8,3.1c0.5-0.3,2-1.6,2.2-2.5l1.3,1c0.1,0,0.2,0.2,0.2,0.2
			c0,0.2-0.3,0.2-0.5,0.2c-0.2,0-0.4,0-0.5,0c-0.8,0.6-1.5,0.9-2.6,1.3c1.6,1.7,3.7,3.2,6.9,3.8v0.1
			C358.7,16.8,358.6,16.9,358.2,17.4z"/>
		<path d="M365.9,11c0,0.9,0.1,4.9,0.1,5.7c0,0.1,0,0.2,0,0.3c0,0.4-0.1,0.5-0.2,0.6c-0.2,0.2-0.5,0.3-0.7,0.3
			c-0.3,0-0.4-0.2-0.4-0.4c0-0.2,0.1-0.8,0.1-0.9c0-0.8,0.1-4.3,0.1-5.1c-1.3,0.7-2.1,0.9-2.5,1.1c0,0.3-0.1,0.6-0.4,0.6
			c-0.1,0-0.2-0.1-0.3-0.3l-0.8-1.4c0.7,0,1.3,0,3.9-0.8c0-0.2,0-1.2,0-1.4c0-0.1,0-0.2,0-0.4c0-0.5,0-2.8-0.1-3.3h-2
			c-0.1,0.3-0.6,2.5-1.5,4.1l-0.2-0.1c0.8-2.9,0.9-6.2,0.9-6.6c0-0.5-0.1-0.7-0.2-1l1.6,0.4c0.2,0.1,0.3,0.1,0.3,0.2
			c0,0.2-0.3,0.4-0.6,0.5c-0.1,1.1-0.2,1.6-0.3,2.1h1.9c0-3.1,0-3.5-0.4-4.4l1.8,0.6c0.1,0,0.3,0.1,0.3,0.2c0,0.2-0.1,0.2-0.6,0.6
			c0,0,0,2.7,0,2.9h0.7l0.5-0.6c0.1-0.1,0.2-0.2,0.3-0.2c0.1,0,0.3,0.1,0.3,0.2l0.6,0.6c0,0.1,0.2,0.2,0.2,0.3
			c0,0.2-0.2,0.2-0.3,0.2h-2.3c0,0.5,0,2.8,0,3.2c0,0.3,0,0.3,0,1.6c0.4-0.1,2.2-0.8,2.6-0.9l0.1,0.2C368.1,9.9,367.4,10.3,365.9,11
			z M377.3,5.8c-0.2,5.1-0.3,6.5-1.1,9.2c-0.4,1.3-0.9,2.5-3.2,2.8c-0.1-0.9-0.8-1.3-1.7-1.9l0.1-0.2c1.3,0.4,2.1,0.4,2.2,0.4
			c0.6,0,1,0,1.6-1.7c1-3.2,1-7.6,1-9.1h-1.3c-0.2,1.3-0.3,2.2-0.7,3.5c-1.8,5.9-5.5,7.9-7.2,8.5l0-0.2c4.5-2.9,5.9-6.6,6.8-11.8
			h-1.4c-0.8,4.2-3,7.5-5.5,8.8l-0.1-0.1c2.1-1.9,3.9-5.3,4.5-8.6h-1.3c-0.5,1.2-1.2,2.6-2.3,3.7l-0.1-0.1c1.4-2.3,2.5-6.6,2.5-7.5
			c0-0.3,0-0.4-0.1-0.7l1.7,0.7c0,0,0.3,0.1,0.3,0.3c0,0.2,0,0.2-0.8,0.4c-0.2,0.6-0.4,1.4-0.9,2.8h5.9l0.4-0.4
			c0.1-0.2,0.2-0.2,0.2-0.2s0.2,0.1,0.3,0.1l0.8,0.6c0.2,0.1,0.2,0.2,0.2,0.3C377.9,5.5,377.5,5.7,377.3,5.8z"/>
		<path d="M384.1,5.5c0.1,0.1,0.2,0.1,0.2,0.3c0,0.1-0.3,0.4-0.5,0.6c0,0.8,0,1.4,0,2.5c0,1.3,0.1,6.9,0.1,8.1c0,0.4,0,0.5-0.2,0.7
			c-0.2,0.2-0.6,0.3-0.7,0.3c-0.4,0-0.5-0.3-0.5-0.5c0,0,0-0.4,0.1-0.6c0.2-2.1,0.2-3.4,0.2-10.3c-0.9,1.3-1.9,2.5-2.9,3.1l-0.1-0.1
			c1.6-2,3.4-5.5,4.3-7.9c0.2-0.5,0.2-0.8,0.2-1.2l1.6,1c0.1,0.1,0.2,0.2,0.2,0.3c0,0.2-0.2,0.2-0.7,0.3c-0.3,0.6-0.7,1.6-1.7,3.3
			L384.1,5.5z M387.7,5.9c-0.6,1.1-1.2,2.3-2.3,3.4l-0.1-0.1c0.9-1.9,1.7-3.8,2.3-5.9c0.1-0.3,0.1-0.4,0.2-1l1.4,0.7
			c0.1,0.1,0.3,0.2,0.3,0.3c0,0.2-0.1,0.2-0.8,0.4c-0.2,0.5-0.3,0.8-0.8,1.7h3c0-1.3-0.1-3.7-0.3-4.7l1.7,0.5c0.1,0,0.2,0.1,0.2,0.3
			c0,0.1-0.1,0.2-0.2,0.3c-0.1,0.1-0.3,0.3-0.5,0.4v3.3h2l0.6-0.9c0.1-0.1,0.2-0.2,0.3-0.2c0.1,0,0.3,0.1,0.4,0.2l1,0.9
			c0.1,0.1,0.2,0.2,0.2,0.3c0,0.2-0.2,0.2-0.3,0.2h-4.2c0,2.9,0,3.3,0.1,4.9h2.9l0.7-0.9c0-0.1,0.2-0.2,0.3-0.2s0.3,0.1,0.4,0.2
			l1.1,0.9c0.1,0.1,0.2,0.2,0.2,0.3c0,0.2-0.2,0.2-0.3,0.2h-5.3c0,1,0.2,5.2,0.2,6c0,0.7-0.7,0.8-0.9,0.8c-0.5,0-0.5-0.3-0.5-0.8
			c0-0.2,0-1.1,0-1.3c0-0.7,0.1-4.1,0.1-4.7H388c-0.7,0-1.7,0.1-2.5,0.2l-0.5-0.8c1.4,0.1,2.8,0.1,3.2,0.1h2.6
			c0.1-2.3,0.1-2.5,0.1-4.9H387.7z"/>
		<path d="M404,13.8c1.8,1.2,2,1.4,2.5,1.4c0.3,0,0.6-0.2,0.8-0.6c1.2-2.3,1.3-4.8,1.3-5.9c0-0.9,0-2.1-1.3-2.1
			c-0.5,0-0.9,0.1-1.7,0.3c-1.6,3.9-3.1,7.7-4.4,9.5c-0.1,0.1-0.2,0.2-0.4,0.2c-0.3,0-0.4-0.6-0.4-0.8c0-0.3,0-0.3,0.7-1.3
			c1.6-2.5,2.5-4.6,3.6-7.3c-1.4,0.5-2.1,0.8-2.8,1.2c-0.3,0.2-0.5,0.3-0.7,0.3c-0.4,0-1.5-0.6-1.5-1.8c0-0.2,0-0.3,0.1-0.5
			c0.4,0.8,0.7,1,1.2,1c0.2,0,0.3,0,0.9-0.2c0.9-0.3,2.1-0.6,3.1-0.9c0.3-0.8,1-2.5,1-3.2c0-0.9-1.3-1.2-1.5-1.3
			c0.2-0.1,0.3-0.2,0.7-0.2c0.7,0,2.1,0.5,2.1,1.2c0,0.2-0.1,0.5-0.2,0.6c-0.5,0.9-0.8,1.5-1.2,2.6c0.3-0.1,0.8-0.2,1.4-0.2
			c2.2,0,2.2,2,2.2,3c0,1.8-0.6,6.2-2.6,7.7c-0.3,0.2-0.8,0.4-1,0.4c-0.3,0-0.3-0.1-0.5-0.8C405.4,15.7,404.5,14.5,404,13.8
			L404,13.8z M412,10.1c1,0,1.8-0.3,2-0.3c0.2-0.1,0.5-0.3,0.5-0.6c0-0.3-1.1-2.1-3.7-3.8c1.7,0,5.2,2.5,5.2,4.9
			c0,0.3,0,0.8-0.4,0.8c-0.1,0-0.7-0.4-0.8-0.4c-0.4-0.2-2.4-0.5-2.7-0.5V10.1z M411.9,3.5c0.9,0,3.1,0.6,3.1,1.7
			c0,0.2-0.1,0.5-0.4,0.5c-0.2,0-0.8-0.6-0.9-0.7c-0.9-0.7-1.8-1.1-2.5-1.4C411.5,3.5,411.6,3.5,411.9,3.5z M413.9,2
			c0.9,0,2.9,0.3,2.9,1.6c0,0.2-0.1,0.4-0.3,0.4s-0.9-0.7-1-0.8c-0.3-0.2-1.1-0.7-2.6-1.2C413.2,2.1,413.5,2,413.9,2z"/>
		<path d="M431.1,3.1c-1.6,2-4.3,4.4-5.9,5.4c-2,1.3-5.6,2.8-6.9,2.9l-0.1-0.2c1.9-0.7,5.1-2.4,6.4-3.4c1.5-1.1,3.7-3.1,5.4-5.4
			h-4.7c-0.6,0.7-0.8,1-1.6,1.8c0.1,0,0.2,0.1,0.8,0.3c0.3,0.1,1.7,0.6,1.7,1.6c0,0.5-0.3,0.7-0.6,0.7c-0.4,0-0.6-0.3-0.8-0.8
			c-0.4-0.9-0.5-1-1.1-1.6c-1.7,1.8-3.6,2.8-4.5,3.2L419,7.5c0.7-0.5,2.9-2.3,4.6-4.6c1.3-1.7,1.4-2.2,1.5-2.9l1.4,0.8
			c0.2,0.1,0.2,0.1,0.2,0.3c0,0.3-0.2,0.3-0.7,0.4c-0.2,0.3-0.2,0.3-0.4,0.5h4.4l0.8-0.6c0.2-0.1,0.2-0.1,0.2-0.1
			c0.1,0,0.1,0,0.2,0.1l1.1,0.7c0.1,0.1,0.2,0.2,0.2,0.3C432.6,2.8,432.5,2.8,431.1,3.1z M433.7,10.2c-2,2.3-4.2,4.4-6.3,5.7
			c-1.3,0.8-4.2,2.3-8.1,2.5l0-0.2c2.2-0.5,5.5-1.3,8.9-4.2c2.5-2.1,3.7-3.8,4.1-4.6H428c-1.1,1-1.8,1.6-2.5,2.1
			c0.6,0.2,2.6,1,2.6,2.2c0,0.5-0.4,0.7-0.7,0.7c-0.4,0-0.4-0.2-0.6-0.7c-0.1-0.3-0.5-1.1-1.5-2.1c-0.5,0.3-1,0.6-1.5,0.9
			c-1.5,0.9-3,1.5-4.4,1.8l0-0.2c0.5-0.2,1.6-0.7,2.7-1.3c2.4-1.4,4.6-3.6,5.3-4.4c1.1-1.2,1.2-1.4,1.4-2.2l1.4,0.8
			c0,0,0.2,0.1,0.2,0.3c0,0.3-0.2,0.3-0.8,0.4c-0.2,0.3-0.5,0.7-1.2,1.3h4.1l0.6-0.5c0.2-0.1,0.2-0.1,0.2-0.1c0.1,0,0.1,0,0.3,0.2
			l1.1,0.8c0.2,0.1,0.2,0.2,0.2,0.3C435,10,434.7,10,433.7,10.2z"/>
		<path d="M446.7,4.7h-4.1v0.7c2.5,0.7,3.1,1.1,3.1,1.8c0,0.3-0.2,0.6-0.5,0.6c-0.3,0-0.5-0.2-0.6-0.4c-0.5-0.6-1.3-1.2-2-1.6
			c0,0.2,0,3.1,0,3.1c0,0.6-0.4,0.6-0.7,0.6c-0.4,0-0.4-0.2-0.4-0.4c0-0.1,0.1-0.7,0.1-0.8c0.1-1.2,0.1-2.2,0.1-2.5
			c-1.1,1.5-2.5,2.8-4.1,3.8l-0.1-0.2c1.5-1.4,2.8-3,3.9-4.7h-0.9c-0.7,0-1.7,0.1-2.5,0.2l-0.4-0.8c1.4,0.1,2.8,0.1,3.2,0.1h1
			c0-2.2-0.2-2.9-0.3-3.4l1.3,0.3c0.2,0,0.4,0.1,0.4,0.3c0,0.2-0.1,0.2-0.5,0.5c0,0.4-0.1,1,0,2.3h2.7l0.2-0.4
			c0.1-0.1,0.2-0.3,0.3-0.3c0.1,0,0.3,0.1,0.4,0.2l0.6,0.5c0.1,0.1,0.2,0.2,0.2,0.3C447,4.7,446.8,4.7,446.7,4.7z M447.1,12h-2.5
			l0.4,0.1c0.2,0.1,0.3,0.2,0.3,0.3c0,0.2-0.3,0.3-0.4,0.3c-0.4,0.9-0.9,1.6-1.3,2.1c0.2,0.1,1.7,0.8,1.7,1.5c0,0.3-0.2,0.5-0.5,0.5
			c-0.3,0-0.5-0.2-0.7-0.4c-0.4-0.5-0.9-0.8-1.1-0.9c-0.7,0.7-2.8,2.4-5.2,2.4l0-0.2c1.2-0.3,2.7-0.9,4.4-2.7
			c-0.9-0.5-1.5-0.7-1.9-0.7c-0.2,0.4-0.3,0.6-0.7,0.6c-0.2,0-0.5,0-0.5-0.3c0-0.1,0.1-0.2,0.1-0.2c0.4-0.6,0.7-1.4,1.2-2.4
			c-0.6,0-1.7,0.1-2.4,0.2l-0.4-0.8c1,0.1,2.1,0.1,3.1,0.2c0.6-1.3,0.6-1.6,0.7-2.1l1.1,0.6c0.1,0,0.2,0.1,0.2,0.3
			c0,0.2-0.1,0.2-0.6,0.4c-0.1,0.3-0.2,0.4-0.4,0.9h3.7l0.5-0.6c0.1-0.1,0.2-0.2,0.3-0.2c0.1,0,0.3,0.1,0.4,0.2l0.7,0.6
			c0.1,0.1,0.2,0.2,0.2,0.3C447.4,12,447.2,12,447.1,12z M440.2,3.5c-0.3,0-0.5-0.3-0.6-0.6c-0.2-0.5-0.5-1-0.9-1.4l0.1-0.1
			c1,0.3,1.4,0.7,1.5,0.8c0.3,0.3,0.3,0.6,0.3,0.8C440.6,3.4,440.4,3.5,440.2,3.5z M441.4,12c-0.1,0.3-0.2,0.3-0.3,0.6
			c-0.1,0.2-0.6,1.3-0.7,1.6c0.4,0,1.1,0,2.2,0.4c0.8-1,1.1-1.9,1.3-2.5H441.4z M445.1,2.4c-0.9,0.9-1.5,1.3-1.9,1.5l-0.1-0.1
			c0.3-0.3,1.3-1.7,1.4-2.6l1.2,0.8c0.1,0,0.1,0.1,0.1,0.2C445.8,2.3,445.8,2.3,445.1,2.4z M453.5,17.6c-1.6-1.2-2.6-2.2-3.5-3.4
			c-1.3,1.8-3.1,3.2-5.2,3.9l-0.1-0.1c1.8-0.9,3.8-3,4.7-4.6c-1.3-2.2-1.6-4.7-1.6-6.8c-0.7,1.1-1.5,2.5-2.3,3.2l-0.1-0.1
			c1.6-2.6,3.5-7.4,3.5-8.4c0-0.2,0-0.5-0.1-0.7l1.6,0.7c0.2,0.1,0.4,0.2,0.4,0.4c0,0.2-0.2,0.3-0.8,0.5c-0.2,0.6-0.7,1.8-1.7,3.6h4
			l0.4-0.7c0.1-0.1,0.2-0.3,0.3-0.3c0.1,0,0.2,0.1,0.3,0.2l0.9,0.7c0.1,0.1,0.2,0.2,0.2,0.3c0,0.2-0.2,0.2-0.3,0.2h-2.7l1.2,0.7
			c0.2,0.1,0.2,0.2,0.2,0.3c0,0.2-0.2,0.3-0.6,0.5c-0.7,3.1-0.9,4.1-1.8,5.8c1.2,1.5,2.9,2.4,4.7,2.8v0.1
			C454.8,16.7,454,17,453.5,17.6z M448.1,6.2c0.3,2.9,0.9,4.9,1.8,6.4c0.6-1.1,0.9-2.2,1.2-4.3c0.1-1,0.2-1.9,0.2-2.1H448.1z"/>
		<path d="M459.2,11.3c0,1.3,0.7,2.1,1.4,2.6c0.8,0.6,2.1,0.8,3.4,0.8c0.7,0,3.1-0.1,5.1-0.8c0.3-0.1,0.5-0.2,0.6-0.2
			c0.4,0,1.2,0.2,1.2,0.7c0,0.3-0.2,0.4-0.3,0.5c-1.1,0.5-5.2,0.7-5.8,0.7c-1,0-6.1,0-6.1-3.5c0-0.6,0.2-1.4,0.7-1.8
			C459.3,10.6,459.2,10.9,459.2,11.3z M462.6,6.7c0.4-0.2,1.9-1.4,2.2-1.6c0.1,0,0.2-0.2,0.2-0.2c0-0.1-0.1-0.2-0.4-0.2
			c-2-0.1-3-0.5-3.6-0.9c-0.8-0.5-0.8-1-0.9-1.2c1,0.7,2.5,1.2,5,1.2c0.2,0,1.2,0,1.3,0c0.8,0,2.3,0.3,2.3,1c0,0.5-0.4,0.5-0.9,0.5
			c-0.8,0-1.3,0-2.3,0.4c-0.5,0.2-2.4,1.1-2.8,1.3V6.7z M471.7,4.2c0,0.2-0.1,0.6-0.3,0.6c-0.2,0-0.3-0.2-0.5-0.4
			c-0.7-1-1.6-1.7-2.5-2.2C471.3,2.4,471.7,3.8,471.7,4.2z M472.3,1.7c1.1,0.5,1.5,0.8,1.5,1.5c0,0.2,0,0.6-0.3,0.6
			c-0.2,0-0.3-0.2-0.4-0.3c-0.7-0.9-1.1-1.4-2.6-2.1C471.1,1.4,471.7,1.5,472.3,1.7z"/>
		<path d="M485.7,3.2c0.6,0.2,1,0.2,1,0.2c0.2,0,0.3,0,0.9-0.2c0.1,0,0.2-0.1,0.3-0.1c0.4,0,0.6,0.3,0.6,0.6c0,0.2-0.1,0.3-0.4,0.6
			c-0.8,0.6-1.9,1.2-3.2,1.7c1.5,1.3,2.9,2.5,4.2,4.6c0.1,0.2,0.3,0.5,0.3,0.8c0,0.4-0.3,1.2-0.7,1.2c-0.2,0-0.8-0.4-0.9-0.4
			c-1.8-0.8-3.1-1-4.2-1c-1.9,0-4,0.6-4,2.3c0,1.9,1.8,2.6,5.1,2.6c0.2,0,1.1,0,1.3,0c0.3,0,0.9,0.2,0.9,0.7c0,0.5-1,0.6-1.5,0.6
			c-0.4,0-3.6-0.2-4.8-1c-1-0.6-1.6-1.5-1.6-2.5c0-1.5,1.1-3.3,4.9-3.3c1.1,0,2.1,0.1,3,0.3c0.2,0,0.9,0.2,1.1,0.2
			c0.1,0,0.2,0,0.2-0.2c0-0.3-1.8-2.9-3.8-4.6c-0.8,0.3-1.5,0.5-2.8,0.8c-0.5,0.1-1.2,0.2-1.7,0.2c-0.2,0-0.8,0-1.4-0.5
			c-0.7-0.5-0.7-0.7-0.8-1c0.6,0.5,1.6,0.6,2.1,0.6c1.2,0,2.6-0.4,3.7-0.8c-2.1-1.7-2.4-1.8-2.6-2.1c-0.3-0.2-0.3-0.5-0.3-0.6
			c0-0.4,0.3-1.2,1.2-1.2c0.4,0,0.9,0.2,1.2,0.4c-0.6,0-0.6,0.1-0.7,0.1c-0.1,0.1-0.3,0.2-0.3,0.5c0,0.5,0.2,0.6,2.3,2.5
			c0.7-0.2,2.1-0.8,2.1-1.3C486.3,3.6,485.9,3.4,485.7,3.2L485.7,3.2z M491.6,4.1c0,0.2,0,0.5-0.3,0.5c-0.2,0-0.2,0-0.5-0.4
			c-0.8-1.1-1.8-1.8-2.3-2.2C490.7,2.3,491.6,3.1,491.6,4.1z M492.2,1c0.5,0.2,1,0.5,1,1.2c0,0.5-0.3,0.5-0.3,0.5
			c-0.2,0-0.3-0.2-0.5-0.4c-0.9-0.9-1.9-1.6-2.4-1.9C490.6,0.5,491.3,0.6,492.2,1z"/>
		<path d="M502.5,8.3c-0.3,0.5-2.3,4.7-2.4,4.9c-0.1,0.2-0.1,0.5-0.1,0.7c0,0.1,0.1,0.7,0.1,0.9c0,0.2-0.1,0.4-0.5,0.4
			c-0.3,0-2.4-0.2-3.3-4.1c-0.2-0.7-0.2-1-0.4-4c-0.1-1.5-0.2-2-0.9-3.2c1,0,2.1,1.1,2.1,2c0,0.2,0,0.3-0.1,0.8
			c-0.1,0.6-0.1,1.2-0.1,1.6c0,1.1,0.2,3.7,1.4,4.7c0.1,0,0.2,0.2,0.4,0.2c0.2,0,0.4-0.2,0.5-0.3c1.4-2.2,1.6-2.4,2.9-4.4
			c0,0,0.1-0.2,0.2-0.3L502.5,8.3z M506.8,10.6c0.3,0,1.5-0.2,1.7-0.3c0.2,0,0.5-0.1,0.5-0.5c0-0.4-0.8-3.5-3.5-4.5
			c0.1,0,0.3-0.1,0.6-0.1c0.3,0,1.3,0.2,2.2,1.2c1.4,1.6,2.1,3.6,2.1,4.5c0,0.6-0.2,1.1-0.5,1.1c-0.1,0-0.2,0-0.7-0.4
			c-0.6-0.6-1.1-0.6-2.3-0.9V10.6z"/>
		<path d="M521.9,2.8c0-0.8-0.2-0.9-1.4-1.5c0.2-0.1,0.4-0.3,0.9-0.3c1,0,1.8,0.7,1.8,1.1c0,0-0.1,0.4-0.2,0.8
			c-0.1,0.4-0.2,0.8-0.2,1.4c1.3-0.3,1.9-0.5,3-0.9c0.1,0,0.3-0.1,0.5-0.1c0.3,0,1,0.3,1,0.6c0,0.2-0.2,0.3-0.3,0.4
			c-0.6,0.2-2.2,0.7-4.2,0.9c-0.1,0.8-0.1,2-0.1,3c1.2-0.3,1.7-0.5,2.5-0.8c0.1,0,0.2-0.1,0.3-0.1c0.3,0,1,0.2,1,0.6
			c0,0.3-0.2,0.4-0.4,0.5c-0.3,0.1-2.1,0.5-3.4,0.7c0,0.8,0.2,3.4,0.3,4.4c2.2,0.5,4,1.4,4,2.4c0,0.3-0.2,0.5-0.4,0.5
			c-0.2,0-0.2-0.1-0.9-0.5c-0.2-0.1-1.4-0.9-2.7-1.3c0,1.1-0.5,1.5-0.7,1.7c-0.9,0.6-2.1,0.6-2.3,0.6c-1.9,0-3.2-0.9-3.2-1.9
			c0-0.6,0.4-1,0.9-1.3c1.1-0.6,2.9-0.6,3.2-0.6c0.4,0,0.7,0,1,0c0-0.6-0.2-3.4-0.2-4c-1,0.1-1.9,0.2-2.9,0.2
			c-1.1,0-1.8-0.2-1.8-0.9c0-0.3,0.3-0.8,0.9-0.9c-0.1,0.2-0.3,0.4-0.3,0.6c0,0.4,0.4,0.4,1.4,0.4c0.7,0,1.6-0.1,2.7-0.3
			c0-1,0-1.6,0.1-3.1c-0.8,0.1-3.3,0.3-3.8,0.3c-0.5,0-2-0.1-2.5-1.3c0.3,0.1,1.1,0.5,2.5,0.5c0.4,0,1.9-0.1,3.9-0.4
			C521.9,4.3,521.9,3.1,521.9,2.8z M519.9,14.2c-1.3,0-2.5,0.3-2.5,1.1c0,0.6,0.8,1,2.3,1c0.8,0,2.5-0.2,2.3-1.9
			C521.6,14.4,521.1,14.2,519.9,14.2z"/>
		<path d="M537.4,18.1c3.2-2.1,3.6-4.1,3.8-5.3c-0.4,0.2-0.7,0.4-1.1,0.4c-0.9,0-2.2-1.3-2.2-2.9c0-1.3,1-2.4,2.3-2.4
			c0.5,0,0.8,0.2,1.1,0.3c0-0.3,0-0.4,0-0.6V5.8c-2.1,0.2-4,0.4-6.4,1.4c-0.1,0-0.6,0.3-0.7,0.3c-0.4,0-1.5-0.9-1.5-1.8
			c0-0.1,0-0.2,0.1-0.4c0.6,0.7,0.9,0.9,1.4,0.9c0.3,0,1-0.1,1-0.2c0.9-0.2,4.3-0.7,6.1-0.8c0-0.5-0.1-2.6-0.3-2.9
			c-0.2-0.5-0.7-0.7-1.3-0.9c0.2-0.1,0.5-0.3,0.9-0.3c0.4,0,1,0.3,1.4,0.6c0.3,0.2,0.3,0.4,0.3,0.5c0,0.1-0.1,0.5-0.1,0.6
			C542,3.2,542,4.5,542,5.1c0.7-0.1,3.9-0.2,4.6-0.2c0.1,0,0.8-0.1,0.9-0.1c0.7,0,1.3,0.5,1.3,0.8c0,0.2-0.2,0.4-0.5,0.4
			c-0.1,0-0.2,0-0.3-0.1c-1.3-0.3-2.8-0.3-3.5-0.3c-0.8,0-1.7,0-2.5,0.1c0,0.8,0,1.5,0,1.8c0,0.4,0,0.7,0,1.2
			c0.2,0.4,0.6,1.1,0.6,2.5c0,0.8-0.1,3.5-2.6,5.5c-1,0.8-1.9,1.1-2.5,1.3L537.4,18.1z M538.4,10.1c0,1.1,0.9,2.1,1.7,2.1
			c1,0,1-1.4,1-1.6c0-1.5-0.5-2.1-1.5-2.1C539.3,8.5,538.4,9.1,538.4,10.1z"/>
		<path d="M551.7,14.7c0-1.5,1.2-2.8,2.8-2.8c1.5,0,2.8,1.2,2.8,2.8c0,1.6-1.3,2.8-2.8,2.8C552.9,17.4,551.7,16.2,551.7,14.7z
			 M556.7,14.7c0-1.2-1-2.2-2.2-2.2c-1.3,0-2.2,1-2.2,2.2c0,1.2,1,2.2,2.2,2.2C555.7,16.9,556.7,15.9,556.7,14.7z"/>
		<path d="M8.9,36.8c0-0.8-0.2-0.9-1.4-1.5C7.7,35.2,7.9,35,8.5,35c1,0,1.8,0.7,1.8,1.1c0,0-0.1,0.4-0.2,0.8
			c-0.1,0.4-0.2,0.8-0.2,1.4c1.3-0.3,1.9-0.5,3-0.9c0.1,0,0.3-0.1,0.5-0.1c0.3,0,1,0.3,1,0.6c0,0.2-0.2,0.3-0.3,0.4
			c-0.6,0.2-2.2,0.7-4.2,0.9c-0.1,0.8-0.1,2-0.1,3c1.2-0.3,1.7-0.5,2.5-0.8c0.1,0,0.2-0.1,0.3-0.1c0.3,0,1,0.2,1,0.6
			c0,0.3-0.2,0.4-0.4,0.5c-0.3,0.1-2.1,0.5-3.4,0.7c0,0.8,0.2,3.4,0.3,4.4c2.2,0.5,4,1.4,4,2.4c0,0.3-0.2,0.5-0.4,0.5
			c-0.2,0-0.2-0.1-0.9-0.5c-0.2-0.1-1.4-0.9-2.7-1.3c0,1.1-0.5,1.5-0.7,1.7c-0.9,0.6-2.1,0.6-2.3,0.6c-1.9,0-3.2-0.9-3.2-1.9
			c0-0.6,0.4-1,0.9-1.3c1.1-0.6,2.9-0.6,3.2-0.6c0.4,0,0.7,0,1,0c0-0.6-0.2-3.4-0.2-4c-1,0.1-1.9,0.2-2.9,0.2
			c-1.1,0-1.8-0.2-1.8-0.9c0-0.3,0.3-0.8,0.9-0.9c-0.1,0.2-0.3,0.4-0.3,0.6c0,0.4,0.4,0.4,1.4,0.4c0.7,0,1.6-0.1,2.7-0.3
			c0-1,0-1.6,0.1-3.1c-0.8,0.1-3.3,0.3-3.8,0.3c-0.5,0-2-0.1-2.5-1.3C2.8,38.7,3.6,39,4.9,39c0.4,0,1.9-0.1,3.9-0.4
			C8.9,38.3,8.9,37.1,8.9,36.8z M6.9,48.2c-1.3,0-2.5,0.3-2.5,1.1c0,0.6,0.8,1,2.3,1c0.8,0,2.5-0.2,2.3-1.9
			C8.6,48.4,8.1,48.2,6.9,48.2z"/>
		<path d="M25.7,36.8c0-0.7-0.5-0.9-1-1.2c0.2-0.1,0.3-0.2,0.6-0.2c1.5,0,1.8,1.1,1.8,1.4c0,0.1-0.1,0.3-0.3,0.6
			c-0.3,0.6-0.7,1.4-0.8,1.8c0.9-0.4,1.4-0.6,1.7-0.8c0.2-0.1,0.7-0.4,1-0.4c0.2,0,0.6,0.2,0.6,0.5c0,0.1,0,0.2-0.4,0.4
			c-1,0.6-2.1,0.9-3.3,1.2c0,0.1-0.1,0.2-0.2,0.5c-1.8,5.1-3.7,9.1-3.9,9.5c-0.1,0.1-0.2,0.3-0.5,0.3c-0.3,0-0.5-0.5-0.5-0.8
			c0-0.3,0-0.4,0.6-1.2c0.8-1.2,1.1-1.9,3.5-7.8c0.1-0.2,0.1-0.2,0.1-0.3c-0.8,0.2-2,0.3-2.6,0.3c-0.7,0-1.5-0.4-1.8-1
			c0.4,0.1,1,0.2,1.9,0.2c1,0,1.9-0.2,2.8-0.4C25.2,39.1,25.7,37.4,25.7,36.8z M31.4,49.5c1.1,0,1.9-0.1,2.1-0.2
			c0.4-0.1,0.5-0.1,0.6-0.1c0.6,0,0.9,0.4,0.9,0.7c0,0.2-0.2,0.3-0.4,0.4c-0.3,0.1-1.1,0.2-2.1,0.2c-1.1,0-3.1-0.1-4.2-0.7
			c-0.8-0.4-1.4-1.2-1.4-2c0-0.6,0.2-1,0.4-1.3C27.5,48.3,27.7,49.5,31.4,49.5z M31.1,43.1c1.2-1,1.6-1.3,1.6-1.6
			c0-0.4-0.9-0.6-1.7-0.6c-0.6,0-1.1,0.1-1.4,0.1c0.8-0.5,1.7-0.8,2.6-0.8c1.9,0,2.9,0.9,2.9,1.5c0,0.3-0.2,0.4-0.4,0.4
			c-0.1,0-0.5,0-0.6,0c-0.1,0-1.6,0.3-2.8,1.1L31.1,43.1z"/>
		<path d="M38.8,46.9c0.9,0.2,2.4,0.5,3.6,1.5c1.1,1,1.1,2,1.1,2.1c0,0.6-0.5,1-0.9,1c-0.3,0-0.5-0.2-0.9-1
			c-0.9-1.9-1.3-2.7-2.9-3.4L38.8,46.9z"/>
		<path d="M59,46.6c-0.8,2.3-1.1,3-2,4.3l-0.1,0c0.2-0.6,0.5-1.3,0.7-2.5c0.3-1.3,0.3-2.5,0.3-2.7c0-0.1,0-0.2,0-0.5l1.3,0.6
			c0.3,0.1,0.3,0.2,0.3,0.3C59.4,46.4,59.3,46.5,59,46.6z M63.5,44.5c-0.5,0-0.5-0.2-0.8-1.3l-1.6,0.3c0,1.8,0,3.4,0,4.6
			c0,0.5,0,2.5,0,2.9c0,0.3-0.1,0.8-0.8,0.8c-0.3,0-0.4-0.2-0.4-0.3c0-0.1,0-0.4,0-0.4c0.1-2.2,0.1-3.1,0.1-7.4
			c-0.3,0.1-1.7,0.4-2.1,0.5c-0.2,0.3-0.3,0.4-0.5,0.4c-0.1,0-0.1-0.1-0.2-0.3l-0.5-1.5c0.5,0.2,0.9,0.2,2.4,0.2
			c0.8-1.3,1.9-3.4,2.4-4.7c0.1-0.4,0.2-0.7,0.2-1l1.2,0.8c0.3,0.2,0.3,0.3,0.3,0.3c0,0.2-0.3,0.3-0.7,0.4c-0.8,1.3-2.2,3.3-3.1,4.3
			c1,0,1.9-0.1,2.9-0.2c-0.2-0.6-0.3-0.8-0.6-1.2l0-0.1c0.8,0.4,2,1.1,2,2.1C64,44.2,63.8,44.5,63.5,44.5z M61,36.2
			c-0.3,0.4-0.6,0.8-1.2,1.5c-0.3,0.3-0.7,0.9-0.8,1c0.6,0.4,0.9,0.9,0.9,1.3c0,0.4-0.2,0.6-0.6,0.6c-0.4,0-0.4-0.2-0.6-0.7
			c-0.1-0.1-0.6-1.1-1.4-1.9l0-0.1c0.5,0.2,1,0.3,1.5,0.6c0.3-0.7,0.9-2.1,1.1-3c0.1-0.4,0.1-0.6,0.1-0.9l1.4,0.7
			c0.1,0.1,0.2,0.2,0.2,0.3C61.7,36.1,61.3,36.2,61,36.2z M63.3,48.3c-0.6,0-0.6-0.5-0.6-0.9c0-0.2-0.1-0.9-0.6-2l0.1-0.1
			c1.4,1,1.7,1.6,1.7,2.2C63.9,47.9,63.7,48.3,63.3,48.3z M73.2,50.3c-2.7-2.1-3.6-4.8-3.7-5.5h-0.2c0,1.8,0.1,4.7,0.1,6.5
			c0,0.3,0,0.8-0.9,0.8c-0.3,0-0.3-0.3-0.3-0.5c0-0.1,0-0.6,0-0.6c0-0.6,0.2-4.5,0.2-5.5c-0.8,1.1-2.1,2.8-3.8,4.1
			c-0.5,0.4-1.1,0.8-1.7,1.1l-0.1-0.1c2.3-1.8,4-4.4,4.6-5.7h-1.8c0,0.5-0.4,0.7-0.7,0.7c-0.3,0-0.4-0.1-0.4-0.4
			c0-0.1,0.1-0.6,0.1-0.8c0-0.8,0-2,0-2.7c0-0.7,0-1.8-0.1-2.5l1.3,0.7h2.5v-2h-1.8c-0.7,0-1.7,0.1-2.5,0.2l-0.4-0.8
			c1.4,0.1,2.8,0.1,3.2,0.1h1.5c0-1.3,0-1.9-0.3-2.7l1.5,0.5c0.2,0.1,0.4,0.1,0.4,0.3c0,0.2-0.2,0.3-0.6,0.5c0,0.4,0,1,0,1.3h2.8
			l0.6-0.6c0.2-0.2,0.2-0.2,0.3-0.2c0.1,0,0.2,0.1,0.3,0.2l0.6,0.6c0.1,0.1,0.2,0.2,0.2,0.3c0,0.2-0.2,0.2-0.3,0.2h-4.5
			c0,0.3,0,1.7,0,2H72l0.5-0.5c0.1-0.1,0.2-0.2,0.3-0.2c0.1,0,0.2,0.1,0.3,0.2l0.6,0.4c0.1,0.1,0.2,0.1,0.2,0.2
			c0,0.2-0.1,0.2-0.6,0.6c0,1,0,2.1,0.1,3.2c0,0.1,0,0.7,0,0.9c0,0.1,0,0.4-0.2,0.6c-0.1,0.1-0.3,0.2-0.5,0.2
			c-0.4,0-0.3-0.3-0.3-0.6h-2.6c0.8,2.1,3.3,4.2,5.4,4.5v0.1C74.6,49.4,73.6,49.5,73.2,50.3z M68.5,40.2h-2.7V42h2.7V40.2z
			 M68.5,42.5h-2.7v1.8h2.7V42.5z M72.4,40.2h-3V42h3V40.2z M72.4,42.5h-3v1.8h3V42.5z"/>
		<path d="M77.1,51.1c-0.7,0-0.7-0.6-0.7-0.7c0-0.3,0-0.3,1-1.4c0.4-0.4,0.6-1.2,0.8-2.1h0.1c0.1,0.4,0.3,1.1,0.3,1.8
			C78.6,49.6,78.2,51.1,77.1,51.1z M92.2,45.6c-0.1,1.5-0.5,3.6-1.3,5c-0.6,0.9-1.2,1.3-2.4,1.4c-0.4-0.9-1-1.3-1.9-1.9v-0.2
			c0.8,0.2,1.7,0.4,2.5,0.4c0.8,0,1-0.2,1.4-1.7c0.3-1.1,0.6-2.2,0.6-3.3H80c0,0,0,0.3,0,0.3c0,0.2-0.1,0.5-0.2,0.6
			c-0.2,0.2-0.6,0.2-0.7,0.2c-0.4,0-0.4-0.4-0.4-0.4c0-0.2,0.1-1,0.1-1.2c0-1.4,0.1-2.9,0.1-4.3c0-1.8,0-3.8-0.2-5.5l1.7,0.9h8.9
			l0.6-0.8c0.1-0.1,0.2-0.2,0.3-0.2c0.1,0,0.3,0.2,0.3,0.2l0.9,0.8c0.1,0.1,0.2,0.2,0.2,0.3c0,0.2-0.2,0.2-0.3,0.2h-6.2v2.6h3
			l0.6-0.7C89,38,89,38,89.1,38c0.1,0,0.2,0.1,0.3,0.2l0.8,0.7c0.1,0.1,0.2,0.2,0.2,0.3c0,0.2-0.2,0.2-0.3,0.2h-5.1v2.5h3.2l0.5-0.8
			c0.1-0.2,0.2-0.3,0.3-0.3c0.2,0,0.3,0.2,0.4,0.2l1,0.9c0.1,0.1,0.2,0.2,0.2,0.3c0,0.2-0.2,0.2-0.3,0.2h-5.3v2.5h5.7l0.5-0.6
			c0.1-0.2,0.2-0.2,0.2-0.2c0.1,0,0.1,0,0.2,0.2l0.8,0.6c0.2,0.1,0.2,0.2,0.2,0.3C92.8,45.4,92.3,45.6,92.2,45.6z M84.1,36.3H80v2.6
			h4.1V36.3z M84.1,39.3H80v2.5h4.1V39.3z M84.1,42.3H80v2.5h4.1V42.3z M81.4,50.2c-0.6,0-0.6-0.6-0.6-0.9c-0.1-1.6-0.3-2.1-0.6-2.5
			l0.1-0.1c0.7,0.4,1.8,1.7,1.8,2.6C82.2,49.9,81.7,50.2,81.4,50.2z M84.8,49.4c-0.3,0-0.5-0.3-0.7-0.9c-0.1-0.5-0.4-1.7-0.8-2.1
			l0.1-0.1c0.5,0.2,1,0.5,1.5,1.1c0.3,0.5,0.5,0.9,0.5,1.3C85.3,49.1,85.1,49.4,84.8,49.4z M88,48.8c-0.3,0-0.4-0.2-0.7-1
			c-0.3-0.9-0.4-1-0.9-1.7l0.1-0.1c2,0.9,2.1,1.9,2.1,2C88.6,48.4,88.4,48.8,88,48.8z"/>
		<path d="M111.8,50.7H97.9c0,0.6,0,0.7-0.1,0.8c-0.2,0.3-0.7,0.4-0.9,0.4c-0.4,0-0.4-0.2-0.4-0.3c0-0.4,0.1-1.1,0.1-1.5
			c0-0.5,0.2-8,0.2-10.2c0-3-0.1-3.7-0.3-4.8l1.7,0.9H109l0.7-0.8c0.2-0.2,0.2-0.2,0.3-0.2c0.1,0,0.3,0.2,0.4,0.2l0.9,0.8
			c0.1,0.1,0.2,0.2,0.2,0.3c0,0.2-0.2,0.2-0.3,0.2H97.9c0,0.2-0.1,8.9-0.1,10.6c0,0.7,0,2,0,3.2h11.5l0.7-0.9
			c0.2-0.2,0.2-0.2,0.3-0.2c0.1,0,0.3,0.2,0.4,0.2l1,0.9c0.1,0.1,0.2,0.2,0.2,0.3C112.1,50.6,111.9,50.7,111.8,50.7z M108.5,39.1
			c-1,1.7-1.8,2.9-2.8,4.1c0.8,0.7,3.2,2.8,3.2,4.1c0,0.3-0.2,0.7-0.6,0.7s-0.5-0.2-0.9-0.8c-0.8-1.4-1.7-2.5-2.4-3.2
			c-0.7,0.9-1.8,2-3.1,3.1c-1,0.8-1.7,1.3-2.8,1.9l0-0.2c2-1.4,3.7-3.5,5.3-5.5c-1-1-2-1.8-4.4-3.7l0.1-0.1c0.7,0.4,2.6,1.4,4.8,3.2
			c1.3-1.8,2.3-3.5,2.5-4.3c0.1-0.4,0.1-0.6,0.1-0.8l1.5,1c0.1,0.1,0.2,0.2,0.2,0.2C109.3,39,109.1,39,108.5,39.1z"/>
		<path d="M124,43.4c0,0.7-0.6,1.3-1.3,1.3c-0.7,0-1.3-0.6-1.3-1.3c0-0.7,0.6-1.3,1.3-1.3C123.4,42.1,124,42.6,124,43.4z"/>
		<path d="M150,36.7h-6.5v3.2h3.3l0.6-0.6c0,0,0.1-0.1,0.2-0.1c0,0,0.1,0,0.3,0.2l0.9,0.6c0,0,0.2,0.2,0.2,0.3c0,0.1,0,0.1-0.1,0.2
			c-0.2,0.1-0.4,0.3-0.6,0.4c0,0.6-0.1,1.3-0.1,2.4c0,2.1,0.1,4.7,0.2,6.8c0,0.1,0,0.5,0,0.6c0,0.7-0.7,0.7-0.9,0.7
			c-0.4,0-0.5-0.3-0.5-0.5v-0.5h-11c0,0.2,0,0.6,0,0.8c-0.1,0.2-0.4,0.5-0.8,0.5c-0.4,0-0.4-0.3-0.4-0.4c0-0.1,0.1-1.4,0.1-1.7
			c0-1.1,0.1-4.7,0.1-5.7c0-2.9,0-3.6-0.3-4.8l1.6,0.9h2.7v-3.2h-3.2c-0.4,0-1.5,0-2.4,0.2l-0.5-0.8c1,0.1,2.2,0.2,3.2,0.2h11.5
			l0.7-0.9c0.2-0.2,0.2-0.2,0.3-0.2c0.1,0,0.3,0.2,0.4,0.2l1.1,0.9c0.1,0.1,0.2,0.2,0.2,0.3C150.3,36.7,150.1,36.7,150,36.7z
			 M147.1,40.4h-3.6v4.8c0,0.4,0,0.4,0,0.5c0.1,0.2,0.7,0.2,0.9,0.2c0.6,0,0.9,0,1.1-0.4c0.2-0.5,0.3-1.2,0.4-1.6h0.2
			c0.2,1.2,0.2,1.4,0.5,1.7c0.2,0.2,0.3,0.4,0.3,0.5c0,0.2-0.2,0.5-0.4,0.6c-0.5,0.3-1.4,0.3-1.7,0.3c-2,0-2.2-0.2-2.2-1v-5.5h-2.3
			c-0.1,3.6-1,5.5-3.5,7.1l-0.2-0.1c1.7-1.7,2.5-3.5,2.5-7h-3V50h11V40.4z M142.5,36.7h-2.3v3.2h2.3V36.7z"/>
		<path d="M167.8,50.9c-0.8-0.3-2.8-1.6-2.8-1.6c-1.7-1-2.9-2.5-4-4.1c0,0.9,0,4.7,0.1,5.5c0,0.1,0,0.5,0,0.6c0,0.3,0,0.5-0.2,0.6
			c-0.2,0.2-0.5,0.2-0.6,0.2c-0.3,0-0.4-0.3-0.4-0.5c0-0.2,0-0.8,0-0.9c0-0.8,0.1-4.1,0.1-4.8c-2.6,2.8-5.9,4.6-8,5.2l-0.1-0.1
			c2.3-0.9,5.9-3.9,7.3-5.7h-2.9c0,0.4,0,0.5-0.1,0.6c-0.2,0.2-0.4,0.3-0.7,0.3c-0.3,0-0.3-0.2-0.3-0.3c0-0.1,0-0.3,0-0.3
			c0.1-0.9,0.1-2.6,0.1-3.5c0-1.8,0-2-0.2-3.1l1.4,0.6h3.6c0-0.3,0-0.8,0-1.9H155c-0.7,0-1.7,0.1-2.4,0.2l-0.5-0.8
			c1.4,0.1,2.8,0.2,3.2,0.2h4.8c0-1-0.1-1.9-0.4-2.5l1.8,0.5c0.1,0,0.3,0.1,0.3,0.2c0,0.1-0.1,0.2-0.2,0.3c-0.2,0.1-0.3,0.2-0.4,0.3
			c0,0.1,0,0.8,0,1.2h5.7l0.6-0.9c0.1-0.1,0.2-0.2,0.3-0.2c0.1,0,0.3,0.1,0.4,0.2l1,0.9c0.1,0.1,0.2,0.2,0.2,0.3
			c0,0.2-0.2,0.2-0.3,0.2h-7.8v1.9h3.5l0.6-0.5c0.1-0.1,0.1-0.1,0.2-0.1c0.1,0,0.1,0,0.2,0.1l0.8,0.6c0.1,0.1,0.2,0.1,0.2,0.2
			c0,0.1-0.1,0.2-0.2,0.2c-0.3,0.2-0.3,0.2-0.5,0.3c0,1.4,0,1.5,0.2,4.4c0,0.2,0,0.4,0,0.4c0,0.3-0.1,0.5-0.3,0.6
			c-0.2,0.1-0.4,0.1-0.5,0.1c-0.4,0-0.4-0.3-0.4-0.8h-3.6c1.4,1.5,4.3,4,8.2,4.1v0.2C168.7,49.7,168.4,50,167.8,50.9z M160.1,39.9
			h-3.7V42h3.7V39.9z M160.1,42.5h-3.7v2.3h3.7V42.5z M165.1,39.9h-3.9V42h3.9V39.9z M165.1,42.5h-3.9v2.1v0.2h3.9V42.5z"/>
		<path d="M177,47.8c-2.7,2.6-4.1,3.3-5.9,3.9l-0.1-0.1c1.8-0.9,4.3-3.7,4.8-4.5c0,0,0.1-0.3,0.2-0.8l1.5,1.1
			c0.2,0.1,0.2,0.2,0.2,0.3C177.8,47.8,177.5,47.8,177,47.8z M188.1,37.9h-14.1c-0.7,0-1.7,0.1-2.5,0.2l-0.5-0.8
			c1.4,0.1,2.8,0.1,3.2,0.1h4.9c0-1,0-2.1-0.4-2.8l2,0.4c0.2,0,0.3,0.1,0.3,0.2c0,0.1,0,0.2-0.7,0.6v0.2v1.4h5.3l0.8-0.9
			c0.2-0.2,0.2-0.2,0.3-0.2c0.1,0,0.3,0.1,0.4,0.2l1.2,0.9c0.1,0.1,0.2,0.2,0.2,0.3C188.4,37.9,188.3,37.9,188.1,37.9z M184.6,41.1
			c0,0.3,0,0.8,0,1.9c0,0.3,0.1,1.8,0.1,2.1c0,0.6-0.7,0.7-0.8,0.7c-0.4,0-0.4-0.1-0.4-0.8h-3.2v1.1c0,1.1,0,2.7,0,3.8
			c0,1-0.2,1.3-0.5,1.7c-0.1,0.1-0.6,0.5-1.3,0.6c-0.1-0.4-0.7-1.2-2.1-1.7v-0.2c1,0.2,1.9,0.2,2.1,0.2c0.7,0,0.7,0,0.7-1.3V45h-3.6
			c0,0.5,0,0.6-0.1,0.7c-0.1,0.2-0.5,0.3-0.8,0.3c-0.3,0-0.4-0.2-0.4-0.3c0-0.1,0-0.3,0-0.4c0.1-1.3,0.1-2.6,0.1-3.9
			c0-0.9,0-1.4-0.2-2.1l1.6,0.9h7.4l0.4-0.5c0.1-0.1,0.2-0.1,0.2-0.1c0.1,0,0.2,0.1,0.2,0.1l0.8,0.6c0.1,0.1,0.2,0.2,0.2,0.3
			C185.4,40.7,185.1,40.9,184.6,41.1z M183.6,40.6h-7.8v4h7.8V40.6z M186.6,51c-0.5,0-0.8-0.4-0.9-0.7c-0.6-0.8-1.9-2.9-3.2-3.4
			l0-0.2c2.3,0.5,4.7,2.1,4.7,3.6C187.1,50.7,186.9,51,186.6,51z"/>
		<path d="M207,38.4h-9l1.5,0.5c0.1,0,0.2,0.1,0.2,0.2c0,0.2-0.3,0.4-0.6,0.6c-0.1,0.7-0.1,1.2-0.1,1.9h4.1l0.5-0.5
			c0,0,0.2-0.2,0.3-0.2c0.1,0,0.3,0.2,0.3,0.2l0.5,0.4c0.3,0.3,0.3,0.3,0.3,0.4c0,0.2-0.3,0.4-0.5,0.5c0,0.5,0.1,5.2,0.1,6.2
			c0,0.6,0,0.9-0.5,1.3c-0.5,0.5-1,0.6-1.3,0.6c-0.2-0.4-0.4-0.9-1.5-1.4v-0.2c0.3,0,0.6,0.1,1.1,0.1c1.2,0,1.2-0.2,1.2-0.5
			c0-0.8,0-2.7,0-4.2V42h-4.6c0,2.1,0,3,0.1,6.6c0,0.4,0.1,2.2,0.1,2.6c0,0.7-0.8,0.9-0.9,0.9c-0.4,0-0.4-0.3-0.4-0.8
			c0-0.1,0.2-3.4,0.2-4c0-1.6,0-3.5,0-5.3H194v0.2l0,3.7l0.1,3.4c0,0.5,0,1-0.8,1c-0.4,0-0.4-0.3-0.4-0.4c0-0.2,0-0.9,0.1-1.1
			c0.1-1.6,0.1-3.2,0.1-4.9c0-2-0.1-2.4-0.2-3.2l1.6,0.7h3.8c0-2.3,0-2.5-0.2-3.2h-5.1c-0.7,0-1.7,0.1-2.4,0.2l-0.5-0.8
			c1.4,0.1,2.8,0.2,3.2,0.2h5c0-2.2-0.1-2.7-0.5-3.3l1.8,0.4c0.2,0,0.4,0.1,0.4,0.3c0,0.2-0.3,0.4-0.7,0.6c0,1,0,1.5,0,2h5.5
			l0.7-0.9c0.1-0.1,0.2-0.2,0.3-0.2c0.1,0,0.3,0.2,0.3,0.2l1,0.9c0.1,0.1,0.2,0.2,0.2,0.3C207.3,38.3,207.2,38.4,207,38.4z"/>
		<path d="M219,43.4c0,0.7-0.6,1.3-1.3,1.3c-0.7,0-1.3-0.6-1.3-1.3c0-0.7,0.6-1.3,1.3-1.3C218.4,42.1,219,42.6,219,43.4z"/>
		<path d="M243.8,50.9c-0.8-0.3-2.8-1.6-2.8-1.6c-1.7-1-2.9-2.5-4-4.1c0,0.9,0,4.7,0.1,5.5c0,0.1,0,0.5,0,0.6c0,0.3,0,0.5-0.2,0.6
			c-0.2,0.2-0.5,0.2-0.6,0.2c-0.3,0-0.4-0.3-0.4-0.5c0-0.2,0-0.8,0-0.9c0-0.8,0.1-4.1,0.1-4.8c-2.6,2.8-5.9,4.6-8,5.2l-0.1-0.1
			c2.3-0.9,5.9-3.9,7.3-5.7h-2.9c0,0.4,0,0.5-0.1,0.6c-0.2,0.2-0.4,0.3-0.7,0.3c-0.3,0-0.3-0.2-0.3-0.3c0-0.1,0-0.3,0-0.3
			c0.1-0.9,0.1-2.6,0.1-3.5c0-1.8,0-2-0.2-3.1l1.4,0.6h3.6c0-0.3,0-0.8,0-1.9H231c-0.7,0-1.7,0.1-2.4,0.2l-0.5-0.8
			c1.4,0.1,2.8,0.2,3.2,0.2h4.8c0-1-0.1-1.9-0.4-2.5l1.8,0.5c0.1,0,0.3,0.1,0.3,0.2c0,0.1-0.1,0.2-0.2,0.3c-0.2,0.1-0.3,0.2-0.4,0.3
			c0,0.1,0,0.8,0,1.2h5.7l0.6-0.9c0.1-0.1,0.2-0.2,0.3-0.2c0.1,0,0.3,0.1,0.4,0.2l1,0.9c0.1,0.1,0.2,0.2,0.2,0.3
			c0,0.2-0.2,0.2-0.3,0.2h-7.8v1.9h3.5l0.6-0.5c0.1-0.1,0.1-0.1,0.2-0.1c0.1,0,0.1,0,0.2,0.1l0.8,0.6c0.1,0.1,0.2,0.1,0.2,0.2
			c0,0.1-0.1,0.2-0.2,0.2c-0.3,0.2-0.3,0.2-0.5,0.3c0,1.4,0,1.5,0.2,4.4c0,0.2,0,0.4,0,0.4c0,0.3-0.1,0.5-0.3,0.6
			c-0.2,0.1-0.4,0.1-0.5,0.1c-0.4,0-0.4-0.3-0.4-0.8h-3.6c1.4,1.5,4.3,4,8.2,4.1v0.2C244.7,49.7,244.4,50,243.8,50.9z M236.1,39.9
			h-3.7V42h3.7V39.9z M236.1,42.5h-3.7v2.3h3.7V42.5z M241.1,39.9h-3.9V42h3.9V39.9z M241.1,42.5h-3.9v2.1v0.2h3.9V42.5z"/>
		<path d="M262.5,51.6c-1.8-1.1-3-2.9-4-4.8c-0.9-1.8-1.4-3.8-1.4-6.2c0-0.5,0-0.8,0-1c-0.5,2.2-2.6,6.6-4.7,8.9
			c-1.4,1.6-3.2,2.9-5.2,3.4l-0.1-0.2c3.5-1.8,5.4-4.5,6.8-7.2c1.3-2.4,2.1-4.7,2.4-6.2h-3.2c-1.1,1.9-3.4,4.9-5,5.8l-0.1-0.1
			c1.9-2.2,4.1-5.7,5.1-8.1c0.2-0.6,0.3-1.2,0.3-1.5l1.5,0.9c0.1,0.1,0.3,0.2,0.3,0.3c0,0.3-0.4,0.4-0.8,0.5
			c-0.2,0.4-0.4,0.9-0.9,1.8h2.6l0.8-0.6c0.1-0.1,0.2-0.2,0.3-0.2c0.1,0,0.2,0.1,0.2,0.1l0.8,0.7c0.1,0.1,0.2,0.3,0.2,0.4
			c0,0.3-0.7,0.6-0.8,0.7c0,2.4,0.3,5.4,2.6,8.3c1.1,1.4,2.6,2.6,4.4,3.1v0.2C264,50.8,263.1,50.9,262.5,51.6z"/>
		<path d="M273.8,41.8c-0.4,0-0.6-0.3-0.7-0.6c-0.2-0.4-0.2-0.6-0.2-0.7c-0.4,0.2-2.5,1.2-2.7,1.3c-0.4,0.2-2.3,1-2.5,1.1
			c-0.2,0.4-0.3,0.7-0.5,0.7c-0.1,0-0.2-0.1-0.2-0.2l-1-1.4c0.3,0,0.8-0.1,1-0.1c0.1,0,0.7-0.2,1.1-0.3c0-4.7,0-4.8-0.3-5.6l1,0.4
			c0.1,0,0.1,0,0.2,0.1c0.7-0.2,2.5-1.1,3.1-2.1l1.2,1c0.1,0.1,0.1,0.2,0.1,0.3c0,0.2-0.2,0.2-0.3,0.2c-0.2,0-0.4,0-0.5-0.1
			c-1,0.4-2.2,0.6-3.3,0.9c0,0.1,0,0.2-0.3,0.4c0,1.6,0,1.8,0.1,4.2c0.4-0.1,1.1-0.3,1.2-0.4c0.4-0.1,2.1-0.6,2.5-0.7
			c-0.2-0.3-0.4-0.6-0.6-0.9c-0.5-0.6-0.7-0.9-0.9-1l0.1-0.1c0.8,0.3,3.1,1.6,3.1,3C274.4,41.6,274.1,41.8,273.8,41.8z M280.1,45.5
			c0,2,0,2.5,0.1,5.1c0,0.1,0,0.6,0,0.6c0,0.5-0.4,0.7-0.7,0.7c-0.4,0-0.5-0.4-0.4-1.2h-8.9c0,0.1,0.1,0.6,0.1,0.7
			c0,0.6-0.7,0.6-0.7,0.6c-0.3,0-0.4-0.2-0.4-0.5c0-0.1,0.1-4.4,0.1-5.3c0-1.6-0.1-1.9-0.1-2.2l1.3,0.5h8.4l0.4-0.4
			c0.1-0.1,0.2-0.2,0.3-0.2c0.1,0,0.2,0.1,0.3,0.2l0.7,0.5c0.1,0.1,0.2,0.1,0.2,0.3C280.7,45.1,280.5,45.2,280.1,45.5z M274.2,45.1
			h-4v2.2h4V45.1z M274.2,47.7h-4v2.5h4V47.7z M281.7,36.9c0,2.9-0.3,4.4-0.5,4.8c-0.3,0.9-1,1.5-2.5,1.6c0-0.3,0-0.4-0.5-1.1
			c-0.1-0.1-0.5-0.6-0.6-0.6l0.1-0.1c0.9,0.5,1.8,0.5,1.9,0.5c0.4,0,0.6-0.2,0.7-0.5c0.2-0.4,0.5-2.4,0.5-4c0-0.2,0-0.5,0-1h-2.9
			c-0.1,2.3-0.2,3.1-0.6,4c-0.6,1.4-1.7,2.7-3.1,3.3l-0.1-0.2c1-0.6,1.9-2.1,2.4-3.5c0.4-1.2,0.5-2.2,0.5-3.6
			c-0.6,0-1.3,0.1-1.9,0.2l-0.5-0.8c1,0.1,2.2,0.2,3.2,0.2h2.9l0.3-0.4c0.1-0.1,0.2-0.2,0.2-0.2c0.1,0,0.2,0.1,0.3,0.2l0.6,0.5
			c0.1,0.1,0.2,0.2,0.2,0.3C282.3,36.6,282.1,36.7,281.7,36.9z M279.1,45.1h-4v2.2h4V45.1z M279.1,47.7h-4v2.5h4V47.7z"/>
		<path d="M300.6,49.7c-0.7-0.4-2.3-1.3-4-3.5c-1.1-1.4-1.9-2.9-2.5-4.5H294c0,2.2,0.1,7.6,0.2,9c0,0.1,0,0.5,0,0.6
			c0,0.6-0.4,0.8-0.7,0.8c-0.6,0-0.6-0.3-0.6-0.7c0-0.4,0.1-4.2,0.1-5c0-1.7,0-1.9,0-3.8c-2,3.1-5.1,6.2-8,7.5L285,50
			c2.9-1.8,6.2-5.8,7.4-8.2h-4.4c-0.7,0-1.7,0.1-2.4,0.2l-0.5-0.8c1.4,0.1,2.8,0.2,3.2,0.2h4.7v-1.2c0-1.5,0-4.1-0.5-5.5l1.8,0.4
			c0.3,0.1,0.3,0.2,0.3,0.3c0,0.1,0,0.2-0.7,0.6c-0.1,1-0.1,2.5-0.1,5.3h5.1l0.8-1.1c0.1-0.2,0.2-0.2,0.3-0.2c0.1,0,0.3,0.2,0.4,0.2
			l1,1c0.1,0.1,0.2,0.2,0.2,0.3c0,0.2-0.2,0.2-0.3,0.2h-7.1c0.9,2.4,3.3,5.3,8,6.9v0.2C302.1,48.8,301.1,49.1,300.6,49.7z
			 M290.3,39.8c-0.5,0-0.6-0.3-0.9-1.2c-0.4-0.9-1-1.9-1.7-2.4l0.1-0.1c2.6,1.2,3.2,2.3,3.2,2.9C291,39.5,290.7,39.8,290.3,39.8z
			 M298.5,37.2c-1.2,1.4-2.1,2.4-3.5,3.5l-0.1-0.1c1-1.2,1.8-2.8,2.1-3.4c0.6-1.1,0.6-1.3,0.6-1.7l1.5,0.9c0.1,0.1,0.2,0.2,0.2,0.3
			C299.3,36.9,299.1,37,298.5,37.2z"/>
		<path d="M321,38.4h-9l1.5,0.5c0.1,0,0.2,0.1,0.2,0.2c0,0.2-0.3,0.4-0.6,0.6c-0.1,0.7-0.1,1.2-0.1,1.9h4.1l0.5-0.5
			c0,0,0.2-0.2,0.3-0.2c0.1,0,0.3,0.2,0.3,0.2l0.5,0.4c0.3,0.3,0.3,0.3,0.3,0.4c0,0.2-0.3,0.4-0.5,0.5c0,0.5,0.1,5.2,0.1,6.2
			c0,0.6,0,0.9-0.5,1.3c-0.5,0.5-1,0.6-1.3,0.6c-0.2-0.4-0.4-0.9-1.5-1.4v-0.2c0.3,0,0.6,0.1,1.1,0.1c1.2,0,1.2-0.2,1.2-0.5
			c0-0.8,0-2.7,0-4.2V42h-4.6c0,2.1,0,3,0.1,6.6c0,0.4,0.1,2.2,0.1,2.6c0,0.7-0.8,0.9-0.9,0.9c-0.4,0-0.4-0.3-0.4-0.8
			c0-0.1,0.2-3.4,0.2-4c0-1.6,0-3.5,0-5.3H308v0.2l0,3.7l0.1,3.4c0,0.5,0,1-0.8,1c-0.4,0-0.4-0.3-0.4-0.4c0-0.2,0-0.9,0.1-1.1
			c0.1-1.6,0.1-3.2,0.1-4.9c0-2-0.1-2.4-0.2-3.2l1.6,0.7h3.8c0-2.3,0-2.5-0.2-3.2h-5.1c-0.7,0-1.7,0.1-2.4,0.2l-0.5-0.8
			c1.4,0.1,2.8,0.2,3.2,0.2h5c0-2.2-0.1-2.7-0.5-3.3l1.8,0.4c0.2,0,0.4,0.1,0.4,0.3c0,0.2-0.3,0.4-0.7,0.6c0,1,0,1.5,0,2h5.5
			l0.7-0.9c0.1-0.1,0.2-0.2,0.3-0.2c0.1,0,0.3,0.2,0.3,0.2l1,0.9c0.1,0.1,0.2,0.2,0.2,0.3C321.3,38.3,321.2,38.4,321,38.4z"/>
		<path d="M333,43.4c0,0.7-0.6,1.3-1.3,1.3c-0.7,0-1.3-0.6-1.3-1.3c0-0.7,0.6-1.3,1.3-1.3C332.4,42.1,333,42.6,333,43.4z"/>
		<path d="M343.8,42c-0.5,0-0.6-0.4-0.7-0.7c-0.5-1.3-0.9-1.6-1.2-1.8l0-0.1c0.7,0.2,2.5,0.7,2.5,1.9C344.4,41.8,344.1,42,343.8,42z
			 M345.7,43.1c-0.3,1-0.9,3.3-1,4.2c0,0.1,0,0.3,0,0.6c0,0.6,0.1,1.2,0.3,1.8c0.2,0.8,0.3,1,0.3,1.4c0,0.8-0.4,0.9-0.7,0.9
			c-0.8,0-0.8-1-0.8-2c0-1.1,0-1.6-0.2-2.1c-0.1-0.2-0.5-0.8-1.2-0.8v-0.2c0.8,0,1-0.2,1.3-0.4c0.7-0.8,2.6-6.6,2.9-7.8l0.2,0.1
			C346.6,39.5,346.4,40.5,345.7,43.1z M345.7,37.7c-0.4,0-0.5-0.2-0.9-0.9c-0.3-0.6-0.6-1.2-1.1-1.6l0-0.1c0.6,0.2,2.5,0.8,2.5,2
			C346.3,37.2,346.1,37.7,345.7,37.7z M359.1,42.1h-9.3c-0.7,0-1.7,0.1-2.5,0.2l-0.4-0.8c1.4,0.1,2.8,0.2,3.2,0.2h1.9l0-1.9h-1
			c-0.7,0-1.7,0.1-2.5,0.2l-0.4-0.8c1.4,0.1,2.8,0.1,3.2,0.1h0.8v-1.7h-1.5c-0.7,0-1.7,0.1-2.5,0.2l-0.5-0.8
			c1.4,0.1,2.8,0.2,3.2,0.2h1.2c0-0.9-0.1-1.8-0.4-2.6l1.7,0.4c0.2,0,0.3,0.1,0.3,0.3c0,0.2-0.1,0.2-0.6,0.6c0,0.6-0.1,0.9-0.1,1.3
			h3l0.6-0.7c0.2-0.2,0.2-0.2,0.3-0.2c0.1,0,0.3,0.1,0.3,0.2l0.9,0.8c0.1,0.1,0.2,0.2,0.2,0.3c0,0.2-0.2,0.2-0.3,0.2h-5
			c0,0.3,0,1.1,0,1.7h2.2l0.4-0.5c0.2-0.2,0.2-0.3,0.3-0.3c0.1,0,0.2,0.1,0.4,0.2l0.7,0.6c0.1,0.1,0.2,0.2,0.2,0.3
			c0,0.2-0.2,0.2-0.3,0.2H353l0,1.9h4.1l0.6-0.7c0.2-0.2,0.2-0.2,0.3-0.2c0.1,0,0.2,0.1,0.3,0.2l0.8,0.7c0.1,0.1,0.2,0.2,0.2,0.3
			C359.4,42.1,359.2,42.1,359.1,42.1z M357.2,44.1c0,0-0.4,0.3-0.6,0.5c0,0.7,0.1,1.6,0.1,2.6c0,0.4,0.1,2.5,0.1,3
			c0,0.4,0,1.4-1.8,1.9c-0.1-0.4-0.1-0.6-0.4-0.8c-0.6-0.6-1-0.7-1.3-0.8v-0.2c0.5,0.1,0.9,0.1,1.5,0.1c0.5,0,0.8,0,0.9-0.3
			c0-0.1,0-1.9,0-2.1h-5.8c0,1.3,0,1.5,0,1.9c0,0.2,0,1,0,1.2c0,0.3-0.1,0.4-0.2,0.5c-0.2,0.2-0.5,0.3-0.7,0.3
			c-0.4,0-0.4-0.4-0.4-0.5c0-0.2,0-0.4,0-0.6c0.1-1.5,0.1-2.9,0.1-4.4c0-0.4,0-1.7-0.1-2.5c0-0.4-0.1-0.7-0.2-1l1.4,0.7h5.4l0.5-0.5
			c0.1-0.1,0.2-0.2,0.2-0.2s0.1,0.1,0.2,0.1l0.8,0.5c0.3,0.2,0.3,0.2,0.3,0.3C357.3,44,357.2,44.1,357.2,44.1z M355.6,44.1h-5.8v1.6
			h5.8V44.1z M355.6,46.2h-5.8v1.4h5.8V46.2z"/>
		<path d="M362.8,42c-0.5,0-0.6-0.4-0.6-0.6c-0.1-0.6-0.5-1.4-1.1-1.9l0-0.1c1.1,0.2,2.2,0.9,2.2,1.9C363.4,41.8,363.1,42,362.8,42z
			 M363.6,45.9c-0.1,0.3-0.2,1.2-0.2,1.9c0,0.5,0.1,1,0.2,1.3c0.2,0.9,0.2,1,0.2,1.4c0,0.3,0,1-0.7,1c-0.6,0-0.7-0.6-0.7-0.9
			c0-0.4,0.1-0.8,0.1-1.1c0.1-0.4,0.2-1,0.2-1.4c0-1.3-0.7-1.6-1.3-1.8v-0.1c0.6,0,1.1-0.2,1.3-0.5c0.4-0.6,1.7-5.4,1.9-6l0.2,0.1
			C364.3,41.8,364,43.9,363.6,45.9z M364.1,37.8c-0.4,0-0.6-0.4-0.7-0.8c-0.4-1-0.8-1.3-1-1.5l0-0.1c1.2,0.2,2.3,0.8,2.3,1.7
			C364.7,37.6,364.3,37.8,364.1,37.8z M371.3,38.2h-2.8c0,0.3,0,1.6,0,1.9h1.3l0.4-0.4c0.1-0.1,0.2-0.2,0.3-0.2
			c0.1,0,0.2,0.1,0.3,0.2l0.5,0.5c0.1,0.1,0.2,0.2,0.2,0.2c0,0.2-0.3,0.3-0.6,0.5c0,0.6,0,3.9,0,4.1c-0.1,0.2-0.3,0.3-0.5,0.3
			c-0.4,0-0.4-0.3-0.4-0.6h-1.4v1.5c1.2,0.1,2.5,0.6,2.5,1.4c0,0.3-0.2,0.6-0.5,0.6s-0.4-0.2-0.6-0.6c-0.2-0.3-0.6-0.8-1.4-1.3
			c0,0.6,0,3.4,0,3.9c0,0.1,0,0.8,0,0.9c0,0.3-0.3,0.5-0.6,0.5s-0.5-0.2-0.5-0.4c0-0.2,0.1-1,0.1-1.2c0-0.7,0-2.7,0-3.6
			c-0.6,1-1.9,2.5-3,3.3l-0.1-0.1c1.5-1.6,2.2-3,3-4.9h-1.2c0,0.1,0,0.8-0.6,0.8c-0.4,0-0.4-0.3-0.4-0.5c0-0.6,0-3,0-3.5
			c0-0.7,0-1.3-0.1-2l1,0.6h1.3c0-1.3,0-1.4,0-1.8c-0.4,0-1.5,0.1-2.2,0.2l-0.5-0.8c1,0.1,1.9,0.1,2.7,0.1c0-1.7,0-2.1-0.3-2.8
			l1.5,0.4c0.1,0,0.2,0,0.2,0.2c0,0.2-0.1,0.3-0.6,0.6v1.7h1l0.5-0.6c0.2-0.2,0.2-0.2,0.3-0.2c0.1,0,0.3,0.2,0.4,0.2l0.8,0.6
			c0.1,0.1,0.2,0.2,0.2,0.3C371.6,38.2,371.5,38.2,371.3,38.2z M366.2,40.5v3.8h1.4c0-1.2,0-1.5,0-3.8H366.2z M370,40.5h-1.4
			c0,1.9,0,2.1,0,3.8h1.4V40.5z M373.9,49.8c-0.1,0-0.3,0-0.4,0c-0.5,0.4-2.2,1.3-3.8,1.5l-0.1-0.1c1.4-0.7,3-1.9,3.3-2.8l1,1
			c0.1,0.1,0.2,0.2,0.2,0.3C374.2,49.7,374.1,49.8,373.9,49.8z M377.8,36.7h-2.8c-0.3,0.7-0.9,1.9-1.4,2.6h2.3l0.4-0.4
			c0.1-0.2,0.2-0.2,0.2-0.2c0.1,0,0.2,0.1,0.3,0.2l0.6,0.6c0.1,0.1,0.2,0.2,0.2,0.3c0,0.2-0.3,0.3-0.6,0.4c0,0.6,0,1.1,0,2
			c0,0.8,0.1,4.7,0.1,5.6c0,0.2,0,0.8-0.6,0.8c-0.4,0-0.4-0.3-0.4-0.7h-3.2c0,0.4-0.6,0.5-0.7,0.5c-0.2,0-0.3-0.2-0.3-0.4
			c0-0.2,0-0.9,0-1.1c0-2.1,0.1-4.3,0.1-6.4c0-1.3,0-1.5-0.1-1.8l0.9,0.5h0.4c0.2-0.6,0.5-1.5,0.6-2.6c-0.5,0-1.6,0.1-2.4,0.2
			l-0.4-0.8c1,0.1,2.2,0.1,3.2,0.1h1.8l0.5-0.6c0.2-0.2,0.2-0.3,0.3-0.3c0.1,0,0.1,0,0.4,0.2l0.9,0.6c0.1,0.1,0.2,0.2,0.2,0.3
			C378,36.7,377.8,36.7,377.8,36.7z M376,39.8h-3.2V42h3.2V39.8z M376,42.4h-3.2v2.3h3.2V42.4z M376,45.2h-3.2v2.4h3.2V45.2z
			 M377.2,51.5c-0.2,0-0.3-0.1-0.6-0.6c-0.7-1.2-1.3-1.7-1.6-1.9l0-0.1c0.7,0.2,2.8,0.8,2.8,1.9C377.9,51.4,377.3,51.5,377.2,51.5z"
			/>
		<path d="M397,38.4h-9l1.5,0.5c0.1,0,0.2,0.1,0.2,0.2c0,0.2-0.3,0.4-0.6,0.6c-0.1,0.7-0.1,1.2-0.1,1.9h4.1l0.5-0.5
			c0,0,0.2-0.2,0.3-0.2c0.1,0,0.3,0.2,0.3,0.2l0.5,0.4c0.3,0.3,0.3,0.3,0.3,0.4c0,0.2-0.3,0.4-0.5,0.5c0,0.5,0.1,5.2,0.1,6.2
			c0,0.6,0,0.9-0.5,1.3c-0.5,0.5-1,0.6-1.3,0.6c-0.2-0.4-0.4-0.9-1.5-1.4v-0.2c0.3,0,0.6,0.1,1.1,0.1c1.2,0,1.2-0.2,1.2-0.5
			c0-0.8,0-2.7,0-4.2V42h-4.6c0,2.1,0,3,0.1,6.6c0,0.4,0.1,2.2,0.1,2.6c0,0.7-0.8,0.9-0.9,0.9c-0.4,0-0.4-0.3-0.4-0.8
			c0-0.1,0.2-3.4,0.2-4c0-1.6,0-3.5,0-5.3H384v0.2l0,3.7l0.1,3.4c0,0.5,0,1-0.8,1c-0.4,0-0.4-0.3-0.4-0.4c0-0.2,0-0.9,0.1-1.1
			c0.1-1.6,0.1-3.2,0.1-4.9c0-2-0.1-2.4-0.2-3.2l1.6,0.7h3.8c0-2.3,0-2.5-0.2-3.2h-5.1c-0.7,0-1.7,0.1-2.4,0.2l-0.5-0.8
			c1.4,0.1,2.8,0.2,3.2,0.2h5c0-2.2-0.1-2.7-0.5-3.3l1.8,0.4c0.2,0,0.4,0.1,0.4,0.3c0,0.2-0.3,0.4-0.7,0.6c0,1,0,1.5,0,2h5.5
			l0.7-0.9c0.1-0.1,0.2-0.2,0.3-0.2c0.1,0,0.3,0.2,0.3,0.2l1,0.9c0.1,0.1,0.2,0.2,0.2,0.3C397.3,38.3,397.2,38.4,397,38.4z"/>
		<path d="M409,43.4c0,0.7-0.6,1.3-1.3,1.3c-0.7,0-1.3-0.6-1.3-1.3c0-0.7,0.6-1.3,1.3-1.3C408.4,42.1,409,42.6,409,43.4z"/>
		<path d="M423.4,41.3c-1.8,3.3-3.7,6-5.7,7.3l-0.1-0.1c1.6-1.4,3.7-5.5,4.4-7.6c0.2-0.4,0.2-0.8,0.1-1.1l1.7,0.8
			c0.4,0.2,0.4,0.2,0.4,0.3C424.2,41.1,423.5,41.3,423.4,41.3z M427.9,36.1c-0.3,0.2-0.3,0.3-0.5,0.4c0,0.5,0,0.9,0,4.3v4.8v4
			c0,0.7,0,1.9-2,2.1c-0.1-0.3-0.1-0.6-0.8-1c-0.6-0.3-1.1-0.6-1.4-0.6l0-0.2c0.2,0,2.1,0.1,2.3,0.1c0.5,0,0.7-0.1,0.8-0.4
			c0.1-0.3,0.1-2.4,0.1-2.8c0-0.6,0-5.8,0-5.9c0-0.5,0-2.4,0-2.8c0-1.8-0.1-2.2-0.3-3.1l1.7,0.5c0.2,0.1,0.4,0.1,0.4,0.3
			C428.1,35.9,428,36,427.9,36.1z M434.3,47.1c-0.6,0-0.7-0.4-1.2-1.6c-0.5-1.4-1.8-3.3-3.8-4.8l0.1-0.1c3.4,1.4,5.7,3.8,5.7,5.7
			C435.1,46.9,434.6,47.1,434.3,47.1z"/>
		<path d="M454,44.5h-7.8c0,1.8,0,4.7,0,6.6c0,0.3,0,0.6-0.2,0.7c-0.2,0.2-0.5,0.3-0.7,0.3c-0.4,0-0.5-0.3-0.5-0.6
			c0-0.1,0-0.2,0-0.7c0.1-0.9,0.1-5.4,0.2-6.4h-5.2c-0.4,0-1.5,0-2.5,0.2l-0.5-0.8c1,0.1,2.2,0.2,3.2,0.2h4.9c0-0.7,0-1.4,0-1.6
			c0-0.9,0-5,0-5.9h-4.2c-0.4,0-1.5,0-2.5,0.2l-0.4-0.8c1,0.1,2.2,0.2,3.2,0.2h9.7l0.7-0.9c0.2-0.2,0.2-0.2,0.3-0.2
			c0.1,0,0.2,0.1,0.3,0.2l1.1,0.9c0,0,0.2,0.2,0.2,0.3c0,0.2-0.2,0.2-0.3,0.2h-6.9c0,1,0,5.8,0,6.8V44h5.4l0.8-0.9
			c0.2-0.2,0.2-0.2,0.3-0.2c0.1,0,0.3,0.1,0.3,0.2l1,0.9c0,0,0.2,0.2,0.2,0.3C454.3,44.5,454.1,44.5,454,44.5z M441.5,42.4
			c0.2,0,0.6-0.2,0.6-0.7c0-0.3-0.2-1.1-1-2c-0.2-0.2-0.3-0.3-1.9-1.6l-0.1,0.1c0.3,0.3,0.6,0.8,1.2,2.4
			C440.8,42,441,42.4,441.5,42.4z M452.3,39.1c-0.2,0-0.2,0-0.8,0c-1.1,1.6-1.7,2.2-3.7,4l-0.1-0.1c1.4-1.8,2.7-4.3,2.9-5.5l1.7,1.1
			c0.1,0.1,0.2,0.1,0.2,0.2C452.4,39.1,452.3,39.1,452.3,39.1z"/>
		<path d="M473,38.4h-9l1.5,0.5c0.1,0,0.2,0.1,0.2,0.2c0,0.2-0.3,0.4-0.6,0.6c-0.1,0.7-0.1,1.2-0.1,1.9h4.1l0.5-0.5
			c0,0,0.2-0.2,0.3-0.2c0.1,0,0.3,0.2,0.3,0.2l0.5,0.4c0.3,0.3,0.3,0.3,0.3,0.4c0,0.2-0.3,0.4-0.5,0.5c0,0.5,0.1,5.2,0.1,6.2
			c0,0.6,0,0.9-0.5,1.3c-0.5,0.5-1,0.6-1.3,0.6c-0.2-0.4-0.4-0.9-1.5-1.4v-0.2c0.3,0,0.6,0.1,1.1,0.1c1.2,0,1.2-0.2,1.2-0.5
			c0-0.8,0-2.7,0-4.2V42h-4.6c0,2.1,0,3,0.1,6.6c0,0.4,0.1,2.2,0.1,2.6c0,0.7-0.8,0.9-0.9,0.9c-0.4,0-0.4-0.3-0.4-0.8
			c0-0.1,0.2-3.4,0.2-4c0-1.6,0-3.5,0-5.3H460v0.2l0,3.7l0.1,3.4c0,0.5,0,1-0.8,1c-0.4,0-0.4-0.3-0.4-0.4c0-0.2,0-0.9,0.1-1.1
			c0.1-1.6,0.1-3.2,0.1-4.9c0-2-0.1-2.4-0.2-3.2l1.6,0.7h3.8c0-2.3,0-2.5-0.2-3.2h-5.1c-0.7,0-1.7,0.1-2.4,0.2l-0.5-0.8
			c1.4,0.1,2.8,0.2,3.2,0.2h5c0-2.2-0.1-2.7-0.5-3.3l1.8,0.4c0.2,0,0.4,0.1,0.4,0.3c0,0.2-0.3,0.4-0.7,0.6c0,1,0,1.5,0,2h5.5
			l0.7-0.9c0.1-0.1,0.2-0.2,0.3-0.2c0.1,0,0.3,0.2,0.3,0.2l1,0.9c0.1,0.1,0.2,0.2,0.2,0.3C473.3,38.3,473.2,38.4,473,38.4z"/>
		<path d="M492,43.8h-14.2c-0.7,0-1.7,0.1-2.4,0.2l-0.5-0.8c1.4,0.1,2.8,0.1,3.2,0.1h5c0-0.9,0-1.1,0-2.1h-2.8
			c-0.7,0-1.7,0.1-2.5,0.2l-0.5-0.8c1.4,0.1,2.8,0.1,3.2,0.1h2.6c0-0.9,0-1.2-0.3-1.7l1.7,0.4c0.2,0,0.2,0.1,0.2,0.2
			c0,0.2-0.1,0.2-0.6,0.6c0,0.2,0,0.2,0,0.6h3.9l0.6-0.6c0.2-0.2,0.2-0.2,0.3-0.2c0.1,0,0.3,0.1,0.3,0.2l0.8,0.6
			c0.1,0.1,0.2,0.1,0.2,0.3c0,0.2-0.2,0.2-0.3,0.2H484c0,0.9,0,1,0,2.1h5.9l0.6-0.7c0.2-0.2,0.2-0.2,0.3-0.2c0.1,0,0.1,0,0.3,0.2
			l1,0.7c0.1,0,0.2,0.2,0.2,0.3C492.3,43.8,492.1,43.8,492,43.8z M482.8,37.8h-3.6c0.6,0.4,1.5,1,1.5,1.7c0,0.2-0.1,0.6-0.6,0.6
			c-0.5,0-0.6-0.4-0.6-0.7c-0.1-0.6-0.3-1.1-0.6-1.6H478c-0.3,0.3-1.4,1.7-2.6,2.4l-0.1-0.1c1.4-1.6,2.5-3.5,3-4.6
			c0.2-0.3,0.2-0.4,0.2-1.1l1.6,0.7c0,0,0.2,0.1,0.2,0.2c0,0.1-0.1,0.2-0.1,0.2c-0.1,0.1-0.6,0.2-0.6,0.2c-0.2,0.4-0.5,0.8-1.1,1.6
			h2.8l0.4-0.5c0.2-0.2,0.2-0.2,0.3-0.2c0.1,0,0.1,0,0.3,0.2l0.6,0.5c0.1,0.1,0.2,0.2,0.2,0.3C483.1,37.7,483,37.8,482.8,37.8z
			 M491.4,46.6h-4.3c0,0.5,0.1,2.8,0.1,3.2c0,0.6,0,2-2.2,2.3c-0.1-0.8-0.4-0.9-1.8-1.7l0-0.1c1.2,0.1,1.4,0.1,1.7,0.1
			c0.2,0,1,0,1.1-0.1c0.1-0.1,0.2-0.4,0.2-0.6v-3.2h-7.4c-0.7,0-1.7,0.1-2.4,0.2l-0.5-0.8c1.4,0.1,2.8,0.1,3.2,0.1h7.1
			c0-0.6,0-1.5-0.2-2l1.5,0.4c0.1,0,0.3,0.1,0.3,0.2c0,0.2-0.1,0.3-0.5,0.5c0,0.3,0,0.8,0,0.9h2.2l0.6-0.7c0.2-0.2,0.2-0.2,0.3-0.2
			c0.1,0,0.1,0,0.4,0.2l0.9,0.7c0.1,0.1,0.2,0.2,0.2,0.3C491.7,46.6,491.5,46.6,491.4,46.6z M481.5,49.9c-0.5,0-0.5-0.2-0.9-1.5
			c-0.2-0.7-0.6-1.2-0.8-1.4l0.1-0.1c1,0.5,2.3,1.2,2.3,2.3C482.2,49.6,481.9,49.9,481.5,49.9z M491.6,37.8h-5.1
			c1.1,0.6,1.4,1,1.4,1.5c0,0.4-0.3,0.7-0.6,0.7c-0.4,0-0.5-0.3-0.6-0.7c-0.2-0.9-0.2-1-0.6-1.5h-1.6c-0.5,0.5-0.9,0.8-1.2,1.1
			l-0.1-0.1c0.7-1.1,1.5-2.4,1.9-3.5c0.1-0.3,0.1-0.5,0.1-1l1.5,0.7c0.1,0.1,0.2,0.1,0.2,0.3c0,0.2-0.1,0.2-0.8,0.4
			c-0.7,1-0.9,1.3-1.2,1.6h4.7l0.7-0.7c0.2-0.2,0.2-0.2,0.3-0.2c0.1,0,0.1,0,0.3,0.2l0.8,0.7c0.1,0.1,0.2,0.2,0.2,0.3
			C491.9,37.7,491.8,37.8,491.6,37.8z"/>
		<path d="M494.8,46.9c0.9,0.2,2.4,0.5,3.6,1.5c1.1,1,1.1,2,1.1,2.1c0,0.6-0.5,1-0.9,1c-0.3,0-0.5-0.2-0.9-1
			c-0.9-1.9-1.3-2.7-2.9-3.4L494.8,46.9z"/>
		<path d="M526.1,37.1c-1.6,2-4.3,4.4-5.9,5.4c-2,1.3-5.6,2.8-6.9,2.9l-0.1-0.2c1.9-0.7,5.1-2.4,6.4-3.4c1.5-1.1,3.7-3.1,5.4-5.4
			h-4.7c-0.6,0.7-0.8,1-1.6,1.8c0.1,0,0.2,0.1,0.8,0.3c0.3,0.1,1.7,0.6,1.7,1.6c0,0.5-0.3,0.7-0.6,0.7c-0.4,0-0.6-0.3-0.8-0.8
			c-0.4-0.9-0.5-1-1.1-1.6c-1.7,1.8-3.6,2.8-4.5,3.2l-0.1-0.2c0.7-0.5,2.9-2.3,4.6-4.6c1.3-1.7,1.4-2.2,1.5-2.9l1.4,0.8
			c0.2,0.1,0.2,0.1,0.2,0.3c0,0.3-0.2,0.3-0.7,0.4c-0.2,0.3-0.2,0.3-0.4,0.5h4.4l0.8-0.6c0.2-0.1,0.2-0.1,0.2-0.1
			c0.1,0,0.1,0,0.2,0.1l1.1,0.7c0.1,0.1,0.2,0.2,0.2,0.3C527.6,36.8,527.5,36.8,526.1,37.1z M528.7,44.2c-2,2.3-4.2,4.4-6.3,5.7
			c-1.3,0.8-4.2,2.3-8.1,2.5l0-0.2c2.2-0.5,5.5-1.3,8.9-4.2c2.5-2.1,3.7-3.8,4.1-4.6H523c-1.1,1-1.8,1.6-2.5,2.1
			c0.6,0.2,2.6,1,2.6,2.2c0,0.5-0.4,0.7-0.7,0.7c-0.4,0-0.4-0.2-0.6-0.7c-0.1-0.3-0.5-1.1-1.5-2.1c-0.5,0.3-1,0.6-1.5,0.9
			c-1.5,0.9-3,1.5-4.4,1.8l0-0.2c0.5-0.2,1.6-0.7,2.7-1.3c2.4-1.4,4.6-3.6,5.3-4.4c1.1-1.2,1.2-1.4,1.4-2.2l1.4,0.8
			c0,0,0.2,0.1,0.2,0.3c0,0.3-0.2,0.3-0.8,0.4c-0.2,0.3-0.5,0.7-1.2,1.3h4.1l0.6-0.5c0.2-0.1,0.2-0.1,0.2-0.1c0.1,0,0.1,0,0.3,0.2
			l1.1,0.8c0.2,0.1,0.2,0.2,0.2,0.3C530,44,529.7,44,528.7,44.2z"/>
		<path d="M541.7,38.7h-4.1v0.7c2.5,0.7,3.1,1.1,3.1,1.8c0,0.3-0.2,0.6-0.5,0.6c-0.3,0-0.5-0.2-0.6-0.4c-0.5-0.6-1.3-1.2-2-1.6
			c0,0.2,0,3.1,0,3.1c0,0.6-0.4,0.6-0.7,0.6c-0.4,0-0.4-0.2-0.4-0.4c0-0.1,0.1-0.7,0.1-0.8c0.1-1.2,0.1-2.2,0.1-2.5
			c-1.1,1.5-2.5,2.8-4.1,3.8l-0.1-0.2c1.5-1.4,2.8-3,3.9-4.7h-0.9c-0.7,0-1.7,0.1-2.5,0.2l-0.4-0.8c1.4,0.1,2.8,0.1,3.2,0.1h1
			c0-2.2-0.2-2.9-0.3-3.4l1.3,0.3c0.2,0,0.4,0.1,0.4,0.3c0,0.2-0.1,0.2-0.5,0.5c0,0.4-0.1,1,0,2.3h2.7l0.2-0.4
			c0.1-0.1,0.2-0.3,0.3-0.3c0.1,0,0.3,0.1,0.4,0.2l0.6,0.5c0.1,0.1,0.2,0.2,0.2,0.3C542,38.7,541.8,38.7,541.7,38.7z M542.1,46h-2.5
			l0.4,0.1c0.2,0.1,0.3,0.2,0.3,0.3c0,0.2-0.3,0.3-0.4,0.3c-0.4,0.9-0.9,1.6-1.3,2.1c0.2,0.1,1.7,0.8,1.7,1.5c0,0.3-0.2,0.5-0.5,0.5
			c-0.3,0-0.5-0.2-0.7-0.4c-0.4-0.5-0.9-0.8-1.1-0.9c-0.7,0.7-2.8,2.4-5.2,2.4l0-0.2c1.2-0.3,2.7-0.9,4.4-2.7
			c-0.9-0.5-1.5-0.7-1.9-0.7c-0.2,0.4-0.3,0.6-0.7,0.6c-0.2,0-0.5,0-0.5-0.3c0-0.1,0.1-0.2,0.1-0.2c0.4-0.6,0.7-1.4,1.2-2.4
			c-0.6,0-1.7,0.1-2.4,0.2l-0.4-0.8c1,0.1,2.1,0.1,3.1,0.2c0.6-1.3,0.6-1.6,0.7-2.1l1.1,0.6c0.1,0,0.2,0.1,0.2,0.3
			c0,0.2-0.1,0.2-0.6,0.4c-0.1,0.3-0.2,0.4-0.4,0.9h3.7l0.5-0.6c0.1-0.1,0.2-0.2,0.3-0.2c0.1,0,0.3,0.1,0.4,0.2l0.7,0.6
			c0.1,0.1,0.2,0.2,0.2,0.3C542.4,46,542.2,46,542.1,46z M535.2,37.5c-0.3,0-0.5-0.3-0.6-0.6c-0.2-0.5-0.5-1-0.9-1.4l0.1-0.1
			c1,0.3,1.4,0.7,1.5,0.8c0.3,0.3,0.3,0.6,0.3,0.8C535.6,37.4,535.4,37.5,535.2,37.5z M536.4,46c-0.1,0.3-0.2,0.3-0.3,0.6
			c-0.1,0.2-0.6,1.3-0.7,1.6c0.4,0,1.1,0,2.2,0.4c0.8-1,1.1-1.9,1.3-2.5H536.4z M540.1,36.4c-0.9,0.9-1.5,1.3-1.9,1.5l-0.1-0.1
			c0.3-0.3,1.3-1.7,1.4-2.6l1.2,0.8c0.1,0,0.1,0.1,0.1,0.2C540.8,36.3,540.8,36.3,540.1,36.4z M548.5,51.6c-1.6-1.2-2.6-2.2-3.5-3.4
			c-1.3,1.8-3.1,3.2-5.2,3.9l-0.1-0.1c1.8-0.9,3.8-3,4.7-4.6c-1.3-2.2-1.6-4.7-1.6-6.8c-0.7,1.1-1.5,2.5-2.3,3.2l-0.1-0.1
			c1.6-2.6,3.5-7.4,3.5-8.4c0-0.2,0-0.5-0.1-0.7l1.6,0.7c0.2,0.1,0.4,0.2,0.4,0.4c0,0.2-0.2,0.3-0.8,0.5c-0.2,0.6-0.7,1.8-1.7,3.6h4
			l0.4-0.7c0.1-0.1,0.2-0.3,0.3-0.3c0.1,0,0.2,0.1,0.3,0.2l0.9,0.7c0.1,0.1,0.2,0.2,0.2,0.3c0,0.2-0.2,0.2-0.3,0.2h-2.7l1.2,0.7
			c0.2,0.1,0.2,0.2,0.2,0.3c0,0.2-0.2,0.3-0.6,0.5c-0.7,3.1-0.9,4.1-1.8,5.8c1.2,1.5,2.9,2.4,4.7,2.8v0.1
			C549.8,50.7,549,51,548.5,51.6z M543.1,40.2c0.3,2.9,0.9,4.9,1.8,6.4c0.6-1.1,0.9-2.2,1.2-4.3c0.1-1,0.2-1.9,0.2-2.1H543.1z"/>
		<path d="M557.6,36.1c-0.1,0.1-0.4,0.1-0.8,0.2c-0.2,0.6-0.6,1.5-1.3,2.9l0.3,0.2c0.1,0.1,0.2,0.2,0.2,0.3c0,0.2-0.3,0.4-0.6,0.6
			c0,2.8,0,5.3,0.1,8c0,0.5,0.1,2.5,0.1,2.8c0,0.9-0.8,1-0.9,1c-0.5,0-0.5-0.4-0.5-0.6c0-0.3,0.1-1.5,0.1-1.8c0.1-1.8,0-2.5,0-8.6
			c-0.5,0.9-2,3.3-3.4,4.4l-0.2-0.1c1.9-2.9,3.5-5.6,4.7-9.6c0.2-0.7,0.2-0.8,0.2-1.3l1.7,0.9c0.2,0.1,0.3,0.2,0.3,0.3
			C557.7,36,557.7,36.1,557.6,36.1z M568,41.8h-5.4c0,1.5,0,2.2,0,8.5h2.7l0.8-0.9c0.2-0.2,0.2-0.2,0.3-0.2c0.1,0,0.2,0.1,0.3,0.2
			l1,0.9c0.1,0.1,0.2,0.2,0.2,0.3c0,0.2-0.2,0.2-0.3,0.2h-8.3c-0.7,0-1.7,0.1-2.4,0.2l-0.5-0.8c1.4,0.1,2.8,0.1,3.2,0.1h2
			c0-6.3,0-7,0-8.5h-2.9c-0.7,0-1.7,0.1-2.5,0.2l-0.5-0.8c1.4,0.1,2.8,0.2,3.2,0.2h2.7c0-0.8,0-4.1-0.1-4.7c0-0.9-0.2-1.3-0.3-1.7
			l1.7,0.5c0.2,0.1,0.3,0.1,0.3,0.3c0,0.2-0.2,0.4-0.6,0.6c0,0.7,0,1.9,0,2.6c0,0.8,0,1.6,0,2.4h3l0.7-0.9c0.1-0.1,0.2-0.2,0.3-0.2
			c0.1,0,0.2,0.1,0.3,0.2l1.2,0.9c0.1,0.1,0.2,0.2,0.2,0.3C568.3,41.7,568.1,41.8,568,41.8z"/>
		<path d="M585.5,51.3c-2.6-1.7-4.6-4.2-5.8-7.1c-0.3-0.7-0.5-1.4-0.7-2.1c-1.7,5.3-5.5,8.7-8.8,9.6l-0.1-0.2
			c5.3-2.7,8-8.9,7.9-11.7l0.6,0.2c-0.3-1.6-0.3-2.8-0.3-3.6h-1.6c-0.7,0-1.7,0.1-2.5,0.2l-0.4-0.8c1.4,0.1,2.8,0.2,3.2,0.2h1
			l0.7-0.6c0.1-0.1,0.2-0.2,0.3-0.2c0.1,0,0.3,0.1,0.3,0.1l1,0.7c0.1,0.1,0.2,0.2,0.2,0.3c0,0.1-0.1,0.2-0.2,0.2
			c-0.2,0.1-1,0.5-1.2,0.6c0,0.3-0.1,0.6-0.1,1.1c0,5.4,3.5,10.3,8.3,11.8v0.2C586.8,50.3,586,50.5,585.5,51.3z"/>
		<path d="M605.4,43.1c-0.2,0-0.3,0-1.3,0.1c-0.6,0.5-3,2-3.8,2.5l-0.1-0.1c0.6-0.6,2.4-2.5,2.7-2.9h-4.6v7.2c0,1.2-0.8,2.3-2.2,2.4
			c0-0.3,0-0.5-0.3-0.8c-0.1-0.1-0.7-0.7-2-1.2l0-0.1c0.9,0.2,2.3,0.3,2.6,0.3c0.5,0,0.8,0,0.8-0.8v-7h-5.3c-0.7,0-1.7,0.1-2.4,0.2
			l-0.5-0.8c1.4,0.1,2.8,0.2,3.2,0.2H603l0.8-0.7c0.2-0.2,0.3-0.2,0.4-0.2c0.2,0,0.3,0.1,0.4,0.2l1.1,1.1c0.1,0.1,0.1,0.2,0.1,0.3
			C605.9,43,605.6,43,605.4,43.1z M602,37.3c-1.3,1-1.7,1.2-3.7,2.3c0.4,0.3,0.6,0.7,0.6,1.2c0,0.3-0.2,0.8-0.7,0.8
			c-0.4,0-0.5-0.2-0.9-0.9c-0.7-1.1-1.7-2-2.8-2.6l0.1-0.1c1.2,0.2,2.4,0.6,3.4,1.4c1.6-1.3,2.2-1.9,2.7-2.6h-7.1
			c-0.7,0-1.7,0.1-2.5,0.2l-0.4-0.8c1.4,0.1,2.8,0.2,3.2,0.2h6.9l0.9-0.6c0.2-0.2,0.3-0.2,0.4-0.2c0.1,0,0.1,0,0.5,0.2l1.1,0.8
			c0.1,0.1,0.2,0.2,0.2,0.3C603.8,37.3,603.5,37.3,602,37.3z"/>
		<path d="M624.2,38.9c-0.1,0-0.2,0-0.5,0c-0.3,0.2-1.6,0.9-1.9,1.1l-0.1-0.1c0-0.1,0.5-1.1,0.7-1.8h-11.3c-0.2,1.7-1.4,2.7-2.1,2.7
			c-0.4,0-0.6-0.3-0.6-0.6c0-0.3,0.2-0.4,0.7-0.9c0.9-0.7,1.7-1.5,1.9-2.6h0.1c0,0.2,0,0.8,0,0.9h5.1c0-1.6,0-1.9-0.3-3l1.7,0.4
			c0.1,0,0.3,0.1,0.3,0.3c0,0.2-0.2,0.3-0.6,0.7c0,0.3,0,1.4,0,1.6h4.9l0.7-0.5c0.2-0.1,0.2-0.1,0.3-0.1c0.1,0,0.2,0.1,0.3,0.1
			l1.2,1c0.1,0.1,0.3,0.2,0.3,0.4C625,38.9,624.4,38.9,624.2,38.9z M624.6,52c-1.8,0-4.7,0-7.4-0.7c-3.1-0.8-4.2-3.5-4.4-3.9
			c-0.7,1.8-1.9,3.5-4.4,4.9l-0.1-0.1c1.9-1.9,3.5-3.9,4-7.3c0.1-0.5,0.1-0.7,0.1-1.1l1.5,0.6c0.1,0.1,0.2,0.2,0.2,0.3
			c0,0.3-0.2,0.3-0.6,0.5c-0.2,0.7-0.4,1.3-0.6,1.9c0.5,1.5,1.7,2.7,3.3,3.2v-7.9h-4.1c-0.4,0-1.5,0-2.4,0.2l-0.5-0.8
			c1,0.1,2.2,0.2,3.2,0.2h9.3l0.8-0.9c0.1-0.2,0.2-0.2,0.3-0.2c0.1,0,0.3,0.2,0.4,0.2l1,0.9c0.1,0.1,0.2,0.2,0.2,0.3
			c0,0.2-0.2,0.2-0.3,0.2h-6.8v3.4h3.3l0.6-0.8c0.1-0.1,0.2-0.2,0.3-0.2c0.1,0,0.2,0.1,0.3,0.2l1,0.8c0.1,0.1,0.2,0.2,0.2,0.3
			c0,0.2-0.2,0.2-0.3,0.2h-5.5v4.2c0.4,0.1,1.4,0.2,2.8,0.2c1.9,0,3.9-0.2,5.8-0.6v0.1C625.3,50.6,624.7,51.2,624.6,52z"/>
		<path d="M634.8,50c0-0.5,0.4-0.9,1-0.9s1,0.5,1,0.9c0,0.5-0.4,1-1,1C635.1,50.9,634.8,50.5,634.8,50z M635.4,45.1
			c0-1-0.4-6.5-0.5-7.5c0-0.1,0-0.2,0-0.4c0-0.5,0.4-0.9,0.8-0.9c0.5,0,0.8,0.4,0.8,0.9c0,0.1,0,0.3,0,0.4c-0.1,1-0.5,6.4-0.5,7.5
			v3.1h-0.6V45.1z"/>
		<path d="M15.8,77.3c-0.1,0.1-0.3,0.2-0.5,0.3c0,1.7,0,4.2,0.1,5.9c0,0.2,0.1,1.3,0.1,1.5c0,0.7-0.7,0.9-0.9,0.9
			c-0.4,0-0.4-0.3-0.4-0.4c0-0.1,0.1-0.7,0.1-0.8H4.1c-0.7,0-1.7,0.1-2.4,0.2l-0.5-0.8c1.4,0.1,2.8,0.1,3.2,0.1h9.8
			c0-0.9,0-2.2,0-3.1v-0.2H5c-0.7,0-1.7,0.1-2.4,0.2l-0.5-0.8c1.4,0.1,2.8,0.2,3.2,0.2h9v-3.3H4.1c-0.7,0-1.7,0.1-2.4,0.2l-0.5-0.8
			c1.4,0.1,2.8,0.2,3.2,0.2h3.9c0-5.7,0-7-0.5-8.2l1.9,0.5c0.2,0.1,0.3,0.1,0.3,0.3S9.9,69.7,9.4,70c0,0.9,0,6.4,0,6.8H14l0.5-0.6
			c0.1-0.1,0.2-0.2,0.3-0.2c0.1,0,0.2,0.1,0.3,0.2l0.7,0.6c0.1,0.1,0.2,0.1,0.2,0.2C16,77.1,15.9,77.2,15.8,77.3z M5.3,75.4
			c-0.5,0-0.6-0.3-0.8-1.1C4,73.2,3.5,72,2.8,71.1l0-0.1c1.2,0.5,2.1,1.5,2.5,2.1c0.3,0.4,0.6,0.9,0.6,1.5C5.9,75,5.7,75.4,5.3,75.4
			z M14.6,71.9c-1.4,1.7-2.3,2.7-4,4.2L10.5,76c1-1.2,1.9-2.6,2.6-4c0.7-1.3,0.7-1.7,0.6-2l1.7,1.1c0.1,0.1,0.2,0.2,0.2,0.3
			C15.6,71.5,15.6,71.6,14.6,71.9z"/>
		<path d="M28.5,74.3c0,0.1-0.2,0.7-0.2,0.8c-0.2,0.9-0.3,4.7-0.4,5.5c0.9-0.1,3.9-0.1,4.8-0.1c0.1,0,0.5,0,0.6,0
			c0.1,0,0.7-0.1,0.7-0.1c0.5,0,1.7,0.5,1.7,1.2c0,0.2-0.1,0.3-0.3,0.3c-0.1,0-0.7-0.1-1-0.2c-1.7-0.4-2.7-0.5-4.1-0.5
			c-1.7,0-6.4,0.3-8.1,0.9c-0.1,0-0.7,0.3-0.8,0.3c-0.4,0-1.6-0.8-1.6-1.8c0-0.2,0-0.3,0.1-0.5c0.3,0.5,0.9,1.1,1.7,1.1
			c0.2,0,0.5,0,0.7,0c3.5-0.4,3.9-0.4,4.8-0.5c0.2-3.3,0.2-3.8,0.2-4.3c0-1.4-0.2-2-0.5-2.4c-0.4,0-1.1,0.1-1.9,0.2
			c-0.1,0-0.7,0.1-0.8,0.1c-0.6,0-1-0.6-1.1-0.7c-0.4-0.4-0.4-0.7-0.4-0.9c0.4,0.5,1.3,0.8,2.1,0.8c0.9,0,5.6-0.5,5.8-0.5
			c0.3-0.1,0.4-0.1,0.7-0.2c0.1-0.1,0.2-0.1,0.2-0.1c0.1,0,1.3,0.3,1.3,0.8c0,0.2-0.3,0.2-0.4,0.2c-0.9,0-1.8,0.1-4.2,0.2
			C28.3,73.9,28.5,74.1,28.5,74.3z"/>
		<path d="M43.6,77.4V78c0,0.3,0,1.2-0.5,1.2c-0.5,0-0.7-1.1-0.7-1.5c0-0.2,0-0.3,0.1-1c0-0.2,0.1-0.5,0.1-1.8c0-0.6,0-2.1-0.2-2.5
			c-0.1-0.3-0.2-0.4-1.3-0.7c0.4-0.3,0.7-0.4,1-0.4c0.3,0,1.7,0.3,1.7,0.8c0,0.1-0.2,0.7-0.2,0.8c-0.1,0.6-0.1,2.5-0.1,4V77.4z
			 M45,85.3c3.7-2.8,4.5-5.3,4.5-11.3c0-0.5,0-2.4-0.2-2.7c-0.2-0.4-1.1-0.5-1.4-0.5c0.2-0.2,0.6-0.6,1.1-0.6c0.6,0,1.6,0.3,1.8,0.6
			c0.1,0.1,0.1,0.2,0.1,0.3c0,0.2-0.2,0.8-0.2,0.9c-0.1,0.3-0.1,0.7-0.1,1.2c-0.1,4.7-0.2,5.3-0.6,7c-0.2,0.8-1.2,4-4.9,5.3L45,85.3
			z"/>
		<path d="M61.4,85.1c2.9-3.1,4-8.1,4-9.4c0-0.6-0.9-0.9-1.2-1.1c0.4-0.2,0.6-0.2,0.9-0.2c0.7,0,1.7,0.6,1.7,1
			c0,0.1-0.1,0.4-0.1,0.5c1.8-1.2,3.8-3.4,3.8-3.6c0-0.1-0.1-0.1-0.4-0.1c-2.1,0-8,0.9-8.1,0.9c-0.6,0.1-0.8,0.2-1.2,0.4
			c-0.2,0.1-0.3,0.1-0.3,0.1c-0.2,0-0.4-0.2-0.7-0.4c-0.6-0.6-0.8-0.9-0.8-1.4c0-0.2,0-0.5,0.1-0.9c0.7,1.2,1.4,1.3,1.9,1.3
			c1.3,0,8.7-0.7,9.2-0.8c0.3-0.1,0.6-0.2,0.6-0.2c0.2-0.1,0.2-0.2,0.3-0.2c0.2,0,0.6,0.6,0.8,0.8c0.2,0.3,0.7,0.8,0.7,1
			c0,0.3-0.2,0.3-0.8,0.3c-0.3,0-0.5,0.2-1.4,0.8c-1.6,1.1-2.2,1.6-2.8,2c-0.4,0.2-0.8,0.5-1.1,0.6c-0.1,0.4-0.5,2-0.6,2.3
			c-0.3,1.2-1.1,3.3-2.8,5.1c-0.7,0.8-1.4,1.2-1.7,1.4L61.4,85.1z"/>
		<path d="M78.6,73.3c0.5,0,1-0.1,3.1-0.7c2.8-0.8,8.5-2,8.7-2c0.3,0,1.3,0.3,1.3,0.9c0,0.5-0.5,0.5-0.7,0.5c-0.2,0-1-0.1-1.1-0.1
			c-2.1,0-3.2,0.5-4.3,1.5c-1.9,1.7-2.5,3.7-2.5,5.1c0,3.3,3.4,4.3,4.8,4.5c0.5,0.1,0.8,0.1,1.1,0.5c0.1,0.2,0.2,0.4,0.2,0.5
			c0,0.3-0.3,0.4-0.5,0.4c-2,0-6.4-1.4-6.4-5.7c0-3.3,2.4-5.2,4.4-6.8c-1.1,0.3-2.5,0.7-3.8,1c-2.4,0.6-3.1,1-4,1.5
			c-0.1,0.1-0.3,0.2-0.6,0.2c-0.3,0-1.3-0.5-1.3-1.7c0-0.3,0.1-0.4,0.1-0.6C77.9,73.2,78,73.3,78.6,73.3z M89.4,74.6
			c1.3,0.8,1.4,1.3,1.4,1.7c0,0.2,0,0.6-0.4,0.6c-0.2,0-0.3-0.2-0.5-0.4c-0.6-1.2-1.8-2.2-2.3-2.5C88.2,74,88.8,74.3,89.4,74.6z
			 M93,75.5c0,0.5-0.2,0.5-0.3,0.5c-0.2,0-0.3-0.2-0.5-0.5c-0.6-0.9-1.6-1.6-2.5-2.3C90.9,73.5,93,74.3,93,75.5z"/>
		<path d="M111.9,71h-7.5l0.6,0.6c0.1,0.1,0.1,0.1,0.1,0.3c0,0.2-0.1,0.2-0.8,0.2c-0.5,0.7-0.9,1.4-1.3,2l1.3,0.6
			c0.1,0,0.2,0.1,0.2,0.2c0,0.1-0.1,0.2-0.2,0.3c-0.1,0.1-0.3,0.3-0.5,0.5c0,0.9-0.1,1.2-0.1,2.8c0,1.7,0,3.8,0.1,4.7
			c0,0.3,0.1,1.6,0.1,1.9c0,0.8-0.5,1-0.8,1c-0.5,0-0.5-0.5-0.5-0.9c0-1.9,0.2-5,0.2-6.9c0-1-0.1-2.4-0.1-3.8
			c-1.7,2.4-4.3,5.8-7.9,7.8l-0.1-0.2c1.5-1.3,5.9-5.8,8.2-10.1c0.1-0.2,0.2-0.3,0.5-1.1h-5.2c-0.4,0-1.5,0-2.5,0.2l-0.4-0.8
			c1,0.1,2.2,0.2,3.2,0.2h11l0.7-0.9c0.1-0.2,0.2-0.2,0.3-0.2c0.1,0,0.2,0.1,0.4,0.2l1.2,0.9c0.1,0.1,0.2,0.2,0.2,0.3
			C112.2,71,112,71,111.9,71z M111.2,80.8c-0.6,0-0.8-0.3-1.5-1.6c-0.8-1.4-2.9-3.4-3.9-4l0.1-0.2c1.6,0.6,3.2,1.3,4.7,2.9
			c0.2,0.2,1.3,1.3,1.3,2.2C111.8,80.6,111.5,80.8,111.2,80.8z"/>
		<path d="M124.2,73h-4.7v1.7h1.9l0.4-0.5c0.1-0.1,0.2-0.2,0.2-0.2s0.1,0,0.2,0.1l0.8,0.6c0.1,0.1,0.2,0.2,0.2,0.2
			c0,0.1-0.1,0.2-0.2,0.2c-0.1,0-0.2,0.1-0.3,0.2c0,1.4,0,2,0,2.4c0,0.2,0.1,1.5,0.1,1.5c0,0.5-0.1,0.6-0.2,0.7
			c-0.2,0.1-0.4,0.2-0.5,0.2c-0.3,0-0.3-0.3-0.3-0.4h-2.3v1.7h1.9l0.4-0.5c0.1-0.2,0.2-0.2,0.3-0.2s0.2,0.1,0.3,0.2l0.6,0.5
			c0.1,0.1,0.2,0.2,0.2,0.3c0,0.2-0.2,0.2-0.3,0.2h-3.5v1.9c1.8-0.3,2.7-0.5,3.9-0.8v0.2c-2.5,1-7.1,2.2-7.9,2.4
			c-0.1,0.1-0.1,0.2-0.2,0.3c-0.1,0.1-0.1,0.1-0.2,0.1c-0.1,0-0.2-0.1-0.3-0.2l-0.8-1.4c0.1,0,0.2,0,0.4,0c0.6,0,2-0.1,4.2-0.5v-2.1
			h-1.2c-0.6,0-1.7,0.1-2.5,0.2l-0.4-0.8c1,0.1,2.1,0.2,3.2,0.2h1v-1.7h-2.2c0,0.4,0,0.6-0.1,0.7c-0.2,0.1-0.4,0.3-0.6,0.3
			c-0.2,0-0.2-0.2-0.2-0.3c0-0.2,0-1,0-1.2v-3.1c0-1,0-1.2-0.1-2l1.2,0.7h2.1V73H117c-0.6,0-1.7,0.1-2.5,0.2l-0.4-0.8
			c1,0.1,2.1,0.2,3.2,0.2h1.4v-1.6c-1.2,0.2-2.8,0.4-4,0.3v-0.1c1.8-0.4,5.2-1.1,7-2.2l1.1,0.9c0.1,0.1,0.1,0.1,0.1,0.2
			c0,0.2-0.2,0.3-0.3,0.3c-0.2,0-0.2,0-0.5-0.1c-0.8,0.3-1.6,0.4-2.5,0.6v1.7h2.7l0.7-0.6c0.1-0.1,0.2-0.2,0.3-0.2
			c0.1,0,0.2,0.1,0.3,0.2l0.8,0.6c0.1,0.1,0.2,0.2,0.2,0.3C124.5,72.9,124.4,73,124.2,73z M118.7,75.1h-2.2v1.8h2.2V75.1z
			 M118.7,77.4h-2.2v1.8h2.2V77.4z M121.9,75.1h-2.3v1.8h2.3V75.1z M121.9,77.4h-2.3v1.8h2.3V77.4z M130.5,74.6c0,4.6,0,5.9-0.4,8.1
			c-0.2,0.8-0.5,2.8-2.8,3.2c-0.2-0.7-0.8-1.3-2.1-2l0-0.1c1.2,0.2,2.1,0.3,2.4,0.3c0.5,0,1-0.3,1.3-1.2c0.6-2.1,0.6-5.8,0.6-8.8
			h-2.4c0,1.1,0,4-0.8,6.4c-0.8,2.4-2.3,4.6-4.7,5.5l-0.1-0.1c0.8-0.7,3-2.7,3.9-5.9c0.4-1.4,0.6-4.3,0.6-5.9c-1,0-1.8,0.1-2.3,0.2
			l-0.4-0.8c0.5,0,1.4,0.1,2.8,0.1c0.1-3.4-0.2-4.3-0.3-5l1.7,0.6c0.2,0.1,0.3,0.2,0.3,0.3s-0.1,0.2-0.2,0.3
			c-0.2,0.1-0.3,0.2-0.5,0.3c0,0.2,0,3.2,0,3.6h2.1l0.5-0.5c0.1-0.1,0.2-0.2,0.3-0.2s0.2,0.1,0.2,0.1l0.7,0.6
			c0.1,0.1,0.2,0.2,0.2,0.3C131.2,74.2,131.1,74.3,130.5,74.6z"/>
		<path d="M149.8,75.6h-13.3c0.1,5.4,0.1,7.7-2.9,10.5l-0.1-0.1c1.4-2.1,2-4.4,2-7.6c0-2.1-0.2-3.1-0.3-3.9l1.5,0.6h6.5
			c0.7-1.3,1.4-3.1,1.5-3.7H137c-0.7,0-1.7,0.1-2.5,0.2l-0.5-0.8c1.4,0.1,2.8,0.1,3.2,0.1h3.9c-0.1-1-0.1-1.1-0.3-2.2l1.7,0.4
			c0.2,0,0.2,0.1,0.2,0.2c0,0.1,0,0.2-0.2,0.2c-0.3,0.2-0.3,0.2-0.5,0.3c-0.1,0.3-0.1,0.4-0.1,1.1h4.5l0.8-0.8
			c0.2-0.2,0.2-0.2,0.3-0.2c0.1,0,0.1,0,0.3,0.2l1,0.8c0.1,0.1,0.2,0.2,0.2,0.3c0,0.2-0.2,0.2-0.3,0.2h-3.8l1,0.6
			c0,0,0.1,0.1,0.1,0.2c0,0.2-0.1,0.3-0.7,0.4c-1.2,1.6-1.5,1.9-2.1,2.5h4l0.6-0.7c0.2-0.2,0.2-0.2,0.3-0.2c0.1,0,0.2,0.1,0.4,0.2
			l1.2,0.7c0.1,0,0.2,0.2,0.2,0.3C150.1,75.6,149.9,75.6,149.8,75.6z M149.9,85.2h-10.7c-0.7,0-1.7,0.1-2.5,0.2l-0.4-0.8
			c1.4,0.1,2.8,0.2,3.2,0.2h2.6c0-0.4,0-2.5,0-2.7h-1.1c-0.7,0-1.7,0.1-2.5,0.2l-0.4-0.8c1.4,0.1,2.8,0.1,3.2,0.1h0.8
			c0-0.3,0-1.9,0-2.3h-2.7c-0.5,0.9-1.4,2.2-2.4,3.1l-0.1-0.1c0.8-1.4,1.7-2.9,2.4-5.2c0.1-0.3,0.1-0.5,0.2-0.7l1.3,0.6
			c0.1,0.1,0.2,0.1,0.2,0.2c0,0.2-0.1,0.2-0.7,0.5c-0.2,0.4-0.4,0.7-0.6,1.2h2.5c0-0.3,0-1.6,0-1.8c0-0.4-0.1-0.8-0.1-1l1.5,0.4
			c0.1,0,0.2,0.1,0.2,0.2c0,0.1,0,0.2-0.1,0.2c-0.2,0.1-0.3,0.2-0.5,0.3v1.7h3.2l0.7-0.8c0.2-0.2,0.2-0.2,0.3-0.2
			c0.1,0,0.3,0.2,0.4,0.2l0.9,0.8c0.1,0.1,0.2,0.2,0.2,0.3c0,0.2-0.2,0.2-0.3,0.2H143v2.3h2.7l0.5-0.6c0.1-0.1,0.2-0.2,0.3-0.2
			c0.1,0,0.1,0,0.4,0.2l0.9,0.6c0.1,0.1,0.2,0.2,0.2,0.3c0,0.2-0.2,0.2-0.3,0.2H143v2.7h4.5l0.8-0.7c0.2-0.2,0.2-0.2,0.3-0.2
			s0.2,0.1,0.4,0.2l1,0.6c0.1,0,0.2,0.2,0.2,0.3C150.2,85.1,150,85.2,149.9,85.2z M139.1,74.7c-0.4,0-0.6-0.4-0.7-0.8
			c-0.2-0.5-0.6-1.5-1.1-1.9l0.1-0.1c1.5,0.7,2.3,1.1,2.3,2.1C139.7,74.4,139.4,74.7,139.1,74.7z"/>
		<path d="M154.8,82.5c-1.9,2.1-2.2,2.3-3.3,3l-0.1-0.1c0.4-0.4,1.1-1.2,1.9-2.3c0.6-1,0.8-1.4,0.8-1.9l1.3,0.7
			c0.1,0.1,0.2,0.2,0.2,0.3C155.5,82.5,155.2,82.5,154.8,82.5z M156.9,70.9c0,0.2,0,0.3,0,1.7c0,2.8,0,3.1,0.1,5.9
			c0,0.6,0,1.5,0,1.7c0,0.4,0,0.5-0.2,0.6c-0.1,0.1-0.3,0.2-0.5,0.2c-0.3,0-0.3-0.3-0.3-0.6h-2.2c0,0.7-0.5,0.7-0.7,0.7
			c-0.2,0-0.4-0.1-0.4-0.4c0-0.3,0.1-1.5,0.1-1.8c0.1-2.7,0.1-4.1,0.1-6.3c0-1.3,0-2.5-0.2-3.5L154,70h1.9l0.4-0.4
			c0.1-0.1,0.1-0.1,0.2-0.1c0.1,0,0.1,0,0.3,0.1l0.6,0.4c0.1,0.1,0.2,0.1,0.2,0.2C157.6,70.5,157.1,70.8,156.9,70.9z M156.1,70.4
			h-2.2v3h2.2V70.4z M156.1,73.9h-2.2v2.7h2.2V73.9z M156.1,77.1h-2.2v3h2.2V77.1z M157.4,84.6c-0.4,0-0.5-0.4-0.7-1
			c-0.2-0.7-0.5-1.3-0.9-1.8l0.1-0.1c1.3,0.9,2.1,1.4,2.1,2.4C158,84.5,157.7,84.6,157.4,84.6z M169,82h-2.6c0,0.3,0,1.7,0,1.9
			c0,0.6-0.1,0.9-0.5,1.3c-0.5,0.5-1.1,0.6-1.4,0.6c-0.2-0.7-0.8-1.1-1.2-1.3v-0.1c0.3,0,0.6,0,0.7,0c1,0,1.3,0,1.4-0.8
			c0-0.2,0-1.1,0-1.7h-5.2c0,0.9,0,2.6,0,3.4c0,0.3,0,0.4-0.2,0.5c-0.2,0.1-0.4,0.2-0.6,0.2c-0.3,0-0.4-0.3-0.4-0.4
			c0-0.1,0.1-1.1,0.1-1.3c0-1,0-1.2,0.1-2.3c-0.5,0-1.1,0.1-1.6,0.2l-0.4-0.8c0.8,0.1,1.5,0.1,2.1,0.1c0-0.3,0-0.9,0-1.6
			c0-0.8,0-2.2-0.2-3.1l1.2,0.5h1.9v-1.3h-1.9c-0.6,0-1.7,0.1-2.5,0.2l-0.4-0.8c0.6,0.1,1.3,0.1,3,0.1c0-0.3,0-0.8,0-1.8
			c-0.1,0-1.1,0.1-1.9,0.2l-0.5-0.8c0.8,0.1,1,0.1,2.4,0.1c0-0.2,0-1.3,0-1.5c-0.6,0-1.7,0.1-2.4,0.2l-0.5-0.8
			c0.6,0,1.3,0.1,2.9,0.1c0-1.5-0.1-2.1-0.3-2.4l1.6,0.4c0,0,0.2,0.1,0.2,0.2c0,0.2-0.4,0.4-0.6,0.5v1.3h2.4c0-0.3,0-0.9-0.1-1.2
			c0-0.2-0.2-1.1-0.3-1.3l1.6,0.5c0.1,0,0.2,0.1,0.2,0.2c0,0.1-0.1,0.2-0.2,0.3c-0.1,0.1-0.3,0.3-0.4,0.3v1.2h2l0.4-0.4
			c0.1-0.1,0.2-0.2,0.3-0.2c0.1,0,0.2,0.1,0.4,0.2l0.6,0.4c0.1,0,0.2,0.2,0.2,0.3c0,0.2-0.2,0.2-0.3,0.2h-3.6v1.5h1.1l0.5-0.4
			c0.2-0.2,0.3-0.2,0.3-0.2c0.1,0,0.3,0.2,0.4,0.2l0.5,0.4c0.1,0.1,0.2,0.2,0.2,0.3c0,0.2-0.2,0.2-0.3,0.2h-2.7c0,0.3,0,1.6,0,1.8
			h2.3l0.6-0.7c0.2-0.2,0.2-0.2,0.3-0.2c0.1,0,0.2,0.1,0.3,0.2l0.7,0.6c0.1,0.1,0.2,0.2,0.2,0.3c0,0.2-0.2,0.2-0.3,0.2h-5.6v1.3h2.1
			l0.2-0.3c0.1-0.1,0.1-0.2,0.2-0.2c0.1,0,0.1,0,0.2,0.1l0.9,0.5c0.1,0,0.1,0.1,0.1,0.2c0,0.1-0.1,0.2-0.1,0.2
			c-0.1,0.1-0.4,0.3-0.4,0.3c0,0.7,0,3.2,0,3.3h0.8l0.5-0.6c0.1-0.2,0.2-0.3,0.3-0.3c0.1,0,0.3,0.1,0.4,0.2l0.8,0.7
			c0.1,0.1,0.2,0.2,0.2,0.3C169.3,81.9,169.2,82,169,82z M162.3,77.7h-2v1.6h2V77.7z M162.3,79.8h-2v1.7h2V79.8z M163.8,71.6h-2.5
			v1.5h2.5C163.8,72.6,163.8,72.1,163.8,71.6z M163.8,73.6h-2.5v1.8h2.5C163.8,75.2,163.8,73.9,163.8,73.6z M165.4,77.7h-2.2v1.6
			h2.3C165.5,79.1,165.5,77.9,165.4,77.7z M165.5,79.8h-2.3v1.7h2.3C165.5,81.2,165.5,80.1,165.5,79.8z"/>
		<path d="M186.5,85.3c-2.6-1.7-4.6-4.2-5.8-7.1c-0.3-0.7-0.5-1.4-0.7-2.1c-1.7,5.3-5.5,8.7-8.8,9.6l-0.1-0.2
			c5.3-2.7,8-8.9,7.9-11.7l0.6,0.2c-0.3-1.6-0.3-2.8-0.3-3.6h-1.6c-0.7,0-1.7,0.1-2.5,0.2l-0.4-0.8c1.4,0.1,2.8,0.2,3.2,0.2h1
			l0.7-0.6c0.1-0.1,0.2-0.2,0.3-0.2c0.1,0,0.3,0.1,0.3,0.1l1,0.7c0.1,0.1,0.2,0.2,0.2,0.3c0,0.1-0.1,0.2-0.2,0.2
			c-0.2,0.1-1,0.5-1.2,0.6c0,0.3-0.1,0.6-0.1,1.1c0,5.4,3.5,10.3,8.3,11.8v0.2C187.8,84.3,187,84.5,186.5,85.3z"/>
		<path d="M197.9,70.1c0-0.4-0.3-0.6-1.2-0.9c0.2-0.2,0.3-0.3,0.8-0.3c0.9,0,1.7,0.6,1.7,1c0,0.1,0,0.2-0.3,0.6
			c-0.2,0.2-0.9,1.3-1,1.5c0.5-0.1,1-0.2,2.2-0.8c0.1,0,0.3-0.1,0.5-0.1c0.3,0,1,0.2,1,0.6c0,0.3-0.3,0.4-0.7,0.5
			c-1.3,0.3-2,0.5-3.6,0.7c-0.8,1.1-1.7,2.4-2.2,3.5c0.4-0.3,1-0.6,1.9-0.6c1.7,0,2.1,1.3,2.3,2c0.9-0.5,1.9-1.1,4.1-2.1
			c0.2-0.1,0.4-0.2,0.4-0.5c0-0.2-0.2-0.4-0.5-0.7c0.2,0,0.2,0,0.3,0c0.4,0,1.9,0.5,1.9,1.5c0,0.4-0.2,0.4-0.9,0.5
			c-1,0.1-3.6,1.2-5,1.9c0.1,0.5,0.2,1.3,0.2,2.4c0,0.2,0,1.6-0.6,1.6c-0.5,0-0.6-0.8-0.6-1c0-0.1,0.1-1.3,0.1-1.5
			c0-0.1,0-0.5-0.1-0.9c-1.5,1-2.8,2.5-2.8,3.5c0,1.4,2.4,1.4,3,1.4c1,0,2.1-0.2,2.9-0.3c0.3-0.1,0.4-0.1,0.6-0.1
			c0.6,0,1.1,0.3,1.1,0.7c0,0.1-0.1,0.4-0.5,0.5c-0.5,0.1-1.6,0.2-2.8,0.2c-2.9,0-3.6-0.3-4.2-0.7c-0.4-0.3-0.9-0.8-0.9-1.5
			c0-0.3,0.1-1.1,0.7-1.8c0.6-0.7,1.4-1.6,2.8-2.5c-0.2-1.1-0.5-2-1.7-2c-1.1,0-2,0.9-2.5,1.5c-0.7,1.1-0.8,1.2-1.1,1.2
			c-0.5,0-0.5-0.6-0.5-0.7c0-0.4,0.2-0.6,0.4-0.8c1-0.7,2.3-2.9,3.3-4.5c-1.1,0.2-1.4,0.3-2,0.3c-1.5,0-1.7-1-1.8-1.5
			c0.6,0.4,1,0.6,1.8,0.6c0.8,0,1.8-0.1,2.5-0.3C197,71.9,197.9,70.4,197.9,70.1z"/>
		<path d="M212.2,79.3c0,1.3,0.7,2.1,1.4,2.6c0.8,0.6,2.1,0.8,3.4,0.8c0.7,0,3.1-0.1,5.1-0.8c0.3-0.1,0.5-0.2,0.6-0.2
			c0.4,0,1.2,0.2,1.2,0.7c0,0.3-0.2,0.4-0.3,0.5c-1.1,0.5-5.2,0.7-5.8,0.7c-1,0-6.1,0-6.1-3.5c0-0.6,0.2-1.4,0.7-1.8
			C212.3,78.6,212.2,78.9,212.2,79.3z M215.6,74.7c0.4-0.2,1.9-1.4,2.2-1.6c0.1,0,0.2-0.2,0.2-0.2c0-0.1-0.1-0.2-0.4-0.2
			c-2-0.1-3-0.5-3.6-0.9c-0.8-0.5-0.8-1-0.9-1.2c1,0.7,2.5,1.2,5,1.2c0.2,0,1.2,0,1.3,0c0.8,0,2.3,0.3,2.3,1c0,0.5-0.4,0.5-0.9,0.5
			c-0.8,0-1.3,0-2.3,0.4c-0.5,0.2-2.4,1.1-2.8,1.3V74.7z M224.7,72.2c0,0.2-0.1,0.6-0.3,0.6c-0.2,0-0.3-0.2-0.5-0.4
			c-0.7-1-1.6-1.7-2.5-2.2C224.3,70.4,224.7,71.8,224.7,72.2z M225.3,69.7c1.1,0.5,1.5,0.8,1.5,1.5c0,0.2,0,0.6-0.3,0.6
			c-0.2,0-0.3-0.2-0.4-0.3c-0.7-0.9-1.1-1.4-2.6-2.1C224.1,69.4,224.7,69.5,225.3,69.7z"/>
		<path d="M234.5,73.3H232v0.3c0,0.3,0,1.7,0,2c0.7,0.2,1.2,0.6,1.5,0.7c0.3,0.2,0.8,0.5,0.8,1.1c0,0.3-0.1,0.6-0.5,0.6
			c-0.3,0-0.4,0-0.7-0.7c-0.1-0.2-0.6-1.1-1-1.4c0,2.9,0,5.5,0.1,7c0,0.4,0.1,2.1,0.1,2.4c0,0.4-0.2,0.6-0.3,0.6
			c-0.2,0.1-0.4,0.2-0.5,0.2c-0.1,0-0.4,0-0.4-0.5c0-0.1,0-0.2,0-0.3c0.1-1.7,0.2-2.8,0.1-9.3c-0.3,1-0.6,1.7-1.2,2.8
			c-0.8,1.6-1.6,2.4-2.1,2.8l-0.2-0.1c1.3-2.1,2.9-6.2,3.3-8.4c-0.9,0-1.8,0.1-2.4,0.2l-0.5-0.8c0.5,0,1.3,0.1,3,0.2
			c0-2.3-0.2-3.1-0.4-4.1l1.6,0.5c0.1,0,0.4,0.2,0.4,0.3c0,0.2-0.2,0.3-0.6,0.4v1.6v1.3h1l0.5-0.5c0.2-0.2,0.2-0.2,0.3-0.2
			c0.1,0,0.2,0.1,0.3,0.2l0.4,0.4c0.1,0.2,0.2,0.2,0.2,0.3C234.8,73.2,234.6,73.3,234.5,73.3z M244.3,85.7c-2.9-1.6-4.4-4.2-4.7-5.5
			h-0.2c-0.6,3-2.8,5.4-6.2,5.8l-0.1-0.1c3-1.2,4.8-3.3,5.3-5.7h-2.1c0,0.3,0,0.4,0,0.5c-0.1,0.3-0.5,0.5-0.8,0.5
			c-0.3,0-0.3-0.2-0.3-0.5c0,0,0.1-2.1,0.1-2.5c0-1-0.1-1.5-0.2-2.1l1.3,0.6h2.4c0-0.4,0-1.8,0-2.1h-0.9c-0.3,0-0.7,0-1,0.1
			l-0.2-0.6c0.3,0,1.1,0.1,1.3,0.1h2.3l0.5-0.5c0.2-0.2,0.2-0.2,0.3-0.2c0.1,0,0.3,0.1,0.3,0.2l0.4,0.4c0.1,0.1,0.2,0.2,0.2,0.3
			c0,0.2-0.1,0.2-0.3,0.2h-1.9c0,0.5,0,0.6,0,2.1h2.5l0.4-0.4c0.1-0.1,0.2-0.2,0.3-0.2c0.1,0,0.2,0.1,0.3,0.1l0.7,0.5
			c0.1,0.1,0.2,0.1,0.2,0.2c0,0.2-0.4,0.4-0.6,0.5c0,0.4,0.1,2.7,0.1,3c0,0.3,0,0.7-0.7,0.7c-0.5,0-0.4-0.2-0.4-0.8h-2.5
			c0.5,1.3,2.4,3.7,6.1,4.2v0.1C245,84.8,244.5,85.4,244.3,85.7z M244.6,74.9c-2.3-1.1-4.3-3.6-4.8-5.2c-0.1,0-0.2,0-0.5,0
			c-1.3,2.4-3.8,5-5.7,6.1l-0.1-0.1c1.8-1.7,3.5-4.3,4.5-6.2c0.2-0.4,0.2-0.7,0.3-1.1l1.6,0.7c0.1,0.1,0.2,0.1,0.2,0.2
			c0,0.1,0,0.2-0.1,0.3c1.5,2.8,4.8,4.1,6.2,4.2v0.2C245.6,74.1,245.2,74.2,244.6,74.9z M236.3,77.1v2.7h2.2
			c0.1-0.6,0.2-1.2,0.2-2.7H236.3z M242.4,77.1h-2.6c0,0.6,0,1.5-0.2,2.7h2.8V77.1z"/>
		<path d="M254.6,72.9h-4.7c-0.7,0-1.7,0.1-2.4,0.2l-0.5-0.8c1.4,0.1,2.8,0.1,3.2,0.1h2.8l0.4-0.6c0.1-0.2,0.2-0.2,0.3-0.2
			c0.1,0,0.2,0,0.3,0.2l0.7,0.6c0,0,0.2,0.2,0.2,0.3C254.9,72.9,254.8,72.9,254.6,72.9z M253.8,75.4h-2.9c-0.7,0-1.7,0.1-2.5,0.2
			l-0.5-0.8c1.4,0.1,2.8,0.2,3.2,0.2h1.2l0.4-0.5c0.2-0.2,0.2-0.2,0.3-0.2c0.1,0,0.2,0.1,0.3,0.2l0.6,0.5c0.2,0.2,0.2,0.2,0.2,0.3
			C254.1,75.4,254,75.4,253.8,75.4z M254,77.8h-3c-0.7,0-1.7,0.1-2.5,0.2l-0.5-0.8c1.4,0.1,2.8,0.1,3.2,0.1h1l0.5-0.6
			c0.2-0.2,0.2-0.2,0.3-0.2c0.1,0,0.2,0,0.3,0.2l0.7,0.6c0.1,0.1,0.2,0.2,0.2,0.3C254.3,77.8,254.1,77.8,254,77.8z M254.2,70.5H251
			c-0.7,0-1.7,0.1-2.5,0.2l-0.4-0.8c1.4,0.1,2.8,0.2,3.2,0.2h1.2l0.4-0.6c0.2-0.2,0.2-0.2,0.3-0.2c0.1,0,0.1,0,0.3,0.2l0.7,0.6
			c0.1,0.1,0.2,0.2,0.2,0.3C254.4,70.5,254.3,70.5,254.2,70.5z M254,80.3c-0.2,0.2-0.3,0.3-0.5,0.4c0,0.2,0,0.3,0.1,1.7
			c0,0.2,0.1,1.7,0.1,1.7c0,0.1,0,0.4-0.2,0.6c-0.2,0.2-0.5,0.2-0.6,0.2c-0.3,0-0.3-0.2-0.3-0.7h-3.1c0,1.2,0.1,1.7-0.8,1.7
			c-0.3,0-0.3-0.1-0.3-0.3c0-0.1,0-0.7,0-0.9c0-0.8,0-1.8,0-3c0-1.2,0-1.3-0.1-2.6l1.2,0.6h2.9l0.4-0.4c0.2-0.2,0.2-0.2,0.3-0.2
			c0,0,0.1,0,0.3,0.2l0.7,0.5c0.1,0.1,0.2,0.2,0.2,0.2C254.2,80.1,254.2,80.2,254,80.3z M252.5,80.2h-3.1v3.5h3.1V80.2z M264.2,74.1
			h-3.1c0,3.4,0,5.9,0.1,6.8c0,0.4,0.1,2.4,0.1,3.1c0,0.7,0,1.7-2,2.2c-0.3-0.5-0.8-1.2-2.1-1.7l0-0.1c0.8,0.1,2.3,0.1,2.5,0
			c0.4-0.1,0.4-0.6,0.4-0.8c0-0.6,0-1.8,0-2.6c0-1.9-0.1-4.9-0.1-6.8h-2.3c-0.7,0-1.7,0.1-2.5,0.2l-0.4-0.8c1.4,0.1,2.8,0.2,3.2,0.2
			h2v-2.9c0-0.8-0.1-1.2-0.3-1.9l1.5,0.4c0.3,0.1,0.5,0.2,0.5,0.3s-0.4,0.5-0.6,0.6c0,0.4,0,0.7,0,3.5h1.3l0.5-0.8
			c0.1-0.2,0.2-0.3,0.3-0.3c0.1,0,0.3,0.2,0.3,0.2l0.7,0.8c0.1,0.1,0.2,0.2,0.2,0.3C264.5,74.1,264.4,74.1,264.2,74.1z M257.7,79.9
			c-0.5,0-0.6-0.3-0.9-1.1c-0.3-0.7-0.8-1.7-1.3-2.1l0.1-0.1c1,0.3,2.8,1.2,2.8,2.6C258.3,79.6,258,79.9,257.7,79.9z"/>
		<path d="M275.1,84.1c5.7-2,5.9-6,5.9-7c0-3.3-3.2-5.1-5.9-5.1c-0.4,0-0.5,0-0.7,0.1c0.9,0.8,0.9,1.3,0.9,1.4
			c0,0.2-0.1,0.3-0.5,1.1c-2.3,4.9-2.5,5.3-3.6,7c-0.1,0.1-0.7,1-1.1,1.2c-0.1,0.1-0.2,0.1-0.4,0.1c-0.4,0-0.6-0.2-1.1-1
			c-0.1-0.2-0.2-0.3-0.5-0.5c-0.7-0.6-1-1.3-1-2.6c0-3.8,3.2-7.4,8.1-7.4c3.5,0,6.9,2,6.9,5.9c0,3.5-2.8,6.6-7.1,7L275.1,84.1z
			 M273,76.7c0.6-1.1,1.1-2.5,1.1-3.3c0-0.6-0.4-1-0.5-1.2c-2.1,0.2-5.3,3-5.3,6.7c0,1.4,0.9,2.7,1.7,2.7c0.1,0,0.2,0,0.4-0.1
			c0.4-0.4,0.8-1,1.1-1.7L273,76.7z"/>
		<path d="M302.1,72.8h-8.9l0.9,0.4c0.1,0,0.2,0.1,0.2,0.2c0,0.3-0.3,0.4-0.6,0.6c-0.1,0.7-0.2,1.4-0.3,2.3h4.8l0.3-0.5
			c0.1-0.2,0.2-0.2,0.2-0.2c0.1,0,0.2,0.1,0.3,0.1l1,0.7c0.1,0.1,0.2,0.1,0.2,0.2c0,0.2-0.4,0.4-0.7,0.6c-0.2,2.9-0.6,6.2-1.3,7.4
			c-0.7,1.2-1.9,1.3-2.5,1.4c-0.4-0.9-0.9-1.4-1.9-2l0-0.1c1.3,0.3,2.2,0.4,2.6,0.4c0.7,0,1-0.3,1.3-2c0.4-1.8,0.6-4.8,0.6-5.6h-5.1
			c-0.8,3.7-2.5,7.5-7.4,9.2l-0.1-0.2c2.3-1.4,4-3.2,5-5.3c1.1-2.2,1.7-4.7,1.7-7.2c0-0.1,0-0.3,0-0.6h-4.1c-0.7,0-1.7,0.1-2.4,0.2
			l-0.5-0.8c1.4,0.1,2.8,0.2,3.2,0.2h4.3c0-2.7-0.1-3-0.4-3.8l1.9,0.5c0.1,0,0.3,0.1,0.3,0.3c0,0.2-0.3,0.4-0.7,0.6c0,0.4,0,2,0,2.4
			h5.9l0.8-1c0.2-0.2,0.2-0.2,0.3-0.2c0.1,0,0.1,0,0.3,0.2l1,1c0.1,0.1,0.2,0.2,0.2,0.3C302.3,72.7,302.2,72.8,302.1,72.8z"/>
		<path d="M308.8,77.6c-0.2,0.9-0.8,3.7-0.9,4.4c0,0.2-0.1,0.7-0.1,1c0,0.2,0.1,1,0.1,1.2c0,0.2-0.2,0.4-0.4,0.4
			c-1.2,0-1.6-3.5-1.6-4.6c0-1.8,0.5-4.8,0.9-6.7c0.1-0.7,0.2-0.9,0.2-1.1c0-0.9-0.3-1.2-0.8-1.6c0.1,0,0.2-0.1,0.4-0.1
			c1,0,1.7,1.1,1.7,1.5c0,0.2,0,0.3-0.3,1c-0.8,2-1.3,4-1.3,6.1c0,1.2,0.2,2.5,0.2,2.5c0,0,0,0,0.1,0c0.1,0,0.2-0.3,0.2-0.3
			c0.6-1.9,0.7-2.1,1.3-3.7c0,0,0.1-0.1,0.1-0.1L308.8,77.6z M315.9,71.4c0-1-0.3-1.1-1.3-1.4c0.2-0.1,0.6-0.3,1.2-0.3
			s1.1,0.4,1.2,0.6c0.2,0.1,0.2,0.2,0.2,0.4c0,0.1-0.1,0.7-0.2,0.8c-0.1,0.7-0.2,1.5-0.2,2.6c0.4-0.1,2.1-0.6,2.5-0.6
			c0.2,0,0.9,0.2,0.9,0.6c0,0.3-0.3,0.4-0.5,0.4c-1.1,0.2-2.8,0.4-2.9,0.5c0,2.1,0.1,4.3,0.3,6.1c2,0.9,2.1,0.9,2.4,1.2
			c0.4,0.3,0.8,0.7,0.8,1.1c0,0.2-0.1,0.5-0.5,0.5c-0.2,0-0.3-0.1-0.6-0.3c-0.7-0.5-1.8-1.2-2.2-1.4c-0.5,1.3-1.2,2.1-2.9,2.1
			c-1.6,0-3-0.9-3-2c0-0.8,0.6-1.2,1.1-1.4c0.6-0.3,1.6-0.3,1.9-0.3c0.9,0,1.6,0.1,2.1,0.2c0-0.6-0.1-4.8-0.2-5.7
			c-0.5,0.1-1.1,0.2-1.7,0.2c-0.9,0-2-0.2-2.7-0.7c-0.3-0.2-0.4-0.4-0.5-0.6c0.8,0.4,1.5,0.5,2.8,0.5c0.3,0,1.1,0,2.1-0.2
			C315.9,73.7,315.9,71.8,315.9,71.4z M314,81.2c-0.8,0-2.2,0.3-2.2,1c0,0.6,0.9,1.1,2,1.1c1.9,0,2.2-1.3,2.3-1.7
			C315.2,81.3,314.5,81.2,314,81.2z"/>
		<path d="M323.8,80.9c0.9,0.2,2.4,0.5,3.6,1.5c1.1,1,1.1,2,1.1,2.1c0,0.6-0.5,1-0.9,1c-0.3,0-0.5-0.2-0.9-1
			c-0.9-1.9-1.3-2.7-2.9-3.4L323.8,80.9z"/>
		<path d="M350.2,81.9c0.5,0.4,1.4,1.1,3.1,1.1c1.1,0,3.4-0.5,3.4-2.7c0-2.1-2-2.5-2.8-2.5c-1.1,0-3.3,0.5-5.2,1.9
			c0,0.6,0.1,1.3,0.1,2c0,0.2,0.1,1.3,0.1,1.5c0,1.2-0.6,2-1,2c-0.2,0-0.3-0.1-0.6-0.5c-0.1-0.2-0.3-0.4-0.7-0.8
			c-0.1-0.1-0.7-0.5-1.2-0.9c-0.3,0.5-0.5,0.7-0.8,0.7c-0.4,0-1.1-0.4-1.3-0.9c-0.2-0.3-0.2-0.7-0.2-0.9c0.6,0.5,0.7,0.5,0.9,0.5
			c0.1,0,0.2,0,0.5-0.3c1.1-0.9,2.5-1.8,3.5-2.5c0-0.4,0-2.3,0-2.6c0-0.2,0-0.9,0-1.4c-0.5,0.2-1.3,0.4-2.1,0.4
			c-0.5,0-1.5-0.4-1.7-1.4c0.5,0.4,0.7,0.6,1.7,0.6c0.6,0,1.7-0.4,2.1-0.5c0-0.3,0.1-1.7,0.1-2c0-0.5,0-1.7-0.2-2.1
			c-0.1-0.2-0.1-0.2-1-0.7c0.2-0.1,0.4-0.2,0.8-0.2c0.8,0,1.9,0.5,1.9,1c0,0.2,0,0.3-0.1,0.6c-0.2,0.6-0.4,1.3-0.5,2.9
			c1.1-0.5,1.3-0.6,1.5-0.8c0.4-0.3,0.5-0.3,0.7-0.3c0.6,0,0.8,0.2,0.8,0.5s-0.1,0.3-0.5,0.5c-0.2,0.1-1.8,0.8-2.7,1.1
			c0,0.9-0.1,1.7-0.1,2c0,0.2,0,0.7,0.1,1.7c1.7-1,3.5-1.9,5.5-1.9c1.7,0,3.8,0.8,3.8,3.2c0,2.3-2,3.6-4.2,3.6
			C351.5,83.9,350.8,82.9,350.2,81.9L350.2,81.9z M347.8,81.9c0-0.8,0-0.9,0-1.7c-0.9,0.7-1.8,1.5-2.5,2.5c0.2,0.1,1.2,0.5,1.4,0.6
			c0.4,0.2,0.5,0.2,0.6,0.2c0.4,0,0.4-0.4,0.4-1.1V81.9z M354.7,75.5c0.2-0.1,0.6-0.3,1.2-0.9c0.4-0.3,0.4-0.4,0.4-0.6
			c0-0.6-1.3-1.2-2.7-1.8c0.2,0,0.3-0.1,0.6-0.1c3.2,0,3.9,2.1,3.9,2.9c0,0.4-0.3,0.4-0.3,0.4c-0.2,0-0.4-0.1-0.5-0.1
			c-0.4-0.2-0.6-0.2-0.8-0.2C356,75.1,355.6,75.3,354.7,75.5L354.7,75.5z"/>
		<path d="M377,71.8h-11.8c-1.3,2.1-2.5,3.6-4.5,4.8l-0.1-0.1c2.1-1.8,4.2-6,4.5-7.2c0.1-0.5,0.1-0.7,0.1-0.9l1.7,0.7
			c0.1,0,0.2,0.1,0.2,0.3c0,0.2-0.2,0.3-0.8,0.5c-0.3,0.5-0.5,0.8-0.8,1.5h9.2l0.8-0.9c0.2-0.2,0.2-0.2,0.3-0.2
			c0.1,0,0.3,0.2,0.4,0.2l1,0.9c0.1,0.1,0.2,0.2,0.2,0.3C377.3,71.8,377.2,71.8,377,71.8z M370.2,78.8c-0.4,0.7-0.9,1.3-1.5,2.1
			c0.2,0.2,2.2,1.6,2.2,2.8c0,0.4-0.2,0.6-0.5,0.6c-0.4,0-0.6-0.2-1-0.9c-0.2-0.3-0.7-0.9-1.4-1.6c-1.3,1.5-3.3,3.4-7,4.3v-0.1
			c2.4-1.2,4.6-2.8,6.4-4.8c-0.9-0.8-1.9-1.5-3.1-2.1v-0.1c0.7,0.2,1.9,0.5,3.6,1.5c0.2-0.3,1.5-1.9,1.5-3.2l1.5,0.9
			c0.1,0.1,0.2,0.1,0.2,0.3C371.1,78.8,370.8,78.8,370.2,78.8z M377.9,84.3c0,0.3,0.1,0.5,0.2,0.7c0.2,0.3,0.2,0.3,0.2,0.5
			c0,0.4-0.4,0.5-0.5,0.5c-0.7,0-2.9-1.5-3.7-3.5c-0.9-2.1-0.8-4.2-0.8-5.8h-7.6c-0.4,0-1.5,0-2.4,0.2l-0.5-0.8
			c1,0.1,2.2,0.2,3.2,0.2h6.9l0.8-0.7c0.2-0.2,0.2-0.2,0.3-0.2c0.1,0,0.2,0.1,0.3,0.2l0.8,0.7c0.1,0.1,0.2,0.1,0.2,0.2
			c0,0.2-0.2,0.3-0.8,0.5c0,0.3,0,0.6,0,1c0,2.4,0.4,3.8,1.3,5.1c0.1,0.1,0.5,0.6,0.9,0.6c0.2,0,0.3-0.1,0.4-0.3
			c0.6-0.8,0.9-1.3,1.3-2.2l0.1,0.1C378.1,82.2,377.9,83.9,377.9,84.3z M374.3,74.4h-6.2c-0.7,0-1.7,0.1-2.4,0.2l-0.5-0.8
			c1.4,0.1,2.8,0.1,3.2,0.1h3.9l0.6-0.8c0-0.1,0.2-0.2,0.3-0.2c0.1,0,0.3,0.2,0.4,0.2l0.8,0.8c0.1,0.1,0.2,0.2,0.2,0.3
			C374.6,74.4,374.4,74.4,374.3,74.4z"/>
		<path d="M382.9,71.5c-0.7,0-1.7,0.1-2.5,0.2l-0.4-0.8c1.4,0.1,2.8,0.2,3.2,0.2h0.3c0-1.5,0-1.5-0.2-2.3l1.5,0.4
			c0.2,0.1,0.3,0.2,0.3,0.3c0,0.2-0.3,0.4-0.5,0.5V71h1.5l0.4-0.6c0.1-0.1,0.2-0.2,0.3-0.2c0.1,0,0.3,0.1,0.3,0.2l0.7,0.6
			c0.1,0.1,0.2,0.2,0.2,0.3c0,0.2-0.2,0.2-0.3,0.2h-3.2v0.2c0,0.6,0,1.2,0,1.7h1.6l0.4-0.4c0.1-0.1,0.2-0.2,0.3-0.2
			c0.1,0,0.2,0.1,0.3,0.2l0.6,0.6c0.2,0.2,0.2,0.2,0.2,0.3c0,0.2-0.2,0.3-0.7,0.5c0,0.3,0,0.5,0,2.1c0,0.3,0.1,1.7,0.1,2.1
			c0,0.6-0.6,0.7-0.8,0.7c-0.3,0-0.3-0.3-0.3-0.5h-1.8l0.1,2.5h1.3l0.5-0.6c0.1-0.1,0.2-0.2,0.3-0.2c0.1,0,0.3,0.1,0.4,0.2l0.8,0.6
			c0.1,0.1,0.2,0.2,0.2,0.3c0,0.2-0.2,0.2-0.3,0.2h-3.1c0,0.6,0.1,2.9,0.1,3.4c0,0.2,0,0.4-0.1,0.5c-0.1,0.2-0.4,0.4-0.8,0.4
			c-0.2,0-0.4-0.1-0.4-0.4c0-0.1,0-0.6,0-0.6c0-0.5,0-2.8,0-3.2h-0.9c-0.7,0-1.7,0.1-2.4,0.2l-0.5-0.8c1.4,0.1,2.8,0.2,3.2,0.2h0.6
			l0-2.5h-1.8c0,0.3,0,0.8-0.7,0.8c-0.3,0-0.3-0.1-0.3-0.3c0-0.2,0-0.8,0-1c0-1.9,0.1-3.6,0.1-3.9c0-0.8,0-1.1-0.1-1.5l1,0.6h1.7
			c0-0.3,0-1.7,0-1.9H382.9z M383.5,75.8l0-2h-1.8v2H383.5z M383.5,78.2v-2h-1.8v2H383.5z M384.5,73.9v2h1.8v-2H384.5z M384.5,76.3
			c0,1,0,1.1,0,2h1.8v-2H384.5z M392.7,76.8c0.2,0,0.3,0.1,0.3,0.3c0,0.2-0.1,0.2-0.6,0.6v0.6v1.7h1.8l0.6-0.7
			c0.1-0.2,0.2-0.2,0.3-0.2c0.1,0,0.1,0,0.3,0.2l0.8,0.7c0.1,0.1,0.2,0.2,0.2,0.3c0,0.2-0.2,0.2-0.3,0.2h-3.7v4h2.6l0.6-0.8
			c0.2-0.2,0.2-0.2,0.3-0.2c0.1,0,0.1,0,0.3,0.2l0.9,0.8c0,0,0.2,0.2,0.2,0.3c0,0.2-0.2,0.2-0.3,0.2h-7.9c-0.7,0-1.7,0.1-2.5,0.2
			l-0.4-0.8c1.4,0.1,2.8,0.1,3.2,0.1h2c0-0.7,0-3.1,0-4h-0.6c-0.7,0-1.7,0.1-2.5,0.2l-0.5-0.8c1.4,0.1,2.8,0.2,3.2,0.2h0.3
			c0-0.3,0-1.7,0-2c0-0.6-0.2-1.1-0.3-1.4L392.7,76.8z M388,69.4c1.4,0.1,2.8,0.1,3.2,0.1h2.8l0.4-0.4c0.2-0.2,0.2-0.2,0.3-0.2
			c0.1,0,0.1,0,0.3,0.2l0.7,0.6c0.1,0.1,0.2,0.2,0.2,0.3c0,0.1-0.2,0.2-0.2,0.3c-0.1,0.1-0.2,0.1-0.6,0.3c-0.5,1.1-1.1,2.2-2.1,3.3
			c1.9,1.6,3.7,1.9,4.5,2v0.1c-0.4,0.2-0.6,0.3-1.3,1.1c-0.7-0.3-2.1-0.9-3.7-2.6c-0.8,0.8-2.1,1.9-4.5,2.6l-0.1-0.2
			c2.2-1.2,3.2-2.3,4-3.1c-1.4-1.8-1.7-3.2-1.9-3.8c-0.5,0-1,0.1-1.5,0.2L388,69.4z M390.9,70c-0.1,0-0.4,0-0.6,0
			c0.2,0.5,0.6,1.8,2.1,3.2c1.2-1.5,1.6-2.6,1.8-3.3H390.9z"/>
		<path d="M404.6,77.4c-0.1,0.6-0.8,3.1-0.9,3.6c-0.3,1.1-0.4,1.7-0.4,2.2c0,0.2,0.1,1.3,0.1,1.3c0,0.2,0,0.5-0.4,0.5
			c-0.3,0-0.6-0.4-0.8-0.6c-0.9-1.5-1-2.9-1-4.9c0-0.4,0-1,0.1-1.8l0.6-4.2c0.1-0.4,0.1-0.9,0.1-1.4c0-1-0.4-1.5-0.6-1.7
			c0.9-0.1,1.9,1,1.9,1.7c0,0.1-0.2,0.8-0.3,1c-0.4,1.3-1.1,4.1-1.1,6.3c0,1.6,0.3,2.8,0.6,2.8c0.1,0,0.2-0.3,0.2-0.3
			c0.6-1.8,0.9-2.6,1.7-4.6L404.6,77.4z M408.2,81.7c1.1,0.5,2.7,0.5,3.2,0.5c0.7,0,1,0,2-0.2c0.2,0,0.2,0,0.3,0
			c0.3,0,1.3,0.2,1.3,0.7c0,0.5-0.6,0.5-1.8,0.5c-0.9,0-4-0.1-5.2-0.8c-1.2-0.6-1.3-1.8-1.3-2.2c0-0.2,0-0.4,0.1-0.6
			C407.2,80.7,407.4,81.3,408.2,81.7z M409.5,74.5c0.4-0.3,2-1.6,2-1.7c0-0.2-0.6-0.2-0.6-0.2c-0.6,0-2,0.2-3.7,0.8
			c1.7-1.3,2.9-1.7,4.2-1.7c1.2,0,2.7,0.3,2.7,0.9c0,0.3-0.3,0.4-1,0.5c-1.7,0.3-2.9,1-3.6,1.5L409.5,74.5z"/>
		<path d="M426.2,81.9c0.5,0.4,1.4,1.1,3.1,1.1c1.1,0,3.4-0.5,3.4-2.7c0-2.1-2-2.5-2.8-2.5c-1.1,0-3.3,0.5-5.2,1.9
			c0,0.6,0.1,1.3,0.1,2c0,0.2,0.1,1.3,0.1,1.5c0,1.2-0.6,2-1,2c-0.2,0-0.3-0.1-0.6-0.5c-0.1-0.2-0.3-0.4-0.7-0.8
			c-0.1-0.1-0.7-0.5-1.2-0.9c-0.3,0.5-0.5,0.7-0.8,0.7c-0.4,0-1.1-0.4-1.3-0.9c-0.2-0.3-0.2-0.7-0.2-0.9c0.6,0.5,0.7,0.5,0.9,0.5
			c0.1,0,0.2,0,0.5-0.3c1.1-0.9,2.5-1.8,3.5-2.5c0-0.4,0-2.3,0-2.6c0-0.2,0-0.9,0-1.4c-0.5,0.2-1.3,0.4-2.1,0.4
			c-0.5,0-1.5-0.4-1.7-1.4c0.5,0.4,0.7,0.6,1.7,0.6c0.6,0,1.7-0.4,2.1-0.5c0-0.3,0.1-1.7,0.1-2c0-0.5,0-1.7-0.2-2.1
			c-0.1-0.2-0.1-0.2-1-0.7c0.2-0.1,0.4-0.2,0.8-0.2c0.8,0,1.9,0.5,1.9,1c0,0.2,0,0.3-0.1,0.6c-0.2,0.6-0.4,1.3-0.5,2.9
			c1.1-0.5,1.3-0.6,1.5-0.8c0.4-0.3,0.5-0.3,0.7-0.3c0.6,0,0.8,0.2,0.8,0.5s-0.1,0.3-0.5,0.5c-0.2,0.1-1.8,0.8-2.7,1.1
			c0,0.9-0.1,1.7-0.1,2c0,0.2,0,0.7,0.1,1.7c1.7-1,3.5-1.9,5.5-1.9c1.7,0,3.8,0.8,3.8,3.2c0,2.3-2,3.6-4.2,3.6
			C427.5,83.9,426.8,82.9,426.2,81.9L426.2,81.9z M423.8,81.9c0-0.8,0-0.9,0-1.7c-0.9,0.7-1.8,1.5-2.5,2.5c0.2,0.1,1.2,0.5,1.4,0.6
			c0.4,0.2,0.5,0.2,0.6,0.2c0.4,0,0.4-0.4,0.4-1.1V81.9z M430.7,75.5c0.2-0.1,0.6-0.3,1.2-0.9c0.4-0.3,0.4-0.4,0.4-0.6
			c0-0.6-1.3-1.2-2.7-1.8c0.2,0,0.3-0.1,0.6-0.1c3.2,0,3.9,2.1,3.9,2.9c0,0.4-0.3,0.4-0.3,0.4c-0.2,0-0.4-0.1-0.5-0.1
			c-0.4-0.2-0.6-0.2-0.8-0.2C432,75.1,431.6,75.3,430.7,75.5L430.7,75.5z"/>
		<path d="M444.1,70.8c0,0.4-0.1,0.8-0.1,1.5c0,0.5,0.1,2.7,0.1,3.1c0,0.3,0,0.9-0.7,0.9c-0.4,0-0.4-0.1-0.3-0.7h-3.8
			c0,1,0,2.6,0,3.6v4.4c0,0.2,0,1.4,0,1.6c0,0.1,0,0.3-0.1,0.5c-0.2,0.2-0.5,0.4-0.7,0.4c-0.4,0-0.4-0.3-0.4-0.5
			c0,0,0.1-0.1,0.2-5.3c0.1-5,0-5.5,0-5.9c0-1,0-3.6-0.2-4.4c0-0.2,0-0.2-0.2-0.7l1.5,0.7h3.5l0.2-0.3c0.1-0.1,0.1-0.2,0.2-0.2
			c0.1,0,0.1,0,0.2,0.1l0.8,0.6c0.1,0.1,0.1,0.1,0.1,0.2C444.7,70.4,444.5,70.5,444.1,70.8z M443.1,70.2h-3.8v2.1h3.8V70.2z
			 M443.1,72.8h-3.8v2.3h3.8V72.8z M448.4,78.7c0,1.2,0,2.3,0,3.5c0,1-0.6,1-0.7,1c-0.1,0-0.4-0.1-0.4-0.4c0-0.2,0-0.5,0-0.7h-4.2
			c0,0.1,0,0.6,0,0.7c0,0-0.2,0.7-0.7,0.7c-0.3,0-0.4-0.2-0.4-0.4c0,0,0-0.4,0-0.5c0.1-1.1,0.1-2.7,0.1-2.9c0-0.8,0-2-0.1-2.5
			l1.2,0.6h3.9l0.3-0.3c0.1-0.2,0.2-0.2,0.2-0.2c0.1,0,0.1,0,0.3,0.1l0.7,0.5c0.1,0.1,0.2,0.1,0.2,0.2
			C448.9,78.4,448.7,78.5,448.4,78.7z M447.4,78.4h-4.2v3.4h4.2V78.4z M453,70.8c0,0.5,0,4.7,0,5.8c0,1.2,0,2.5,0,3.3
			c0,1.5,0.1,2.7,0.1,3c0,2,0,2.4-2,3.1c-0.3-0.8-0.5-1-1.8-1.7v-0.1c0.5,0,1,0.1,1.6,0.1c0.8,0,0.9,0,1-0.2C452,84,452,84,452,82.8
			c0-1.1-0.1-6.2,0-7.3h-4c0,0.2-0.1,0.7-0.7,0.7c-0.1,0-0.4,0-0.4-0.4c0-1.3,0.1-3.4,0.1-4.7c0-0.8-0.1-1.7-0.2-2l1.3,0.7h3.7
			l0.3-0.4c0.1-0.1,0.2-0.2,0.2-0.2c0.1,0,0.2,0.1,0.3,0.2l0.8,0.6c0.1,0.1,0.2,0.1,0.2,0.2C453.6,70.4,453.2,70.7,453,70.8z
			 M452,70.3h-4v2.1h4V70.3z M452,72.8h-4v2.3h4V72.8z"/>
		<path d="M472.1,76.9c-3.2-1.4-6-4.3-7.3-6.9h-0.1c-3.2,4.3-5.5,6.8-8.7,8.3l-0.1-0.2c2.9-1.9,5.6-5.7,6.8-7.3
			c0.5-0.7,1-1.4,1.2-2.3l1.5,0.6c0.2,0.1,0.2,0.1,0.2,0.2c0,0.2-0.2,0.4-0.4,0.5c1.4,2.4,5.1,5.1,8.6,5.5v0.2
			C473.3,75.8,472.4,76.3,472.1,76.9z M469.2,80.3c0,1.1,0,2.8,0,3.7c0,0.2,0.1,0.8,0.1,0.9c0,0.5-0.6,0.6-0.8,0.6
			c-0.3,0-0.4-0.2-0.4-0.4c0-0.1,0-0.3,0-0.4h-7c0,0.2,0,0.5,0,0.6c-0.1,0.2-0.5,0.5-0.8,0.5c-0.2,0-0.4-0.1-0.4-0.3
			c0-0.1,0.1-0.7,0.1-0.9c0.1-1.3,0.1-2.8,0.1-4.1c0-0.7,0-1-0.1-1.8l1.4,0.7h6.8l0.4-0.4c0.1-0.1,0.2-0.2,0.2-0.2
			c0.1,0,0.2,0.1,0.3,0.2l0.6,0.6c0.2,0.2,0.2,0.2,0.2,0.3C469.8,79.9,469.8,79.9,469.2,80.3z M468.6,76.8h-5.5
			c-0.7,0-1.7,0.1-2.5,0.2l-0.4-0.8c1.4,0.1,2.8,0.2,3.2,0.2h3.3l0.6-0.7c0.1-0.2,0.2-0.2,0.3-0.2c0.1,0,0.3,0.2,0.4,0.2l0.9,0.7
			c0.1,0.1,0.2,0.2,0.2,0.3C468.9,76.8,468.7,76.8,468.6,76.8z M468.2,79.8h-7.1v4.5h7.1V79.8z"/>
		<path d="M482.8,78.8l0.2,0c2,0.4,2,0.5,2.2,0.5c0.6,0,0.7-0.4,0.8-0.6c0.1-0.5,0.3-2.6,0.3-3.2c-1.9,0.3-3.7,0.8-5.2,1.1
			c-0.1,1.9-0.1,2.1-0.1,2.5c0,3.5,0.8,4.4,4.1,4.4c1.3,0,2.6-0.2,2.9-0.3c0.5-0.1,0.6-0.1,0.7-0.1c0.5,0,1,0.3,1,0.7
			c0,0.3-0.2,0.4-0.3,0.4c-0.4,0.1-2.1,0.1-2.6,0.1c-2,0-5.2,0-6.1-2.5c-0.4-1-0.5-2.1-0.5-5c-1.7,0.5-2,0.7-2.6,1
			c-0.4,0.2-0.5,0.3-0.7,0.3c-0.3,0-1.8-0.7-1.7-2c0.6,0.5,1.1,0.8,1.6,0.8c0.2,0,0.3,0,0.9-0.2c1.2-0.4,2.1-0.6,2.5-0.7
			c0-0.6,0-2.4-0.2-2.8c-0.2-0.4-0.6-0.6-1-0.9c0.2-0.1,0.2-0.2,0.6-0.2c0.9,0,1.8,0.6,1.8,0.9c0,0.1,0,0.3-0.1,0.5
			c-0.1,0.3-0.1,1.9-0.1,2.2c1.7-0.4,3.4-0.8,5.1-1.1c0-0.8,0.1-3.2-0.2-3.9c-0.2-0.6-1.1-0.9-1.5-0.9c0.2-0.1,0.6-0.2,1.1-0.2
			s1.7,0.4,1.7,1.1c0,0.1-0.1,0.6-0.1,0.6c-0.1,0.6-0.1,2.5-0.2,3.2c0.5-0.1,2.5-0.4,2.9-0.5c0.3-0.1,0.9-0.2,1.1-0.2
			c0.3,0,1.1,0.1,1.1,0.6c0,0.5-0.5,0.5-0.7,0.5c-0.2,0-0.9,0-1.1,0c-0.7,0-1.8,0.1-3.4,0.3c0,1.2-0.2,3.5-0.6,4.4
			c-0.4,0.9-1,1-1.1,1c-0.2,0-0.2,0-0.6-0.4C484.2,79.7,482.8,78.9,482.8,78.8L482.8,78.8z"/>
		<path d="M499.1,78.7c-0.1-0.1-0.6-0.6-0.6-1.2c0-0.4,0.2-0.7,0.7-1.2c3.3-3.6,4.4-4.8,4.8-5.4c0.2-0.3,0.2-0.5,0.2-0.5
			c0-0.3-0.1-0.4-0.7-1.3c0.8,0.1,1.1,0.3,1.2,0.3c0.5,0.3,0.9,1,0.9,1.6c0,0.3-0.1,0.3-0.5,0.7c-0.8,0.6-3.9,3.8-5.1,5.1
			c-0.3,0.4-0.4,0.6-0.4,0.8c0,0.5,0.3,0.8,1.3,1.7c0.8,0.7,1.6,1.5,2.4,2.2c0.8,0.8,2.8,2.8,2.8,3.5c0,0.3-0.2,1-0.7,1
			c-0.3,0-0.4-0.2-0.7-0.8c-0.4-0.8-1.5-2.5-2.8-3.8L499.1,78.7z"/>
		<path d="M522,72.3c0.3-0.2,0.4-0.2,0.6-0.2c0.3,0,0.7,0.2,0.7,0.5c0,0.2-0.2,0.3-0.3,0.4c-0.2,0.1-1.4,0.7-3.4,1.3
			c-1.8,4.9-2.9,7.9-3.8,9.7c-0.2,0.4-0.3,0.6-0.6,0.6c-0.3,0-0.5-0.4-0.5-0.7c0-0.2,0-0.3,0.6-1.3c1.8-3.2,3-6.7,3.5-8.1
			c-1.2,0.3-2.2,0.3-2.5,0.3c-1.3,0-1.7-0.6-1.9-1c0.2,0.1,0.7,0.2,1.7,0.2c0.9,0,2.3-0.2,3-0.5c0.4-1.2,0.7-2.5,0.7-2.8
			c0-0.5-0.4-0.8-1-1.1c0.3-0.1,0.5-0.1,0.8-0.1c1.2,0,1.5,1,1.5,1.2c0,0.1,0,0.2-0.2,0.6c-0.4,0.9-0.6,1.3-0.8,1.9
			C520.5,73,521.3,72.7,522,72.3z M525.2,83.5c0.7,0,1.6-0.1,2.8-0.2c0.3,0,0.4-0.1,0.4-0.1c0.3,0,0.9,0.4,0.9,0.7
			c0,0.6-2.2,0.6-3.3,0.6c-1.5,0-3-0.2-4-1c-0.3-0.2-0.7-0.8-0.7-1.7c0-0.2,0-0.7,0.3-1.2C521.6,82.2,522,83.5,525.2,83.5z
			 M525.3,77c0.4-0.3,1.5-1.3,1.5-1.6c0-0.4-0.7-0.4-3.1-0.5c0.9-0.7,2.5-0.7,2.7-0.7c1.2,0,2.8,0.5,2.8,1.4c0,0.5-0.3,0.5-0.9,0.5
			C527.5,76.1,527,76.2,525.3,77L525.3,77z M528.5,72.3c0,0.1,0,0.5-0.4,0.5c-0.2,0-0.3,0-1-0.8c-0.5-0.5-0.8-0.7-2-1.5
			C526.4,70.5,528.5,71,528.5,72.3z M527.3,69c0.9,0,2,0.3,2.5,0.7c0.3,0.2,0.4,0.7,0.4,0.8c0,0.2-0.1,0.4-0.4,0.4
			c-0.2,0-0.4-0.1-0.6-0.3c-0.8-0.8-1.5-1.2-2.7-1.6C526.8,69,526.9,69,527.3,69z"/>
		<path d="M542.8,71.1c0.4,0.1,1,0.2,1.2,0.2c0.2,0,0.9-0.2,1.1-0.2c0.3,0,0.6,0.2,0.6,0.5c0,0.3-0.2,0.4-0.3,0.6
			c-1.3,1-2.5,1.5-3.3,1.8c1.1,1,2.8,2.9,3.7,4c0.5,0.6,0.8,1,0.8,1.4c0,0.4-0.3,1.2-0.7,1.2c-0.1,0-0.2,0-0.6-0.3
			c-1.3-0.7-3-1.2-4.6-1.2c-2.4,0-4,1-4,2.4c0,1.7,1.9,2.3,2.8,2.5c1,0.2,1.8,0.2,2.1,0.2c0.1,0,0.8-0.1,0.9-0.1
			c0.3,0,1.5,0,1.5,0.7c0,0.5-0.8,0.5-0.9,0.5c-2.1,0-3.2-0.2-3.9-0.4c-2.6-0.7-3-1.9-3-3.1c0-3.3,4.1-3.3,4.9-3.3
			c0.9,0,2,0.1,3,0.3c0.2,0,1.1,0.2,1.1,0.2c0.1,0,0.1,0,0.1-0.1c0-0.4-1.9-2.9-3.8-4.7c-1.9,0.7-3.5,1-4.3,1
			c-0.6,0-1.8-0.2-2.3-1.4c0.7,0.3,1.2,0.6,2,0.6c1.6,0,3.3-0.6,3.9-0.8c-1.5-1.2-1.6-1.3-2.1-1.6c-0.7-0.5-0.7-0.9-0.7-1.1
			c0-0.5,0.4-1.1,1.1-1.1c0.1,0,0.6,0,1.2,0.4c-0.6,0.1-0.6,0.1-0.8,0.2c-0.1,0.1-0.2,0.2-0.2,0.5c0,0.5,1.7,2,2.3,2.5
			c0.5-0.2,1.1-0.4,1.9-0.9c0.2-0.2,0.2-0.3,0.2-0.4C543.5,71.6,543.2,71.4,542.8,71.1L542.8,71.1z"/>
		<path d="M559.5,76.3c-0.3,0.5-2.3,4.7-2.4,4.9c-0.1,0.2-0.1,0.5-0.1,0.7c0,0.1,0.1,0.7,0.1,0.9c0,0.2-0.1,0.4-0.5,0.4
			c-0.3,0-2.4-0.2-3.3-4.1c-0.2-0.7-0.2-1-0.4-4c-0.1-1.5-0.2-2-0.9-3.2c1,0,2.1,1.1,2.1,2c0,0.2,0,0.3-0.1,0.8
			c-0.1,0.6-0.1,1.2-0.1,1.6c0,1.1,0.2,3.7,1.4,4.7c0.1,0,0.2,0.2,0.4,0.2c0.2,0,0.4-0.2,0.5-0.3c1.4-2.2,1.6-2.4,2.9-4.4
			c0,0,0.1-0.2,0.2-0.3L559.5,76.3z M563.8,78.6c0.3,0,1.5-0.2,1.7-0.3c0.2,0,0.5-0.1,0.5-0.5c0-0.4-0.8-3.5-3.5-4.5
			c0.1,0,0.3-0.1,0.6-0.1c0.3,0,1.3,0.2,2.2,1.2c1.4,1.6,2.1,3.6,2.1,4.5c0,0.6-0.2,1.1-0.5,1.1c-0.1,0-0.2,0-0.7-0.4
			c-0.6-0.6-1.1-0.6-2.3-0.9V78.6z"/>
		<path d="M570.7,82.7c0-1.5,1.2-2.8,2.8-2.8c1.5,0,2.8,1.2,2.8,2.8c0,1.6-1.3,2.8-2.8,2.8C571.9,85.4,570.7,84.2,570.7,82.7z
			 M575.7,82.7c0-1.2-1-2.2-2.2-2.2c-1.3,0-2.2,1-2.2,2.2c0,1.2,1,2.2,2.2,2.2C574.7,84.9,575.7,83.9,575.7,82.7z"/>
	</g>
</g>
</svg>
