<?xml version="1.0" encoding="utf-8"?>
<!-- Generator: Adobe Illustrator 27.0.0, SVG Export Plug-In . SVG Version: 6.00 Build 0)  -->
<svg version="1.1" id="レイヤー_1" xmlns="http://www.w3.org/2000/svg" xmlns:xlink="http://www.w3.org/1999/xlink" x="0px"
	 y="0px" viewBox="0 0 312 30" style="enable-background:new 0 0 312 30;" xml:space="preserve">
<style type="text/css">
	.st0{fill:#231815;}
</style>
<g>
	<g>
		<path d="M9,13.1c0,2.3-2,4.2-4.8,4.2c-2.5,0-4-1.5-4-2.9c0-0.6,0.3-1.2,1-1.2c0.7,0,1,0.6,1,1.1c0,0.2-0.2,0.8-0.2,1
			c0,0.5,0.7,1.4,2.1,1.4c1.8,0,3.2-1.4,3.2-3.6c0-2.1-1.2-3.5-3.2-3.5C4,9.5,3.5,9.6,3.4,9.6c-0.1,0-0.5,0-0.5-0.4
			c0-0.3,0.2-0.4,0.5-0.4c0.1,0,0.6,0.1,0.8,0.1c1.1,0,3-0.9,3-3.2c0-1.9-1.3-2.9-2.7-2.9C3.2,2.7,2.5,3.4,2.5,4
			c0,0.1,0.1,0.6,0.1,0.7c0,0.5-0.2,1.2-0.9,1.2c-0.6,0-0.8-0.5-0.8-1.1C0.8,3.4,2.5,2,4.6,2c2.2,0,4.1,1.4,4.1,3.4
			c0,1.4-1.1,3.1-3.5,3.7C8.1,9.5,9,11.7,9,13.1z"/>
		<path d="M16.4,17.3c-2.4,0-3.8-1.7-3.8-3c0-0.6,0.4-1.2,1-1.2c0.5,0,0.9,0.4,0.9,1.1c0,0.3-0.1,0.8-0.1,1c0,0.7,0.7,1.4,2.1,1.4
			c2.5,0,3.3-2.6,3.3-4.4c0-1.7-0.5-3.8-3-3.8c-1.4,0-2.2,0.8-3.2,1.8L13.3,10l0.4-7.6h6.9l-0.4,1.3h-6L14,9.1
			c0.4-0.4,0.8-0.8,1.5-1.1c0.6-0.3,1.2-0.4,1.7-0.4c1.5,0,4.1,1.3,4.1,4.5C21.4,15.2,19,17.3,16.4,17.3z"/>
		<path d="M44.7,12.9h-7.5c0,1.5,0,1.7,0,2.2c0,0.4,0.1,2.3,0.1,2.6c0,0.3-0.1,1-0.9,1c-0.4,0-0.4-0.2-0.4-0.7
			c0-0.1,0.1-3.7,0.1-3.9c0-0.3,0-0.4,0-1.3h-5.8c-0.7,0-1.8,0.1-2.6,0.2l-0.5-0.9c1.5,0.1,3,0.2,3.3,0.2h0.8v-1.2
			c0-2.3,0-2.9,0-3.1c0-0.5-0.1-1.1-0.2-1.6l1.6,1h3.4V5.6v-2h-3.6c-0.9,1.3-2.2,3.1-5.1,4.8l-0.1-0.1c1.8-1.6,3.3-3.5,4.5-5.6
			c0.9-1.7,1-2.2,1-2.7l1.7,0.9c0.2,0.1,0.2,0.2,0.2,0.3c0,0.4-0.8,0.4-1,0.4c-0.4,0.6-0.6,1-1,1.5H41l0.8-0.9C42,2,42,2,42.1,2
			s0.3,0.1,0.4,0.2l1.1,0.9c0.1,0.1,0.2,0.2,0.2,0.3c0,0.2-0.2,0.2-0.3,0.2h-6.3v3.9h3.1l0.6-0.9c0-0.1,0.2-0.2,0.3-0.2
			c0.1,0,0.3,0.2,0.4,0.2l1.1,0.9c0.1,0.1,0.2,0.2,0.2,0.3C42.9,8,42.7,8,42.6,8h-5.4v0.7c0,1.7,0,1.8,0,3.7h5l0.9-1
			c0.2-0.2,0.2-0.2,0.3-0.2c0.1,0,0.3,0.2,0.4,0.2l1.1,1c0.1,0.1,0.2,0.2,0.2,0.3C45,12.8,44.9,12.9,44.7,12.9z M32.4,8v4.4h3.6
			c0-1,0-3.5,0-4.4H32.4z"/>
		<path d="M51.9,1.6c-0.1,0.1-0.2,0.1-0.6,0.2c-0.1,0.2-0.2,0.4-0.3,0.6c-0.2,0.4-1,1.9-1.2,2.3l0.8,0.5C50.9,5.3,51,5.4,51,5.5
			c0,0.2-0.2,0.3-0.6,0.7c-0.1,1-0.1,1.4-0.1,2.9c0,2.3,0.1,6.9,0.1,8.2c0,0.1,0,0.2,0,0.2c0,0.9-0.9,1-1,1c-0.5,0-0.5-0.4-0.5-0.5
			c0-0.2,0-0.5,0-0.6c0.1-1.4,0.4-9,0.3-11.5c-0.3,0.6-1.8,3.3-3.2,4.2l-0.1-0.1c2-2.5,3.8-7.4,4.1-8.6c0.1-0.5,0.1-0.7,0.1-1l1.7,1
			c0.1,0,0.1,0.1,0.1,0.2C52.2,1.5,52.1,1.5,51.9,1.6z M63.5,17c-2.6-1.7-4.2-4.3-5.1-6.5h-0.2c0,1.1,0.3,6.8,0.3,7.1
			c0,0.8-0.9,0.8-1,0.8c-0.4,0-0.4-0.2-0.4-0.4c0-0.9,0.1-2.3,0.1-3.2c0.1-1.6,0.1-2.7,0.1-3.6c-1.3,2.1-3,3.6-4.2,4.5
			c-1,0.7-1.7,1.1-2.2,1.3l0-0.1c2.2-1.7,4.4-4.5,5.6-6.5h-2.2c-0.7,0-1.8,0.1-2.6,0.2l-0.5-0.9c1.5,0.1,2.9,0.1,3.3,0.1h2.8
			c0-0.8-0.1-2.3-0.2-3l1.6,0.3c0.1,0,0.2,0.1,0.2,0.2c0,0.2-0.1,0.3-0.5,0.6c0,0.7-0.1,1.2-0.1,1.9h4l0.6-0.8
			c0-0.1,0.2-0.3,0.3-0.3c0.1,0,0.2,0.1,0.4,0.2l1.1,0.8c0,0,0.2,0.2,0.2,0.3c0,0.2-0.2,0.2-0.3,0.2h-5.8c0.4,0.9,1.5,3,4.1,4.3
			c1,0.6,1.8,0.7,2.3,0.9v0.1C64.7,15.9,63.8,16.3,63.5,17z M62,2.3c0,1.3,0.1,3.3,0.1,4.5c0,0.7-0.7,0.7-0.8,0.7
			c-0.5,0-0.4-0.4-0.4-0.8h-6.1c0,0.2,0,0.3,0,0.5c-0.1,0.4-0.6,0.5-0.8,0.5c-0.4,0-0.4-0.4-0.4-0.5c0-0.1,0-0.5,0-0.6
			c0-0.7,0.1-2.7,0.1-4.1c0-0.7-0.1-1.4-0.1-2.1l1.5,0.8h5.6l0.4-0.4c0.1-0.1,0.1-0.1,0.2-0.1c0.1,0,0.2,0.1,0.3,0.1l0.8,0.6
			c0.1,0.1,0.1,0.2,0.1,0.3C62.7,1.9,62.7,2,62,2.3z M61,1.8h-6.1v4.4H61V1.8z"/>
		<path d="M72.8,4.8h-4.2c-0.7,0-1.8,0.1-2.6,0.2l-0.5-0.9c1.5,0.1,3,0.1,3.3,0.1H71l0.6-0.7c0.2-0.2,0.2-0.2,0.3-0.2
			c0.1,0,0.2,0.1,0.3,0.2l0.7,0.6c0.2,0.2,0.2,0.2,0.2,0.3C73.1,4.8,73,4.8,72.8,4.8z M71.9,7.4h-2.4c-0.7,0-1.8,0.1-2.6,0.2
			l-0.5-0.9c1.5,0.1,3,0.2,3.3,0.2h0.6l0.4-0.5c0.2-0.2,0.2-0.3,0.3-0.3c0.1,0,0.2,0.1,0.3,0.2L72,6.9c0.1,0.1,0.2,0.2,0.2,0.3
			C72.2,7.4,72,7.4,71.9,7.4z M71.9,10h-2.4c-0.7,0-1.8,0.1-2.6,0.2l-0.5-0.9c1.5,0.1,3,0.1,3.3,0.1h0.6L70.8,9
			c0.2-0.2,0.2-0.2,0.3-0.2c0.1,0,0.3,0.1,0.3,0.2L72,9.5c0.1,0.1,0.2,0.2,0.2,0.3C72.2,10,72,10,71.9,10z M71.8,1.9h-2.1
			c-0.7,0-1.8,0.1-2.6,0.2l-0.5-0.9c1.3,0.1,2.6,0.1,3.5,0.1L70.6,1c0.2-0.2,0.2-0.2,0.3-0.2c0.1,0,0.3,0.1,0.4,0.2l0.6,0.5
			c0.1,0.1,0.2,0.2,0.2,0.3C72.1,1.9,71.9,1.9,71.8,1.9z M71.6,13c0.1,2.2,0.1,4.3,0.1,4.3c0,0.6-0.6,0.7-0.7,0.7
			c-0.5,0-0.4-0.3-0.4-1.2H68c0,0.2,0,0.9,0,1c0,0.3-0.1,0.4-0.3,0.6c-0.1,0.1-0.4,0.3-0.5,0.3c-0.3,0-0.5-0.2-0.5-0.5
			c0-0.2,0-0.4,0-0.4c0-0.6,0.1-2,0.1-2.6c0-2.5,0-2.7-0.1-3.5l1.3,0.6h2.2l0.4-0.4c0.1-0.1,0.2-0.2,0.3-0.2c0.1,0,0.2,0,0.3,0.1
			l0.8,0.5c0.1,0,0.1,0.1,0.1,0.2C72.2,12.7,71.7,12.9,71.6,13z M70.6,12.6h-2.6v3.6h2.6V12.6z M83.7,17.1h-8.3
			c-0.4,0-1.6,0-2.6,0.2l-0.5-0.9c0.5,0,1,0.1,1.8,0.1c0-6.2,0-7.1-0.1-8.8c0-0.1-0.1-1.3-0.2-1.5l1.5,0.5c0.2,0.1,0.4,0.1,0.4,0.3
			c0,0.2-0.3,0.4-0.6,0.6c0,1.1,0,7.5,0,8.9h0.5h1.8v-14h-1c-0.4,0-1.6,0-2.6,0.2L73.4,2c1,0.1,2.3,0.2,3.3,0.2h4.3l0.6-0.8
			c0.1-0.2,0.2-0.2,0.3-0.2c0,0,0.1,0,0.3,0.2l0.8,0.8c0,0,0.2,0.2,0.2,0.3c0,0.2-0.2,0.2-0.3,0.2h-4.5v6.3h2.2l0.6-0.7
			c0.2-0.2,0.2-0.2,0.3-0.2c0.1,0,0.3,0.1,0.4,0.2l0.9,0.7C83,9,83.1,9.1,83.1,9.2c0,0.2-0.2,0.2-0.3,0.2h-4.3v7.2h3l0.7-0.8
			c0.2-0.2,0.2-0.3,0.3-0.3c0,0,0.2,0,0.4,0.2l0.9,0.9c0.1,0.1,0.2,0.2,0.2,0.3C84,17.1,83.8,17.1,83.7,17.1z"/>
	</g>
</g>
<path class="st0" d="M303.6,16.7c-0.2,0-0.4-0.1-0.5-0.2c-0.3-0.3-0.3-0.7,0-1l6.7-6.7L303.1,2c-0.3-0.3-0.3-0.7,0-1
	c0.3-0.3,0.7-0.3,1,0l7.7,7.7l-7.7,7.7C303.9,16.6,303.7,16.7,303.6,16.7z"/>
<g>
	<path d="M203.8,15.3l-4.4-12.4h2.9l1.8,5.7c0.6,1.7,1,3.2,1.3,4.5h0c0.3-1.2,0.7-2.7,1.3-4.4l1.9-5.8h2.7l-4.5,12.4H203.8z"/>
	<path d="M212.6,4.4V2.1h2.6v2.3H212.6z M212.6,5.9h2.6v9.3h-2.6V5.9z"/>
	<path d="M219.5,11.1c0,1.2,0.6,2.3,1.9,2.3c1.1,0,1.4-0.4,1.6-1h2.6c-0.3,1.1-1.3,3-4.3,3c-3.1,0-4.4-2.3-4.4-4.7
		c0-2.9,1.5-5,4.5-5c3.2,0,4.3,2.3,4.3,4.6c0,0.3,0,0.5,0,0.8H219.5z M223.1,9.6c0-1.1-0.5-2-1.7-2c-1.2,0-1.7,0.8-1.8,2H223.1z"/>
	<path d="M229.3,5.9c0.8,3.7,1.3,5.9,1.5,7h0c0.2-1,0.5-2.5,1.6-7h2.4c1,4.6,1.4,5.9,1.5,6.9h0c0.2-1,0.5-2.3,1.6-6.9h2.6l-2.8,9.3
		H235c-0.8-3.5-1.2-5.4-1.4-6.6h0c-0.1,1.2-0.6,3.3-1.5,6.6h-2.8l-2.6-9.3H229.3z"/>
	<path d="M257,10.6c0-2.1,0-4.5,0.1-5.9H257c-0.6,2.5-1.8,6.7-3,10.6h-2.3c-0.9-3.4-2.2-8.1-2.7-10.6h-0.1c0.1,1.5,0.2,4,0.2,6.1
		v4.4h-2.4V2.8h4c1,3.2,2.1,7.3,2.4,9.1h0c0.3-1.6,1.7-6,2.7-9.1h3.9v12.4H257V10.6z"/>
	<path d="M270.9,10.6c0,2.8-1.7,4.9-4.6,4.9c-2.9,0-4.6-2.1-4.6-4.8c0-2.9,1.7-4.9,4.7-4.9C269.1,5.7,270.9,7.7,270.9,10.6z
		 M264.3,10.6c0,1.8,0.8,2.9,2,2.9c1.3,0,2-1.1,2-2.8c0-1.9-0.7-2.9-2-2.9C265.1,7.7,264.3,8.6,264.3,10.6z"/>
	<path d="M272.7,8.5c0-0.9,0-1.7,0-2.5h2.5c0,0.2,0.1,1.1,0.1,1.6c0.4-1.1,1.4-1.8,3-1.9v2.5c-1.9-0.1-3,0.5-3,3v4.1h-2.6V8.5z"/>
	<path d="M281.8,11.1c0,1.2,0.6,2.3,1.9,2.3c1.1,0,1.4-0.4,1.6-1h2.6c-0.3,1.1-1.3,3-4.3,3c-3.1,0-4.4-2.3-4.4-4.7
		c0-2.9,1.5-5,4.5-5c3.2,0,4.3,2.3,4.3,4.6c0,0.3,0,0.5,0,0.8H281.8z M285.4,9.6c0-1.1-0.5-2-1.7-2c-1.2,0-1.7,0.8-1.8,2H285.4z"/>
</g>
<rect y="29.3" width="310.5" height="0.3"/>
</svg>
