<?xml version="1.0" encoding="utf-8"?>
<!-- Generator: Adobe Illustrator 27.0.0, SVG Export Plug-In . SVG Version: 6.00 Build 0)  -->
<svg version="1.1" id="レイヤー_1" xmlns="http://www.w3.org/2000/svg" xmlns:xlink="http://www.w3.org/1999/xlink" x="0px"
	 y="0px" viewBox="0 0 312 30" style="enable-background:new 0 0 312 30;" xml:space="preserve">
<style type="text/css">
	.st0{fill:#231815;}
</style>
<g>
	<g>
		<path d="M9.4,4.9h-5l1,0.5c0.1,0.1,0.3,0.1,0.3,0.3c0,0.2-0.3,0.3-0.7,0.5c0,0.5,0,0.9,0,2h1.7l0.2-0.3c0-0.1,0.2-0.3,0.3-0.3
			s0.1,0,0.3,0.2l0.8,0.6c0.1,0.1,0.2,0.2,0.2,0.3S8.4,8.8,8.4,8.8c-0.1,0-0.4,0.3-0.5,0.3c0,1.8-0.1,6.8-1,8.1
			c-0.3,0.4-1,0.8-1.9,1.1c-0.2-0.6-0.3-1.1-1.2-1.7l0-0.1c0.7,0.1,1.3,0.2,1.6,0.2c0.3,0,0.6-0.1,0.9-0.9c0.4-1.4,0.5-2.8,0.5-7
			c0-0.1,0-0.2,0-0.3H5c-0.3,4.2-1.2,7.1-3.8,9.6l-0.1-0.1C3.2,14.9,4,11.2,4,7.5c0-0.8,0-1.8-0.2-2.5c-0.2,0-1.3,0-2.2,0.2L1.1,4.3
			c1.4,0.1,2.8,0.1,3.4,0.1c0-2.1,0-2.5-0.1-2.9c0,0-0.2-1.1-0.3-1.3L6,0.7c0.1,0,0.3,0.1,0.3,0.3S6.2,1.3,5.6,1.6
			c0,1.1,0,2.6,0,2.9h2.1l0.4-0.5c0.1-0.2,0.2-0.2,0.3-0.2c0.1,0,0.1,0,0.4,0.2l0.7,0.5c0.1,0.1,0.2,0.2,0.2,0.3
			C9.7,4.9,9.6,4.9,9.4,4.9z M18.5,17.6c-0.5,0.2-1,0.3-4.6,0.3c-2.2,0-2.8,0-3.1-0.2c-0.5-0.3-0.5-1-0.5-2.5c0-0.7,0-3.9,0-4.6
			c-0.7,0.3-0.9,0.4-1.3,0.6l-0.7-0.7c1-0.2,1.2-0.2,2-0.4c0-1.8-0.1-2.2-0.2-2.7l1.5,0.5c0.2,0.1,0.3,0.1,0.3,0.2
			c0,0.2-0.4,0.5-0.6,0.6v1.2c0.2,0,0.2-0.1,0.3-0.1l2-0.5c0-2.4,0-2.7-0.2-3.6L14.7,6C15,6.1,15,6.2,15,6.3c0,0.2-0.2,0.3-0.6,0.6
			V8v0.9l2-0.5l0.4-0.6c0.1-0.2,0.2-0.3,0.3-0.3c0.1,0,0.3,0.1,0.4,0.2l0.7,0.4c0.2,0.1,0.3,0.2,0.3,0.3c0,0.2-0.5,0.5-0.7,0.6
			c0,0.5,0.1,3.6,0.1,3.8c0,0.7,0,1.7-1.4,2.2c-0.4-1.1-0.9-1.3-1.1-1.5v-0.1c1.4,0,1.4,0,1.5-0.4c0-0.3,0.1-2.8,0.1-2.9
			c0-0.8,0-1-0.1-1.4l-2.3,0.6c0,1.8,0,2.5,0,3.7c0,0.5,0.1,1.4,0.1,1.9c0,0.5-0.6,0.7-0.8,0.7s-0.3-0.1-0.3-0.4
			c0-0.3,0.1-1.4,0.1-1.6c0-1.4,0-2.2,0-4.1l-2.2,0.6c0,4.3,0,5.8,0,6c0,0.3,0.2,0.4,0.5,0.5c0.3,0,1.4,0,1.8,0c0.8,0,3,0,3.6-0.1
			c0.6-0.1,1-0.5,1.4-2.5h0.1c0,0.1,0.3,1.9,0.3,1.9c0,0.1,0.2,0.2,0.2,0.3c0,0,0.1,0.1,0.1,0.2C19.3,17,18.8,17.5,18.5,17.6z
			 M18.7,4.9h-7.6c-1,1.4-1.7,2.2-2.1,2.6L8.9,7.4c1.2-1.9,2.4-4.5,3-6.4c0.1-0.5,0.1-0.7,0.1-1l1.7,0.9c0.1,0,0.2,0.1,0.2,0.2
			c0,0.2-0.1,0.3-0.9,0.3c-0.7,1.6-1.2,2.3-1.6,2.9h5.3l0.7-0.8c0.2-0.2,0.2-0.2,0.3-0.2c0.1,0,0.2,0,0.4,0.2l0.7,0.7
			c0.1,0.1,0.2,0.2,0.2,0.3C19.1,4.8,18.9,4.9,18.7,4.9z"/>
		<path d="M38.1,16.4H23.2c-0.4,0-1.6,0-2.6,0.2l-0.5-0.9c1,0.1,2.3,0.2,3.3,0.2h5.2V2.8h-4.2c-0.4,0-1.6,0-2.6,0.2l-0.5-0.9
			c1,0.1,2.3,0.2,3.3,0.2h10.1l0.7-0.8c0.1-0.1,0.2-0.3,0.3-0.3c0.1,0,0.2,0.1,0.4,0.2l1.1,0.8c0.1,0.1,0.2,0.2,0.2,0.3
			c0,0.2-0.2,0.2-0.3,0.2h-7.4v13.1h5.4l1.1-1.1c0.3-0.2,0.3-0.3,0.3-0.3c0.1,0,0.3,0.2,0.4,0.2l1.1,1c0,0,0.2,0.2,0.2,0.3
			C38.4,16.4,38.2,16.4,38.1,16.4z"/>
		<path d="M56.4,18.1c-1.4-0.3-2.8-1-3.1-1.2c-1.8-0.9-3.2-2.3-4.4-4.3h-0.4c-1,2.7-3.4,4.9-8,5.7l-0.1-0.2c3.7-1,6.2-3.8,6.9-5.5
			h-4.4c-0.7,0-1.8,0.1-2.6,0.2L39.8,12c1.5,0.1,2.9,0.1,3.3,0.1h4.3c0.2-0.5,0.3-1.2,0.4-2.2h-2.1c-0.7,0-1.8,0.1-2.6,0.2l-0.5-0.9
			c1.5,0.1,2.9,0.2,3.3,0.2h1.8c0-0.4,0.1-1,0.1-2.2h-2.6c-0.7,0-1.8,0.1-2.6,0.2l-0.5-0.9c1.5,0.1,2.9,0.2,3.3,0.2H48
			c0-1.5-0.1-2.1-0.3-2.7l1.8,0.4c0.1,0,0.3,0.1,0.3,0.3c0,0.2-0.1,0.3-0.6,0.6c0,0.3,0,0.4,0,1.4h3.2L53,6c0.2-0.2,0.2-0.2,0.3-0.2
			c0.1,0,0.3,0.1,0.4,0.2l0.8,0.7c0.1,0.1,0.2,0.2,0.2,0.3c0,0.2-0.2,0.2-0.3,0.2h-5.3L49,9.5h3.1l0.6-0.7c0.2-0.2,0.2-0.2,0.3-0.2
			c0.1,0,0.3,0.1,0.4,0.2l0.8,0.7c0.1,0.1,0.2,0.2,0.2,0.3c0,0.2-0.2,0.2-0.3,0.2h-5c-0.1,1.1-0.3,1.8-0.4,2.2h6.2l0.8-0.8
			c0.2-0.2,0.2-0.2,0.3-0.2c0.1,0,0.2,0.1,0.4,0.2l0.9,0.7c0.1,0.1,0.2,0.2,0.2,0.3c0,0.2-0.2,0.2-0.3,0.2h-7.9
			c3.2,4,7.4,3.9,8.9,3.8l0,0.2C57.1,16.9,57,17.1,56.4,18.1z M56.7,3.8c-0.2,0-0.3,0-0.9,0c-0.4,0.2-2,1.1-2.4,1.2l-0.1-0.1
			c0.4-0.5,0.9-1.2,1.1-1.6H42.2c0,1.6-0.4,3.3-1.7,3.3c-0.2,0-0.7-0.1-0.7-0.7c0-0.4,0.1-0.5,1-1.4c0.6-0.5,0.9-1.4,1-2.5H42
			c0.1,0.3,0.1,0.4,0.1,0.7H48c-0.1-1.7-0.1-1.8-0.4-2.5l1.9,0.4c0.1,0,0.3,0.1,0.3,0.3c0,0.3-0.1,0.3-0.6,0.6v1.2h5.2l0.9-0.7
			c0.2-0.2,0.2-0.2,0.3-0.2c0.1,0,0.3,0,0.4,0.1l1.2,1c0.1,0.1,0.2,0.2,0.2,0.3C57.3,3.8,57,3.8,56.7,3.8z"/>
		<path d="M63.3,2c-0.2,0.6-0.4,1.4-1.4,3.1l0.6,0.3c0.2,0.1,0.4,0.2,0.4,0.3c0,0.2-0.4,0.5-0.6,0.6c-0.1,1,0,9.4,0,11
			c0,0.2-0.1,0.4-0.2,0.5c-0.2,0.1-0.4,0.2-0.6,0.2c-0.3,0-0.4-0.2-0.4-0.5c0-0.9,0.1-5,0.2-5.8c0-2.5,0-2.8,0.1-5.6
			c-0.6,1-1.7,2.6-2.8,3.7l-0.1-0.2c1.8-2.4,3.3-6.8,3.6-8c0.1-0.3,0.2-0.9,0.2-1.1l1.6,0.6c0.1,0.1,0.3,0.1,0.3,0.3
			C64.1,1.7,63.8,1.8,63.3,2z M70.5,3h-3c-0.3,1.1-0.8,2.3-1.4,3.4h2.4l0.3-0.5c0.1-0.1,0.2-0.2,0.3-0.2s0.2,0.1,0.3,0.1l0.7,0.5
			c0.1,0.1,0.2,0.2,0.2,0.4c0,0.2-0.2,0.5-0.6,0.6c-1.2,5.2-3.4,7.9-7.1,9.6l-0.1-0.2c4.3-3,5.4-6.5,6-9.9h-2.7
			c-1.3,2.4-2.3,3.4-2.8,4l-0.1-0.1C64.6,8,66,4.2,66.2,3c-0.4,0-1.5,0.1-2.4,0.2l-0.5-0.9c1,0.1,2.3,0.2,3.3,0.2h1.8l0.6-0.6
			c0.1-0.1,0.2-0.2,0.3-0.2s0.2,0.1,0.4,0.2l0.8,0.6c0.1,0.1,0.2,0.2,0.2,0.3C70.8,3,70.6,3,70.5,3z M66.8,11.4
			c-0.4,0-0.5-0.2-0.8-0.8C65.7,10,65.3,9.4,64.8,9l0.1-0.1c1.1,0.2,2.5,0.9,2.5,1.8C67.4,11.1,67.1,11.4,66.8,11.4z M75.6,2
			c0,0.7-0.1,1.4-0.1,3.7c0,1.5,0.1,8.3,0.1,9.6c0,1.2-0.3,2.4-2.4,2.7c-0.1-0.5-0.1-0.9-2.1-1.8l0-0.1c0.4,0.1,1.1,0.1,1.9,0.1
			c1.1,0,1.4-0.1,1.5-0.5c0.1-0.3,0.1-3,0.1-3.6c0-2.5,0-7.7-0.2-10c0-0.7-0.1-1.2-0.2-1.6l1.7,0.5c0.2,0.1,0.3,0.2,0.3,0.3
			C76.3,1.7,76,1.8,75.6,2z M72.6,3.9c0,0.4-0.1,1.4-0.1,1.8c0,1.3,0.1,6.9,0.1,8.1c0,0.4-0.4,0.7-0.8,0.7c-0.4,0-0.4-0.2-0.4-0.5
			c0-1.8,0.2-4.8,0.2-6.6c0-1.6,0-3.3-0.3-4.9L72.8,3C73,3,73.2,3.1,73.2,3.3C73.2,3.5,73,3.7,72.6,3.9z"/>
	</g>
</g>
<path class="st0" d="M303.1,16.6c-0.2,0-0.4-0.1-0.5-0.2c-0.3-0.3-0.3-0.7,0-1l6.7-6.7L302.6,2c-0.3-0.3-0.3-0.7,0-1
	c0.3-0.3,0.7-0.3,1,0l7.7,7.7l-7.7,7.7C303.4,16.6,303.2,16.6,303.1,16.6z"/>
<g>
	<path d="M203.3,15.2l-4.4-12.4h2.9l1.8,5.7c0.6,1.7,1,3.2,1.3,4.5h0c0.3-1.2,0.7-2.7,1.3-4.4l1.9-5.8h2.7l-4.5,12.4H203.3z"/>
	<path d="M212.1,4.4V2.1h2.6v2.3H212.1z M212.1,5.9h2.6v9.3h-2.6V5.9z"/>
	<path d="M219,11.1c0,1.2,0.6,2.3,1.9,2.3c1.1,0,1.4-0.4,1.6-1h2.6c-0.3,1.1-1.3,3-4.3,3c-3.1,0-4.4-2.3-4.4-4.7c0-2.9,1.5-5,4.5-5
		c3.2,0,4.3,2.3,4.3,4.6c0,0.3,0,0.5,0,0.8H219z M222.6,9.5c0-1.1-0.5-2-1.7-2c-1.2,0-1.7,0.8-1.8,2H222.6z"/>
	<path d="M228.8,5.9c0.8,3.7,1.3,5.9,1.5,7h0c0.2-1,0.5-2.5,1.6-7h2.4c1,4.6,1.4,5.9,1.5,6.9h0c0.2-1,0.5-2.3,1.6-6.9h2.6l-2.8,9.3
		h-2.8c-0.8-3.5-1.2-5.4-1.4-6.6h0c-0.1,1.2-0.6,3.3-1.5,6.6h-2.8l-2.6-9.3H228.8z"/>
	<path d="M256.5,10.5c0-2.1,0-4.5,0.1-5.9h-0.1c-0.6,2.5-1.8,6.7-3,10.6h-2.3c-0.9-3.4-2.2-8.1-2.7-10.6h-0.1c0.1,1.5,0.2,4,0.2,6.1
		v4.4h-2.4V2.8h4c1,3.2,2.1,7.3,2.4,9.1h0c0.3-1.6,1.7-6,2.7-9.1h3.9v12.4h-2.6V10.5z"/>
	<path d="M270.4,10.5c0,2.8-1.7,4.9-4.6,4.9c-2.9,0-4.6-2.1-4.6-4.8c0-2.9,1.7-4.9,4.7-4.9C268.6,5.7,270.4,7.6,270.4,10.5z
		 M263.8,10.5c0,1.8,0.8,2.9,2,2.9c1.3,0,2-1.1,2-2.8c0-1.9-0.7-2.9-2-2.9C264.6,7.7,263.8,8.6,263.8,10.5z"/>
	<path d="M272.2,8.4c0-0.9,0-1.7,0-2.5h2.5c0,0.2,0.1,1.1,0.1,1.6c0.4-1.1,1.4-1.8,3-1.9v2.5c-1.9-0.1-3,0.5-3,3v4.1h-2.6V8.4z"/>
	<path d="M281.3,11.1c0,1.2,0.6,2.3,1.9,2.3c1.1,0,1.4-0.4,1.6-1h2.6c-0.3,1.1-1.3,3-4.3,3c-3.1,0-4.4-2.3-4.4-4.7
		c0-2.9,1.5-5,4.5-5c3.2,0,4.3,2.3,4.3,4.6c0,0.3,0,0.5,0,0.8H281.3z M284.9,9.5c0-1.1-0.5-2-1.7-2c-1.2,0-1.7,0.8-1.8,2H284.9z"/>
</g>
<rect y="29.2" width="310.5" height="0.3"/>
</svg>
