<?xml version="1.0" encoding="utf-8"?>
<!-- Generator: Adobe Illustrator 27.0.0, SVG Export Plug-In . SVG Version: 6.00 Build 0)  -->
<svg version="1.1" id="レイヤー_1" xmlns="http://www.w3.org/2000/svg" xmlns:xlink="http://www.w3.org/1999/xlink" x="0px"
	 y="0px" viewBox="0 0 312 30" style="enable-background:new 0 0 312 30;" xml:space="preserve">
<style type="text/css">
	.st0{fill:#231815;}
</style>
<g>
	<g>
		<path d="M10.9,1.8H6.4C6.3,2.1,5.2,4.4,4.8,5h3.8L9,4.5c0.1-0.1,0.2-0.2,0.3-0.2c0.1,0,0.1,0,0.3,0.1l0.7,0.6c0,0,0.2,0.2,0.2,0.3
			c0,0.1,0,0.1-0.2,0.2C10.1,5.7,10,5.8,9.9,6c0,0.2,0,1.1,0,1.9v4.4c0,1,0.1,2.7,0.1,3.7c0,0.4,0,1.6-1.8,1.9
			c-0.4-1-1.3-1.3-1.6-1.4v-0.1c0.5,0.1,1.5,0.1,1.6,0.1c0.7,0,0.7-0.1,0.7-0.6c0-1,0-1.6,0-3c0-1,0-6.1,0-7.3H7.3
			c0,1.3,0,7.9,0,9.4c0,0.8-0.6,0.8-0.7,0.8c-0.5,0-0.5-0.3-0.5-0.4c0-0.2,0.1-1,0.1-1.1c0.1-2.2,0.1-6.4,0.1-8.6H5
			c0,2.6,0,5.3,0,7.9c0,0.3,0,2,0,2.4c0,0.1,0,0.3-0.1,0.4c-0.1,0.2-0.4,0.3-0.6,0.3C4,16.5,4,16.2,4,16c0-0.4,0-2,0-2.4
			c0-2,0-5.5,0.1-8.1H2.8c0,3.1,0,6.2,0,9.3c0,0.6,0,1.5,0,2c0,0.9-0.8,0.9-0.9,0.9c-0.4,0-0.4-0.3-0.4-0.6c0-0.2,0.1-1.4,0.1-1.7
			c0-1,0.1-5.4,0.1-6.5c0-1.3,0-3.4-0.2-4.6L3.1,5h1.2C4.8,3.5,4.9,2.6,5,1.8H3.7C3.1,1.8,2,1.9,1.1,2L0.7,1.2
			c1,0.1,2.3,0.2,3.3,0.2h5l0.6-0.7c0.1-0.1,0.2-0.2,0.3-0.2s0.2,0.1,0.4,0.2l0.8,0.7c0.1,0.1,0.2,0.2,0.2,0.3
			C11.3,1.8,11,1.8,10.9,1.8z M18.8,6.2h-3.3c0,4.3,0,4.8,0.1,7.7c0,0.4,0,2,0,2.4c0,1.6-1.3,1.8-2.1,1.9c-0.2-1.1-1.3-1.6-1.8-1.7
			l0-0.1c0.3,0,2,0.1,2.1,0.1c0.6,0,0.7-0.2,0.7-0.5c0-0.6,0-4.4,0-5.2c0-0.2-0.1-4.4-0.1-4.6h-0.7c-0.6,0-1.7,0.1-2.6,0.2l-0.5-0.9
			c1.1,0.1,2.2,0.2,3.3,0.2h0.4c0-0.6,0-3.1,0-3.6c0-0.9-0.1-1.2-0.3-2.1l1.7,0.5c0.1,0,0.3,0.1,0.3,0.4c0,0.3-0.3,0.4-0.7,0.5
			c0,0.3,0,3.6,0,4.3H17l0.6-0.8c0.1-0.1,0.2-0.3,0.3-0.3c0.1,0,0.3,0.1,0.4,0.2L19,5.7c0.1,0.1,0.2,0.2,0.2,0.3
			C19.2,6.2,19,6.2,18.8,6.2z M12.8,11.3c-0.5,0-0.7-0.5-0.8-1.2c-0.3-1.2-0.7-1.7-1.1-2.1L11,8c0.6,0.2,1,0.5,1.5,0.9
			c0.4,0.3,0.9,0.7,0.9,1.6C13.4,11.1,13.1,11.3,12.8,11.3z"/>
		<path d="M37.1,17.2c-0.5,0.4-0.6,0.6-0.6,0.9c-0.7-0.2-2.3-0.7-4-1.7c-2.1-1.2-3.3-2.8-3.7-4h-1.9V16c1.1-0.3,2.7-0.6,3.7-0.9
			l0.1,0.2c-1.3,0.7-6.3,2.4-6.4,2.4c-0.1,0.3-0.1,0.5-0.3,0.5c-0.1,0-0.2-0.1-0.3-0.3l-0.8-1.3c0.3,0,0.5,0,0.7,0
			c0.6,0,1.8-0.3,2.4-0.4v-3.8h-2.5c-0.3,1.2-0.7,3.6-3.7,5.2l0-0.1c2.5-2.3,2.8-4.4,2.8-7.6c0-0.6,0-1.7-0.2-2.2l1.5,0.8h11
			l0.5-0.6c0.2-0.2,0.2-0.3,0.3-0.3c0.1,0,0.3,0.2,0.4,0.2l0.7,0.6C36.9,8.6,37,8.7,37,8.8C37,9,36.9,9,36.7,9H23.6
			c0,0.7,0,1.5-0.2,2.9h11.8l0.6-0.6c0.1-0.1,0.2-0.2,0.3-0.2c0.1,0,0.3,0.1,0.4,0.2l0.8,0.6c0,0,0.2,0.2,0.2,0.3
			c0,0.2-0.2,0.2-0.3,0.2H29c0.2,0.4,0.7,1.3,1.8,2.1c0.9-0.6,1.6-1.2,2-2l0.1,0.1l0.9,0.7c0.2,0.2,0.3,0.2,0.3,0.4
			c0,0.1,0,0.3-0.3,0.3c-0.2,0-0.4-0.1-0.6-0.1c-0.8,0.4-2.2,0.8-2.3,0.8c2.3,1.6,5.6,1.8,7.2,1.9v0.1
			C37.6,16.8,37.2,17.1,37.1,17.2z M36.6,4.3c-0.8,0.3-1.7,1.2-1.8,1.2l-0.1-0.1c0.1-0.3,0.5-1.4,0.6-1.8h-6c0,2.2,0,2.5,0,2.9
			c0,0.1,0.1,0.6,0.1,0.7c0,0.4-0.4,0.7-0.7,0.7c-0.3,0-0.5-0.3-0.5-0.5c0-0.1,0-0.3,0-0.4c0-0.2,0-0.8,0-1c0-0.8,0-1.6,0-2.4h-6
			c-0.1,1.8-1.2,2-1.5,2c-0.2,0-0.6-0.1-0.6-0.6c0-0.4,0.2-0.6,0.9-1c0.7-0.5,0.9-0.9,1.1-1.6h0.1c0,0.3,0,0.5,0,0.8h6V1.5h-2.9
			c-0.7,0-1.8,0.1-2.6,0.2l-0.5-0.9C23.8,1,25.3,1,25.7,1H34l0.6-0.6c0.2-0.2,0.3-0.2,0.3-0.2c0.1,0,0.3,0.1,0.4,0.2L35.8,1
			C36,1.1,36,1.2,36,1.3c0,0.2-0.2,0.2-0.3,0.2h-6.4v1.6h5.8l0.6-0.5c0.2-0.1,0.2-0.2,0.3-0.2c0.1,0,0.2,0.1,0.4,0.3l1,0.9
			c0.1,0.1,0.2,0.2,0.2,0.4C37.7,4.4,37.3,4.4,36.6,4.3z M26.7,7h-2.5c-0.3,0-0.8,0-1.1,0.1l-0.2-0.7c0.4,0,1.1,0.1,1.4,0.1h1.8
			l0.1-0.3c0-0.1,0.1-0.3,0.3-0.3c0.1,0,0.2,0.2,0.3,0.3l0.1,0.3C27,6.5,27,6.7,27,6.8C27,7,26.9,7,26.7,7z M26.7,5.3h-2.2
			c-0.3,0-0.8,0-1.1,0.1l-0.2-0.7c0.4,0,1.1,0.1,1.4,0.1H26l0.2-0.3c0.1-0.1,0.2-0.2,0.3-0.2C26.7,4.3,27,5,27,5.1
			C27,5.3,26.9,5.3,26.7,5.3z M34.1,10.7H28c-0.7,0-1.8,0.1-2.6,0.2l-0.5-0.9c1.5,0.1,3,0.1,3.3,0.1h4.5L33,9.8
			c0.1-0.1,0.2-0.3,0.3-0.3c0.1,0,0.3,0.2,0.4,0.2l0.5,0.4c0,0,0.2,0.2,0.2,0.3C34.4,10.7,34.3,10.7,34.1,10.7z M33.6,5.3h-2
			c-0.3,0-0.8,0-1.1,0.1l-0.2-0.7c0.4,0,1.1,0.1,1.4,0.1h1.3c0.2-0.4,0.2-0.4,0.3-0.4C33.6,4.4,34,5,34,5.1
			C34,5.3,33.8,5.3,33.6,5.3z M34.3,7.1h-2.5c-0.3,0-0.8,0-1.1,0.1l-0.2-0.7c0.4,0,1.1,0.1,1.4,0.1h1.7l0.1-0.2
			c0.1-0.1,0.2-0.3,0.3-0.3c0.2,0,0.5,0.7,0.5,0.8C34.6,7,34.4,7.1,34.3,7.1z"/>
		<path d="M49.6,9.2c0,0.8-0.6,1.4-1.4,1.4c-0.8,0-1.4-0.6-1.4-1.4c0-0.7,0.6-1.4,1.4-1.4C49,7.8,49.6,8.4,49.6,9.2z"/>
		<path d="M64,4.9h-2.1l0,2c1.7,0.6,2.4,1.5,2.4,2c0,0.4-0.2,0.6-0.5,0.6c-0.4,0-0.5-0.2-0.8-1c-0.2-0.4-0.6-1-1-1.3
			c0,0.3,0,2.2,0,2.5c0,0.5,0.2,7.1,0.2,7.7c0,0.4,0,0.5-0.2,0.7c-0.2,0.2-0.5,0.3-0.6,0.3c-0.4,0-0.5-0.2-0.5-0.5
			c0-0.2,0.1-2.7,0.1-3.2c0-1,0.1-5.7,0.1-6.6c-0.4,1-1.8,3.7-3.2,5l-0.1-0.1c1.6-2.5,2.8-5.5,3.3-7.9c-0.2,0-1.4,0-2.3,0.2
			l-0.5-0.9c0.5,0,1.5,0.1,2.9,0.2c0-1.3-0.1-3.3-0.4-4.4l1.8,0.5c0.2,0.1,0.4,0.1,0.4,0.3c0,0.3-0.2,0.4-0.8,0.6c0,0.5,0,2.8,0,2.9
			h0.6L63,3.9c0.2-0.2,0.2-0.2,0.3-0.2c0.1,0,0.2,0.1,0.3,0.2l0.4,0.5c0.1,0.2,0.2,0.2,0.2,0.3C64.3,4.9,64.1,4.9,64,4.9z
			 M76.1,13.9h-2.5c0,0.4,0.1,2,0.1,2.4c0,0.5,0,1.8-2,2.1c-0.1-0.4-0.2-0.9-1.7-1.6v-0.2c0.3,0,1.7,0.1,2,0.1
			c0.6,0,0.6-0.3,0.6-0.9c0-0.3,0-1.6,0-1.9h-5.9c0,0.6,0.1,3,0.1,3.5c0,0.8-0.6,1-0.8,1c-0.4,0-0.4-0.4-0.4-0.5
			c0-0.5,0.1-1.2,0.1-1.7c0-0.6,0-1.5,0.1-2.3c-0.3,0-1.1,0.1-1.8,0.2l-0.5-0.9c0.9,0.1,1.1,0.1,2.3,0.1c0-3.1,0-3.9-0.1-5.2
			l1.5,0.7h2V7.2h-2.2c-0.6,0-1.8,0.1-2.6,0.2l-0.5-0.9c1,0.1,2.2,0.1,3.2,0.1V5c-0.9,0.1-1.1,0.1-1.4,0.2L65,4.4
			C66,4.4,66.2,4.4,67,4.5c0-0.6,0-1.7,0-1.9c-0.9,0-1.9,0.1-2.5,0.2L64,1.9c1.1,0.1,2.1,0.1,3,0.1c0-0.9-0.1-1.2-0.3-2l1.7,0.5
			c0.2,0,0.3,0.1,0.3,0.2C68.6,1,68.5,1,68,1.3c0,0.2,0,0.3,0,0.8h2.5c0-1,0-1.3-0.2-1.9l1.5,0.4c0.1,0,0.3,0.1,0.3,0.2
			S72,1,71.5,1.3v0.7h1.9l0.5-0.5c0.2-0.2,0.2-0.2,0.3-0.2c0.1,0,0.1,0,0.4,0.2l0.6,0.5c0.1,0.1,0.2,0.2,0.2,0.3
			c0,0.2-0.2,0.2-0.3,0.2h-3.6v1.9h1.4l0.6-0.6c0.2-0.2,0.2-0.3,0.3-0.3c0.1,0,0.1,0,0.3,0.2l0.5,0.6c0.1,0.1,0.2,0.2,0.2,0.3
			C74.8,5,74.7,5,74.5,5h-3c0,0.2,0,0.9,0,1.1v0.7h2.4l0.6-0.6c0.2-0.2,0.2-0.3,0.3-0.3c0.1,0,0.1,0,0.3,0.2l0.7,0.6
			C75.9,6.8,76,6.9,76,7c0,0.2-0.2,0.2-0.3,0.2H70v1.7h2.3l0.5-0.5C73,8.2,73,8.2,73.1,8.2c0,0,0.1,0,0.2,0.1L74,8.8
			c0.1,0.1,0.2,0.1,0.2,0.3c0,0.2-0.1,0.3-0.7,0.6c0,0.6,0.1,3.3,0.1,3.8h0.9l0.5-0.6c0.2-0.2,0.2-0.3,0.3-0.3
			c0.1,0,0.2,0.1,0.3,0.2l0.6,0.6c0.2,0.2,0.2,0.2,0.2,0.3C76.4,13.9,76.3,13.9,76.1,13.9z M69,9.4h-2.4V11H69V9.4z M69,11.5h-2.4
			v1.9H69V11.5z M70.5,2.6H68v1.9h0.4h2.1V2.6z M70.5,5H68v1.8h2.5V5z M72.5,9.4H70V11h2.5V9.4z M72.5,11.5H70v1.9h2.5V11.5z"/>
		<path d="M94.8,17.9h-0.2c-6.1,0-8,0-9.9-0.6c-1.5-0.5-2.2-1.2-2.7-2.2c-0.4,0.4-2.1,2-2.4,2.3c0,0.5,0,0.7-0.3,0.7
			c-0.2,0-0.3-0.2-0.3-0.2l-1-1.3c0.2,0,0.8-0.1,1.4-0.3c0.3-0.1,1.4-0.7,1.9-1V9.3h-0.5c-0.7,0-1.8,0.1-2.6,0.2l-0.5-0.9
			c1.5,0.1,2.8,0.2,3.2,0.2l0.6-0.5c0.1-0.1,0.2-0.2,0.3-0.2s0.1,0,0.2,0.1l0.9,0.6C82.9,8.9,83,9,83,9.1c0,0.1,0,0.2-0.2,0.2
			c-0.1,0.1-0.5,0.3-0.6,0.4c0,0.1-0.1,4.3,0,4.8c0.3,1.7,2.2,2.3,6.2,2.3c2.6,0,5.2-0.2,7.8-0.8v0.1C95.9,16.3,95,16.9,94.8,17.9z
			 M82,4.5c-0.4,0-0.4-0.1-0.9-1.3c-0.3-0.7-0.8-1.8-1.4-2.2L79.8,1c2.3,0.8,2.9,2.3,2.9,2.8C82.7,4.3,82.3,4.5,82,4.5z M95.3,8.1
			h-9c-0.7,0-1.8,0.1-2.6,0.2l-0.5-0.9c1.5,0.1,3,0.1,3.3,0.1h1.9V6.2V4.4h-3.1c-0.6,1.1-1,1.7-1.6,2.2l-0.1,0
			c0.5-1.2,1.4-3.7,1.4-5.1c0-0.2,0-0.2-0.1-0.4l1.6,0.7c0,0,0.2,0.1,0.2,0.3s-0.1,0.2-0.2,0.3c-0.1,0-0.4,0.2-0.5,0.2
			c-0.2,0.6-0.4,0.9-0.7,1.5h2.8c0-1.3,0-2.7-0.4-3.7L90,0.7c0.1,0,0.3,0.1,0.3,0.3c0,0.2,0,0.2-0.7,0.6c0,0.6,0,1.2,0,2.3H92
			l0.6-0.7C92.8,3,92.8,3,92.9,3c0.1,0,0.1,0,0.4,0.2l0.9,0.7c0.1,0.1,0.2,0.2,0.2,0.3c0,0.2-0.2,0.2-0.3,0.2h-4.6v0.3
			c0,0.5,0,2.6,0,3h3.6l0.6-0.8c0.1-0.2,0.2-0.3,0.3-0.3s0.4,0.2,0.4,0.2l1,0.8c0.1,0.1,0.2,0.2,0.2,0.3C95.6,8.1,95.5,8.1,95.3,8.1
			z M92.8,11c0,0.4,0,0.7,0.1,1.7c0.1,0.5,0.1,1.5,0.1,1.7c0,0.7-0.6,0.9-0.8,0.9c-0.5,0-0.5-0.5-0.4-1h-5.2c0,0.3,0.1,0.6-0.1,0.8
			c-0.1,0.2-0.4,0.3-0.7,0.3c-0.3,0-0.4-0.2-0.4-0.4c0-0.4,0.1-2.2,0.1-2.6c0-1.1-0.1-2-0.2-3.1l1.5,0.7h4.6l0.5-0.5
			c0.1-0.1,0.2-0.1,0.2-0.1c0,0,0.1,0,0.2,0.1l0.8,0.7c0.1,0.1,0.1,0.1,0.1,0.2C93.5,10.7,93.3,10.7,92.8,11z M91.8,10.6h-5.2v3.2
			h5.2V10.6z"/>
		<path d="M102.5,9.2c-0.1,0.6-0.8,3.3-1,3.8c-0.3,1.2-0.4,1.8-0.4,2.3c0,0.2,0.1,1.4,0.1,1.4c0,0.2,0,0.5-0.4,0.5
			c-0.3,0-0.7-0.4-0.8-0.7c-0.9-1.5-1.1-3.1-1.1-5.1c0-0.4,0-1,0.1-1.9l0.6-4.4c0.1-0.4,0.1-0.9,0.1-1.5c0-1.1-0.4-1.6-0.6-1.8
			c0.9-0.1,2,1.1,2,1.8c0,0.1-0.2,0.9-0.3,1.1c-0.4,1.4-1.1,4.3-1.1,6.6c0,1.7,0.3,2.9,0.6,2.9c0.1,0,0.2-0.3,0.2-0.3
			c0.6-1.9,0.9-2.7,1.8-4.9L102.5,9.2z M106.3,13.8c1.1,0.5,2.9,0.6,3.3,0.6c0.7,0,1.1,0,2.1-0.2c0.2,0,0.3,0,0.3,0
			c0.3,0,1.4,0.3,1.4,0.8c0,0.5-0.7,0.6-1.9,0.6c-0.9,0-4.2-0.1-5.4-0.8c-1.2-0.7-1.4-1.9-1.4-2.3c0-0.3,0-0.4,0.1-0.6
			C105.2,12.7,105.5,13.4,106.3,13.8z M107.6,6.1c0.4-0.3,2.1-1.7,2.1-1.8c0-0.2-0.6-0.2-0.6-0.2c-0.6,0-2.1,0.2-3.9,0.9
			c1.8-1.4,3.1-1.8,4.5-1.8c1.2,0,2.9,0.3,2.9,1c0,0.3-0.3,0.4-1,0.5c-1.8,0.3-3,1.1-3.8,1.5L107.6,6.1z"/>
		<path d="M120.9,14.5c2.3,0,6.1-0.9,8.3-2.1c1.7-0.9,2.5-2.6,2.5-4.1c0-2.5-2.2-3.8-4.2-3.8c-2.4,0-6.3,1.9-8.5,3.9
			c-0.4,0.3-0.5,0.5-0.8,0.5c-0.6,0-1.6-1-1.6-1.8c0-0.3,0.1-0.5,0.2-0.6c0.2,0.3,0.6,0.7,1.1,0.7c0.4,0,0.9-0.2,1.3-0.5
			c3.1-1.7,4.9-2.8,8-2.8c3.8,0,5.7,2.3,5.7,4.7c0,3.3-3.1,5-6.7,5.7c-1.6,0.3-3.1,0.3-5.3,0.3V14.5z"/>
		<path d="M144,8.1c-0.3,0.6-2.4,4.9-2.5,5.1c-0.1,0.3-0.1,0.5-0.1,0.7c0,0.1,0.1,0.8,0.1,0.9c0,0.2-0.1,0.4-0.5,0.4
			c-0.4,0-2.5-0.2-3.5-4.4c-0.2-0.7-0.2-1.1-0.4-4.2c-0.1-1.6-0.2-2.1-1-3.3c1.1,0,2.2,1.2,2.2,2.1c0,0.2,0,0.3-0.1,0.9
			c-0.1,0.7-0.1,1.2-0.1,1.7c0,1.1,0.3,3.9,1.5,4.9c0.1,0,0.3,0.2,0.4,0.2c0.2,0,0.4-0.2,0.5-0.3c1.5-2.3,1.6-2.5,3.1-4.6
			c0,0,0.1-0.2,0.2-0.3L144,8.1z M148.5,10.5c0.3,0,1.6-0.2,1.8-0.3c0.2,0,0.5-0.1,0.5-0.5c0-0.5-0.9-3.7-3.7-4.7
			c0.1,0,0.4-0.1,0.6-0.1c0.3,0,1.4,0.2,2.3,1.2c1.5,1.7,2.2,3.8,2.2,4.7c0,0.6-0.3,1.2-0.6,1.2c-0.1,0-0.2,0-0.7-0.5
			c-0.7-0.6-1.1-0.7-2.5-0.9V10.5z"/>
		<path d="M163.7,3.5c0.6-0.1,4.8-1,5-1c0.6-0.1,0.7-0.2,1-0.2c0.7,0,1.5,0.5,1.5,0.9c0,0.5-0.4,0.5-0.7,0.5c-0.3,0-1.5-0.1-1.8-0.1
			c-3.9,0-6.7,4.1-6.7,7.1c0,2.9,2.8,4.1,5,4.5c0.5,0.1,1.4,0.3,1.4,1c0,0.3-0.3,0.4-0.6,0.4c-0.5,0-2.1-0.4-3.4-1
			c-2.1-1-3.3-3.2-3.3-5c0-1.9,1-4.6,4.7-7.2c-1.5,0-6.7,1.8-7.9,2.4c-0.6,0.3-0.7,0.3-0.8,0.3c-0.2,0-1.3-0.3-1.3-1.8
			c0-0.4,0.1-0.5,0.2-0.7c0.2,0.3,0.5,1,1.5,1c0.2,0,0.6-0.1,0.9-0.1L163.7,3.5z"/>
	</g>
</g>
<path class="st0" d="M303.1,16.5c-0.2,0-0.4-0.1-0.5-0.2c-0.3-0.3-0.3-0.7,0-1l6.7-6.7l-6.7-6.7c-0.3-0.3-0.3-0.7,0-1
	c0.3-0.3,0.7-0.3,1,0l7.7,7.7l-7.7,7.7C303.4,16.4,303.2,16.5,303.1,16.5z"/>
<g>
	<path d="M203.3,15.1l-4.4-12.4h2.9l1.8,5.7c0.6,1.7,1,3.2,1.3,4.5h0c0.3-1.2,0.7-2.7,1.3-4.4l1.9-5.8h2.7l-4.5,12.4H203.3z"/>
	<path d="M212.1,4.2V1.9h2.6v2.3H212.1z M212.1,5.7h2.6v9.3h-2.6V5.7z"/>
	<path d="M219,11c0,1.2,0.6,2.3,1.9,2.3c1.1,0,1.4-0.4,1.6-1h2.6c-0.3,1.1-1.3,3-4.3,3c-3.1,0-4.4-2.3-4.4-4.7c0-2.9,1.5-5,4.5-5
		c3.2,0,4.3,2.3,4.3,4.6c0,0.3,0,0.5,0,0.8H219z M222.6,9.4c0-1.1-0.5-2-1.7-2c-1.2,0-1.7,0.8-1.8,2H222.6z"/>
	<path d="M228.8,5.7c0.8,3.7,1.3,5.9,1.5,7h0c0.2-1,0.5-2.5,1.6-7h2.4c1,4.6,1.4,5.9,1.5,6.9h0c0.2-1,0.5-2.3,1.6-6.9h2.6l-2.8,9.3
		h-2.8c-0.8-3.5-1.2-5.4-1.4-6.6h0c-0.1,1.2-0.6,3.3-1.5,6.6h-2.8l-2.6-9.3H228.8z"/>
	<path d="M256.5,10.4c0-2.1,0-4.5,0.1-5.9h-0.1c-0.6,2.5-1.8,6.7-3,10.6h-2.3c-0.9-3.4-2.2-8.1-2.7-10.6h-0.1c0.1,1.5,0.2,4,0.2,6.1
		v4.4h-2.4V2.7h4c1,3.2,2.1,7.3,2.4,9.1h0c0.3-1.6,1.7-6,2.7-9.1h3.9v12.4h-2.6V10.4z"/>
	<path d="M270.4,10.4c0,2.8-1.7,4.9-4.6,4.9c-2.9,0-4.6-2.1-4.6-4.8c0-2.9,1.7-4.9,4.7-4.9C268.6,5.5,270.4,7.5,270.4,10.4z
		 M263.8,10.4c0,1.8,0.8,2.9,2,2.9c1.3,0,2-1.1,2-2.8c0-1.9-0.7-2.9-2-2.9C264.6,7.6,263.8,8.4,263.8,10.4z"/>
	<path d="M272.2,8.3c0-0.9,0-1.7,0-2.5h2.5c0,0.2,0.1,1.1,0.1,1.6c0.4-1.1,1.4-1.8,3-1.9V8c-1.9-0.1-3,0.5-3,3v4.1h-2.6V8.3z"/>
	<path d="M281.3,11c0,1.2,0.6,2.3,1.9,2.3c1.1,0,1.4-0.4,1.6-1h2.6c-0.3,1.1-1.3,3-4.3,3c-3.1,0-4.4-2.3-4.4-4.7c0-2.9,1.5-5,4.5-5
		c3.2,0,4.3,2.3,4.3,4.6c0,0.3,0,0.5,0,0.8H281.3z M284.9,9.4c0-1.1-0.5-2-1.7-2c-1.2,0-1.7,0.8-1.8,2H284.9z"/>
</g>
<rect y="29.1" width="310.5" height="0.3"/>
</svg>
