<?xml version="1.0" encoding="utf-8"?>
<!-- Generator: Adobe Illustrator 27.0.0, SVG Export Plug-In . SVG Version: 6.00 Build 0)  -->
<svg version="1.1" id="レイヤー_1" xmlns="http://www.w3.org/2000/svg" xmlns:xlink="http://www.w3.org/1999/xlink" x="0px"
	 y="0px" viewBox="0 0 312 30" style="enable-background:new 0 0 312 30;" xml:space="preserve">
<style type="text/css">
	.st0{fill:#231815;}
</style>
<g>
	<g>
		<path d="M7.2,8.2C6.9,9,6.9,9.1,6.9,9.1C6.6,9.5,6.1,9.5,6,9.5c-0.2,0-0.4-0.1-0.4-0.4c0-0.2,0.1-0.3,0.2-0.6
			c0.1-0.3,2-5.2,2.3-6.5H7.6c-0.4,0-1.6,0-2.6,0.2L4.6,1.4C5.7,1.5,6.9,1.6,8,1.6l0.5-0.4C8.6,1.1,8.7,1,8.8,1
			c0.1,0,0.2,0.1,0.3,0.2l0.7,0.5C9.9,1.8,10,2,10,2.1c0,0.2-0.6,0.5-0.9,0.6C9.1,2.7,9,2.8,9,2.9C8.1,5.4,8.1,5.6,7.3,7.7H9
			l0.4-0.3c0.1-0.1,0.2-0.1,0.3-0.1c0.1,0,0.2,0.1,0.3,0.1L10.7,8c0.1,0.1,0.2,0.2,0.2,0.3c0,0.2-0.4,0.4-0.7,0.6
			c-0.2,2.2-0.5,4-1.4,5.7c1,0.8,2.6,2,7.5,2c3,0,5.2-0.4,6.6-0.6l0,0.1c-1.2,0.4-1.4,1.3-1.5,1.7c-7,0-10.5-0.2-13.1-2.6
			c-1.3,1.9-2.9,2.9-4,3.5l-0.1-0.1c1-0.8,2.5-2.2,3.4-4c-1.1-1.3-1.6-2.6-2-3.8l0.2-0.2C6.4,11.9,7.1,13,8,13.9
			c0.5-1.1,1.1-3.4,1.1-5.7H7.2z M18.4,2.1l0.5-0.4c0.1-0.1,0.2-0.2,0.3-0.2c0.1,0,0.2,0.1,0.3,0.2L20,2.2c0.1,0.1,0.2,0.3,0.2,0.4
			c0,0.1-0.4,0.4-0.6,0.5c0,0.6,0,1.5,0,2.1h1.1l0.5-0.7c0.1-0.1,0.2-0.2,0.3-0.2c0.1,0,0.3,0.1,0.4,0.2L22.6,5
			c0.1,0.1,0.2,0.2,0.2,0.3c0,0.2-0.2,0.2-0.3,0.2h-2.8c0,0.3,0.1,1.8,0.1,2.2c0,0.6,0,0.6-0.2,0.8c-0.2,0.2-0.6,0.3-0.7,0.3
			c-0.3,0-0.3-0.2-0.3-0.5h-2.8l0,2h3.4l0.5-0.6C20,9.5,20,9.4,20.1,9.4c0.1,0,0.3,0.1,0.4,0.2l0.7,0.6c0.1,0.1,0.2,0.2,0.2,0.3
			c0,0.2-0.2,0.2-0.3,0.2h-5.2l0,2.2h4l0.6-0.8c0.2-0.2,0.2-0.3,0.3-0.3c0,0,0.2,0,0.4,0.2l0.7,0.7c0.1,0.1,0.2,0.2,0.2,0.3
			c0,0.2-0.2,0.2-0.3,0.2h-6c0,0.2,0.1,1.4,0.1,1.6c0,0.7-0.7,0.8-0.9,0.8c-0.2,0-0.4-0.1-0.4-0.4c0-0.2,0.1-1.7,0.1-2h-1.2
			c-0.4,0-1.6,0.1-2.6,0.2l-0.5-0.9c1,0.1,2.3,0.1,3.3,0.1h1l0-2.2h-0.4c-0.4,0-1.6,0-2.6,0.2l-0.5-0.9c1.8,0.1,3.2,0.2,3.5,0.2l0-2
			h-0.3c-0.4,0-1.6,0.1-2.6,0.2l-0.5-0.9c1.4,0.1,2.7,0.1,3.4,0.1l0-2.3h-1.8c-0.4,0-1.6,0-2.6,0.2L10,4.9c1,0.1,2.3,0.2,3.3,0.2
			h1.5l0-2.4h-0.3c-0.4,0-1.6,0.1-2.6,0.2L11.4,2c1.5,0.1,2.8,0.1,3.4,0.1c0-1.1-0.1-1.3-0.3-1.8l1.6,0.3c0.1,0,0.3,0.1,0.3,0.3
			c0,0.2-0.1,0.3-0.6,0.6v0.5H18.4z M18.7,5.1V2.6h-2.9l0,2.4H18.7z M18.7,7.9V5.5h-2.9v2.3H18.7z"/>
		<path d="M41.3,13.3h-7.8c1.1,1.4,4.4,3.3,7.8,3.2v0.1c-0.7,0.2-1.5,0.8-1.6,1.4c-3.6-1.1-5.8-3.4-6.4-4.6v1.9
			c0,0.3,0.1,2.4,0.1,2.6c0,0.3-0.1,0.4-0.1,0.5c-0.2,0.2-0.5,0.3-0.7,0.3c-0.4,0-0.4-0.3-0.4-0.5c0-0.1,0.1-2.9,0.1-3.2
			c0-0.6,0-1,0-1.4c-1.5,1.8-5,4.1-7.9,4.7v-0.1c2.1-0.8,4.9-2.8,6.5-4.8h-4c-0.6,0-1.8,0.1-2.6,0.2l-0.5-0.9
			c1.1,0.1,2.3,0.2,3.3,0.2h5.1c0-0.8,0-1.1-0.1-1.3c0-0.1-0.1-0.5-0.2-0.7l1.6,0.4c0.2,0,0.2,0.1,0.2,0.2c0,0.2-0.1,0.3-0.5,0.6
			v0.9h6l0.5-0.7c0.1-0.1,0.2-0.3,0.3-0.3s0.2,0.1,0.4,0.2l0.9,0.7c0.1,0.1,0.2,0.2,0.2,0.3C41.6,13.3,41.3,13.3,41.3,13.3z
			 M32.2,3.4h-4c0.8,0.3,1.7,0.7,1.7,1.7c0,0.4-0.2,0.6-0.5,0.6c-0.4,0-0.5-0.3-0.6-0.8c-0.1-0.5-0.4-1-0.9-1.5H27
			c-0.8,0.9-1.6,1.7-2.6,2.3l-0.1,0c0.5-0.5,1.3-1.4,2.2-2.9C27,2,27.6,1.1,27.6,0.2l1.5,0.7C29.2,1,29.3,1,29.3,1.1
			c0,0.3-0.6,0.4-0.9,0.5c-0.3,0.4-0.5,0.8-1,1.4h3.1L31,2.5c0.1-0.1,0.2-0.2,0.3-0.2c0.1,0,0.3,0.1,0.4,0.2l0.6,0.5
			c0.1,0.1,0.2,0.2,0.2,0.3C32.5,3.4,32.3,3.4,32.2,3.4z M31.8,6.7h-3v2.6c1.6-0.3,2.2-0.5,2.6-0.6l0.1,0.1C31.2,9,31,9,29.3,9.6
			c-0.8,0.3-1.1,0.4-3.7,1.3c0,0.1-0.1,0.4-0.1,0.4c0,0-0.1,0.1-0.2,0.1s-0.2-0.1-0.2-0.2l-0.7-1.5c0.2,0,0.3,0.1,0.7,0.1
			c0.3,0,1.3,0,2.9-0.3V6.7c-0.1,0-1.3,0.1-2.2,0.2L25.3,6c1.1,0.1,2.2,0.2,3.3,0.2h1.6l0.4-0.6c0.1-0.1,0.2-0.2,0.3-0.2
			c0.1,0,0.2,0.1,0.4,0.2l0.7,0.5c0.1,0.1,0.2,0.2,0.2,0.3C32.1,6.7,32,6.7,31.8,6.7z M40.1,10.6c-0.6,0-1.9,0.1-2.2,0.1
			c-0.6,0-1.2,0-1.3-0.7c-0.1-0.3-0.1-0.5,0-3.4h-2.8c-0.3,2-1.1,3.9-4.1,4.5l0-0.1c1.5-0.8,3.1-1.9,3.1-4.6c0-0.5,0-0.7-0.1-0.8
			l1.2,0.5h2.4l0.3-0.3c0.1-0.1,0.2-0.2,0.3-0.2s0.2,0.1,0.3,0.1l0.7,0.4c0.1,0.1,0.2,0.1,0.2,0.3c0,0.2-0.3,0.3-0.6,0.5v2.3
			c0,0.5,0.2,0.6,0.6,0.6c0.4,0,1.5,0,1.8-0.1c0.4-0.1,0.6-0.6,1-1.9h0.1C40.9,8,41.1,9,41.1,9.1c0.1,0.2,0.1,0.2,0.3,0.4
			c0.1,0,0.1,0.1,0.1,0.2C41.5,10,41.2,10.5,40.1,10.6z M40.7,3.4h-4.4c0.3,0.1,1.5,0.5,1.5,1.4c0,0.4-0.2,0.6-0.5,0.6
			c-0.4,0-0.5-0.3-0.6-0.8c0-0.1-0.4-0.8-0.9-1.2h-1.6c-0.9,1.2-1.6,1.8-2,2.1l-0.1,0c0.6-0.9,1.1-1.9,1.6-2.9
			c0.7-1.6,0.7-2,0.7-2.3L35.9,1c0.2,0.1,0.2,0.2,0.2,0.3c0,0.2-0.3,0.3-0.9,0.4c-0.3,0.6-0.5,0.9-0.7,1.3h4.2l0.7-0.7
			C39.5,2.2,39.6,2,39.7,2s0.2,0.1,0.4,0.2l0.7,0.7C40.9,3,41,3.1,41,3.2C41,3.4,40.8,3.4,40.7,3.4z M35.2,9.9
			c-0.4,0-0.4-0.1-0.7-0.9c-0.3-0.6-0.4-0.7-0.8-1.2l0-0.1c1.5,0.6,2.1,0.8,2.1,1.5C35.8,9.8,35.4,9.9,35.2,9.9z"/>
		<path d="M60.6,11.9h-7.7c1.8,2.2,4.9,4,8,4.2v0.2c-1,0.3-1.5,0.9-1.8,1.3c-1.9-0.6-5.3-3.1-6.5-5.6c0,2.6,0,2.9,0,4
			c0,0.3,0.1,1.5,0.1,1.8c0,0.8-0.8,0.8-0.9,0.8c-0.3,0-0.3-0.1-0.3-0.4c0-0.3,0.1-2,0.1-2.3c0-1.4,0-2.4,0-3.5
			c-2.5,3.2-5.1,4.7-8.1,6l-0.1-0.2c2.9-1.8,5.5-4.1,6.9-6.2h-4c-0.4,0-1.6,0-2.6,0.2l-0.5-0.9c1,0.1,2.3,0.2,3.3,0.2h5
			c-0.1-2.3-0.1-2.5-0.3-3.3l1.6,0.4c0.2,0.1,0.3,0.1,0.3,0.2c0,0.1-0.3,0.4-0.6,0.5c0,0.3,0,0.4,0,1.3v0.8h5.5l0.8-1
			c0.2-0.2,0.2-0.2,0.3-0.2c0.1,0,0.3,0.1,0.4,0.2l1.1,1c0.1,0.1,0.2,0.2,0.2,0.3C60.9,11.9,60.7,11.9,60.6,11.9z M59.4,9.5
			c-2.6-0.4-5.7-1.8-7.2-3.1c-3.4,2.8-6.1,3.6-8.9,4.3l0-0.2c2.1-0.9,4.8-2,8.1-4.9C50.8,5,50.1,4.2,49.5,3
			c-1.5,1.6-3.2,3.3-5.2,4.5l-0.1-0.2c3.1-2.7,5.6-6.2,5.6-7.2l1.5,0.5c0.2,0.1,0.3,0.1,0.3,0.3c0,0.2-0.2,0.3-0.8,0.5
			c-0.5,0.5-0.6,0.6-0.8,0.9h4.4l0.6-0.5c0.1-0.1,0.2-0.2,0.3-0.2c0.1,0,0.2,0.1,0.2,0.1l0.7,0.7c0.1,0.1,0.2,0.2,0.2,0.4
			c0,0.3-0.2,0.3-1.1,0.4C54.9,4,54,4.9,52.8,5.9c3.3,2,6.5,2.1,8.1,2v0.2C60.1,8.4,59.6,9.3,59.4,9.5z M49.8,2.8
			c0.9,1.4,1.6,2,2.1,2.4c0.2-0.2,1.5-1.4,2.2-2.4H49.8z"/>
		<path d="M66.4,5.4c0.1,0.1,0.2,0.1,0.2,0.3c0,0.1-0.3,0.4-0.5,0.6c0,0.8,0,1.5,0,2.7c0,1.3,0.1,7.3,0.1,8.5c0,0.4,0,0.5-0.2,0.7
			c-0.3,0.3-0.6,0.3-0.7,0.3c-0.5,0-0.5-0.3-0.5-0.5c0,0,0-0.4,0.1-0.7C65,15.1,65,13.7,65,6.4c-1,1.4-2,2.6-3,3.3l-0.1-0.1
			c1.7-2.1,3.6-5.8,4.5-8.3c0.2-0.5,0.2-0.9,0.3-1.3l1.6,1c0.1,0.1,0.2,0.2,0.2,0.3c0,0.2-0.2,0.3-0.7,0.3c-0.3,0.7-0.8,1.7-1.8,3.5
			L66.4,5.4z M70.1,5.7c-0.6,1.2-1.3,2.4-2.4,3.6l-0.1-0.1c1-2,1.8-4,2.5-6.2c0.1-0.3,0.1-0.4,0.2-1.1l1.5,0.7C71.9,2.7,72,2.8,72,3
			c0,0.2-0.1,0.2-0.8,0.4C71,4,70.9,4.3,70.4,5.3h3.1c0-1.3-0.1-3.9-0.4-5L75,0.8c0.1,0,0.2,0.1,0.2,0.3c0,0.1-0.1,0.2-0.2,0.3
			c-0.1,0.1-0.4,0.3-0.5,0.4v3.5h2.1l0.7-0.9c0.1-0.1,0.2-0.2,0.3-0.2s0.3,0.1,0.4,0.2l1.1,0.9c0.1,0.1,0.2,0.2,0.2,0.3
			c0,0.2-0.2,0.2-0.3,0.2h-4.4c0,3.1,0,3.4,0.1,5.2h3l0.8-1c0-0.1,0.2-0.3,0.3-0.3c0.1,0,0.3,0.1,0.4,0.2l1.2,1
			c0.1,0.1,0.2,0.2,0.2,0.3c0,0.2-0.2,0.2-0.3,0.2h-5.6c0,1,0.2,5.4,0.2,6.4c0,0.7-0.8,0.8-0.9,0.8c-0.5,0-0.5-0.3-0.5-0.8
			c0-0.2,0-1.2,0-1.4c0-0.8,0.1-4.3,0.1-5h-3c-0.7,0-1.8,0.1-2.6,0.2l-0.5-0.9c1.5,0.1,3,0.1,3.3,0.1h2.8c0.1-2.4,0.1-2.7,0.1-5.2
			H70.1z"/>
		<path d="M86.9,1.9c-0.3,0.6-0.8,1.7-1.8,3.2l0.5,0.2c0.3,0.2,0.4,0.2,0.4,0.4c0,0.3-0.3,0.4-0.5,0.4c0,5.2,0,5.7,0,7.3
			c0,0.7,0.1,3.8,0.1,4.4c0,0.2,0,0.4-0.2,0.5c-0.2,0.1-0.5,0.2-0.6,0.2c-0.3,0-0.5-0.2-0.5-0.6c0-0.2,0.1-1.3,0.1-1.5
			c0.1-1.8,0.1-2.2,0.1-10.4c-1.8,2.7-3.2,3.7-3.8,4.2l-0.1-0.1C83.1,7,85,3.4,85.6,1.8c0.3-0.8,0.3-1.1,0.2-1.6l1.6,0.9
			c0.2,0.1,0.3,0.2,0.3,0.3C87.7,1.7,87.4,1.7,86.9,1.9z M99.1,6.8h-3.7c0,1,0,4.3,0,6.3c0,0.5,0.1,2.7,0.1,3.2
			c0,1.2-0.7,1.8-2.3,2.3c-0.2-0.6-0.4-1-1.1-1.3c-0.3-0.1-0.9-0.5-1.3-0.7l0-0.2c0.4,0.1,1,0.2,1.7,0.2c1.6,0,1.7-0.1,1.7-0.9
			c0-0.2,0-3.6,0-4.3c0-0.7,0-1.6,0-2.1c0-0.3,0-2.1,0-2.5H90c-0.6,0-1.7,0.1-2.6,0.2l-0.5-0.9c1.1,0.1,2.2,0.2,3.3,0.2h4
			c0-0.2,0-4-0.1-4.2c0-0.6-0.1-0.9-0.3-1.3l1.8,0.5C95.9,1.3,96,1.4,96,1.5c0,0.2-0.1,0.3-0.7,0.6c0,0.3,0,0.4,0,1.6v2.6h1.8
			l0.6-0.8c0.1-0.1,0.2-0.3,0.3-0.3c0.1,0,0.2,0.1,0.3,0.2l0.8,0.8c0.1,0.1,0.2,0.2,0.2,0.3C99.4,6.7,99.2,6.8,99.1,6.8z M91.1,13.1
			c-0.5,0-0.5-0.3-0.7-1.3c-0.2-0.9-0.6-2.5-1.2-3l0.1-0.1c0.7,0.4,2.7,1.8,2.7,3.4C91.9,12.9,91.4,13.1,91.1,13.1z"/>
		<path d="M114.6,14.2c-0.2,0-1.2-0.7-1.4-0.8c-1.2-0.6-3.4-1.1-5.2-1.1c-1.7,0-3.1,0.6-3.1,2.2c0,2.3,3.9,2.4,4.7,2.4
			c0.3,0,1.8-0.1,2.1-0.1c0.4,0,1,0.2,1,0.6c0,0.3,0,0.6-2,0.6c-0.7,0-2.4-0.1-3.9-0.5c-1.1-0.3-2.7-1-2.7-2.8
			c0-2.9,3.4-2.9,4.2-2.9c1.1,0,2.7,0.2,4.2,0.5c0.1,0,0.6,0.1,0.7,0.1c0.1,0,0.2,0,0.2-0.1c0-0.1-0.1-0.3-0.2-0.4
			c-0.6-0.8-1.5-2.1-2.3-3.4c-2.1,0.8-4.1,1-4.7,1c-0.9,0-2.1-0.6-2.3-1.4c0.9,0.4,1.3,0.6,2.2,0.6c0.9,0,2.8-0.3,4.4-0.9
			c-0.3-0.6-0.8-1.4-1.4-2.8c-1,0.3-2.3,0.6-2.8,0.6c-0.7,0-1.7-0.5-2.2-1.2c0.4,0.1,1,0.4,1.7,0.4c1.1,0,2.3-0.4,2.9-0.6
			c-0.2-0.4-0.8-2-1-2.3c-0.3-0.5-0.9-0.6-1.9-0.6c0.5-0.5,0.8-0.8,1.5-0.8c0.6,0,1.5,0.3,1.6,0.7c0,0.3,0.1,1.2,0.2,1.3
			c0.1,0.3,0.3,0.9,0.4,1.2c0.2-0.1,0.6-0.3,1.2-0.6c0.6-0.4,1-0.6,1.3-0.6c0.3,0,0.7,0.2,0.7,0.5c0,0.3-0.2,0.4-0.6,0.6
			c-1.2,0.6-1.5,0.7-2.3,1c0.3,0.9,0.6,1.5,1.4,2.8c0.7-0.3,1-0.5,1.9-1c0.5-0.3,0.6-0.4,0.9-0.4c0.5,0,0.8,0.2,0.8,0.4
			c0,0.3-0.3,0.4-0.6,0.6c-0.3,0.1-1.5,0.7-2.5,1.1c0.9,1.4,1.7,2.3,2.5,3.2c0.3,0.3,0.9,1,0.9,1.4C115.1,13.1,115,14.2,114.6,14.2z
			"/>
		<path d="M131.7,6.4c0.3-0.1,0.5-0.2,0.5-0.6c0-0.2-0.1-0.4-0.1-0.6c0.9,0.2,1.5,0.7,1.5,1.6c0,0.4-0.1,0.4-0.7,0.5
			c-2.6,0.4-9.1,3-9.1,6.2c0,0.3,0,0.7,0.5,1.3c0.8,0.9,3.6,0.9,4.1,0.9c1.6,0,2.4-0.1,4-0.5c0.3-0.1,0.7-0.1,0.7-0.1
			c0.5,0,1.2,0.2,1.2,0.7c0,0.3-0.3,0.5-1,0.6c-0.7,0.2-2.6,0.2-3.3,0.2c-2.3,0-3.5-0.2-4.6-0.4c-1.5-0.3-2.4-1.5-2.4-2.7
			c0-1.6,1.3-3.5,3.9-5c-0.3-0.4-0.8-1.1-0.8-2.2c-0.1-3.4-0.1-3.8-0.2-4.1c-0.1-0.4-0.2-0.7-0.5-1c-0.1-0.1-0.7-0.6-0.8-0.6
			c0.2-0.1,0.4-0.1,0.7-0.1c1.2,0,2,1.1,2,1.4c0,0.1-0.1,0.3-0.1,0.4c-0.2,0.8-0.3,1.6-0.3,2.5c0,0.4,0,2.1,0.6,3.4
			C128.3,7.9,129.7,7.2,131.7,6.4z"/>
		<path d="M143.9,9.7c-0.2,1-0.8,3.9-1,4.7c0,0.2-0.1,0.8-0.1,1c0,0.2,0.1,1,0.1,1.2c0,0.3-0.2,0.5-0.4,0.5c-1.2,0-1.7-3.7-1.7-4.9
			c0-1.9,0.6-5.1,1-7C142,4.4,142,4.2,142,4c0-1-0.3-1.3-0.9-1.6c0.1,0,0.3-0.1,0.4-0.1c1,0,1.8,1.1,1.8,1.6c0,0.2,0,0.3-0.3,1
			c-0.8,2.1-1.3,4.2-1.3,6.5c0,1.3,0.2,2.6,0.3,2.7c0,0,0,0,0.1,0c0.1,0,0.2-0.3,0.2-0.3c0.7-2,0.8-2.2,1.4-3.9c0,0,0.1-0.1,0.1-0.1
			L143.9,9.7z M151.4,3.1c0-1.1-0.3-1.2-1.4-1.4c0.2-0.1,0.6-0.4,1.2-0.4s1.1,0.5,1.2,0.6c0.2,0.1,0.2,0.2,0.2,0.4
			c0,0.1-0.1,0.7-0.2,0.8c-0.1,0.7-0.2,1.6-0.2,2.8c0.4-0.1,2.2-0.6,2.6-0.6c0.2,0,1,0.3,1,0.6c0,0.3-0.4,0.4-0.5,0.4
			c-1.2,0.3-3,0.5-3,0.5c0,2.2,0.1,4.5,0.3,6.5c2.1,0.9,2.2,1,2.6,1.2c0.4,0.3,0.8,0.7,0.8,1.1c0,0.2-0.1,0.5-0.5,0.5
			c-0.2,0-0.3-0.1-0.7-0.3c-0.8-0.5-1.9-1.2-2.4-1.5c-0.5,1.3-1.3,2.3-3.1,2.3c-1.7,0-3.2-0.9-3.2-2.1c0-0.8,0.7-1.3,1.1-1.5
			c0.7-0.3,1.7-0.3,2-0.3c0.9,0,1.6,0.1,2.2,0.2c0-0.6-0.1-5-0.2-6c-0.5,0.1-1.2,0.2-1.8,0.2c-0.9,0-2.1-0.2-2.8-0.7
			c-0.3-0.2-0.4-0.4-0.5-0.7c0.9,0.4,1.6,0.6,2.9,0.6c0.3,0,1.2,0,2.2-0.2C151.4,5.6,151.4,3.6,151.4,3.1z M149.3,13.5
			c-0.9,0-2.3,0.3-2.3,1.1c0,0.6,1,1.1,2.1,1.1c2,0,2.4-1.3,2.5-1.7C150.7,13.6,149.9,13.5,149.3,13.5z"/>
	</g>
</g>
<path class="st0" d="M302.6,16.8c-0.2,0-0.4-0.1-0.5-0.2c-0.3-0.3-0.3-0.7,0-1l6.7-6.7l-6.7-6.7c-0.3-0.3-0.3-0.7,0-1
	c0.3-0.3,0.7-0.3,1,0l7.7,7.7l-7.7,7.7C302.9,16.7,302.7,16.8,302.6,16.8z"/>
<g>
	<path d="M202.8,15.3l-4.4-12.4h2.9l1.8,5.7c0.6,1.7,1,3.2,1.3,4.5h0c0.3-1.2,0.7-2.7,1.3-4.4l1.9-5.8h2.7l-4.5,12.4H202.8z"/>
	<path d="M211.6,4.5V2.2h2.6v2.3H211.6z M211.6,6h2.6v9.3h-2.6V6z"/>
	<path d="M218.5,11.2c0,1.2,0.6,2.3,1.9,2.3c1.1,0,1.4-0.4,1.6-1h2.6c-0.3,1.1-1.3,3-4.3,3c-3.1,0-4.4-2.3-4.4-4.7
		c0-2.9,1.5-5,4.5-5c3.2,0,4.3,2.3,4.3,4.6c0,0.3,0,0.5,0,0.8H218.5z M222.1,9.6c0-1.1-0.5-2-1.7-2c-1.2,0-1.7,0.8-1.8,2H222.1z"/>
	<path d="M228.3,6c0.8,3.7,1.3,5.9,1.5,7h0c0.2-1,0.5-2.5,1.6-7h2.4c1,4.6,1.4,5.9,1.5,6.9h0c0.2-1,0.5-2.3,1.6-6.9h2.6l-2.8,9.3
		H234c-0.8-3.5-1.2-5.4-1.4-6.6h0c-0.1,1.2-0.6,3.3-1.5,6.6h-2.8L225.6,6H228.3z"/>
	<path d="M256,10.7c0-2.1,0-4.5,0.1-5.9H256c-0.6,2.5-1.8,6.7-3,10.6h-2.3c-0.9-3.4-2.2-8.1-2.7-10.6h-0.1c0.1,1.5,0.2,4,0.2,6.1
		v4.4h-2.4V2.9h4c1,3.2,2.1,7.3,2.4,9.1h0c0.3-1.6,1.7-6,2.7-9.1h3.9v12.4H256V10.7z"/>
	<path d="M269.9,10.7c0,2.8-1.7,4.9-4.6,4.9c-2.9,0-4.6-2.1-4.6-4.8c0-2.9,1.7-4.9,4.7-4.9C268.1,5.8,269.9,7.7,269.9,10.7z
		 M263.3,10.7c0,1.8,0.8,2.9,2,2.9c1.3,0,2-1.1,2-2.8c0-1.9-0.7-2.9-2-2.9C264.1,7.8,263.3,8.7,263.3,10.7z"/>
	<path d="M271.7,8.5c0-0.9,0-1.7,0-2.5h2.5c0,0.2,0.1,1.1,0.1,1.6c0.4-1.1,1.4-1.8,3-1.9v2.5c-1.9-0.1-3,0.5-3,3v4.1h-2.6V8.5z"/>
	<path d="M280.8,11.2c0,1.2,0.6,2.3,1.9,2.3c1.1,0,1.4-0.4,1.6-1h2.6c-0.3,1.1-1.3,3-4.3,3c-3.1,0-4.4-2.3-4.4-4.7
		c0-2.9,1.5-5,4.5-5c3.2,0,4.3,2.3,4.3,4.6c0,0.3,0,0.5,0,0.8H280.8z M284.4,9.6c0-1.1-0.5-2-1.7-2c-1.2,0-1.7,0.8-1.8,2H284.4z"/>
</g>
<rect y="29.4" width="310.5" height="0.3"/>
</svg>
