<svg version="1.1" id="レイヤー_1" xmlns="http://www.w3.org/2000/svg" x="0" y="0" viewBox="0 0 480 275" style="enable-background:new 0 0 480 275" xml:space="preserve"><style>.st2{fill:#231815}</style><path style="fill:#dcdddd" d="M0 0h480v275.2H0z"/><path d="M167.9 157c.1-.1.1-.1.2-.1s.3-.1.5-.1c.6 0 1-.1 1.1-.2.1-.1.1-.3.1-.5v-9.2c0-.6 0-1-.1-1.1-.1-.1-.4-.2-1-.2-.2 0-.4 0-.6-.1-.1 0-.1-.1-.1-.2v-.2h.4c.4 0 .7.1 1.1.1h8.6s.1.1.1.2v.7c0 .6 0 1.2.1 1.6 0 0 0 .1-.1.1h-.2c-.1-.1-.2-.3-.3-.6s-.3-.6-.5-1c-.2-.3-.3-.4-.4-.5s-.3-.1-.5-.1H175l-2.7.1h-.2c-.3 0-.5 0-.6.1-.1.1-.2.6-.2 1.3v3.5h4.4c.3-.1.5-.1.6-.2.1-.1.2-.4.2-.9s.2-.7.3-.8h.2v2.5c0 .3 0 .7.1 1.1 0 .4.1.6.1.6v.2h-.2c-.1-.2-.2-.4-.3-.8-.2-.6-.3-1-.5-1.2-.2-.2-.5-.2-.9-.2h-2.1c-.9 0-1.4 0-1.7.1v4.2c0 .6 0 1 .1 1.1.1.1.3.2.7.2h2.5c1.2 0 2-.1 2.4-.2.4-.1.7-.3 1-.5s.6-.8 1-1.7c.1-.3.2-.4.4-.4.1 0 .1 0 .2.1-.2.6-.3 1-.3 1.2-.1.4-.1.9-.1 1.3 0 .2 0 .4-.1.5H170.6c-1.1 0-1.9.1-2.5.1h-.2v.1zM179.9 156.9c.1 0 .2-.1.2-.1h.4c.5 0 .8-.1.8-.1.2-.1.4-.3.6-.6.3-.6.7-1.5 1.1-2.7.2-.6.3-.9.4-1 .2-.4.3-.8.4-1.2l.9-2.5c.1-.4.5-1.3 1-2.7.1-.3.3-.8.5-1.4h.6c.3.5.5 1.1.7 1.7.1.3.3.8.6 1.4l1.4 3.8.8 2.1c.4 1.2.7 1.9.8 2.2.1.3.2.4.3.5 0 0 .1.1.4.1s.3.1.4.1c.3.1.5.1.6.2V157H188c-.1 0-.1 0-.2-.1v-.3c.1 0 .1-.1.2-.1l1-.1c.3 0 .4 0 .6-.1 0-.1.1-.2.1-.3 0-.1-.1-.4-.2-.9l-.3-.9c-.1-.3-.4-1.2-1-2.8-.3 0-.5-.1-.7-.1h-3.3c-.1.2-.1.3-.2.4l-.8 2.6c-.3 1-.5 1.5-.5 1.6 0 .1 0 .1.1.3.1 0 .3.1.5.1l1.3.1.1.1v.1h-4.8v-.1.4zm4.4-5.6c.7 0 1.4.1 2.3.1h1.3c-.1-.2-.1-.5-.2-.7-.4-1.1-.6-1.7-.7-1.8l-.8-2.2-.1-.2c0 .1-.2.4-.4 1-.4 1-.7 1.7-.9 2.3-.1.2-.2.5-.3.7-.1.2-.1.4-.2.5.1 0 0 .1 0 .3zM200.4 145.7c0 .4.1.6.1.7v1.5h-.2c-.2-.9-.5-1.5-1-1.9-.5-.4-1.1-.6-1.7-.6-.7 0-1.3.2-1.7.6-.5.4-.7.9-.7 1.4 0 .4.2.8.5 1.1.3.3 1.1.8 2.4 1.5 1 .5 1.7.9 2.1 1.3.4.3.8.7 1 1.1.2.4.3.9.3 1.4 0 .7-.2 1.3-.5 1.9-.3.6-.8 1-1.4 1.3s-1.4.4-2.3.4c-.8 0-1.6-.1-2.4-.4-.5-.2-.7-.3-.8-.4s-.1-.2-.1-.3v-.3c.1-.7.1-1.3.1-1.8 0-.3 0-.5.1-.5l.1-.1c.1 0 .1 0 .1.1s.1.1.1.2c.1.8.4 1.5 1.1 2.1.6.6 1.4.9 2.2.9.5 0 .9-.1 1.4-.3.4-.2.7-.5 1-.9.2-.4.4-.8.4-1.1 0-.5-.2-1-.5-1.4-.4-.4-1.1-.9-2.1-1.5s-1.8-1-2.1-1.2c-.5-.4-.9-.9-1.2-1.3-.2-.4-.3-.8-.3-1.3 0-.9.3-1.6 1-2.2.7-.6 1.6-.9 2.8-.9.6 0 1.2.1 1.6.2-.1.2.2.4.6.7zM201.9 145.2H207s.1.1.1.2v.1l-.2.1H206c-.2 0-.4 0-.5.1-.1.1-.1.1-.1.2s0 .2.1.3c0 0 .1.1.1.2.1.2.3.5.5.7.3.4.6.9.9 1.5.1.2.3.4.4.6l1.4 2.1c.1-.1.2-.3.4-.5l1.3-1.9 1.6-2.3c.1-.2.2-.4.2-.5v-.2c0-.1-.1-.2-.2-.3-.2-.1-.6-.2-1.3-.3h-.2c0-.1-.1-.1-.1-.2v-.1h4.1v.3H214c-.1 0-.2.1-.3.2-.9 1-1.7 1.9-2.3 2.7-.6.9-1.2 1.6-1.6 2.3-.1.2-.3.4-.3.5-.2.2-.3.4-.3.5-.1.2-.1.6-.1 1.1 0 1.9 0 3.1.1 3.4 0 .2.1.3.1.3.2.1.8.2 1.9.3v.1c0 .1 0 .2-.1.3l-2.4-.1-1.6.1h-1.5v-.2l.1-.1 1.2-.2c.4-.1.7-.2.7-.3.1-.1.1-.2.1-.3v-2.6c0-.6 0-1-.1-1.1s-.2-.4-.4-.7l-1.2-1.9-2.1-3c-.4-.5-.7-.9-.9-1.1-.1-.1-.4-.1-.9-.2h-.2v-.1zM224.1 156.9c.9-.1 1.4-.2 1.5-.2.1 0 .2-.1.2-.3v-.1c0-.2 0-.7.1-1.7v-7.2c0-.7 0-1.1-.2-1.3-.1-.2-.4-.3-.9-.3s-.7-.1-.8-.1l-.1-.1v-.2c.1-.1.2-.1.4-.1h4c1.4 0 2.4.1 2.9.3.6.2 1 .6 1.3 1 .3.5.5 1 .5 1.6 0 1.1-.6 2-1.8 2.6-.2.1-.4.2-.5.3.2.4.5 1 .9 1.6l1.2 2c.5.7.8 1.2 1 1.4.2.2.4.3.7.5.3.1.7.2 1.3.4v.2h-3.3c-.4-.8-1-1.8-1.6-2.8l-1.4-2.5c-.2-.3-.3-.4-.5-.5-.1-.1-.3-.1-.5-.1h-1.1v4.4c0 .1 0 .3.1.5 0 .1.1.2.3.3.1.1.5.2 1.1.3l.4.1c0 .1.1.1.1.3H224v-.1c0-.1 0-.1.1-.2zm3.5-6.1h.4c.4 0 1-.1 1.6-.2.4-.1.7-.2 1-.4.3-.2.5-.5.6-.8.2-.4.3-.7.3-1.1 0-.4-.1-.9-.4-1.3-.2-.4-.6-.7-1-.9s-1.1-.4-1.8-.4h-.7V148.8c-.1.6-.1 1.2 0 2zM236 157c.1-.1.1-.1.2-.1s.3-.1.5-.1c.6 0 1-.1 1.1-.2.1-.1.1-.3.1-.5v-9.2c0-.6 0-1-.1-1.1-.1-.1-.4-.2-1-.2-.2 0-.4 0-.6-.1-.1 0-.1-.1-.1-.2v-.2h.4c.4 0 .7.1 1.1.1h8.6s.1.1.1.2v.7c0 .6 0 1.2.1 1.6 0 0 0 .1-.1.1h-.2c-.1-.1-.2-.3-.3-.6s-.3-.6-.5-1c-.2-.3-.3-.4-.4-.5s-.3-.1-.5-.1h-1.3l-2.7.1h-.2c-.3 0-.5 0-.6.1-.1.1-.2.6-.2 1.3v3.5h4.4c.3-.1.5-.1.6-.2.1-.1.2-.4.2-.9s.2-.7.3-.8h.2v2.5c0 .3 0 .7.1 1.1 0 .4.1.6.1.6v.2H245c-.1-.2-.2-.4-.3-.8-.2-.6-.3-1-.5-1.2s-.5-.2-.9-.2h-2.1c-.9 0-1.4 0-1.7.1v4.2c0 .6 0 1 .1 1.1.1.1.3.2.7.2h2.5c1.2 0 2-.1 2.4-.2s.7-.3 1-.5.6-.8 1-1.7c.1-.3.2-.4.4-.4.1 0 .1 0 .2.1-.2.6-.3 1-.3 1.2-.1.4-.1.9-.1 1.3 0 .2 0 .4-.1.5H239c-1.1 0-1.9.1-2.5.1h-.2c-.3.3-.3.3-.3.1zM252.5 145.6c1-.5 2-.7 3.2-.7 1.1 0 2.1.3 3 .8.9.5 1.6 1.2 2.1 2 .7 1.1 1 2.2 1 3.4 0 .8-.2 1.6-.5 2.5-.3.9-.8 1.5-1.3 2.1-.5.5-1.1 1-1.7 1.2-.6.3-1 .4-1.3.5-.2 0-.4.1-.5.1.3.3.7.7 1.3 1.2.6.5 1.2.9 1.8 1.1.1 0 .2.1.3.1.3.2.6.3.9.4l.2.1h.1l.2.1.9.3v.4h-.4c-.6 0-1.2-.1-2-.3s-1.5-.5-2.1-.9c-.6-.4-1.3-.8-2.1-1.4-.5-.4-.9-.8-1.2-1.2-1.1-.2-2.1-.5-2.9-1.1s-1.5-1.3-2-2.2c-.5-.9-.7-1.8-.7-2.7 0-1.1.3-2.2.9-3.3.7-1 1.6-1.9 2.8-2.5zm1.8 11.5c.3.1.7.1 1 .1.7 0 1.3-.1 1.8-.3.5-.2 1-.5 1.3-.8.4-.4.8-1.1 1.1-1.9.3-.8.5-1.8.5-3 0-1-.1-1.8-.4-2.6-.2-.5-.5-1.1-.9-1.6s-.9-1-1.4-1.2c-.5-.3-1.1-.4-1.8-.4-.8 0-1.6.2-2.4.7-.7.4-1.3 1.2-1.8 2.3-.3.7-.5 1.6-.5 2.9 0 1 .2 2 .5 2.9.3 1 .8 1.7 1.5 2.3.4.2.9.4 1.5.6zM268.3 145.2v.4c-.2 0-.3.1-.4.1h-.4c-.3 0-.5.1-.7.2-.1.1-.2.2-.2.3l-.1 1.1v4.6c0 1.7.1 2.7.2 3.2.1.4.3.8.5 1 .2.3.6.5 1.1.7.5.2 1 .3 1.5.3 1.1 0 1.9-.2 2.4-.5.6-.3 1-.7 1.2-1.3.2-.5.4-1.4.4-2.5v-2.1l-.1-2.7c0-.9-.1-1.4-.2-1.6s-.1-.3-.3-.4c-.2-.2-.7-.3-1.4-.5 0-.1 0-.2-.1-.3h4v.3c-.8.1-1.2.2-1.4.4s-.2.4-.2.7v1.3l.1 1.9v1.8c0 1.2 0 2.1-.1 2.5-.1.6-.2 1.1-.4 1.5-.2.4-.5.7-.8 1-.3.3-.8.5-1.4.7-.6.2-1.2.3-1.7.3-.9 0-1.5-.1-1.9-.2-.7-.2-1.3-.5-1.7-.9-.4-.3-.7-.7-.9-1-.2-.5-.3-1.1-.3-2V146.8c0-.4 0-.6-.1-.8-.1-.1-.2-.1-.3-.1h-.6c-.4 0-.7 0-.8-.1v-.1c0-.1 0-.1.1-.1s.2-.1.3-.1h2.3l2.4-.3zM276.8 157c.1-.1.1-.1.2-.1s.3-.1.5-.1c.6 0 1-.1 1.1-.2.1-.1.1-.3.1-.5v-9.2c0-.6 0-1-.1-1.1-.1-.1-.4-.2-1-.2-.2 0-.4 0-.6-.1-.1 0-.1-.1-.1-.2v-.2h.4c.4 0 .7.1 1.1.1h8.6s.1.1.1.2v.7c0 .6 0 1.2.1 1.6 0 0 0 .1-.1.1h-.2c-.1-.1-.2-.3-.3-.6s-.3-.6-.5-1c-.2-.3-.3-.4-.4-.5s-.3-.1-.5-.1h-1.3l-2.7.1h-.2c-.3 0-.5 0-.6.1-.1.1-.2.6-.2 1.3v3.5h4.4c.3-.1.5-.1.6-.2.1-.1.2-.4.2-.9s.2-.7.3-.8h.2v2.5c0 .3 0 .7.1 1.1 0 .4.1.6.1.6v.2h-.2c-.1-.2-.2-.4-.3-.8-.2-.6-.3-1-.5-1.2s-.5-.2-.9-.2H282c-.9 0-1.4 0-1.7.1v4.2c0 .6 0 1 .1 1.1.1.1.3.2.7.2h2.5c1.2 0 2-.1 2.4-.2s.7-.3 1-.5.6-.8 1-1.7c.1-.3.2-.4.4-.4.1 0 .1 0 .2.1-.2.6-.3 1-.3 1.2-.1.4-.1.9-.1 1.3 0 .2 0 .4-.1.5h-8.3c-1.1 0-1.9.1-2.5.1h-.2c-.3.3-.3.3-.3.1zM296.3 145.7c0 .4.1.6.1.7v1.5h-.2c-.2-.9-.5-1.5-1-1.9-.5-.4-1.1-.6-1.7-.6-.7 0-1.3.2-1.7.6-.5.4-.7.9-.7 1.4 0 .4.2.8.5 1.1.3.3 1.1.8 2.4 1.5 1 .5 1.7.9 2.1 1.3.4.3.8.7 1 1.1.2.4.3.9.3 1.4 0 .7-.2 1.3-.5 1.9-.3.6-.8 1-1.4 1.3-.6.3-1.4.4-2.3.4-.8 0-1.6-.1-2.4-.4-.5-.2-.7-.3-.8-.4s-.1-.2-.1-.3v-.3c.1-.7.1-1.3.1-1.8 0-.3 0-.5.1-.5l.1-.1c.1 0 .1 0 .1.1s.1.1.1.2c.1.8.4 1.5 1.1 2.1.6.6 1.4.9 2.2.9.5 0 .9-.1 1.4-.3.4-.2.7-.5 1-.9.2-.4.4-.8.4-1.1 0-.5-.2-1-.5-1.4-.4-.4-1.1-.9-2.1-1.5s-1.8-1-2.1-1.2c-.5-.4-.9-.9-1.2-1.3-.2-.4-.3-.8-.3-1.3 0-.9.3-1.6 1-2.2.7-.6 1.6-.9 2.8-.9.6 0 1.2.1 1.6.2-.1.2.3.4.6.7zM298.4 146.6l.4-1.4c0-.2.1-.3.1-.4 0-.1.1-.1.1-.1.1 0 .2.1.4.4.1.2.2.3.3.4.1.1.2.1.3.1h7.7c.4 0 .7.1.8.1.1 0 .2 0 .2-.1l.3-.6c.1-.2.2-.3.3-.3h.2v3.6c-.1 0-.1.1-.2.1s-.1 0-.1-.1c0 0-.1-.2-.1-.4-.1-.6-.3-1-.5-1.2-.1-.2-.3-.3-.5-.3s-.8-.1-1.7-.1h-1.6v.7l.1 5.8v3.2c0 .2 0 .4.1.5s.3.2.6.3c.6.1 1 .2 1.1.3.1 0 .2 0 .3.1v.3H304.1l-1.4.1-1 .1h-.5l-.1-.1c0-.1 0-.2.1-.3s.2-.1.3-.1c.3 0 .6-.1.9-.2.4-.1.6-.2.7-.3.1-.1.1-.1.1-.3.1-.3.1-.8.1-1.6v-8.5h-1.5c-.9 0-1.4.1-1.6.2-.3.2-.8.7-1.4 1.5-.2.3-.4.5-.5.5h-.1v-.1c0-.1 0-.3.1-.7 0-.6.1-.9.1-1.1zM118.1 121.4c1 .7 2.3 1.6 3 2.1.6.4.9.5 1.3.5.9 0 1.4-.7 1.6-1 2.1-3.6 2.8-10 2.8-11.3 0-2.5-.6-3.5-2.3-3.5-.9 0-2.1.2-3 .4-.6 1.3-3.2 7.4-3.7 8.5-1.4 2.8-2.9 5.8-4.4 8.3-.1.1-.6 1-1.1 1-.5 0-.8-.5-.8-1.3 0-1.1.4-1.5 1.3-2.7.4-.5 2.3-3.6 3.6-6.2 1.3-2.5 3-6.5 3.3-7.2-1.1.4-4.6 1.6-5.2 2.1-.7.5-.9.6-1.3.6-1.1 0-2.8-1.5-2.8-3.5 0-.2 0-.3.1-.5.5.8 1.4 1.8 2.5 1.8.5 0 1.1-.1 2.2-.5 2.9-.8 3-.8 5-1.4.6-1.4 1.9-4.6 1.9-5.8 0-.9-.3-1.5-1.2-1.9l-1.4-.7c.4-.1.8-.2 1.4-.2 2.5 0 3.7 1.6 3.7 2.3 0 .3 0 .4-.7 1.5-.4.6-1.6 3.7-1.9 4.3.4-.1 1.5-.2 2.6-.2 3.6 0 3.9 3.5 3.9 5.2 0 2.1-1.2 10.5-3.7 13.3-.5.5-1.9 2-2.9 2-.8 0-.8-.4-.8-1.1 0-.6-.2-1.3-2.9-4.7l-.1-.2zm14.6-6.5c2.4-.1 4.7-.1 4.7-1.8 0-.8-1.6-3.4-6.9-7 4.6.7 7.1 3.9 7.6 4.5 1.5 1.8 2 3.6 2 5.2 0 .8-.1 1.2-.6 1.2-.3 0-.4-.1-1.2-.6-.4-.3-.7-.2-2.9-.7-.3-.1-1.8-.4-2.7-.6v-.2zM172.9 115.2c-.8 3.2-1.7 5.8-3.2 7.6-1 1.2-3 3-5.9 3-3.7 0-4.1-2.9-4.5-6.3-.3-2.6-.6-4.4-2.6-4.4s-4 1.1-6.1 3.9c-1.3 1.8-1.6 2.3-3.3 6.4-.3.7-.6 1.4-1.2 1.4-.9 0-1-1.9-1-2.1 0-.5.2-1 1-2 1.6-2.2 7-12.3 8.9-16.1.5-1 1.8-3.6 1.8-4.4 0-.4-.3-1.1-1.4-2 .3-.1.5-.1.8-.1 1.5 0 3.3 1.5 3.3 2.9 0 .7-.3 1-.9 1.7-.4.4-.6.7-.9 1.3-4.9 7.7-5.3 8.4-6.5 11 2.5-2.1 4.2-2.9 6-2.9 3.2 0 3.5 2.4 4 5.3.5 2.7.8 4.5 3.1 4.5 1.5 0 2.9-.7 4.3-2.1 1.9-1.9 3.2-4.4 4.1-6.4h.2zM187.9 101.1c0-1.3-.8-1.6-1.9-2.2.3-.1.5-.3 1.1-.3 2.7 0 3.3 2 3.3 2.7 0 .2-.2.6-.6 1.1-.6 1.1-1.2 2.6-1.5 3.3 1.8-.7 2.5-1.1 3.2-1.5.3-.2 1.3-.8 1.9-.8.4 0 1.2.3 1.2.9 0 .2 0 .4-.7.8-1.9 1.1-3.8 1.6-6.2 2.3-.1.2-.1.4-.4.9-3.3 9.3-6.8 16.7-7.1 17.4-.1.2-.4.6-.9.6-.6 0-.9-.9-.9-1.5s.1-.7 1.1-2.2c1.5-2.1 2-3.6 6.4-14.3.1-.4.1-.4.2-.6-1.5.4-3.6.6-4.8.6-1.3 0-2.8-.8-3.4-1.9.7.2 1.8.5 3.6.5s3.5-.3 5.1-.8c.3-.7 1.3-3.9 1.3-5zm10.4 23.5c2 0 3.5-.2 3.9-.3.7-.1.9-.1 1.2-.1 1.1 0 1.7.7 1.7 1.4 0 .4-.3.6-.7.7-.6.1-2.1.3-3.9.3-2.1 0-5.7-.1-7.7-1.2-1.4-.8-2.5-2.1-2.5-3.7 0-1.1.4-1.9.7-2.4.1 3.1.6 5.3 7.3 5.3zm-.4-11.8c2.2-1.9 2.9-2.5 2.9-2.9 0-.7-1.6-1-3.2-1-1.1 0-2 .1-2.6.1 1.4-1 3.2-1.4 4.9-1.4 3.5 0 5.3 1.6 5.3 2.8 0 .5-.3.7-.8.7-.2 0-1-.1-1.1-.1-.1 0-3 .5-5.2 2l-.2-.2zM240.1 115.2c-.8 3.2-1.7 5.8-3.2 7.6-1 1.2-3 3-5.9 3-3.7 0-4.1-2.9-4.5-6.3-.3-2.6-.6-4.4-2.6-4.4s-4 1.1-6.1 3.9c-1.3 1.8-1.6 2.3-3.3 6.4-.3.7-.6 1.4-1.2 1.4-.9 0-1-1.9-1-2.1 0-.5.2-1 1-2 1.6-2.2 7-12.3 8.9-16.1.5-1 1.8-3.6 1.8-4.4 0-.4-.3-1.1-1.4-2 .3-.1.5-.1.8-.1 1.5 0 3.3 1.5 3.3 2.9 0 .7-.3 1-.9 1.7-.4.4-.6.7-.9 1.3-4.9 7.7-5.3 8.4-6.5 11 2.5-2.1 4.2-2.9 6-2.9 3.2 0 3.5 2.4 4 5.3.5 2.7.8 4.5 3.1 4.5 1.5 0 2.9-.7 4.3-2.1 1.9-1.9 3.2-4.4 4.1-6.4h.2zM248.4 109.4c-.2.3-.6 1.1-.6 1.5 0 .4.4 2 .4 2.4 0 .9-.5 1.5-1.2 1.5-1.1 0-1.1-.9-1.2-2.7 0-1.7-.1-2.6-1.6-3.3l.1-.2c.7 0 2.1.1 2.7-.4 0 0 2.1-1.8 5.7-7l.2.2c-.7 1.5-1.2 2.3-4.5 8zm7.8 16.9c-.3 0-.5 0-.9-.1-3 1.6-6.1 2.6-10.4 3.2v-.4c3.7-1.3 6.7-2.9 8.3-4.1.7-.5 1.1-1 1.4-1.5l2.3 2c.2.2.3.3.3.4-.1.3-.3.5-1 .5zm-7.5-22.6c-.8 0-1-.5-1.8-2.2-.5-1.1-1.2-2-2.1-2.7l.1-.2c3.8.8 4.9 2.7 4.9 3.9.1.8-.6 1.2-1.1 1.2zm18.6 10.4c0 1.1.1 3.7.1 4.9 0 .6.1 3.4.1 4.1 0 .5-.8 1-1.3 1-.6 0-.6-.2-.7-.6h-13.1c0 .2 0 .5-.1.7-.2.4-.9.6-1.3.6-.6 0-.6-.6-.6-.8v-.5c.2-2.1.2-4.4.2-5.9 0-4.9-.1-5.3-.2-6.2l2.2 1.2h12.6l.4-.5c.2-.2.2-.3.5-.3.1 0 .3 0 .6.2l1.4.9c.3.2.4.3.4.4-.1.1-.4.3-1.2.8zm4.8-1.2c-4.8-1.6-8.2-4.7-10-9.5-2 4.3-5.7 7.4-9.8 8.2l-.2-.2c2.9-1.5 6.7-4.5 8.5-8.9h-4.2c-1.2 1.6-3 3.8-5.6 5.7l-.1-.2c3.1-3.4 5.6-8.1 6.1-10.9l2.5 1.4c.1.1.3.3.3.5 0 .5-.6.6-1.1.6-.3.5-.5.8-1.4 2.1h11.1l.9-1.1s.2-.2.5-.2c.2 0 .5.1.7.2l2.1 1.6c.1.1.2.2.2.5 0 .7-.6.7-2.2.8-.4.2-3.3 1.8-3.3 1.9l-.2-.1c.8-1.4 1.2-2.1 1.5-2.8h-5.7c-.1.1-.1.2-.1.4 2.1 6 9.3 7.2 12.8 7.6v.2c-1.8.2-2.3.6-3.3 2.2zm-6.5.4h-13.1v2.6h13.1v-2.6zm0 3.4h-13.1v2.5h13.1v-2.5zm0 3.3h-13.1v2.6h13.1V120zm4.3 9.5c-.6 0-.9-.2-1.9-1.2-2.7-2.6-3-2.9-5.1-3.9l.1-.2c4.6.3 7.9 2.7 7.9 4.2.1.6-.3 1.1-1 1.1zM291.6 110h-5.7v2c2 .6 2.9.9 3.9 1.8.9.8 1 1.3 1 1.7 0 .9-.6 1.2-1 1.2-.6 0-1.1-.5-1.6-1.5-.7-1.4-1.2-1.9-2.2-2.7 0 5.8 0 8.5.2 12.1 0 .5.2 2.5.2 2.9 0 .9-.8 1.7-1.5 1.7-.8 0-.9-.6-.9-1.1 0-.2.1-2.9.2-3.3.4-6.9.4-7.4.3-11.5-2.1 3.7-4.9 7-8.3 9.7l-.2-.3c3.7-3.6 7.8-11.9 8.2-12.8h-1.7c-1.2 0-3.2.1-4.5.4l-.8-1.5c2.6.2 5.2.3 5.8.3h1.5c0-1.1 0-6.1-.1-7.1 0-2.6-.1-3.4-.6-4.9l2.9.8c.1.1.5.2.5.5s-.6.7-.9.9c-.2 1.6-.2 4.5-.2 6.8v2.9h2.5l1.2-1.2c.2-.2.5-.4.6-.4.2 0 .5.2.6.4l1.2 1.1c.2.2.4.3.4.5-.4.5-.7.6-1 .6zm-10.5-3.5c-.8 0-1-.6-1.4-2-.4-1.2-.9-2.4-1.7-3.3l.1-.2c2.8 1.8 4.1 2.7 4.1 4.1.1.2 0 1.4-1.1 1.4zm10.2-4.2c-.2.3-3.9 4.9-3.9 4.9l-.3-.1c.9-1.5 2-4.5 2.4-5.7.2-.7.2-1.1.2-1.5l2.5 1.3c.4.2.4.4.4.5 0 .4-1.1.5-1.3.6zm17.6 13.3-6.5 1.3c0 1.3.1 6.9.2 8.1 0 .4.1 2.1.1 2.3 0 .9-.2 1.2-.4 1.4-.4.5-.8.6-1.3.6-.7 0-.7-.7-.7-1.2 0-.8.2-4.5.2-5.3v-5.5l-7.6 1.5c-1.6.3-3.3.9-4.3 1.3l-1.1-1.3c2.5-.3 4.9-.7 5.8-.9l7.3-1.5c0-2.1-.1-5.5-.1-7.5 0-8.3 0-9-.6-11.4l3.3.9c.3.1.5.2.5.5 0 .5-.1.5-1.2 1.1-.1 1.1-.2 2.3-.2 6 0 .4 0 5.4.1 10.2l3-.6.8-1.6c.2-.5.4-.5.5-.5.2 0 .5.2.6.2l1.5 1.1c.3.2.4.3.4.6.1.1-.2.1-.3.2zm-12.5-1.9c-.8 0-1-.6-1.2-1.2-.5-1.9-1.5-3.2-1.9-3.6l.1-.1c1.2.4 4.1 1.7 4.1 3.6.1.9-.5 1.3-1.1 1.3zm.3-8.3c-.8 0-1-.7-1.1-1.2-.5-1.8-1.5-3-1.9-3.6l.1-.1c1.2.3 4.1 1.7 4.1 3.5-.1 1.1-.7 1.4-1.2 1.4zM322.2 104.8h-6.3c-1.1 0-3.1.1-4.5.4l-.8-1.5c1.9.2 3.9.3 5.8.3h3.2l.7-.8c.2-.2.4-.4.6-.4s.5.2.7.4l1 .8c.1.1.4.3.4.5-.2.2-.5.3-.8.3zm-1.2 9h-3.8c-1.1 0-3 .1-4.5.4l-.8-1.5c1.9.1 3.9.2 5.8.2h.6l.8-.9c.2-.2.4-.4.6-.4.2 0 .4.2.6.4l.9.9c.2.2.3.4.3.6 0 .3-.3.3-.5.3zm-.1 4.8c0 1.1.3 6.9.3 7.2 0 1.1-1.4 1.3-1.5 1.3-.7 0-.6-.7-.5-1.6h-5c.1 1.4.1 1.4.1 1.7 0 1.2-.8 1.9-1.4 1.9-.5 0-.8-.2-.8-.7 0-.5.1-2.6.2-3 .1-3.5.2-3.9.2-4.7 0-2.5-.2-3.6-.4-4.5l2.2 1h4.5l.8-.7c.1-.1.3-.3.5-.3.1 0 .4.2.5.2l1.1.8c.3.2.4.4.4.5-.2.2-.5.4-1.2.9zm-.1-9.2h-3.4c-1.1 0-3.1.1-4.5.4l-.8-1.5c2.3.2 4.5.3 6.3.3l.6-.8c.2-.3.4-.5.6-.5s.4.2.6.4l.9.8c.1.1.4.3.4.5-.1.4-.4.4-.7.4zm.5-9.2h-3.6c-1.1 0-3.1.1-4.5.4l-.8-1.5c2 .2 3.9.3 5.8.3h.5l.8-.8c.2-.2.4-.4.6-.4s.3.1.6.4l.9.8c.2.2.4.3.4.5-.2.2-.5.3-.7.3zm-2.1 17.7h-5v6.7h5v-6.7zm22.3-8.5h-13.7c-1.1 0-3.1.1-4.5.4l-.8-1.5c1.9.1 3.9.2 5.8.2h2.2v-3.1h-1.2c-1.1 0-3.1.1-4.5.4l-.8-1.5c1.9.1 3.9.2 5.8.2h.7v-2.9h-1.9c-1.1 0-3.1.1-4.5.4l-.8-1.5c1.9.1 3.9.3 5.8.3h1.4c0-2-.2-2.8-.6-3.9l3 .7c.3.1.7.2.7.5 0 .4-.2.6-1.1 1v1.6h4.9l1.1-1.2c.2-.3.4-.4.6-.4.2 0 .3.1.6.4l1.3 1.1c.2.2.4.3.4.6s-.3.4-.5.4h-8.3v2.9h3.7l.7-.8c.2-.3.4-.4.6-.4.2 0 .4.2.7.4l1.1.8c.2.1.4.2.4.5s-.3.4-.5.4h-6.5v3.1h6l1-1.2c.2-.2.4-.4.6-.4.2 0 .4.2.6.4l1.2 1.2c.2.2.4.4.4.5-.5.3-.8.4-1.1.4zm-2.7 4.7c0 2.9 0 5.8.1 8.8 0 .5.1 2.6.1 3.1 0 .8 0 2.6-3.6 3.5-.2-.8-.6-1.6-2.6-2.8v-.3c.6 0 3.2.1 3.6 0 .4-.1.5-.5.5-1.3v-3.4H327v2.2c0 .6.1 3.1.1 3.6 0 .9-.2 1.2-.5 1.4-.4.2-.8.4-1 .4-.4 0-.6-.3-.6-.8 0-.9.1-2.5.2-3.4 0-.9.1-4.5.1-7.7 0-.3 0-4.4-.1-5.7l2.2 1h9.1l1-.7c.2-.1.4-.3.5-.3.2 0 .3.1.5.2l1.1.8c.1.1.4.2.4.5-.2.3-.8.6-1.2.9zm-1.9-.6H327v3.2h9.9v-3.2zm0 4H327v3.3h9.9v-3.3zM373.7 124.5c-.1.1-.9.7-1.3 1.5-6.1-3.8-10.1-10-12.1-16.9 0 4 0 8.4.1 12.1 0 .7.1 3.6.1 4.2 0 2.1-.5 2.9-4 3.9-.7-1.4-1.7-2.6-3.4-3.1l.1-.4c.5.1 1.7.3 3.3.3 1.3 0 1.6 0 1.8-.5.1-.3.1-3.8.1-4.4 0-3.4 0-4.1-.2-15.6h-8.6c-1.2 0-3.2.1-4.5.4l-.8-1.5c2.6.2 5.2.2 5.8.2h8.1c0-.6 0-3.5-.1-4.1-.1-1.4-.5-2.8-.6-3.4l3.3 1.1c.2.1.5.2.5.5 0 .5-.5.7-1.2 1v4.9h9.8l1.3-1.5c.2-.3.4-.5.5-.5.2 0 .5.2.6.4l1.9 1.5c.2.2.4.3.4.6s-.3.4-.5.4h-13.9c0 .8.7 4.5 3.2 8.6 3.4-3.4 3.6-3.7 4.4-4.8.5-.7.5-1 .6-1.4l2.6 2c.3.2.5.6.5.8 0 .2-.2.4-.6.4-.3 0-.5 0-1.2-.1-.5.4-.7.5-1.3.8-.7.5-4 2.3-4.7 2.7 3.9 5.9 8.3 7.9 12 8.8v.3c-.9.2-1.4.3-2 .8zm-25.6-1.2c-.1 1.1-.1 1.7-.6 1.7-.3 0-.5-.2-.7-.5l-2.3-2.6c1.1-.1 2.1-.5 5.1-2.2 1.2-.7 6.2-4.3 7.2-5l.2.2c-1.7 2.1-7.6 7.6-8.9 8.4zm4.5-9.1c-1 0-1.4-.9-1.6-1.4-.6-1.5-1.9-3.2-3.1-4.1l.1-.3c2.7.9 5.7 2 5.7 4.4.1.8-.4 1.4-1.1 1.4zm14.3-10.6c-.8 0-1.3-.8-1.9-1.9 0 0-.9-1.2-1.5-1.8-.2-.2-.3-.3-.7-.5l.1-.3c2 .4 3.2.7 3.9 1.3.6.4 1.2 1.1 1.2 1.9.1.5-.4 1.3-1.1 1.3z"/><path style="fill:#fff" d="M468 245.3v20.9h-20.9z"/><path class="st2" d="M91.9 195.1v-7.4c-.5 1-1 1.7-1.5 2.3l-.7-.6c.7-.9 1.4-2.1 2.1-3.6.7-1.5 1.1-2.7 1.3-3.7l1.1.2c-.3 1.4-.9 2.8-1.6 4.2h.4v8.6h-1.1zm9.3-.2H99l-.1-1h1.9c.2 0 .4-.1.5-.2s.2-.3.2-.4v-9.7h-6.9v-.9h9.2v.9h-1.1v10c0 .4-.1.7-.4.9-.3.3-.6.4-1.1.4zm-5.3-3.7v.8h-1.1v-6.2h4.8v5.4h-3.7zm2.6-4.5h-2.6v3.7h2.6v-3.7zM109.1 183.9c0 .4 0 .9-.1 1.5h2.7c.7 0 1.2.2 1.6.7.4.5.6 1.1.6 1.9 0 1.9-.2 3.5-.6 4.8-.4 1.3-1.1 1.9-2.1 1.9-.6 0-1.4-.3-2.5-.8l.4-.9c.2.1.6.3 1.1.4.5.2.8.2.9.2.4 0 .7-.2.9-.6s.4-1 .6-1.7.2-1.7.2-2.7c0-.9-.1-1.5-.4-1.8-.3-.3-.6-.4-1-.4H109c-.2 1.2-.4 2.2-.6 3.1-.2.9-.6 1.8-1.1 2.7-.5.9-1.1 1.8-1.7 2.6l-.8-.6c.6-.7 1.2-1.7 1.8-3.1s1-2.8 1.2-4.6H105v-1h2.9v-2.9h1.2v1.3zm9.4 5.8-1.1.3c-.7-2.4-1.6-4.2-2.8-5.6l.8-.6c.7.7 1.3 1.6 1.9 2.7s.9 2.2 1.2 3.2zM123.1 194.7l-.1-1c3 0 5.1-.3 6.2-.8 1.1-.5 1.6-1.2 1.6-2.1 0-.8-.3-1.4-.8-1.8s-1.3-.6-2.2-.6c-1.1 0-2.3.2-3.5.7-1.2.5-2.1 1.1-2.7 1.9l-.9-.5c.6-1.6 1-3.5 1-5.8h1.2c0 1.3-.3 2.8-.8 4.6.7-.5 1.5-1 2.6-1.3 1.1-.3 2.1-.5 3-.5 1.4 0 2.4.3 3.2.9s1.1 1.4 1.1 2.5c0 1.2-.6 2.2-1.9 2.8-1.2.7-3.4 1-6.6 1h-.4zm7.4-10.1-.6.9c-.3-.2-.9-.4-1.6-.6s-1.4-.4-2.2-.6-1.9-.4-3.5-.7l.3-.9c1.7.3 3.3.6 4.7 1 1.4.4 2.4.7 2.9.9zM136.1 195.1v-5.8c-.7.6-1.4 1.2-2.2 1.7l-.4-.7c1-.7 2-1.5 2.8-2.4.8-1 1.4-1.9 1.7-2.8h-3.9v-.8h2v-2h1v2h2.1l.2.3c-.6 1.4-1.4 2.6-2.3 3.7.2.2.5.5.9.7.6-.6 1.1-1.2 1.5-1.7l.7.5c-.4.5-.9 1.1-1.6 1.7l1.1.8-.6.8c-.8-.6-1.5-1.2-2.1-1.7v5.9h-.9zm2.7-.1-.7-.7c1.6-1.4 2.6-2.9 3-4.5.4-1.6.7-3.6.7-6v-.2h-2.1v-.9h6.9v5.2c0 1.4-.1 2.6-.2 3.7s-.2 1.8-.4 2.1c-.2.4-.4.7-.7.8s-.7.3-1.2.3h-1.7l-.1-.9h1.4c.4 0 .7-.1 1-.2.2-.2.4-.5.5-1 .1-.5.2-1.4.3-2.7.1-1.3.1-3.1.1-5.2v-1.3h-2.7c0 1.9-.1 3.3-.2 4.3-.2 1-.4 1.9-.7 2.8-.3.9-.8 1.7-1.3 2.4-.5.8-1.2 1.5-1.9 2zM155 192.3l-.8.7c-.2-.2-.3-.4-.5-.7-1.1 1.1-2.1 1.7-3.1 1.7-.6 0-1.1-.2-1.5-.7-.4-.4-.6-1-.6-1.7 0-.9.2-1.7.7-2.5.4-.8 1.1-1.5 1.8-2.1-.3-.9-.6-1.9-.8-3l1.1-.3c.1.8.4 1.7.6 2.6 1.1-.6 2.3-1 3.7-1.1.1-.9.1-1.7.1-2.5h1.2c0 1-.1 1.8-.1 2.4 1.4 0 2.6.5 3.6 1.3.9.8 1.4 1.9 1.4 3.2 0 1.5-.6 2.6-1.7 3.5s-2.6 1.3-4.5 1.5l-.3-.9c3.5-.3 5.3-1.7 5.3-4.1 0-1.1-.4-1.9-1.1-2.5-.7-.6-1.7-1-2.8-1-.3 2-1.1 3.8-2.3 5.3l.6.9zm-1.9-.9c-.7-1.1-1.3-2.2-1.8-3.4-.4.4-.8.8-1.1 1.2-.3.4-.5.8-.6 1.2s-.1.8-.1 1.3c0 .3.1.6.3.8s.5.4.8.4c.8 0 1.6-.5 2.5-1.5zm-.9-4.1c.4 1.1.9 2.2 1.6 3.2.9-1.3 1.5-2.7 1.7-4.3-1.3.2-2.3.5-3.3 1.1zM175.8 184.9h-3.6c-.9.4-1.7 1-2.5 2s-1.2 2-1.2 3.1c0 .8.2 1.5.7 2.1.4.5 1 .9 1.7 1.2s1.7.4 2.9.4h.9l-.1 1.1h-2.2c-.6 0-1.2-.1-1.8-.3-.6-.2-1.2-.5-1.7-.9s-.9-.9-1.1-1.4c-.2-.5-.4-1.2-.4-1.8 0-1 .3-1.9.9-2.8.6-.9 1.4-1.7 2.3-2.4h-7.1v-.9h12.4v.6zM177.7 195l-.2-1c.4 0 1-.1 1.7-.1v-10.4h4.4v-1.4h1.1v1.4h4.5v5.8h-4.8c.5.9 1.1 1.7 1.8 2.3 1.7-.8 3-1.5 3.8-2.1l.8.8c-.9.6-2.2 1.3-3.8 1.9 1 .7 2.4 1.3 4.1 1.9l-.7.9c-1.8-.6-3.3-1.3-4.4-2.2-1.2-.9-2.1-2.1-2.8-3.5h-3v4.5c2.6-.3 4.3-.5 5.1-.6v.9c-1.3.2-3.8.5-7.6.9zm2.6-9h7.9v-1.7h-7.9v1.7zm7.9.8h-7.9v1.7h7.9v-1.7zM198.8 190.4c-.2.5-.4 1-.8 1.7a5 5 0 0 1-1.1 1.6c-.4.4-.7.7-1.1.7-.2 0-.4-.1-.6-.2-.2-.1-.4-.3-.7-.7s-.6-.8-.8-1.3l-.6-1.8c-.2-.6-.2-1.2-.2-1.8 0-.5.1-1.3.2-2.3.1-1 .2-1.8.2-2.2h1.2c0 .4-.1 1.2-.2 2.2-.1.9-.2 1.7-.2 2.2 0 .8.1 1.6.3 2.2.2.7.4 1.2.8 1.7s.6.7.7.7c.2 0 .6-.3 1-1s.8-1.4 1.1-2.2l.8.5zm6.5 2.1h-1.2v-.1c0-1.4-.2-2.8-.7-4.1-.5-1.3-1.1-2.5-2-3.6l.9-.6c2 2.3 3 5.1 3 8.4zM211.2 183.9c0 .4 0 .9-.1 1.5h2.7c.7 0 1.2.2 1.6.7.4.5.6 1.1.6 1.9 0 1.9-.2 3.5-.6 4.8-.4 1.3-1.1 1.9-2.1 1.9-.6 0-1.4-.3-2.5-.8l.4-.9c.2.1.6.3 1.1.4.5.2.8.2.9.2.4 0 .7-.2.9-.6s.4-1 .6-1.7.2-1.7.2-2.7c0-.9-.1-1.5-.4-1.8-.3-.3-.6-.4-1-.4H211c-.2 1.2-.4 2.2-.6 3.1-.2.9-.6 1.8-1.1 2.7-.5.9-1.1 1.8-1.7 2.6l-.8-.6c.6-.7 1.2-1.7 1.8-3.1s1-2.8 1.2-4.6H207v-1h2.9v-2.9h1.2v1.3zm9.3 5.8-1.1.3c-.7-2.4-1.6-4.2-2.8-5.6l.8-.6c.7.7 1.3 1.6 1.9 2.7s1 2.2 1.2 3.2zM224.3 189.5c-.5.8-1.3 2-2.4 3.5l-.7-.7c.6-.7 1.1-1.5 1.8-2.4.6-1 1.1-1.8 1.4-2.5v-1.6h-2.6v-.9h2.6v-2.3h1.1v4.1c.8-.7 1.6-1.3 2.5-1.7.9-.4 1.7-.6 2.6-.6 1.2 0 2.3.4 3.1 1.3s1.2 1.9 1.2 3.2c0 1.6-.5 2.9-1.5 3.9s-2.6 1.6-4.9 1.8l-.2-1c3.7-.2 5.5-1.8 5.5-4.8 0-.9-.3-1.8-.9-2.5-.6-.7-1.3-1.1-2.2-1.1-.9 0-1.8.2-2.7.7-.9.5-1.7 1.1-2.5 2v6.8h-1.1v-5.2zM240.4 183.9c0 .4 0 .9-.1 1.5h2.7c.7 0 1.2.2 1.6.7.4.5.6 1.1.6 1.9 0 1.9-.2 3.5-.6 4.8-.4 1.3-1.1 1.9-2.1 1.9-.6 0-1.4-.3-2.5-.8l.4-.9c.2.1.6.3 1.1.4.5.2.8.2.9.2.4 0 .7-.2.9-.6s.4-1 .6-1.7.2-1.7.2-2.7c0-.9-.1-1.5-.4-1.8-.3-.3-.6-.4-1-.4h-2.5c-.2 1.2-.4 2.2-.6 3.1-.2.9-.6 1.8-1.1 2.7-.5.9-1.1 1.8-1.7 2.6l-.8-.6c.6-.7 1.2-1.7 1.8-3.1s1-2.8 1.2-4.6h-2.8v-1h2.9v-2.9h1.2v1.3zm9.3 5.8-1.1.3c-.7-2.4-1.6-4.2-2.8-5.6l.8-.6c.7.7 1.3 1.6 1.9 2.7s.9 2.2 1.2 3.2zM254.3 194.7l-.1-1c3 0 5.1-.3 6.2-.8 1.1-.5 1.6-1.2 1.6-2.1 0-.8-.3-1.4-.8-1.8-.6-.4-1.3-.6-2.2-.6-1.1 0-2.3.2-3.5.7-1.2.5-2.1 1.1-2.7 1.9l-.9-.5c.6-1.6 1-3.5 1-5.8h1.2c0 1.3-.3 2.8-.8 4.6.7-.5 1.5-1 2.6-1.3 1.1-.3 2.1-.5 3-.5 1.4 0 2.4.3 3.2.9.8.6 1.1 1.4 1.1 2.5 0 1.2-.6 2.2-1.9 2.8-1.2.7-3.4 1-6.6 1h-.4zm7.4-10.1-.6.9c-.3-.2-.9-.4-1.6-.6s-1.4-.4-2.2-.6-1.9-.4-3.5-.7l.3-.9c1.7.3 3.3.6 4.7 1 1.5.4 2.4.7 2.9.9zM269.3 182.9c0 .7-.1 1.4-.2 2.1h3.2v.9H269c-.5 2.8-1.5 5.3-3 7.3l-.8-.6c1.3-1.8 2.3-4 2.7-6.6h-2.3v-.9h2.5c.1-.7.2-1.4.2-2.1l1-.1zm9.2 10.1-.6.9c-1-.8-1.9-1.4-2.6-1.8v.7c0 1.4-1 2.1-3.1 2.1-.8 0-1.6-.2-2.2-.5-.6-.4-.9-.9-.9-1.5 0-.7.3-1.2.9-1.7s1.3-.6 2.2-.6c.7 0 1.3.1 1.9.2v-3.9h1.1v4.2c1 .4 2.1 1 3.3 1.9zm-4.4-1.3c-.6-.2-1.3-.2-1.9-.2-.6 0-1 .1-1.5.3-.4.2-.6.5-.6 1 0 .8.7 1.2 2.2 1.2 1.2 0 1.8-.4 1.8-1.2v-1.1zm4.4-4.9-.9.7c-.9-1.1-2.1-2.3-3.6-3.4l.6-.7c1.3.8 2.6 1.9 3.9 3.4zM286.3 190.4c-.2.5-.4 1-.8 1.7a5 5 0 0 1-1.1 1.6c-.4.4-.7.7-1.1.7-.2 0-.4-.1-.6-.2s-.4-.3-.7-.7c-.3-.3-.6-.8-.8-1.3l-.6-1.8c-.1-.6-.2-1.2-.2-1.8 0-.5.1-1.3.2-2.3.1-1 .2-1.8.2-2.2h1.2c0 .4-.1 1.2-.2 2.2-.1.9-.2 1.7-.2 2.2 0 .8.1 1.6.3 2.2.2.7.4 1.2.8 1.7.3.5.6.7.7.7.2 0 .6-.3 1-1s.8-1.4 1.1-2.2l.8.5zm6.5 2.1h-1.2v-.1c0-1.4-.2-2.8-.7-4.1-.5-1.3-1.1-2.5-2-3.6l.9-.6c2 2.3 3 5.1 3 8.4zM299.4 188.4c-.5 2.9-2.1 5.1-4.8 6.5l-.6-.7c.8-.5 1.5-1 2.1-1.6s1-1.1 1.3-1.7c.3-.6.5-1.1.6-1.6.1-.5.2-.9.3-1.4.1-.4.1-1.3.2-2.7h-4v-.9h5.8v-2.2h1.2v2.2h6.1v.9h-8c0 .9-.1 1.7-.1 2.2h6.4v1.9c0 .8 0 1.5-.1 2.1-.1.6-.1 1.1-.3 1.6s-.3.8-.5 1c-.2.2-.5.4-.8.5-.3.1-.5.2-.7.2h-2.4l-.2-1h1.9c.9 0 1.4-.3 1.6-1s.3-1.7.3-3.1v-1.2h-5.3zM311.8 194.3l-1 .2c-.5-1.6-.7-3.3-.7-5.1 0-2 .3-4.1 1-6.5l1.1.2c-.7 2.2-1 4.3-1 6.3-.1 1.8.1 3.4.6 4.9zm9.7-.3c-1 .1-2 .2-2.9.2-1.3 0-2.3-.1-3-.2-.7-.2-1.1-.4-1.5-.8s-.5-.8-.5-1.4c0-.8.4-1.7 1.1-2.6l.8.4c-.6.6-.9 1.3-.9 2.1 0 .4.2.7.5.9.3.2.7.4 1.3.5.5.1 1.3.1 2.3.1 1 0 1.9-.1 2.8-.2v1zm-.1-9.1h-2.1c-1 0-2.8.1-5.3.2v-1c2.4-.1 4.4-.2 6-.2h1.5v.1c-.1.2-.1.5-.1.9zM330 194.3l.3-.9c.6.2 1.2.3 1.8.3.9 0 1.6-.2 2.1-.6.5-.4.8-1 .8-1.8s-.3-1.5-1-1.9c-.7-.4-1.6-.7-2.9-.7-.8 0-1.6.1-2.4.3v4.3c0 .9-.7 1.4-2.1 1.4-.8 0-1.5-.2-2.1-.7s-.9-1.1-.9-1.8c0-.8.4-1.5 1.1-2.2s1.7-1.2 2.8-1.6V186H324v-1h3.5v-2.3h1.2v2.2h3.7v.9h-3.7v2.2c.8-.2 1.6-.2 2.3-.2 1.4 0 2.6.3 3.6.9 1 .6 1.5 1.5 1.5 2.5s-.3 1.9-1 2.5-1.6.9-2.8.9c-.9.1-1.7 0-2.3-.3zm-2.4-4.9c-.8.3-1.5.7-2.1 1.2-.6.5-.8 1-.8 1.5s.2.9.6 1.1c.4.3.9.4 1.4.4.6 0 .9-.2.9-.7v-3.5zm9.4-3.1-.9.7c-.9-1.2-2.1-2.2-3.5-3.2l.7-.7c.6.4 1.2.9 2 1.5.7.6 1.2 1.2 1.7 1.7zM351.3 185.2h-4.5v2.7c.3.6.5 1.3.5 2.3 0 1.3-.5 2.3-1.4 3.2-.9.9-2.1 1.3-3.4 1.4l-.3-.9c1.1-.1 2.1-.5 2.9-1.2.8-.7 1.2-1.6 1.2-2.6v-.5c-.1.6-.4 1-.8 1.3-.4.3-1 .5-1.6.5-.7 0-1.3-.2-1.8-.7-.5-.4-.7-1-.7-1.7 0-.8.3-1.4.8-1.9s1.2-.8 2-.8c.6 0 1.1.2 1.6.5v-1.7h-7.1v-.9h7.1v-1.7h1.1v1.7h4.5v1zm-5.6 2.9c-.3-.5-.8-.8-1.7-.8-.4 0-.8.2-1.1.5s-.5.7-.5 1.1c0 .5.1.8.4 1.1.3.3.6.4 1 .4.6 0 1-.2 1.3-.5.3-.4.5-.8.5-1.4v-.4zM365.9 185.2h-4.5v2.7c.3.6.5 1.3.5 2.3 0 1.3-.5 2.3-1.4 3.2-.9.9-2.1 1.3-3.4 1.4l-.3-.9c1.1-.1 2.1-.5 2.9-1.2.8-.7 1.2-1.6 1.2-2.6v-.5c-.1.6-.4 1-.8 1.3-.4.3-1 .5-1.6.5-.7 0-1.3-.2-1.8-.7-.5-.4-.7-1-.7-1.7 0-.8.3-1.4.8-1.9s1.2-.8 2-.8c.6 0 1.1.2 1.6.5v-1.7h-7.1v-.9h7.1v-1.7h1.1v1.7h4.5v1zm-5.6 2.9c-.3-.5-.8-.8-1.7-.8-.4 0-.8.2-1.1.5s-.5.7-.5 1.1c0 .5.1.8.4 1.1.3.3.6.4 1 .4.6 0 1-.2 1.3-.5.3-.4.5-.8.5-1.4v-.4zM373.7 192.3l-.8.7c-.2-.2-.3-.4-.5-.7-1.1 1.1-2.1 1.7-3.1 1.7-.6 0-1.1-.2-1.5-.7s-.6-1-.6-1.7c0-.9.2-1.7.7-2.5.4-.8 1.1-1.5 1.8-2.1-.3-.9-.6-1.9-.8-3l1.1-.3c.1.8.4 1.7.6 2.6 1.1-.6 2.3-1 3.7-1.1.1-.9.1-1.7.1-2.5h1.2c0 1-.1 1.8-.1 2.4 1.4 0 2.6.5 3.6 1.3.9.8 1.4 1.9 1.4 3.2 0 1.5-.6 2.6-1.7 3.5-1.1.9-2.6 1.3-4.5 1.5l-.3-.9c3.5-.3 5.3-1.7 5.3-4.1 0-1.1-.4-1.9-1.1-2.5s-1.7-1-2.8-1c-.3 2-1.1 3.8-2.3 5.3l.6.9zm-1.9-.9c-.7-1.1-1.3-2.2-1.8-3.4-.4.4-.8.8-1.1 1.2s-.5.8-.6 1.2c-.1.4-.1.8-.1 1.3 0 .3.1.6.3.8.2.2.5.4.8.4.8 0 1.6-.5 2.5-1.5zm-.9-4.1c.4 1.1.9 2.2 1.6 3.2.9-1.3 1.5-2.7 1.7-4.3-1.2.2-2.3.5-3.3 1.1zM382.4 192.9c0-.5.2-1 .6-1.3.4-.4.8-.5 1.4-.5.5 0 1 .2 1.4.5s.6.8.6 1.3-.2 1-.6 1.3c-.4.4-.8.5-1.4.5-.5 0-1-.2-1.4-.5-.4-.3-.6-.8-.6-1.3zm.8 0c0 .3.1.6.3.8.2.2.5.3.8.3.3 0 .6-.1.8-.3.2-.2.3-.5.3-.8 0-.3-.1-.6-.3-.8-.2-.2-.5-.3-.8-.3-.3 0-.6.1-.8.3-.2.3-.3.5-.3.8z"/></svg>