<svg version="1.1" id="レイヤー_1" xmlns="http://www.w3.org/2000/svg" x="0" y="0" viewBox="0 0 480 275" style="enable-background:new 0 0 480 275" xml:space="preserve"><style>.st0{fill:#fff}</style><path d="M0 0h480v275.2H0z"/><path class="st0" d="M185.5 156.9c.9-.1 1.4-.2 1.5-.2.1 0 .2-.1.2-.3v-.1c0-.2 0-.7.1-1.7v-7.2c0-.7 0-1.1-.2-1.3-.1-.2-.4-.3-.9-.3-.5-.1-.7-.1-.8-.1-.1 0-.1-.1-.1-.1v-.2c.1-.1.2-.1.4-.1h4c1.4 0 2.4.1 2.9.3.6.2 1 .6 1.3 1 .3.5.5 1 .5 1.6 0 1.1-.6 2-1.8 2.6-.2.1-.4.2-.5.3.2.4.5 1 .9 1.6l1.2 2c.5.7.8 1.2 1 1.4.2.2.4.3.7.5.3.1.7.2 1.3.4v.2h-3.3c-.4-.8-1-1.8-1.6-2.8l-1.4-2.5c-.2-.3-.3-.4-.5-.5-.1-.1-.3-.1-.5-.1h-1.1v4.4c0 .1 0 .3.1.5 0 .1.1.2.3.3.1.1.5.2 1.1.3l.4.1c0 .1.1.1.1.3h-5.4v-.1c0-.1 0-.1.1-.2zm3.5-6.1h.4c.4 0 1-.1 1.5-.2.4-.1.7-.2 1-.4.3-.2.5-.5.6-.8.2-.4.3-.7.3-1.1 0-.4-.1-.9-.4-1.3-.2-.4-.6-.7-1-.9-.5-.2-1.1-.4-1.8-.4h-.7V148.8c.1.6.1 1.2.1 2zM197.4 157c.1-.1.1-.1.2-.1s.3-.1.5-.1c.6 0 1-.1 1.1-.2.1-.1.1-.3.1-.5v-9.2c0-.6 0-1-.1-1.1-.1-.1-.4-.2-1-.2-.2 0-.4 0-.6-.1-.1 0-.1-.1-.1-.2v-.2h.4c.4 0 .7.1 1.1.1h8.6s.1.1.1.2v.7c0 .6 0 1.2.1 1.6 0 0 0 .1-.1.1h-.2c-.1-.1-.2-.3-.3-.6s-.3-.6-.5-1c-.2-.3-.3-.4-.4-.5-.1 0-.3-.1-.5-.1h-1.3l-2.7.1h-.2c-.3 0-.5 0-.6.1-.1.1-.2.6-.2 1.3v3.5h4.4c.3-.1.5-.1.6-.2.1-.1.2-.4.2-.9s.2-.7.3-.8h.2v2.5c0 .3 0 .7.1 1.1 0 .4.1.6.1.6v.2h-.2c-.1-.2-.2-.4-.3-.8-.2-.6-.3-1-.5-1.2-.2-.2-.5-.2-.9-.2h-2.1c-.9 0-1.4 0-1.7.1v4.2c0 .6 0 1 .1 1.1.1.1.3.2.7.2h2.5c1.2 0 2-.1 2.4-.2s.7-.3 1-.5c.3-.3.6-.8 1-1.7.1-.3.2-.4.4-.4.1 0 .1 0 .2.1-.2.6-.3 1-.3 1.2-.1.4-.1.9-.1 1.3 0 .2 0 .4-.1.5h-8.3c-1.1 0-1.9.1-2.5.1h-.2c-.4.3-.4.3-.4.1zM213.9 145.6c1-.5 2-.7 3.2-.7 1.1 0 2.1.3 3 .8.9.5 1.6 1.2 2.1 2 .7 1.1 1 2.2 1 3.4 0 .8-.2 1.6-.5 2.5-.3.9-.8 1.5-1.3 2.1-.5.5-1.1 1-1.7 1.2-.6.3-1 .4-1.3.5-.2 0-.4.1-.5.1.3.3.7.7 1.3 1.2.6.5 1.2.9 1.8 1.1.1 0 .2.1.3.1.3.2.6.3.9.4l.2.1h.1l.2.1.9.3v.4h-.4c-.6 0-1.2-.1-2-.3s-1.5-.5-2.1-.9c-.6-.4-1.3-.8-2.1-1.4-.5-.4-.9-.8-1.2-1.2-1.1-.2-2.1-.5-2.9-1.1-.9-.6-1.5-1.3-2-2.2s-.7-1.8-.7-2.7c0-1.1.3-2.2.9-3.3.7-1 1.6-1.9 2.8-2.5zm1.9 11.5c.3.1.7.1 1 .1.7 0 1.3-.1 1.8-.3.5-.2 1-.5 1.3-.8.4-.4.8-1.1 1.1-1.9.3-.8.5-1.8.5-3 0-1-.1-1.8-.4-2.6-.2-.5-.5-1.1-.9-1.6s-.9-1-1.4-1.2c-.5-.3-1.1-.4-1.8-.4-.8 0-1.6.2-2.4.7-.7.4-1.3 1.2-1.8 2.3-.3.7-.5 1.6-.5 2.9 0 1 .2 2 .5 2.9.3 1 .8 1.7 1.5 2.3.3.2.8.4 1.5.6zM229.7 145.2v.4c-.2 0-.3.1-.4.1h-.4c-.3 0-.5.1-.7.2-.1.1-.2.2-.2.3l-.1 1.1v4.6c0 1.7.1 2.7.2 3.2.1.4.3.8.5 1 .2.3.6.5 1.1.7.5.2 1 .3 1.5.3 1.1 0 1.9-.2 2.4-.5.6-.3 1-.7 1.2-1.3.2-.5.4-1.4.4-2.5v-2.1l-.1-2.7c0-.9-.1-1.4-.2-1.6s-.1-.3-.3-.4c-.2-.2-.7-.3-1.4-.5 0-.1 0-.2-.1-.3h4v.3c-.8.1-1.2.2-1.4.4s-.2.4-.2.7v1.3l.1 1.9v1.8c0 1.2 0 2.1-.1 2.5-.1.6-.2 1.1-.4 1.5-.2.4-.5.7-.8 1-.3.3-.8.5-1.4.7-.6.2-1.2.3-1.7.3-.9 0-1.5-.1-1.9-.2-.7-.2-1.3-.5-1.7-.9-.4-.3-.7-.7-.9-1-.2-.5-.3-1.1-.3-2V146.8c0-.4 0-.6-.1-.8-.1-.1-.2-.1-.3-.1h-.6c-.4 0-.7 0-.8-.1v-.1c0-.1 0-.1.1-.1s.2-.1.3-.1h2.3l2.4-.3zM238.3 157c.1-.1.1-.1.2-.1s.3-.1.5-.1c.6 0 1-.1 1.1-.2.1-.1.1-.3.1-.5v-9.2c0-.6 0-1-.1-1.1-.1-.1-.4-.2-1-.2-.2 0-.4 0-.6-.1-.1 0-.1-.1-.1-.2v-.2h.4c.4 0 .7.1 1.1.1h8.6s.1.1.1.2v.7c0 .6 0 1.2.1 1.6 0 0 0 .1-.1.1h-.2c-.1-.1-.2-.3-.3-.6s-.3-.6-.5-1c-.2-.3-.3-.4-.4-.5s-.3-.1-.5-.1h-1.3l-2.7.1h-.2c-.3 0-.5 0-.6.1-.1.1-.2.6-.2 1.3v3.5h4.4c.3-.1.5-.1.6-.2.1-.1.2-.4.2-.9s.2-.7.3-.8h.2v2.5c0 .3 0 .7.1 1.1 0 .4.1.6.1.6v.2h-.2c-.1-.2-.2-.4-.3-.8-.2-.6-.3-1-.5-1.2s-.5-.2-.9-.2h-2.1c-.9 0-1.4 0-1.7.1v4.2c0 .6 0 1 .1 1.1.1.1.3.2.7.2h2.5c1.2 0 2-.1 2.4-.2s.7-.3 1-.5.6-.8 1-1.7c.1-.3.2-.4.4-.4.1 0 .1 0 .2.1-.2.6-.3 1-.3 1.2-.1.4-.1.9-.1 1.3 0 .2 0 .4-.1.5h-8.3c-1.1 0-1.9.1-2.5.1h-.2c-.4.3-.5.3-.4.1zM257.8 145.7c0 .4.1.6.1.7v1.5h-.2c-.2-.9-.5-1.5-1-1.9-.5-.4-1.1-.6-1.7-.6-.7 0-1.3.2-1.7.6-.5.4-.7.9-.7 1.4 0 .4.2.8.5 1.1.3.3 1.1.8 2.4 1.5 1 .5 1.7.9 2.1 1.3.4.3.8.7 1 1.1.2.4.3.9.3 1.4 0 .7-.2 1.3-.5 1.9-.3.6-.8 1-1.4 1.3-.6.3-1.4.4-2.3.4-.8 0-1.6-.1-2.4-.4-.5-.2-.7-.3-.8-.4s-.1-.2-.1-.3v-.3c.1-.7.1-1.3.1-1.8 0-.3 0-.5.1-.5l.1-.1c.1 0 .1 0 .1.1s.1.1.1.2c.1.8.4 1.5 1.1 2.1.6.6 1.4.9 2.2.9.5 0 .9-.1 1.4-.3.4-.2.7-.5 1-.9.2-.4.4-.8.4-1.1 0-.5-.2-1-.5-1.4-.4-.4-1.1-.9-2.1-1.5s-1.8-1-2.1-1.2c-.5-.4-.9-.9-1.2-1.3-.2-.4-.3-.8-.3-1.3 0-.9.3-1.6 1-2.2.7-.6 1.6-.9 2.8-.9.6 0 1.2.1 1.6.2-.1.2.2.4.6.7zM259.8 146.6l.4-1.4c0-.2.1-.3.1-.4 0-.1.1-.1.1-.1.1 0 .2.1.4.4.1.2.2.3.3.4.1.1.2.1.3.1h7.7c.4 0 .7.1.8.1.1 0 .2 0 .2-.1l.3-.6c.1-.2.2-.3.3-.3h.2v3.6c-.1 0-.1.1-.2.1s-.1 0-.1-.1c0 0-.1-.2-.1-.4-.1-.6-.3-1-.5-1.2-.1-.2-.3-.3-.5-.3s-.8-.1-1.7-.1h-1.6v.7l.1 5.8v3.2c0 .2 0 .4.1.5s.3.2.6.3c.6.1 1 .2 1.1.3.1 0 .2 0 .3.1v.3H265.5l-1.4.1-1 .1h-.5l-.1-.1c0-.1 0-.2.1-.3s.2-.1.3-.1c.3 0 .6-.1.9-.2.4-.1.6-.2.7-.3.1-.1.1-.1.1-.3.1-.3.1-.8.1-1.6v-8.5h-1.5c-.9 0-1.4.1-1.6.2-.3.2-.8.7-1.4 1.5-.2.3-.4.5-.5.5h-.1v-.1c0-.1 0-.3.1-.7 0-.6.1-.9.1-1.1zM177.4 121.6c1 .8 2.6 2.1 5.6 2.1 2.1 0 6.3-.9 6.3-5 0-3.9-3.7-4.6-5.2-4.6-2.1 0-6 1-9.6 3.4.1 1.2.1 2.4.1 3.6 0 .3.2 2.3.2 2.7 0 2.2-1.2 3.7-1.9 3.7-.4 0-.6-.2-1.1-1-.2-.4-.6-.7-1.4-1.4-.2-.1-1.2-.9-2.3-1.7-.6.9-1 1.3-1.4 1.3-.8 0-2-.8-2.5-1.6-.4-.6-.3-1.2-.3-1.7 1.2.9 1.2.9 1.6.9.2 0 .3 0 .8-.5 2.1-1.6 4.6-3.3 6.5-4.7 0-.8-.1-4.2-.1-4.9 0-.3 0-1.7.1-2.5-.9.3-2.5.8-3.8.8-.9 0-2.7-.7-3.2-2.5.8.7 1.3 1.1 3.1 1.1 1.1 0 3.2-.7 3.9-1 0-.6.1-3.1.1-3.6 0-.8-.1-3.2-.4-3.8-.2-.4-.2-.4-1.9-1.3.4-.2.7-.3 1.5-.3 1.5 0 3.5.8 3.5 1.9 0 .3-.1.6-.2 1.1-.4 1.1-.7 2.5-1 5.4 2.1-.9 2.5-1.2 2.8-1.5.7-.6.8-.6 1.3-.6 1.1 0 1.5.5 1.5.8 0 .4-.2.6-.8.9-.3.1-3.4 1.5-4.9 2.1-.1 1.7-.1 3.2-.1 3.7 0 .4 0 1.2.1 3.2 3.1-1.9 6.4-3.6 10-3.6 3.1 0 7.1 1.5 7.1 5.8 0 4.2-3.7 6.7-7.7 6.7s-5.4-1.8-6.7-3.6l.4.2zm-4.3.1v-3.1c-1.7 1.3-3.3 2.8-4.5 4.6.4.2 2.2.9 2.6 1.2.7.3.9.4 1.2.4.7 0 .8-.7.8-2v-1.1zm12.6-11.9c.5-.2 1-.6 2.2-1.6.7-.6.8-.8.8-1.1 0-1.1-2.3-2.2-4.9-3.3.3-.1.6-.1 1-.1 5.9 0 7.2 3.9 7.2 5.4 0 .7-.6.8-.6.8-.4 0-.8-.2-.9-.2-.7-.4-1-.4-1.5-.4-.8 0-1.7.3-3.3.8v-.3zM209.1 101.2c-.1.8-.1 1.5-.1 2.7 0 .9.2 4.9.2 5.8 0 .5 0 1.6-1.4 1.6-.7 0-.7-.2-.6-1.4h-7c0 1.8.1 4.7.1 6.5v8.1c0 .5.1 2.5.1 2.9 0 .2 0 .6-.2.9-.3.4-.9.7-1.3.7-.8 0-.8-.6-.8-.9 0-.1.1-.2.3-9.8.2-9.1.1-10.2.1-10.9 0-1.9 0-6.6-.3-8.2 0-.3-.1-.4-.3-1.3l2.7 1.2h6.4l.4-.5c.2-.2.2-.3.5-.3.1 0 .1 0 .4.2l1.5 1c.2.1.2.2.2.4.1.5-.2.8-.9 1.3zm-1.9-1.1h-7v4h7v-4zm0 4.8h-7v4.2h7v-4.2zm9.7 10.9c-.1 2.2 0 4.3 0 6.5 0 1.9-1 1.9-1.3 1.9-.2 0-.7-.1-.7-.7 0-.4 0-.9.1-1.2h-7.7v1.2c0 .1-.3 1.3-1.3 1.3-.6 0-.7-.4-.7-.7 0 0 .1-.7.1-.8.1-2 .1-4.9.1-5.4 0-1.5 0-3.7-.2-4.7l2.2 1.1h7.2l.6-.6c.2-.3.3-.4.5-.4.1 0 .2.1.5.2l1.3.9c.2.1.3.2.3.4 0 .3-.5.6-1 1zm-1.8-.7h-7.7v6.3h7.7v-6.3zm10.2-13.9c0 .9-.1 8.7-.1 10.7 0 2.3 0 4.5.1 6.2.1 2.7.1 5 .1 5.6 0 3.7 0 4.5-3.6 5.6-.5-1.5-.8-1.9-3.3-3.1v-.2c.8 0 1.9.1 2.9.1 1.4 0 1.6 0 1.9-.3.2-.2.2-.2.2-2.4 0-2.1-.1-11.5 0-13.4h-7.3c-.1.3-.2 1.3-1.3 1.3-.2 0-.7 0-.7-.8 0-2.4.2-6.2.2-8.6 0-1.4-.2-3.2-.3-3.7l2.3 1.2h6.9l.5-.7c.1-.2.3-.3.5-.3s.4.2.6.3l1.4 1.1c.2.1.3.2.3.4-.1.2-.9.7-1.3 1zm-1.8-1h-7.3v3.9h7.3v-3.9zm0 4.7h-7.3v4.2h7.3v-4.2zM259.1 112.4c-6-2.6-11.1-7.9-13.5-12.6h-.2c-5.9 7.9-10 12.5-16.1 15.4l-.2-.3c5.4-3.4 10.4-10.4 12.5-13.4.9-1.3 1.8-2.6 2.2-4.2l2.8 1.2c.3.1.4.2.4.4 0 .4-.3.7-.7.8 2.7 4.3 9.4 9.3 15.9 10.2v.3c-.8.2-2.5 1-3.1 2.2zm-5.2 6.2c-.1 2-.1 5.1 0 6.8 0 .3.1 1.4.1 1.6 0 .9-1.2 1.2-1.5 1.2-.5 0-.7-.3-.7-.7 0-.1 0-.6.1-.8h-13v1c-.1.4-.8.9-1.5.9-.4 0-.7-.2-.7-.6 0-.2.1-1.4.1-1.6.1-2.5.2-5.2.2-7.6 0-1.2 0-1.8-.2-3.3l2.6 1.2h12.5l.7-.8c.2-.2.3-.3.5-.3.1 0 .3.1.5.3l1.2 1.1c.3.3.4.4.4.5-.2.4-.3.5-1.3 1.1zm-1.1-6.4h-10.2c-1.2 0-3.2.1-4.5.4l-.8-1.5c2.6.2 5.1.3 5.8.3h6l1.1-1.2c.2-.3.4-.5.5-.5.2 0 .6.3.7.4l1.6 1.2c.2.1.4.3.4.5-.1.4-.4.4-.6.4zm-.9 5.5h-13v8.2h13v-8.2zM277.5 115.8l.3.1c3.6.8 3.7 1 4.1 1 1 0 1.3-.7 1.5-1.2.2-.9.5-4.8.6-6-3.5.6-6.8 1.4-9.5 2.1-.2 3.5-.2 3.9-.2 4.6 0 6.4 1.5 8.1 7.5 8.1 2.3 0 4.8-.4 5.4-.5.9-.2 1-.2 1.3-.2.9 0 1.9.6 1.9 1.3 0 .6-.5.7-.6.8-.8.2-3.8.2-4.9.2-3.6 0-9.5 0-11.3-4.7-.7-1.9-.9-3.9-.9-9.3-3.1.9-3.7 1.3-4.7 1.9-.7.5-.9.6-1.4.6-.6 0-3.3-1.2-3.1-3.7 1 .9 2 1.5 2.9 1.5.3 0 .6 0 1.6-.3 2.2-.7 4-1.1 4.7-1.3 0-1.2 0-4.5-.4-5.3-.3-.7-1.1-1.2-1.9-1.6.3-.2.5-.3 1.2-.3 1.7 0 3.3 1.1 3.3 1.7 0 .1 0 .5-.1.9-.1.6-.2 3.5-.2 4.1 3.2-.8 6.3-1.4 9.5-2 0-1.5.1-5.8-.4-7.1-.4-1.1-2.1-1.6-2.7-1.8.4-.2 1.1-.5 2.1-.5s3.2.7 3.2 2c0 .1-.2 1.1-.2 1.2-.2 1-.2 4.6-.3 5.9.8-.1 4.7-.7 5.4-.9.6-.1 1.6-.4 2-.4.6 0 2.1.2 2.1 1.1 0 .9-.9.9-1.3.9h-2c-1.3 0-3.3.1-6.3.5 0 2.1-.3 6.4-1.1 8.1-.7 1.7-1.8 1.9-2.1 1.9s-.4-.1-1.1-.7c-1.3-1.3-3.8-2.8-3.9-2.9v.2zM131 195.1l-.4-.8c.6-.1 1.3-.3 2.2-.5.9-.2 1.5-.5 1.9-.7l.7.7c-.5.3-1.2.5-2.2.8-.8.3-1.5.4-2.2.5zm.4-8.1-.6-.6c.9-.5 1.8-1.2 2.5-1.9l.7.4c-.7.8-1.5 1.4-2.6 2.1zm2-3.2c-.4-.3-1.1-.6-1.9-.9l.6-.6c.5.2 1.2.5 2 .9l-.7.6zm-1.3 9.2v-5.5h10.5v5.5h-10.5zm1-3.9h8.4v-.9h-8.4v.9zm0 1.5h8.4v-.9h-8.4v.9zm8.4.7h-8.4v1h8.4v-1zm-2.6-7.8v.4c.1.5.6 1 1.4 1.4.8.5 2 .9 3.7 1.2l-.4.8c-1.5-.3-2.6-.6-3.3-1-.8-.4-1.3-.8-1.7-1.4-.4.6-1 1.1-1.9 1.5-.9.4-1.9.6-2.9.7l-.2-.7c1.4-.1 2.4-.5 3.2-1s1.1-1.1 1.1-1.8v-.1h-1.5c-.6.6-1 1-1.4 1.2l-.6-.5c.4-.3.9-.7 1.3-1.2s.7-.8.9-1.2l1 .2c-.2.3-.4.6-.6.8h6l.2.4c-.5.8-1.1 1.4-1.7 1.9l-.7-.4c.3-.3.6-.7 1-1.2h-2.9zm4.4 11.6c-2.1-.4-3.6-.8-4.5-1.3l.7-.7c1.3.5 2.7.9 4.4 1.1l-.6.9zM145.5 193l-.7-.6c.4-.4.9-1.1 1.4-2.1.6-1 1-1.9 1.3-2.6h-2.3v-.9h2.6v-4.6h1.1v4.6h2v.9h-2v.5c.4.5 1 1.1 2.1 1.9l-.6.9c-.5-.4-1-.9-1.5-1.4v5.5h-1.1v-5.5c-.7 1.4-1.5 2.5-2.3 3.4zm.5-7c-.1-.8-.3-1.7-.5-2.9l1-.1.5 2.9-1 .1zm4.6 0-.9-.1.5-2.9 1 .1-.6 2.9zm.4 6v-.9l4.9-.6v-8.4h1.1v8.2l1.4-.2v1l-1.4.2v3.7h-1.1v-3.5l-4.9.5zm2.7-2.3c-.6-.9-1.3-1.8-2.2-2.8l.8-.6c.7.8 1.5 1.7 2.3 2.7l-.9.7zm.9-3.5c-.6-.8-1.3-1.7-2.2-2.8l.8-.6c1 1.1 1.7 2 2.2 2.7l-.8.7zM159.8 185.4v-.8h4.8v.8h-4.8zm1.3 9.1v.5h-1v-4.6h4v4h-3zm-.8-11.1v-.8h3.9v.8h-3.9zm0 3.9v-.8h3.8v.8h-3.8zm0 1.9v-.8h3.8v.8h-3.8zm2.8 2h-2v2.5h2v-2.5zm1.8-4v-.8h3.4v-1.1h-2.8v-.7h2.8v-1h-3.2v-.8h3.2v-.7h1.1v.7h3.3v.8h-3.3v1h3v.7h-3v1.1h3.6v.8h-8.1zm6.3 5.3h-4.6v2.6h-1.1v-7h6.8v6c0 .3-.1.5-.3.7-.2.2-.5.3-.8.3h-1.5l-.1-.9h1.1c.4 0 .5-.2.5-.5v-1.2zm0-2.6v-1h-4.6v1h4.6zm-4.6 1.8h4.6v-1.1h-4.6v1.1zM174.5 193.4l-.4-1c.7-.2 1.6-.6 2.7-1s2-.9 2.7-1.2l.3.9c-.4.2-1.1.6-2.2 1.1-1.3.5-2.3.9-3.1 1.2zm5.7 1.7h-2l-.2-1h1.7c.4 0 .6-.2.6-.6v-8.1h-5.7v-.9h5.7v-2.6h1.1v2.6h3.7c-.3-.3-.9-.9-1.8-1.7l.7-.6c.5.4 1.1.9 1.9 1.7l-.8.6h2.3v.9h-6.1v.7l.1.3c.2.7.8 1.7 1.7 2.8 1.1-.8 2.1-1.7 2.9-2.5l.9.7c-.9.9-1.9 1.7-3.2 2.5 1.3 1.4 2.6 2.5 4 3.4l-.8.8c-1.3-.9-2.4-1.9-3.4-2.9s-1.7-2.1-2.2-3v5.8c0 .3-.1.6-.4.8-.1.1-.4.3-.7.3zm-2.7-5.4c-.5-.9-1.1-1.8-1.9-2.8l1-.5c.9 1.1 1.5 2 1.9 2.7l-1 .6zM194.5 194.6l-1.1.2c-.4-1.6-1-4.2-1.9-7.7-.9.3-1.8.5-2.6.8l-.2-1 2.6-.7c-.3-1.3-.6-2.4-.9-3.3l1.1-.2.9 3.2c1.3-.4 2.5-.6 3.5-.9-.4-.7-.8-1.2-1.2-1.7l.9-.5c.3.3.8 1 1.4 2 .9-.2 1.5-.2 2-.2 1 0 1.8.3 2.4.8s.9 1.3.9 2.3c0 1-.3 1.7-1 2.3-.7.6-1.6.9-2.9.9-.7 0-1.3-.1-1.9-.2v-.9c.5.1 1 .1 1.6.1.4 0 .8 0 1.2-.1.3-.1.7-.2 1-.4.3-.2.5-.4.7-.7s.2-.6.2-1c0-.7-.2-1.2-.6-1.6-.4-.4-.9-.6-1.6-.6-.3 0-.8.1-1.4.2.3.5.6 1 .8 1.5l-1 .4c-.2-.4-.5-.9-.9-1.7-1.1.2-2.3.5-3.8.9l1.8 7.8zM203.4 185.4v-.8h4.8v.8h-4.8zm1.3 9v.5h-1v-4.4h4.1v4h-3.1zm-.8-10.9v-.8h4v.8h-4zm0 3.9v-.8h3.9v.8h-3.9zm0 1.9v-.8h3.9v.8h-3.9zm2.8 2h-2v2.4h2v-2.4zm1.6.5v-.9h3.7v-2.4h-3.1v-.8h3.1v-2.3h-3.1v-.8h1.7l-1-2 1-.3c.4.9.8 1.6 1.1 2.3h1.9l1-2.3 1.1.3-1.1 2.1h2.1v.8h-3.6v2.3h3.1v.8h-3.1v2.4h3.7v.9h-3.7v3.3H212v-3.3h-3.7zM218.7 193.8l-.9-.2c.4-1.1.6-2.3.7-3.5l1 .1c-.1.6-.2 1.3-.3 2.1-.3.7-.4 1.2-.5 1.5zm1.6 1.3V189l-2.3.2-.1-.9h1.1c.3-.4.7-.9 1-1.4-.1-.1-.8-.8-2.1-2.2l.7-.6.3.3c.5-.7 1-1.5 1.5-2.4l1 .4c-.5.9-1.1 1.8-1.8 2.7.4.4.8.8 1 1.1.7-1 1.2-1.8 1.4-2.3l1 .4c-.9 1.4-1.9 2.8-2.9 4.1 1-.1 1.7-.1 2.2-.2-.1-.3-.2-.7-.4-1l.9-.3c.2.6.5 1.4.8 2.3l-.9.2c0-.1-.1-.3-.2-.6-.2 0-.6.1-1.2.1v6.2h-1zm2.2-2.3-.4-2.6.9-.1c.1.7.2 1.5.4 2.6l-.9.1zm7.3 1.4H225v.8h-1v-12.2h6.9V195h-1.1v-.8zm-2.9-10.6h-1.8v4.3h1.8v-4.3zm-1.8 9.7h1.8v-4.6h-1.8v4.6zm4.7-5.4v-4.3h-1.9v4.3h1.9zm-1.9 5.4h1.9v-4.6h-1.9v4.6zM233.6 184.8c0 .6-.1 1.3-.2 2.2-.1.9-.2 1.5-.4 1.9l-.9-.2c.3-1 .5-2.4.5-4l1 .1zm1.8 10.3h-1v-13h1v13zm1.8-9.4-.8.2-.5-1.9.8-.2.5 1.9zm8.9 1.5H237v-.8h3.8v-1h-3.2v-.8h3.2v-.9h-3.7v-.8h3.7v-.9h1.1v.9h3.9v.8H242v.9h3.4v.8H242v1h4.1v.8zm-2 5.4h-5.3v2.5h-1.1v-6.9h7.5v5.8c0 .3-.1.5-.4.7-.2.2-.5.3-.8.3h-1.5l-.1-.9h1.1c.1 0 .3 0 .4-.1.1-.1.2-.2.2-.3v-1.1zm0-2.6v-1h-5.3v1h5.3zm-5.3 1.8h5.3v-1.1h-5.3v1.1zM249.8 195.1v-2.9h-2.6v-.8h2.6v-1.7h-2.7v-.8h1.6l-.7-2.4h-.8v-.8h2.6v-1.5h-2.2v-.8h2.2v-1.2h1.1v1.2h2.2v.8H251v1.5h2.4v.8h-.6l-.8 2.4h1.4v.8H251v1.7h2.2v.8H251v2.9h-1.2zm-.1-6.2h1.4l.7-2.4H249l.7 2.4zm4.4 6.1v-12.5h5.7v2.9c0 .3-.1.5-.4.7-.2.2-.5.3-.9.3H257l-.1-.9h1.3c.4 0 .6-.2.6-.5v-1.7h-3.5v4.2h5.1c0 1.8-.6 3.4-1.6 4.8.6.7 1.3 1.3 2.1 1.8l-.7.8c-.8-.6-1.5-1.2-2-1.8-.7.8-1.4 1.4-2.1 1.8l-.5-.7c.7-.4 1.4-1 2-1.8-.4-.5-.7-1-1-1.7s-.5-1.4-.6-2.3h-.6v6.6h-1.3zm4-3.3c.7-1.1 1.1-2.1 1.1-3.2h-2.4c.1 1.1.5 2.1 1.3 3.2zM264.5 194.3l-1.1.2c-.5-1.6-.7-3.3-.7-5.1 0-2 .3-4.1 1-6.5l1.1.2c-.7 2.1-1 4.2-1 6.1 0 1.9.2 3.5.7 5.1zm10.9-1.4-.6.9c-.5-.4-1.3-1-2.5-1.8v.4c0 .7-.2 1.3-.7 1.6-.5.4-1.3.5-2.4.5-.8 0-1.4-.2-2-.6-.6-.4-.8-.9-.8-1.5s.3-1.2.8-1.6c.5-.4 1.2-.6 1.9-.6s1.4.1 2.1.3v-4.2h-5v-1h5v-2.6h1.1v2.6h2.7v1h-2.7v4.6c1.1.5 2.1 1.2 3.1 2zm-4.2-.5v-.9c-.6-.2-1.3-.4-2.2-.4-.5 0-.9.1-1.2.3-.3.2-.5.5-.5.9s.2.7.5.9c.4.2.8.3 1.3.3 1.5.2 2.1-.2 2.1-1.1zM289 194c-1.4.2-3 .3-4.8.3h-.8c-2.2 0-3.8-.2-4.6-.7s-1.2-1.1-1.2-2c0-1 .5-2 1.5-2.8l.8.6c-.8.8-1.2 1.5-1.2 2.2 0 .6.3 1 1 1.3.7.3 2.1.4 4.2.4 1.7 0 3.3-.1 4.9-.4l.2 1.1zm-.5-9c-.2.1-.5.1-.8.3-.3.1-.6.2-.8.3l-2.4 1.2-.5-.8c.5-.3 1.2-.6 2.2-1.1v-.1c-1.7 0-4.2.1-7.6.2l-.1-1c1.9-.1 4.4-.1 7.7-.1h2.1l.2 1.1zM294.6 194.6v-1c.9.1 1.8.1 2.8.1 1.4 0 2.6-.2 3.5-.7s1.4-1.1 1.4-2c0-.5-.1-.8-.2-1.1-.2-.3-.5-.5-.9-.8-.5-.2-1.1-.4-1.8-.4-1 0-2 .2-3.1.6-1.1.4-1.9.9-2.6 1.4l-.7-.7c.9-1.2 1.6-2.7 1.9-4.4h-3.6v-.9h3.7c.1-.8.2-1.5.2-2.1h1.2c0 .7-.1 1.4-.2 2.1h7.9v.9h-8c-.2 1.2-.6 2.3-1.3 3.4.6-.3 1.3-.6 2.2-.8.9-.2 1.7-.3 2.4-.3 1.2 0 2.1.3 2.9.8.8.5 1.1 1.3 1.1 2.2 0 1.2-.5 2.1-1.6 2.7-1.1.6-2.5.9-4.4.9-1.1.2-2 .2-2.8.1zM309.3 194.7l-.1-1c3 0 5.1-.3 6.2-.8 1.1-.5 1.6-1.2 1.6-2.1 0-.8-.3-1.4-.8-1.8-.6-.4-1.3-.6-2.2-.6-1.1 0-2.3.2-3.5.7s-2.1 1.1-2.7 1.9l-.9-.5c.6-1.6 1-3.5 1-5.8h1.2c0 1.3-.3 2.8-.8 4.6.7-.5 1.5-1 2.6-1.3 1.1-.3 2.1-.5 3-.5 1.4 0 2.4.3 3.2.9.8.6 1.1 1.4 1.1 2.5 0 1.2-.6 2.2-1.9 2.8-1.2.7-3.4 1-6.6 1h-.4zm7.4-10.1-.6.9c-.3-.2-.9-.4-1.6-.6-.7-.2-1.4-.4-2.2-.6-.8-.2-1.9-.4-3.5-.7l.3-.9c1.7.3 3.3.6 4.7 1 1.4.4 2.4.7 2.9.9zM327.5 183.5l-.2 7.8h-1.1l-.2-7.8h1.5zm0 10.7H326v-1.5h1.5v1.5zM469.3 244.9v20.8h-20.9z"/></svg>