<svg version="1.1" id="レイヤー_1" xmlns="http://www.w3.org/2000/svg" x="0" y="0" viewBox="0 0 480 275" style="enable-background:new 0 0 480 275" xml:space="preserve"><style>.st1{fill:#fff}</style><path style="fill:#989898" d="M0 0h480v275.2H0z"/><path class="st1" d="M171.6 157c.2-.1.5-.2 1-.3.4 0 .6-.1.7-.1l.1-.1c.1-.2.2-.9.2-1.9.1-1.3.1-3.1.3-5.3.1-1.7.2-2.7.2-3.1v-.2c-.5-.1-1.2-.2-2.1-.3-.1-.1-.1-.2-.1-.2s0-.1.1-.2c.1 0 .2-.1.2-.1h.3c.3 0 .7.1 1.3.1h1.4c.1 0 .2 0 .3.1.1.1.1.1.1.2l.4.9 2.6 5.8 1.1 2.5c.9-1.7 1.5-3.2 2-4.6 0-.1.1-.2.1-.3.1-.1.1-.2.2-.4s.3-.6.6-1.5c.1-.3.3-.6.3-.9.4-1 .6-1.6.6-1.7.1 0 .2-.1.3-.1h3.3V145.6c-.2.1-.4.2-.7.2-.6 0-.9.1-1.1.1s-.2.1-.3.2-.1.4-.1.9v.8c0 .9 0 2.5.1 4.7v3c0 .5 0 .7.1.8 0 .1.2.2.4.2.3.1.9.2 1.6.3l.1.1v.2H181.8V156.8c.2-.1.5-.1.8-.2.4-.1.7-.2.9-.3.1-.2.1-.7.1-1.4v-5.7c0-1 0-1.8-.1-2.3-.1.2-.3.7-.6 1.4l-.1.4v.1l-1.4 3.3-.5 1.3-.6 1.5c-.3.7-.5 1.3-.7 1.9-.1.2-.2.4-.2.6h-.2c-.7-2.1-1.5-4.2-2.5-6.3-1-2.2-1.7-3.6-2.1-4.3-.1.3-.1 1-.2 2.3-.1 1.6-.1 3.3-.1 5.2 0 .6 0 1.3.1 2 0 .2.1.4.3.5.2.1.6.2 1.2.2.2 0 .5 0 .7.1 0 .1.1.2.1.2v.2l-2.9-.1h-2.1l-.1-.4zM187.8 157c.1-.1.1-.1.2-.1s.3-.1.5-.1c.6 0 1-.1 1.1-.2.1-.1.1-.3.1-.5v-9.2c0-.6 0-1-.1-1.1-.1-.1-.4-.2-1-.2-.2 0-.4 0-.6-.1-.1 0-.1-.1-.1-.2v-.2h.4c.4 0 .7.1 1.1.1h8.6s.1.1.1.2v.7c0 .6 0 1.2.1 1.6 0 0 0 .1-.1.1h-.2c-.1-.1-.2-.3-.3-.6s-.3-.6-.5-1c-.2-.3-.3-.4-.4-.5s-.3-.1-.5-.1h-1.3l-2.7.1h-.2c-.3 0-.5 0-.6.1-.1.1-.2.6-.2 1.3v3.5h4.4c.3-.1.5-.1.6-.2.1-.1.2-.4.2-.9s.2-.7.3-.8h.2v2.5c0 .3 0 .7.1 1.1 0 .4.1.6.1.6v.2h-.2c-.1-.2-.2-.4-.3-.8-.2-.6-.3-1-.5-1.2-.2-.2-.5-.2-.9-.2h-2.1c-.9 0-1.4 0-1.7.1v4.2c0 .6 0 1 .1 1.1.1.1.3.2.7.2h2.5c1.2 0 2-.1 2.4-.2.4-.1.7-.3 1-.5s.6-.8 1-1.7c.1-.3.2-.4.4-.4.1 0 .1 0 .2.1-.2.6-.3 1-.3 1.2-.1.4-.1.9-.1 1.3 0 .2 0 .4-.1.5h-8.6c-1.1 0-1.9.1-2.5.1h-.2c0 .3-.1.3-.1.1zM200.1 157c.2-.1.5-.2 1-.3.4 0 .6-.1.7-.1l.1-.1c.1-.2.2-.9.2-1.9.1-1.3.1-3.1.3-5.3.1-1.7.2-2.7.2-3.1v-.2c-.4-.1-1.2-.2-2.1-.3-.1-.1-.1-.2-.1-.2s0-.1.1-.2c.1 0 .2-.1.2-.1h.3c.3 0 .7.1 1.3.1h1.4c.1 0 .2 0 .3.1.1.1.1.1.1.2l.4.9 2.6 5.8 1.1 2.5c.9-1.7 1.5-3.2 2-4.6 0-.1.1-.2.1-.3.1-.1.1-.2.2-.4s.3-.6.6-1.5c.1-.3.3-.6.3-.9.4-1 .6-1.6.6-1.7.1 0 .2-.1.3-.1h3.3V145.6c-.2.1-.4.2-.7.2-.6 0-.9.1-1.1.1s-.2.1-.3.2c0 .1-.1.4-.1.9v.8c0 .9 0 2.5.1 4.7v3c0 .5 0 .7.1.8 0 .1.2.2.4.2.3.1.9.2 1.6.3l.1.1v.2H210.3V156.8c.2-.1.5-.1.8-.2.4-.1.7-.2.9-.3.1-.2.1-.7.1-1.4v-5.7c0-1 0-1.8-.1-2.3-.1.2-.3.7-.6 1.4l-.1.4v.1l-1.4 3.3-.5 1.3-.6 1.5c-.3.7-.5 1.3-.7 1.9-.1.2-.2.4-.2.6h-.2c-.7-2.1-1.5-4.2-2.5-6.3-1-2.2-1.7-3.6-2.1-4.3-.1.3-.1 1-.2 2.3-.1 1.6-.1 3.3-.1 5.2 0 .6 0 1.3.1 2 0 .2.1.4.3.5.2.1.6.2 1.2.2.2 0 .5 0 .7.1 0 .1.1.2.1.2v.2l-2.9-.1h-2.1l-.1-.4zM216.1 145.6v-.3h1.2c.7-.1 1.5-.1 2.4-.2h1.7c1.1 0 1.8.1 2.3.2.7.2 1.2.6 1.6 1 .4.5.5 1 .5 1.5 0 .9-.7 1.7-2 2.3v.1c.7.2 1.2.4 1.7.8.4.3.8.7 1 1.2.2.3.3.8.3 1.3 0 .9-.4 1.8-1.3 2.5-.8.7-2 1.1-3.5 1.1h-5.6V156.8s.1-.1.2-.1c.8-.2 1.2-.3 1.3-.3.1-.1.2-.2.2-.3.1-.2.1-.9.1-1.9v-2.1c0-1.6 0-3.1-.1-4.3v-2.1c-.5-.1-1-.1-1.4-.1-.2.1-.4.1-.6 0zm3.7 4.7c.3.1.6.1 1 .1 1.3 0 2.3-.3 2.7-.9.5-.6.7-1.2.7-1.8 0-.3 0-.5-.1-.8-.1-.3-.2-.5-.4-.7-.2-.2-.5-.4-.8-.5-.5-.2-1.1-.3-1.7-.3-.5 0-1 .1-1.5.2v3.2l.1 1.3v.2zm2.2 6.4c.6 0 1.1-.2 1.6-.4.2-.1.4-.3.7-.5.3-.3.5-.6.6-.9.1-.4.2-.7.2-1 0-.3-.1-.6-.2-.9-.1-.4-.3-.7-.5-1s-.6-.5-1.1-.7c-.5-.2-1-.3-1.6-.3-1.1 0-1.8 0-1.9.1V153.2c0 1.5.1 2.3.1 2.6s.2.5.5.7.8.2 1.6.2zM228.1 157c.1-.1.1-.1.2-.1s.3-.1.5-.1c.6 0 1-.1 1.1-.2.1-.1.1-.3.1-.5v-9.2c0-.6 0-1-.1-1.1-.1-.1-.4-.2-1-.2-.2 0-.4 0-.6-.1-.1 0-.1-.1-.1-.2v-.2h.4c.4 0 .7.1 1.1.1h8.6s.1.1.1.2v.7c0 .6 0 1.2.1 1.6 0 0 0 .1-.1.1h-.2c-.1-.1-.2-.3-.3-.6s-.3-.6-.5-1c-.2-.3-.3-.4-.4-.5s-.3-.1-.5-.1h-1.3l-2.7.1h-.2c-.3 0-.5 0-.6.1-.1.1-.2.6-.2 1.3v3.5h4.4c.3-.1.5-.1.6-.2.1-.1.2-.4.2-.9s.2-.7.3-.8h.2v2.5c0 .3 0 .7.1 1.1 0 .4.1.6.1.6v.2h-.2c-.1-.2-.2-.4-.3-.8-.2-.6-.3-1-.5-1.2s-.5-.2-.9-.2h-2.1c-.9 0-1.4 0-1.7.1v4.2c0 .6 0 1 .1 1.1.1.1.3.2.7.2h2.5c1.2 0 2-.1 2.4-.2s.7-.3 1-.5.6-.8 1-1.7c.1-.3.2-.4.4-.4.1 0 .1 0 .2.1-.2.6-.3 1-.3 1.2-.1.4-.1.9-.1 1.3 0 .2 0 .4-.1.5h-8.3c-1.1 0-1.9.1-2.5.1h-.2c-.4.3-.4.3-.4.1zM240.7 156.9c.9-.1 1.4-.2 1.5-.2.1 0 .2-.1.2-.3v-.1c0-.2 0-.7.1-1.7v-7.2c0-.7 0-1.1-.2-1.3-.1-.2-.4-.3-.9-.3s-.7-.1-.8-.1l-.1-.1v-.2c.1-.1.2-.1.4-.1h4c1.4 0 2.4.1 2.9.3.6.2 1 .6 1.3 1 .3.5.5 1 .5 1.6 0 1.1-.6 2-1.8 2.6-.2.1-.4.2-.5.3.2.4.5 1 .9 1.6l1.2 2c.5.7.8 1.2 1 1.4.2.2.4.3.7.5.3.1.7.2 1.3.4v.2h-3.3c-.4-.8-1-1.8-1.6-2.8l-1.4-2.5c-.2-.3-.3-.4-.5-.5-.1-.1-.3-.1-.5-.1H244v4.4c0 .1 0 .3.1.5 0 .1.1.2.3.3.1.1.5.2 1.1.3l.4.1c0 .1.1.1.1.3h-5.4v-.1c0-.1 0-.1.1-.2zm3.5-6.1h.4c.4 0 1-.1 1.6-.2.4-.1.7-.2 1-.4.3-.2.5-.5.6-.8.2-.4.3-.7.3-1.1 0-.4-.1-.9-.4-1.3-.2-.4-.6-.7-1-.9s-1.1-.4-1.8-.4h-.7V148.8c-.1.6-.1 1.2 0 2zM259.5 145.7c0 .4.1.6.1.7v1.5h-.2c-.2-.9-.5-1.5-1-1.9-.5-.4-1.1-.6-1.7-.6-.7 0-1.3.2-1.7.6-.5.4-.7.9-.7 1.4 0 .4.2.8.5 1.1.3.3 1.1.8 2.4 1.5 1 .5 1.7.9 2.1 1.3.4.3.8.7 1 1.1.2.4.3.9.3 1.4 0 .7-.2 1.3-.5 1.9-.3.6-.8 1-1.4 1.3-.6.3-1.4.4-2.3.4-.8 0-1.6-.1-2.4-.4-.5-.2-.7-.3-.8-.4s-.1-.2-.1-.3v-.3c.1-.7.1-1.3.1-1.8 0-.3 0-.5.1-.5l.1-.1c.1 0 .1 0 .1.1s.1.1.1.2c.1.8.4 1.5 1.1 2.1.6.6 1.4.9 2.2.9.5 0 .9-.1 1.4-.3.4-.2.7-.5 1-.9.2-.4.4-.8.4-1.1 0-.5-.2-1-.5-1.4-.4-.4-1.1-.9-2.1-1.5s-1.8-1-2.1-1.2c-.5-.4-.9-.9-1.2-1.3-.2-.4-.3-.8-.3-1.3 0-.9.3-1.6 1-2.2.7-.6 1.6-.9 2.8-.9.6 0 1.2.1 1.6.2-.1.2.3.4.6.7zM261.6 157.3v-.2c.2-.1.5-.2.7-.2.4-.1.7-.1.8-.2.1-.1.2-.1.3-.2.1-.2.1-.4.1-.6V145.9c0-.1-.1-.1-.1-.2-.1 0-.3-.1-.7-.1-.3 0-.5 0-.6-.1v-.4h1.2c.6 0 1.3 0 2-.1.3 0 .9 0 1.5-.1V145.2l-.1.1c-.8.1-1.3.2-1.4.3-.1.1-.2.5-.2 1v4s.4.1 1.2.1H269l2.4-.1h.5c0-1.1.1-2.1.1-3.1s0-1.5-.1-1.7c0-.1-.1-.2-.1-.2s-.4-.1-1-.1h-.3v-.3h2.7c.4 0 1 0 1.8-.1v.3c-.2.1-.5.2-.8.2-.2 0-.4 0-.5.1-.1.1-.2.3-.2.5V155.3c0 .4 0 .7.1.9 0 .1.1.1.2.2l.8.2c.4.1.6.2.7.2.1.1.1.1.1.2v.1h-.1c-.7-.1-1.4-.2-2.1-.2H272c-.2 0-.8.1-1.5.2v-.4c.2-.1.5-.2.9-.2.3 0 .6-.1.7-.3.1-.1.2-.3.2-.5v-4.3c0-.1-.1-.1-.1-.2-.2-.1-1 0-2.5 0h-4c-.1 0-.2 0-.3.1-.1.1-.1.2-.1.3v3c0 .9 0 1.4.1 1.7 0 .1.1.2.2.3.1 0 .3.1.7.2.3.1.5.1.7.2l.1.1v.1h-.8c-.3 0-.7 0-1.2-.1h-.8c-.4 0-1 0-1.9.1-.5.1-.6.1-.8.1zM276.2 156.9c.1-.1.3-.1.4-.1 1-.1 1.5-.2 1.6-.3s.2-1 .2-2.4V147.4c0-.4 0-.8-.1-1.2 0-.1-.1-.2-.1-.3-.2-.1-.6-.2-1.1-.2-.5 0-.8-.1-.9-.1 0 0-.1-.1-.1-.3h.8l2.5.1c.6 0 1.5 0 2.5-.1v.3c-.1 0-.3.1-.6.1-.6.1-1 .1-1.1.2-.1 0-.1.1-.2.2s-.1.3-.1.6v8.1c0 .7 0 1.1.1 1.3 0 .2.1.3.2.4s.2.2.4.2c.3.1.5.1.7.1.3 0 .6.1.7.1V157.2H276.2v-.3zM283 145.3h2.6l1.6-.1c.4 0 .9-.1 1.5-.1 1 0 1.8.1 2.3.4.6.3 1 .7 1.3 1.3.3.6.5 1.2.5 1.8 0 1-.3 1.8-1 2.5s-1.6 1.1-2.8 1.1c-.3 0-.6 0-.8-.1-.2-.1-.5-.2-.7-.4-.1-.1-.2-.2-.2-.3l.1-.1c.1 0 .2 0 .3.1.2.1.5.1.8.1.5 0 1-.1 1.4-.4.4-.2.8-.6 1-1 .2-.4.3-.9.3-1.4 0-.5-.1-1-.4-1.4-.2-.5-.5-.8-.9-1.1-.2-.2-.6-.3-1-.4-.5-.1-.8-.2-1-.2-.8 0-1.2.1-1.4.2v2.2c0 1.3 0 2.1.1 2.4v.5l.1 4.3v.7c0 .3 0 .5.1.7.1 0 .6.1 1.3.3.3.1.5.1.6.1l.1.1c0 .1-.1.2-.1.2h-.7c-.5-.1-1-.1-1.3-.1l-1.6.1h-1.5v-.2l1.2-.2c.2-.1.3-.1.4-.2.1-.1.1-.3.1-.5v-.9c0-.7 0-2.3-.1-4.7V147c0-.4-.1-.7-.2-.8-.2-.2-.8-.4-1.7-.5v-.2c-.4-.1-.3-.2-.3-.2zM194.5 111.6c-4.7-1.9-10.2-6.9-12.7-12.3h-.6c-4.7 7.1-11.5 12.3-16 14.1l-.1-.3c4.6-2.9 9.4-7.9 13.2-13.6.9-1.4 1-2 1.2-2.6l3.3 1c.2.1.6.2.6.6 0 .4-.3.5-.9.6 2.1 3.6 7.4 8.6 15.3 10.1v.3c-1.1.4-2.4 1-3.3 2.1zm.1 5.2h-14.3c-.4.7-.5 1.1-.9 1.8-1.4 2.4-3 4.7-4.8 6.8 3.9-.2 4.4-.3 14.3-1.3-1-1.9-2.3-3.6-4-5l.2-.2c7.7 3.9 8.2 8.1 8.2 8.6 0 .7-.5 1.5-1.3 1.5-.9 0-1.3-.7-1.5-1.3-.5-1.3-.8-2-1.4-3.2-12.6 2.7-14.4 3.1-18.1 3.6-.4.7-.5.8-.7.8-.2 0-.3-.1-.5-.5l-1.4-3.2c1.1.2 1.7.2 2.6.2.9 0 2.3 0 3-.1 1.2-2.8 2.2-5.7 3.1-8.6h-4.8c-.7 0-2.8.1-4.5.4l-.8-1.5c1.8.2 4 .3 5.8.3h17l1.6-1.7c.4-.4.4-.4.5-.4.2 0 .5.2.7.4l2.1 1.7c.1.1.4.3.4.5.1.4-.3.4-.5.4zm-7.6-6h-8.6c-1.2 0-3.2.1-4.5.4l-.8-1.5c2.6.2 5.1.3 5.8.3h4.1l1.4-1.5c.4-.4.4-.4.6-.4.2 0 .5.2.6.4l1.6 1.5c.1.1.3.3.3.5s-.2.3-.5.3zM212.1 125.4c-.5.1-.8.1-1.6.2-3.7 2.1-8.1 3.7-11.6 3.8l-.1-.2c2.5-.7 5.6-2.3 7.2-3.3 2.7-1.6 3.1-2.3 3.5-3.3l2.9 1.8c.3.2.3.3.3.5.1.2 0 .4-.6.5zm13-15.5c0 1.3 0 1.7.1 5.5 0 1.8.2 4.6.2 6.4 0 .4 0 .8-.5 1.2-.3.2-.7.3-.9.3-.7 0-.7-.5-.7-1.4h-16.6c-.1 1-.1 1.8-1.5 1.8-.7 0-.7-.5-.7-.8 0-1.1.1-2.8.2-3.8.1-2.6.1-4.7.1-6.3 0-4.1-.2-4.9-.4-5.7l2.6 1h16.1l.6-.7c.2-.3.4-.4.6-.4.1 0 .3.1.5.3l1.2.9c.4.3.5.5.5.7 0 .3-.4.5-1.4 1zm0-9.7c-.1.1-.7.4-.8.5v2.1c0 .3.1 1.8.1 2 0 .8-.5 1.3-1.2 1.3-.8 0-.8-.5-.8-1.2h-14.7c0 .3 0 .6-.1.9-.2.5-.9.7-1.2.7s-.8-.1-.8-.6c0-.2.1-1.2.1-1.4 0-.7.1-1.3.1-1.8 0-1.1 0-4.2-.2-5l2.5 1.4h14l.8-.9c.1-.1.3-.4.5-.4.1 0 .3.1.5.3l1.2 1c.2.2.3.3.3.5s-.1.5-.3.6zm-1.8 8.7h-16.6v3.3h16.6v-3.3zm0 4.1h-16.6v3.3h16.6V113zm0 4.2h-16.6v3.9h16.6v-3.9zm-.8-17.1h-14.8v4.1h14.8v-4.1zm4.2 29.2c-.8 0-1.3-.5-2.2-1.5-1.8-1.9-2.5-2.5-6.4-4.7l.1-.1c4 .8 6.7 1.9 7.9 2.6.4.3 1.9 1.2 1.9 2.6-.1.8-.8 1.1-1.3 1.1zM247.3 101.4c-4.2 7.6-10.1 12.5-15.3 14.4l-.1-.3c7-4.4 11.6-10.6 13.5-15.3h-3.3c-.7 0-2.8.1-4.5.4l-.8-1.5c1.8.2 4 .3 5.8.3h2.2l1.1-.7c.3-.2.4-.2.5-.2.2 0 .5.2.7.4l1.1 1.1c.2.2.4.4.4.7 0 .3-.3.4-1.3.7zm16.1 26.7h-24.7c-.7 0-2.8.1-4.5.4l-.8-1.5c1.8.1 4 .2 5.8.2h11c.6-1.6 1.3-4 1.3-5 0-.1 0-.4-.1-.7h-8.3c.6.4 3.2 2.1 3.2 4 0 .7-.7 1.3-1.3 1.3-.9 0-1-.6-1.2-2.3-.2-1.3-.3-1.8-.9-2.7l.2-.2h-.8c-.2.9-1.2.9-1.3.9-.4 0-.6-.2-.6-.7v-.6c.1-.9.1-2.2.1-3.2 0-1.1 0-2.4-.2-4.3l2.1 1.1h11.5l.7-.6c.3-.2.3-.3.4-.3s.3.1.4.2l1.3.9c.1.1.3.3.3.5 0 .1 0 .3-.2.5-.1.1-.7.4-.8.4 0 .5 0 1 .1 2.3 0 .3.1 1.8.1 2.2 0 1.2-1.3 1.3-1.4 1.3-.4 0-.6-.2-.6-.7H252l2.2 1.3c.1 0 .4.3.4.5 0 .3-.2.5-1.1.8 0 0-.2.2-.3.4-.7.8-1.7 2-2.4 2.8h8.5l1.6-1.6c.4-.4.4-.4.5-.4.2 0 .5.2.6.4l1.6 1.6c.1.1.3.3.3.5 0 .3-.4.3-.5.3zm-23.2-21.3c-.7 0-.8-.4-1.4-1.6-.9-2-1.4-2.7-1.9-3.3l.2-.2c1.1.5 2.1 1.2 3 2 .5.4 1.2 1 1.2 1.9.1.9-.6 1.2-1.1 1.2zm14.1 4.5h-6.7c-1.2 0-3.2.2-4.5.4l-.8-1.5c2.6.2 5.1.2 5.8.2h3l1.1-1.1c.3-.4.4-.4.5-.4.2 0 .5.2.6.4l1.1 1.1c.3.3.4.4.4.6 0 .3-.4.3-.5.3zm-.2 4.3h-11.8v5h11.8v-5zm7.7-2.6c-5.2-3-10-7-12.4-15.2l.4-.2c.6 1.8 1.3 3.6 2.8 5.5.9-.9 2.8-3.4 3.1-5l2.2 1.6c.2.1.4.4.4.6 0 .5-.6.5-1.4.5-1.9 1.4-3 2.1-4 2.7 1.2 1.5 1.8 2.1 2.6 2.8 1.9-1.8 3.3-4.2 3.7-5.1l2.2 1.6c.6.4.6.5.6.7 0 .4-.5.4-.7.4-.4 0-.6 0-1-.1-2.1 1.3-3.1 2-4.5 2.7 1.9 1.6 5.3 3.9 9.6 4.1v.2c-1.7.6-2.9 1-3.6 2.2zM278.8 105.1c-.7 0-.8-.2-1.8-2-.1-.2-1.2-1.8-2.6-2.7-2.4 4.3-6.4 9.1-8.6 10.7l-.1-.1c3.2-4.1 6.4-10.2 6.8-11.7.4-1.1.4-1.4.3-1.9l2.8 1.3c.1.1.2.2.2.4 0 .4-.2.5-1 .9v.1c1.6.3 3.2 1.5 3.7 1.9.8.6 1.4 1.1 1.4 2-.1.4-.4 1.1-1.1 1.1zm.3 9.6h-4.8v10.4c1.9-.4 3.1-.7 3.9-.9l.1.2c-1.6.8-9.1 3.3-9.7 3.4 0 .5-.1 1-.6 1-.2 0-.4-.2-.5-.4l-1.4-2.6c.4.1.7.1 1.2.1.8 0 3.6-.4 5.1-.6v-10.7h-1c-1.2 0-3.2.2-4.5.4l-.8-1.5c2.6.2 5.1.2 5.8.2h.5v-4.6h-1.3c-.6 0-1.4 0-1.9.2l-.4-1.2c.6 0 2 .1 2.5.1h3.6l.8-.9c.3-.4.5-.5.6-.5.2 0 .3.1.7.5l.8.8c.3.3.4.4.4.6 0 .2-.2.4-.5.4h-3.3v4.6h2l.8-.9c.3-.3.4-.5.6-.5.2 0 .4.1.7.5l.9.9c.2.2.4.4.4.6-.1.4-.4.4-.7.4zm-9.5 8.4c-.8 0-1-.6-1.1-1.4-.2-1.5-.8-3-1.5-3.7l.2-.2c.9.5 3.5 2.1 3.5 4 0 .8-.5 1.3-1.1 1.3zm8.8-4c-.2.3-.3.5-1.5 2.1-.2.4-.9 1.2-1.4 1.7l-.2-.1c.6-1.5 1.2-4.1 1.3-4.3 0-.3.2-1.5.2-1.8l2.4 1.3c.3.2.5.2.5.5 0 .4-.7.5-1.3.6zm2.9 5.6c-.1.6-.1.9-.4.9-.2 0-.4-.2-.5-.4l-1.5-2.3c.8 0 2-.5 2.9-.8 1.7-.7 3.4-1.4 5-2.5l.1.2c-.8 1.1-3.9 3.6-5.6 4.9zm15 2c-4.4-5.1-5.8-9.4-6.3-16h-.8v5.3c0 1.9 0 2.3.2 6.6 0 .4.1 2.3.1 2.7 0 2.7-1.9 3.4-3.3 3.9-.6-1.8-1.3-2.2-3-3.1v-.2c.5 0 2.7.1 3 .1 1 0 1.5-.2 1.5-.9v-14.4h-2.9c-1.3 0-3.2.1-4.5.4l-.8-1.5c2.6.2 5.1.3 5.8.3h5.9l.1-4.9h-4.6c-1.2 0-3.2.1-4.5.4l-.8-1.5c2.6.2 5.1.2 5.8.2h4.1l.1-3.9h-4.9c-1.3 0-3.2.1-4.5.4l-.8-1.5c2.6.2 5.2.3 5.8.3h4.2l.7-.8c.1-.1.3-.3.5-.3.1 0 .4.1.6.3l1.3.8c.1.1.4.2.4.5s-.3.5-1.4 1l-.2 9h2.1l.8-.9c.2-.3.4-.4.5-.4.2 0 .4.2.6.4l.8.8c.3.3.4.4.4.6 0 .3-.3.4-.5.4h-7.2c.2 3.2 1 5.3 1.5 6.5.8-.6 1.8-1.6 2.4-2.5.4-.6.6-1.2.7-1.5l2.1 1.5c.1.1.3.2.3.5 0 .2-.2.5-.6.5-.1 0-.4 0-.6-.1-1.5.9-3.4 1.7-4.2 2 1.5 3.3 3.7 5.8 6.9 7.5v.1c-1.6.1-2.4 1-2.8 1.4zm-12.3-8.9c-.7 0-.8-.3-1.4-1.8-.1-.3-1-2-1.7-2.5l.1-.2c.4.1.5.2 1.8.7 1.3.5 2.3 1.5 2.3 2.5 0 .6-.4 1.3-1.1 1.3zM157 187.8c-1-.4-2.2-1.1-3.4-2.1s-2.3-1.9-3.1-2.9c-.7 1-1.7 1.9-3 2.9s-2.5 1.7-3.6 2.2l-.5-.7c.9-.4 2-1.1 3.4-2.1s2.4-2 2.9-2.9h1.5c.8.9 1.7 1.9 3 2.8 1.2.9 2.4 1.6 3.6 2l-.8.8zm-12.5 7.2-.1-1c.5 0 1.2 0 2-.1.7-1 1.4-2.2 2.1-3.5h-4.3v-.9h12.6v.9h-7c-.7 1.3-1.4 2.4-2.2 3.5 3-.1 5.2-.3 6.6-.4-.7-.8-1.2-1.4-1.6-1.8l.9-.5c.4.4.9.9 1.6 1.7.7.8 1.2 1.4 1.5 1.8l-1 .5c-.2-.2-.4-.5-.7-.9-.9.1-2.5.3-4.9.4s-4.2.2-5.5.3zm2.2-7.6v-.9h7.7v.9h-7.7zM158.8 195.1l-.4-.8c.6-.1 1.4-.3 2.3-.6s1.5-.6 1.9-.8l.8.7c-.5.3-1.2.6-2.2.9-.9.3-1.7.5-2.4.6zm.9-2.4v-6.4h10.6v6.4h-10.6zm.5-7.2v-2.9h9.6v2.9h-9.6zm.6 2.6h8.4v-1h-8.4v1zm0 1.9h8.4v-1h-8.4v1zm8.4.7h-8.4v1.1h8.4v-1.1zm-.4-7.3h-7.5v1.3h7.5v-1.3zm2.3 11.7c-.7-.1-1.6-.4-2.5-.7-.9-.3-1.6-.6-2.1-.9l.7-.8c1.3.6 2.8 1 4.4 1.3l-.5 1.1zM173.1 191.9l-.6-.6c.5-.7 1-1.6 1.6-2.8s.8-2.1.9-2.7h-1.9v-.8h2v-2.8h1.1v2.8h1.2v.9h-1.2v1.6c.2.3.7.8 1.5 1.6l-.6.8c-.3-.3-.6-.7-.9-1.2v6.5h-1.1v-6.6c-.5 1.1-1.2 2.3-2 3.3zm4.3 2-.4-.9c1.2-.4 2.5-.9 3.7-1.6l.2.8c-.3.3-1.5.9-3.5 1.7zm3.9 1h-1.7l-.1-1h1.4c.4 0 .6-.2.6-.5v-4.8h-3.6v-.8h3.6v-1.2h-3.3v-.8h3.3v-1.2H178v-.8h1.9l-.7-1.4 1-.3.8 1.7h2.2l.9-1.7 1.1.3-.9 1.4h2v.8h-3.7v1.2h3.3v.8h-3.3v1.2h3.9v.8h-3.9v.6c.2.6.6 1.2 1 1.7.7-.4 1.4-1 2.1-1.6l.7.7c-.8.6-1.5 1.1-2.2 1.6 1 1 1.9 1.7 2.6 2.1l-.8.8c-1.4-1-2.6-2.2-3.5-3.6v2.9c0 .3-.1.5-.4.7-.2.4-.5.4-.8.4zm-2.1-3.7c-.2-.4-.6-.9-1.2-1.6l.8-.5c.5.6.9 1.1 1.2 1.6l-.8.5zM191.1 186.7c.2.2.5.6.8 1.2.3.6.4 1.3.4 1.9 0 .4 0 .7-.1 1-.1.3-.2.6-.3.8-.1.2-.3.4-.5.5l-.6.3c-.2 0-.5.1-.9.1h-.4l-.2-.9h.9c.2 0 .4-.1.5-.2.1-.1.2-.3.3-.5s.1-.5.1-.9c0-1-.4-2-1.1-3v-.2c.2-.4.4-1 .6-1.8s.4-1.3.4-1.5h-2v11.7h-1v-12.6h4.1l.2.3c-.1.5-.3 1.3-.6 2.2s-.4 1.4-.6 1.6zm1 8.3-.2-.9c.3 0 .8-.1 1.5-.2v-11.4h6.4v6.2h-2.7c.2.7.6 1.4 1 2.1.8-.5 1.6-1 2.3-1.6l.7.7c-.6.4-1.5.9-2.6 1.6.7 1 1.6 1.9 2.6 2.7l-.8.7c-2-1.6-3.5-3.7-4.3-6.3h-1.5v5.1c1.4-.2 2.5-.4 3.2-.5v.8c-1.5.5-3.3.8-5.6 1zm2.3-9.8h4.2v-1.8h-4.2v1.8zm4.2.8h-4.2v1.9h4.2V186zM205.6 191.4c.6.9 1.5 1.5 2.6 1.9h.1v-6.6h-3.9v-.9h8.8v.9h-3.8v2.6h4.6v.8h-4.6v3.4c.9.2 2.1.2 3.7.2h2.4l-.2.9h-1.2c-1.6 0-2.7 0-3.4-.1-.7 0-1.4-.1-2.1-.3-.7-.1-1.3-.4-1.9-.7-.6-.3-1.1-.7-1.5-1.2-.6 1.1-1.4 1.9-2.5 2.5l-.6-.7c.7-.4 1.2-.9 1.6-1.4.4-.6.7-1.2.8-1.8.2-.6.3-1.5.3-2.6v-.2h1.1c0 1.5-.1 2.6-.3 3.3zm8.6-5.2v-1.6h-10.7v1.7h-1v-2.6h5.9v-1.6h1.1v1.6h5.8v2.5h-1.1zM223.7 194.5l-.3-1c1.5-.1 2.8-.6 3.9-1.3s1.6-1.9 1.6-3.4c0-1.3-.4-2.4-1.3-3.1-.9-.7-2.1-1.1-3.7-1.2-.1 2.6-.5 4.7-1.4 6.4s-1.9 2.6-3.2 2.6c-.8 0-1.4-.3-1.9-1s-.7-1.5-.7-2.5c0-1.6.7-3.1 2.1-4.4 1.4-1.3 3.1-1.9 5-1.9 1.8 0 3.3.5 4.5 1.4 1.2.9 1.8 2.1 1.8 3.7 0 1.8-.6 3.1-1.8 4.1-1.1.9-2.7 1.4-4.6 1.6zm-.8-9.8c-1.4.2-2.6.8-3.6 1.9-1 1-1.5 2.2-1.5 3.5 0 .7.1 1.3.4 1.8.3.5.7.7 1.2.7.9 0 1.7-.8 2.3-2.5.8-1.7 1.2-3.5 1.2-5.4zM231.4 191l-.3-.9c.5-.1 1.4-.4 2.7-.8V186h-1.3c-.2.8-.4 1.5-.6 2.1l-.9-.3c.2-.5.4-1.2.5-2.1s.2-1.8.2-2.7h1.1c0 .7-.1 1.4-.2 2.1h1.1v-2.9h1.1v2.9h1.1v.8h-1.1v3c.6-.2 1.1-.4 1.4-.5l.2.8c-.3.2-.8.4-1.7.7v5.3h-1.1v-4.9c-.8.3-1.6.5-2.2.7zm4.7 2-.7-.5c.8-.8 1.5-1.9 2.1-3.3s1.1-2.7 1.3-4.1h-1c-.4.9-.9 1.7-1.4 2.4l-.8-.5c.9-1.4 1.6-3 2-4.9l1.1.1c-.1.7-.3 1.4-.6 2.1h6v4.6c0 1.1 0 2.1-.1 3-.1.9-.2 1.5-.3 1.8-.1.3-.3.6-.6.8-.2.2-.5.3-.7.4s-.8.1-1.7.1h-.5l-.2-1h1.5c.3 0 .6-.1.9-.4.2-.2.4-.8.5-1.7.1-.9.2-1.9.2-3.1V185h-.7c-.2 2.1-.8 4.1-1.6 5.9-.8 1.8-1.7 3.1-2.7 4l-.7-.6c1-1 1.8-2.4 2.6-4.1.7-1.7 1.2-3.5 1.4-5.2H240c-.2 1.3-.7 2.7-1.4 4.2-.7 1.6-1.6 2.8-2.5 3.8zM247.7 195.1v-7.4c-.5.9-1.1 1.6-1.7 2.2l-.7-.6c.8-1 1.6-2.2 2.3-3.6s1.2-2.6 1.4-3.7l1.1.2c-.3 1-.8 2.3-1.7 4h.4v8.7h-1.1zm2.2-5.1v-.9h4.4v-3.6h-2.4c-.4.9-.7 1.6-1.1 2l-.9-.4c.3-.5.7-1.2 1-2.1.4-.9.6-1.7.7-2.4l1.1.2c-.1.5-.3 1.2-.6 1.9h2v-2.5h1.1v2.5h3.7v.9h-3.7v3.6h4.2v.9h-4.2v5h-1.1v-5h-4.2zM269.1 192.4H268V189.3c-2.2 1.1-3.3 2.1-3.3 3 0 .4.2.8.7 1.1.5.3 1.5.4 3.1.4 1.9 0 3.4-.1 4.5-.3l.1 1c-1.1.1-2.4.2-3.9.2-2.3 0-3.8-.2-4.5-.6-.7-.4-1-1-1-1.7s.3-1.3.9-2c.6-.6 1.7-1.3 3.2-2.1-.2-.4-.5-.6-1-.6-.6 0-1.2.1-1.8.3s-1.5.7-2.4 1.6l-1.2 1-.6-.7c1.7-1.3 3-2.9 3.9-4.7h-3.3v-.9h3.7c.2-.6.4-1.1.5-1.7l1.2.1c-.1.5-.3 1.1-.5 1.6h5.3v.9h-5.7c-.3.5-.7 1.3-1.4 2.2l.1.1c.2-.1.6-.2 1.1-.3.5-.1 1-.2 1.3-.2.9 0 1.5.3 1.9 1l4.2-1.6.5 1c-1 .3-2.5.8-4.4 1.6.1.4.1.8.1 1.3v2.1zM276.8 195.1h-1.5l-.1-1h1.1c.3 0 .5-.1.5-.4v-4.2c-.7.3-1.3.5-1.8.7l-.3-1c.4-.1 1.1-.3 2.1-.7v-2.9h-1.7v-.8h1.7v-2.6h1.1v2.6h1.4v.8H278v2.5c.6-.2 1.1-.4 1.4-.6l.2.8c-.3.2-.8.4-1.6.8v5c0 .3-.1.6-.3.8s-.5.2-.9.2zm8.8-2.6c0 .2-.1.4-.3.5-.2.2-.5.3-.8.3h-1.8c-.8 0-1.3 0-1.5-.1s-.4-.2-.5-.3c-.1-.2-.2-.4-.2-.6v-2.4c-.5.5-.9.9-1.3 1.1l-.5-.6c.4-.3.9-.7 1.5-1.4.6-.6 1-1.3 1.4-1.9h-1v-4.7h6.8v4.7h-4.7c-.2.4-.4.8-.6 1h6v1.8c0 1.3-.1 2.4-.2 3.2s-.4 1.3-.6 1.5c-.3.2-.6.3-.8.3h-2l-.1-.9h1.6c.3 0 .5-.1.6-.2.1-.1.2-.3.3-.5.1-.2.1-.7.2-1.4V189h-5.4v1.3c1.6-.3 2.8-.5 3.6-.8l.4.7c-.8.3-2.1.5-3.9.8v.8c0 .3.1.5.3.5.2.1.5.1.9.1h1.7c.1 0 .2 0 .3-.1.1-.1.1-.2.2-.3 0-.1.1-.4.1-.8l.8.1v1.2zm-4.1-8h4.6v-1.2h-4.6v1.2zm4.7.7h-4.6v1.2h4.6v-1.2zM300.1 192c.2.4.5.8.8 1.1.3.4.6.6.8.6.2 0 .3-.2.4-.6.1-.4.1-.9.1-1.6l.9.1c0 .7-.1 1.4-.1 2-.1.6-.2 1-.4 1.2-.2.2-.4.2-.7.2-.2 0-.4 0-.6-.1-.2-.1-.5-.3-.8-.7s-.7-.8-1-1.2c-.7.9-1.3 1.6-2 2.1l-.6-.6c.7-.6 1.4-1.5 2-2.4-.7-1.5-1.2-3.4-1.3-6h-7.9v-.8h3.3V184h-2.7v-.8h2.7v-1h1.1v1h2.6v.8h-2.6v1.2h3.4v-3.1h1.2v3.2h3.9v.8h-3.8c.1 2 .4 3.7.9 4.8.7-1.3 1.2-2.5 1.5-3.6l1.1.3c-.5 1.4-1.2 2.9-2.2 4.4zm-10.3 1.7v-.7h3.3v-.9h-2.7v-3.5h2.7v-.8h-3v-.7h3v-.6h1v.6h3v.7h-3v.8h2.7v3.5h-2.7v.9h3.1v.7h-3.1v1.3h-1v-1.3h-3.3zm1.6-3.6h1.7v-.8h-1.7v.8zm1.7.6h-1.7v.8h1.7v-.8zm1-.6h1.7v-.8h-1.7v.8zm1.7.6h-1.7v.8h1.7v-.8zm5-6c-.2-.5-.6-1.1-1.1-1.9l.9-.4c.3.5.7 1.1 1.1 1.9l-.9.4zM315.7 190.5h-4.4v4.5h-1.1v-4.5H306v.7h-1.1v-6.8h5.4v-2.2h1.1v2.2h5.5v6.8h-1.1v-.7zm-9.7-.8h4.3v-4.4H306v4.4zm5.3 0h4.4v-4.4h-4.4v4.4zM326.2 183.5l-.2 7.8h-1.1l-.2-7.8h1.5zm0 10.7h-1.5v-1.5h1.5v1.5zM469 245.3v20.9h-20.9z"/></svg>