<svg version="1.1" id="レイヤー_1" xmlns="http://www.w3.org/2000/svg" x="0" y="0" viewBox="0 0 263 86" style="enable-background:new 0 0 263 86" xml:space="preserve"><style>.st1{fill:#fff}</style><path style="fill:#ff921e;stroke:#fff;stroke-width:.5;stroke-miterlimit:10" d="M0 0h263v86H0z"/><path class="st1" d="M46 26.7c-.1.2-.4.8-.4 1.1 0 .3.3 1.4.3 1.7 0 .6-.4 1.1-.9 1.1-.8 0-.8-.7-.8-1.9s-.1-1.8-1.1-2.4l.1-.1c.5 0 1.5.1 1.9-.2 0 0 1.5-1.2 4-5l.2.2c-.5.9-.9 1.5-3.3 5.5zm5.6 12.1c-.2 0-.3 0-.7-.1-2.1 1.2-4.3 1.9-7.4 2.2v-.2c2.6-.9 4.8-2.1 5.9-2.9.5-.4.7-.7 1-1.1l1.6 1.4c.2.2.2.2.2.3.1.3-.1.4-.6.4zm-5.3-16.1c-.6 0-.7-.3-1.2-1.6-.3-.7-.8-1.4-1.5-1.9l.1-.1c2.7.6 3.5 1.9 3.5 2.7-.1.6-.5.9-.9.9zm13.2 7.4c0 .8.1 2.6.1 3.5 0 .4.1 2.4.1 2.9 0 .4-.5.7-.9.7s-.4-.2-.5-.4H49c0 .2 0 .4-.1.5-.1.2-.6.4-.9.4-.4 0-.4-.4-.4-.6v-.3c.1-1.5.1-3.1.1-4.2 0-3.5-.1-3.8-.1-4.4l1.5.8h9l.3-.4c.1-.1.2-.2.3-.2.1 0 .2 0 .4.1l1 .6c.2.1.3.2.3.3 0 .2-.2.4-.9.7zm3.5-.8c-3.4-1.1-5.8-3.4-7.2-6.8-1.4 3.1-4.1 5.3-7 5.8l-.1-.2c2.1-1.1 4.8-3.2 6-6.4h-3c-.8 1.1-2.1 2.7-4 4l-.1-.2c2.2-2.4 4-5.8 4.3-7.8l1.8 1c.1.1.2.2.2.3 0 .4-.4.4-.8.4-.2.4-.3.6-1 1.5H60l.6-.7s.1-.1.3-.1c.2 0 .3.1.5.2l1.5 1.1c.1 0 .2.1.2.4 0 .5-.4.5-1.5.6-.3.1-2.3 1.3-2.4 1.3l-.1-.1c.6-1 .8-1.5 1-2H56c-.1.1-.1.1-.1.2 1.5 4.2 6.7 5.2 9.1 5.4v.1c-.9.6-1.3.8-2 2zm-4.7.2H49v1.8h9.4v-1.8zm0 2.5H49v1.8h9.4V32zm0 2.3H49v1.8h9.4v-1.8zm3.1 6.8c-.4 0-.6-.2-1.3-.8-1.9-1.8-2.2-2.1-3.6-2.7l.1-.1c3.2.2 5.7 1.9 5.7 3-.1.3-.4.6-.9.6zM77.9 27.2h-4.1v1.4c1.4.4 2 .6 2.7 1.3.6.5.7.9.7 1.2 0 .6-.4.8-.7.8-.4 0-.8-.3-1.1-1.1-.5-1-.9-1.4-1.6-1.9 0 4.1 0 6.1.2 8.6 0 .3.1 1.8.1 2.1 0 .7-.6 1.2-1.1 1.2-.6 0-.6-.4-.6-.8 0-.1.1-2 .1-2.3.2-4.9.2-5.3.2-8.2-1.5 2.6-3.5 5-5.9 6.9l-.2-.2c2.7-2.6 5.6-8.5 5.8-9.1h-1.2c-.9 0-2.2.1-3.2.3l-.6-1.1c1.9.2 3.7.2 4.1.2h1.1c0-.8 0-4.3-.1-5.1 0-1.9 0-2.4-.4-3.5l2.1.6c.1 0 .4.1.4.4 0 .2-.4.5-.7.7-.1 1.1-.1 3.2-.1 4.8v2.1h1.7l.8-.8c.2-.2.3-.3.4-.3.1 0 .4.1.4.3l.8.8c.1.1.2.2.2.4.2.2 0 .3-.2.3zm-7.5-2.5c-.6 0-.7-.4-1-1.4-.2-.9-.6-1.7-1.2-2.3l.1-.1c2 1.2 2.9 1.9 2.9 2.9.1.1 0 .9-.8.9zm7.3-3c-.2.2-2.8 3.5-2.8 3.5l-.2-.1c.7-1 1.4-3.2 1.7-4.1.1-.5.1-.8.1-1.1l1.8.9c.3.1.3.2.3.3 0 .4-.7.5-.9.6zm12.6 9.5-4.6.9c0 .9.1 4.9.1 5.7 0 .3.1 1.5.1 1.7 0 .7-.1.8-.3 1-.3.3-.6.4-.9.4-.5 0-.5-.5-.5-.8 0-.6.1-3.2.1-3.8v-3.9l-5.4 1.1c-1.1.2-2.4.6-3.1.9l-.8-.9c1.8-.2 3.5-.5 4.1-.6l5.2-1c0-1.5-.1-3.9-.1-5.4 0-5.9 0-6.4-.4-8.2l2.3.6c.2 0 .3.1.3.3 0 .3-.1.4-.8.8-.1.8-.1 1.6-.1 4.3 0 .3 0 3.8.1 7.3l2.2-.4.6-1.1c.2-.4.3-.4.3-.4.1 0 .4.1.4.2l1.1.7c.2.2.3.2.3.4.1.1-.1.1-.2.2zm-8.9-1.4c-.6 0-.7-.4-.8-.8-.4-1.3-1.1-2.2-1.4-2.6l.1-.1c.8.2 2.9 1.2 2.9 2.5 0 .8-.4 1-.8 1zm.2-5.9c-.6 0-.7-.5-.8-.8-.4-1.3-1-2.2-1.4-2.6h.1c.8.2 2.9 1.2 2.9 2.5 0 .7-.5.9-.8.9zM100.8 23.5h-4.5c-.8 0-2.2.1-3.2.3l-.6-1.1c1.4.1 2.7.2 4.1.2h2.2l.5-.6c.1-.2.2-.3.4-.3.1 0 .4.2.5.3l.7.6c.1.1.2.2.2.4.1.1-.1.2-.3.2zm-.9 6.4h-2.7c-.8 0-2.2.1-3.2.3l-.6-1.1c1.4.1 2.8.2 4.1.2h.5l.6-.6c.1-.2.2-.3.4-.3s.3.1.4.2l.6.6c.2.2.2.2.2.4.1.3-.1.3-.3.3zm-.1 3.4c0 .8.2 4.9.2 5.1 0 .8-1 .9-1 .9-.5 0-.4-.5-.4-1.1H95c.1 1 .1 1 .1 1.2 0 .9-.5 1.3-1 1.3-.3 0-.5-.2-.5-.5s.1-1.9.1-2.2c.1-2.5.1-2.8.1-3.4 0-1.8-.1-2.6-.2-3.2l1.6.7h3.2l.5-.5c.1-.1.2-.2.4-.2.1 0 .2.1.3.2l.8.6c.2.2.2.3.2.4 0 .3-.2.4-.8.7zm0-6.5h-2.4c-.8 0-2.2.1-3.2.3l-.6-1.1c1.7.1 3.2.2 4.5.2l.4-.6c.2-.2.2-.3.4-.3s.3.2.4.3l.6.6c.1.1.2.2.2.4.1.1-.1.2-.3.2zm.3-6.6h-2.6c-.8 0-2.2.1-3.2.3l-.6-1.1c1.4.1 2.8.2 4.2.2h.3l.6-.6c.2-.2.3-.3.4-.3.1 0 .2.1.4.3l.6.5c.1.1.2.2.2.4.1.2-.1.3-.3.3zm-1.5 12.6H95v4.8h3.6v-4.8zm16-6h-9.8c-.8 0-2.2.1-3.2.3L101 26c1.4.1 2.8.2 4.1.2h1.6V24h-.9c-.8 0-2.2.1-3.2.3l-.6-1.1c1.4.1 2.8.2 4.1.2h.5v-2h-1.3c-.8 0-2.2.1-3.2.3l-.6-1.1c1.4.1 2.7.2 4.1.2h1c0-1.4-.2-2-.4-2.8l2.1.5c.2 0 .5.1.5.4 0 .3-.2.4-.8.7v1.1h3.5l.8-.8c.2-.2.3-.3.4-.3s.2.1.4.3l.9.8c.1.1.2.2.2.4s-.2.3-.4.3H108v2h2.6l.5-.5c.2-.2.2-.3.4-.3.1 0 .3.1.5.2l.8.6c.1.1.2.2.2.4s-.2.2-.4.2H108v2.2h4.3l.7-.9c.1-.1.3-.3.4-.3.2 0 .3.1.4.3l.8.8c.1.1.2.2.2.4.2.2 0 .3-.2.3zm-2 3.3c0 2.1 0 4.2.1 6.3 0 .3.1 1.9.1 2.2 0 .6 0 1.8-2.6 2.5-.2-.5-.4-1.1-1.8-2v-.2c.4 0 2.3.1 2.6 0 .2-.1.3-.3.3-.9v-2.4h-7.1v1.6c0 .4.1 2.2.1 2.6 0 .6-.1.8-.4 1-.3.2-.6.2-.7.2-.3 0-.4-.2-.4-.5 0-.7.1-1.8.1-2.4 0-.7.1-3.2.1-5.5 0-.2 0-3.1-.1-4.1l1.5.7h6.5l.7-.5c.1-.1.3-.2.4-.2.1 0 .2.1.4.1l.8.5c.1.1.3.2.3.3-.1.3-.6.5-.9.7zm-1.3-.4h-7.1V32h7.1v-2.3zm0 2.8h-7.1v2.4h7.1v-2.4zM138.5 37.6c-.1.1-.6.5-.9 1-4.3-2.7-7.2-7.1-8.6-12.1 0 2.9 0 6 .1 8.6 0 .5.1 2.5.1 3 0 1.5-.4 2-2.8 2.8-.5-1-1.2-1.8-2.4-2.2l.1-.3c.4.1 1.2.2 2.3.2.9 0 1.1 0 1.3-.4.1-.2.1-2.7.1-3.1 0-2.4 0-2.9-.2-11.1h-6.2c-.9 0-2.3.1-3.2.3l-.6-1.1c1.9.1 3.7.2 4.1.2h5.8c0-.4 0-2.5-.1-2.9-.1-1-.3-2-.4-2.4l2.4.8c.2.1.4.1.4.4 0 .3-.3.5-.8.7v3.5h7l.9-1.1c.1-.2.2-.3.4-.3.1 0 .3.2.4.3l1.3 1.1c.1.1.2.2.2.4s-.2.2-.4.2H129c0 .6.5 3.2 2.3 6.1 2.4-2.4 2.6-2.6 3.1-3.4.3-.5.4-.7.4-1l1.8 1.4c.2.2.4.4.4.6 0 .2-.2.3-.4.3s-.3 0-.8-.1c-.4.2-.5.3-.9.6-.5.3-2.9 1.7-3.3 1.9 2.8 4.2 5.9 5.7 8.6 6.3v.2c-.9.1-1.2.2-1.7.6zm-18.2-.9c0 .8-.1 1.2-.4 1.2-.2 0-.3-.2-.5-.3l-1.6-1.8c.7-.1 1.5-.4 3.6-1.6.9-.5 4.4-3 5.2-3.5l.2.1c-1.4 1.4-5.6 5.3-6.5 5.9zm3.2-6.5c-.7 0-1-.7-1.1-1-.4-1-1.4-2.3-2.2-2.9l.1-.2c1.9.6 4 1.4 4 3.2 0 .4-.3.9-.8.9zm10.2-7.6c-.6 0-.9-.6-1.4-1.3 0 0-.7-.9-1-1.3-.1-.2-.2-.2-.5-.4l.1-.2c1.4.3 2.2.5 2.8.9.4.3.9.8.9 1.4-.1.3-.4.9-.9.9zM64.1 72.5c-1 .6-2.7.6-4.8.6-4.3 0-5.1 0-5.1-2.1 0-1.3-.1-4.5 0-6.1h-3.6l1.5.7c.1 0 .3.1.3.4 0 .4-.3.4-1 .5-1.5 3.9-3.8 6.5-9.1 7.5l-.1-.2c3.7-1.4 5.7-3.4 6.7-5.2.9-1.5 1-2.7 1.1-3.7h-2c.1.7-.1 1.4-1 1.4-.3 0-.6-.1-.6-.4 0-.1.1-.6.1-.8.2-2.7.2-5.1.2-7 0-1.8 0-4.6-.1-5.7 0-.3-.1-.6-.2-1.1l2 1.1h9.4l.5-.6c.1-.1.3-.3.5-.3.1 0 .3.1.4.2l1 .8c.2.2.3.3.3.4 0 .2-.3.5-.8.8-.1 1-.1 2-.1 2.8 0 2.6.1 7 .2 8.3v.6c0 .5-.6.8-1 .8-.5 0-.5-.2-.5-1.2h-2.9v3c0 .5 0 2.9.1 3.3.1.6.8.6 1.4.6h3.9c.8 0 1.3-.3 1.8-1.8.2-.5.6-2.6.7-3h.1c.3 3.3.3 3.6.7 4 .1 0 .4.3.4.3.1.1.1.2.1.2.3.2 0 .6-.5.9zM58.4 53H48v3.3h10.3V53zm0 3.9H48v3.3h10.3v-3.3zm0 3.9H48v3.4h10.3v-3.4zM89.6 66.8H79.1v4.3c0 1.5-.5 2.5-2.7 3-.2-1.2-1.7-1.9-2.1-2.1v-.2c.9.1 1.5.1 1.8.1 1.3 0 1.7 0 1.7-1.1v-4h-6.9c-.9 0-2.3.1-3.2.3l-.6-1.1c1.9.2 3.7.2 4.2.2h6.5c0-.7 0-1.7-.3-2.6l1.6.4c.4-.4 2.3-2.3 2.6-2.7h-6.4c-.9 0-2.2.1-3.2.3l-.6-1.1c1.9.1 3.7.2 4.1.2H82l.6-.6c.1-.2.3-.2.4-.2.2 0 .3.1.4.2l1.3 1.2c.1.1.2.2.2.3 0 .4-.3.4-.6.4h-1.1c-.4.2-1.9 1.1-2.2 1.3-.5.3-1.3.8-1.5.9 0 .1.1.1.1.2 0 .2-.3.4-.5.5v1.4h7.4l1-1.1c.2-.3.3-.3.4-.3.1 0 .4.2.4.3l1.3 1.1c.1.1.2.2.2.4.2 0 0 .1-.2.1zm-.3-8.4s-1.3.1-1.4.1c-1.2 1.2-1.3 1.3-2 1.8l-.2-.1c.5-1 .8-1.7 1-2.7H70.3c0 1.9-.6 4.3-2.1 4.3-.4 0-.8-.2-.8-.8 0-.5.5-1.1 1.3-2 .4-.4 1.2-1.5 1.2-3.1h.1c.1.3.2.5.2.9h11c.8-1.4 1.5-2.8 2-4.4.2-.5.2-.8.1-1.2l2.2 1c.2.1.3.1.3.3 0 .3-.5.4-1.2.6-1 1.7-2.4 3.3-2.9 3.6h4.7l.6-.6c.1-.1.3-.2.4-.2.1 0 .1 0 .4.2l1.5 1.2c.1.1.2.2.2.4.1.4.1.6-.2.7zm-15.8-2.7c-.6 0-.8-.5-1.1-1.3-.3-1-.8-1.9-1.6-2.5l.1-.2c2 .5 3.5 2.1 3.5 3.2 0 .6-.6.8-.9.8zm5.2-.3c-.6 0-.6-.1-1.3-1.6-.3-.7-.7-1.5-1.5-2.3l.1-.2c2.2.8 3.5 2.1 3.5 3.2 0 .4-.2.9-.8.9zM113.6 62.1c-.3 0-.4 0-1.7.1-.8.6-3.9 2.6-5 3.2l-.1-.2c.8-.8 3.1-3.3 3.5-3.9h-6.1v9.5c0 1.6-1 3-2.9 3.1 0-.4 0-.7-.4-1-.1-.1-1-.9-2.7-1.5l.1-.2c1.2.2 3 .3 3.5.3.7 0 1.1 0 1.1-1v-9.2h-7c-.9 0-2.2.1-3.2.3l-.7-1c1.9.1 3.7.2 4.1.2h14.2l1.1-.9c.3-.2.4-.3.6-.3.2 0 .4.2.5.3l1.5 1.4c.1.1.2.3.2.4 0 .3-.4.4-.6.4zm-4.4-7.6c-1.7 1.3-2.2 1.6-4.9 3 .5.4.8.9.8 1.5 0 .4-.2 1.1-.9 1.1-.5 0-.6-.2-1.2-1.1-.9-1.5-2.2-2.6-3.6-3.4l.1-.2c1.6.3 3.1.8 4.5 1.8 2.1-1.7 2.8-2.5 3.6-3.4h-9.4c-.9 0-2.3.1-3.2.3l-.6-1.1c1.9.1 3.7.2 4.1.2h9.1l1.1-.8c.3-.2.3-.2.5-.2s.2 0 .6.3l1.4 1c.1.1.2.2.2.4.1.6-.3.6-2.2.6zM126.9 64.2c-.6 0-.8-.6-.9-1-.1-.4-.2-.6-.3-.8-.7.2-1.4.3-2.6.5v7.9c0 .3.1 1.7.1 2 0 .6-.8 1-1 1-.4 0-.5-.4-.5-.7 0-.2.1-1.3.1-1.5.1-2.8.1-7.3.1-8.4-2.5.5-2.8.6-3.4.7 0 .1-.2.7-.5.7-.1 0-.3 0-.4-.3l-.5-1.9c.7.2 1 .2 1.7.2.6 0 1.4 0 2.3-.1.6-.9 3.8-5.3 3.8-7.5l2.1 1c.1.1.2.2.2.4s-.1.4-1 .5c-1.4 2.1-3.5 4.5-4.5 5.6 1.3-.1 2.6-.1 3.9-.3-.3-.6-.7-1.1-1-1.5l.1-.1c1 .6 3.1 1.7 3.1 2.9-.1.2-.4.7-.9.7zm-6.6 2.5c-.9 2.5-1.6 3.9-3.1 5.6l-.1-.1c1-2 2-5.7 1.9-7l1.9.7c.2 0 .3.1.3.2-.1.3-.2.4-.9.6zm3.1-13.7c-.7.9-.9 1.2-2.9 3.8.9.5 1.3 1.3 1.3 1.8 0 .4-.2 1.1-.8 1.1-.5 0-.6-.3-1.1-1.5-.5-1.2-1.1-1.8-1.6-2.2v-.1c1.1.3 1.5.5 1.9.7.6-1.2 1.8-3.5 1.8-5 0-.2 0-.4-.1-.6l2.2 1.1c.1 0 .2.1.2.3 0 .3-.1.4-.9.6zm3 16.8c-.5 0-.6-.3-.9-1.4-.4-1.4-.6-1.7-1.4-2.8v-.1c2.3 1.1 3.2 2.4 3.2 3.2.1.6-.3 1.1-.9 1.1zm12.3-11.5c-.4.2-.5.3-.7.4.1 3.5 0 9.4-1.4 12.5-.8 1.7-2 2.4-3.8 2.6-.1-.5-.3-1.2-2.4-2.5v-.1c.5.1 2.8.5 3.2.5.7 0 1.2-.2 1.7-1.3 1.3-2.9 1.3-8.3 1.3-10.1v-2.4h-7.3c-.4.7-1.3 2.6-2.2 3.6l-.2-.1c1.3-2.6 2.8-7.3 2.8-9.3 0-.5-.1-.6-.1-.8l2.4 1c.1 0 .2.2.2.2 0 .2-.1.3-.1.4-.1 0-.7.4-.9.5-.4 1.2-.8 2.2-1.7 3.9h6.7l.6-.6c.2-.2.2-.3.3-.3.1 0 .1.1.3.2l1.2 1.1c.1.1.1.2.1.3.3.1.2.2 0 .3zm-6.9 8c-.7 0-.8-.5-1.2-1.7-.4-1.4-1-2-1.3-2.3l.1-.1c1.9.9 3.2 1.6 3.2 3 0 .1 0 1.1-.8 1.1z"/><path style="fill:none;stroke:#fff;stroke-width:2;stroke-miterlimit:10" d="M168.6 24.8 183.8 45l-15.2 20.2"/></svg>