<?xml version="1.0" encoding="utf-8"?>
<!-- Generator: Adobe Illustrator 27.0.0, SVG Export Plug-In . SVG Version: 6.00 Build 0)  -->
<svg version="1.1" id="レイヤー_1" xmlns="http://www.w3.org/2000/svg" xmlns:xlink="http://www.w3.org/1999/xlink" x="0px"
	 y="0px" viewBox="0 0 426 304" style="enable-background:new 0 0 426 304;" xml:space="preserve">
<style type="text/css">
	.st0{fill:#231815;}
</style>
<g>
	<path d="M2.5,241.3v0.3c0,0.3,0,0.7-0.4,0.7c-0.2,0-0.3-0.2-0.4-0.4l-1.1-2.3c0.2,0,0.3,0.1,0.5,0.1c0.6,0,1-0.1,3.6-1v-6.7
		c-0.4,0-1.9,0.1-3,0.3L1,231.1c1,0.1,2.6,0.2,3.6,0.2v-6.4c-0.9,0-2.4,0.1-3.4,0.3L0.6,224c1.4,0.1,3,0.2,4.3,0.2h2.4l0.7-0.8
		c0.2-0.3,0.3-0.3,0.4-0.3c0.2,0,0.4,0.2,0.5,0.3l0.9,0.8c0.2,0.2,0.3,0.2,0.3,0.4c0,0.3-0.3,0.3-0.4,0.3H6.1v6.5h1.1l1-1
		c0.2-0.2,0.3-0.3,0.4-0.3c0.2,0,0.3,0.1,0.4,0.3l1,1c0.2,0.2,0.2,0.3,0.2,0.4c0,0.3-0.3,0.3-0.4,0.3H6.1v6.2
		c0.5-0.2,2.8-1.1,3.3-1.2c0.5-0.2,0.6-0.3,0.9-0.4l0.1,0.2C8.9,237.8,5.1,240,2.5,241.3z M24.3,244.2H9.8c-0.9,0-2.3,0.1-3.3,0.3
		l-0.6-1.1c1.9,0.2,3.8,0.2,4.3,0.2h5.4v-4.8h-1.5c-0.9,0-2.4,0.1-3.4,0.3l-0.6-1.1c1.9,0.2,3.8,0.2,4.3,0.2h1.2v-4.3h-3.3
		c0,0.4,0,0.7-0.1,0.9c-0.1,0.2-0.4,0.6-1,0.6s-0.5-0.4-0.5-0.6c0-0.1,0-0.1,0-0.4c0.2-2.6,0.2-7.9,0.2-8.2c0-1.7-0.1-2.7-0.3-3.6
		l2.1,0.9h7.3l0.7-0.7c0.2-0.2,0.3-0.3,0.4-0.3s0.3,0.2,0.4,0.3l1.1,0.8c0.1,0.1,0.3,0.3,0.3,0.4c0,0.3-0.6,0.6-0.8,0.7
		c0,0.3,0,6.2,0,7.1c0,0.3,0.1,1.8,0.1,2.1c0,0.6-0.6,1.1-1.1,1.1c-0.6,0-0.6-0.3-0.5-1.2h-3.6v4.3h2.9l1-1c0.1-0.1,0.3-0.3,0.4-0.3
		s0.3,0.2,0.5,0.3l1.2,1c0.1,0.1,0.3,0.2,0.3,0.4c0,0.2-0.2,0.3-0.4,0.3h-5.8v4.8h4.4l0.9-1c0.3-0.3,0.3-0.3,0.4-0.3s0.2,0,0.5,0.3
		l1.2,1c0.1,0.1,0.3,0.2,0.3,0.4C24.7,244.2,24.4,244.2,24.3,244.2z M15.6,224.1h-3.4v4.2h3.4V224.1z M15.6,229h-3.4v4.3h3.4V229z
		 M20.6,224.1h-3.6v4.2h3.6V224.1z M20.6,229h-3.6v4.3h3.6V229z"/>
	<path d="M36.3,226.2h-3.8c0,0.7,0,1.2,0,2.5c1.3,0.1,3.7,1,3.7,2.5c0,0.5-0.2,0.8-0.6,0.8c-0.5,0-0.7-0.2-1.5-1.5
		c-0.4-0.6-0.9-1.2-1.6-1.5c0,0.8,0.1,4.6,0.1,4.9v2.1c0,1.1-1,1.1-1.1,1.1c-0.3,0-0.4-0.1-0.4-0.4c0-0.4,0.1-2.1,0.1-2.4
		c0.1-1.8,0.1-5,0.1-5.9c-1.7,3.5-4.4,5.6-6.2,6.7l-0.1-0.2c1.8-1.5,5.3-6.6,5.9-8.6H30c-0.8,0-2.3,0.1-3.3,0.3l-0.6-1.1
		c1.4,0.1,2.9,0.2,4.3,0.2h1c-0.1-2.5-0.1-2.9-0.4-3.8l2.1,0.5c0.3,0.1,0.4,0.3,0.4,0.4c0,0.3-0.2,0.4-0.8,0.7c0,0.6,0,1.6,0,2.2H34
		l0.6-0.9c0.1-0.2,0.3-0.3,0.4-0.3c0.1,0,0.3,0.1,0.5,0.3l1,0.9c0.1,0.1,0.3,0.2,0.3,0.4C36.7,226.2,36.5,226.2,36.3,226.2z
		 M26.9,244.7c-0.4,0-0.8-0.2-0.8-0.8s0.3-0.8,0.8-1.2c0.4-0.3,1.5-1.3,1.9-3.3h0.2c0,0.3,0.1,0.6,0.1,1.1
		C29,243.5,27.8,244.7,26.9,244.7z M43,244.4c-1.1,0.6-3.7,0.7-5.1,0.7c-0.9,0-4.2,0-4.9-0.4c-0.8-0.4-0.8-1.3-0.8-2.3
		c0-2.5,0-3.3-0.2-4.3l2,0.6c0.2,0.1,0.3,0.2,0.3,0.3c0,0.3-0.5,0.7-0.9,1c-0.1,0.8-0.1,3,0.1,3.4c0.2,0.3,0.5,0.4,0.9,0.4
		c0.6,0,3.3,0.1,3.7,0.1c2.1,0,3-0.3,3.5-1c0.5-0.8,0.8-1.7,1.1-2.6H43c0.1,2.2,0.2,2.4,0.9,2.7c0.1,0.1,0.2,0.1,0.2,0.3
		C44,243.3,43.9,243.9,43,244.4z M38.4,240.9c-0.5,0-0.6-0.3-1-1.1c-0.2-0.4-0.9-1.6-1.7-2.1l0.1-0.2c0.4,0.1,1.5,0.4,2.2,0.9
		c0.9,0.6,1.1,1.3,1.1,1.6C39.1,240.5,38.8,240.9,38.4,240.9z M46.6,224.9c0,2.5,0,6.5,0.1,8.8c0,0.3,0.2,2.1,0.2,2.3
		c0,0.6-0.7,1-1,1c-0.5,0-0.6-0.6-0.5-1h-6.2c0,0.4-0.6,0.8-1,0.8c-0.4,0-0.5-0.4-0.5-0.6c0-0.2,0.1-1,0.1-1.2c0-0.5,0.1-5.4,0.1-9
		c0-1.2,0-1.3-0.2-3.2l1.7,0.8H45l0.6-0.6c0.1-0.1,0.3-0.3,0.4-0.3c0.2,0,0.4,0.2,0.5,0.2l0.8,0.5c0.2,0.1,0.3,0.2,0.3,0.4
		C47.6,224.3,47.2,224.6,46.6,224.9z M45.4,224.3h-6.3v3.2h6.3V224.3z M45.4,228.1h-6.3v3.1h6.3V228.1z M45.4,231.9h-6.3v3.5h6.3
		V231.9z M48.2,243.4c-0.6,0-0.7-0.4-1.1-1.3c-0.6-1.7-1.6-2.8-2-3.3l0.1-0.1c2.5,0.9,3.8,2.8,3.8,3.8
		C49,243.1,48.7,243.4,48.2,243.4z"/>
	<path d="M62.7,242.7c7.8-2.7,8.1-8.3,8.1-9.6c0-4.5-4.3-7-8.1-7c-0.5,0-0.7,0.1-1,0.1c1.3,1.1,1.3,1.8,1.3,2c0,0.3-0.1,0.4-0.6,1.6
		c-3.2,6.6-3.5,7.3-4.9,9.5c-0.1,0.2-1,1.4-1.5,1.6c-0.2,0.1-0.3,0.1-0.5,0.1c-0.6,0-0.8-0.3-1.5-1.3c-0.2-0.3-0.3-0.4-0.7-0.7
		c-1-0.8-1.4-1.7-1.4-3.5c0-5.2,4.4-10.1,11-10.1c4.8,0,9.5,2.7,9.5,8.1c0,4.8-3.8,9-9.7,9.6L62.7,242.7z M59.8,232.6
		c0.8-1.5,1.5-3.5,1.5-4.5c0-0.9-0.5-1.4-0.7-1.7c-2.9,0.2-7.3,4.1-7.3,9.2c0,2,1.2,3.7,2.3,3.7c0.2,0,0.3,0,0.5-0.2
		c0.6-0.6,1-1.4,1.5-2.3L59.8,232.6z"/>
	<path d="M90.9,240.6c0,0.1,0,1-0.8,1c-0.4,0-0.4,0-1.5-1.6c-1.2-1.8-2.9-3.4-4.2-4.4c-1-0.8-1.7-1.2-2.4-1.6c1,0.1,2.4,0.3,5.6,2.6
		c1.4-1.1,4.7-4.8,6.7-7.9c-1.2,0-3.8,0.1-4.9,0.2c-7.2,0.9-9.1,1.1-10.1,1.9c-0.4,0.3-0.4,0.3-0.6,0.3c-0.6,0-2.3-1.2-2.3-3
		c0-0.3,0.1-0.4,0.1-0.7c0.6,1.3,1.4,1.6,2.4,1.6c0.7,0,13.8-1,14.2-1c0.9-0.1,1.1-0.3,1.7-0.6c0.4-0.3,0.5-0.3,0.6-0.3
		c0.3,0,1.1,1,1.5,1.4c0.3,0.4,0.4,0.5,0.4,0.8c0,0.3-0.1,0.3-1,0.5c-0.5,0.1-0.6,0.2-1.7,1.3c-3.7,3.6-5,4.9-6.7,6
		C89.1,237.6,90.9,239,90.9,240.6z"/>
	<path d="M102.5,237.2c6.2-4.4,11.1-9.1,13.2-12c0.4-0.5,0.4-0.8,0.4-1c0-0.2,0-0.5-0.4-0.7c-0.2-0.1-0.8-0.5-1-0.6
		c0.3-0.1,0.6-0.2,0.9-0.2c1.1,0,2,0.7,2.5,1.3c0.3,0.3,0.5,0.5,0.5,0.9c0,0.3-0.2,0.3-0.5,0.5c-0.4,0.2-0.5,0.2-1.2,1
		c-2.8,2.8-3.1,3.1-4.1,4.1c0.5,0.2,1.3,0.6,1.3,1c0,0.1-0.3,0.7-0.3,0.8c-0.1,0.3-0.1,0.8-0.1,1.5v8.9c0,1.1,0,1.5-0.5,1.5
		c-0.9,0-1.3-1.5-1.3-1.8c0-0.2,0.3-1,0.3-1.1c0.2-0.9,0.4-3.7,0.4-4.8c0-0.6-0.2-4.5-0.2-4.8c-0.1-0.3-0.1-0.3-0.3-0.5
		c-2.9,2.5-5.9,4.7-9.4,6.2L102.5,237.2z"/>
	<path d="M128,240.1c-0.5,0-0.8-0.4-0.8-0.9c0-0.7,0.4-1,1.1-1.4c2-1.2,2.9-2.7,3.9-4.3C131.8,237.8,129.1,240.1,128,240.1z
		 M132.8,239.7c1.4,0.4,3.1,0.9,3.3,0.9c0.2,0,0.3-0.2,0.3-0.2c0.1-0.3,0.1-1.9,0.1-2.4c0-0.9,0-5,0-5.8c0-0.4,0-1,0-1.6
		c-4.8,0.6-5.3,0.7-6.2,1.1c-0.5,0.2-0.5,0.3-0.7,0.3c-0.4,0-1.9-1.1-1.9-2.6c0-0.1,0-0.3,0.1-0.7c0.9,1.2,1.4,1.6,2.4,1.6
		c0.5,0,5.4-0.3,6.3-0.4c0-1,0-4.3-0.4-4.9c-0.2-0.3-0.8-0.7-2.1-0.8c0.6-0.4,1.1-0.6,1.6-0.6c0.8,0,2.2,0.8,2.5,1
		c0.1,0.1,0.3,0.2,0.3,0.5c0,0.2-0.4,0.9-0.4,1.1c-0.3,0.8-0.3,1.8-0.4,3.8c4.9-0.3,5.4-0.4,5.7-0.4c0.2,0,0.8-0.3,1-0.3
		c0.2,0,2.4,0.3,2.4,1.3c0,0.3-0.1,0.5-0.5,0.5c-0.4,0-1.5-0.2-2.2-0.3c-1.5-0.3-3.6-0.3-4.1-0.3c-1.4,0-1.9,0.1-2.4,0.1v5.5
		c0,0.7,0.1,3.7,0.1,4.3c0,1.1,0,2-0.5,2.9c-0.3,0.5-0.5,0.5-0.6,0.5c-0.5,0-0.6-0.4-0.7-0.8c-0.1-0.2-0.3-0.8-0.6-1.1
		c-0.3-0.2-1.3-1.1-2.6-1.9V239.7z M144.7,235.9c0.5,0.4,1.8,1.6,1.8,2.8c0,0.2-0.1,1-0.8,1c-0.4,0-0.4-0.1-1.2-1.3
		c-1.2-1.9-2.7-3.6-4.4-5C141.9,233.8,143.4,234.8,144.7,235.9z"/>
	<path d="M153.8,232.9c0.4,0.1,0.6,0.1,2.9,0.1c0.5,0,9.1-0.1,10.9-0.3c0.5-0.1,0.5-0.1,0.8-0.2c0.2-0.1,0.3-0.1,0.5-0.1
		c0.1,0,2.4,0.3,2.4,1c0,0.6-0.7,0.6-1.4,0.6c-0.4,0-2.8-0.2-3.4-0.2c-1.6,0-8.9,0.1-10.2,0.3c-0.3,0-1.1,0.1-1.8,0.4
		c-0.5,0.2-0.6,0.2-0.8,0.2s-0.3,0-1-0.8c-0.2-0.2-0.8-0.9-0.8-1.9c0-0.4,0-0.7,0.2-1C152.6,232.1,153.2,232.7,153.8,232.9z"/>
	<path d="M187.1,238.3c0.8-0.1,4.4-0.7,5.2-0.8c-0.6-1.3-1.2-2.2-3.5-5.1c0.8,0.4,2,0.9,3.9,3.3c1.5,1.8,2.6,3.7,2.6,5.3
		c0,0.8-0.5,1.3-0.9,1.3c-0.5,0-0.6-0.4-0.9-1.5c-0.3-1.2-0.8-2.2-1-2.6c-1,0.2-3.2,0.8-5.1,1.2c-2.4,0.5-4.4,0.9-6.6,1.5
		c0,0-0.7,0.2-0.7,0.2c-0.1,0.1-0.4,0.4-0.4,0.4c-0.1,0.1-0.3,0.2-0.4,0.2c-0.4,0-2.2-1.8-2.1-3.5c0.8,1,1.1,1.2,3.2,1
		c3.5-7.2,3.9-8,4.5-9.6c0.2-0.4,0.9-2.4,0.9-2.9c0-0.8-1-1.4-1.6-1.8c0.3-0.1,0.7-0.1,1-0.1c1.1,0,2.1,1,2.5,1.5
		c0.3,0.4,0.4,0.5,0.4,0.8c0,0.3-0.1,0.3-0.6,0.8c-0.3,0.2-0.4,0.6-0.8,1.3c-0.8,1.7-3.5,7-5.5,10
		C182.1,238.9,186.3,238.4,187.1,238.3z"/>
	<path d="M207.5,233.6c-0.2,0.8-1.1,4.2-1.2,4.9c-0.4,1.6-0.5,2.3-0.5,3c0,0.3,0.1,1.8,0.1,1.8c0,0.3-0.1,0.7-0.5,0.7
		c-0.4,0-0.9-0.5-1.1-0.9c-1.2-2-1.4-4-1.4-6.6c0-0.5,0-1.4,0.2-2.5l0.8-5.7c0.1-0.5,0.2-1.2,0.2-1.9c0-1.4-0.5-2-0.8-2.4
		c1.2-0.2,2.6,1.4,2.6,2.4c0,0.2-0.3,1.1-0.4,1.4c-0.6,1.8-1.5,5.6-1.5,8.6c0,2.2,0.4,3.8,0.8,3.8c0.2,0,0.3-0.4,0.3-0.4
		c0.8-2.5,1.2-3.5,2.4-6.3L207.5,233.6z M212.5,239.5c1.5,0.7,3.7,0.7,4.3,0.7c0.9,0,1.4-0.1,2.8-0.2c0.2,0,0.3,0,0.4,0
		c0.4,0,1.8,0.3,1.8,1c0,0.7-0.9,0.7-2.5,0.7c-1.2,0-5.5-0.2-7.1-1.1c-1.6-0.9-1.8-2.5-1.8-3c0-0.3,0.1-0.5,0.1-0.8
		C211,238.1,211.3,239,212.5,239.5z M214.2,229.6c0.5-0.4,2.7-2.2,2.7-2.4c0-0.2-0.8-0.2-0.8-0.2c-0.8,0-2.8,0.3-5,1.1
		c2.4-1.8,4-2.3,5.8-2.3c1.6,0,3.7,0.4,3.7,1.2c0,0.4-0.4,0.5-1.3,0.7c-2.3,0.4-3.9,1.4-4.9,2L214.2,229.6z"/>
	<path d="M225.8,238.4c1.2,0.2,3.3,0.6,4.9,2c1.5,1.3,1.5,2.7,1.5,2.9c0,0.8-0.6,1.4-1.2,1.4c-0.4,0-0.7-0.3-1.2-1.4
		c-1.3-2.6-1.8-3.7-4-4.6L225.8,238.4z"/>
	<path d="M273.5,233.6h-7.6l1.2,0.6c0.3,0.2,0.4,0.3,0.4,0.5c0,0.4-0.4,0.5-1.1,0.6c-0.5,1.3-1.3,3.1-2.8,5c0.5,0.2,2.1,0.6,4.2,1.5
		c1.5,0.6,3.2,1.9,3.2,2.8c0,0.2-0.1,0.9-0.8,0.9c-0.4,0-0.7-0.3-1.4-0.9c-1-0.9-3.4-2.4-5.9-3.4c-0.5,0.5-1.2,1.2-2,1.7
		c-3,1.9-6.3,2.4-9.6,2.5v-0.2c1.4-0.2,5.3-0.9,8.9-3.8c0.5-0.4,0.8-0.7,1-0.9c-2.2-0.7-3.7-0.9-4.6-1c-0.1,0.2-0.4,0.9-0.4,1
		c-0.2,0.2-0.6,0.3-1,0.3s-0.8-0.2-0.8-0.5s0.6-1.2,0.8-1.4c0.9-1.8,1.8-3.6,2.6-5.4h-3.9c-0.9,0-2.3,0.1-3.3,0.3l-0.6-1.1
		c1.9,0.2,3.8,0.2,4.3,0.2h3.8c1-2.2,1.5-3.6,1.6-4c0.1-0.4,0.1-0.8,0.1-1.1l1.9,0.8c0.2,0.1,0.3,0.2,0.3,0.4c0,0.3-0.5,0.5-0.9,0.6
		c-0.2,0.3-0.2,0.5-0.3,0.7c-0.2,0.4-1,2.3-1.2,2.7H270l1.1-1.2c0.3-0.3,0.3-0.3,0.4-0.3s0.3,0.1,0.5,0.3l1.6,1.2
		c0.1,0.1,0.3,0.2,0.3,0.4C273.9,233.5,273.7,233.6,273.5,233.6z M272.1,227.3c-0.2,0-0.4,0-1.1-0.2c-0.9,0.5-2.1,1.3-2.7,1.6
		l-0.1-0.1c0.5-1,1-2.1,1.1-2.4h-15.5c-0.1,1.7-1.1,3.7-2.6,3.7c-0.4,0-0.9-0.2-0.9-0.9s0.4-0.9,0.9-1.2c0.5-0.3,2.1-1.8,2.2-3.5
		h0.2c0.1,0.3,0.2,1,0.2,1.2h7.1c0-2.1,0-2.8-0.5-4.1l2.5,0.6c0.2,0.1,0.4,0.2,0.4,0.4c0,0.3-0.1,0.3-0.9,0.8c0,0.4,0,1.5,0,2.2h6.4
		l1.3-0.9c0.3-0.2,0.3-0.2,0.4-0.2c0.1,0,0.2,0.1,0.4,0.2l1.5,1.6c0,0,0.2,0.2,0.2,0.5C272.7,227,272.5,227.3,272.1,227.3z
		 M259.1,233.6c-0.7,1.6-0.9,1.9-2.5,5.6c0.7,0,2.5,0,5.2,0.6c1.5-1.8,2.6-3.9,2.9-6.2H259.1z"/>
	<path d="M275.8,239.1c-0.5,0-1-0.4-1-1.1c0-0.5,0.3-0.7,0.8-1c0.8-0.6,2.4-2.5,2.5-5h0.2c0.1,0.3,0.3,1,0.3,2
		C278.6,236.5,277.6,239.1,275.8,239.1z M291.4,244.1c-1,0.3-3.7,0.3-4.8,0.3c-3.3,0-4.3-0.2-4.3-3c0-5.9,0-6.5,0-12.1
		c0-1.3-0.1-1.5-0.3-2.2l2.4,0.9c0.3,0.1,0.4,0.2,0.4,0.3c0,0.3-0.2,0.4-1,0.7c-0.1,1.3-0.1,7.8-0.1,9.5c0,0.6,0,3.1,0.1,3.6
		c0.1,0.6,0.4,0.8,3.1,0.8c3.1,0,3.8,0,4.7-4.3l0.2,0c0,0.4,0.1,2,0.1,2.3c0.1,1,0.3,1.2,0.5,1.4c0.2,0.2,0.3,0.3,0.3,0.5
		C292.7,243.4,292,244,291.4,244.1z M288.1,226.6c-0.5,0-0.9-0.2-1.2-1.3c-0.4-1.6-0.5-2-1.5-3.1l0.2-0.2c0.6,0.2,1.7,0.6,2.5,1.4
		c1,1,1.1,2,1.1,2.2C289.1,226.2,288.7,226.6,288.1,226.6z M297.4,238.9c-0.7,0-0.9-0.4-1.2-1.6c-0.8-2.3-1.8-3.5-3.3-4.9l0.1-0.2
		c1.7,0.9,3.1,1.7,3.9,2.5c0.8,0.8,1.6,1.9,1.6,3C298.4,238.1,298.2,238.9,297.4,238.9z"/>
	<path d="M315.3,229.7c0.4-0.2,0.7-0.3,0.7-0.7c0-0.3-0.1-0.5-0.2-0.7c1.1,0.2,2,0.9,2,2.1c0,0.5-0.1,0.5-0.9,0.6
		c-3.4,0.5-11.8,3.9-11.8,8.1c0,0.4,0.1,1,0.6,1.6c1,1.2,4.6,1.2,5.4,1.2c2.1,0,3.1-0.2,5.2-0.6c0.4-0.1,0.9-0.1,0.9-0.1
		c0.7,0,1.6,0.3,1.6,0.9c0,0.4-0.4,0.6-1.2,0.8c-0.9,0.2-3.4,0.3-4.3,0.3c-2.9,0-4.6-0.3-5.9-0.6c-1.9-0.4-3.1-1.9-3.1-3.5
		c0-2,1.6-4.5,5-6.5c-0.3-0.5-1-1.4-1-2.8c-0.1-4.4-0.2-4.9-0.2-5.3c-0.1-0.5-0.3-0.9-0.6-1.3c-0.1-0.2-0.9-0.7-1-0.8
		c0.3-0.1,0.5-0.2,1-0.2c1.5,0,2.6,1.5,2.6,1.8c0,0.1-0.1,0.4-0.1,0.5c-0.3,1.1-0.4,2.1-0.4,3.2c0,0.6,0,2.8,0.7,4.4
		C310.9,231.6,312.7,230.7,315.3,229.7z"/>
	<path d="M324.9,233.7c-0.5,0-0.7-0.4-0.7-0.7c0-0.3,0.1-0.5,0.8-1.7c0.3-0.5,0.6-1.2,0.8-3.4h0.2c0.1,0.6,0.4,2.2,0.4,3.2
		C326.5,232.7,325.8,233.7,324.9,233.7z M329.6,223.5c-0.1,0.8-0.1,1.2-0.1,3.3c0,4.9,0,9.8,0.2,14.6c0,0.5,0.1,2.5,0.1,3
		c0,0.9-0.9,1-1.1,1c-0.5,0-0.6-0.3-0.6-0.6c0-0.5,0.1-2.4,0.1-2.8c0.1-2.2,0.1-3.7,0.1-5.9c0-3.2,0-9.6-0.1-12.2
		c0-0.8-0.1-1.4-0.2-2.3l2.2,0.6c0.2,0.1,0.4,0.1,0.4,0.4C330.5,222.9,330.3,223.1,329.6,223.5z M332.9,231.3
		c-0.5,0-0.6-0.4-0.8-0.8c-0.5-1.3-1.2-2.1-1.6-2.6l0.2-0.2c0.6,0.3,3.1,1.5,3.1,2.7C333.8,230.9,333.3,231.3,332.9,231.3z
		 M346.5,244.7c-3.1-1.9-6-4.5-7.3-10h-0.4c-0.5,6.4-3.4,8.5-7.8,10.5l-0.2-0.2c5.1-3.4,6.3-6.3,6.6-10.3h-2.8
		c-0.8,0-2.3,0.1-3.4,0.3l-0.6-1.1c1.4,0.1,3,0.2,4.3,0.2h2.5c0.1-2,0.1-3,0.1-7.3h-1.6c-0.8,0-2.3,0.1-3.4,0.3l-0.6-1.1
		c1.4,0.1,2.9,0.2,4.3,0.2h1.2c0-2.5,0-2.8-0.6-4.6l2.3,0.6c0.5,0.1,0.6,0.2,0.6,0.4c0,0.2-0.1,0.3-1,0.7v2.9h3.9l0.7-0.7
		c0.2-0.2,0.3-0.3,0.4-0.3c0.1,0,0.2,0.1,0.4,0.2l1,0.9c0.2,0.1,0.3,0.2,0.3,0.4c0,0.3-0.1,0.4-1.1,0.8c-0.1,1.6-0.1,5-0.1,6.6h1.3
		l0.9-0.9c0.2-0.2,0.3-0.3,0.4-0.3s0.2,0.1,0.5,0.3l1,0.9c0.2,0.2,0.3,0.2,0.3,0.4c0,0.3-0.3,0.3-0.4,0.3h-9
		c0.7,1.9,1.8,3.9,3.7,5.5c2.5,2.2,5.2,2.7,6.2,2.9v0.2C347.5,243.4,347,244,346.5,244.7z M339,226.7c0,4.3,0,5.5-0.2,7.3h4.3
		c0-0.5,0.1-3.9,0.1-4.7c0-0.4,0-2.2,0-2.6H339z"/>
	<path d="M372,244.7c-0.6,0-0.9,0.1-1.8,0.1c-2.1,0-7.6-0.1-9.5-0.4c-2.8-0.6-4.4-1.8-5.8-3.4c-0.3,0.3-1,1-1.4,1.5
		c-0.4,0.4-1,1-1.1,1.2c-0.1,1-0.1,1.1-0.4,1.1c-0.2,0-0.3-0.1-0.3-0.2l-1.5-1.8c0.4,0,1-0.1,2.3-0.8c0.5-0.3,1-0.6,1.5-1
		c0-0.6,0-4.1,0-4.2c-0.1-2.4-0.1-2.7-0.1-3.2c-0.7,0-2.2,0.1-3.3,0.3l-0.6-1.1c1,0.1,2.1,0.2,3.7,0.2l0.5-0.6
		c0.1-0.1,0.2-0.2,0.3-0.2s0.3,0.1,0.4,0.2l0.9,0.7c0.1,0.1,0.2,0.2,0.2,0.4c0,0.3-0.4,0.4-0.8,0.7v5.3c0.1,0.9,0.3,2.2,2.9,3.2
		c1.5,0.6,2.9,0.7,4.9,0.7c0.8,0,8.1-0.1,10.8-1.3l0.1,0.1C372.8,242.7,372.3,243.5,372,244.7z M354.7,226.4c-0.6,0-0.7-0.2-1.2-1.5
		c-0.5-1.3-1.1-1.9-1.7-2.6l0.1-0.2c1.5,0.5,3.7,1.7,3.7,3.2C355.6,226.1,355.1,226.4,354.7,226.4z M372.5,225.4h-5.7l1.5,0.8
		c0.2,0.1,0.3,0.2,0.3,0.3c0,0.3-0.3,0.4-0.9,0.5c-0.5,0.7-1.1,1.6-1.4,2h3l0.7-0.6c0.1-0.1,0.2-0.3,0.4-0.3c0.1,0,0.3,0.1,0.4,0.2
		l0.9,0.6c0.2,0.1,0.3,0.2,0.3,0.3c0,0.1-0.1,0.2-0.3,0.3c-0.2,0.2-0.4,0.3-0.6,0.5v5.5c0,0.4,0.2,3.4,0.2,3.6c0,0.8,0,2-2.4,2.6
		c-0.3-1-1-1.6-1.6-1.9v-0.1c0.4,0,1,0.1,1.4,0.1c1.2,0,1.2-0.3,1.2-0.9v-9.3h-10.6c0,0.8,0,6.3,0.1,8.3c0,0.4,0.1,2.2,0.1,2.6
		c0,0.3,0,0.5-0.3,0.6c-0.3,0.2-0.6,0.3-0.8,0.3c-0.3,0-0.4-0.2-0.4-0.5c0-0.3,0.1-1.6,0.1-1.8c0-1.1,0-6.4,0-7.6
		c0-0.4,0-2.2-0.1-3.3l1.9,0.9h6.1c0.6-1.7,0.6-2.3,0.8-3.6h-5.8c-0.8,0-2.3,0.1-3.3,0.3l-0.6-1.1c1.4,0.1,3,0.2,4.3,0.2h2.9
		c0-0.9,0-2.1-0.5-3.2l2.4,0.6c0.2,0.1,0.3,0.2,0.3,0.3c0,0.3-0.2,0.4-0.8,0.8c0,0.2,0,1.3,0,1.5h4.7l0.8-0.9
		c0.1-0.1,0.2-0.3,0.4-0.3c0.2,0,0.3,0.2,0.5,0.3l1,0.9c0.2,0.1,0.3,0.2,0.3,0.4C372.9,225.4,372.6,225.4,372.5,225.4z M368.6,232.6
		h-3.8v2.2h1.2l0.3-0.3c0.1-0.1,0.2-0.2,0.3-0.2c0.1,0,0.2,0.1,0.3,0.2l0.8,0.5c0.1,0.1,0.3,0.2,0.3,0.3c0,0.2-0.2,0.3-0.6,0.7
		c0,0.5,0,0.9,0,1.3c0,0.2,0.1,1.3,0.1,1.3c0,0.8-1,0.9-1,0.9c-0.3,0-0.3-0.3-0.3-0.7h-3.7c0,0.4,0,0.5-0.1,0.6
		c-0.2,0.2-0.5,0.4-0.8,0.4c-0.4,0-0.4-0.3-0.4-0.5c0-0.3,0-1.7,0-2c0-1.9,0-2.2-0.1-2.8l1.4,0.4h1.1v-2.2c-0.5,0-2,0.1-3,0.3
		l-0.6-1.1c1.2,0.1,2.4,0.2,3.6,0.2c0-0.3,0-1-0.3-1.7l1.8,0.5c0.2,0.1,0.3,0.1,0.3,0.2c0,0.2-0.3,0.4-0.6,0.5v0.4h1.9l0.5-0.4
		c0.2-0.2,0.4-0.3,0.5-0.3s0.3,0.2,0.5,0.3l0.6,0.4c0.1,0.1,0.3,0.2,0.3,0.4C369,232.6,368.8,232.6,368.6,232.6z M362.3,228.7
		c-0.6,0-0.7-0.5-0.9-1.4c0-0.1-0.1-0.8-0.7-1.6l0.1-0.2c1.5,0.5,2.2,1.5,2.2,2.3C363.1,228.4,362.6,228.7,362.3,228.7z
		 M366.1,235.5h-3.7v2.6h3.7V235.5z"/>
	<path d="M385.2,223.7c0-0.6-0.5-0.8-1.6-1.2c0.2-0.2,0.4-0.4,1.1-0.4c1.3,0,2.3,0.8,2.3,1.4c0,0.1,0,0.3-0.4,0.8
		c-0.2,0.3-1.2,1.8-1.4,2.1c0.6-0.2,1.3-0.3,3-1c0.1-0.1,0.5-0.2,0.7-0.2c0.4,0,1.3,0.2,1.3,0.8c0,0.4-0.4,0.6-1,0.7
		c-1.8,0.4-2.8,0.6-4.9,1c-1.1,1.5-2.3,3.2-3.1,4.7c0.6-0.4,1.4-0.9,2.6-0.9c2.4,0,2.9,1.7,3.2,2.7c1.2-0.7,2.6-1.5,5.6-2.8
		c0.3-0.2,0.5-0.3,0.5-0.7c0-0.3-0.3-0.6-0.7-0.9c0.2-0.1,0.3-0.1,0.4-0.1c0.5,0,2.6,0.6,2.6,2c0,0.5-0.3,0.6-1.3,0.7
		c-1.4,0.2-4.9,1.7-6.9,2.6c0.1,0.7,0.3,1.7,0.3,3.2c0,0.3,0,2.1-0.9,2.1c-0.7,0-0.8-1.1-0.8-1.4c0-0.1,0.1-1.7,0.1-2.1
		c0-0.1,0-0.6-0.1-1.2c-2,1.3-3.9,3.4-3.9,4.8c0,1.9,3.2,2,4.1,2c1.4,0,2.9-0.2,4-0.5c0.4-0.1,0.6-0.1,0.8-0.1
		c0.8,0,1.5,0.4,1.5,0.9c0,0.2-0.1,0.5-0.7,0.6c-0.6,0.1-2.1,0.3-3.8,0.3c-3.9,0-4.9-0.4-5.7-1c-0.5-0.4-1.2-1.1-1.2-2.1
		c0-0.4,0.2-1.5,0.9-2.4c0.8-1,1.9-2.2,3.8-3.4c-0.3-1.5-0.7-2.7-2.4-2.7c-1.5,0-2.8,1.2-3.4,2.1c-1,1.5-1.1,1.6-1.5,1.6
		c-0.6,0-0.6-0.8-0.6-0.9c0-0.6,0.2-0.8,0.6-1c1.3-0.9,3.2-4,4.5-6.1c-1.5,0.3-1.9,0.4-2.7,0.4c-2.1,0-2.3-1.4-2.4-2.1
		c0.8,0.6,1.4,0.9,2.5,0.9c1.1,0,2.4-0.2,3.4-0.4C384.1,226.1,385.2,224.1,385.2,223.7z"/>
	<path d="M400.3,240.9c0-2.1,1.7-3.8,3.8-3.8c2.1,0,3.8,1.7,3.8,3.8c0,2.1-1.7,3.8-3.8,3.8C401.9,244.6,400.3,242.9,400.3,240.9z
		 M407.1,240.9c0-1.7-1.4-3.1-3.1-3.1c-1.7,0-3.1,1.4-3.1,3.1c0,1.6,1.3,3.1,3.1,3.1C405.7,243.9,407.1,242.6,407.1,240.9z"/>
	<path d="M7.7,282.1c-0.3,0.7-0.8,1.7-1.9,3.6l0.4,0.3c0.3,0.2,0.3,0.2,0.3,0.4c0,0.4-0.5,0.6-0.7,0.7c-0.2,1.3-0.2,3-0.2,4.5
		c0,0.5,0.1,6.4,0.1,6.5c0,0.6,0.1,3.4,0.1,3.9c0,0.1,0,1-0.1,1.1c-0.2,0.6-0.7,0.7-1,0.7c-0.6,0-0.7-0.3-0.7-0.7
		c0-0.4,0.1-2.2,0.1-2.6c0.2-4.4,0.3-8.7,0.3-12.5c-0.7,1.1-1.5,2.2-2.4,3.2c-0.9,1-1.4,1.4-1.8,1.7L0,292.7
		c1.7-2.4,4.4-6.7,5.6-9.7c0.5-1.4,0.7-2.2,0.8-3.1l2,1.2c0.3,0.2,0.4,0.2,0.4,0.4C8.7,281.9,8.3,282,7.7,282.1z M23.6,302h-13
		c-0.8,0-2.3,0.1-3.4,0.3l-0.6-1.1c1.4,0.1,3,0.2,4.3,0.2h3.2v-8.1h-1.7c-0.8,0-2.3,0.1-3.3,0.3l-0.6-1.1c1.4,0.1,3,0.2,4.3,0.2h1.3
		v-6.6h-2.7c-0.8,0-2.3,0.1-3.4,0.3l-0.6-1.1c1.4,0.1,3,0.2,4.3,0.2h7.9l1-1c0.2-0.2,0.3-0.3,0.4-0.3s0.3,0.1,0.5,0.3l1.3,1
		c0.1,0.1,0.3,0.2,0.3,0.4c0,0.3-0.3,0.3-0.4,0.3h-7.2v6.6h3.3l0.9-1c0.2-0.2,0.3-0.3,0.4-0.3s0.3,0.2,0.5,0.3l1.5,1
		c0.1,0.1,0.3,0.2,0.3,0.4c0,0.3-0.3,0.3-0.4,0.3h-6.5v8.1h4.9l1.1-1.2c0.2-0.2,0.3-0.3,0.4-0.3c0.2,0,0.3,0.2,0.5,0.3l1.2,1.2
		c0.1,0.1,0.2,0.2,0.2,0.4C23.9,302,23.7,302,23.6,302z M15.3,284.9c-0.7,0-0.7-0.2-1.2-1.6c-0.4-1.1-0.9-2.2-1.7-3.1l0.1-0.1
		c0.5,0.2,3.7,1.7,3.7,3.8C16.2,284.5,15.8,284.9,15.3,284.9z"/>
	<path d="M33.4,286.6h-4c0,2.8-0.1,3.1-0.1,5.7v2.7c0,4,0.1,5.5,0.1,7c0,0.2,0,0.3,0,0.5c0,0.3,0,0.7-0.3,1
		c-0.2,0.2-0.6,0.4-0.9,0.4c-0.5,0-0.5-0.4-0.5-0.6c0-0.3,0.1-1.6,0.1-1.9c0.1-4.6,0.3-10.1,0.3-14.6c-0.1,0-1.6,0.1-2.8,0.3
		l-0.6-1.1c1.1,0.1,1.3,0.1,3.4,0.2c0-4.6-0.3-5.5-0.5-6.2l2.5,0.8c0.2,0.1,0.3,0.1,0.3,0.3c0,0.3-0.1,0.4-1,0.8c0,0.3,0,0.5,0,2.3
		l0,2h2l0.5-0.6c0.2-0.3,0.3-0.3,0.4-0.3c0.1,0,0.2,0,0.5,0.3l0.7,0.6c0,0,0.3,0.2,0.3,0.4C33.7,286.6,33.6,286.6,33.4,286.6z
		 M39.2,294.7c-0.1,3.1-0.9,6.2-1.2,6.8c-0.6,1.3-1.5,1.5-2.7,1.7c-0.3-1.2-0.9-1.7-1.5-2.1l0.1-0.2c0.9,0.2,1.8,0.4,2.2,0.4
		c0.5,0,0.8-0.3,1.2-2c0.4-1.5,0.6-3.9,0.6-5.3h-2.3c-0.6,3.6-1.3,6.5-5.4,9.3l-0.1-0.2c2.8-2.6,3.9-6.1,4.2-9.1
		c0,0-1.5,0.1-2.6,0.3l-0.6-1.1c1.1,0.1,1.4,0.1,3.3,0.2c0-0.3,0.1-0.7,0.1-1.3c0-0.8-0.1-1.2-0.1-1.6l2,0.7c0.1,0,0.3,0.1,0.3,0.3
		c0,0.2-0.5,0.4-0.8,0.6c0,0.2-0.1,1.1-0.2,1.3h1.9l0.4-0.5c0.2-0.2,0.3-0.3,0.4-0.3c0.1,0,0.3,0.2,0.3,0.2l0.9,0.9
		c0.2,0.2,0.3,0.3,0.3,0.3C40.1,294.1,39.5,294.5,39.2,294.7z M46.3,283.6c-0.1,0.1-0.7,0.4-0.9,0.4c-1.2,5-2.4,5.2-4.3,5.6
		c-0.2-1-0.4-1.5-1.6-2.3l0.1-0.2c0.6,0.3,1.6,0.5,2.3,0.5c1.4,0,2.1-3,2.4-4.6H40c-0.8,2.8-2.5,5.6-7,7.3l-0.1-0.2
		c2.8-1.6,4.9-4.1,5.7-7.1h-1.4c-0.9,0-2.4,0.1-3.3,0.3l-0.6-1.1c1.9,0.2,3.8,0.2,4.3,0.2h1.1c0.2-0.8,0.2-1.3,0.2-1.7
		c0-0.5-0.1-0.8-0.1-1.1l2.3,0.7c0.1,0,0.2,0.1,0.2,0.2c0,0.3-0.7,0.7-0.9,0.8c-0.1,0.5-0.2,0.8-0.3,1.1H44l0.3-0.3
		c0.3-0.3,0.4-0.3,0.5-0.3c0.1,0,0.1,0,0.2,0.1l1.2,0.9c0.1,0.1,0.2,0.2,0.2,0.4C46.5,283.3,46.4,283.4,46.3,283.6z M48.2,294.2
		c-0.3,0.1-0.4,0.3-0.6,0.4c-0.1,1.9-0.3,6.6-1.5,7.8c-0.2,0.3-0.9,0.9-2.6,1.1c-0.4-0.9-0.6-1.5-1.6-2.1l0.1-0.2
		c1.1,0.2,1.8,0.4,2.3,0.4c0.6,0,0.9-0.1,1.3-2.1c0.3-1.4,0.6-4.6,0.5-5.5h-1.6c-0.3,0-0.4,0-0.6,0c-0.9,4.8-2.6,7.5-5.9,9.4
		l-0.1-0.2c3.2-2.7,4-5.5,4.6-9.1c-0.8,0.1-1,0.1-1.3,0.2l-0.6-1.1c0.9,0.1,1.4,0.1,2,0.1c0-0.2,0.2-1.6,0.2-2.4
		c0-0.7-0.1-0.9-0.2-1.2l2.3,0.8c0.1,0,0.2,0.1,0.2,0.3c0,0.2-0.6,0.6-0.9,0.8c-0.1,0.9-0.1,1.3-0.2,1.8H45h1l0.5-0.6
		c0.1-0.1,0.3-0.4,0.4-0.4c0.1,0,0.3,0.2,0.4,0.2l1.1,0.9c0.1,0.1,0.2,0.2,0.2,0.3C48.6,294,48.5,294,48.2,294.2z"/>
	<path d="M53,302.2c3-1.3,6.4-4.4,8.2-6.6c3.3-3.9,5.2-8.4,5.2-8.5c0-0.1,0-0.1-0.2-0.1c-0.4,0-4.1,0.6-4.5,0.6
		c-0.6,0-1.1-0.2-1.6-0.5c-2.5,3.3-4.2,5.1-7.1,6.4l-0.1-0.2c4.2-3.5,7-8.7,7-9.5c0-0.6-1.2-1.2-1.5-1.3c0.3-0.1,0.8-0.3,1.2-0.3
		c1,0,2.7,1,2.7,1.6c0,0.2-0.1,0.3-0.5,0.7c-0.2,0.3-1.2,1.7-1.4,2c0.2,0,0.5,0.1,1,0.1c1.6,0,4.4-0.3,4.9-0.8
		c0.1-0.1,0.4-0.4,0.5-0.5c0.1-0.1,0.2-0.1,0.2-0.1c0.2,0,1.3,0.9,1.6,1.2c0.3,0.3,0.5,0.4,0.5,0.6c0,0.3-0.3,0.4-0.9,0.7
		c-0.3,0.2-0.6,0.6-0.9,1.2c-2.1,4.1-6,11.1-14.3,13.5L53,302.2z M71.1,285c0,0.4-0.2,0.7-0.6,0.7c-0.3,0-0.4-0.1-1.2-1
		c-1-1.1-1.6-1.6-2.5-2.3C68.5,282.6,71.1,283.6,71.1,285z M73.7,283.9c0,0.4-0.2,0.5-0.4,0.5c-0.3,0-0.6-0.2-1-0.5
		c-1.6-1.4-1.9-1.7-3.3-2.4C70.3,281.6,73.7,281.8,73.7,283.9z"/>
	<path d="M77,300.9c1.6-1.4,2.8-3.1,3.6-5c1.3-2.9,1.4-5.3,1.4-7.5c0-2.2,0-2.4-1.8-2.8c0.3-0.3,0.7-0.6,1.3-0.6
		c0.8,0,2.3,0.7,2.3,1.2c0,0.2-0.2,0.8-0.2,1c0,0.4-0.1,2.1-0.1,2.5c-0.2,2.5-0.5,5.5-2.7,8.4c-0.8,1-2,2.3-3.6,3L77,300.9z
		 M98.1,288.9c-1.4,3.6-4.3,6.4-7.2,8.8c-0.3,0.2-1.7,1.2-1.9,1.4c-0.6,0.9-0.7,1-1,1c-0.5,0-1.5-1.9-1.5-2.1c0-0.2,0.2-0.9,0.3-1
		c0.2-0.9,0.2-2.3,0.2-5.8c0-1.1,0-5.1-0.1-5.9c-0.1-0.6-0.2-0.9-1.7-1.5c0.3-0.2,0.7-0.5,1.2-0.5c0.7,0,1.8,0.6,2.3,1.1
		c0.1,0.1,0.3,0.3,0.3,0.5c0,0.2-0.2,0.8-0.2,0.9c-0.1,0.4-0.2,1.1-0.3,1.9c-0.1,1.7-0.1,7.4-0.1,9.3c0,0.4,0,0.4,0.1,0.4
		c0.3,0,5.1-2.3,9.7-8.6L98.1,288.9z"/>
	<path d="M103.9,291.1c0.4,0.1,0.6,0.1,2.9,0.1c0.5,0,9.1-0.1,10.9-0.3c0.5-0.1,0.5-0.1,0.8-0.2c0.2-0.1,0.3-0.1,0.5-0.1
		c0.1,0,2.4,0.3,2.4,1c0,0.6-0.7,0.6-1.4,0.6c-0.4,0-2.8-0.2-3.4-0.2c-1.6,0-8.9,0.1-10.2,0.3c-0.3,0-1.1,0.1-1.8,0.4
		c-0.5,0.2-0.6,0.2-0.8,0.2s-0.3,0-1-0.8c-0.2-0.2-0.8-0.9-0.8-1.9c0-0.4,0-0.7,0.2-1C102.7,290.4,103.3,291,103.9,291.1z"/>
	<path d="M130.9,301.9c3.5-1.8,6.4-5.1,7.6-6.6c2.4-3.2,3.4-6.6,4-9c-5.5,0.3-10.8,1.2-11.2,1.4c-0.4,0.2-0.5,0.2-0.8,0.4
		c-0.3,0.2-0.4,0.2-0.5,0.2c-0.3,0-0.8-0.5-1-0.8c-0.3-0.4-0.9-1-0.9-1.9c0-0.2,0-0.4,0.1-0.7c0.5,0.7,1.2,1.2,1.3,1.3
		c0.4,0.2,0.6,0.2,1.2,0.2c1.1,0,11.1-1,11.5-1.1c0.2-0.1,0.9-0.6,1-0.6c0.2,0,2.1,1.4,2.1,1.9c0,0.2-0.1,0.2-0.8,0.6
		c-0.5,0.3-0.6,0.4-0.9,1.2c-1.7,4.6-2.8,6.9-5.6,9.6c-2,1.9-4.3,3.4-6.9,4.2L130.9,301.9z M147,285.3c-1.4,0-2.4-1.1-2.4-2.4
		c0-1.3,1.1-2.4,2.4-2.4c1.4,0,2.4,1.1,2.4,2.4C149.5,284.2,148.4,285.3,147,285.3z M147,281.3c-0.9,0-1.6,0.7-1.6,1.6
		c0,0.9,0.7,1.6,1.6,1.6c0.9,0,1.6-0.7,1.6-1.6C148.6,282,147.9,281.3,147,281.3z"/>
	<path d="M162.5,301c7.8-2.7,8.1-8.3,8.1-9.6c0-4.5-4.3-7-8.1-7c-0.5,0-0.7,0.1-1,0.1c1.3,1.1,1.3,1.8,1.3,2c0,0.3-0.1,0.4-0.6,1.6
		c-3.2,6.6-3.5,7.3-4.9,9.5c-0.1,0.2-1,1.4-1.5,1.6c-0.2,0.1-0.3,0.1-0.5,0.1c-0.6,0-0.8-0.3-1.5-1.3c-0.2-0.3-0.3-0.4-0.7-0.7
		c-1-0.8-1.4-1.7-1.4-3.5c0-5.2,4.4-10.1,11-10.1c4.8,0,9.5,2.7,9.5,8.1c0,4.8-3.8,9-9.7,9.6L162.5,301z M159.5,290.9
		c0.8-1.5,1.5-3.5,1.5-4.5c0-0.9-0.5-1.4-0.7-1.7c-2.9,0.2-7.3,4.1-7.3,9.2c0,2,1.2,3.7,2.3,3.7c0.2,0,0.3,0,0.5-0.2
		c0.6-0.6,1-1.4,1.5-2.3L159.5,290.9z"/>
	<path d="M184.3,286.9h-3.6v1.5c0,0.6,0.1,3,0.1,3.5c1.1-0.6,2.7-1.4,3.3-1.8l0.1,0.2c-1.1,0.9-2.3,1.8-3.4,2.6
		c0.1,2.5,0.1,5.9,0.1,8.3c0,1.6-1,2.3-2.8,2.4c-0.2-0.8-0.4-1.5-2-2.2l0.1-0.2c0.6,0.1,1.6,0.2,1.9,0.2c0.1,0,1.2,0,1.3-0.6
		c0-0.1,0-0.2,0-0.3c-0.1-5.2-0.1-5.8-0.1-6.8c-0.3,0.2-1.6,1.1-1.9,1.3c-0.2,0.1-0.3,0.2-0.7,0.5c-0.1,0.4-0.2,1-0.5,1
		c-0.2,0-0.3-0.2-0.3-0.3l-1.5-1.9c0.6-0.1,0.9-0.2,1.3-0.3c0.3-0.1,1.6-0.6,3.6-1.7c0-2.3,0-2.6,0-4.7v-1c-1.1,0-2.5,0.1-3.4,0.3
		l-0.6-1.1c0.9,0.1,1.9,0.2,4,0.2c0-2.6-0.2-4-0.3-4.6c0-0.2-0.2-1.3-0.3-1.5l2.3,0.6c0.2,0.1,0.4,0.1,0.4,0.4
		c0,0.3-0.2,0.4-0.9,0.9v2.2l0,2h1.3l0.6-0.8c0.1-0.1,0.3-0.3,0.4-0.3s0.4,0.2,0.5,0.3l0.9,0.8c0.1,0.1,0.3,0.2,0.3,0.4
		C184.6,286.9,184.4,286.9,184.3,286.9z M197.2,303.4c-3.5-1.3-5.1-2.6-6.4-4.1c-2.2,2.2-5,3.7-8.1,4.3l-0.1-0.3
		c2.9-1,5.3-2.8,7.3-5.1c-1.8-2.6-2.4-5.9-2.5-7c-0.6,0.1-1.3,0.1-1.9,0.2l-0.6-1.1c1.9,0.2,3.8,0.2,4.3,0.2h0.8c0-0.2,0-4.8,0-5
		h-1.2c-0.9,0-2.3,0.1-3.3,0.3l-0.6-1.1c1.9,0.2,3.8,0.2,4.3,0.2h0.8c-0.1-2.9-0.3-4.1-0.6-5l2.4,0.6c0.4,0.1,0.4,0.2,0.4,0.3
		c0,0.3-0.4,0.5-0.9,0.8v3.2h3.9l0.9-1.3c0.1-0.1,0.3-0.3,0.4-0.3c0.2,0,0.4,0.2,0.5,0.3l1.5,1.3c0.2,0.2,0.3,0.3,0.3,0.4
		c0,0.2-0.2,0.3-0.4,0.3h-7.1v4.7v0.3h2.7l0.6-0.8c0.2-0.3,0.3-0.3,0.4-0.3c0.1,0,0.2,0.1,0.5,0.3l1.3,0.9c0.1,0.1,0.2,0.2,0.2,0.4
		c0,0.4-1,0.6-1.5,0.8c-1.2,3-2.6,5.1-3.8,6.4c3,2.5,6.6,2.9,7.7,3v0.1C198.9,301.7,198,302.2,197.2,303.4z M188.9,291.3
		c-0.3,0-0.7,0-1.1,0c0.6,2.4,1.8,4.6,3.1,6c1.5-1.9,2.3-3.6,3.2-6H188.9z"/>
	<path d="M205.9,288.3c-0.3,0.5-0.8,1.1-1.2,1.6l0.5,0.2c0.1,0.1,0.3,0.2,0.3,0.3c0,0.2-0.3,0.5-0.6,0.7c0,0.5-0.1,1-0.1,2.3
		c0,2.2,0,2.5,0.1,5.4c0,0.6,0,3.1,0,3.6s-0.5,1-1,1c-0.3,0-0.6-0.1-0.6-0.4c0-0.1,0.2-1.9,0.2-2.2c0.1-1.4,0.1-7.5,0.1-9.3
		c-0.9,1.2-2.1,2.8-4.5,4.6l-0.1-0.1c1.4-1.6,3.3-4.4,4.7-7c0.9-1.8,1-2.2,1-2.7l2.1,1.4c0.1,0.1,0.2,0.1,0.2,0.3
		C207,288.2,206.7,288.2,205.9,288.3z M205.8,282.4c-1.9,1.8-3.1,2.8-5.9,4.4l-0.1-0.1c2.1-1.8,3.6-3.6,4-4.1
		c0.5-0.6,1.2-1.5,1.3-2.2l1.6,1.3c0.1,0.1,0.2,0.2,0.2,0.3C206.9,282.3,206.2,282.4,205.8,282.4z M209.3,290.6
		c-0.3,1.7-0.8,3.4-1.3,5.1c-0.5,1.5-1.1,3.1-2.2,4.3l-0.1-0.1c1.2-2.9,2.1-7.9,2.1-9.9c0-0.5-0.1-0.8-0.1-1.1l2.1,0.6
		c0.1,0,0.3,0.1,0.3,0.3C210.1,290,210,290.1,209.3,290.6z M216.6,286.4h-4.8c-0.1,3.2-0.1,5.7-0.1,6.5c0,3,0.1,5.5,0.2,7.3
		c0,0.3,0.1,1.7,0.1,2c0,0.6-0.6,1-1,1c-0.6,0-0.6-0.6-0.6-0.8c0-0.3,0.2-10.4,0.2-12.2c0-0.8,0-2.8,0-3.7H210
		c-0.8,0-2.3,0.1-3.4,0.3l-0.6-1.1c2.2,0.2,3.9,0.2,4.5,0.2c0-1.1-0.1-3.4-0.1-4.4c-0.1-0.6-0.1-0.9-0.3-1.3l2.3,0.5
		c0.1,0,0.3,0.1,0.3,0.3c0,0.3-0.5,0.6-0.8,0.7c0,0.3,0,2.3-0.1,4.3h2.5l0.6-0.6c0.2-0.2,0.2-0.3,0.4-0.3c0.1,0,0.3,0.1,0.5,0.3
		l1,0.6c0.1,0.1,0.2,0.2,0.2,0.4C217,286.3,216.8,286.4,216.6,286.4z M214.9,284.5c-0.5,0-0.6-0.4-0.9-1.1c-0.2-0.6-0.6-1.4-1.1-2
		v-0.1c1.7,0.8,2.6,1.2,2.6,2.2C215.6,283.8,215.4,284.5,214.9,284.5z M215.1,297.2c-0.7,0-0.7-0.4-0.8-1.9
		c-0.2-3.3-0.9-5.4-1.4-6.4l0.1-0.2c2.2,2.2,3,5.3,3,7.1C216,296.2,216,297.2,215.1,297.2z M223.3,289.3H220c0,1.2,0,5.6,0.1,7.2
		c0,1.6,0,1.9,0.1,3.6c0,0.2,0,0.4,0,0.5c0,1.4-0.3,2.2-2.6,2.9c-0.1-0.4-0.9-1.6-2.1-2v-0.1c0.7,0.1,1.8,0.1,1.9,0.1
		c1.2,0,1.3,0,1.3-1.1v-11.1c-0.7,0-2.2,0.1-3.3,0.3l-0.6-1.1c1.4,0.1,2.9,0.2,4.3,0.2h1.7l0.6-0.9c0.2-0.2,0.2-0.3,0.4-0.3
		c0.2,0,0.4,0.2,0.5,0.3l1.1,0.9c0.1,0.1,0.3,0.2,0.3,0.4C223.7,289.2,223.5,289.3,223.3,289.3z M222.9,282.9h-4.4
		c-0.4,0-1,0.1-1.4,0.1l-0.3-0.9c0.5,0.1,1.5,0.1,1.8,0.1h2.2l0.4-0.6c0.2-0.3,0.2-0.3,0.4-0.3c0.1,0,0.2,0.1,0.5,0.3l0.9,0.6
		c0.1,0.1,0.3,0.2,0.3,0.4C223.2,282.8,223.1,282.9,222.9,282.9z"/>
	<path d="M231.7,298c2.4,1.7,2.7,1.9,3.4,1.9c0.5,0,0.8-0.3,1-0.8c1.6-3.2,1.8-6.5,1.8-8.1c0-1.2,0-2.9-1.8-2.9
		c-0.6,0-1.3,0.1-2.3,0.4c-2.2,5.3-4.3,10.6-6,13c-0.1,0.2-0.3,0.3-0.5,0.3c-0.4,0-0.6-0.8-0.6-1.1c0-0.4,0-0.4,0.9-1.8
		c2.2-3.4,3.4-6.3,4.9-9.9c-2,0.7-2.9,1-3.8,1.6c-0.4,0.3-0.7,0.4-1,0.4c-0.5,0-2.1-0.8-2.1-2.4c0-0.2,0.1-0.4,0.2-0.6
		c0.6,1,1,1.3,1.7,1.3c0.2,0,0.4,0,1.2-0.3c1.2-0.4,2.9-0.8,4.3-1.2c0.4-1.1,1.3-3.4,1.3-4.3c0-1.2-1.7-1.7-2-1.8
		c0.2-0.2,0.4-0.3,1-0.3c1,0,2.9,0.7,2.9,1.7c0,0.3-0.2,0.6-0.3,0.8c-0.7,1.3-1,2.1-1.6,3.6c0.5-0.1,1.1-0.3,1.9-0.3
		c3.1,0,3.1,2.7,3.1,4.1c0,2.5-0.8,8.5-3.5,10.5c-0.5,0.3-1,0.5-1.3,0.5c-0.4,0-0.4-0.1-0.6-1.1c-0.2-0.8-1.5-2.5-2.2-3.2L231.7,298
		z M242.5,292.9c1.4-0.1,2.5-0.4,2.7-0.5c0.3-0.1,0.6-0.4,0.6-0.8c0-0.5-1.5-2.9-5.1-5.1c2.3-0.1,7.1,3.5,7.1,6.7
		c0,0.4-0.1,1.1-0.5,1.1c-0.2,0-1-0.5-1.1-0.5c-0.6-0.2-3.2-0.6-3.7-0.7V292.9z M242.5,283.8c1.2,0,4.2,0.8,4.2,2.3
		c0,0.2-0.1,0.6-0.5,0.6c-0.3,0-1-0.8-1.2-0.9c-1.3-1-2.5-1.5-3.4-1.9C241.8,283.8,242,283.8,242.5,283.8z M245.1,281.8
		c1.2,0,4,0.4,4,2.2c0,0.3-0.1,0.6-0.4,0.6s-1.2-0.9-1.4-1.1c-0.4-0.3-1.5-1-3.6-1.6C244.3,281.8,244.6,281.8,245.1,281.8z"/>
	<path d="M271.8,303.3c-4.3-1.2-7.2-2.6-9.6-4.3c-0.1-0.1-0.2-0.2-0.4-0.3c-2,1.6-5.7,3.9-11.5,4.8l-0.1-0.3
		c6.4-1.8,9.2-4.2,10.6-5.4c-1.9-2-3.2-4.6-3.8-7.3h-0.8c-0.9,0-2.4,0.1-3.4,0.3l-0.6-1.1c1.9,0.2,3.8,0.2,4.3,0.2h4.4
		c0-0.4,0-3.8,0-4.6H254c-0.9,0-2.4,0.1-3.4,0.3l-0.6-1.1c1.9,0.2,3.8,0.2,4.3,0.2h6.7c-0.1-2.6-0.1-2.9-0.6-4.7l2.7,0.7
		c0.1,0,0.1,0.1,0.3,0.2c0,0.1,0.1,0.1,0.1,0.1c0,0.1-0.6,0.7-0.9,0.9c0,0.3-0.1,0.4-0.1,0.7c0,0.3,0,1.8,0,2.1h7.2l0.9-1.3
		c0.1-0.1,0.3-0.3,0.4-0.3c0.1,0,0.4,0.2,0.5,0.3l1.4,1.3c0.2,0.2,0.3,0.2,0.3,0.4c0,0.3-0.2,0.3-0.4,0.3h-10.4v0.7v3.7v0.2h3.3
		l0.8-0.8c0.2-0.2,0.2-0.3,0.4-0.3c0.1,0,0.2,0.1,0.4,0.3l1.3,1.1c0.1,0.1,0.2,0.2,0.2,0.3c0,0.4-0.4,0.5-1.5,0.7
		c-1.6,3.5-3.3,5.5-4.6,6.8c0.3,0.2,2.3,1.7,5.4,2.5c2.8,0.8,4.9,0.7,5.8,0.7v0.2C272.8,301.6,272.6,302.1,271.8,303.3z
		 M257.4,290.5c0.8,2.5,2.3,4.8,4.3,6.6c2.2-2.2,3.5-4.8,4.3-6.6H257.4z"/>
	<path d="M281.8,289.6c1.1,0,4.5-0.9,6.1-1.6c0.8-0.3,0.8-0.3,1-0.3c0.7,0,2.1,0.9,2.1,1.5c0,0.3-0.1,0.3-0.7,0.8
		c-1,0.6-2.4,1.7-6.5,6c0.3-0.1,0.7-0.1,1.2-0.1c2.1,0,2.4,1.1,2.7,2.2c0.5,2.2,0.9,3,3.1,3c0.9,0,1.9-0.1,2.7-0.3
		c0.3-0.1,1.4-0.4,1.6-0.4c0.4,0,1.2,0.5,1.2,0.9c0,0.3-0.2,0.5-0.4,0.6c-0.4,0.2-2,0.5-3.5,0.5c-4.5,0-5.2-1-5.9-3.6
		c-0.4-1.3-0.6-2.2-2-2.2c-1.2,0-1.6,0.6-3.6,3.2c-2.1,2.9-2.2,2.9-2.6,2.9c-0.6,0-0.7-0.9-0.7-1c0-0.8,0.4-1.1,1.1-1.7
		c0.9-0.7,1.4-1.2,5.7-5.8c0.7-0.7,3.7-3.9,3.8-4.3c0-0.1,0.1-0.1,0.1-0.2c0-0.3-0.3-0.4-0.5-0.4c-0.6,0-3.3,0.8-4.6,1.7
		c-0.4,0.2-0.7,0.5-1.1,0.5c-1,0-2.1-1.5-2.1-1.9c0-0.1,0.2-0.7,0.2-0.7C280.5,289.2,281.1,289.6,281.8,289.6z M284.3,285
		c0.9-0.5,1-0.6,1.9-1.2c0.1-0.1,0.2-0.2,0.2-0.3c0-0.3-0.4-0.6-0.9-0.9c-1.9-1.2-2.1-2.3-2.3-3.1c1,1.1,2.1,1.9,4.1,2.8
		c0.6,0.3,2.2,0.9,2.2,1.9c0,0.6-0.5,0.6-0.8,0.6c-0.2,0-1.4-0.2-1.6-0.2c-0.4,0-0.6,0.1-2.2,0.4c-0.3,0.1-0.5,0.1-0.8,0.2V285z"/>
	<path d="M311.8,282.9c0-1.1-0.2-1.2-1.9-2c0.2-0.2,0.5-0.4,1.3-0.4c1.4,0,2.4,0.9,2.4,1.6c0,0.1-0.1,0.6-0.3,1.1
		c-0.1,0.5-0.2,1.1-0.3,1.9c1.8-0.4,2.6-0.7,4.1-1.2c0.2-0.1,0.4-0.2,0.6-0.2c0.5,0,1.4,0.5,1.4,0.8c0,0.3-0.3,0.5-0.5,0.5
		c-0.8,0.3-3.1,0.9-5.8,1.3c-0.1,1.1-0.1,2.7-0.1,4.2c1.7-0.4,2.3-0.6,3.4-1.1c0.1-0.1,0.3-0.1,0.5-0.1c0.5,0,1.4,0.3,1.4,0.8
		c0,0.4-0.3,0.5-0.6,0.6c-0.5,0.2-2.8,0.6-4.6,1c0.1,1.1,0.3,4.6,0.4,5.9c3,0.7,5.5,1.9,5.5,3.2c0,0.5-0.3,0.7-0.6,0.7
		c-0.2,0-0.3-0.1-1.2-0.7c-0.3-0.2-1.9-1.2-3.7-1.7c0,1.5-0.6,2.1-1,2.4c-1.2,0.9-2.8,0.9-3.2,0.9c-2.6,0-4.4-1.3-4.4-2.6
		c0-0.8,0.5-1.4,1.3-1.8c1.5-0.8,3.9-0.8,4.4-0.8c0.6,0,1,0,1.4,0.1c0-0.9-0.2-4.7-0.3-5.5c-1.3,0.2-2.6,0.3-3.9,0.3
		c-1.6,0-2.5-0.3-2.5-1.2c0-0.4,0.5-1.1,1.3-1.3c-0.2,0.2-0.4,0.5-0.4,0.8c0,0.5,0.5,0.6,1.9,0.6c1,0,2.2-0.1,3.7-0.4
		c0-1.4,0-2.2,0.1-4.3c-1,0.1-4.5,0.5-5.2,0.5c-0.7,0-2.7-0.2-3.4-1.7c0.4,0.2,1.5,0.6,3.4,0.6c0.5,0,2.6-0.1,5.4-0.6
		C311.7,285,311.8,283.2,311.8,282.9z M309.1,298.5c-1.7,0-3.4,0.4-3.4,1.5c0,0.8,1.1,1.4,3.1,1.4c1.1,0,3.4-0.3,3.1-2.6
		C311.4,298.7,310.7,298.5,309.1,298.5z"/>
	<path d="M331.9,303.7c4.4-2.9,4.9-5.6,5.2-7.3c-0.5,0.3-0.9,0.5-1.5,0.5c-1.2,0-3.1-1.8-3.1-4c0-1.8,1.4-3.3,3.1-3.3
		c0.6,0,1.1,0.2,1.6,0.4c0-0.4,0-0.6,0-0.8V287c-2.8,0.2-5.5,0.6-8.8,1.9c-0.2,0.1-0.9,0.4-1,0.4c-0.5,0-2-1.3-2-2.4
		c0-0.1,0-0.3,0.1-0.6c0.8,1,1.3,1.2,1.9,1.2c0.4,0,1.3-0.2,1.4-0.2c1.2-0.2,5.9-0.9,8.4-1.1c0-0.7-0.1-3.5-0.4-4
		c-0.3-0.6-1-0.9-1.7-1.3c0.3-0.2,0.7-0.4,1.2-0.4c0.5,0,1.4,0.4,1.9,0.8c0.4,0.3,0.4,0.5,0.4,0.7c0,0.1-0.1,0.7-0.2,0.8
		c-0.2,0.7-0.2,2.6-0.3,3.3c1-0.1,5.4-0.2,6.3-0.3c0.2,0,1.1-0.1,1.2-0.1c1,0,1.8,0.7,1.8,1.1c0,0.3-0.3,0.5-0.6,0.5
		c-0.1,0-0.3,0-0.4-0.1c-1.7-0.4-3.8-0.4-4.8-0.4c-1.1,0-2.3,0.1-3.5,0.1c-0.1,1.1-0.1,2.1-0.1,2.5c0,0.5,0,0.9,0,1.6
		c0.3,0.5,0.8,1.6,0.8,3.5c0,1.1-0.2,4.8-3.6,7.6c-1.4,1.1-2.6,1.6-3.4,1.8L331.9,303.7z M333.3,292.9c0,1.5,1.3,2.8,2.4,2.8
		c1.4,0,1.4-1.9,1.4-2.2c0-2.1-0.7-2.9-2-2.9C334.5,290.7,333.3,291.5,333.3,292.9z"/>
	<path d="M350.4,299.1c0-2.1,1.7-3.8,3.8-3.8c2.1,0,3.8,1.7,3.8,3.8c0,2.1-1.7,3.8-3.8,3.8C352.1,302.9,350.4,301.2,350.4,299.1z
		 M357.2,299.1c0-1.7-1.4-3.1-3.1-3.1c-1.7,0-3.1,1.4-3.1,3.1c0,1.6,1.3,3.1,3.1,3.1C355.9,302.2,357.2,300.8,357.2,299.1z"/>
</g>
<g>
	<g>
		<path class="st0" d="M11.6,139.8c2.2-1.1,4.7-1.7,7.3-1.7c2.6,0,4.9,0.6,7,1.8c2.1,1.2,3.7,2.8,4.9,4.7c1.5,2.4,2.3,5,2.3,7.9
			c0,1.8-0.4,3.7-1.2,5.7c-0.8,2-1.8,3.6-3,4.8c-1.2,1.3-2.5,2.2-3.8,2.8s-2.3,1-3.1,1.1c-0.5,0.1-0.9,0.2-1.1,0.3
			c0.6,0.7,1.6,1.6,3,2.7c1.4,1.1,2.8,2,4.2,2.6c0.1,0,0.4,0.2,0.7,0.3c0.8,0.4,1.5,0.7,2.2,1l0.5,0.2l0.2,0l0.6,0.2
			c0.7,0.3,1.4,0.6,2.1,0.8c0,0.1,0,0.2,0,0.3l0,0.3v0.4c-0.5,0-0.7,0-0.8,0c-1.3,0-2.8-0.2-4.6-0.7s-3.3-1.1-4.8-2
			c-1.5-0.8-3-1.9-4.7-3.3c-1.1-0.9-2.1-1.8-2.9-2.7c-2.5-0.4-4.8-1.2-6.8-2.6c-2-1.4-3.6-3.1-4.6-5.1c-1.1-2-1.6-4.1-1.6-6.3
			c0-2.5,0.7-5,2-7.6C6.7,143.3,8.8,141.3,11.6,139.8z M15.8,166.3c0.8,0.1,1.5,0.2,2.2,0.2c1.6,0,3-0.2,4.2-0.7
			c1.3-0.5,2.3-1.1,3-1.9c1-1,1.8-2.5,2.5-4.3c0.7-1.8,1.1-4.2,1.1-6.9c0-2.2-0.3-4.2-1-6c-0.4-1.2-1.1-2.5-2.1-3.8
			c-1-1.3-2-2.2-3.1-2.8c-1.1-0.6-2.4-0.9-4.1-0.9c-1.9,0-3.7,0.5-5.4,1.5c-1.7,1-3.1,2.7-4.2,5.2c-0.7,1.6-1.1,3.8-1.1,6.6
			c0,2.3,0.4,4.5,1.2,6.7s1.9,4,3.4,5.3C13.1,165.3,14.3,165.9,15.8,166.3z"/>
		<path class="st0" d="M36,149.6h1.6l0.7,0l0.6,0c1.5,0,2.4,0,2.7,0l0,0.4c0,2,0,4-0.1,5.9c0,1.1-0.1,1.8-0.1,1.9
			c0,2.5,0.1,4.1,0.2,4.7c0.2,0.6,0.6,1.1,1.2,1.5c0.6,0.4,1.3,0.6,2.2,0.6c1,0,2-0.2,3-0.7c1-0.4,1.8-1,2.4-1.6
			c0.1-0.5,0.1-1.1,0.1-1.8c0-2.1,0-3.6,0.1-4.3c0-0.4,0-0.8,0-1.2c0-2.3-0.1-3.6-0.3-3.9c-0.2-0.3-1.1-0.5-2.6-0.7
			c-0.5-0.1-0.9-0.1-1.1-0.2c-0.1-0.2-0.2-0.3-0.2-0.4l0.1-0.2c0.4,0,0.7-0.1,1.1-0.1l3.4,0c1.2,0,1.9,0,1.9,0c0.2,0,0.3,0,0.5,0
			l0,1.6c-0.1,2.2-0.2,4.9-0.2,8.1l0,1.7l0.1,2.9c0.1,0.2,0.2,0.4,0.3,0.4c0.2,0.1,0.5,0.1,1.1,0.1h0.2c0.2,0,0.7,0,1.6,0.1
			c0,0.2,0,0.3,0,0.4v0.2c-1.9,0.4-3.5,0.8-4.7,1.2c-0.5,0.2-0.9,0.3-1.2,0.3c-0.1-0.5-0.1-0.8-0.1-0.9v-1.7c0-0.1,0-0.3,0-0.6
			c-0.2,0.1-0.4,0.3-0.6,0.5c-1.1,0.9-2.3,1.6-3.6,2.2c-0.8,0.4-1.7,0.6-2.4,0.6c-1.5,0-2.7-0.6-3.7-1.7c-1-1.1-1.4-3-1.4-5.7
			c0-0.1,0-0.4,0-0.8c0.1-0.7,0.1-1.2,0.1-1.4c0-0.1,0-0.4,0-0.9c0-0.2,0-0.4,0-0.6c0-0.1,0-0.4,0-0.9c0-0.5,0-0.8,0-1
			c0-0.2,0-0.5,0-0.6l0-1.1l0-0.6c0-0.2-0.1-0.4-0.3-0.6c-0.9-0.2-1.5-0.4-1.8-0.4c-0.3,0-0.5-0.1-0.7-0.2V149.6z"/>
		<path class="st0" d="M74.3,163.5c0.1,0.2,0.1,0.3,0.1,0.4c0,0.2-0.2,0.6-0.5,1.1c-0.4,0.7-0.9,1.2-1.5,1.6
			c-0.3,0.2-0.8,0.3-1.4,0.3c-1,0-1.8-0.3-2.3-0.9c-0.3-0.4-0.5-1-0.7-2l-2.4,1.7c-0.8,0.5-1.5,0.8-1.9,0.9
			c-0.7,0.2-1.6,0.3-2.6,0.3c-0.7,0-1.3-0.2-1.7-0.7c-0.4-0.4-0.6-1-0.6-1.7c0-1,0.6-2.2,1.8-3.5s2.9-2.5,4.9-3.4
			c1.5-0.6,2.4-1,2.7-1.2c0-0.5,0-1,0-1.5c0-1.8-0.3-3.1-0.8-3.7c-0.5-0.6-1.2-1-2.2-1c-1,0-1.9,0.4-2.8,1.2
			c-0.5,0.5-0.9,1.4-1.2,2.8c-0.1,0.4-0.3,0.8-0.5,1.2c-0.6,0.4-1.1,0.6-1.5,0.6c-0.3,0-0.6-0.1-0.9-0.3c-0.1-0.1-0.2-0.2-0.2-0.3
			c0-0.4,0.4-1.2,1.2-2.5s1.8-2.3,3-2.9c1.2-0.7,2.3-1,3.2-1c1.2,0,2.1,0.1,2.8,0.3c0.6,0.2,1.1,0.6,1.6,1.2
			c0.5,0.6,0.7,1.2,0.8,1.8c0.1,0.3,0.1,1.4,0.1,3.4l-0.1,3.4l0,2.5c0,0.3,0,0.6,0,0.8c0,0.4,0,0.7,0,0.9c0,0.5,0.1,0.9,0.4,1.1
			c0.3,0.3,0.6,0.4,1,0.4c0.5,0,1-0.3,1.4-0.8l0.3-0.3C73.9,163.6,74,163.6,74.3,163.5z M68,162.9c0.1-1.8,0.2-3.1,0.2-3.8
			c0-0.4,0-0.9-0.1-1.6c-1,0.3-2,0.9-3.1,1.6c-1.1,0.7-1.9,1.5-2.6,2.4c-0.5,0.7-0.7,1.3-0.7,1.9c0,0.6,0.2,1,0.6,1.4
			c0.4,0.4,0.9,0.6,1.4,0.6c0.4,0,1-0.2,1.6-0.5C66.2,164.4,67.1,163.8,68,162.9z"/>
		<path class="st0" d="M75.8,139.8v-0.5c0.4-0.1,0.8-0.3,1.3-0.4c0.7-0.2,1.8-0.6,3.2-1.1h1c0,0.7,0,1.1,0,1.2c0,11.8,0,18.8-0.1,21
			c0,1.3-0.1,2-0.1,2.1c0,1.6,0.1,2.5,0.2,2.7c0.2,0.3,0.7,0.4,1.6,0.5s1.4,0.2,1.6,0.3c0.1,0.1,0.2,0.2,0.2,0.3
			c0,0.2,0,0.3-0.1,0.3s-0.2,0.1-0.4,0.1c-0.1,0-0.9,0-2.3-0.1l-2.8-0.1l-3.6,0.2c-0.2,0-0.4,0-0.5-0.1c-0.1-0.1-0.1-0.2-0.1-0.3
			c0-0.1,0-0.3,0.1-0.3c0.1-0.1,0.6-0.2,1.5-0.3c0.9-0.2,1.5-0.3,1.6-0.4c0.1-0.1,0.2-0.3,0.3-0.7c0.1-0.5,0.1-2,0.1-4.4l0-4.9
			l0.1-5.1l0-5.1l0.1-2.5c0-0.5-0.1-0.9-0.2-1.1c-0.2-0.2-0.5-0.4-1-0.7C76.6,140.2,76.1,140,75.8,139.8z"/>
		<path class="st0" d="M86,151.2l0-0.6c0.9-0.3,1.4-0.4,1.5-0.5c0.5-0.2,1.1-0.6,1.6-1.1c0.6-0.5,1-1,1.4-1.6c0.2,0,0.3,0,0.4,0
			l0.3,0c0.1,0.7,0.1,1.2,0.1,1.5c0,0.1,0,0.4,0,1v1.1l0,6.2l-0.1,6.6c0,0.5,0.1,0.9,0.3,1.1c0.2,0.2,0.7,0.4,1.7,0.7
			c0.6,0.2,1,0.3,1.3,0.4c0,0.1,0.1,0.2,0.1,0.3c0,0.1,0,0.2-0.1,0.3c-0.6,0-1.3-0.1-2.1-0.1c-1.2-0.1-2-0.2-2.4-0.2
			c-0.2,0-1.3,0-3.4,0.1c-0.4,0-0.8,0-1.2,0.1c-0.1,0-0.2,0-0.3-0.1c-0.1-0.1-0.1-0.2-0.1-0.3c0-0.2,0.1-0.4,0.4-0.5
			c0.1,0,0.8-0.2,2.2-0.5c0.5-0.1,0.8-0.2,0.9-0.4c0.2-0.3,0.4-0.8,0.4-1.4c0-1.1,0-4.1,0-9.1c0-1,0-1.6-0.1-1.8
			c-0.1-0.2-0.3-0.4-0.6-0.6C87.7,151.7,87,151.4,86,151.2z M87.8,140.1c0-0.5,0.2-0.9,0.5-1.2s0.8-0.5,1.3-0.5c0.5,0,1,0.2,1.4,0.6
			c0.4,0.4,0.6,0.8,0.6,1.2c0,0.4-0.2,0.9-0.6,1.3c-0.4,0.4-0.9,0.6-1.4,0.6c-0.5,0-1-0.2-1.3-0.5C88,141.1,87.8,140.6,87.8,140.1z"
			/>
		<path class="st0" d="M101,145.2l0.7,0l0.1,2l0,2.6c0.3,0,0.4,0,0.5,0c0.4,0,1.1,0,2.1-0.1c0.7,0,1.3-0.1,1.9-0.1
			c0.3,0,0.7,0,1.3,0c0,0.3,0,0.5,0,0.7c0,0.2,0,0.5-0.1,0.9h-0.4l-3.3,0.1l-1.7,0l-0.4,0c-0.1,0.4-0.2,0.8-0.2,1.2l0.1,3.2l0,5.7
			c0,1.5,0.2,2.5,0.6,3c0.4,0.5,0.9,0.8,1.7,0.8c0.4,0,1.1-0.1,2.1-0.3c0.3-0.1,0.7-0.3,1.3-0.7h0.2c0.1,0,0.2,0,0.3,0.1
			c0.1,0.1,0.1,0.2,0.1,0.3l0,0.2c-0.6,0.7-1.3,1.2-2.1,1.5s-1.9,0.5-3.2,0.5c-0.9,0-1.7-0.2-2.3-0.6c-0.6-0.4-1-0.9-1.2-1.5
			c-0.2-0.6-0.3-1.9-0.3-3.8l0.1-4.8l0-2.3v-0.9c0-0.4,0-0.8,0-1.2l-0.4,0l-1.8,0.1l-0.2,0c-0.2,0-0.3,0-0.4-0.1
			c-0.1-0.1-0.1-0.2-0.1-0.3c0-0.2,0.1-0.3,0.2-0.4s0.4-0.3,1-0.5c0.4-0.2,0.8-0.5,1.3-0.9c0.5-0.4,0.9-0.9,1.3-1.5
			c0.2-0.3,0.4-0.8,0.7-1.6C100.7,145.9,100.9,145.5,101,145.2z"/>
		<path class="st0" d="M107.9,149.5c0.3,0,0.6,0,0.8,0h1l1.4,0l1.8,0.1l1.5,0c0.8,0,1.5,0.1,2.1,0.2c0.1,0.1,0.1,0.3,0.1,0.3l0,0.2
			c-0.3,0.1-0.8,0.2-1.4,0.3c-0.9,0.1-1.5,0.2-1.9,0.5l0,0.2c0,0.1,0.1,0.4,0.2,0.6c0.1,0.2,0.2,0.4,0.3,0.8c0.3,1.1,1,3.1,2,6.2
			c0.8,2.2,1.5,4.1,2.1,5.7c0.4-0.9,0.8-2,1.4-3.3l1.8-5.1c0.4-1.1,0.7-2.2,0.9-3.3c0.1-0.4,0.1-0.8,0.1-1.1c0-0.2-0.1-0.4-0.3-0.6
			c-0.2-0.2-0.6-0.3-1.1-0.5c-1-0.3-1.6-0.4-1.7-0.5s-0.1-0.2-0.2-0.4c0.1-0.1,0.2-0.1,0.3-0.2h1.3l1.4,0l2.1,0l1.4,0l0.3,0
			c0.1,0,0.3,0,0.5,0c0.1,0.1,0.2,0.2,0.2,0.3c0,0.1-0.1,0.3-0.2,0.4l-0.4,0.1c-0.8,0.1-1.5,0.3-1.9,0.6c-0.2,0.2-0.5,0.5-0.6,1.1
			c-0.1,0.2-0.2,0.5-0.3,0.8c-0.1,0.2-0.2,0.5-0.3,0.9s-0.3,0.9-0.5,1.4l-0.3,0.6l0,0.1l-3.6,9.6l-2.7,7.2c-0.2,0.4-0.4,0.8-0.6,1.3
			c-0.5,1-0.9,1.6-1,1.7c-0.4,0.5-0.8,0.9-1.1,1.1l-1.1,0.5c-0.2,0.1-0.4,0.1-0.7,0.1c-0.6,0-1.1-0.1-1.4-0.4
			c-0.3-0.3-0.5-0.7-0.5-1.2c0-0.5,0.2-0.9,0.7-1.3c0.1,0,0.3-0.1,0.4-0.2l0.3-0.1c1.3,0.2,2.1,0.3,2.4,0.3c0.3-0.2,0.5-0.3,0.7-0.6
			c0.7-1,1.3-2.2,1.8-3.5c0.5-1.3,0.8-2.1,0.8-2.6c0-0.5-0.2-1.2-0.6-2.1l-2.4-6.3c-0.3-0.8-1.3-3.5-2.9-8c-0.1-0.3-0.2-0.5-0.4-0.6
			l-1.5-0.5l-0.5-0.1c-0.2-0.1-0.4-0.2-0.4-0.4L107.9,149.5z"/>
		<path class="st0" d="M138.6,157.8c0-1,0.2-2,0.6-3.1c0.4-1.1,1-2.1,1.9-3c0.8-0.9,1.7-1.5,2.6-2c1.3-0.6,2.9-0.9,4.8-0.9
			c2.7,0,4.9,0.9,6.7,2.8c1.8,1.8,2.7,4,2.7,6.6c0,2.3-0.9,4.3-2.8,6.1c-1.9,1.8-4.3,2.7-7.1,2.7c-1.8,0-3.5-0.5-5-1.4
			c-1.2-0.7-2.2-1.7-3-3.1C139,161.2,138.6,159.6,138.6,157.8z M148.1,166.2c1.1,0,2.1-0.3,3.2-0.9c1-0.6,1.8-1.5,2.4-2.8
			c0.6-1.3,0.9-2.8,0.9-4.5c0-1.1-0.2-2.4-0.7-3.9c-0.5-1.5-1.2-2.6-2.2-3.3c-1-0.7-2.1-1.1-3.4-1.1c-0.9,0-1.9,0.2-2.9,0.7
			c-1,0.4-1.8,1.3-2.5,2.6c-0.7,1.3-1,3.1-1,5.4c0,2.6,0.6,4.6,1.8,5.9C144.8,165.5,146.3,166.2,148.1,166.2z"/>
		<path class="st0" d="M167.4,149.7c3.6,0.1,5.5,0.1,5.7,0.1c0,0.3,0,0.6,0,0.7c0,0.2,0,0.5-0.1,0.8c-0.4,0.1-0.7,0.1-1.1,0.1h-0.8
			c-1.8,0-3,0.1-3.7,0.2c0,0.3,0,0.6,0,0.8c0,0.1,0,0.2,0,0.3c0.1,2.2,0.1,3.6,0.1,4.1l0,5.5c0,0.8,0.1,1.5,0.4,2
			c0.2,0.3,0.5,0.6,0.9,0.8c0.3,0.1,0.9,0.3,2,0.4c0.8,0.1,1.3,0.2,1.6,0.2c0,0.3,0,0.5-0.1,0.7l-0.3,0c-0.7,0-1.6-0.1-2.7-0.1
			l-1.6-0.1l-5.4,0.2h-0.7l0-0.7c0.2,0,0.4-0.1,0.5-0.1c1.2-0.2,2-0.5,2.4-0.8c0.1-0.1,0.2-0.3,0.3-0.6c0-0.2,0-1,0-2.4
			c0-4.1,0-7.3-0.1-9.8c-0.4-0.1-0.9-0.2-1.7-0.2c-0.3,0-0.7,0-1.4-0.1l0-0.2c0-0.2,0.1-0.3,0.2-0.4c0.1-0.1,0.7-0.4,1.8-0.9
			c0.4-0.2,0.8-0.4,0.9-0.7c0.1-0.2,0.2-0.5,0.2-1c0-0.2,0.1-0.6,0.1-1.2c0.2-1.5,0.3-2.4,0.4-2.7c0.3-1,0.7-1.9,1.3-2.9
			c0.6-1,1.3-1.8,2.2-2.5c0.6-0.5,1.3-0.9,2.1-1.2c0.8-0.3,1.7-0.4,2.7-0.4c1.4,0,2.4,0.2,3,0.7c0.4,0.3,0.6,0.7,0.6,1.2
			c0,0.4-0.2,0.7-0.5,1s-0.7,0.4-1.1,0.4c-0.5,0-1.1-0.1-1.8-0.4c-1.2-0.5-1.9-0.7-2-0.8c-0.3-0.1-0.6-0.1-0.8-0.1
			c-0.8,0-1.5,0.3-2.2,0.8c-0.7,0.5-1.1,1.1-1.2,1.9s-0.3,2.4-0.3,4.9C167.3,148.1,167.3,149,167.4,149.7z"/>
		<path class="st0" d="M181.7,174.3c0.3-0.2,0.5-0.3,0.7-0.3c0.7,0,1.4,0.4,2.3,1.1c0.1,0.1,0.2,0.2,0.3,0.3l0.1,0.1
			c0.3,0.3,0.7,0.4,1.1,0.4c0.5,0,1.1-0.2,1.6-0.6c0.5-0.4,1-0.9,1.3-1.5c0.4-0.9,0.8-1.9,1-3.1c0.2-1.1,0.3-2.5,0.3-4.2l0-3.4
			l0-2.3c0-1.6-0.1-4-0.2-7.2l-0.1-8l0-4.1c0-0.4-0.1-0.7-0.2-1c-0.1-0.1-0.2-0.3-0.5-0.4c-0.2-0.1-0.5-0.2-1-0.2l-1.6-0.1
			c-0.5,0-0.8,0-1-0.2c-0.1-0.2-0.1-0.4-0.1-0.5l0-0.3c0.3,0,0.7,0,1.2,0c0.9,0,1.8,0.1,2.6,0.1c0.4,0,0.9,0,1.6,0
			c0.5,0,0.9,0,1.1,0h3.2c0.4,0,0.9,0,1.4,0.1c0,0.3,0,0.6,0,0.8c-1.2,0.1-2,0.1-2.3,0.3c-0.3,0.1-0.6,0.3-0.7,0.5
			c-0.1,0.1-0.2,0.4-0.2,0.8l-0.1,2.2l0,0.5c0,0.3,0,0.8,0,1.5v0.9c0,0.5,0,0.9,0,1.3c0,0.6,0,0.9,0,1c0,0.1,0,0.5,0,1
			c0,0.2,0,0.3,0,0.4l0.3,6l0,3.8v2.5c0,1.4-0.3,3.4-0.8,6c-0.4,1.9-1.1,3.6-2.2,5.1c-1,1.5-2.1,2.6-3.1,3.1c-1,0.6-2.4,0.8-4.1,0.8
			c-0.9,0-1.6-0.2-2.2-0.6c-0.4-0.3-0.6-0.7-0.6-1.2C180.9,175.1,181.2,174.7,181.7,174.3z"/>
		<path class="st0" d="M199.6,149.5c0.3,0,0.6,0,0.8,0h1l1.4,0l1.8,0.1l1.5,0c0.8,0,1.5,0.1,2.1,0.2c0.1,0.1,0.1,0.3,0.1,0.3l0,0.2
			c-0.3,0.1-0.8,0.2-1.4,0.3c-0.9,0.1-1.5,0.2-1.9,0.5l0,0.2c0,0.1,0.1,0.4,0.2,0.6c0.1,0.2,0.2,0.4,0.3,0.8c0.3,1.1,1,3.1,2,6.2
			c0.8,2.2,1.5,4.1,2.1,5.7c0.4-0.9,0.8-2,1.4-3.3l1.8-5.1c0.4-1.1,0.7-2.2,0.9-3.3c0.1-0.4,0.1-0.8,0.1-1.1c0-0.2-0.1-0.4-0.3-0.6
			c-0.2-0.2-0.6-0.3-1.1-0.5c-1-0.3-1.6-0.4-1.7-0.5s-0.1-0.2-0.2-0.4c0.1-0.1,0.2-0.1,0.3-0.2h1.3l1.4,0l2.1,0l1.4,0l0.3,0
			c0.1,0,0.3,0,0.5,0c0.1,0.1,0.2,0.2,0.2,0.3c0,0.1-0.1,0.3-0.2,0.4l-0.4,0.1c-0.8,0.1-1.5,0.3-1.9,0.6c-0.2,0.2-0.5,0.5-0.6,1.1
			c-0.1,0.2-0.2,0.5-0.3,0.8c-0.1,0.2-0.2,0.5-0.3,0.9s-0.3,0.9-0.5,1.4l-0.3,0.6l0,0.1l-3.6,9.6l-2.7,7.2c-0.2,0.4-0.4,0.8-0.6,1.3
			c-0.5,1-0.9,1.6-1,1.7c-0.4,0.5-0.8,0.9-1.1,1.1l-1.1,0.5c-0.2,0.1-0.4,0.1-0.7,0.1c-0.6,0-1.1-0.1-1.4-0.4
			c-0.3-0.3-0.5-0.7-0.5-1.2c0-0.5,0.2-0.9,0.7-1.3c0.1,0,0.3-0.1,0.4-0.2l0.3-0.1c1.3,0.2,2.1,0.3,2.4,0.3c0.3-0.2,0.5-0.3,0.7-0.6
			c0.7-1,1.3-2.2,1.8-3.5c0.5-1.3,0.8-2.1,0.8-2.6c0-0.5-0.2-1.2-0.6-2.1l-2.4-6.3c-0.3-0.8-1.3-3.5-2.9-8c-0.1-0.3-0.2-0.5-0.4-0.6
			l-1.5-0.5l-0.5-0.1c-0.2-0.1-0.4-0.2-0.4-0.4L199.6,149.5z"/>
		<path class="st0" d="M218.4,149.6h1.6l0.7,0l0.6,0c1.5,0,2.4,0,2.7,0l0,0.4c0,2,0,4-0.1,5.9c0,1.1-0.1,1.8-0.1,1.9
			c0,2.5,0.1,4.1,0.2,4.7c0.2,0.6,0.6,1.1,1.2,1.5c0.6,0.4,1.3,0.6,2.2,0.6c1,0,2-0.2,3-0.7c1-0.4,1.8-1,2.4-1.6
			c0.1-0.5,0.1-1.1,0.1-1.8c0-2.1,0-3.6,0.1-4.3c0-0.4,0-0.8,0-1.2c0-2.3-0.1-3.6-0.3-3.9c-0.2-0.3-1.1-0.5-2.6-0.7
			c-0.5-0.1-0.9-0.1-1.1-0.2c-0.1-0.2-0.2-0.3-0.2-0.4l0.1-0.2c0.4,0,0.7-0.1,1.1-0.1l3.4,0c1.2,0,1.9,0,1.9,0c0.2,0,0.3,0,0.5,0
			l0,1.6c-0.1,2.2-0.2,4.9-0.2,8.1l0,1.7l0.1,2.9c0.1,0.2,0.2,0.4,0.3,0.4c0.2,0.1,0.5,0.1,1.1,0.1h0.2c0.2,0,0.7,0,1.6,0.1
			c0,0.2,0,0.3,0,0.4v0.2c-1.9,0.4-3.5,0.8-4.7,1.2c-0.5,0.2-0.9,0.3-1.2,0.3c-0.1-0.5-0.1-0.8-0.1-0.9v-1.7c0-0.1,0-0.3,0-0.6
			c-0.2,0.1-0.4,0.3-0.6,0.5c-1.1,0.9-2.3,1.6-3.6,2.2c-0.8,0.4-1.7,0.6-2.4,0.6c-1.5,0-2.7-0.6-3.7-1.7c-1-1.1-1.4-3-1.4-5.7
			c0-0.1,0-0.4,0-0.8c0.1-0.7,0.1-1.2,0.1-1.4c0-0.1,0-0.4,0-0.9c0-0.2,0-0.4,0-0.6c0-0.1,0-0.4,0-0.9c0-0.5,0-0.8,0-1
			c0-0.2,0-0.5,0-0.6l0-1.1l0-0.6c0-0.2-0.1-0.4-0.3-0.6c-0.9-0.2-1.5-0.4-1.8-0.4c-0.3,0-0.5-0.1-0.7-0.2V149.6z"/>
		<path class="st0" d="M240.4,166.4l0-0.6c0.1-0.1,0.2-0.1,0.3-0.2c0.1,0,0.5-0.1,1.1-0.1s1-0.2,1.2-0.4c0.2-0.2,0.2-1.2,0.2-2.9
			l0-8.5l0-1.5c0-0.1,0-0.6,0-1.4c0-0.4,0-0.9,0-1.4l-0.1-3.7l0-3.3c0-0.8-0.1-1.3-0.3-1.5c-0.2-0.2-1-0.4-2.4-0.6V140
			c0-0.1,0-0.2,0-0.4c0.8-0.2,1.5-0.4,2.2-0.6c0.3-0.1,1.2-0.6,2.5-1.3h0.7c0,0.3,0,0.5,0,0.6v1.9l0,0.9l0.1,1.7l0,2.6l0,4.3
			l-0.1,5.3v1.6c0,0.2,0,0.5,0,0.8l0.2,0c0.5,0,1-0.2,1.5-0.5c2.2-1.6,3.7-2.7,4.2-3.3c0.6-0.6,0.9-1,0.9-1.3c0-0.2-0.1-0.4-0.3-0.6
			c-0.4-0.2-0.9-0.4-1.4-0.5c-0.2,0-0.3-0.1-0.5-0.1c-0.3-0.1-0.5-0.1-0.6-0.2l0-0.2c0-0.1,0-0.2,0.1-0.4c2.3-0.1,4.2-0.1,5.9-0.1
			c0.9,0,2,0,3,0.1v0.3c0,0.1,0,0.2-0.1,0.4c-0.2,0-0.6,0.1-1,0.2c-0.9,0.1-1.6,0.3-2,0.6c-1.1,0.6-2.2,1.4-3.4,2.5
			c-0.7,0.6-1.3,1.2-1.8,1.6l-0.8,0.7c0.1,0.1,0.2,0.2,0.3,0.4c0.1,0.1,0.2,0.2,0.3,0.4c0.2,0.2,0.5,0.5,0.9,1
			c1.5,1.6,2.7,2.9,3.4,3.8c0.2,0.3,0.5,0.6,0.8,0.9c1.1,1.2,1.8,1.9,2,2.1c0.4,0.3,1,0.5,1.8,0.6c0.4,0.1,0.7,0.1,1,0.2
			c0.1,0.2,0.1,0.3,0.1,0.4l0,0.2c-1-0.1-1.7-0.1-2.2-0.1h-0.4l-6,0.2c-0.2,0-0.4,0-0.5,0c-0.1,0-0.3,0-0.5-0.1
			c0-0.1-0.1-0.2-0.1-0.3V166c0.1-0.1,0.2-0.2,0.2-0.2c1.4-0.1,2.2-0.2,2.5-0.3c0.1,0,0.2-0.1,0.4-0.2c0-0.2-0.2-0.6-0.6-1.2
			c-0.4-0.5-1.5-1.7-3.1-3.6c-1.1-1.2-1.7-1.9-2-2.1c-0.3-0.2-0.7-0.3-1.3-0.3h-0.8c-0.1,0.5-0.1,1.7-0.1,3.5c0,1.7,0.1,2.8,0.4,3.3
			c0.2,0.3,0.5,0.4,1.1,0.5c0.6,0.1,1,0.2,1.1,0.3c0.1,0.1,0.2,0.3,0.2,0.6c-0.9,0-1.6,0-2.2,0c-0.9,0-2,0-3.1,0.1
			c-0.7,0-1.2,0-1.6,0C241.5,166.5,241,166.5,240.4,166.4z"/>
		<path class="st0" d="M260.1,149.5c0.3,0,0.6,0,0.8,0h1l1.4,0l1.8,0.1l1.5,0c0.8,0,1.5,0.1,2.1,0.2c0.1,0.1,0.1,0.3,0.1,0.3l0,0.2
			c-0.3,0.1-0.8,0.2-1.4,0.3c-0.9,0.1-1.5,0.2-1.9,0.5l0,0.2c0,0.1,0.1,0.4,0.2,0.6c0.1,0.2,0.2,0.4,0.3,0.8c0.3,1.1,1,3.1,2,6.2
			c0.8,2.2,1.5,4.1,2.1,5.7c0.4-0.9,0.8-2,1.4-3.3l1.8-5.1c0.4-1.1,0.7-2.2,0.9-3.3c0.1-0.4,0.1-0.8,0.1-1.1c0-0.2-0.1-0.4-0.3-0.6
			c-0.2-0.2-0.6-0.3-1.1-0.5c-1-0.3-1.6-0.4-1.7-0.5s-0.1-0.2-0.2-0.4c0.1-0.1,0.2-0.1,0.3-0.2h1.3l1.4,0l2.1,0l1.4,0l0.3,0
			c0.1,0,0.3,0,0.5,0c0.1,0.1,0.2,0.2,0.2,0.3c0,0.1-0.1,0.3-0.2,0.4l-0.4,0.1c-0.8,0.1-1.5,0.3-1.9,0.6c-0.2,0.2-0.5,0.5-0.6,1.1
			c-0.1,0.2-0.2,0.5-0.3,0.8c-0.1,0.2-0.2,0.5-0.3,0.9s-0.3,0.9-0.5,1.4l-0.3,0.6l0,0.1l-3.6,9.6l-2.7,7.2c-0.2,0.4-0.4,0.8-0.6,1.3
			c-0.5,1-0.9,1.6-1,1.7c-0.4,0.5-0.8,0.9-1.1,1.1l-1.1,0.5c-0.2,0.1-0.4,0.1-0.7,0.1c-0.6,0-1.1-0.1-1.4-0.4
			c-0.3-0.3-0.5-0.7-0.5-1.2c0-0.5,0.2-0.9,0.7-1.3c0.1,0,0.3-0.1,0.4-0.2l0.3-0.1c1.3,0.2,2.1,0.3,2.4,0.3c0.3-0.2,0.5-0.3,0.7-0.6
			c0.7-1,1.3-2.2,1.8-3.5c0.5-1.3,0.8-2.1,0.8-2.6c0-0.5-0.2-1.2-0.6-2.1l-2.4-6.3c-0.3-0.8-1.3-3.5-2.9-8c-0.1-0.3-0.2-0.5-0.4-0.6
			l-1.5-0.5l-0.5-0.1c-0.2-0.1-0.4-0.2-0.4-0.4L260.1,149.5z"/>
		<path class="st0" d="M279.7,157.8c0-1,0.2-2,0.6-3.1c0.4-1.1,1-2.1,1.9-3c0.8-0.9,1.7-1.5,2.6-2c1.3-0.6,2.9-0.9,4.8-0.9
			c2.7,0,4.9,0.9,6.7,2.8c1.8,1.8,2.7,4,2.7,6.6c0,2.3-0.9,4.3-2.8,6.1c-1.9,1.8-4.3,2.7-7.1,2.7c-1.8,0-3.5-0.5-5-1.4
			c-1.2-0.7-2.2-1.7-3-3.1C280.1,161.2,279.7,159.6,279.7,157.8z M289.2,166.2c1.1,0,2.1-0.3,3.2-0.9c1-0.6,1.8-1.5,2.4-2.8
			c0.6-1.3,0.9-2.8,0.9-4.5c0-1.1-0.2-2.4-0.7-3.9c-0.5-1.5-1.2-2.6-2.2-3.3c-1-0.7-2.1-1.1-3.4-1.1c-0.9,0-1.9,0.2-2.9,0.7
			c-1,0.4-1.8,1.3-2.5,2.6c-0.7,1.3-1,3.1-1,5.4c0,2.6,0.6,4.6,1.8,5.9C286,165.5,287.5,166.2,289.2,166.2z"/>
		<path class="st0" d="M340.3,140.4l0.2,3.3c0.1,1,0.1,1.7,0.1,2l-0.6,0.1c-1-2.2-2.2-3.8-3.6-4.9c-1.4-1.1-3.2-1.6-5.2-1.6
			c-2.5,0-4.5,0.3-5.9,0.9c-2,0.9-3.8,2.4-5.2,4.6c-1.4,2.2-2.2,4.8-2.2,7.8c0,1.8,0.3,3.3,0.8,4.7c0.5,1.4,1.3,2.7,2.2,3.9
			c1,1.2,2.1,2.3,3.4,3.1c0.9,0.6,1.9,1,3.1,1.3c0.7,0.2,1.7,0.2,3,0.2c0.9,0,1.8-0.1,2.9-0.4c1-0.2,1.8-0.6,2.4-1
			c0.5-0.4,0.9-0.9,1.1-1.4s0.3-1.5,0.3-3c0-2.5-0.2-3.9-0.5-4.3c-0.3-0.4-1.4-0.7-3.1-0.8l-0.9-0.1l-0.6,0c-0.1,0-0.2,0-0.3-0.1
			l-0.3-0.5c0-0.1,0-0.2,0.2-0.3c0.7-0.1,2.4-0.2,4.9-0.2c0.6,0,1.5,0,2.7,0l2.2,0.1l2,0c0.4,0,0.9,0,1.4,0c0.1,0,0.2,0,0.2,0.1
			c0,0,0,0.1,0,0.2c0,0.2,0,0.4-0.1,0.6c-0.6,0.1-1.1,0.2-1.4,0.2l-1.4,0c-0.5,0-0.9,0.2-1.1,0.5c-0.1,0.2-0.2,0.7-0.2,1.6l0,2.8
			c0,1.9-0.1,3.2-0.2,3.7c-0.1,0.3-0.3,0.6-0.5,0.8c-0.3,0.3-0.8,0.5-1.7,0.9c-1.2,0.5-2.4,0.8-3.4,1c-1.9,0.3-3.7,0.5-5.5,0.5
			c-2.8,0-5.2-0.4-7-1.1c-1.8-0.7-3.4-1.7-4.7-3s-2.2-2.6-2.8-3.9c-0.8-1.9-1.3-3.9-1.3-5.9c0-2.5,0.7-5,2-7.4
			c1.3-2.4,3.5-4.4,6.4-5.9c2.1-1.1,4.9-1.6,8.5-1.6c2.5,0,4.5,0.2,6,0.6S339.3,139.8,340.3,140.4z"/>
		<path class="st0" d="M346.4,166.5l-0.1-0.3c0-0.1,0.1-0.3,0.2-0.5l1.3-0.3l1.8-0.3c0.1-0.1,0.2-0.2,0.3-0.3
			c0.1-0.2,0.1-0.7,0.1-1.7c0-4.9,0-7.7-0.1-8.4c-0.1-0.8-0.2-1.2-0.4-1.4c-0.2-0.2-0.7-0.4-1.5-0.5c-0.5-0.1-0.9-0.2-1.2-0.3
			l0.1-0.7c1.5-0.6,2.5-1.1,3-1.6c0.7-0.6,1.3-1.5,1.8-2.5l0.7,0c0.1,0.7,0.1,2.3,0.1,4.8l0,0.4c0,0.1,0,0.2,0,0.4
			c0.5-1,1.2-1.9,2-2.7l0.5-0.5c0.2-0.2,0.4-0.4,0.6-0.5c1-0.6,1.7-0.9,2.2-0.9c0.6,0,1.1,0.2,1.5,0.6c0.4,0.4,0.6,0.9,0.6,1.6
			c0,0.5-0.1,0.9-0.4,1.1c-0.4,0.4-0.8,0.5-1.3,0.5c-0.2,0-0.7-0.1-1.4-0.4c-0.7-0.2-1.1-0.4-1.3-0.4c-0.4,0-0.7,0.1-0.8,0.2
			c-0.4,0.3-0.9,1-1.5,1.9c-0.4,0.7-0.7,1.4-0.7,2l0.1,3.6l0,4.3c0,0.5,0.1,0.8,0.2,0.9c0.1,0.1,0.2,0.2,0.4,0.4
			c1.5,0.1,2.5,0.2,2.8,0.3c0.2,0,0.4,0,0.5,0c0.6,0,1,0.1,1.3,0.3c0.1,0.1,0.2,0.2,0.2,0.3c0,0.1-0.1,0.2-0.2,0.3l-2.4,0l-0.9,0
			l-1.3,0h-2.2l-1.2,0.1L346.4,166.5z"/>
		<path class="st0" d="M361.8,157.8c0-1,0.2-2,0.6-3.1c0.4-1.1,1-2.1,1.9-3c0.8-0.9,1.7-1.5,2.6-2c1.3-0.6,2.9-0.9,4.8-0.9
			c2.7,0,4.9,0.9,6.7,2.8c1.8,1.8,2.7,4,2.7,6.6c0,2.3-0.9,4.3-2.8,6.1c-1.9,1.8-4.3,2.7-7.1,2.7c-1.8,0-3.5-0.5-5-1.4
			c-1.2-0.7-2.2-1.7-3-3.1C362.2,161.2,361.8,159.6,361.8,157.8z M371.3,166.2c1.1,0,2.1-0.3,3.2-0.9c1-0.6,1.8-1.5,2.4-2.8
			c0.6-1.3,0.9-2.8,0.9-4.5c0-1.1-0.2-2.4-0.7-3.9c-0.5-1.5-1.2-2.6-2.2-3.3c-1-0.7-2.1-1.1-3.4-1.1c-0.9,0-1.9,0.2-2.9,0.7
			c-1,0.4-1.8,1.3-2.5,2.6c-0.7,1.3-1,3.1-1,5.4c0,2.6,0.6,4.6,1.8,5.9C368,165.5,369.5,166.2,371.3,166.2z"/>
		<path class="st0" d="M383.4,149.6h1.6l0.7,0l0.6,0c1.5,0,2.4,0,2.7,0l0,0.4c0,2,0,4-0.1,5.9c0,1.1-0.1,1.8-0.1,1.9
			c0,2.5,0.1,4.1,0.2,4.7c0.2,0.6,0.6,1.1,1.2,1.5c0.6,0.4,1.3,0.6,2.2,0.6c1,0,2-0.2,3-0.7c1-0.4,1.8-1,2.4-1.6
			c0.1-0.5,0.1-1.1,0.1-1.8c0-2.1,0-3.6,0.1-4.3c0-0.4,0-0.8,0-1.2c0-2.3-0.1-3.6-0.3-3.9c-0.2-0.3-1.1-0.5-2.6-0.7
			c-0.5-0.1-0.9-0.1-1.1-0.2c-0.1-0.2-0.2-0.3-0.2-0.4l0.1-0.2c0.4,0,0.7-0.1,1.1-0.1l3.4,0c1.2,0,1.9,0,1.9,0c0.2,0,0.3,0,0.5,0
			l0,1.6c-0.1,2.2-0.2,4.9-0.2,8.1l0,1.7l0.1,2.9c0.1,0.2,0.2,0.4,0.3,0.4c0.2,0.1,0.5,0.1,1.1,0.1h0.2c0.2,0,0.7,0,1.6,0.1
			c0,0.2,0,0.3,0,0.4v0.2c-1.9,0.4-3.5,0.8-4.7,1.2c-0.5,0.2-0.9,0.3-1.2,0.3c-0.1-0.5-0.1-0.8-0.1-0.9v-1.7c0-0.1,0-0.3,0-0.6
			c-0.2,0.1-0.4,0.3-0.6,0.5c-1.1,0.9-2.3,1.6-3.6,2.2c-0.8,0.4-1.7,0.6-2.4,0.6c-1.5,0-2.7-0.6-3.7-1.7c-1-1.1-1.4-3-1.4-5.7
			c0-0.1,0-0.4,0-0.8c0.1-0.7,0.1-1.2,0.1-1.4c0-0.1,0-0.4,0-0.9c0-0.2,0-0.4,0-0.6c0-0.1,0-0.4,0-0.9c0-0.5,0-0.8,0-1
			c0-0.2,0-0.5,0-0.6l0-1.1l0-0.6c0-0.2-0.1-0.4-0.3-0.6c-0.9-0.2-1.5-0.4-1.8-0.4c-0.3,0-0.5-0.1-0.7-0.2V149.6z"/>
		<path class="st0" d="M404.7,177.7c0-0.2,0-0.3,0-0.4c0-0.1,0-0.2,0-0.4l2.2-0.4c0.3-0.2,0.6-0.4,0.8-0.6c0.1-0.3,0.1-0.5,0.1-0.8
			c0-2.2-0.1-6.4-0.2-12.6l-0.1-7.9c0-1.2-0.1-2-0.2-2.4c-0.1-0.2-0.2-0.3-0.3-0.4c-0.4-0.3-1.1-0.5-2.1-0.7l0.1-0.7
			c1.5-0.7,2.6-1.2,3.1-1.5c0.5-0.4,1-0.9,1.5-1.5l0.3-0.1c0.1,0,0.2,0,0.4,0.1c0,0.9,0,1.5,0,1.8l0,2.4c1.1-0.8,2.2-1.4,3.3-1.8
			c1.1-0.4,2.3-0.6,3.6-0.6c2.2,0,4.1,0.8,5.6,2.3c1.5,1.6,2.3,3.6,2.3,6c0,1.8-0.4,3.5-1.3,4.9c-0.9,1.4-2,2.5-3.5,3.2
			c-1.5,0.7-3,1.1-4.5,1.1c-1.3,0-2.8-0.4-4.4-1.1c-0.3-0.1-0.5-0.2-0.7-0.3c0,1.1,0,2.2,0,3.1c0,4.4,0.1,6.9,0.4,7.4
			c0.1,0.3,0.5,0.5,1.2,0.5c1.2,0.1,1.9,0.3,2.3,0.5c0.2,0.1,0.4,0.4,0.4,0.8l-2.1,0l-1.9,0l-3.2,0L404.7,177.7z M410.3,153.1
			c0,0.2,0,0.4,0,0.6c0,5.1,0,8,0.2,8.6c0.2,1.1,0.6,1.9,1.2,2.4c0.9,0.7,2.3,1.1,4,1.1c1.8,0,3.3-0.6,4.5-1.9
			c1.2-1.2,1.8-2.8,1.8-4.8c0-2.4-0.7-4.3-2-5.7c-1.3-1.4-3-2.1-5.2-2.1c-0.9,0-1.7,0.1-2.5,0.4C411.7,152,411,152.5,410.3,153.1z"
			/>
	</g>
</g>
<g>
	<g>
		<path class="st0" d="M0.1,55.9c0-8.4,1.9-17.1,5.8-26.2c4.7-10.9,9.7-18.4,15.3-22.6c5.5-4.2,11-6.3,16.4-6.3
			c4.7,0,8.5,1.8,11.2,5.3C52.3,10.8,54,18,54,27.8c0,11.2-2.9,22.5-8.7,33.7c-3.6,7-8.4,12.8-14.2,17.3c-4.4,3.4-8.8,5.2-13.1,5.2
			c-4.7,0-8.6-2-11.6-5.8C2.2,72.6,0.1,65.2,0.1,55.9z M8.3,64.4c0,6.4,0.9,10.8,2.6,13.1c1.7,2.3,4,3.4,6.7,3.4
			c3.9,0,7.4-1.7,10.4-5.2c4.6-5.1,9.1-15.1,13.5-30c3.6-12,5.3-21.3,5.3-27.9c0-4.9-1-8.7-3.1-11.3c-1.4-1.8-3.5-2.8-6.4-2.8
			c-4.2,0-8.1,2.1-11.8,6.4c-4.7,5.3-9,14.6-12.6,27.7C9.8,48.5,8.3,57.3,8.3,64.4z"/>
		<path class="st0" d="M74.4,40.7l13-38.4l5.8-0.1c1.8,0,4.4,0.1,7.9,0.2c2.1,0.1,3.4,0.2,4,0.2c4.4,0,7.2-0.1,8.3-0.4
			c0.6-0.2,1.1-0.6,1.6-1.2c0.5-0.7,1.1-1,1.9-1h1.2l-2.4,8c-0.4,1.3-0.8,2.1-1.1,2.5c-2.1,0.3-4.2,0.5-6.4,0.5
			c-2.3,0-6.3-0.1-12.1-0.3c-3-0.1-5.6-0.2-7.7-0.2l-6.6,19.4c2.4-0.7,4.4-1.1,6-1.1c4.9,0,8.9,1.6,12.1,4.8s4.8,7.3,4.8,12.3
			c0,6.2-2.1,12.4-6.4,18.6c-4.3,6.2-10.7,11.2-19.3,15c-5.9,2.6-13.6,4-23.1,4.3c-0.1-0.6-0.1-1.1-0.1-1.5c0-0.5,0.1-0.9,0.4-1.3
			c2.7,0,6.5-0.6,11.3-1.7c4.8-1.1,9.3-3.1,13.5-5.8c4.2-2.8,7.7-6.7,10.6-11.6c2.9-5,4.4-9.5,4.4-13.7c0-3.4-1-6.1-3.1-8.2
			c-2-2.1-4.6-3.2-7.8-3.2C82.2,36.8,78.6,38.1,74.4,40.7z"/>
	</g>
</g>
</svg>
