<?xml version="1.0" encoding="utf-8"?>
<!-- Generator: Adobe Illustrator 27.0.0, SVG Export Plug-In . SVG Version: 6.00 Build 0)  -->
<svg version="1.1" id="レイヤー_1" xmlns="http://www.w3.org/2000/svg" xmlns:xlink="http://www.w3.org/1999/xlink" x="0px"
	 y="0px" viewBox="0 0 750 230" style="enable-background:new 0 0 750 230;" xml:space="preserve">
<style type="text/css">
	.st0{fill:#231815;}
</style>
<g>
	<g>
		<path d="M60.9,163.5v0.3c0,0.3,0,0.7-0.4,0.7c-0.2,0-0.3-0.2-0.4-0.4l-1.1-2.3c0.2,0,0.3,0.1,0.5,0.1c0.6,0,1-0.1,3.6-1v-6.7
			c-0.4,0-1.9,0.1-3,0.3l-0.6-1.1c1,0.1,2.6,0.2,3.6,0.2V147c-0.9,0-2.4,0.1-3.4,0.3l-0.6-1.1c1.4,0.1,3,0.2,4.3,0.2h2.4l0.7-0.8
			c0.2-0.3,0.3-0.3,0.4-0.3c0.2,0,0.4,0.2,0.5,0.3l0.9,0.8c0.2,0.2,0.3,0.2,0.3,0.4c0,0.3-0.3,0.3-0.4,0.3h-3.7v6.5h1.1l1-1
			c0.2-0.2,0.3-0.3,0.4-0.3c0.2,0,0.3,0.1,0.4,0.3l1,1c0.2,0.2,0.2,0.3,0.2,0.4c0,0.3-0.3,0.3-0.4,0.3h-3.8v6.2
			c0.5-0.2,2.8-1.1,3.3-1.2c0.5-0.2,0.6-0.3,0.9-0.4l0.1,0.2C67.4,160,63.6,162.2,60.9,163.5z M82.8,166.4H68.3
			c-0.9,0-2.3,0.1-3.3,0.3l-0.6-1.1c1.9,0.2,3.8,0.2,4.3,0.2h5.4v-4.8h-1.5c-0.9,0-2.4,0.1-3.4,0.3l-0.6-1.1
			c1.9,0.2,3.8,0.2,4.3,0.2h1.2v-4.3h-3.3c0,0.4,0,0.7-0.1,0.9c-0.1,0.2-0.4,0.6-1,0.6c-0.5,0-0.5-0.4-0.5-0.6c0-0.1,0-0.1,0-0.4
			c0.2-2.6,0.2-7.9,0.2-8.2c0-1.7-0.1-2.7-0.3-3.6l2.1,0.9h7.3l0.7-0.7c0.2-0.2,0.3-0.3,0.4-0.3s0.3,0.2,0.4,0.3l1.1,0.8
			c0.1,0.1,0.3,0.3,0.3,0.4c0,0.3-0.6,0.6-0.8,0.7c0,0.3,0,6.2,0,7.1c0,0.3,0.1,1.8,0.1,2.1c0,0.6-0.6,1.1-1.1,1.1
			c-0.6,0-0.6-0.3-0.5-1.2h-3.6v4.3h2.9l1-1c0.1-0.1,0.3-0.3,0.4-0.3s0.3,0.2,0.5,0.3l1.2,1c0.1,0.1,0.3,0.2,0.3,0.4
			c0,0.2-0.2,0.3-0.4,0.3h-5.8v4.8h4.4l0.9-1c0.3-0.3,0.3-0.3,0.4-0.3s0.2,0,0.5,0.3l1.2,1c0.1,0.1,0.3,0.2,0.3,0.4
			C83.2,166.4,82.9,166.4,82.8,166.4z M74.1,146.3h-3.3v4.2h3.3V146.3z M74.1,151.2h-3.3v4.3h3.3V151.2z M79.1,146.3h-3.6v4.2h3.6
			V146.3z M79.1,151.2h-3.6v4.3h3.6V151.2z"/>
		<path d="M94.8,148.4h-3.8c0,0.7,0,1.2,0,2.5c1.3,0.1,3.7,1,3.7,2.5c0,0.5-0.2,0.8-0.6,0.8c-0.5,0-0.7-0.2-1.5-1.5
			c-0.4-0.6-0.9-1.2-1.6-1.5c0,0.8,0.1,4.6,0.1,4.9v2.1c0,1.1-1,1.1-1.1,1.1c-0.3,0-0.4-0.1-0.4-0.4c0-0.4,0.1-2.1,0.1-2.4
			c0.1-1.8,0.1-5,0.1-5.9c-1.7,3.5-4.4,5.6-6.2,6.7l-0.1-0.2c1.8-1.5,5.3-6.6,5.9-8.6h-0.9c-0.8,0-2.3,0.1-3.3,0.3l-0.6-1.1
			c1.4,0.1,2.9,0.2,4.3,0.2h1c-0.1-2.5-0.1-2.9-0.4-3.8l2.1,0.5c0.3,0.1,0.4,0.3,0.4,0.4c0,0.3-0.2,0.4-0.8,0.7c0,0.6,0,1.6,0,2.2
			h1.4l0.6-0.9c0.1-0.2,0.3-0.3,0.4-0.3c0.1,0,0.3,0.1,0.5,0.3l1,0.9c0.1,0.1,0.3,0.2,0.3,0.4C95.2,148.4,95,148.4,94.8,148.4z
			 M85.4,166.9c-0.4,0-0.8-0.2-0.8-0.8s0.3-0.8,0.8-1.2c0.4-0.3,1.5-1.3,1.9-3.3h0.2c0,0.3,0.1,0.6,0.1,1.1
			C87.5,165.7,86.2,166.9,85.4,166.9z M101.5,166.6c-1.1,0.6-3.7,0.7-5.1,0.7c-0.9,0-4.2,0-4.9-0.4c-0.8-0.4-0.8-1.3-0.8-2.3
			c0-2.5,0-3.3-0.2-4.3l2,0.6c0.2,0.1,0.3,0.2,0.3,0.3c0,0.3-0.5,0.7-0.9,1c-0.1,0.8-0.1,3,0.1,3.4c0.2,0.3,0.5,0.4,0.9,0.4
			c0.6,0,3.3,0.1,3.7,0.1c2.1,0,3-0.3,3.5-1c0.5-0.8,0.8-1.7,1.1-2.6h0.1c0.1,2.2,0.2,2.4,0.9,2.7c0.1,0.1,0.2,0.1,0.2,0.3
			C102.5,165.5,102.4,166.1,101.5,166.6z M96.9,163.1c-0.5,0-0.7-0.3-1-1.1c-0.2-0.4-0.9-1.6-1.7-2.1l0.1-0.2
			c0.4,0.1,1.5,0.4,2.2,0.9c0.9,0.6,1.1,1.3,1.1,1.6C97.6,162.7,97.3,163.1,96.9,163.1z M105.1,147.1c0,2.5,0,6.5,0.1,8.8
			c0,0.3,0.2,2.1,0.2,2.3c0,0.6-0.7,1-1,1c-0.5,0-0.6-0.6-0.5-1h-6.2c0,0.4-0.6,0.8-1,0.8c-0.4,0-0.5-0.4-0.5-0.6
			c0-0.2,0.1-1,0.1-1.2c0-0.5,0.1-5.4,0.1-9c0-1.2,0-1.3-0.2-3.2l1.7,0.8h5.7l0.6-0.6c0.1-0.1,0.3-0.3,0.4-0.3s0.4,0.2,0.5,0.2
			l0.8,0.5c0.2,0.1,0.3,0.2,0.3,0.4C106.1,146.5,105.7,146.8,105.1,147.1z M103.8,146.5h-6.3v3.2h6.3V146.5z M103.8,150.3h-6.3v3.1
			h6.3V150.3z M103.8,154.1h-6.3v3.5h6.3V154.1z M106.7,165.6c-0.6,0-0.7-0.4-1.1-1.3c-0.6-1.7-1.6-2.8-2-3.3l0.1-0.1
			c2.5,0.9,3.8,2.8,3.8,3.8C107.5,165.3,107.2,165.6,106.7,165.6z"/>
		<path d="M121.2,164.9c7.8-2.7,8.1-8.3,8.1-9.6c0-4.5-4.3-7-8.1-7c-0.5,0-0.7,0.1-1,0.1c1.3,1.1,1.3,1.8,1.3,2
			c0,0.3-0.1,0.4-0.6,1.6c-3.2,6.6-3.5,7.3-4.9,9.5c-0.1,0.2-1,1.4-1.5,1.6c-0.2,0.1-0.3,0.1-0.5,0.1c-0.6,0-0.8-0.3-1.5-1.3
			c-0.2-0.3-0.3-0.4-0.7-0.7c-1-0.8-1.4-1.7-1.4-3.5c0-5.2,4.4-10.1,11-10.1c4.8,0,9.5,2.7,9.5,8.1c0,4.8-3.8,9-9.7,9.6L121.2,164.9
			z M118.3,154.8c0.8-1.5,1.5-3.5,1.5-4.5c0-0.9-0.5-1.4-0.7-1.7c-2.9,0.2-7.3,4.1-7.3,9.2c0,2,1.2,3.7,2.3,3.7c0.2,0,0.3,0,0.5-0.2
			c0.6-0.6,1-1.4,1.5-2.3L118.3,154.8z"/>
		<path d="M149.3,162.8c0,0.1,0,1-0.8,1c-0.4,0-0.4,0-1.5-1.6c-1.2-1.8-2.9-3.4-4.2-4.4c-1-0.8-1.7-1.2-2.4-1.6
			c1,0.1,2.4,0.3,5.6,2.6c1.4-1.1,4.7-4.8,6.7-7.9c-1.2,0-3.8,0.1-4.9,0.2c-7.2,0.9-9.1,1.1-10.1,1.9c-0.4,0.3-0.4,0.3-0.6,0.3
			c-0.6,0-2.3-1.2-2.3-3c0-0.3,0.1-0.4,0.1-0.7c0.6,1.3,1.4,1.6,2.4,1.6c0.7,0,13.8-1,14.2-1c0.9-0.1,1.1-0.3,1.7-0.6
			c0.4-0.3,0.5-0.3,0.6-0.3c0.3,0,1.1,1,1.5,1.4c0.3,0.4,0.4,0.5,0.4,0.8c0,0.3-0.1,0.3-1,0.5c-0.5,0.1-0.7,0.2-1.7,1.3
			c-3.7,3.6-5,4.9-6.7,6C147.6,159.8,149.3,161.2,149.3,162.8z"/>
		<path d="M161,159.4c6.2-4.4,11.1-9.1,13.2-12c0.4-0.5,0.4-0.8,0.4-1c0-0.2,0-0.5-0.4-0.7c-0.2-0.1-0.8-0.5-1-0.6
			c0.3-0.1,0.6-0.2,0.9-0.2c1.1,0,2,0.7,2.5,1.3c0.3,0.3,0.5,0.5,0.5,0.9c0,0.3-0.2,0.3-0.5,0.5c-0.4,0.2-0.5,0.2-1.2,1
			c-2.8,2.8-3.1,3.1-4.1,4.1c0.5,0.2,1.3,0.6,1.3,1c0,0.1-0.3,0.7-0.3,0.8c-0.1,0.3-0.1,0.8-0.1,1.5v8.9c0,1.1,0,1.5-0.5,1.5
			c-0.9,0-1.3-1.5-1.3-1.8c0-0.2,0.3-1,0.3-1.1c0.2-0.9,0.4-3.7,0.4-4.8c0-0.6-0.2-4.5-0.2-4.8c-0.1-0.3-0.1-0.3-0.3-0.5
			c-2.9,2.5-5.9,4.7-9.4,6.2L161,159.4z"/>
		<path d="M186.5,162.3c-0.5,0-0.8-0.4-0.8-0.9c0-0.7,0.4-1,1.1-1.4c2-1.2,2.9-2.7,3.9-4.3C190.3,160,187.6,162.3,186.5,162.3z
			 M191.3,161.9c1.3,0.4,3.1,0.9,3.3,0.9c0.2,0,0.3-0.2,0.3-0.2c0.1-0.3,0.1-1.9,0.1-2.4c0-0.9,0-5,0-5.8c0-0.4,0-1,0-1.6
			c-4.8,0.6-5.3,0.7-6.2,1.1c-0.5,0.2-0.5,0.3-0.7,0.3c-0.4,0-1.9-1.1-1.9-2.6c0-0.1,0-0.3,0.1-0.7c0.9,1.2,1.3,1.6,2.4,1.6
			c0.5,0,5.3-0.3,6.3-0.4c0-1,0-4.3-0.4-4.9c-0.2-0.3-0.8-0.7-2.1-0.8c0.6-0.4,1.1-0.6,1.6-0.6c0.8,0,2.2,0.8,2.5,1
			c0.1,0.1,0.3,0.2,0.3,0.5c0,0.2-0.4,0.9-0.4,1.1c-0.3,0.8-0.3,1.8-0.4,3.8c4.9-0.3,5.4-0.4,5.7-0.4c0.2,0,0.8-0.3,1-0.3
			c0.2,0,2.4,0.3,2.4,1.3c0,0.3-0.1,0.5-0.5,0.5c-0.4,0-1.5-0.2-2.2-0.3c-1.5-0.3-3.6-0.3-4.1-0.3c-1.4,0-1.9,0.1-2.4,0.1v5.5
			c0,0.7,0.1,3.7,0.1,4.3c0,1.1,0,2-0.5,2.9c-0.3,0.5-0.5,0.5-0.6,0.5c-0.5,0-0.6-0.4-0.7-0.8c-0.1-0.2-0.3-0.8-0.6-1.1
			c-0.3-0.2-1.3-1.1-2.6-1.9V161.9z M203.2,158.1c0.5,0.4,1.8,1.6,1.8,2.8c0,0.2-0.1,1-0.8,1c-0.4,0-0.4-0.1-1.2-1.3
			c-1.2-1.9-2.7-3.6-4.4-5C200.4,156,201.8,157,203.2,158.1z"/>
		<path d="M212.2,155.1c0.4,0.1,0.6,0.1,2.9,0.1c0.5,0,9.1-0.1,10.9-0.3c0.5-0.1,0.5-0.1,0.8-0.2c0.2-0.1,0.3-0.1,0.5-0.1
			c0.1,0,2.4,0.3,2.4,1c0,0.6-0.7,0.6-1.4,0.6c-0.4,0-2.8-0.2-3.4-0.2c-1.6,0-8.9,0.1-10.2,0.3c-0.3,0-1.1,0.1-1.8,0.4
			c-0.5,0.2-0.6,0.2-0.8,0.2s-0.3,0-1-0.8c-0.2-0.2-0.8-0.9-0.8-1.9c0-0.4,0-0.7,0.2-1C211.1,154.3,211.6,154.9,212.2,155.1z"/>
		<path d="M245.6,160.5c0.8-0.1,4.4-0.7,5.2-0.8c-0.7-1.3-1.2-2.2-3.5-5.1c0.8,0.4,2,0.9,3.9,3.3c1.5,1.8,2.6,3.7,2.6,5.3
			c0,0.8-0.5,1.3-0.9,1.3c-0.5,0-0.6-0.4-0.9-1.5c-0.3-1.2-0.8-2.2-1-2.6c-1,0.2-3.2,0.8-5.1,1.2c-2.4,0.5-4.4,0.9-6.6,1.5
			c0,0-0.7,0.2-0.7,0.2c-0.1,0.1-0.4,0.4-0.4,0.4c-0.1,0.1-0.3,0.2-0.4,0.2c-0.4,0-2.2-1.8-2.1-3.5c0.8,1,1.1,1.2,3.2,1
			c3.5-7.2,3.9-8,4.5-9.6c0.2-0.4,0.9-2.4,0.9-2.9c0-0.8-1-1.4-1.6-1.8c0.3-0.1,0.7-0.1,1-0.1c1.1,0,2.1,1,2.5,1.5
			c0.3,0.4,0.4,0.5,0.4,0.8c0,0.3-0.1,0.3-0.6,0.8c-0.3,0.2-0.4,0.6-0.8,1.3c-0.8,1.7-3.5,7-5.5,10
			C240.6,161.1,244.7,160.6,245.6,160.5z"/>
		<path d="M266,155.8c-0.2,0.8-1.1,4.2-1.2,4.9c-0.4,1.6-0.5,2.3-0.5,3c0,0.3,0.1,1.8,0.1,1.8c0,0.3-0.1,0.7-0.5,0.7
			c-0.4,0-0.9-0.5-1.1-0.9c-1.2-2-1.4-4-1.4-6.6c0-0.5,0-1.4,0.2-2.5l0.8-5.7c0.1-0.5,0.2-1.2,0.2-1.9c0-1.4-0.5-2-0.8-2.4
			c1.2-0.2,2.6,1.4,2.6,2.4c0,0.2-0.3,1.1-0.4,1.4c-0.6,1.8-1.5,5.6-1.5,8.6c0,2.2,0.4,3.8,0.8,3.8c0.2,0,0.3-0.4,0.3-0.4
			c0.8-2.5,1.2-3.5,2.4-6.3L266,155.8z M270.9,161.7c1.5,0.7,3.7,0.7,4.3,0.7c0.9,0,1.4-0.1,2.8-0.2c0.2,0,0.3,0,0.4,0
			c0.4,0,1.8,0.3,1.8,1c0,0.7-0.9,0.7-2.5,0.7c-1.2,0-5.5-0.2-7.1-1.1c-1.6-0.9-1.8-2.5-1.8-3c0-0.3,0.1-0.5,0.1-0.8
			C269.5,160.3,269.8,161.2,270.9,161.7z M272.7,151.8c0.5-0.4,2.7-2.2,2.7-2.4c0-0.2-0.8-0.2-0.8-0.2c-0.8,0-2.8,0.3-5,1.1
			c2.4-1.8,4-2.3,5.8-2.3c1.6,0,3.7,0.4,3.7,1.2c0,0.4-0.4,0.5-1.3,0.7c-2.3,0.4-3.9,1.4-4.9,2L272.7,151.8z"/>
		<path d="M284.3,160.6c1.2,0.2,3.3,0.6,4.9,2c1.5,1.3,1.5,2.7,1.5,2.9c0,0.8-0.6,1.4-1.2,1.4c-0.4,0-0.7-0.3-1.2-1.4
			c-1.3-2.6-1.8-3.7-4-4.6L284.3,160.6z"/>
		<path d="M332,155.8h-7.6l1.2,0.6c0.3,0.2,0.4,0.3,0.4,0.5c0,0.4-0.4,0.5-1.1,0.6c-0.5,1.3-1.3,3.1-2.8,5c0.5,0.2,2.1,0.6,4.2,1.5
			c1.5,0.6,3.2,1.9,3.2,2.8c0,0.2-0.1,0.9-0.8,0.9c-0.4,0-0.7-0.3-1.4-0.9c-1-0.9-3.4-2.4-5.9-3.4c-0.5,0.5-1.2,1.2-2,1.7
			c-3,1.9-6.3,2.4-9.6,2.5v-0.2c1.4-0.2,5.3-0.9,8.9-3.8c0.5-0.4,0.8-0.7,1-0.9c-2.2-0.7-3.7-0.9-4.6-1c-0.1,0.2-0.4,0.9-0.4,1
			c-0.2,0.2-0.6,0.3-1,0.3s-0.8-0.2-0.8-0.5s0.6-1.2,0.8-1.4c0.9-1.8,1.8-3.6,2.6-5.4h-3.9c-0.9,0-2.3,0.1-3.3,0.3l-0.6-1.1
			c1.9,0.2,3.8,0.2,4.3,0.2h3.8c1-2.2,1.5-3.6,1.6-4c0.1-0.4,0.1-0.8,0.1-1.1l1.9,0.8c0.2,0.1,0.3,0.2,0.3,0.4
			c0,0.3-0.5,0.5-0.9,0.6c-0.2,0.3-0.2,0.5-0.3,0.7c-0.2,0.4-1,2.3-1.2,2.7h10.5l1.1-1.2c0.3-0.3,0.3-0.3,0.4-0.3
			c0.1,0,0.3,0.1,0.5,0.3l1.6,1.2c0.1,0.1,0.3,0.2,0.3,0.4C332.3,155.7,332.1,155.8,332,155.8z M330.6,149.5c-0.2,0-0.4,0-1.1-0.2
			c-0.9,0.5-2.1,1.3-2.7,1.6l-0.1-0.1c0.5-1,1-2.1,1.1-2.4h-15.5c-0.1,1.7-1.1,3.7-2.6,3.7c-0.4,0-0.9-0.2-0.9-0.9s0.4-0.9,0.9-1.2
			c0.5-0.3,2.1-1.8,2.2-3.5h0.2c0.1,0.3,0.2,1,0.2,1.2h7.1c0-2.1,0-2.8-0.5-4.1l2.5,0.6c0.2,0.1,0.4,0.2,0.4,0.4
			c0,0.3-0.1,0.3-0.9,0.8c0,0.4,0,1.5,0,2.2h6.4l1.3-0.9c0.3-0.2,0.3-0.2,0.4-0.2c0.1,0,0.2,0.1,0.4,0.2l1.5,1.6
			c0,0,0.2,0.2,0.2,0.5C331.2,149.2,331,149.5,330.6,149.5z M317.6,155.8c-0.7,1.6-0.9,1.9-2.5,5.6c0.7,0,2.5,0,5.2,0.6
			c1.5-1.8,2.6-3.9,2.9-6.2H317.6z"/>
		<path d="M334.3,161.3c-0.5,0-1-0.4-1-1.1c0-0.5,0.3-0.7,0.8-1c0.8-0.6,2.4-2.5,2.5-5h0.2c0.1,0.3,0.3,1,0.3,2
			C337.1,158.7,336.1,161.3,334.3,161.3z M349.9,166.3c-1,0.3-3.7,0.3-4.8,0.3c-3.3,0-4.3-0.2-4.3-3c0-5.9,0-6.5,0-12.1
			c0-1.3-0.1-1.5-0.3-2.2l2.4,0.9c0.3,0.1,0.4,0.2,0.4,0.3c0,0.3-0.2,0.4-1,0.7c-0.1,1.3-0.1,7.8-0.1,9.5c0,0.6,0,3.1,0.1,3.6
			c0.1,0.6,0.4,0.8,3.1,0.8c3.1,0,3.8,0,4.7-4.3l0.2,0c0,0.4,0.1,2,0.1,2.3c0.1,1,0.3,1.2,0.5,1.4c0.2,0.2,0.3,0.3,0.3,0.5
			C351.2,165.6,350.5,166.1,349.9,166.3z M346.6,148.7c-0.5,0-0.9-0.2-1.2-1.3c-0.4-1.6-0.5-2-1.5-3.1l0.2-0.2
			c0.6,0.2,1.7,0.6,2.5,1.4c1,1,1.1,2,1.1,2.2C347.6,148.4,347.1,148.7,346.6,148.7z M355.8,161.1c-0.7,0-0.9-0.4-1.2-1.6
			c-0.8-2.3-1.8-3.5-3.3-4.9l0.1-0.2c1.7,0.9,3.1,1.7,3.9,2.5c0.8,0.8,1.6,1.9,1.6,3C356.9,160.3,356.7,161.1,355.8,161.1z"/>
		<path d="M373.8,151.9c0.4-0.2,0.7-0.3,0.7-0.7c0-0.3-0.1-0.5-0.2-0.7c1.1,0.2,2,0.9,2,2.1c0,0.5-0.1,0.5-0.9,0.6
			c-3.4,0.5-11.8,3.9-11.8,8.1c0,0.4,0.1,1,0.6,1.6c1,1.2,4.6,1.2,5.3,1.2c2.1,0,3.1-0.2,5.2-0.6c0.4-0.1,0.9-0.1,0.9-0.1
			c0.7,0,1.6,0.3,1.6,0.9c0,0.4-0.4,0.6-1.2,0.8c-0.9,0.2-3.4,0.3-4.3,0.3c-2.9,0-4.6-0.3-5.9-0.6c-1.9-0.4-3.1-1.9-3.1-3.5
			c0-2,1.6-4.5,5-6.5c-0.3-0.5-1-1.4-1-2.8c-0.1-4.4-0.2-4.9-0.2-5.3c-0.1-0.5-0.3-0.9-0.6-1.3c-0.1-0.2-0.9-0.7-1-0.8
			c0.3-0.1,0.5-0.2,1-0.2c1.5,0,2.6,1.5,2.6,1.8c0,0.1-0.1,0.4-0.1,0.5c-0.3,1.1-0.4,2.1-0.4,3.2c0,0.6,0,2.8,0.7,4.4
			C369.4,153.8,371.2,152.9,373.8,151.9z"/>
		<path d="M383.4,155.9c-0.5,0-0.7-0.4-0.7-0.7c0-0.3,0.1-0.5,0.8-1.7c0.3-0.5,0.6-1.2,0.8-3.4h0.2c0.1,0.6,0.4,2.2,0.4,3.2
			C384.9,154.9,384.3,155.9,383.4,155.9z M388.1,145.7c-0.1,0.8-0.1,1.2-0.1,3.3c0,4.9,0,9.8,0.2,14.6c0,0.5,0.1,2.5,0.1,3
			c0,0.9-0.9,1-1.1,1c-0.5,0-0.6-0.3-0.6-0.6c0-0.5,0.1-2.4,0.1-2.8c0.1-2.2,0.1-3.7,0.1-5.9c0-3.2,0-9.6-0.1-12.2
			c0-0.8-0.1-1.4-0.2-2.3l2.2,0.6c0.2,0.1,0.4,0.1,0.4,0.4C389,145.1,388.8,145.3,388.1,145.7z M391.4,153.5c-0.5,0-0.6-0.4-0.8-0.8
			c-0.5-1.3-1.2-2.1-1.6-2.6l0.2-0.2c0.6,0.3,3.1,1.5,3.1,2.7C392.2,153.1,391.8,153.5,391.4,153.5z M405,166.9
			c-3.1-1.9-6-4.5-7.3-10h-0.4c-0.5,6.4-3.4,8.5-7.8,10.5l-0.2-0.2c5.1-3.4,6.3-6.3,6.6-10.3h-2.8c-0.8,0-2.3,0.1-3.4,0.3l-0.6-1.1
			c1.4,0.1,3,0.2,4.3,0.2h2.5c0.1-2,0.1-3,0.1-7.3h-1.6c-0.8,0-2.3,0.1-3.3,0.3l-0.6-1.1c1.3,0.1,2.9,0.2,4.3,0.2h1.2
			c0-2.5,0-2.8-0.6-4.6l2.3,0.6c0.5,0.1,0.6,0.2,0.6,0.4c0,0.2-0.1,0.3-1,0.7v2.9h3.9l0.7-0.7c0.2-0.2,0.3-0.3,0.4-0.3
			c0.1,0,0.2,0.1,0.4,0.2l1,0.9c0.2,0.1,0.3,0.2,0.3,0.4c0,0.3-0.1,0.4-1.1,0.8c-0.1,1.6-0.1,5-0.1,6.6h1.3l0.9-0.9
			c0.2-0.2,0.3-0.3,0.4-0.3c0.1,0,0.2,0.1,0.5,0.3l1,0.9c0.2,0.2,0.3,0.2,0.3,0.4c0,0.3-0.3,0.3-0.4,0.3h-9c0.7,1.9,1.8,3.9,3.7,5.5
			c2.5,2.2,5.2,2.7,6.2,2.9v0.2C405.9,165.6,405.5,166.2,405,166.9z M397.5,148.9c0,4.3,0,5.5-0.2,7.3h4.3c0-0.5,0.1-3.9,0.1-4.7
			c0-0.4,0-2.2,0-2.6H397.5z"/>
		<path d="M430.5,166.9c-0.6,0-0.9,0.1-1.8,0.1c-2.1,0-7.6-0.1-9.5-0.4c-2.8-0.6-4.4-1.8-5.8-3.4c-0.3,0.3-1,1-1.4,1.5
			c-0.4,0.4-1,1-1.1,1.2c-0.1,1-0.1,1.1-0.4,1.1c-0.2,0-0.3-0.1-0.3-0.2l-1.5-1.8c0.4,0,1-0.1,2.3-0.8c0.5-0.3,1-0.6,1.5-1
			c0-0.6,0-4.1,0-4.2c-0.1-2.4-0.1-2.7-0.1-3.2c-0.7,0-2.2,0.1-3.3,0.3l-0.6-1.1c1,0.1,2.1,0.2,3.7,0.2l0.5-0.6
			c0.1-0.1,0.2-0.2,0.3-0.2c0.2,0,0.3,0.1,0.4,0.2l0.9,0.7c0.1,0.1,0.2,0.2,0.2,0.4c0,0.3-0.4,0.4-0.8,0.7v5.3
			c0.1,0.9,0.3,2.2,2.9,3.2c1.5,0.6,2.9,0.7,4.9,0.7c0.8,0,8.1-0.1,10.8-1.3l0.1,0.1C431.3,164.9,430.8,165.7,430.5,166.9z
			 M413.1,148.6c-0.6,0-0.7-0.2-1.2-1.5c-0.5-1.3-1.1-1.9-1.7-2.6l0.1-0.2c1.5,0.5,3.7,1.7,3.7,3.2
			C414.1,148.3,413.6,148.6,413.1,148.6z M431,147.6h-5.7l1.5,0.8c0.2,0.1,0.3,0.2,0.3,0.3c0,0.3-0.3,0.4-0.9,0.5
			c-0.5,0.7-1.1,1.6-1.4,2h3l0.7-0.6c0.1-0.1,0.2-0.3,0.4-0.3c0.1,0,0.3,0.1,0.4,0.2l0.9,0.6c0.2,0.1,0.3,0.2,0.3,0.3
			c0,0.1-0.1,0.2-0.3,0.3c-0.2,0.2-0.4,0.3-0.6,0.5v5.5c0,0.4,0.2,3.4,0.2,3.6c0,0.8,0,2-2.4,2.6c-0.3-1-1-1.6-1.6-1.9V162
			c0.4,0,1,0.1,1.4,0.1c1.2,0,1.2-0.3,1.2-0.9v-9.3h-10.6c0,0.8,0,6.3,0.1,8.3c0,0.4,0.1,2.2,0.1,2.6c0,0.3,0,0.5-0.3,0.6
			c-0.3,0.2-0.6,0.3-0.8,0.3c-0.3,0-0.4-0.2-0.4-0.5c0-0.3,0.1-1.6,0.1-1.8c0-1.1,0-6.4,0-7.6c0-0.4,0-2.2-0.1-3.3l1.9,0.9h6.1
			c0.6-1.7,0.6-2.3,0.8-3.6h-5.8c-0.8,0-2.3,0.1-3.3,0.3l-0.6-1.1c1.4,0.1,3,0.2,4.3,0.2h2.9c0-0.9,0-2.1-0.5-3.2l2.4,0.6
			c0.2,0.1,0.3,0.2,0.3,0.3c0,0.3-0.2,0.4-0.8,0.8c0,0.2,0,1.3,0,1.5h4.7l0.8-0.9c0.1-0.1,0.2-0.3,0.4-0.3c0.2,0,0.3,0.2,0.5,0.3
			l1,0.9c0.2,0.1,0.3,0.2,0.3,0.4C431.4,147.6,431.1,147.6,431,147.6z M427.1,154.8h-3.8v2.2h1.2l0.3-0.3c0.1-0.1,0.2-0.2,0.3-0.2
			s0.2,0.1,0.3,0.2l0.8,0.5c0.1,0.1,0.3,0.2,0.3,0.3c0,0.2-0.2,0.3-0.6,0.7c0,0.5,0,0.9,0,1.3c0,0.2,0.1,1.3,0.1,1.3
			c0,0.8-1,0.9-1,0.9c-0.3,0-0.3-0.3-0.3-0.7h-3.7c0,0.4,0,0.5-0.1,0.6c-0.2,0.2-0.5,0.4-0.8,0.4c-0.4,0-0.4-0.3-0.4-0.5
			c0-0.3,0-1.7,0-2c0-1.9,0-2.2-0.1-2.8l1.4,0.4h1.1v-2.2c-0.5,0-2,0.1-3,0.3l-0.6-1.1c1.2,0.1,2.4,0.2,3.6,0.2c0-0.3,0-1-0.3-1.7
			l1.8,0.5c0.2,0.1,0.3,0.1,0.3,0.2c0,0.2-0.3,0.4-0.6,0.5v0.4h1.9l0.5-0.4c0.2-0.2,0.4-0.3,0.5-0.3c0.1,0,0.3,0.2,0.5,0.3l0.6,0.4
			c0.1,0.1,0.3,0.2,0.3,0.4C427.5,154.8,427.2,154.8,427.1,154.8z M420.8,150.9c-0.6,0-0.7-0.5-0.9-1.4c0-0.1-0.1-0.8-0.7-1.6
			l0.1-0.2c1.5,0.5,2.2,1.5,2.2,2.3C421.6,150.6,421.1,150.9,420.8,150.9z M424.6,157.7h-3.7v2.6h3.7V157.7z"/>
		<path d="M443.7,145.9c0-0.6-0.5-0.8-1.6-1.2c0.2-0.2,0.4-0.4,1.1-0.4c1.3,0,2.3,0.8,2.3,1.4c0,0.1,0,0.3-0.4,0.8
			c-0.2,0.3-1.2,1.8-1.4,2.1c0.6-0.2,1.3-0.3,3-1c0.1-0.1,0.5-0.2,0.7-0.2c0.4,0,1.3,0.2,1.3,0.8c0,0.4-0.4,0.6-1,0.7
			c-1.8,0.4-2.8,0.6-4.9,1c-1.1,1.5-2.3,3.2-3.1,4.7c0.6-0.4,1.4-0.9,2.6-0.9c2.4,0,2.9,1.7,3.2,2.7c1.2-0.7,2.6-1.5,5.6-2.8
			c0.3-0.2,0.5-0.3,0.5-0.7c0-0.3-0.3-0.6-0.7-0.9c0.2-0.1,0.3-0.1,0.4-0.1c0.5,0,2.6,0.6,2.6,2c0,0.5-0.3,0.6-1.3,0.7
			c-1.4,0.2-4.9,1.7-6.9,2.6c0.1,0.7,0.3,1.7,0.3,3.2c0,0.3,0,2.1-0.9,2.1c-0.7,0-0.8-1.1-0.8-1.4c0-0.1,0.1-1.7,0.1-2.1
			c0-0.1,0-0.6-0.1-1.2c-2,1.3-3.9,3.4-3.9,4.8c0,1.9,3.2,2,4.1,2c1.4,0,2.9-0.2,4-0.5c0.4-0.1,0.6-0.1,0.8-0.1
			c0.8,0,1.5,0.4,1.5,0.9c0,0.2-0.1,0.5-0.7,0.6c-0.7,0.1-2.1,0.3-3.8,0.3c-3.9,0-4.9-0.4-5.7-1c-0.5-0.4-1.2-1.1-1.2-2.1
			c0-0.4,0.2-1.5,0.9-2.4c0.8-1,1.9-2.2,3.8-3.4c-0.3-1.5-0.7-2.7-2.4-2.7c-1.5,0-2.8,1.2-3.4,2.1c-1,1.5-1.1,1.6-1.5,1.6
			c-0.6,0-0.6-0.8-0.6-0.9c0-0.6,0.2-0.8,0.6-1c1.3-0.9,3.2-4,4.5-6.1c-1.5,0.3-1.9,0.4-2.7,0.4c-2.1,0-2.3-1.4-2.4-2.1
			c0.8,0.6,1.4,0.9,2.5,0.9c1.1,0,2.4-0.2,3.4-0.4C442.5,148.3,443.7,146.3,443.7,145.9z"/>
		<path d="M458.8,163.1c0-2.1,1.7-3.8,3.8-3.8c2.1,0,3.8,1.7,3.8,3.8c0,2.1-1.7,3.8-3.8,3.8C460.4,166.8,458.8,165.1,458.8,163.1z
			 M465.6,163.1c0-1.7-1.4-3.1-3.1-3.1c-1.7,0-3.1,1.4-3.1,3.1c0,1.6,1.3,3.1,3.1,3.1C464.2,166.1,465.6,164.8,465.6,163.1z"/>
		<path d="M66.2,194.3c-0.3,0.7-0.8,1.7-1.9,3.6l0.4,0.3c0.3,0.2,0.3,0.2,0.3,0.4c0,0.4-0.5,0.6-0.7,0.7c-0.2,1.3-0.2,3-0.2,4.5
			c0,0.5,0.1,6.4,0.1,6.5c0,0.6,0.1,3.4,0.1,3.9c0,0.1,0,1-0.1,1.1c-0.2,0.6-0.7,0.7-1,0.7c-0.6,0-0.7-0.3-0.7-0.7
			c0-0.4,0.1-2.2,0.1-2.6c0.2-4.4,0.3-8.7,0.3-12.5c-0.7,1.1-1.5,2.2-2.4,3.2c-0.9,1-1.4,1.4-1.8,1.7l-0.2-0.1
			c1.7-2.4,4.4-6.7,5.6-9.7c0.5-1.4,0.7-2.2,0.8-3.1l2,1.2c0.3,0.2,0.4,0.2,0.4,0.4C67.2,194.1,66.8,194.2,66.2,194.3z M82,214.2H69
			c-0.8,0-2.3,0.1-3.4,0.3l-0.6-1.1c1.4,0.1,3,0.2,4.3,0.2h3.2v-8.1h-1.7c-0.8,0-2.3,0.1-3.3,0.3l-0.6-1.1c1.4,0.1,3,0.2,4.3,0.2
			h1.3v-6.6h-2.7c-0.8,0-2.3,0.1-3.4,0.3l-0.6-1.1c1.4,0.1,3,0.2,4.3,0.2h7.9l1-1c0.2-0.2,0.3-0.3,0.4-0.3s0.3,0.1,0.5,0.3l1.3,1
			c0.1,0.1,0.3,0.2,0.3,0.4c0,0.3-0.3,0.3-0.4,0.3h-7.2v6.6h3.3l0.9-1c0.2-0.2,0.3-0.3,0.4-0.3s0.3,0.2,0.5,0.3l1.5,1
			c0.1,0.1,0.3,0.2,0.3,0.4c0,0.3-0.3,0.3-0.4,0.3h-6.5v8.1H79l1.1-1.2c0.2-0.2,0.3-0.3,0.4-0.3c0.2,0,0.3,0.2,0.5,0.3l1.2,1.2
			c0.1,0.1,0.2,0.2,0.2,0.4C82.4,214.2,82.2,214.2,82,214.2z M73.8,197.1c-0.7,0-0.7-0.2-1.2-1.6c-0.4-1.1-0.9-2.2-1.7-3.1l0.1-0.1
			c0.5,0.2,3.7,1.7,3.7,3.8C74.7,196.7,74.3,197.1,73.8,197.1z"/>
		<path d="M91.8,198.8h-4c0,2.8-0.1,3.1-0.1,5.7v2.7c0,4,0.1,5.5,0.1,7c0,0.2,0,0.3,0,0.5c0,0.3,0,0.7-0.3,1
			c-0.2,0.2-0.6,0.4-0.9,0.4c-0.5,0-0.5-0.4-0.5-0.6c0-0.3,0.1-1.6,0.1-1.9c0.1-4.6,0.3-10.1,0.3-14.6c-0.1,0-1.6,0.1-2.8,0.3
			l-0.6-1.1c1.1,0.1,1.3,0.1,3.4,0.2c0-4.6-0.3-5.5-0.5-6.2l2.5,0.8c0.2,0.1,0.3,0.1,0.3,0.3c0,0.3-0.1,0.4-1,0.8c0,0.3,0,0.5,0,2.3
			l0,2h2l0.5-0.6c0.2-0.3,0.3-0.3,0.4-0.3c0.1,0,0.2,0,0.5,0.3l0.7,0.6c0,0,0.3,0.2,0.3,0.4C92.2,198.8,92,198.8,91.8,198.8z
			 M97.7,206.9c-0.1,3.1-0.9,6.2-1.2,6.8c-0.6,1.3-1.5,1.5-2.7,1.7c-0.3-1.2-0.9-1.7-1.5-2.1l0.1-0.2c0.9,0.2,1.8,0.4,2.2,0.4
			c0.5,0,0.8-0.3,1.2-2c0.4-1.5,0.6-3.9,0.6-5.3h-2.3c-0.6,3.6-1.3,6.5-5.4,9.3l-0.1-0.2c2.8-2.6,3.9-6.1,4.2-9.1
			c0,0-1.5,0.1-2.6,0.3l-0.6-1.1c1.1,0.1,1.4,0.1,3.3,0.2c0-0.3,0.1-0.7,0.1-1.3c0-0.8-0.1-1.2-0.1-1.6l2,0.7c0.1,0,0.3,0.1,0.3,0.3
			c0,0.2-0.5,0.4-0.8,0.6c0,0.2-0.1,1.1-0.2,1.3h1.9l0.4-0.5c0.2-0.2,0.3-0.3,0.4-0.3c0.1,0,0.3,0.2,0.3,0.2l0.9,0.9
			c0.2,0.2,0.3,0.3,0.3,0.3C98.6,206.3,97.9,206.7,97.7,206.9z M104.7,195.8c-0.1,0.1-0.7,0.4-0.9,0.4c-1.2,5-2.4,5.2-4.3,5.6
			c-0.2-1-0.4-1.5-1.6-2.3l0.1-0.2c0.6,0.3,1.6,0.5,2.3,0.5c1.4,0,2.1-3,2.4-4.6h-4.2c-0.8,2.8-2.5,5.6-7,7.3l-0.1-0.2
			c2.8-1.6,4.9-4.1,5.7-7.1h-1.3c-0.9,0-2.4,0.1-3.3,0.3l-0.6-1.1c1.9,0.2,3.8,0.2,4.3,0.2h1.1c0.2-0.8,0.2-1.3,0.2-1.7
			c0-0.5-0.1-0.8-0.1-1.1l2.3,0.7c0.1,0,0.2,0.1,0.2,0.2c0,0.3-0.7,0.7-0.9,0.8c-0.1,0.5-0.2,0.8-0.3,1.1h3.8l0.3-0.3
			c0.3-0.3,0.4-0.3,0.5-0.3c0.1,0,0.1,0,0.2,0.1l1.2,0.9c0.1,0.1,0.2,0.2,0.2,0.4C105,195.5,104.9,195.6,104.7,195.8z M106.7,206.4
			c-0.3,0.1-0.4,0.3-0.6,0.4c-0.1,1.9-0.3,6.6-1.5,7.8c-0.2,0.3-0.9,0.9-2.6,1.1c-0.4-0.9-0.6-1.5-1.6-2.1l0.1-0.2
			c1.1,0.2,1.8,0.4,2.3,0.4c0.6,0,0.9-0.1,1.3-2.1c0.3-1.4,0.6-4.6,0.5-5.5h-1.6c-0.3,0-0.4,0-0.6,0c-0.9,4.8-2.6,7.5-5.9,9.4
			l-0.1-0.2c3.2-2.7,4-5.5,4.6-9.1c-0.8,0.1-1,0.1-1.3,0.2l-0.6-1.1c0.9,0.1,1.4,0.1,2,0.1c0-0.2,0.2-1.6,0.2-2.4
			c0-0.7-0.1-0.9-0.2-1.2l2.3,0.8c0.1,0,0.2,0.1,0.2,0.3c0,0.2-0.6,0.6-0.9,0.8c-0.1,0.9-0.1,1.3-0.2,1.8h0.9h1l0.5-0.6
			c0.1-0.1,0.3-0.4,0.4-0.4c0.1,0,0.3,0.2,0.4,0.2l1.1,0.9c0.1,0.1,0.2,0.2,0.2,0.3C107.1,206.2,107,206.2,106.7,206.4z"/>
		<path d="M111.5,214.4c3-1.3,6.4-4.4,8.2-6.6c3.3-3.9,5.2-8.4,5.2-8.5c0-0.1,0-0.1-0.2-0.1c-0.4,0-4.1,0.6-4.5,0.6
			c-0.6,0-1.1-0.2-1.6-0.5c-2.5,3.3-4.2,5.1-7.1,6.4l-0.1-0.2c4.2-3.5,7-8.7,7-9.5c0-0.6-1.2-1.2-1.5-1.3c0.3-0.1,0.8-0.3,1.2-0.3
			c1,0,2.7,1,2.7,1.6c0,0.2-0.1,0.3-0.5,0.7c-0.2,0.3-1.2,1.7-1.4,2c0.2,0,0.5,0.1,1,0.1c1.6,0,4.4-0.3,4.9-0.8
			c0.1-0.1,0.4-0.4,0.5-0.5c0.1-0.1,0.2-0.1,0.2-0.1c0.2,0,1.3,0.9,1.6,1.2c0.3,0.3,0.5,0.4,0.5,0.6c0,0.3-0.3,0.4-0.9,0.7
			c-0.3,0.2-0.6,0.6-0.9,1.2c-2.1,4.1-6,11.1-14.3,13.5L111.5,214.4z M129.6,197.2c0,0.4-0.2,0.7-0.6,0.7c-0.3,0-0.4-0.1-1.2-1
			c-1-1.1-1.6-1.6-2.5-2.3C127,194.8,129.6,195.8,129.6,197.2z M132.1,196.1c0,0.4-0.2,0.5-0.4,0.5c-0.3,0-0.6-0.2-1-0.5
			c-1.6-1.4-1.9-1.7-3.3-2.4C128.8,193.8,132.1,194,132.1,196.1z"/>
		<path d="M135.5,213.1c1.6-1.4,2.8-3.1,3.6-5c1.3-2.9,1.4-5.3,1.4-7.5c0-2.2,0-2.4-1.8-2.8c0.3-0.3,0.7-0.6,1.3-0.6
			c0.8,0,2.3,0.7,2.3,1.2c0,0.2-0.2,0.8-0.2,1c0,0.4-0.1,2.1-0.1,2.5c-0.2,2.5-0.5,5.5-2.7,8.4c-0.8,1-2,2.3-3.6,3L135.5,213.1z
			 M156.6,201.1c-1.4,3.6-4.3,6.4-7.2,8.8c-0.3,0.2-1.7,1.2-1.9,1.4c-0.6,0.9-0.7,1-1,1c-0.5,0-1.5-1.9-1.5-2.1c0-0.2,0.2-0.9,0.3-1
			c0.2-0.9,0.2-2.3,0.2-5.8c0-1.1,0-5.1-0.1-5.9c-0.1-0.6-0.2-0.9-1.7-1.5c0.3-0.2,0.7-0.5,1.2-0.5c0.7,0,1.8,0.6,2.3,1.1
			c0.1,0.1,0.3,0.3,0.3,0.5c0,0.2-0.2,0.8-0.2,0.9c-0.1,0.4-0.2,1.1-0.3,1.9c-0.1,1.7-0.1,7.4-0.1,9.3c0,0.4,0,0.4,0.1,0.4
			c0.3,0,5.1-2.3,9.7-8.6L156.6,201.1z"/>
		<path d="M162.4,203.3c0.4,0.1,0.6,0.1,2.9,0.1c0.5,0,9.1-0.1,10.9-0.3c0.5-0.1,0.5-0.1,0.8-0.2c0.2-0.1,0.3-0.1,0.5-0.1
			c0.1,0,2.4,0.3,2.4,1c0,0.6-0.7,0.6-1.4,0.6c-0.4,0-2.8-0.2-3.4-0.2c-1.6,0-8.9,0.1-10.2,0.3c-0.3,0-1.1,0.1-1.8,0.4
			c-0.5,0.2-0.6,0.2-0.8,0.2s-0.3,0-1-0.8c-0.2-0.2-0.8-0.9-0.8-1.9c0-0.4,0-0.7,0.2-1C161.2,202.6,161.8,203.2,162.4,203.3z"/>
		<path d="M189.4,214.1c3.5-1.8,6.4-5.1,7.6-6.6c2.4-3.2,3.3-6.6,4-9c-5.5,0.3-10.8,1.2-11.2,1.4c-0.4,0.2-0.5,0.2-0.8,0.4
			c-0.3,0.2-0.4,0.2-0.5,0.2c-0.3,0-0.8-0.5-1-0.8c-0.3-0.4-0.9-1-0.9-1.9c0-0.2,0-0.4,0.1-0.7c0.5,0.7,1.2,1.2,1.3,1.3
			c0.4,0.2,0.6,0.2,1.2,0.2c1.1,0,11.1-1,11.5-1.1c0.2-0.1,0.9-0.6,1-0.6c0.2,0,2.1,1.4,2.1,1.9c0,0.2-0.1,0.2-0.8,0.6
			c-0.5,0.3-0.6,0.4-0.9,1.2c-1.7,4.6-2.8,6.9-5.6,9.6c-2,1.9-4.3,3.4-6.9,4.2L189.4,214.1z M205.5,197.5c-1.3,0-2.4-1.1-2.4-2.4
			c0-1.3,1.1-2.4,2.4-2.4c1.4,0,2.4,1.1,2.4,2.4C207.9,196.4,206.9,197.5,205.5,197.5z M205.5,193.5c-0.9,0-1.6,0.7-1.6,1.6
			c0,0.9,0.7,1.6,1.6,1.6c0.9,0,1.6-0.7,1.6-1.6C207.1,194.2,206.4,193.5,205.5,193.5z"/>
		<path d="M221,213.2c7.8-2.7,8.1-8.3,8.1-9.6c0-4.5-4.3-7-8.1-7c-0.5,0-0.7,0.1-1,0.1c1.3,1.1,1.3,1.8,1.3,2c0,0.3-0.1,0.4-0.6,1.6
			c-3.2,6.6-3.5,7.3-4.9,9.5c-0.1,0.2-1,1.4-1.5,1.6c-0.2,0.1-0.3,0.1-0.5,0.1c-0.6,0-0.8-0.3-1.5-1.3c-0.2-0.3-0.3-0.4-0.7-0.7
			c-1-0.8-1.4-1.7-1.4-3.5c0-5.2,4.4-10.1,11-10.1c4.8,0,9.5,2.7,9.5,8.1c0,4.8-3.8,9-9.7,9.6L221,213.2z M218,203.1
			c0.8-1.5,1.5-3.5,1.5-4.5c0-0.9-0.5-1.4-0.7-1.7c-2.9,0.2-7.3,4.1-7.3,9.2c0,2,1.2,3.7,2.3,3.7c0.2,0,0.3,0,0.5-0.2
			c0.6-0.6,1-1.4,1.5-2.3L218,203.1z"/>
		<path d="M242.7,199.1h-3.6v1.5c0,0.6,0.1,3,0.1,3.5c1.1-0.6,2.7-1.4,3.3-1.8l0.1,0.2c-1.1,0.9-2.3,1.8-3.4,2.6
			c0.1,2.5,0.1,5.9,0.1,8.3c0,1.6-1,2.3-2.8,2.4c-0.2-0.8-0.4-1.5-2-2.2l0.1-0.2c0.6,0.1,1.6,0.2,1.9,0.2c0.1,0,1.2,0,1.3-0.6
			c0-0.1,0-0.2,0-0.3c-0.1-5.2-0.1-5.8-0.1-6.8c-0.3,0.2-1.6,1.1-1.9,1.3c-0.2,0.1-0.3,0.2-0.7,0.5c-0.1,0.4-0.2,1-0.5,1
			c-0.2,0-0.3-0.2-0.3-0.3l-1.5-1.9c0.7-0.1,0.9-0.2,1.3-0.3c0.3-0.1,1.6-0.6,3.6-1.7c0-2.3,0-2.6,0-4.7v-1c-1.1,0-2.5,0.1-3.4,0.3
			l-0.6-1.1c0.9,0.1,1.9,0.2,4,0.2c0-2.6-0.2-4-0.3-4.6c0-0.2-0.2-1.3-0.3-1.5l2.3,0.6c0.2,0.1,0.4,0.1,0.4,0.4
			c0,0.3-0.2,0.4-0.9,0.9v2.2l0,2h1.3l0.6-0.8c0.1-0.1,0.3-0.3,0.4-0.3c0.1,0,0.4,0.2,0.5,0.3l0.9,0.8c0.1,0.1,0.3,0.2,0.3,0.4
			C243.1,199.1,242.9,199.1,242.7,199.1z M255.7,215.6c-3.5-1.3-5.1-2.6-6.4-4.1c-2.2,2.2-5,3.7-8.1,4.3l-0.1-0.3
			c2.9-1,5.3-2.8,7.3-5.1c-1.8-2.6-2.4-5.9-2.5-7c-0.6,0.1-1.3,0.1-1.9,0.2l-0.6-1.1c1.9,0.2,3.8,0.2,4.3,0.2h0.8c0-0.2,0-4.8,0-5
			h-1.2c-0.9,0-2.3,0.1-3.3,0.3l-0.6-1.1c1.9,0.2,3.8,0.2,4.3,0.2h0.8c-0.1-2.9-0.3-4.1-0.6-5l2.4,0.6c0.4,0.1,0.4,0.2,0.4,0.3
			c0,0.3-0.4,0.5-0.9,0.8v3.2h3.9l0.9-1.3c0.1-0.1,0.3-0.3,0.4-0.3c0.2,0,0.4,0.2,0.5,0.3l1.5,1.3c0.2,0.2,0.3,0.3,0.3,0.4
			c0,0.2-0.2,0.3-0.4,0.3h-7.1v4.7v0.3h2.7l0.6-0.8c0.2-0.3,0.3-0.3,0.4-0.3c0.1,0,0.2,0.1,0.5,0.3l1.3,0.9c0.1,0.1,0.2,0.2,0.2,0.4
			c0,0.4-1,0.6-1.5,0.8c-1.2,3-2.6,5.1-3.8,6.4c3,2.5,6.6,2.9,7.7,3v0.1C257.4,213.9,256.4,214.4,255.7,215.6z M247.4,203.5
			c-0.3,0-0.7,0-1.1,0c0.6,2.4,1.8,4.6,3.1,6c1.5-1.9,2.3-3.6,3.2-6H247.4z"/>
		<path d="M264.4,200.5c-0.3,0.5-0.8,1.1-1.2,1.6l0.5,0.2c0.1,0.1,0.3,0.2,0.3,0.3c0,0.2-0.3,0.5-0.6,0.7c0,0.5-0.1,1-0.1,2.3
			c0,2.2,0,2.5,0.1,5.4c0,0.6,0,3.1,0,3.6s-0.5,1-1,1c-0.3,0-0.6-0.1-0.6-0.4c0-0.1,0.2-1.9,0.2-2.2c0.1-1.4,0.1-7.5,0.1-9.3
			c-0.9,1.2-2.1,2.8-4.5,4.6l-0.1-0.1c1.4-1.6,3.3-4.4,4.7-7c0.9-1.8,1-2.2,1-2.7l2.1,1.4c0.1,0.1,0.2,0.1,0.2,0.3
			C265.4,200.4,265.2,200.4,264.4,200.5z M264.3,194.6c-1.9,1.8-3.1,2.8-5.9,4.4l-0.1-0.1c2.1-1.8,3.6-3.6,4-4.1
			c0.5-0.6,1.2-1.5,1.3-2.2l1.6,1.3c0.1,0.1,0.2,0.2,0.2,0.3C265.4,194.5,264.7,194.6,264.3,194.6z M267.8,202.8
			c-0.3,1.7-0.8,3.4-1.3,5.1c-0.5,1.5-1.1,3.1-2.2,4.3l-0.1-0.1c1.2-2.9,2.1-7.9,2.1-9.9c0-0.5-0.1-0.8-0.1-1.1l2.1,0.6
			c0.1,0,0.3,0.1,0.3,0.3C268.6,202.2,268.5,202.3,267.8,202.8z M275.1,198.6h-4.8c-0.1,3.2-0.1,5.7-0.1,6.5c0,3,0.1,5.5,0.2,7.3
			c0,0.3,0.1,1.7,0.1,2c0,0.6-0.6,1-1,1c-0.6,0-0.6-0.6-0.6-0.8c0-0.3,0.2-10.4,0.2-12.2c0-0.8,0-2.8,0-3.7h-0.5
			c-0.8,0-2.3,0.1-3.4,0.3l-0.6-1.1c2.2,0.2,3.9,0.2,4.5,0.2c0-1.1-0.1-3.4-0.1-4.4c-0.1-0.6-0.1-0.9-0.3-1.3l2.3,0.5
			c0.1,0,0.3,0.1,0.3,0.3c0,0.3-0.5,0.6-0.8,0.7c0,0.3,0,2.3-0.1,4.3h2.5l0.6-0.6c0.2-0.2,0.2-0.3,0.4-0.3c0.1,0,0.3,0.1,0.5,0.3
			l1,0.6c0.1,0.1,0.2,0.2,0.2,0.4C275.5,198.5,275.3,198.6,275.1,198.6z M273.3,196.7c-0.5,0-0.6-0.4-0.9-1.1
			c-0.2-0.6-0.6-1.4-1.1-2v-0.1c1.7,0.8,2.6,1.2,2.6,2.2C274,196,273.9,196.7,273.3,196.7z M273.6,209.4c-0.7,0-0.7-0.4-0.8-1.9
			c-0.2-3.3-0.9-5.4-1.4-6.4l0.1-0.2c2.2,2.2,3,5.3,3,7.1C274.5,208.4,274.5,209.4,273.6,209.4z M281.8,201.5h-3.2
			c0,1.2,0,5.6,0.1,7.2c0,1.6,0,1.9,0.1,3.6c0,0.2,0,0.4,0,0.5c0,1.4-0.3,2.2-2.6,2.9c-0.1-0.4-0.9-1.6-2.1-2v-0.1
			c0.7,0.1,1.8,0.1,1.9,0.1c1.2,0,1.3,0,1.3-1.1v-11.1c-0.7,0-2.2,0.1-3.3,0.3l-0.6-1.1c1.4,0.1,2.9,0.2,4.3,0.2h1.7l0.6-0.9
			c0.2-0.2,0.2-0.3,0.4-0.3c0.2,0,0.4,0.2,0.5,0.3l1.1,0.9c0.1,0.1,0.3,0.2,0.3,0.4C282.2,201.4,282,201.5,281.8,201.5z
			 M281.3,195.1h-4.4c-0.4,0-1,0.1-1.4,0.1l-0.3-0.9c0.5,0.1,1.5,0.1,1.8,0.1h2.2l0.4-0.6c0.2-0.3,0.2-0.3,0.4-0.3
			c0.1,0,0.2,0.1,0.5,0.3l0.9,0.6c0.1,0.1,0.3,0.2,0.3,0.4C281.7,195,281.6,195.1,281.3,195.1z"/>
		<path d="M290.2,210.2c2.4,1.7,2.7,1.9,3.4,1.9c0.5,0,0.8-0.3,1-0.8c1.6-3.2,1.8-6.5,1.8-8.1c0-1.2,0-2.9-1.8-2.9
			c-0.6,0-1.3,0.1-2.3,0.4c-2.2,5.3-4.3,10.6-6,13c-0.1,0.2-0.3,0.3-0.5,0.3c-0.4,0-0.6-0.8-0.6-1.1c0-0.4,0-0.4,0.9-1.8
			c2.2-3.4,3.4-6.3,4.9-9.9c-2,0.7-2.9,1-3.8,1.6c-0.4,0.3-0.7,0.4-1,0.4c-0.5,0-2.1-0.8-2.1-2.4c0-0.2,0.1-0.4,0.2-0.6
			c0.6,1,1,1.3,1.7,1.3c0.2,0,0.4,0,1.2-0.3c1.2-0.4,2.9-0.8,4.3-1.2c0.4-1.1,1.3-3.4,1.3-4.3c0-1.2-1.7-1.7-2-1.8
			c0.2-0.2,0.4-0.3,1-0.3c1,0,2.9,0.7,2.9,1.7c0,0.3-0.2,0.6-0.3,0.8c-0.7,1.3-1,2.1-1.6,3.6c0.5-0.1,1.1-0.3,1.9-0.3
			c3.1,0,3.1,2.7,3.1,4.1c0,2.5-0.8,8.5-3.5,10.5c-0.5,0.3-1,0.5-1.3,0.5c-0.4,0-0.4-0.1-0.6-1.1c-0.2-0.8-1.5-2.5-2.2-3.2
			L290.2,210.2z M301,205.1c1.4-0.1,2.5-0.4,2.7-0.5c0.3-0.1,0.6-0.4,0.6-0.8c0-0.5-1.5-2.9-5.1-5.1c2.3-0.1,7.1,3.5,7.1,6.7
			c0,0.4-0.1,1.1-0.5,1.1c-0.2,0-1-0.5-1.1-0.5c-0.6-0.2-3.2-0.6-3.7-0.7V205.1z M301,196c1.2,0,4.2,0.8,4.2,2.3
			c0,0.2-0.1,0.6-0.5,0.6c-0.3,0-1-0.8-1.2-0.9c-1.3-1-2.5-1.5-3.4-1.9C300.3,196,300.5,196,301,196z M303.6,194c1.2,0,4,0.4,4,2.2
			c0,0.3-0.1,0.6-0.4,0.6c-0.3,0-1.2-0.9-1.4-1.1c-0.4-0.3-1.5-1-3.6-1.6C302.7,194,303.1,194,303.6,194z"/>
		<path d="M330.3,215.5c-4.3-1.2-7.2-2.6-9.6-4.3c-0.1-0.1-0.2-0.2-0.4-0.3c-2,1.6-5.7,3.9-11.5,4.8l-0.1-0.3
			c6.4-1.8,9.2-4.2,10.6-5.4c-1.9-2-3.2-4.6-3.8-7.3h-0.8c-0.9,0-2.4,0.1-3.3,0.3l-0.6-1.1c1.9,0.2,3.8,0.2,4.3,0.2h4.4
			c0-0.4,0-3.8,0-4.6h-7.1c-0.9,0-2.4,0.1-3.3,0.3l-0.6-1.1c1.9,0.2,3.8,0.2,4.3,0.2h6.7c-0.1-2.6-0.1-2.9-0.6-4.7l2.7,0.7
			c0.1,0,0.1,0.1,0.3,0.2c0,0.1,0.1,0.1,0.1,0.1c0,0.1-0.6,0.7-0.9,0.9c0,0.3-0.1,0.4-0.1,0.7c0,0.3,0,1.8,0,2.1h7.2l0.9-1.3
			c0.1-0.1,0.3-0.3,0.4-0.3s0.4,0.2,0.5,0.3l1.4,1.3c0.2,0.2,0.3,0.2,0.3,0.4c0,0.3-0.2,0.3-0.4,0.3h-10.4v0.7v3.7v0.2h3.3l0.8-0.8
			c0.2-0.2,0.2-0.3,0.4-0.3c0.1,0,0.2,0.1,0.4,0.3l1.3,1.1c0.1,0.1,0.2,0.2,0.2,0.3c0,0.4-0.4,0.5-1.5,0.7c-1.6,3.5-3.3,5.5-4.6,6.8
			c0.3,0.2,2.3,1.7,5.4,2.5c2.8,0.8,4.9,0.7,5.8,0.7v0.2C331.3,213.8,331.1,214.3,330.3,215.5z M315.9,202.7
			c0.8,2.5,2.3,4.8,4.3,6.6c2.2-2.2,3.5-4.8,4.3-6.6H315.9z"/>
		<path d="M340.3,201.8c1.1,0,4.5-0.9,6.1-1.6c0.8-0.3,0.8-0.3,1-0.3c0.7,0,2.1,0.9,2.1,1.5c0,0.3-0.1,0.3-0.7,0.8
			c-1,0.6-2.4,1.7-6.5,6c0.3-0.1,0.7-0.1,1.2-0.1c2.1,0,2.4,1.1,2.7,2.2c0.5,2.2,0.9,3,3.1,3c0.9,0,1.9-0.1,2.7-0.3
			c0.3-0.1,1.4-0.4,1.6-0.4c0.4,0,1.2,0.5,1.2,0.9c0,0.3-0.2,0.5-0.4,0.6c-0.4,0.2-2,0.5-3.5,0.5c-4.5,0-5.2-1-5.9-3.6
			c-0.4-1.3-0.6-2.2-2-2.2c-1.2,0-1.6,0.6-3.6,3.2c-2.1,2.9-2.2,2.9-2.6,2.9c-0.6,0-0.7-0.9-0.7-1c0-0.8,0.4-1.1,1.1-1.7
			c0.9-0.7,1.4-1.2,5.7-5.8c0.7-0.7,3.7-3.9,3.8-4.3c0-0.1,0.1-0.1,0.1-0.2c0-0.3-0.3-0.4-0.5-0.4c-0.6,0-3.3,0.8-4.6,1.7
			c-0.4,0.2-0.7,0.5-1.1,0.5c-1,0-2.1-1.5-2.1-1.9c0-0.1,0.2-0.7,0.2-0.7C339,201.4,339.6,201.8,340.3,201.8z M342.8,197.2
			c0.9-0.5,1-0.6,1.9-1.2c0.1-0.1,0.2-0.2,0.2-0.3c0-0.3-0.4-0.6-0.9-0.9c-1.9-1.2-2.1-2.3-2.3-3.1c1,1.1,2.1,1.9,4.1,2.8
			c0.6,0.3,2.2,0.9,2.2,1.9c0,0.6-0.5,0.6-0.8,0.6c-0.2,0-1.3-0.2-1.6-0.2c-0.4,0-0.6,0.1-2.2,0.4c-0.3,0.1-0.5,0.1-0.8,0.2V197.2z"
			/>
		<path d="M370.3,195.1c0-1.1-0.2-1.2-1.9-2c0.2-0.2,0.5-0.4,1.3-0.4c1.3,0,2.4,0.9,2.4,1.6c0,0.1-0.1,0.6-0.3,1.1
			c-0.1,0.5-0.2,1.1-0.3,1.9c1.8-0.4,2.6-0.7,4.1-1.2c0.2-0.1,0.4-0.2,0.6-0.2c0.5,0,1.4,0.5,1.4,0.8c0,0.3-0.3,0.5-0.5,0.5
			c-0.8,0.3-3.1,0.9-5.8,1.3c-0.1,1.1-0.1,2.7-0.1,4.2c1.7-0.4,2.3-0.6,3.4-1.1c0.1-0.1,0.3-0.1,0.5-0.1c0.5,0,1.4,0.3,1.4,0.8
			c0,0.4-0.3,0.5-0.6,0.6c-0.5,0.2-2.8,0.6-4.6,1c0.1,1.1,0.3,4.6,0.4,5.9c3,0.7,5.5,1.9,5.5,3.2c0,0.5-0.3,0.7-0.6,0.7
			c-0.2,0-0.3-0.1-1.2-0.7c-0.3-0.2-1.9-1.2-3.7-1.7c0,1.5-0.6,2.1-1,2.4c-1.2,0.9-2.8,0.9-3.2,0.9c-2.7,0-4.4-1.3-4.4-2.6
			c0-0.8,0.5-1.4,1.3-1.8c1.5-0.8,3.9-0.8,4.4-0.8c0.6,0,1,0,1.4,0.1c0-0.9-0.2-4.7-0.3-5.5c-1.3,0.2-2.6,0.3-3.9,0.3
			c-1.6,0-2.5-0.3-2.5-1.2c0-0.4,0.5-1.1,1.3-1.3c-0.2,0.2-0.4,0.5-0.4,0.8c0,0.5,0.5,0.6,1.9,0.6c1,0,2.2-0.1,3.7-0.4
			c0-1.4,0-2.2,0.1-4.3c-1,0.1-4.5,0.5-5.2,0.5c-0.7,0-2.7-0.2-3.4-1.7c0.4,0.2,1.5,0.6,3.4,0.6c0.5,0,2.6-0.1,5.3-0.6
			C370.2,197.2,370.3,195.4,370.3,195.1z M367.6,210.7c-1.7,0-3.4,0.4-3.4,1.5c0,0.8,1.1,1.4,3.1,1.4c1.1,0,3.4-0.3,3.1-2.6
			C369.9,210.9,369.2,210.7,367.6,210.7z"/>
		<path d="M390.4,215.9c4.4-2.9,4.9-5.6,5.2-7.3c-0.5,0.3-0.9,0.5-1.5,0.5c-1.2,0-3.1-1.8-3.1-4c0-1.8,1.4-3.3,3.1-3.3
			c0.6,0,1.1,0.2,1.6,0.4c0-0.4,0-0.6,0-0.8v-2.4c-2.8,0.2-5.5,0.6-8.8,1.9c-0.2,0.1-0.9,0.4-1,0.4c-0.5,0-2-1.3-2-2.4
			c0-0.1,0-0.3,0.1-0.6c0.8,1,1.3,1.2,1.9,1.2c0.4,0,1.3-0.2,1.4-0.2c1.2-0.2,5.9-0.9,8.4-1.1c0-0.7-0.1-3.5-0.4-4
			c-0.3-0.6-1-0.9-1.7-1.3c0.3-0.2,0.7-0.4,1.2-0.4c0.5,0,1.4,0.4,1.9,0.8c0.4,0.3,0.4,0.5,0.4,0.7c0,0.1-0.1,0.7-0.2,0.8
			c-0.2,0.7-0.2,2.6-0.3,3.3c1-0.1,5.4-0.2,6.3-0.3c0.2,0,1.1-0.1,1.2-0.1c1,0,1.8,0.7,1.8,1.1c0,0.3-0.3,0.5-0.6,0.5
			c-0.1,0-0.3,0-0.4-0.1c-1.7-0.4-3.8-0.4-4.8-0.4c-1.1,0-2.3,0.1-3.5,0.1c-0.1,1.1-0.1,2.1-0.1,2.5c0,0.5,0,0.9,0,1.6
			c0.3,0.5,0.8,1.6,0.8,3.5c0,1.1-0.2,4.8-3.6,7.6c-1.4,1.1-2.6,1.6-3.3,1.8L390.4,215.9z M391.8,205.1c0,1.5,1.3,2.8,2.4,2.8
			c1.4,0,1.4-1.9,1.4-2.2c0-2.1-0.7-2.9-2-2.9C393,202.9,391.8,203.7,391.8,205.1z"/>
		<path d="M408.9,211.3c0-2.1,1.7-3.8,3.8-3.8c2.1,0,3.8,1.7,3.8,3.8c0,2.1-1.7,3.8-3.8,3.8C410.5,215.1,408.9,213.4,408.9,211.3z
			 M415.7,211.3c0-1.7-1.4-3.1-3.1-3.1c-1.7,0-3.1,1.4-3.1,3.1c0,1.6,1.3,3.1,3.1,3.1C414.3,214.4,415.7,213,415.7,211.3z"/>
	</g>
</g>
<g>
	<g>
		<path class="st0" d="M217,63c2.2-1.1,4.7-1.7,7.3-1.7c2.6,0,4.9,0.6,7,1.8c2.1,1.2,3.7,2.8,4.9,4.7c1.5,2.4,2.3,5,2.3,7.9
			c0,1.8-0.4,3.7-1.2,5.7c-0.8,2-1.8,3.6-3,4.8c-1.2,1.3-2.5,2.2-3.8,2.8s-2.3,1-3.1,1.1c-0.5,0.1-0.9,0.2-1.1,0.3
			c0.6,0.7,1.6,1.6,3,2.7c1.4,1.1,2.8,2,4.2,2.6c0.1,0,0.4,0.2,0.7,0.3c0.8,0.4,1.5,0.7,2.2,1l0.5,0.2l0.2,0l0.6,0.2
			c0.7,0.3,1.4,0.6,2.1,0.8c0,0.1,0,0.2,0,0.3l0,0.3v0.4c-0.5,0-0.7,0-0.8,0c-1.3,0-2.8-0.2-4.6-0.7s-3.3-1.1-4.8-2
			c-1.5-0.8-3-1.9-4.7-3.3c-1.1-0.9-2.1-1.8-2.9-2.7c-2.5-0.4-4.8-1.2-6.8-2.6c-2-1.4-3.6-3.1-4.6-5.1c-1.1-2-1.6-4.1-1.6-6.3
			c0-2.5,0.7-5,2-7.6S214.3,64.5,217,63z M221.3,89.5c0.8,0.1,1.5,0.2,2.2,0.2c1.6,0,3-0.2,4.2-0.7c1.3-0.5,2.3-1.1,3-1.9
			c1-1,1.8-2.5,2.5-4.3s1.1-4.2,1.1-6.9c0-2.2-0.3-4.2-1-6c-0.4-1.2-1.1-2.5-2.1-3.8c-1-1.3-2-2.2-3.1-2.8c-1.1-0.6-2.4-0.9-4.1-0.9
			c-1.9,0-3.7,0.5-5.4,1.5c-1.7,1-3.1,2.7-4.2,5.2c-0.7,1.6-1.1,3.8-1.1,6.6c0,2.3,0.4,4.5,1.2,6.7s1.9,4,3.4,5.3
			C218.6,88.5,219.8,89.1,221.3,89.5z"/>
		<path class="st0" d="M241.5,72.8h1.6l0.7,0l0.6,0c1.5,0,2.4,0,2.7,0l0,0.4c0,2,0,4-0.1,5.9c0,1.1-0.1,1.8-0.1,1.9
			c0,2.5,0.1,4.1,0.2,4.7c0.2,0.6,0.6,1.1,1.2,1.5c0.6,0.4,1.3,0.6,2.2,0.6c1,0,2-0.2,3-0.7c1-0.4,1.8-1,2.4-1.6
			c0.1-0.5,0.1-1.1,0.1-1.8c0-2.1,0-3.6,0.1-4.3c0-0.4,0-0.8,0-1.2c0-2.3-0.1-3.6-0.3-3.9c-0.2-0.3-1.1-0.5-2.6-0.7
			c-0.5-0.1-0.9-0.1-1.1-0.2c-0.1-0.2-0.2-0.3-0.2-0.4l0.1-0.2c0.4,0,0.7-0.1,1.1-0.1l3.4,0c1.2,0,1.9,0,1.9,0c0.2,0,0.3,0,0.5,0
			l0,1.6c-0.1,2.2-0.2,4.9-0.2,8.1l0,1.7l0.1,2.9c0.1,0.2,0.2,0.4,0.3,0.4c0.2,0.1,0.5,0.1,1.1,0.1h0.2c0.2,0,0.7,0,1.6,0.1
			c0,0.2,0,0.3,0,0.4v0.2c-1.9,0.4-3.5,0.8-4.7,1.2c-0.5,0.2-0.9,0.3-1.2,0.3c-0.1-0.5-0.1-0.8-0.1-0.9v-1.7c0-0.1,0-0.3,0-0.6
			c-0.2,0.1-0.4,0.3-0.6,0.5c-1.1,0.9-2.3,1.6-3.6,2.2c-0.8,0.4-1.7,0.6-2.4,0.6c-1.5,0-2.7-0.6-3.7-1.7c-1-1.1-1.4-3-1.4-5.7
			c0-0.1,0-0.4,0-0.8c0.1-0.7,0.1-1.2,0.1-1.4c0-0.1,0-0.4,0-0.9c0-0.2,0-0.4,0-0.6c0-0.1,0-0.4,0-0.9s0-0.8,0-1c0-0.2,0-0.5,0-0.6
			l0-1.1l0-0.6c0-0.2-0.1-0.4-0.3-0.6c-0.9-0.2-1.5-0.4-1.8-0.4c-0.3,0-0.5-0.1-0.7-0.2V72.8z"/>
		<path class="st0" d="M279.8,86.7c0.1,0.2,0.1,0.3,0.1,0.4c0,0.2-0.2,0.6-0.5,1.1c-0.4,0.7-0.9,1.2-1.5,1.6
			c-0.3,0.2-0.8,0.3-1.4,0.3c-1,0-1.8-0.3-2.3-0.9c-0.3-0.4-0.5-1-0.7-2l-2.4,1.7c-0.8,0.5-1.5,0.8-1.9,0.9
			c-0.7,0.2-1.6,0.3-2.6,0.3c-0.7,0-1.3-0.2-1.7-0.7c-0.4-0.4-0.6-1-0.6-1.7c0-1,0.6-2.2,1.8-3.5s2.9-2.5,4.9-3.4
			c1.5-0.6,2.4-1,2.7-1.2c0-0.5,0-1,0-1.5c0-1.8-0.3-3.1-0.8-3.7c-0.5-0.6-1.2-1-2.2-1c-1,0-1.9,0.4-2.8,1.2
			c-0.5,0.5-0.9,1.4-1.2,2.8c-0.1,0.4-0.2,0.8-0.5,1.2c-0.6,0.4-1.1,0.6-1.5,0.6c-0.3,0-0.6-0.1-0.9-0.3c-0.1-0.1-0.2-0.2-0.2-0.3
			c0-0.4,0.4-1.2,1.2-2.5s1.8-2.3,3-2.9c1.2-0.7,2.3-1,3.2-1c1.2,0,2.1,0.1,2.8,0.3c0.6,0.2,1.1,0.6,1.6,1.2s0.7,1.2,0.8,1.8
			c0.1,0.3,0.1,1.4,0.1,3.4l-0.1,3.4l0,2.5c0,0.3,0,0.6,0,0.8c0,0.4,0,0.7,0,0.9c0,0.5,0.1,0.9,0.4,1.1c0.3,0.3,0.6,0.4,1,0.4
			c0.5,0,1-0.3,1.4-0.8l0.3-0.3C279.4,86.8,279.5,86.8,279.8,86.7z M273.5,86.1c0.1-1.8,0.2-3.1,0.2-3.8c0-0.4,0-0.9-0.1-1.6
			c-1,0.3-2,0.9-3.1,1.6c-1.1,0.7-1.9,1.5-2.6,2.4c-0.5,0.7-0.7,1.3-0.7,1.9c0,0.6,0.2,1,0.6,1.4c0.4,0.4,0.9,0.6,1.4,0.6
			c0.4,0,1-0.2,1.6-0.5C271.7,87.6,272.6,87,273.5,86.1z"/>
		<path class="st0" d="M281.3,63v-0.5c0.4-0.1,0.8-0.3,1.3-0.4c0.7-0.2,1.8-0.6,3.2-1.1h1c0,0.7,0,1.1,0,1.2c0,11.8,0,18.8-0.1,21
			c0,1.3-0.1,2-0.1,2.1c0,1.6,0.1,2.5,0.2,2.7c0.2,0.3,0.7,0.4,1.6,0.5s1.4,0.2,1.6,0.3c0.1,0.1,0.2,0.2,0.2,0.3
			c0,0.2,0,0.3-0.1,0.3s-0.2,0.1-0.4,0.1c-0.1,0-0.9,0-2.3-0.1l-2.8-0.1l-3.6,0.2c-0.2,0-0.4,0-0.5-0.1c-0.1-0.1-0.1-0.2-0.1-0.3
			c0-0.1,0-0.3,0.1-0.3c0.1-0.1,0.6-0.2,1.5-0.3c0.9-0.2,1.5-0.3,1.6-0.4c0.1-0.1,0.2-0.3,0.3-0.7c0.1-0.5,0.1-2,0.1-4.4l0-4.9
			l0.1-5.1l0-5.1l0.1-2.5c0-0.5-0.1-0.9-0.2-1.1c-0.2-0.2-0.5-0.4-1-0.7C282.1,63.4,281.6,63.2,281.3,63z"/>
		<path class="st0" d="M291.5,74.4l0-0.6c0.9-0.3,1.4-0.4,1.5-0.5c0.5-0.2,1.1-0.6,1.6-1.1c0.6-0.5,1-1,1.4-1.6c0.2,0,0.3,0,0.4,0
			l0.3,0c0.1,0.7,0.1,1.2,0.1,1.5c0,0.1,0,0.4,0,1v1.1l0,6.2l-0.1,6.6c0,0.5,0.1,0.9,0.3,1.1c0.2,0.2,0.7,0.4,1.7,0.7
			c0.6,0.2,1,0.3,1.3,0.4c0,0.1,0.1,0.2,0.1,0.3c0,0.1,0,0.2-0.1,0.3c-0.6,0-1.3-0.1-2.1-0.1c-1.2-0.1-2-0.2-2.4-0.2
			c-0.2,0-1.3,0-3.4,0.1c-0.4,0-0.8,0-1.2,0.1c-0.1,0-0.2,0-0.3-0.1c-0.1-0.1-0.1-0.2-0.1-0.3c0-0.2,0.1-0.4,0.4-0.5
			c0.1,0,0.8-0.2,2.2-0.5c0.5-0.1,0.8-0.2,0.9-0.4c0.2-0.3,0.4-0.8,0.4-1.4c0-1.1,0-4.1,0-9.1c0-1,0-1.6-0.1-1.8
			c-0.1-0.2-0.3-0.4-0.6-0.6C293.1,74.9,292.5,74.6,291.5,74.4z M293.3,63.3c0-0.5,0.2-0.9,0.5-1.2s0.8-0.5,1.3-0.5
			c0.5,0,1,0.2,1.4,0.6s0.6,0.8,0.6,1.2c0,0.4-0.2,0.9-0.6,1.3c-0.4,0.4-0.9,0.6-1.4,0.6s-1-0.2-1.3-0.5
			C293.5,64.3,293.3,63.8,293.3,63.3z"/>
		<path class="st0" d="M306.5,68.4l0.7,0l0.1,2l0,2.6c0.3,0,0.4,0,0.5,0c0.4,0,1.1,0,2.1-0.1c0.7,0,1.3-0.1,1.9-0.1
			c0.3,0,0.7,0,1.3,0c0,0.3,0,0.5,0,0.7c0,0.2,0,0.5-0.1,0.9h-0.4l-3.3,0.1l-1.7,0l-0.4,0c-0.1,0.4-0.2,0.8-0.2,1.2l0.1,3.2l0,5.7
			c0,1.5,0.2,2.5,0.6,3c0.4,0.5,0.9,0.8,1.7,0.8c0.4,0,1.1-0.1,2.1-0.3c0.3-0.1,0.7-0.3,1.3-0.7h0.2c0.1,0,0.2,0,0.3,0.1
			c0.1,0.1,0.1,0.2,0.1,0.3l0,0.2c-0.6,0.7-1.3,1.2-2.1,1.5s-1.9,0.5-3.2,0.5c-0.9,0-1.7-0.2-2.3-0.6c-0.6-0.4-1-0.9-1.2-1.5
			c-0.2-0.6-0.3-1.9-0.3-3.8l0.1-4.8l0-2.3v-0.9c0-0.4,0-0.8,0-1.2l-0.4,0l-1.8,0.1l-0.2,0c-0.2,0-0.3,0-0.4-0.1
			c-0.1-0.1-0.1-0.2-0.1-0.3c0-0.2,0.1-0.3,0.2-0.4s0.4-0.3,1-0.5c0.4-0.2,0.8-0.5,1.3-0.9c0.5-0.4,0.9-0.9,1.3-1.5
			c0.2-0.3,0.4-0.8,0.7-1.6C306.2,69.1,306.3,68.7,306.5,68.4z"/>
		<path class="st0" d="M313.4,72.7c0.3,0,0.6,0,0.8,0h1l1.4,0l1.8,0.1l1.5,0c0.8,0,1.5,0.1,2.1,0.2c0.1,0.1,0.1,0.3,0.1,0.3l0,0.2
			c-0.3,0.1-0.8,0.2-1.4,0.3c-0.9,0.1-1.5,0.2-1.9,0.5l0,0.2c0,0.1,0.1,0.4,0.2,0.6c0.1,0.2,0.2,0.4,0.3,0.8c0.3,1.1,1,3.1,2.1,6.2
			c0.8,2.2,1.5,4.1,2.1,5.7c0.4-0.9,0.8-2,1.4-3.3l1.8-5.1c0.4-1.1,0.7-2.2,0.9-3.3c0.1-0.4,0.1-0.8,0.1-1.1c0-0.2-0.1-0.4-0.3-0.6
			c-0.2-0.2-0.6-0.3-1.1-0.5c-1-0.3-1.6-0.4-1.7-0.5s-0.1-0.2-0.2-0.4c0.1-0.1,0.2-0.1,0.3-0.2h1.3l1.4,0l2.1,0l1.4,0l0.3,0
			c0.1,0,0.3,0,0.5,0c0.1,0.1,0.2,0.2,0.2,0.3c0,0.1-0.1,0.3-0.2,0.4l-0.4,0.1c-0.8,0.1-1.5,0.3-1.9,0.6c-0.2,0.2-0.5,0.5-0.6,1.1
			c-0.1,0.2-0.2,0.5-0.3,0.8c-0.1,0.2-0.2,0.5-0.3,0.9c-0.1,0.4-0.3,0.9-0.5,1.4l-0.3,0.6l0,0.1l-3.6,9.6l-2.7,7.2
			c-0.2,0.4-0.4,0.8-0.6,1.3c-0.5,1-0.9,1.6-1,1.7c-0.4,0.5-0.8,0.9-1.1,1.1l-1.1,0.5c-0.2,0.1-0.4,0.1-0.7,0.1
			c-0.6,0-1.1-0.1-1.4-0.4c-0.3-0.3-0.5-0.7-0.5-1.2c0-0.5,0.2-0.9,0.7-1.3c0.1,0,0.3-0.1,0.4-0.2l0.3-0.1c1.3,0.2,2.1,0.3,2.4,0.3
			c0.3-0.2,0.5-0.3,0.7-0.6c0.7-1,1.3-2.2,1.8-3.5c0.5-1.3,0.8-2.1,0.8-2.6c0-0.5-0.2-1.2-0.6-2.1l-2.4-6.3c-0.3-0.8-1.3-3.5-2.9-8
			c-0.1-0.3-0.2-0.5-0.4-0.6l-1.5-0.5l-0.5-0.1c-0.2-0.1-0.4-0.2-0.4-0.4L313.4,72.7z"/>
		<path class="st0" d="M344,81c0-1,0.2-2,0.6-3.1c0.4-1.1,1-2.1,1.9-3s1.7-1.5,2.6-2c1.3-0.6,2.9-0.9,4.8-0.9c2.7,0,4.9,0.9,6.7,2.8
			c1.8,1.8,2.7,4,2.7,6.6c0,2.3-0.9,4.3-2.8,6.1c-1.9,1.8-4.3,2.7-7.1,2.7c-1.8,0-3.5-0.5-5-1.4c-1.2-0.7-2.2-1.7-3-3.1
			S344,82.8,344,81z M353.5,89.4c1.1,0,2.1-0.3,3.2-0.9c1-0.6,1.8-1.5,2.4-2.8c0.6-1.3,0.9-2.8,0.9-4.5c0-1.1-0.2-2.4-0.7-3.9
			c-0.5-1.5-1.2-2.6-2.2-3.3c-1-0.7-2.1-1.1-3.4-1.1c-0.9,0-1.9,0.2-2.9,0.7c-1,0.4-1.8,1.3-2.5,2.6c-0.7,1.3-1,3.1-1,5.4
			c0,2.6,0.6,4.6,1.8,5.9C350.3,88.7,351.8,89.4,353.5,89.4z"/>
		<path class="st0" d="M372.8,72.9c3.6,0.1,5.5,0.1,5.7,0.1c0,0.3,0,0.6,0,0.7c0,0.2,0,0.5-0.1,0.8c-0.4,0.1-0.7,0.1-1.1,0.1h-0.8
			c-1.8,0-3,0.1-3.7,0.2c0,0.3,0,0.6,0,0.8c0,0.1,0,0.2,0,0.3c0.1,2.2,0.1,3.6,0.1,4.1l0,5.5c0,0.8,0.1,1.5,0.4,2
			c0.2,0.3,0.5,0.6,0.9,0.8c0.3,0.1,0.9,0.3,2,0.4c0.8,0.1,1.3,0.2,1.6,0.2c0,0.3,0,0.5-0.1,0.7l-0.3,0c-0.7,0-1.6-0.1-2.7-0.1
			l-1.6-0.1l-5.4,0.2H367l0-0.7c0.2,0,0.4-0.1,0.5-0.1c1.2-0.2,2-0.5,2.4-0.8c0.1-0.1,0.2-0.3,0.3-0.6c0-0.2,0-1,0-2.4
			c0-4.1,0-7.3-0.1-9.8c-0.4-0.1-0.9-0.2-1.7-0.2c-0.3,0-0.7,0-1.4-0.1l0-0.2c0-0.2,0.1-0.3,0.2-0.4c0.1-0.1,0.7-0.4,1.8-0.9
			c0.4-0.2,0.8-0.4,0.9-0.7c0.1-0.2,0.2-0.5,0.2-1c0-0.2,0.1-0.6,0.1-1.2c0.2-1.5,0.3-2.4,0.4-2.7c0.3-1,0.7-1.9,1.3-2.9
			c0.6-1,1.3-1.8,2.2-2.5c0.6-0.5,1.3-0.9,2.1-1.2c0.8-0.3,1.7-0.4,2.7-0.4c1.4,0,2.4,0.2,3,0.7c0.4,0.3,0.6,0.7,0.6,1.2
			c0,0.4-0.2,0.7-0.5,1s-0.7,0.4-1.1,0.4c-0.5,0-1.1-0.1-1.8-0.4c-1.2-0.5-1.9-0.7-2-0.8c-0.3-0.1-0.6-0.1-0.8-0.1
			c-0.8,0-1.5,0.3-2.2,0.8c-0.7,0.5-1.1,1.1-1.2,1.9s-0.3,2.4-0.3,4.9C372.8,71.3,372.8,72.2,372.8,72.9z"/>
		<path class="st0" d="M387.2,97.5c0.3-0.2,0.5-0.3,0.7-0.3c0.7,0,1.4,0.4,2.3,1.1c0.1,0.1,0.2,0.2,0.3,0.3l0.1,0.1
			c0.3,0.3,0.7,0.4,1.1,0.4c0.5,0,1.1-0.2,1.6-0.6c0.5-0.4,1-0.9,1.3-1.5c0.4-0.9,0.8-1.9,1-3.1c0.2-1.1,0.3-2.5,0.3-4.2l0-3.4
			l0-2.3c0-1.6-0.1-4-0.2-7.2l-0.1-8l0-4.1c0-0.4-0.1-0.7-0.2-1c-0.1-0.1-0.2-0.3-0.5-0.4c-0.2-0.1-0.5-0.2-1-0.2l-1.6-0.1
			c-0.5,0-0.8,0-1-0.2c-0.1-0.2-0.1-0.4-0.1-0.5l0-0.3c0.3,0,0.7,0,1.2,0c0.9,0,1.8,0.1,2.6,0.1c0.4,0,0.9,0,1.6,0
			c0.5,0,0.9,0,1.1,0h3.2c0.4,0,0.9,0,1.4,0.1c0,0.3,0,0.6,0,0.8c-1.2,0.1-2,0.1-2.3,0.3c-0.3,0.1-0.6,0.3-0.7,0.5
			c-0.1,0.1-0.2,0.4-0.2,0.8l-0.1,2.2l0,0.5c0,0.3,0,0.8,0,1.5v0.9c0,0.5,0,0.9,0,1.3c0,0.6,0,0.9,0,1c0,0.1,0,0.5,0,1
			c0,0.2,0,0.3,0,0.4l0.3,6l0,3.8v2.5c0,1.4-0.3,3.4-0.8,6c-0.4,1.9-1.1,3.6-2.2,5.1s-2.1,2.6-3.1,3.1s-2.4,0.8-4.1,0.8
			c-0.9,0-1.6-0.2-2.2-0.6c-0.4-0.3-0.6-0.7-0.6-1.2C386.4,98.3,386.7,97.8,387.2,97.5z"/>
		<path class="st0" d="M405.1,72.7c0.3,0,0.6,0,0.8,0h1l1.4,0l1.8,0.1l1.5,0c0.8,0,1.5,0.1,2.1,0.2c0.1,0.1,0.1,0.3,0.1,0.3l0,0.2
			c-0.3,0.1-0.8,0.2-1.4,0.3c-0.9,0.1-1.5,0.2-1.9,0.5l0,0.2c0,0.1,0.1,0.4,0.2,0.6c0.1,0.2,0.2,0.4,0.3,0.8c0.3,1.1,1,3.1,2.1,6.2
			c0.8,2.2,1.5,4.1,2.1,5.7c0.4-0.9,0.8-2,1.4-3.3l1.8-5.1c0.4-1.1,0.7-2.2,0.9-3.3c0.1-0.4,0.1-0.8,0.1-1.1c0-0.2-0.1-0.4-0.3-0.6
			c-0.2-0.2-0.6-0.3-1.1-0.5c-1-0.3-1.6-0.4-1.7-0.5s-0.1-0.2-0.2-0.4c0.1-0.1,0.2-0.1,0.3-0.2h1.3l1.4,0l2.1,0l1.4,0l0.3,0
			c0.1,0,0.3,0,0.5,0c0.1,0.1,0.2,0.2,0.2,0.3c0,0.1-0.1,0.3-0.2,0.4l-0.4,0.1c-0.8,0.1-1.5,0.3-1.9,0.6c-0.2,0.2-0.5,0.5-0.6,1.1
			c-0.1,0.2-0.2,0.5-0.3,0.8c-0.1,0.2-0.2,0.5-0.3,0.9c-0.1,0.4-0.3,0.9-0.5,1.4l-0.3,0.6l0,0.1l-3.6,9.6l-2.7,7.2
			c-0.2,0.4-0.4,0.8-0.6,1.3c-0.5,1-0.9,1.6-1,1.7c-0.4,0.5-0.8,0.9-1.1,1.1l-1.1,0.5c-0.2,0.1-0.4,0.1-0.7,0.1
			c-0.6,0-1.1-0.1-1.4-0.4c-0.3-0.3-0.5-0.7-0.5-1.2c0-0.5,0.2-0.9,0.7-1.3c0.1,0,0.3-0.1,0.4-0.2l0.3-0.1c1.3,0.2,2.1,0.3,2.4,0.3
			c0.3-0.2,0.5-0.3,0.7-0.6c0.7-1,1.3-2.2,1.8-3.5c0.5-1.3,0.8-2.1,0.8-2.6c0-0.5-0.2-1.2-0.6-2.1l-2.4-6.3c-0.3-0.8-1.3-3.5-2.9-8
			c-0.1-0.3-0.2-0.5-0.4-0.6l-1.5-0.5l-0.5-0.1c-0.2-0.1-0.4-0.2-0.4-0.4L405.1,72.7z"/>
		<path class="st0" d="M423.8,72.8h1.6l0.7,0l0.6,0c1.5,0,2.4,0,2.7,0l0,0.4c0,2,0,4-0.1,5.9c0,1.1-0.1,1.8-0.1,1.9
			c0,2.5,0.1,4.1,0.2,4.7c0.2,0.6,0.6,1.1,1.2,1.5c0.6,0.4,1.3,0.6,2.2,0.6c1,0,2-0.2,3-0.7c1-0.4,1.8-1,2.4-1.6
			c0.1-0.5,0.1-1.1,0.1-1.8c0-2.1,0-3.6,0.1-4.3c0-0.4,0-0.8,0-1.2c0-2.3-0.1-3.6-0.3-3.9s-1.1-0.5-2.6-0.7
			c-0.5-0.1-0.9-0.1-1.1-0.2c-0.1-0.2-0.2-0.3-0.2-0.4l0.1-0.2c0.4,0,0.7-0.1,1.1-0.1l3.4,0c1.2,0,1.9,0,1.9,0c0.2,0,0.3,0,0.5,0
			l0,1.6c-0.1,2.2-0.2,4.9-0.2,8.1l0,1.7l0.1,2.9c0.1,0.2,0.2,0.4,0.3,0.4c0.2,0.1,0.5,0.1,1.1,0.1h0.2c0.2,0,0.7,0,1.6,0.1
			c0,0.2,0,0.3,0,0.4v0.2c-1.9,0.4-3.5,0.8-4.7,1.2c-0.5,0.2-0.9,0.3-1.2,0.3c-0.1-0.5-0.1-0.8-0.1-0.9v-1.7c0-0.1,0-0.3,0-0.6
			c-0.2,0.1-0.4,0.3-0.6,0.5c-1.1,0.9-2.3,1.6-3.6,2.2c-0.8,0.4-1.7,0.6-2.4,0.6c-1.5,0-2.7-0.6-3.7-1.7c-1-1.1-1.4-3-1.4-5.7
			c0-0.1,0-0.4,0-0.8c0.1-0.7,0.1-1.2,0.1-1.4c0-0.1,0-0.4,0-0.9c0-0.2,0-0.4,0-0.6c0-0.1,0-0.4,0-0.9s0-0.8,0-1c0-0.2,0-0.5,0-0.6
			l0-1.1l0-0.6c0-0.2-0.1-0.4-0.3-0.6c-0.9-0.2-1.5-0.4-1.8-0.4c-0.3,0-0.5-0.1-0.7-0.2V72.8z"/>
		<path class="st0" d="M445.8,89.6l0-0.6c0.1-0.1,0.2-0.1,0.3-0.2s0.5-0.1,1.1-0.1s1-0.2,1.2-0.4c0.2-0.2,0.2-1.2,0.2-2.9l0-8.5
			l0-1.5c0-0.1,0-0.6,0-1.4c0-0.4,0-0.9,0-1.4l-0.1-3.7l0-3.3c0-0.8-0.1-1.3-0.3-1.5c-0.2-0.2-1-0.4-2.4-0.6v-0.3c0-0.1,0-0.2,0-0.4
			c0.8-0.2,1.5-0.4,2.2-0.6c0.3-0.1,1.2-0.6,2.5-1.3h0.7c0,0.3,0,0.5,0,0.6v1.9l0,0.9l0.1,1.7l0,2.6l0,4.3l-0.1,5.3v1.6
			c0,0.2,0,0.5,0,0.8l0.2,0c0.5,0,1-0.2,1.5-0.5c2.2-1.6,3.7-2.7,4.2-3.3s0.9-1,0.9-1.3c0-0.2-0.1-0.4-0.3-0.6
			c-0.4-0.2-0.9-0.4-1.4-0.5c-0.2,0-0.3-0.1-0.5-0.1c-0.3-0.1-0.5-0.1-0.6-0.2l0-0.2c0-0.1,0-0.2,0.1-0.4c2.3-0.1,4.2-0.1,5.9-0.1
			c0.9,0,2,0,3,0.1v0.3c0,0.1,0,0.2-0.1,0.4c-0.2,0-0.6,0.1-1,0.2c-0.9,0.1-1.6,0.3-2,0.6c-1.1,0.6-2.2,1.4-3.4,2.5
			c-0.7,0.6-1.3,1.2-1.8,1.6l-0.8,0.7c0.1,0.1,0.2,0.2,0.3,0.4c0.1,0.1,0.2,0.2,0.3,0.4c0.2,0.2,0.5,0.5,0.9,1
			c1.5,1.6,2.7,2.9,3.4,3.8c0.2,0.3,0.5,0.6,0.8,0.9c1.1,1.2,1.8,1.9,2,2.1c0.4,0.3,1,0.5,1.8,0.6c0.4,0.1,0.7,0.1,1,0.2
			c0.1,0.2,0.1,0.3,0.1,0.4l0,0.2c-1-0.1-1.7-0.1-2.2-0.1h-0.4l-6,0.2c-0.2,0-0.4,0-0.5,0c-0.1,0-0.3,0-0.5-0.1
			c0-0.1-0.1-0.2-0.1-0.3v-0.2c0.1-0.1,0.2-0.2,0.2-0.2c1.4-0.1,2.2-0.2,2.5-0.3c0.1,0,0.2-0.1,0.4-0.2c0-0.2-0.2-0.6-0.6-1.2
			c-0.4-0.5-1.5-1.7-3.1-3.6c-1.1-1.2-1.7-1.9-2-2.1c-0.3-0.2-0.7-0.3-1.3-0.3h-0.8c-0.1,0.5-0.1,1.7-0.1,3.5c0,1.7,0.1,2.8,0.4,3.3
			c0.2,0.3,0.5,0.4,1.1,0.5s1,0.2,1.1,0.3c0.1,0.1,0.2,0.3,0.2,0.6c-0.9,0-1.6,0-2.2,0c-0.9,0-2,0-3.1,0.1c-0.7,0-1.2,0-1.6,0
			C447,89.7,446.5,89.7,445.8,89.6z"/>
		<path class="st0" d="M465.6,72.7c0.3,0,0.6,0,0.8,0h1l1.4,0l1.8,0.1l1.5,0c0.8,0,1.5,0.1,2.1,0.2c0.1,0.1,0.1,0.3,0.1,0.3l0,0.2
			c-0.3,0.1-0.8,0.2-1.4,0.3c-0.9,0.1-1.5,0.2-1.9,0.5l0,0.2c0,0.1,0.1,0.4,0.2,0.6c0.1,0.2,0.2,0.4,0.3,0.8c0.3,1.1,1,3.1,2.1,6.2
			c0.8,2.2,1.5,4.1,2.1,5.7c0.4-0.9,0.8-2,1.4-3.3l1.8-5.1c0.4-1.1,0.7-2.2,0.9-3.3c0.1-0.4,0.1-0.8,0.1-1.1c0-0.2-0.1-0.4-0.3-0.6
			c-0.2-0.2-0.6-0.3-1.1-0.5c-1-0.3-1.6-0.4-1.7-0.5s-0.1-0.2-0.2-0.4c0.1-0.1,0.2-0.1,0.3-0.2h1.3l1.4,0l2.1,0l1.4,0l0.3,0
			c0.1,0,0.3,0,0.5,0c0.1,0.1,0.2,0.2,0.2,0.3c0,0.1-0.1,0.3-0.2,0.4l-0.4,0.1c-0.8,0.1-1.5,0.3-1.9,0.6c-0.2,0.2-0.5,0.5-0.6,1.1
			c-0.1,0.2-0.2,0.5-0.3,0.8c-0.1,0.2-0.2,0.5-0.3,0.9c-0.1,0.4-0.3,0.9-0.5,1.4l-0.3,0.6l0,0.1l-3.6,9.6l-2.7,7.2
			c-0.2,0.4-0.4,0.8-0.6,1.3c-0.5,1-0.9,1.6-1,1.7c-0.4,0.5-0.8,0.9-1.1,1.1l-1.1,0.5c-0.2,0.1-0.4,0.1-0.7,0.1
			c-0.6,0-1.1-0.1-1.4-0.4c-0.3-0.3-0.5-0.7-0.5-1.2c0-0.5,0.2-0.9,0.7-1.3c0.1,0,0.3-0.1,0.4-0.2l0.3-0.1c1.3,0.2,2.1,0.3,2.4,0.3
			c0.3-0.2,0.5-0.3,0.7-0.6c0.7-1,1.3-2.2,1.8-3.5c0.5-1.3,0.8-2.1,0.8-2.6c0-0.5-0.2-1.2-0.6-2.1l-2.4-6.3c-0.3-0.8-1.3-3.5-2.9-8
			c-0.1-0.3-0.2-0.5-0.4-0.6l-1.5-0.5l-0.5-0.1c-0.2-0.1-0.4-0.2-0.4-0.4L465.6,72.7z"/>
		<path class="st0" d="M485.2,81c0-1,0.2-2,0.6-3.1c0.4-1.1,1-2.1,1.9-3s1.7-1.5,2.6-2c1.3-0.6,2.9-0.9,4.8-0.9
			c2.7,0,4.9,0.9,6.7,2.8c1.8,1.8,2.7,4,2.7,6.6c0,2.3-0.9,4.3-2.8,6.1c-1.9,1.8-4.3,2.7-7.1,2.7c-1.8,0-3.5-0.5-5-1.4
			c-1.2-0.7-2.2-1.7-3-3.1S485.2,82.8,485.2,81z M494.7,89.4c1.1,0,2.1-0.3,3.2-0.9c1-0.6,1.8-1.5,2.4-2.8c0.6-1.3,0.9-2.8,0.9-4.5
			c0-1.1-0.2-2.4-0.7-3.9c-0.5-1.5-1.2-2.6-2.2-3.3c-1-0.7-2.1-1.1-3.4-1.1c-0.9,0-1.9,0.2-2.9,0.7c-1,0.4-1.8,1.3-2.5,2.6
			c-0.7,1.3-1,3.1-1,5.4c0,2.6,0.6,4.6,1.8,5.9C491.5,88.7,492.9,89.4,494.7,89.4z"/>
		<path class="st0" d="M545.7,63.6l0.2,3.3c0.1,1,0.1,1.7,0.1,2l-0.6,0.1c-1-2.2-2.2-3.8-3.6-4.9c-1.4-1.1-3.2-1.6-5.2-1.6
			c-2.5,0-4.5,0.3-5.9,0.9c-2,0.9-3.8,2.4-5.2,4.6c-1.4,2.2-2.2,4.8-2.2,7.8c0,1.8,0.3,3.3,0.8,4.7c0.5,1.4,1.3,2.7,2.2,3.9
			c1,1.2,2.1,2.3,3.4,3.1c0.9,0.6,1.9,1,3.1,1.3c0.7,0.2,1.7,0.2,3,0.2c0.9,0,1.8-0.1,2.9-0.4c1-0.2,1.8-0.6,2.4-1s0.9-0.9,1.1-1.4
			s0.3-1.5,0.3-3c0-2.5-0.2-3.9-0.5-4.3s-1.4-0.7-3.1-0.8l-0.9-0.1l-0.6,0c-0.1,0-0.2,0-0.3-0.1l-0.3-0.5c0-0.1,0.1-0.2,0.2-0.3
			c0.7-0.1,2.4-0.2,4.9-0.2c0.6,0,1.5,0,2.7,0l2.2,0.1l2,0c0.4,0,0.9,0,1.4,0c0.1,0,0.2,0,0.2,0.1c0,0,0,0.1,0,0.2
			c0,0.2,0,0.4-0.1,0.6c-0.6,0.1-1.1,0.2-1.4,0.2l-1.4,0c-0.5,0-0.9,0.2-1.1,0.5c-0.1,0.2-0.2,0.7-0.2,1.6l0,2.8
			c0,1.9-0.1,3.2-0.2,3.7c-0.1,0.3-0.3,0.6-0.5,0.8c-0.3,0.3-0.8,0.5-1.7,0.9c-1.2,0.5-2.4,0.8-3.4,1c-1.9,0.3-3.7,0.5-5.5,0.5
			c-2.8,0-5.2-0.4-7-1.1c-1.8-0.7-3.4-1.7-4.7-3s-2.2-2.6-2.8-3.9c-0.8-1.9-1.3-3.9-1.3-5.9c0-2.5,0.7-5,2-7.4
			c1.3-2.4,3.5-4.4,6.4-5.9c2.1-1.1,4.9-1.6,8.5-1.6c2.5,0,4.5,0.2,6,0.6S544.8,63,545.7,63.6z"/>
		<path class="st0" d="M551.9,89.7l-0.1-0.3c0-0.1,0.1-0.3,0.2-0.5l1.3-0.3l1.8-0.3c0.1-0.1,0.2-0.2,0.3-0.3
			c0.1-0.2,0.1-0.7,0.1-1.7c0-4.9,0-7.7-0.1-8.4s-0.2-1.2-0.4-1.4s-0.7-0.4-1.5-0.5c-0.5-0.1-0.9-0.2-1.2-0.3l0.1-0.7
			c1.5-0.6,2.5-1.1,3-1.6c0.7-0.6,1.3-1.5,1.8-2.5l0.7,0c0.1,0.7,0.1,2.3,0.1,4.8l0,0.4c0,0.1,0,0.2,0,0.4c0.5-1,1.2-1.9,2-2.7
			l0.5-0.5c0.2-0.2,0.4-0.4,0.6-0.5c1-0.6,1.7-0.9,2.2-0.9c0.6,0,1.1,0.2,1.5,0.6c0.4,0.4,0.6,0.9,0.6,1.6c0,0.5-0.1,0.9-0.4,1.1
			c-0.4,0.4-0.8,0.5-1.3,0.5c-0.2,0-0.7-0.1-1.4-0.4c-0.7-0.2-1.1-0.4-1.3-0.4c-0.4,0-0.7,0.1-0.8,0.2c-0.4,0.3-0.9,1-1.5,1.9
			c-0.4,0.7-0.7,1.4-0.7,2l0.1,3.6l0,4.3c0,0.5,0.1,0.8,0.2,0.9c0.1,0.1,0.2,0.2,0.4,0.4c1.5,0.1,2.5,0.2,2.8,0.3c0.2,0,0.4,0,0.5,0
			c0.6,0,1,0.1,1.3,0.3c0.1,0.1,0.2,0.2,0.2,0.3c0,0.1-0.1,0.2-0.2,0.3l-2.4,0l-0.9,0l-1.3,0h-2.2l-1.2,0.1L551.9,89.7z"/>
		<path class="st0" d="M567.2,81c0-1,0.2-2,0.6-3.1c0.4-1.1,1-2.1,1.9-3s1.7-1.5,2.6-2c1.3-0.6,2.9-0.9,4.8-0.9
			c2.7,0,4.9,0.9,6.7,2.8c1.8,1.8,2.7,4,2.7,6.6c0,2.3-0.9,4.3-2.8,6.1c-1.9,1.8-4.3,2.7-7.1,2.7c-1.8,0-3.5-0.5-5-1.4
			c-1.2-0.7-2.2-1.7-3-3.1S567.2,82.8,567.2,81z M576.7,89.4c1.1,0,2.1-0.3,3.2-0.9c1-0.6,1.8-1.5,2.4-2.8c0.6-1.3,0.9-2.8,0.9-4.5
			c0-1.1-0.2-2.4-0.7-3.9c-0.5-1.5-1.2-2.6-2.2-3.3c-1-0.7-2.1-1.1-3.4-1.1c-0.9,0-1.9,0.2-2.9,0.7c-1,0.4-1.8,1.3-2.5,2.6
			c-0.7,1.3-1,3.1-1,5.4c0,2.6,0.6,4.6,1.8,5.9C573.5,88.7,575,89.4,576.7,89.4z"/>
		<path class="st0" d="M588.8,72.8h1.6l0.7,0l0.6,0c1.5,0,2.4,0,2.7,0l0,0.4c0,2,0,4-0.1,5.9c0,1.1-0.1,1.8-0.1,1.9
			c0,2.5,0.1,4.1,0.2,4.7c0.2,0.6,0.6,1.1,1.2,1.5c0.6,0.4,1.3,0.6,2.2,0.6c1,0,2-0.2,3-0.7c1-0.4,1.8-1,2.4-1.6
			c0.1-0.5,0.1-1.1,0.1-1.8c0-2.1,0-3.6,0.1-4.3c0-0.4,0-0.8,0-1.2c0-2.3-0.1-3.6-0.3-3.9s-1.1-0.5-2.6-0.7
			c-0.5-0.1-0.9-0.1-1.1-0.2c-0.1-0.2-0.2-0.3-0.2-0.4l0.1-0.2c0.4,0,0.7-0.1,1.1-0.1l3.4,0c1.2,0,1.9,0,1.9,0c0.2,0,0.3,0,0.5,0
			l0,1.6c-0.1,2.2-0.2,4.9-0.2,8.1l0,1.7l0.1,2.9c0.1,0.2,0.2,0.4,0.3,0.4c0.2,0.1,0.5,0.1,1.1,0.1h0.2c0.2,0,0.7,0,1.6,0.1
			c0,0.2,0,0.3,0,0.4v0.2c-1.9,0.4-3.5,0.8-4.7,1.2c-0.5,0.2-0.9,0.3-1.2,0.3c-0.1-0.5-0.1-0.8-0.1-0.9v-1.7c0-0.1,0-0.3,0-0.6
			c-0.2,0.1-0.4,0.3-0.6,0.5c-1.1,0.9-2.3,1.6-3.6,2.2c-0.8,0.4-1.7,0.6-2.4,0.6c-1.5,0-2.7-0.6-3.7-1.7c-1-1.1-1.4-3-1.4-5.7
			c0-0.1,0-0.4,0-0.8c0.1-0.7,0.1-1.2,0.1-1.4c0-0.1,0-0.4,0-0.9c0-0.2,0-0.4,0-0.6c0-0.1,0-0.4,0-0.9s0-0.8,0-1c0-0.2,0-0.5,0-0.6
			l0-1.1l0-0.6c0-0.2-0.1-0.4-0.3-0.6c-0.9-0.2-1.5-0.4-1.8-0.4c-0.3,0-0.5-0.1-0.7-0.2V72.8z"/>
		<path class="st0" d="M610.2,100.9c0-0.2,0-0.3,0-0.4c0-0.1,0-0.2,0-0.4l2.2-0.4c0.3-0.2,0.6-0.4,0.8-0.6c0.1-0.3,0.1-0.5,0.1-0.8
			c0-2.2-0.1-6.4-0.2-12.6l-0.1-7.9c0-1.2-0.1-2-0.2-2.4c-0.1-0.2-0.2-0.3-0.3-0.4c-0.4-0.3-1.1-0.5-2.1-0.7l0.1-0.7
			c1.5-0.7,2.6-1.2,3.1-1.5c0.5-0.4,1-0.9,1.5-1.5l0.3-0.1c0.1,0,0.2,0,0.4,0.1c0,0.9,0,1.5,0,1.8l0,2.4c1.1-0.8,2.2-1.4,3.3-1.8
			c1.1-0.4,2.3-0.6,3.6-0.6c2.2,0,4.1,0.8,5.6,2.3c1.5,1.6,2.3,3.6,2.3,6c0,1.8-0.4,3.5-1.3,4.9c-0.9,1.4-2,2.5-3.5,3.2
			c-1.5,0.7-3,1.1-4.5,1.1c-1.3,0-2.8-0.4-4.4-1.1c-0.3-0.1-0.5-0.2-0.7-0.3c0,1.1,0,2.2,0,3.1c0,4.4,0.1,6.9,0.4,7.4
			c0.1,0.3,0.5,0.5,1.2,0.5c1.2,0.1,1.9,0.3,2.3,0.5c0.2,0.1,0.4,0.4,0.4,0.8l-2.1,0l-1.9,0l-3.2,0L610.2,100.9z M615.8,76.3
			c0,0.2,0,0.4,0,0.6c0,5.1,0.1,8,0.2,8.6c0.2,1.1,0.6,1.9,1.2,2.4c0.9,0.7,2.3,1.1,4,1.1c1.8,0,3.3-0.6,4.5-1.9
			c1.2-1.2,1.8-2.8,1.8-4.8c0-2.4-0.7-4.3-2-5.7c-1.3-1.4-3-2.1-5.2-2.1c-0.9,0-1.7,0.1-2.5,0.4C617.1,75.2,616.4,75.7,615.8,76.3z"
			/>
	</g>
</g>
<g>
	<g>
		<path class="st0" d="M58.6,70.1c0-8.4,1.9-17.1,5.8-26.2C69,33,74.1,25.5,79.6,21.3c5.5-4.2,11-6.3,16.4-6.3
			c4.7,0,8.5,1.8,11.2,5.3c3.6,4.7,5.3,11.9,5.3,21.6c0,11.2-2.9,22.5-8.7,33.7c-3.6,7-8.4,12.8-14.2,17.3
			c-4.4,3.4-8.8,5.2-13.1,5.2c-4.7,0-8.6-2-11.6-5.8C60.7,86.8,58.6,79.4,58.6,70.1z M66.8,78.6c0,6.4,0.9,10.8,2.6,13.1
			s4,3.4,6.7,3.4c3.9,0,7.4-1.7,10.4-5.2c4.6-5.1,9.1-15.1,13.5-30c3.6-12,5.3-21.3,5.3-27.9c0-4.9-1-8.7-3.1-11.3
			c-1.4-1.8-3.5-2.8-6.4-2.8c-4.2,0-8.1,2.1-11.8,6.4c-4.7,5.3-9,14.6-12.6,27.7C68.3,62.7,66.8,71.5,66.8,78.6z"/>
		<path class="st0" d="M132.9,54.9l13-38.4l5.8-0.1c1.8,0,4.4,0.1,7.9,0.2c2.1,0.1,3.4,0.2,4,0.2c4.4,0,7.2-0.1,8.3-0.4
			c0.6-0.2,1.1-0.6,1.6-1.2s1.1-1,1.9-1h1.2l-2.4,8c-0.4,1.3-0.8,2.1-1.1,2.5c-2.1,0.3-4.2,0.5-6.4,0.5c-2.3,0-6.3-0.1-12.1-0.3
			c-3-0.1-5.6-0.2-7.7-0.2l-6.6,19.4c2.4-0.7,4.4-1.1,6-1.1c4.9,0,8.9,1.6,12.1,4.8s4.8,7.3,4.8,12.3c0,6.2-2.1,12.4-6.4,18.6
			c-4.3,6.2-10.7,11.2-19.3,15c-5.9,2.6-13.6,4-23.1,4.3c-0.1-0.6-0.1-1.1-0.1-1.5c0-0.5,0.1-0.9,0.4-1.3c2.7,0,6.5-0.6,11.3-1.7
			s9.3-3.1,13.5-5.8c4.2-2.8,7.7-6.7,10.6-11.6c2.9-5,4.4-9.5,4.4-13.7c0-3.4-1-6.1-3-8.2c-2-2.1-4.6-3.2-7.8-3.2
			C140.7,51,137.1,52.3,132.9,54.9z"/>
	</g>
</g>
</svg>
