<?xml version="1.0" encoding="utf-8"?>
<!-- Generator: Adobe Illustrator 27.0.0, SVG Export Plug-In . SVG Version: 6.00 Build 0)  -->
<svg version="1.1" id="レイヤー_1" xmlns="http://www.w3.org/2000/svg" xmlns:xlink="http://www.w3.org/1999/xlink" x="0px"
	 y="0px" viewBox="0 0 387 29" style="enable-background:new 0 0 387 29;" xml:space="preserve">
<g>
	<g>
		<path d="M9.7,4.9h-5l1,0.5C5.8,5.5,6,5.5,6,5.7C6,5.9,5.7,6,5.3,6.2c0,0.5,0,0.9,0,2H7l0.2-0.3c0-0.1,0.2-0.3,0.3-0.3
			s0.1,0,0.3,0.2l0.8,0.6c0.1,0.1,0.2,0.2,0.2,0.3S8.6,8.8,8.6,8.8c-0.1,0-0.4,0.3-0.5,0.3c0,1.8-0.1,6.8-1,8.1
			c-0.3,0.4-1,0.8-1.9,1.1C5,17.7,4.9,17.2,4,16.6v-0.1c0.7,0.1,1.3,0.2,1.6,0.2c0.3,0,0.6-0.1,0.9-0.9C6.9,14.4,7,13,7,8.8
			c0-0.1,0-0.2,0-0.3H5.2c-0.3,4.2-1.2,7.1-3.8,9.6L1.3,18c2.1-3.1,2.9-6.9,2.9-10.6c0-0.8,0-1.8-0.2-2.5c-0.2,0-1.3,0-2.2,0.2
			L1.4,4.3c1.4,0.1,2.8,0.1,3.4,0.1c0-2.1,0-2.5-0.1-2.9c0,0-0.2-1.1-0.3-1.3l1.8,0.5c0.1,0,0.3,0.1,0.3,0.3S6.4,1.3,5.8,1.6
			c0,1.1,0,2.6,0,2.9H8L8.4,4c0.1-0.2,0.2-0.2,0.3-0.2s0.1,0,0.4,0.2l0.7,0.5c0,0,0.2,0.1,0.2,0.2C10,4.9,9.8,4.9,9.7,4.9z
			 M18.7,17.6c-0.5,0.2-1,0.3-4.6,0.3c-2.2,0-2.8,0-3.1-0.2c-0.5-0.3-0.5-1-0.5-2.5c0-0.7,0-3.9,0-4.6c-0.7,0.3-0.9,0.4-1.3,0.6
			l-0.7-0.7c1-0.2,1.2-0.2,2-0.4c0-1.8-0.1-2.2-0.2-2.7l1.5,0.5c0.1-0.1,0.2,0,0.2,0c0,0.2-0.4,0.5-0.6,0.6v1.2
			c0.2,0,0.2-0.1,0.3-0.1l2-0.5c0-2.4,0-2.7-0.2-3.6L14.9,6c0.2,0.1,0.3,0.2,0.3,0.2c0,0.2-0.2,0.3-0.6,0.6V8v0.9l2-0.5L17,7.8
			c0.1-0.2,0.2-0.3,0.3-0.3c0.1,0,0.3,0.1,0.4,0.2l0.7,0.4c0.2,0.1,0.3,0.2,0.3,0.3c0,0.2-0.5,0.5-0.7,0.6c0,0.5,0.1,3.6,0.1,3.8
			c0,0.7,0,1.7-1.4,2.2c-0.4-1.1-0.9-1.3-1.1-1.5v-0.1c1.4,0,1.4,0,1.5-0.4c0-0.3,0.1-2.8,0.1-2.9c0-0.8,0-1-0.1-1.4l-2.3,0.6
			c0,1.8,0,2.5,0,3.7c0,0.5,0.1,1.4,0.1,1.9s-0.6,0.7-0.8,0.7s-0.3-0.1-0.3-0.4c0-0.3,0.1-1.4,0.1-1.6c0-1.4,0-2.2,0-4.1l-2.2,0.6
			c0,4.3,0,5.8,0,6c0,0.3,0.2,0.4,0.5,0.5c0.3,0,1.4,0,1.8,0c0.8,0,3,0,3.6-0.1c0.6-0.1,1-0.5,1.4-2.5h0.1c0,0.1,0.3,1.9,0.3,1.9
			c0,0.1,0.2,0.2,0.2,0.3c0,0,0.1,0.1,0.1,0.2C19.5,17,19,17.5,18.7,17.6z M19,4.9h-7.6c-1,1.4-1.7,2.2-2.1,2.6L9.1,7.4
			c1.2-1.9,2.4-4.5,3-6.4c0.1-0.5,0.1-0.7,0.1-1l1.7,0.9c0.1,0,0.2,0.1,0.2,0.2c0,0.2-0.1,0.3-0.9,0.3C12.5,3,12,3.7,11.6,4.3h5.3
			l0.7-0.8c0.2-0.2,0.2-0.2,0.3-0.2c0.1,0,0.2,0,0.4,0.2L19,4.2c0.1,0.1,0.2,0.2,0.2,0.3C19.3,4.8,19.1,4.9,19,4.9z"/>
		<path d="M38.3,16.4H23.4c-0.4,0-1.6,0-2.6,0.2l-0.5-0.9c1,0.1,2.3,0.2,3.3,0.2h5.2V2.8h-4.2c-0.4,0-1.6,0-2.6,0.2l-0.5-0.9
			c1,0.1,2.3,0.2,3.3,0.2H35l0.7-0.8c0.1-0.1,0.2-0.3,0.3-0.3s0.2,0.1,0.4,0.2l1.1,0.8c0.1,0.1,0.2,0.2,0.2,0.3
			c0,0.2-0.2,0.2-0.3,0.2H30v13.1h5.4l1.1-1.1c0.3-0.2,0.3-0.3,0.3-0.3c0.1,0,0.3,0.2,0.4,0.2l1.1,1c0,0,0.2,0.2,0.2,0.3
			C38.6,16.4,38.4,16.4,38.3,16.4z"/>
		<path d="M56.6,18.1c-1.4-0.3-2.8-1-3.1-1.2c-1.8-0.9-3.2-2.3-4.4-4.3h-0.4c-1,2.7-3.4,4.9-8,5.7l-0.1-0.2c3.7-1,6.2-3.8,6.9-5.5
			h-4.4c-0.7,0-1.8,0.1-2.6,0.2L40.1,12c1.5,0.1,2.9,0.1,3.3,0.1h4.3c0.2-0.5,0.3-1.2,0.4-2.2H46c-0.7,0-1.8,0.1-2.6,0.2L43,9.3
			c1.5,0.1,2.9,0.2,3.3,0.2h1.8c0-0.4,0.1-1,0.1-2.2h-2.6c-0.7,0-1.8,0.1-2.6,0.2l-0.5-0.9c1.5,0.1,2.9,0.2,3.3,0.2h2.3
			c0-1.5-0.1-2.1-0.3-2.7l1.8,0.4c0.1,0,0.3,0.1,0.3,0.3c0,0.2-0.1,0.3-0.6,0.6c0,0.3,0,0.4,0,1.4h3.2L53.2,6
			c0.2-0.2,0.2-0.2,0.3-0.2s0.3,0.1,0.4,0.2l0.8,0.7c0.1,0.1,0.2,0.2,0.2,0.3c0,0.2-0.2,0.2-0.3,0.2h-5.3l-0.1,2.2h3.1l0.6-0.7
			c0.2-0.2,0.2-0.2,0.3-0.2s0.3,0.1,0.4,0.2l0.8,0.7c0.1,0.1,0.2,0.2,0.2,0.3c0,0.2-0.2,0.2-0.3,0.2h-5c-0.1,1.1-0.3,1.8-0.4,2.2H55
			l0.8-0.8c0.2-0.2,0.2-0.2,0.3-0.2s0.2,0.1,0.4,0.2l0.9,0.7c0.1,0.1,0.2,0.2,0.2,0.3c0,0.2-0.2,0.2-0.3,0.2h-7.9
			c3.2,4,7.4,3.9,8.9,3.8v0.2C57.4,16.9,57.2,17.1,56.6,18.1z M57,3.8c-0.2,0-0.3,0-0.9,0c-0.4,0.2-2,1.1-2.4,1.2l-0.1-0.1
			c0.4-0.5,0.9-1.2,1.1-1.6H42.4c0,1.6-0.4,3.3-1.7,3.3c-0.2,0-0.7-0.1-0.7-0.7c0-0.4,0.1-0.5,1-1.4C41.6,4,41.9,3.1,42,2h0.2
			c0.1,0.3,0.1,0.4,0.1,0.7h5.8C48,1,48,0.9,47.7,0.2l1.9,0.4C49.8,0.7,50,0.8,50,1c0,0.3-0.1,0.3-0.6,0.6v1.2h5.2l0.9-0.7
			c0.2-0.2,0.2-0.2,0.3-0.2s0.3,0,0.4,0.1l1.2,1c0.1,0.1,0.2,0.2,0.2,0.3C57.6,3.8,57.2,3.8,57,3.8z"/>
		<path d="M63.5,2c-0.2,0.6-0.4,1.4-1.4,3.1l0.6,0.3C62.9,5.6,63,5.7,63,5.8c0,0.2-0.4,0.5-0.6,0.6c-0.1,1,0,9.4,0,11
			c0,0.2-0.1,0.4-0.2,0.5c-0.2,0.1-0.4,0.2-0.6,0.2c-0.3,0-0.4-0.2-0.4-0.5c0-0.9,0.1-5,0.2-5.8c0-2.5,0-2.8,0.1-5.6
			c-0.6,1-1.7,2.6-2.8,3.7l-0.1-0.2c1.8-2.4,3.3-6.8,3.6-8c0.1-0.3,0.2-0.9,0.2-1.1L64,1.2c0.1,0.1,0.3,0.1,0.3,0.3S64.1,1.8,63.5,2
			z M70.7,3h-3c-0.3,1.1-0.8,2.3-1.4,3.4h2.4L69,5.9c0.1-0.1,0.2-0.2,0.3-0.2s0.2,0.1,0.3,0.1l0.7,0.5c0.1,0.1,0.2,0.2,0.2,0.4
			c0,0.2-0.2,0.5-0.6,0.6c-1.2,5.2-3.4,7.9-7.1,9.6l-0.1-0.2c4.3-3,5.4-6.5,6-9.9H66c-1.3,2.4-2.3,3.4-2.8,4l-0.1-0.1
			C64.8,8,66.2,4.2,66.4,3C66,3,64.9,3.1,64,3.2l-0.5-0.9c1,0.1,2.3,0.2,3.3,0.2h1.8l0.6-0.6c0.1-0.1,0.2-0.2,0.3-0.2
			s0.2,0.1,0.4,0.2l0.8,0.6c0.2,0,0.3,0.2,0.3,0.3C71,3,70.8,3,70.7,3z M67,11.4c-0.4,0-0.5-0.2-0.8-0.8C65.9,10,65.5,9.4,65,9
			l0.1-0.1c1.1,0.2,2.5,0.9,2.5,1.8C67.6,11.1,67.3,11.4,67,11.4z M75.8,2c0,0.7-0.1,1.4-0.1,3.7c0,1.5,0.1,8.3,0.1,9.6
			c0,1.2-0.3,2.4-2.4,2.7c-0.1-0.5-0.1-0.9-2.1-1.8v-0.1c0.4,0.1,1.1,0.1,1.9,0.1c1.1,0,1.4-0.1,1.5-0.5c0.1-0.3,0.1-3,0.1-3.6
			c0-2.5,0-7.7-0.2-10c0-0.7-0.1-1.2-0.2-1.6L76.1,1c0.2,0.1,0.3,0.2,0.3,0.3C76.5,1.7,76.2,1.8,75.8,2z M72.8,3.9
			c0,0.4-0.1,1.4-0.1,1.8c0,1.3,0.1,6.9,0.1,8.1c0,0.4-0.4,0.7-0.8,0.7s-0.4-0.2-0.4-0.5c0-1.8,0.2-4.8,0.2-6.6c0-1.6,0-3.3-0.3-4.9
			L73.1,3c0.2,0.1,0.4,0.1,0.4,0.3S73.2,3.7,72.8,3.9z"/>
	</g>
</g>
<g>
	<g>
		<path d="M355.9,16.9v-0.6h0.5c0.9,0,1.1-0.6,1.1-1.5V9.9c0-1.2-0.6-1.9-1.8-1.9c-1.6,0-2.6,1.2-3.1,1.8v5c0,0.8,0.2,1.5,1.2,1.5
			h0.5v0.6h-4.5v-0.6h0.4c0.9,0,1.1-0.6,1.1-1.5V10c0-1.4-0.5-2.1-1.9-2.1c-1.5,0-2.3,0.9-2.8,1.5v5.4c0,0.8,0.3,1.5,1.2,1.5h0.3
			v0.6h-4.2v-0.6h0.4c0.9,0,1.1-0.6,1.1-1.5V9c0-0.4-0.3-0.9-0.7-0.9c0,0-0.3,0-0.6,0.1L344,7.8l2.6-0.8v1.7
			c0.8-0.7,1.8-1.6,3.3-1.6c0.9,0,2.2,0.3,2.5,2c0.8-0.9,1.9-2,3.5-2c1.7,0,2.7,1.1,2.7,2.9v4.8c0,1,0.3,1.5,1,1.5h0.5v0.6H355.9z"
			/>
		<path d="M364.9,17.3c-2.5,0-4.4-2.4-4.4-5.1s1.8-5.1,4.4-5.1c2.5,0,4.4,2.4,4.4,5.1S367.4,17.3,364.9,17.3z M364.9,7.7
			c-2,0-3,2.2-3,4.5c0,2.4,1,4.5,3,4.5c1.9,0,3-2,3-4.5C368,9.9,367,7.7,364.9,7.7z"/>
		<path d="M376.7,9c-0.3,0-0.5-0.1-0.6-0.2c-0.2-0.2-0.3-0.3-0.6-0.3c-1.3,0-2,1.1-2.7,2.4v3.9c0,1,0.6,1.5,1.4,1.5h0.7v0.6h-5.1
			v-0.6h0.5c0.8,0,1.4-0.4,1.4-1.5V9.3c0-0.5-0.2-1.1-0.8-1.1c-0.3,0-0.6,0.1-0.9,0.2L369.8,8l3-1v2.8c0.8-1,2.2-2.7,3.7-2.7
			c0.5,0,1.2,0.3,1.2,1C377.6,8.6,377.2,9,376.7,9z"/>
		<path d="M382.5,17.3c-3.7,0-4.5-3.4-4.5-5.1c0-2.6,1.4-5.1,4.3-5.1c1.8,0,2.7,1,3.2,1.8c0.7,1.1,0.8,2.2,0.9,2.8h-6.9
			c-0.1,4.8,3.1,4.9,3.4,4.9c1.7,0,2.7-1.2,3.1-1.9l0.5,0.4C385.7,16,384.7,17.3,382.5,17.3z M382.2,7.7c-2.3,0-2.6,2.4-2.7,3.3h5.3
			C384.7,8.4,383.4,7.7,382.2,7.7z"/>
	</g>
</g>
<rect y="27.5" width="387" height="0.5"/>
</svg>
