<?xml version="1.0" encoding="utf-8"?>
<!-- Generator: Adobe Illustrator 27.0.0, SVG Export Plug-In . SVG Version: 6.00 Build 0)  -->
<svg version="1.1" id="レイヤー_1" xmlns="http://www.w3.org/2000/svg" xmlns:xlink="http://www.w3.org/1999/xlink" x="0px"
	 y="0px" viewBox="0 0 387 29" style="enable-background:new 0 0 387 29;" xml:space="preserve">
<g>
	<g>
		<path d="M11.5,1.8H7C6.8,2.1,5.7,4.4,5.3,5h3.8l0.4-0.5c0.1-0.1,0.2-0.2,0.3-0.2s0.1,0,0.3,0.1L10.8,5c0,0,0.2,0.2,0.2,0.3
			c0,0.1,0,0.1-0.2,0.2s-0.2,0.2-0.4,0.4c0,0.2,0,1.1,0,1.9v4.4c0,1,0.1,2.7,0.1,3.7c0,0.4,0,1.6-1.8,1.9c-0.4-1-1.3-1.3-1.6-1.4
			v-0.1c0.5,0.1,1.5,0.1,1.6,0.1c0.7,0,0.7-0.1,0.7-0.6c0-1,0-1.6,0-3c0-1,0-6.1,0-7.3H7.8c0,1.3,0,7.9,0,9.4c0,0.8-0.6,0.8-0.7,0.8
			c-0.5,0-0.5-0.3-0.5-0.4c0-0.2,0.1-1,0.1-1.1C6.8,12,6.8,7.8,6.8,5.6H5.5c0,2.6,0,5.3,0,7.9c0,0.3,0,2,0,2.4c0,0.1,0,0.3-0.1,0.4
			c-0.1,0.2-0.4,0.3-0.6,0.3c-0.4,0-0.4-0.3-0.4-0.4c0-0.4,0-2,0-2.4c0-2,0-5.5,0.1-8.1H3.3c0,3.1,0,6.2,0,9.3c0,0.6,0,1.5,0,2
			c0,0.9-0.8,0.9-0.9,0.9C2,17.9,2,17.6,2,17.3c0-0.2,0.1-1.4,0.1-1.7c0-1,0.1-5.4,0.1-6.5c0-1.3,0-3.4-0.2-4.6L3.7,5h1.2
			c0.5-1.5,0.6-2.4,0.7-3.2H4.2C3.6,1.8,2.5,1.9,1.7,2L1.2,1.2c1,0.1,2.3,0.2,3.3,0.2h5l0.6-0.7c0.1-0.1,0.2-0.2,0.3-0.2
			s0.2,0.1,0.4,0.2l0.8,0.7c0.1,0.1,0.2,0.2,0.2,0.3S11.6,1.8,11.5,1.8z M19.4,6.2h-3.3c0,4.3,0,4.8,0.1,7.7c0,0.4,0,2,0,2.4
			c0,1.6-1.3,1.8-2.1,1.9c-0.2-1.1-1.3-1.6-1.8-1.7v-0.1c0.3,0,2,0.1,2.1,0.1c0.6,0,0.7-0.2,0.7-0.5c0-0.6,0-4.4,0-5.2
			c0-0.2-0.1-4.4-0.1-4.6h-0.7c-0.6,0-1.7,0.1-2.6,0.2l-0.5-0.9c1.1,0.1,2.2,0.2,3.3,0.2H15c0-0.6,0-3.1,0-3.6
			c0-0.9-0.1-1.2-0.3-2.1l1.7,0.5c0.1,0,0.3,0.1,0.3,0.4S16.4,1.3,16,1.4c0,0.3,0,3.6,0,4.3h1.5l0.6-0.8c0.1-0.1,0.2-0.3,0.3-0.3
			s0.3,0.1,0.4,0.2l0.7,0.8c0.1,0.1,0.2,0.2,0.2,0.3C19.7,6.2,19.5,6.2,19.4,6.2z M13.3,11.3c-0.5,0-0.7-0.5-0.8-1.2
			c-0.3-1.2-0.7-1.7-1.1-2.1h0.2c0.6,0.2,1,0.5,1.5,0.9c0.4,0.3,0.9,0.7,0.9,1.6C14,11.1,13.6,11.3,13.3,11.3z"/>
		<path d="M37.6,17.2c-0.5,0.4-0.6,0.6-0.6,0.9c-0.7-0.2-2.3-0.7-4-1.7c-2.1-1.2-3.3-2.8-3.7-4h-1.9V16c1.1-0.3,2.7-0.6,3.7-0.9
			l0.1,0.2c-1.3,0.7-6.3,2.4-6.4,2.4c-0.1,0.3-0.1,0.5-0.3,0.5c-0.1,0-0.2-0.1-0.3-0.3l-0.8-1.3c0.3,0,0.5,0,0.7,0
			c0.6,0,1.8-0.3,2.4-0.4v-3.8H24c-0.3,1.2-0.7,3.6-3.7,5.2v-0.1c2.5-2.3,2.8-4.4,2.8-7.6c0-0.6,0-1.7-0.2-2.2l1.5,0.8h11l0.5-0.6
			c0.2-0.2,0.2-0.3,0.3-0.3s0.3,0.2,0.4,0.2l0.7,0.6c0.1,0.1,0.2,0.2,0.2,0.3C37.6,9,37.4,9,37.3,9H24.2c0,0.7,0,1.5-0.2,2.9h11.8
			l0.6-0.6c0.1-0.1,0.2-0.2,0.3-0.2s0.3,0.1,0.4,0.2l0.8,0.6c0,0,0.2,0.2,0.2,0.3c0,0.2-0.2,0.2-0.3,0.2h-8.2
			c0.2,0.4,0.7,1.3,1.8,2.1c0.9-0.6,1.6-1.2,2-2l0.1,0.1l0.9,0.7c0.2,0.2,0.3,0.2,0.3,0.4c0,0.1,0,0.3-0.3,0.3
			c-0.2,0-0.4-0.1-0.6-0.1c-0.8,0.4-2.2,0.8-2.3,0.8c2.3,1.6,5.6,1.8,7.2,1.9v0.1C38.1,16.8,37.7,17.1,37.6,17.2z M37.2,4.3
			c-0.8,0.3-1.7,1.2-1.8,1.2l-0.1-0.1c0.1-0.3,0.5-1.4,0.6-1.8h-6c0,2.2,0,2.5,0,2.9c0,0.1,0.1,0.6,0.1,0.7c0,0.4-0.4,0.7-0.7,0.7
			c-0.3,0-0.5-0.3-0.5-0.5c0-0.1,0-0.3,0-0.4c0-0.2,0-0.8,0-1c0-0.8,0-1.6,0-2.4h-6c-0.1,1.8-1.2,2-1.5,2c-0.2,0-0.6-0.1-0.6-0.6
			c0-0.4,0.2-0.6,0.9-1c0.7-0.5,0.9-0.9,1.1-1.6h0.1c0,0.3,0,0.5,0,0.8h6V1.5h-2.9c-0.7,0-1.8,0.1-2.6,0.2l-0.5-0.9
			C24.4,1,25.8,1,26.2,1h8.3l0.6-0.6c0.2-0.2,0.3-0.2,0.3-0.2c0.1,0,0.3,0.1,0.4,0.2L36.4,1c0.1,0.1,0.2,0.2,0.2,0.3
			c0,0.2-0.2,0.2-0.3,0.2h-6.4v1.6h5.8l0.6-0.5c0.2-0.1,0.2-0.2,0.3-0.2s0.2,0.1,0.4,0.3l1,0.9c0.1,0.1,0.2,0.2,0.2,0.4
			C38.2,4.4,37.8,4.4,37.2,4.3z M27.3,7h-2.5c-0.3,0-0.8,0-1.1,0.1l-0.2-0.7c0.4,0,1.1,0.1,1.4,0.1h1.8l0.1-0.3
			c0-0.1,0.1-0.3,0.3-0.3c0.1,0,0.2,0.2,0.3,0.3l0.1,0.3c0,0.1,0.1,0.3,0.1,0.4C27.6,7,27.4,7,27.3,7z M27.3,5.3h-2.2
			c-0.3,0-0.8,0-1.1,0.1l-0.2-0.7c0.4,0,1.1,0.1,1.4,0.1h1.4l0.2-0.3c0.1-0.1,0.2-0.2,0.3-0.2c0.2,0,0.5,0.7,0.5,0.8
			C27.6,5.3,27.5,5.3,27.3,5.3z M34.6,10.7h-6.1c-0.7,0-1.8,0.1-2.6,0.2L25.4,10c1.5,0.1,3,0.1,3.3,0.1h4.5l0.3-0.4
			c0.1-0.1,0.2-0.3,0.3-0.3s0.3,0.2,0.4,0.2l0.5,0.4c0,0,0.2,0.2,0.2,0.3C35,10.7,34.8,10.7,34.6,10.7z M34.2,5.3h-2
			c-0.3,0-0.8,0-1.1,0.1l-0.2-0.7c0.4,0,1.1,0.1,1.4,0.1h1.3c0.2-0.4,0.2-0.4,0.3-0.4c0.2,0,0.6,0.6,0.6,0.7
			C34.5,5.3,34.3,5.3,34.2,5.3z M34.8,7.1h-2.5c-0.3,0-0.8,0-1.1,0.1L31,6.5c0.4,0,1.1,0.1,1.4,0.1h1.7l0.1-0.2
			c0.1-0.1,0.2-0.3,0.3-0.3c0.2,0,0.5,0.7,0.5,0.8C35.1,7,35,7.1,34.8,7.1z"/>
		<path d="M50.1,9.2c0,0.8-0.6,1.4-1.4,1.4c-0.8,0-1.4-0.6-1.4-1.4c0-0.7,0.6-1.4,1.4-1.4C49.5,7.8,50.1,8.4,50.1,9.2z"/>
		<path d="M64.5,4.9h-2.1v2c1.7,0.6,2.4,1.5,2.4,2c0,0.4-0.2,0.6-0.5,0.6c-0.4,0-0.5-0.2-0.8-1c-0.2-0.4-0.6-1-1-1.3
			c0,0.3,0,2.2,0,2.5c0,0.5,0.2,7.1,0.2,7.7c0,0.4,0,0.5-0.2,0.7s-0.5,0.3-0.6,0.3c-0.4,0-0.5-0.2-0.5-0.5c0-0.2,0.1-2.7,0.1-3.2
			c0-1,0.1-5.7,0.1-6.6c-0.4,1-1.8,3.7-3.2,5L58.3,13c1.6-2.5,2.8-5.5,3.3-7.9c-0.2,0-1.4,0-2.3,0.2l-0.5-0.9c0.5,0,1.5,0.1,2.9,0.2
			c0-1.3-0.1-3.3-0.4-4.4l1.8,0.5c0.2,0.1,0.4,0.1,0.4,0.3c0,0.3-0.2,0.4-0.8,0.6c0,0.5,0,2.8,0,2.9H63l0.5-0.6
			c0.2-0.2,0.2-0.2,0.3-0.2s0.2,0.1,0.3,0.2l0.4,0.5c0.1,0.2,0.2,0.2,0.2,0.3C64.8,4.9,64.6,4.9,64.5,4.9z M76.6,13.9h-2.5
			c0,0.4,0.1,2,0.1,2.4c0,0.5,0,1.8-2,2.1c-0.1-0.4-0.2-0.9-1.7-1.6v-0.2c0.3,0,1.7,0.1,2,0.1c0.6,0,0.6-0.3,0.6-0.9
			c0-0.3,0-1.6,0-1.9h-5.9c0,0.6,0.1,3,0.1,3.5c0,0.8-0.6,1-0.8,1C66,18.4,66,18,66,17.9c0-0.5,0.1-1.2,0.1-1.7c0-0.6,0-1.5,0.1-2.3
			c-0.3,0-1.1,0.1-1.8,0.2l-0.5-0.9c0.9,0.1,1.1,0.1,2.3,0.1c0-3.1,0-3.9-0.1-5.2l1.5,0.7h2V7.2h-2.2c-0.6,0-1.8,0.1-2.6,0.2
			l-0.5-0.9c1,0.1,2.2,0.1,3.2,0.1V5c-0.9,0.1-1.1,0.1-1.4,0.2l-0.5-0.9c0.9,0.1,1.2,0.1,1.9,0.1c0-0.6,0-1.7,0-1.9
			c-0.9,0-1.9,0.1-2.5,0.2l-0.5-0.9c1.1,0.1,2.1,0.1,3,0.1c0-0.9-0.1-1.2-0.3-2l1.7,0.5c0.2,0,0.3,0.1,0.3,0.2
			c0,0.2-0.1,0.2-0.6,0.5c0,0.2,0,0.3,0,0.8H71c0-1,0-1.3-0.2-1.9l1.5,0.4c0.1,0,0.3,0.1,0.3,0.2s0,0.4-0.6,0.7V2h2l0.5-0.5
			c0.2-0.2,0.2-0.2,0.3-0.2c0.1,0,0.1,0,0.4,0.2L75.8,2C75.9,2.1,76,2.2,76,2.3c0,0.2-0.2,0.2-0.3,0.2H72v1.9h1.4L74,3.9
			c0.2-0.2,0.2-0.3,0.3-0.3c0.1,0,0.1,0,0.3,0.2l0.5,0.6c0.1,0.1,0.2,0.2,0.2,0.3C75.4,5,75.2,5,75.1,5h-3c0,0.2,0,0.9,0,1.1v0.7
			h2.4L75,6.1c0.2-0.2,0.2-0.3,0.3-0.3c0.1,0,0.1,0,0.3,0.2l0.7,0.6c0.1,0.1,0.2,0.2,0.2,0.3c0,0.2-0.2,0.2-0.3,0.2h-5.7v1.7h2.3
			l0.5-0.5c0.2-0.2,0.2-0.2,0.3-0.2c0,0,0.1,0,0.2,0.1l0.7,0.5c0.1,0.1,0.2,0.1,0.2,0.3S74.6,9.3,74,9.6c0,0.6,0.1,3.3,0.1,3.8H75
			l0.5-0.6c0.2-0.2,0.2-0.3,0.3-0.3s0.2,0.1,0.3,0.2l0.6,0.6c0.2,0.2,0.2,0.2,0.2,0.3C77,13.9,76.8,13.9,76.6,13.9z M69.5,9.4h-2.4
			V11h2.4V9.4z M69.5,11.5h-2.4v1.9h2.4V11.5z M71,2.6h-2.5v1.9h0.4H71V2.6z M71,5h-2.5v1.8H71V5z M73.1,9.4h-2.5V11h2.5V9.4z
			 M73.1,11.5h-2.5v1.9h2.5V11.5z"/>
		<path d="M95.4,17.9h-0.2c-6.1,0-8,0-9.9-0.6c-1.5-0.5-2.2-1.2-2.7-2.2c-0.4,0.4-2.1,2-2.4,2.3c0,0.5,0,0.7-0.3,0.7
			c-0.2,0-0.3-0.2-0.3-0.2l-1-1.3c0.2,0,0.8-0.1,1.4-0.3c0.3-0.1,1.4-0.7,1.9-1v-6h-0.5c-0.7,0-1.8,0.1-2.6,0.2l-0.5-0.9
			c1.5,0.1,2.8,0.2,3.2,0.2l0.6-0.5c0.1-0.1,0.2-0.2,0.3-0.2s0.1,0,0.2,0.1l0.9,0.6c0.1,0,0.1,0.1,0.1,0.2c0,0.1,0,0.2-0.2,0.2
			c-0.1,0.1-0.5,0.3-0.6,0.4c0,0.1-0.1,4.3,0,4.8c0.3,1.7,2.2,2.3,6.2,2.3c2.6,0,5.2-0.2,7.8-0.8V16C96.5,16.3,95.6,16.9,95.4,17.9z
			 M82.5,4.5c-0.4,0-0.4-0.1-0.9-1.3c-0.3-0.7-0.8-1.8-1.4-2.2h0.1c2.3,0.8,2.9,2.3,2.9,2.8C83.3,4.3,82.8,4.5,82.5,4.5z M95.9,8.1
			h-9c-0.7,0-1.8,0.1-2.6,0.2l-0.5-0.9c1.5,0.1,3,0.1,3.3,0.1H89V6.2V4.4h-3c-0.6,1.1-1,1.7-1.6,2.2h-0.1c0.5-1.2,1.4-3.7,1.4-5.1
			c0-0.2,0-0.2-0.1-0.4l1.6,0.7c0,0,0.2,0.1,0.2,0.3s-0.1,0.2-0.2,0.3c-0.1,0-0.4,0.2-0.5,0.2c-0.2,0.6-0.4,0.9-0.7,1.5h2.8
			c0-1.3,0-2.7-0.4-3.7l1.8,0.5c0.1,0,0.3,0.1,0.3,0.3s0,0.2-0.7,0.6c0,0.6,0,1.2,0,2.3h2.4l0.6-0.7C93.3,3,93.4,3,93.5,3
			s0.1,0,0.4,0.2l0.9,0.7C94.9,4,95,4.1,95,4.2c0,0.2-0.2,0.2-0.3,0.2h-4.6v0.3c0,0.5,0,2.6,0,3h3.6l0.6-0.8
			c0.1-0.2,0.2-0.3,0.3-0.3S95,6.8,95,6.8l1,0.8c0.1,0.1,0.2,0.2,0.2,0.3C96.2,8.1,96,8.1,95.9,8.1z M93.3,11c0,0.4,0,0.7,0.1,1.7
			c0.1,0.5,0.1,1.5,0.1,1.7c0,0.7-0.6,0.9-0.8,0.9c-0.5,0-0.5-0.5-0.4-1h-5.2c0,0.3,0.1,0.6-0.1,0.8c-0.1,0.2-0.4,0.3-0.7,0.3
			c-0.3,0-0.4-0.2-0.4-0.4c0-0.4,0.1-2.2,0.1-2.6c0-1.1-0.1-2-0.2-3.1l1.5,0.7h4.6l0.5-0.5c0.1-0.1,0.2-0.1,0.2-0.1s0.1,0,0.2,0.1
			l0.8,0.7c0.1,0.1,0.1,0.1,0.1,0.2C94,10.7,93.9,10.7,93.3,11z M92.3,10.6h-5.2v3.2h5.2V10.6z"/>
		<path d="M103,9.2c-0.1,0.6-0.8,3.3-1,3.8c-0.3,1.2-0.4,1.8-0.4,2.3c0,0.2,0.1,1.4,0.1,1.4c0,0.2,0,0.5-0.4,0.5
			c-0.3,0-0.7-0.4-0.8-0.7c-0.9-1.5-1.1-3.1-1.1-5.1c0-0.4,0-1,0.1-1.9l0.6-4.4c0.1-0.4,0.1-0.9,0.1-1.5c0-1.1-0.4-1.6-0.6-1.8
			c0.9-0.1,2,1.1,2,1.8c0,0.1-0.2,0.9-0.3,1.1c-0.4,1.4-1.1,4.3-1.1,6.6c0,1.7,0.3,2.9,0.6,2.9c0.1,0,0.2-0.3,0.2-0.3
			c0.6-1.9,0.9-2.7,1.8-4.9L103,9.2z M106.9,13.8c1.1,0.5,2.9,0.6,3.3,0.6c0.7,0,1.1,0,2.1-0.2c0.2,0,0.3,0,0.3,0
			c0.3,0,1.4,0.3,1.4,0.8s-0.7,0.6-1.9,0.6c-0.9,0-4.2-0.1-5.4-0.8c-1.2-0.7-1.4-1.9-1.4-2.3c0-0.3,0-0.4,0.1-0.6
			C105.8,12.7,106,13.4,106.9,13.8z M108.2,6.1c0.4-0.3,2.1-1.7,2.1-1.8c0-0.2-0.6-0.2-0.6-0.2c-0.6,0-2.1,0.2-3.9,0.9
			c1.8-1.4,3.1-1.8,4.5-1.8c1.2,0,2.9,0.3,2.9,1c0,0.3-0.3,0.4-1,0.5c-1.8,0.3-3,1.1-3.8,1.5L108.2,6.1z"/>
		<path d="M121.4,14.5c2.3,0,6.1-0.9,8.3-2.1c1.7-0.9,2.5-2.6,2.5-4.1c0-2.5-2.2-3.8-4.2-3.8c-2.4,0-6.3,1.9-8.5,3.9
			c-0.4,0.3-0.5,0.5-0.8,0.5c-0.6,0-1.6-1-1.6-1.8c0-0.3,0.1-0.5,0.2-0.6c0.2,0.3,0.6,0.7,1.1,0.7c0.4,0,0.9-0.2,1.3-0.5
			c3.1-1.7,4.9-2.8,8-2.8c3.8,0,5.7,2.3,5.7,4.7c0,3.3-3.1,5-6.7,5.7C125.1,14.6,123.6,14.6,121.4,14.5
			C121.4,14.6,121.4,14.5,121.4,14.5z"/>
		<path d="M144.5,8.1c-0.3,0.6-2.4,4.9-2.5,5.1c-0.1,0.3-0.1,0.5-0.1,0.7c0,0.1,0.1,0.8,0.1,0.9c0,0.2-0.1,0.4-0.5,0.4
			S139,15,138,10.8c-0.2-0.7-0.2-1.1-0.4-4.2c-0.1-1.6-0.2-2.1-1-3.3c1.1,0,2.2,1.2,2.2,2.1c0,0.2,0,0.3-0.1,0.9
			c-0.1,0.7-0.1,1.2-0.1,1.7c0,1.1,0.3,3.9,1.5,4.9c0.1,0,0.3,0.2,0.4,0.2c0.2,0,0.4-0.2,0.5-0.3c1.5-2.3,1.6-2.5,3.1-4.6
			c0,0,0.1-0.2,0.2-0.3L144.5,8.1z M149,10.5c0.3,0,1.6-0.2,1.8-0.3c0.2,0,0.5-0.1,0.5-0.5c0-0.5-0.9-3.7-3.7-4.7
			c0.1,0,0.4-0.1,0.6-0.1c0.3,0,1.4,0.2,2.3,1.2c1.5,1.7,2.2,3.8,2.2,4.7c0,0.6-0.3,1.2-0.6,1.2c-0.1,0-0.2,0-0.7-0.5
			c-0.7-0.6-1.1-0.7-2.5-0.9L149,10.5L149,10.5z"/>
		<path d="M164.2,3.5c0.6-0.1,4.8-1,5-1c0.6-0.1,0.7-0.2,1-0.2c0.7,0,1.5,0.5,1.5,0.9c0,0.5-0.4,0.5-0.7,0.5s-1.5-0.1-1.8-0.1
			c-3.9,0-6.7,4.1-6.7,7.1c0,2.9,2.8,4.1,5,4.5c0.5,0.1,1.4,0.3,1.4,1c0,0.3-0.3,0.4-0.6,0.4c-0.5,0-2.1-0.4-3.4-1
			c-2.1-1-3.3-3.2-3.3-5c0-1.9,1-4.6,4.7-7.2c-1.5,0-6.7,1.8-7.9,2.4c-0.6,0.3-0.7,0.3-0.8,0.3c-0.2,0-1.3-0.3-1.3-1.8
			c0-0.4,0.1-0.5,0.2-0.7c0.2,0.3,0.5,1,1.5,1c0.2,0,0.6-0.1,0.9-0.1L164.2,3.5z"/>
	</g>
</g>
<g>
	<g>
		<path d="M355.9,16.8v-0.6h0.5c0.9,0,1.1-0.6,1.1-1.5V9.8c0-1.2-0.6-1.9-1.8-1.9c-1.6,0-2.6,1.2-3.1,1.8v5c0,0.8,0.2,1.5,1.2,1.5
			h0.5v0.6h-4.5v-0.6h0.4c0.9,0,1.1-0.6,1.1-1.5V9.9c0-1.4-0.5-2.1-1.9-2.1c-1.5,0-2.3,0.9-2.8,1.5v5.4c0,0.8,0.3,1.5,1.2,1.5h0.3
			v0.6h-4.2v-0.6h0.4c0.9,0,1.1-0.6,1.1-1.5V8.9c0-0.4-0.3-0.9-0.7-0.9c0,0-0.3,0-0.6,0.1L344,7.6l2.6-0.8v1.7
			c0.8-0.7,1.8-1.6,3.3-1.6c0.9,0,2.2,0.3,2.5,2c0.8-0.9,1.9-2,3.5-2c1.7,0,2.7,1.1,2.7,2.9v4.8c0,1,0.3,1.5,1,1.5h0.5v0.6h-4.2
			V16.8z"/>
		<path d="M364.9,17.2c-2.5,0-4.4-2.4-4.4-5.1s1.8-5.1,4.4-5.1c2.5,0,4.4,2.4,4.4,5.1S367.4,17.2,364.9,17.2z M364.9,7.5
			c-2,0-3,2.2-3,4.5c0,2.4,1,4.5,3,4.5c1.9,0,3-2,3-4.5C368,9.8,367,7.5,364.9,7.5z"/>
		<path d="M376.7,8.9c-0.3,0-0.5-0.1-0.6-0.2c-0.2-0.2-0.3-0.3-0.6-0.3c-1.3,0-2,1.1-2.7,2.4v3.9c0,1,0.6,1.5,1.4,1.5h0.7v0.6h-5.1
			v-0.6h0.5c0.8,0,1.4-0.4,1.4-1.5V9.2c0-0.5-0.2-1.1-0.8-1.1c-0.3,0-0.6,0.1-0.9,0.2l-0.1-0.4l3-1v2.8c0.8-1,2.2-2.7,3.7-2.7
			c0.5,0,1.2,0.3,1.2,1C377.6,8.5,377.2,8.9,376.7,8.9z"/>
		<path d="M382.5,17.2c-3.7,0-4.5-3.4-4.5-5.1c0-2.6,1.4-5.1,4.3-5.1c1.8,0,2.7,1,3.2,1.8c0.7,1.1,0.8,2.2,0.9,2.8h-6.9
			c-0.1,4.8,3.1,4.9,3.4,4.9c1.7,0,2.7-1.2,3.1-1.9l0.5,0.4C385.7,15.9,384.7,17.2,382.5,17.2z M382.2,7.5c-2.3,0-2.6,2.4-2.7,3.3
			h5.3C384.7,8.3,383.4,7.5,382.2,7.5z"/>
	</g>
</g>
<rect y="27.5" width="387" height="0.5"/>
</svg>
