<?xml version="1.0" encoding="utf-8"?>
<!-- Generator: Adobe Illustrator 27.0.0, SVG Export Plug-In . SVG Version: 6.00 Build 0)  -->
<svg version="1.1" id="レイヤー_1" xmlns="http://www.w3.org/2000/svg" xmlns:xlink="http://www.w3.org/1999/xlink" x="0px"
	 y="0px" viewBox="0 0 387 29" style="enable-background:new 0 0 387 29;" xml:space="preserve">
<g>
	<g>
		<path d="M3.9,8.2C3.6,9,3.6,9.1,3.6,9.1C3.3,9.5,2.8,9.5,2.8,9.5c-0.2,0-0.4-0.1-0.4-0.4c0-0.2,0.1-0.3,0.2-0.6
			c0.1-0.3,2-5.2,2.3-6.5H4.4C4,2,2.8,2,1.8,2.2L1.3,1.4c1.1,0.1,2.3,0.2,3.4,0.2l0.5-0.4C5.3,1.1,5.5,1,5.6,1s0.2,0.1,0.3,0.2
			l0.7,0.5C6.7,1.8,6.7,2,6.7,2.1c0,0.2-0.6,0.5-0.9,0.6c0,0.1-0.1,0.2-0.1,0.3C4.9,5.4,4.8,5.6,4.1,7.7h1.7l0.4-0.3
			c0.1-0.1,0.2-0.1,0.3-0.1c0.1,0,0.2,0.1,0.3,0.1L7.4,8c0.1,0.1,0.2,0.2,0.2,0.3c0,0.2-0.4,0.4-0.7,0.6c-0.2,2.2-0.5,4-1.4,5.7
			c1,0.8,2.6,2,7.5,2c3,0,5.2-0.4,6.6-0.6v0.1c-1.2,0.4-1.4,1.3-1.5,1.7c-7,0-10.5-0.2-13.1-2.6c-1.3,1.9-2.9,2.9-4,3.5v-0.1
			c1-0.8,2.5-2.2,3.4-4c-1.1-1.3-1.6-2.6-2-3.8l0.2-0.2C3,11.8,3.8,13,4.7,13.9c0.5-1.1,1.1-3.4,1.1-5.7C5.8,8.2,3.9,8.2,3.9,8.2z
			 M15.2,2.1l0.5-0.4c0.1-0.1,0.2-0.2,0.3-0.2s0.2,0.1,0.3,0.2l0.4,0.5C16.9,2.3,17,2.4,17,2.5S16.6,2.9,16.4,3c0,0.6,0,1.5,0,2.1
			h1.1L18,4.4c0.1-0.1,0.2-0.2,0.3-0.2s0.3,0.1,0.4,0.2L19.4,5c0.1,0.1,0.2,0.2,0.2,0.3c0,0.2-0.2,0.2-0.3,0.2h-2.8
			c0,0.3,0.1,1.8,0.1,2.2c0,0.6,0,0.6-0.2,0.8s-0.6,0.3-0.7,0.3c-0.3,0-0.3-0.2-0.3-0.5h-2.8v2H16l0.5-0.6c0.2-0.2,0.2-0.3,0.3-0.3
			c0.1,0,0.3,0.1,0.4,0.2l0.7,0.6c0.1,0.1,0.2,0.2,0.2,0.3c0,0.2-0.2,0.2-0.3,0.2h-5.2v2.2h4l0.6-0.8c0.2-0.2,0.2-0.3,0.3-0.3
			c0,0,0.2,0,0.4,0.2l0.7,0.7c0.1,0.1,0.2,0.2,0.2,0.3c0,0.2-0.2,0.2-0.3,0.2h-6c0,0.2,0.1,1.4,0.1,1.6c0,0.7-0.7,0.8-0.9,0.8
			s-0.4-0.1-0.4-0.4c0-0.2,0.1-1.7,0.1-2h-1.2c-0.4,0-1.6,0.1-2.6,0.2l-0.5-0.9c1,0.1,2.3,0.1,3.3,0.1h1v-2.2H11
			c-0.4,0-1.6,0-2.6,0.2L8,10.2c1.8,0.1,3.2,0.2,3.5,0.2v-2h-0.3c-0.4,0-1.6,0.1-2.6,0.2L8.2,7.7c1.4,0.1,2.7,0.1,3.4,0.1V5.5H9.8
			c-0.4,0-1.6,0-2.6,0.2L6.7,4.9C7.8,5,9,5.1,10.1,5.1h1.5V2.7h-0.3c-0.4,0-1.6,0.1-2.6,0.2L8.2,2c1.5,0.1,2.8,0.1,3.4,0.1
			c0-1.1-0.1-1.3-0.3-1.8l1.6,0.3c0.1,0,0.3,0.1,0.3,0.3s-0.1,0.3-0.6,0.6V2L15.2,2.1L15.2,2.1z M15.4,5.1V2.6h-2.9V5L15.4,5.1
			L15.4,5.1z M15.4,7.9V5.5h-2.9v2.3L15.4,7.9L15.4,7.9z"/>
		<path d="M38,13.3h-7.8c1.1,1.4,4.4,3.3,7.8,3.2v0.1c-0.7,0.2-1.5,0.8-1.6,1.4c-3.6-1.1-5.8-3.4-6.4-4.6v1.9c0,0.3,0.1,2.4,0.1,2.6
			c0,0.3-0.1,0.4-0.1,0.5c-0.2,0.2-0.5,0.3-0.7,0.3c-0.4,0-0.4-0.3-0.4-0.5c0-0.1,0.1-2.9,0.1-3.2c0-0.6,0-1,0-1.4
			c-1.5,1.8-5,4.1-7.9,4.7v-0.1c2.1-0.8,4.9-2.8,6.5-4.8h-4c-0.6,0-1.8,0.1-2.6,0.2l-0.5-0.9c1.1,0.1,2.3,0.2,3.3,0.2H29
			c0-0.8,0-1.1-0.1-1.3c0-0.1-0.1-0.5-0.2-0.7l1.6,0.4c0.2,0,0.2,0.1,0.2,0.2c0,0.2-0.1,0.3-0.5,0.6V13h6l0.5-0.7
			c0.1-0.1,0.2-0.3,0.3-0.3s0.2,0.1,0.4,0.2l0.9,0.7c0.1,0.1,0.2,0.2,0.2,0.3C38.3,13.3,38.1,13.3,38,13.3z M28.9,3.4h-4
			c0.8,0.3,1.7,0.7,1.7,1.7c0,0.4-0.2,0.6-0.5,0.6c-0.4,0-0.5-0.3-0.6-0.8s-0.4-1-0.9-1.5h-0.9c-0.8,0.9-1.6,1.7-2.6,2.3H21
			c0.5-0.5,1.3-1.4,2.2-2.9c0.5-0.8,1.1-1.7,1.1-2.6l1.5,0.7C26,1,26,1,26,1.1c0,0.3-0.6,0.4-0.9,0.5c-0.3,0.4-0.5,0.8-1,1.4h3.1
			l0.5-0.5c0.1-0.1,0.2-0.2,0.3-0.2c0.1,0,0.3,0.1,0.4,0.2L29,2.9c0.1,0.1,0.2,0.2,0.2,0.3C29.2,3.4,29,3.4,28.9,3.4z M28.6,6.7h-3
			v2.6c1.6-0.3,2.2-0.5,2.6-0.6l0.1,0.1C27.9,9,27.7,9,26.1,9.6c-0.8,0.3-1.1,0.4-3.7,1.3c0,0.1-0.1,0.4-0.1,0.4s-0.1,0.1-0.2,0.1
			s-0.2-0.1-0.2-0.2l-0.7-1.5c0.2,0,0.3,0.1,0.7,0.1c0.3,0,1.3,0,2.9-0.3V6.7c-0.1,0-1.3,0.1-2.2,0.2L22,6c1.1,0.1,2.2,0.2,3.3,0.2
			h1.6l0.4-0.6c0.1-0.1,0.2-0.2,0.3-0.2c0.1,0,0.2,0.1,0.4,0.2l0.7,0.5c0.1,0.1,0.2,0.2,0.2,0.3C28.9,6.7,28.7,6.7,28.6,6.7z
			 M36.8,10.6c-0.6,0-1.9,0.1-2.2,0.1c-0.6,0-1.2,0-1.3-0.7c-0.1-0.3-0.1-0.5,0-3.4h-2.8c-0.3,2-1.1,3.9-4.1,4.5V11
			c1.5-0.8,3.1-1.9,3.1-4.6c0-0.5,0-0.7-0.1-0.8l1.2,0.5H33l0.3-0.3c0.1-0.1,0.2-0.2,0.3-0.2s0.2,0.1,0.3,0.1l0.7,0.4
			c0.1,0.1,0.2,0.1,0.2,0.3c0,0.2-0.3,0.3-0.6,0.5v2.3c0,0.5,0.2,0.6,0.6,0.6c0.4,0,1.5,0,1.8-0.1c0.4-0.1,0.6-0.6,1-1.9h0.1
			C37.6,8,37.8,9,37.8,9.1c0.1,0.2,0.1,0.2,0.3,0.4c0.1,0,0.1,0.1,0.1,0.2C38.2,10,37.9,10.5,36.8,10.6z M37.4,3.4H33
			c0.3,0.1,1.5,0.5,1.5,1.4c0,0.4-0.2,0.6-0.5,0.6c-0.4,0-0.5-0.3-0.6-0.8c0-0.1-0.4-0.8-0.9-1.2h-1.6c-0.9,1.2-1.6,1.8-2,2.1h-0.1
			c0.6-0.9,1.1-1.9,1.6-2.9c0.7-1.6,0.7-2,0.7-2.3L32.6,1c0.2,0.1,0.2,0.2,0.2,0.3c0,0.2-0.3,0.3-0.9,0.4c-0.3,0.6-0.5,0.9-0.7,1.3
			h4.2l0.7-0.7C36.2,2.2,36.3,2,36.4,2c0.1,0,0.2,0.1,0.4,0.2l0.7,0.7c0.1,0.1,0.2,0.2,0.2,0.3C37.7,3.4,37.6,3.4,37.4,3.4z M32,9.9
			c-0.4,0-0.4-0.1-0.7-0.9c-0.3-0.6-0.4-0.7-0.8-1.2V7.7c1.5,0.6,2.1,0.8,2.1,1.5C32.5,9.8,32.1,9.9,32,9.9z"/>
		<path d="M57.3,11.9h-7.7c1.8,2.2,4.9,4,8,4.2v0.2c-1,0.3-1.5,0.9-1.8,1.3c-1.9-0.6-5.3-3.1-6.5-5.6c0,2.6,0,2.9,0,4
			c0,0.3,0.1,1.5,0.1,1.8c0,0.8-0.8,0.8-0.9,0.8c-0.3,0-0.3-0.1-0.3-0.4s0.1-2,0.1-2.3c0-1.4,0-2.4,0-3.5c-2.5,3.2-5.1,4.7-8.1,6
			l-0.1-0.2c2.9-1.8,5.5-4.1,6.9-6.2h-4c-0.4,0-1.6,0-2.6,0.2l-0.5-0.9c1,0.1,2.3,0.2,3.3,0.2h5c-0.1-2.3-0.1-2.5-0.3-3.3l1.6,0.4
			c0.2,0.1,0.3,0.1,0.3,0.2c0,0.1-0.3,0.4-0.6,0.5c0,0.3,0,0.4,0,1.3v0.8h5.5l0.8-1c0.2-0.2,0.2-0.2,0.3-0.2s0.3,0.1,0.4,0.2l1.1,1
			c0.1,0.1,0.2,0.2,0.2,0.3C57.6,11.9,57.4,11.9,57.3,11.9z M56.1,9.5c-2.6-0.4-5.7-1.8-7.2-3.1c-3.4,2.8-6.1,3.6-8.9,4.3v-0.2
			c2.1-0.9,4.8-2,8.1-4.9C47.5,5,46.8,4.2,46.3,3c-1.5,1.6-3.2,3.3-5.2,4.5L41,7.3c3.1-2.7,5.6-6.2,5.6-7.2l1.5,0.5
			c0.2,0.1,0.3,0.1,0.3,0.3s-0.2,0.3-0.8,0.5C47.1,1.9,47,2,46.8,2.3h4.4l0.6-0.5c0.1-0.1,0.2-0.2,0.3-0.2s0.2,0.1,0.2,0.1L53,2.4
			c0.1,0.1,0.2,0.2,0.2,0.4c0,0.3-0.2,0.3-1.1,0.4c-0.6,0.6-1.5,1.6-2.7,2.6c3.3,2,6.5,2.1,8.1,2V8C56.8,8.4,56.3,9.3,56.1,9.5z
			 M46.5,2.8c0.9,1.4,1.6,2,2.1,2.4c0.2-0.2,1.5-1.4,2.2-2.4C50.8,2.8,46.5,2.8,46.5,2.8z"/>
		<path d="M63.1,5.4c0.1,0.1,0.2,0.1,0.2,0.3c0,0.1-0.3,0.4-0.5,0.6c0,0.8,0,1.5,0,2.7c0,1.3,0.1,7.3,0.1,8.5c0,0.4,0,0.5-0.2,0.7
			c-0.3,0.3-0.6,0.3-0.7,0.3c-0.5,0-0.5-0.3-0.5-0.5c0,0,0-0.4,0.1-0.7c0.2-2.3,0.2-3.6,0.2-10.9c-1,1.4-2,2.6-3,3.3l-0.1-0.1
			c1.7-2.1,3.6-5.8,4.5-8.3c0.2-0.5,0.2-0.9,0.3-1.3L65,1c0.1,0.1,0.2,0.2,0.2,0.3c0,0.2-0.2,0.3-0.7,0.3c-0.3,0.7-0.8,1.7-1.8,3.5
			L63.1,5.4z M66.9,5.7c-0.6,1.2-1.3,2.4-2.4,3.6l-0.1-0.1c1-2,1.8-4,2.5-6.2C67,2.7,67,2.6,67.1,1.9l1.5,0.7
			c0.1,0.1,0.3,0.2,0.3,0.4s-0.1,0.2-0.8,0.4c-0.2,0.5-0.3,0.9-0.8,1.8h3.1c0-1.3-0.1-3.9-0.4-5l1.8,0.5C71.9,0.7,72,0.8,72,1
			c0,0.1-0.1,0.2-0.2,0.3s-0.4,0.3-0.5,0.4v3.5h2.1L74,4.4c0.1-0.1,0.2-0.2,0.3-0.2c0.1,0,0.3,0.1,0.4,0.2l1.1,0.9
			c0.1,0,0.2,0.1,0.2,0.2c0,0.2-0.2,0.2-0.3,0.2h-4.4c0,3.1,0,3.4,0.1,5.2h3l0.8-1c0-0.1,0.2-0.3,0.3-0.3s0.3,0.1,0.4,0.2l1.2,1
			c0.1,0.1,0.2,0.2,0.2,0.3c0,0.2-0.2,0.2-0.3,0.2h-5.6c0,1,0.2,5.4,0.2,6.4c0,0.7-0.8,0.8-0.9,0.8c-0.5,0-0.5-0.3-0.5-0.8
			c0-0.2,0-1.2,0-1.4c0-0.8,0.1-4.3,0.1-5h-3c-0.7,0-1.8,0.1-2.6,0.2l-0.5-0.9c1.5,0.1,3,0.1,3.3,0.1h2.8c0.1-2.4,0.1-2.7,0.1-5.2
			h-3.5V5.7z"/>
		<path d="M83.7,1.9c-0.3,0.6-0.8,1.7-1.8,3.2l0.5,0.2c0.3,0.2,0.4,0.2,0.4,0.4c0,0.3-0.3,0.4-0.5,0.4c0,5.2,0,5.7,0,7.3
			c0,0.7,0.1,3.8,0.1,4.4c0,0.2,0,0.4-0.2,0.5s-0.5,0.2-0.6,0.2c-0.3,0-0.5-0.2-0.5-0.6c0-0.2,0.1-1.3,0.1-1.5
			c0.1-1.8,0.1-2.2,0.1-10.4c-1.8,2.7-3.2,3.7-3.8,4.2l-0.1-0.1c2.4-3.1,4.3-6.7,4.9-8.3c0.3-0.8,0.3-1.1,0.2-1.6l1.6,0.9
			c0.2,0.1,0.3,0.2,0.3,0.3C84.4,1.7,84.2,1.7,83.7,1.9z M95.8,6.8h-3.7c0,1,0,4.3,0,6.3c0,0.5,0.1,2.7,0.1,3.2
			c0,1.2-0.7,1.8-2.3,2.3c-0.2-0.6-0.4-1-1.1-1.3c-0.3-0.1-0.9-0.5-1.3-0.7v-0.2c0.4,0.1,1,0.2,1.7,0.2c1.6,0,1.7-0.1,1.7-0.9
			c0-0.2,0-3.6,0-4.3s0-1.6,0-2.1c0-0.3,0-2.1,0-2.5h-4.3C86,6.8,84.9,6.9,84,7l-0.5-0.9c1.1,0.1,2.2,0.2,3.3,0.2h4
			c0-0.2,0-4-0.1-4.2c0-0.6-0.1-0.9-0.3-1.3l1.8,0.5c0.2,0.1,0.3,0.1,0.3,0.3s-0.1,0.3-0.7,0.6c0,0.3,0,0.4,0,1.6v2.6h1.8l0.6-0.8
			c0.1-0.1,0.2-0.3,0.3-0.3c0.1,0,0.2,0.1,0.3,0.2l0.8,0.8c0.1,0.1,0.2,0.2,0.2,0.3C96.1,6.7,96,6.8,95.8,6.8z M87.8,13.1
			c-0.5,0-0.5-0.3-0.7-1.3c-0.2-0.9-0.6-2.5-1.2-3H86c0.7,0.4,2.7,1.8,2.7,3.4C88.7,12.9,88.1,13.1,87.8,13.1z"/>
		<path d="M111.3,14.2c-0.2,0-1.2-0.7-1.4-0.8c-1.2-0.6-3.4-1.1-5.2-1.1c-1.7,0-3.1,0.6-3.1,2.2c0,2.3,3.9,2.4,4.7,2.4
			c0.3,0,1.8-0.1,2.1-0.1c0.4,0,1,0.2,1,0.6c0,0.3,0,0.6-2,0.6c-0.7,0-2.4-0.1-3.9-0.5c-1.1-0.3-2.7-1-2.7-2.8
			c0-2.9,3.4-2.9,4.2-2.9c1.1,0,2.7,0.2,4.2,0.5c0.1,0,0.6,0.1,0.7,0.1s0.2,0,0.2-0.1s-0.1-0.3-0.2-0.4c-0.6-0.8-1.5-2.1-2.3-3.4
			c-2.1,0.8-4.1,1-4.7,1c-0.9,0-2.1-0.6-2.3-1.4c0.9,0.4,1.3,0.6,2.2,0.6c0.9,0,2.8-0.3,4.4-0.9c-0.3-0.6-0.8-1.4-1.4-2.8
			c-1,0.3-2.3,0.6-2.8,0.6c-0.7,0-1.7-0.5-2.2-1.2c0.4,0.1,1,0.4,1.7,0.4c1.1,0,2.3-0.4,2.9-0.6c-0.2-0.4-0.8-2-1-2.3
			c-0.3-0.5-0.9-0.6-1.9-0.6c0.5-0.5,0.8-0.8,1.5-0.8c0.6,0,1.5,0.3,1.6,0.7c0,0.3,0.1,1.2,0.2,1.3c0.1,0.3,0.3,0.9,0.4,1.2
			c0.2-0.1,0.6-0.3,1.2-0.6c0.6-0.4,1-0.6,1.3-0.6s0.7,0.2,0.7,0.5s-0.2,0.4-0.6,0.6c-1.2,0.6-1.5,0.7-2.3,1
			c0.3,0.9,0.6,1.5,1.4,2.8c0.7-0.3,1-0.5,1.9-1c0.5-0.3,0.6-0.4,0.9-0.4c0.5,0,0.8,0.2,0.8,0.4c0,0.3-0.3,0.4-0.6,0.6
			c-0.3,0.1-1.5,0.7-2.5,1.1c0.9,1.4,1.7,2.3,2.5,3.2c0.3,0.3,0.9,1,0.9,1.4C111.9,13.1,111.7,14.2,111.3,14.2z"/>
		<path d="M128.5,6.4c0.3-0.1,0.5-0.2,0.5-0.6c0-0.2-0.1-0.4-0.1-0.6c0.9,0.2,1.5,0.7,1.5,1.6c0,0.4-0.1,0.4-0.7,0.5
			c-2.6,0.4-9.1,3-9.1,6.2c0,0.3,0,0.7,0.5,1.3c0.8,0.9,3.6,0.9,4.1,0.9c1.6,0,2.4-0.1,4-0.5c0.3-0.1,0.7-0.1,0.7-0.1
			c0.5,0,1.2,0.2,1.2,0.7c0,0.3-0.3,0.5-1,0.6c-0.7,0.2-2.6,0.2-3.3,0.2c-2.3,0-3.5-0.2-4.6-0.4c-1.5-0.3-2.4-1.5-2.4-2.7
			c0-1.6,1.3-3.5,3.9-5c-0.3-0.4-0.8-1.1-0.8-2.2c-0.1-3.4-0.1-3.8-0.2-4.1c-0.1-0.4-0.2-0.7-0.5-1c-0.1-0.1-0.7-0.6-0.8-0.6
			c0.2-0.1,0.4-0.1,0.7-0.1c1.2,0,2,1.1,2,1.4c0,0.1-0.1,0.3-0.1,0.4c0.1,0.9,0,1.7,0,2.6c0,0.4,0,2.1,0.6,3.4
			C125.1,7.9,126.4,7.2,128.5,6.4z"/>
		<path d="M140.6,9.7c-0.2,1-0.8,3.9-1,4.7c0,0.2-0.1,0.8-0.1,1s0.1,1,0.1,1.2c0,0.3-0.2,0.5-0.4,0.5c-1.2,0-1.7-3.7-1.7-4.9
			c0-1.9,0.6-5.1,1-7c0.1-0.7,0.2-0.9,0.2-1.2c0-1-0.3-1.3-0.9-1.6c0.1,0,0.3-0.1,0.4-0.1c1,0,1.8,1.1,1.8,1.6c0,0.2,0,0.3-0.3,1
			c-0.8,2.1-1.3,4.2-1.3,6.5c0,1.3,0.2,2.6,0.3,2.7c0,0,0,0,0.1,0s0.2-0.3,0.2-0.3c0.7-2,0.8-2.2,1.4-3.9l0.1-0.1L140.6,9.7z
			 M148.1,3.1c0-1.1-0.3-1.2-1.4-1.4c0.2-0.1,0.6-0.4,1.2-0.4s1.1,0.5,1.2,0.6c0.2,0.1,0.2,0.2,0.2,0.4c0,0.1-0.1,0.7-0.2,0.8
			c-0.1,0.7-0.2,1.6-0.2,2.8c0.4-0.1,2.2-0.6,2.6-0.6c0.2,0,1,0.3,1,0.6c0,0.3-0.4,0.4-0.5,0.4c-1.2,0.3-3,0.5-3,0.5
			c0,2.2,0.1,4.5,0.3,6.5c2.1,0.9,2.2,1,2.6,1.2c0.4,0.3,0.8,0.7,0.8,1.1c0,0.2-0.1,0.5-0.5,0.5c-0.2,0-0.3-0.1-0.7-0.3
			c-0.8-0.5-1.9-1.2-2.4-1.5c-0.5,1.3-1.3,2.3-3.1,2.3c-1.7,0-3.2-0.9-3.2-2.1c0-0.8,0.7-1.3,1.1-1.5c0.7-0.3,1.7-0.3,2-0.3
			c0.9,0,1.6,0.1,2.2,0.2c0-0.6-0.1-5-0.2-6c-0.5,0.1-1.2,0.2-1.8,0.2c-0.9,0-2.1-0.2-2.8-0.7c-0.3-0.2-0.4-0.4-0.5-0.7
			c0.9,0.4,1.6,0.6,2.9,0.6c0.3,0,1.2,0,2.2-0.2C148.1,5.6,148.1,3.6,148.1,3.1z M146,13.5c-0.9,0-2.3,0.3-2.3,1.1
			c0,0.6,1,1.1,2.1,1.1c2,0,2.4-1.3,2.5-1.7C147.4,13.6,146.7,13.5,146,13.5z"/>
	</g>
</g>
<g>
	<g>
		<path d="M355.9,17v-0.6h0.5c0.9,0,1.1-0.6,1.1-1.5V10c0-1.2-0.6-1.9-1.8-1.9c-1.6,0-2.6,1.2-3.1,1.8v5c0,0.8,0.2,1.5,1.2,1.5h0.5
			V17h-4.5v-0.6h0.4c0.9,0,1.1-0.6,1.1-1.5v-4.8c0-1.4-0.5-2.1-1.9-2.1c-1.5,0-2.3,0.9-2.8,1.5v5.4c0,0.8,0.3,1.5,1.2,1.5h0.3V17
			h-4.2v-0.6h0.4c0.9,0,1.1-0.6,1.1-1.5V9.1c0-0.4-0.3-0.9-0.7-0.9c0,0-0.3,0-0.6,0.1L344,7.9l2.6-0.8v1.7c0.8-0.7,1.8-1.6,3.3-1.6
			c0.9,0,2.2,0.3,2.5,2c0.8-0.9,1.9-2,3.5-2c1.7,0,2.7,1.1,2.7,2.9v4.8c0,1,0.3,1.5,1,1.5h0.5V17H355.9z"/>
		<path d="M364.9,17.4c-2.5,0-4.4-2.4-4.4-5.1s1.8-5.1,4.4-5.1c2.5,0,4.4,2.4,4.4,5.1S367.4,17.4,364.9,17.4z M364.9,7.8
			c-2,0-3,2.2-3,4.5c0,2.4,1,4.5,3,4.5c1.9,0,3-2,3-4.5C368,10,367,7.8,364.9,7.8z"/>
		<path d="M376.7,9.1c-0.3,0-0.5-0.1-0.6-0.2c-0.2-0.2-0.3-0.3-0.6-0.3c-1.3,0-2,1.1-2.7,2.4v3.9c0,1,0.6,1.5,1.4,1.5h0.7V17h-5.1
			v-0.6h0.5c0.8,0,1.4-0.4,1.4-1.5V9.4c0-0.5-0.2-1.1-0.8-1.1c-0.3,0-0.6,0.1-0.9,0.2l-0.1-0.4l3-1v2.8c0.8-1,2.2-2.7,3.7-2.7
			c0.5,0,1.2,0.3,1.2,1C377.6,8.7,377.2,9.1,376.7,9.1z"/>
		<path d="M382.5,17.4c-3.7,0-4.5-3.4-4.5-5.1c0-2.6,1.4-5.1,4.3-5.1c1.8,0,2.7,1,3.2,1.8c0.7,1.1,0.8,2.2,0.9,2.8h-6.9
			c-0.1,4.8,3.1,4.9,3.4,4.9c1.7,0,2.7-1.2,3.1-1.9l0.5,0.4C385.7,16.1,384.7,17.4,382.5,17.4z M382.2,7.8c-2.3,0-2.6,2.4-2.7,3.3
			h5.3C384.7,8.6,383.4,7.8,382.2,7.8z"/>
	</g>
</g>
<rect y="27.5" width="387" height="0.5"/>
</svg>
