<?xml version="1.0" encoding="utf-8"?>
<!-- Generator: Adobe Illustrator 27.0.0, SVG Export Plug-In . SVG Version: 6.00 Build 0)  -->
<svg version="1.1" id="レイヤー_1" xmlns="http://www.w3.org/2000/svg" xmlns:xlink="http://www.w3.org/1999/xlink" x="0px"
	 y="0px" viewBox="0 0 222 90" style="enable-background:new 0 0 222 90;" xml:space="preserve">
<style type="text/css">
	.st0{fill:#2E2F29;}
</style>
<g>
	<path d="M86.4,66.2H68.5c0-0.2,0-0.4,0-0.6c0-0.4,0.1-0.7,0.3-0.9s0.8-0.3,1.7-0.5c1.5-0.3,2.7-0.7,3.7-1.1
		c0.3-0.6,0.4-1.1,0.4-1.6V59c0-0.3,0-1.6,0.1-3.9c0-0.9,0.1-4.7,0.1-11.5l0.1-9.2l-0.1-5.4c0-0.8,0-3.2,0.1-7.4
		c-5.9,4.2-9.2,6.3-9.7,6.3c-0.2,0-0.4-0.1-0.7-0.3c-0.2-0.2-0.4-0.4-0.4-0.6c0-0.3,0.1-0.5,0.3-0.6c0.4-0.3,1.2-0.9,2.6-1.7
		c0.2-0.1,1.1-0.8,2.7-2.1c2.5-2.1,4.4-3.8,5.5-5c1.2-1.2,1.9-1.9,2.1-2c0.5,0,0.9,0,1.2,0c0.7,0,1.1,0.1,1.3,0.3
		c0.2,0.2,0.3,1,0.3,2.4l-0.3,34.8v3.4c0,0.8,0,1.7,0,2.5c0,0.8,0,1.5,0,1.9c0,0.9,0.1,1.6,0.4,1.8c0.2,0.2,0.6,0.4,1.4,0.7l2.7,0.5
		c1.1,0.3,1.8,0.5,1.9,0.6c0.3,0.2,0.4,0.6,0.4,1.1L86.4,66.2z"/>
	<path class="st0" d="M132.5,52.8h-15.8c-0.6,1.2-1.5,3.2-2.1,4.5h9.4l0.9-0.8c0.1-0.1,0.3-0.3,0.4-0.3c0.1,0,0.3,0.2,0.5,0.3
		l1.4,1.2c0.1,0.1,0.3,0.2,0.3,0.5c0,0.2-0.1,0.3-0.3,0.3c-0.2,0.1-0.8,0.2-1.3,0.2c-0.5,2.8-1.3,5.4-2,6.9
		c-1.1,2.3-2.4,2.8-5.7,3.1c-0.1-0.5-0.2-0.8-0.3-1.2c-0.7-1.3-1.7-2-2.1-2.2l0.1-0.2c2.7,1,4.3,1.1,4.6,1.1c0.7,0,1.3-0.2,2.1-1.8
		c0.8-1.7,1.4-4.5,1.7-6.5h-10c-0.4,0.9-1.6,3.2-1.6,3.3c-0.2,0.5-0.7,0.6-1.1,0.6c-0.5,0-0.9-0.2-0.9-0.5c0-0.2,0.2-0.5,0.2-0.5
		c1.1-1.9,2.3-4.3,4-8.1h-5.6c-0.6,0-2.5,0.1-4,0.3l-0.7-1.3c1.6,0.1,3.5,0.2,5.1,0.2h19.2l1.2-1.5c0.2-0.2,0.3-0.4,0.5-0.4
		c0.2,0,0.4,0.2,0.6,0.3l1.7,1.5c0.2,0.2,0.3,0.3,0.3,0.5C133,52.8,132.6,52.8,132.5,52.8z M126,43.1v2.7c0,0.5,0.1,2.8,0,3.1
		c0,0.6-0.6,0.9-1.1,0.9c-0.7,0-0.7-0.2-0.7-1.3h-11.6c0,0.6-0.1,0.8-0.2,0.9c-0.2,0.4-0.7,0.5-1.1,0.5c-0.4,0-0.6-0.2-0.6-0.6
		c0-0.3,0.2-1.3,0.2-1.5c0.1-1.2,0.1-2.6,0.1-4.2c0-1.9,0-2.4-0.2-3l2.2,1.1h10.7l0.7-0.8c0.2-0.2,0.2-0.3,0.4-0.3
		c0.1,0,0.2,0,0.4,0.2l1.3,0.8c0.2,0.1,0.3,0.2,0.3,0.4C126.9,42.5,126.3,42.9,126,43.1z M124.3,42.6h-11.6v5.2h11.6V42.6z"/>
	<path class="st0" d="M144.9,48.3H141l0,2.5c1.1,0.4,4.1,2.1,4.1,3.6c0,0.4-0.2,1-0.8,1c-0.8,0-1-0.6-1.4-1.8
		c-0.2-0.7-1-1.9-1.9-2.5c-0.1,4.1-0.1,5.4-0.1,7.7c0,2.8,0.1,4.6,0.1,6.3c0,0.4,0.1,2,0.1,2.4c0,0.8-0.6,1.1-1.3,1.1
		c-0.7,0-0.7-0.6-0.7-0.7c0-0.7,0.2-4,0.2-4.7c0-1.8,0.3-9.7,0.3-10.8c-0.9,2.6-3.1,6.7-6,9.2l-0.2-0.2c2.4-2.7,5.5-10.6,5.9-13.1
		c-1.1,0-2.8,0.1-4,0.3l-0.7-1.3c1.2,0.1,2.8,0.2,5.1,0.2c0-4.9-0.2-5.6-0.7-7.2l2.7,0.8c0.2,0.1,0.5,0.2,0.5,0.5
		c0,0.3-0.4,0.6-1.1,0.7c-0.1,0.8-0.1,4.4-0.1,5.1h1.3l0.7-0.9c0.2-0.2,0.3-0.4,0.5-0.4c0.2,0,0.3,0.1,0.6,0.3l1,0.9
		c0.2,0.1,0.3,0.3,0.3,0.5C145.3,48.3,145,48.3,144.9,48.3z M161.1,66.6c-2.6-1.8-4.7-3.9-6.8-8.6h-0.1c0.1,2,0.2,4.9,0.2,7.4
		c0,0.3,0.1,1.7,0.1,2c0,1-0.6,1.4-1.2,1.4c-0.6,0-0.7-0.4-0.7-0.8c0-0.1,0-0.9,0.1-1.1c0-0.6,0-2,0-2.4v-2.9c0-0.6,0-0.8,0-2.6
		c-2.3,3.3-5.4,6-9,7.8l-0.1-0.2c3-2.5,6-5.5,7.7-8.7h-2.7c0.1,1.2-0.9,1.2-1.1,1.2c-0.4,0-0.7-0.2-0.7-0.7c0-0.2,0.1-0.9,0.1-1.1
		c0-0.9,0-2.1,0-3c0-0.3,0-4.7,0-4.9c0-1.1-0.1-1.5-0.2-2.1l2.3,1.2h3.7l-0.1-3.4h-2.6c-1,0-2.7,0.1-4,0.4l-0.7-1.3
		c1.7,0.1,3.4,0.2,5.1,0.2h2.2c0-2.6-0.1-3-0.4-4.1l2.5,0.6c0.3,0.1,0.7,0.2,0.7,0.5c0,0.3-0.4,0.6-1.1,1c0,0.2,0,1.4,0,2h4.5
		l0.9-1.2c0.2-0.2,0.3-0.4,0.5-0.4c0.2,0,0.3,0.1,0.6,0.4l1.2,1.2c0.2,0.2,0.3,0.3,0.3,0.5c0,0.3-0.3,0.3-0.5,0.3h-7.5l0,3.4h3.8
		l0.6-0.7c0.2-0.2,0.3-0.3,0.4-0.3s0.3,0.1,0.5,0.3l1.1,0.9c0.1,0.1,0.2,0.2,0.2,0.4c0,0.2-0.4,0.5-0.9,0.8c0,1.3,0,2.3,0,3.7
		c0,1,0.2,2.6,0.2,3.6c0,1.1-0.8,1.4-1.2,1.4c-0.6,0-0.6-0.4-0.6-0.8h-3.6c1.3,2.1,4.2,5.4,9,6.5v0.2
		C162.9,65,162.1,65.3,161.1,66.6z M152.6,49.5h-4.1v3.4h4.1L152.6,49.5z M148.5,53.7v3.6h4.1l0-3.6H148.5z M158.3,49.5h-4.2
		l-0.1,3.4h4.2V49.5z M158.3,53.7h-4.2v3.6h4.2V53.7z"/>
</g>
<g>
	<path class="st0" d="M221,1v88H1V1H221 M222,0H0v90h222V0L222,0z"/>
</g>
<polyline points="217.5,69.5 217.5,84.5 202.5,84.5 "/>
</svg>
