<svg version="1.1" id="レイヤー_1" xmlns="http://www.w3.org/2000/svg" x="0" y="0" viewBox="0 0 410 66" xml:space="preserve"><style>.st2{fill:#040000}</style><path fill="#054993" d="M21.9 50.8V35.7H8.3V20.8L0 29.1v21.7z"/><path fill="#d41619" d="M13.4 15.7v15.1H27v14.9l8.2-8.3V15.7z"/><path class="st2" d="M74.5 0h-12L46.8 22.7v17.4l5.7-8.3v33.4h10.2V17z"/><path class="st2" d="M100.6 41h24.1l2.7-9.7h-26.8V20h24.2l2.6-9.5h-26.8V0H90.3v10.5H70.8L68.2 20h22v11.3H68.3L65.6 41h24.7v13.7H68.1l-2.9 10.5h59.6l2.8-10.5h-27zM158.3 18.2h-8V.1h-10.4v18.1h-5.2L132 28.7h7.9v36.5h10.4V28.7h5.2zM188.7 29.8v3.8h-2.4l-1.9 7.9h4.3v13.3h-3.1l-2.8 10.4h4.5c6.4-.3 9.6-3.6 9.9-8.1V41.5h6v13.3h-3.3l-2.8 10.4h5.1c6.4-.3 8.9-3.6 9.2-8.1V33.5h-14v-3.8l-8.7.1z"/><path class="st2" d="M160.8 29.8v3.8H158l-1.9 7.9h4.6v13.3H157l-2.8 10.4h5.1c6.4-.3 9.6-3.6 9.9-8.1V41.5h6v13.3h-3.3l-2.8 10.4h5.1c6.4-.3 8.9-3.6 9.2-8.1V33.5h-14v-3.8l-8.6.1zM188.7 18.2h11.1v-3.9h-13.2V17c0 7.5-6.9 11-12.5 11h-13.4v-9.9h15.7v-3.8h-18.1l2.4-9.2h15.7V0h10.2v5.2h22v15.2c-.3 4.8-2.6 7.6-8.7 7.6h-11.1l-.1-9.8z"/><g><path class="st2" d="M262.3 40.1c-2.5-1.1-5.1-3.2-6.2-4.2-1.7-1.7-3-3.8-3.9-6-.6 1.7-1.6 4-4 6.5-2 2.1-3.9 3.1-6 3.9l-1.8-2.3c1.6-.5 4.9-1.5 7.5-5.2 2.2-3.1 2.6-5.7 2.8-7.4h-2.3c-2.5 0-5 .1-7.6.2V23c2.6.2 6.4.2 7.6.2h2.5c.1-1.3.1-2.4.1-3.6 0-1.3-.1-2.3-.1-3l3.1.3c.3 0 .8.1.8.5s-.6.6-1 .7c0 .6 0 .9-.1 3.8v1.3h2.5c2.5 0 5.1 0 7.6-.2v2.6c-3.3-.2-7.3-.2-7.6-.2h-2.4c.5 6.2 6.1 10.9 10.5 12.2l-2 2.5zM273.5 36.5c-1.4 1.5-3.1 2.8-4.9 3.6l-2.2-2c1.6-.5 3.1-1.2 4.4-2.3 1.6-1.3 2.4-2.9 2.7-3.5h-2.7c-1.3 0-2.5 0-3.8.2v-2.4c1.1.1 2.1.2 2.9.2h3.3c.3 0 1.4 0 2.4-.1l1 1.1c-.5 1.2-1.1 3.1-3.1 5.2zm14.5 3.4c-2.5-.8-6-3.5-8.4-7.3v1.7c0 1.2 0 2.5.1 3.8 0 2.1-.6 2.5-4.5 2.4l-1.3-2.6c1.2.2 1.9.3 2.3.3s1 0 1-.9v-9h-2c-1.8 0-3.7.1-5.5.2.1-1 .1-2.1.1-3.1v-3.6c0-.9 0-2-.2-3.2.7.1 1.1.1 1.6.1.9 0 1.9.1 4.6.1h.6c.2-.8.4-1.7.5-2.5l3.2.3c.1 0 .3.1.3.3 0 .2-.2.3-.7.5-.3.7-.5 1.2-.6 1.4h1.5c2 0 4.6-.1 6.6-.2-.1 1-.1 2.2-.1 3.2V26c0 .8 0 1.5.1 2.7-2-.1-4-.2-6.1-.2H280c.2.8.6 2.2 2.4 4.4 1.5-.9 2.9-2 4.2-3.8l2.4 1.7c.1.1.2.2.2.3 0 .3-.2.3-.9.3-2.2 2-3.9 2.9-4.4 3.1 2.2 2.1 4.3 2.9 5.8 3.3l-1.7 2.1zm-3.3-19.2h-12.4v1.9h12.4v-1.9zm0 3.7h-12.4v1.9h12.4v-1.9zM315.3 40.6c-1.1-.1-2.9-.3-5.9-1.2-2.4-.8-3.3-1.4-5.1-2.6-.6.4-1.7 1.2-4.1 2.2-2.7 1.1-5.1 1.6-6.3 1.8l-1.7-2.7c2.8-.2 7-.9 10.2-3.1-2.1-2.4-3.3-4.8-3.6-5.7l2.3-.9c.4 1.4 1.5 3.5 3.2 5.1 1.7-1.5 3.3-3.6 4.3-5.2h-7.8c-2 0-4 .1-5.9.3V26c2.2.1 4.2.2 6.1.2h2.3v-3.4h-2.8c-2.6 0-5.5.1-8.1.2v-2.6c2.6.2 6.7.2 8.1.2h2.8c0-1.2 0-1.7-.1-4.5l3.3.3s.3.1.3.4c0 .3-.2.4-.8.7-.1 1.8-.1 2.1-.1 3.1h2.5c.7 0 5.1 0 8.2-.2V23c-3.6-.2-7.9-.2-8.2-.2h-2.5v3.4c2.7 0 3.6-.1 5.3-.3l1.2 1.4c-.6 1-3.2 5-6.5 7.8 2.6 1.9 6.9 2.9 10.6 2.8l-1.2 2.7zM336.4 21.6h-12.6v4c0 8.4-1.4 11.2-3.2 13.9l-2.6-1.4c1.7-2 3.3-4.7 3.3-12.5 0-3.6-.2-5.2-.4-6.3 1.3.1 5.1.1 5.3.1.2 0 1.2.1 1.4.1h2.9c0-.9-.1-2.3-.1-3.1l2.9.2c.7.1.9.1.9.4 0 .2-.2.3-.3.4-.1.1-.5.3-.6.3 0 .2-.1 1.5-.1 1.8h3.2c.9 0 5.8-.2 6.8-.3V22c-.9-.3-5.7-.4-6.8-.4zm.4 5.6h-3.6V30h2.1c.9 0 4.6-.1 5.4-.2 0 .4-.1 2.9-.1 3.3v3.6c0 .9.1 2.8.1 3.7h-2.8c.1-.4.1-.7.1-1.4h-10.7c0 .6 0 .9.1 1.5h-2.7c.1-.8.2-3.3.2-4.1v-3.5c0-.8 0-1.2-.1-3.1 1.3.1 4.1.2 5.9.2v-2.7c0-1-.1-4.1-.1-5l3 .2c.2 0 .7.1.7.4 0 .3-.3.4-1 .7V25h3.6c.6 0 2.9-.1 4.2-.2v2.4c-.4.1-4 0-4.3 0zm1.2 4.9h-10.7v4.8H338v-4.8z"/></g><g><path class="st2" d="M246 49.7v.8h3.4v4.7h-1v-.3h-2c1.4 1.2 3 2 4.8 2.4l-.5 1.2c-1.5-.4-3.1-1.3-4.7-2.8V59h-1v-3.1c-1.2 1.3-2.7 2.2-4.5 2.8l-.5-1c2-.6 3.6-1.5 4.7-2.7h-2.1v.4h-1v-4.8h3.4v-.8h-4.9v-.9h4.9v-1.1h.9c.3 0 .3.1 0 .3v.8h4.8v.9H246zm-3.4 2.6h2.4v-1h-2.4v1zm0 1.8h2.4v-1h-2.4v1zm3.4-1.8h2.4v-1H246v1zm0 1.8h2.4v-1H246v1zM253 58.5l-.6-1.1c1.3-.6 2.3-1.3 3-2.2l.9.8c.1.2 0 .2-.3.2-.8.9-1.7 1.7-3 2.3zm5.5-10.5v1h5v.9h-11V49h4.9v-1.4h1.1c.3 0 .3.2 0 .4zm2.2 6.5h-2.1v3.7c0 .5-.3.8-.8.8h-1.3l-.2-1.1h1.1c.1 0 .2-.1.2-.2v-3.2h-2.5v.4h-1v-4h7.6v3.9h-1v-.3zm-5.6-2.7v1.7h5.6v-1.7h-5.6zm7.6 6.6c-1.4-.5-2.4-1.3-3.2-2.5l.9-.7c.7.9 1.7 1.6 3 2.1l-.7 1.1zM269.9 49.9c.3-.4.6-1 .9-1.7l.9.6c.2.2.2.3-.1.3-.5.8-1 1.6-1.6 2.2h1.6v.9h-2.3c-.4.4-.7.7-1.1 1h2.8v5.6h-1v-.6h-2.5v.8h-1v-4.3c-.5.3-.9.6-1.4.8l-.4-1c1.1-.4 2.3-1.2 3.4-2.2h-2.8v-.9h2.3V50h-1.8v-1h1.8v-1.6h.9c.3 0 .3.1 0 .3V49h1.5v.9zm-2.5 4.1v1.3h2.5V54h-2.5zm2.5 2.1h-2.5v1.3h2.5v-1.3zm-.1-6.1h-1.4v1.3h.3c.3-.3.7-.7 1.1-1.3zm3.9 2.5l.9-3.1h-1.5V59h-1V48.4h2.7l.1-.2 1 .7-.2.2-1.1 3.2c.7.8 1.2 1.5 1.3 2.1.5 2 .1 3-1.2 3h-.7l-.2-1.1h.7c.5 0 .7-.5.4-1.5-.1-.7-.5-1.5-1.2-2.3zM281.2 52.9l-.5-.8.7-.4c.5.6.9 1.3 1.2 2l-.8.5-.3-.5-1.1.1V59h-1v-5.2l-1.7.1c0 .2-.1.3-.2.1l-.1-1h.7l1-1.2-1.7-1.4.6-.7.3.2 1.3-2.2.8.5c.1.2.1.3-.2.3l-1.3 2 .7.6 1.3-1.8.7.5c.2.2.2.3-.1.3L279 53l2.2-.1zm-3.3 1.8l.9.1c.1.1.1.2-.1.3 0 1-.2 2-.5 2.9l-.8-.3c.3-1.1.5-2.1.5-3zm3.3 2.3c-.1-.8-.2-1.5-.4-2.2l.8-.3c.2.5.4 1.2.5 2.1l-.9.4zm4.6-1.1v3h-.8V56c-.5 1-1.5 1.8-2.9 2.6l-.5-1c1.4-.6 2.5-1.5 3.3-2.8h-2.1v-4.2h2.2v-.9h-2.7V49h2.7v-1.5h.8c.3 0 .3.1 0 .3V49h2.7v.8h-2.7v.9h2.3v4.2H286c.5.9 1.5 1.7 2.8 2.4l-.4.9c-1.2-.5-2-1.3-2.6-2.3zm-2.3-4.4v.9h1.4v-.9h-1.4zm1.4 1.8h-1.4v.8h1.4v-.8zm2.3-1.8h-1.4v.9h1.4v-.9zm0 1.8h-1.4v.8h1.4v-.8zM292.1 55.8c-.1 1-.4 1.9-.9 2.6l-1-.5c.4-.7.7-1.4.9-2.3l1 .2zm8.4-1.9l-.3 3.8c-.1.8-.4 1.2-.9 1.2h-1.4l-.2-.9h1.2c.2 0 .3-.1.3-.4l.2-2.7h-7.2v.3h-1V48h8.6v1h-3.7v.9h3.1v.9h-3.1v.9h3.1v.9h-3.1v1.1h4.4zm-5.4-4V49h-2.8v.9h2.8zm0 1.9v-.9h-2.8v.9h2.8zm0 2.1v-1.1h-2.8v1.1h2.8zm-1.3 1.9c.2.7.3 1.4.2 2.2l-1.1.2c0-.9 0-1.7-.1-2.3l1-.1zm1.5 2c-.1-.7-.3-1.4-.6-2l.9-.2c.3.5.6 1.2.7 1.9l-1 .3zm2.2-.4c-.2-.7-.4-1.3-.8-1.8l.9-.3c.4.5.7 1.1.9 1.8l-1 .3zM312.8 49.5h-8.6v7.4h9V58h-9v.7H303V48.4h9.8v1.1zm-2.5.3l1 .5c.3.1.3.2 0 .3-.3.7-.8 1.4-1.5 2.3.8.5 1.7 1.2 2.8 2.1l-.8 1c-.9-.8-1.8-1.6-2.7-2.3-.8.8-2 1.7-3.6 2.6l-.7-1c1.5-.8 2.6-1.6 3.3-2.3-.7-.5-1.6-1.1-2.7-1.7l.6-.8c1 .5 2 1.1 2.9 1.7.4-.7 1-1.5 1.4-2.4zM320.9 49.7v.8h3.4v4.7h-1v-.3h-2c1.4 1.2 3 2 4.8 2.4l-.5 1.2c-1.5-.4-3.1-1.3-4.7-2.8V59h-1v-3.1c-1.2 1.3-2.7 2.2-4.5 2.8l-.5-1c2-.6 3.6-1.5 4.7-2.7h-2.1v.4h-1v-4.8h3.4v-.8H315v-.9h4.9v-1.1h.9c.3 0 .3.1 0 .3v.8h4.8v.9h-4.7zm-3.3 2.6h2.4v-1h-2.4v1zm0 1.8h2.4v-1h-2.4v1zm3.3-1.8h2.4v-1h-2.4v1zm0 1.8h2.4v-1h-2.4v1zM327.4 57.6c3.1-1.1 4.7-3.1 4.8-6.1h-4.5v-1.1h4.6v-2.6h1.1c.3.1.3.2 0 .4v2.2h4.8v1.1h-4.7c.7 2.8 2.4 4.7 5.1 5.9l-.6 1.2c-2.3-1.1-4-2.9-4.9-5.4-.6 2.7-2.3 4.6-5.2 5.6l-.5-1.2zM343.2 54.7h-2.8v-.9h3.1l.3-.3.8.6c.2.1.1.2-.1.2-.9 2.2-2.3 3.7-4.3 4.4l-.4-.9c1.7-.7 2.8-1.7 3.4-3.1zm7.9 2.5l-.5 1.2c-1.8-.6-3.3-1.8-4.5-3.6V58c0 .5-.3.8-.8.8h-1l-.2-.9h.9c.1 0 .2-.1.2-.2v-4.8h-3.4v-4.3h2.9l.3-1.1 1 .1c.3 0 .3.1 0 .3l-.3.7h3.6v4.3H346c.1.5.5 1.1 1.1 1.8.8-.6 1.5-1.1 2.1-1.7l.9.7c0 .2 0 .2-.2.1-.9.7-1.6 1.1-2.1 1.4.6.9 1.8 1.6 3.3 2zm-2.9-7.8h-5.6v.9h5.6v-.9zm0 2.7v-1h-5.6v1h5.6zM354.9 49h.6v8.6h-1.1V51h-1.5v-.6h.4c.5 0 .8-.1 1.1-.4.3-.3.5-.6.5-1zM358 52.9h5.7v.8H358v-.8zM364.6 51.6c0-.8.2-1.4.7-1.9.4-.4 1-.6 1.6-.6.7 0 1.3.2 1.7.6.4.4.6.9.6 1.6 0 .7-.2 1.2-.5 1.5-.2.2-.5.4-.7.4.3.1.6.3.8.5.4.4.6.9.6 1.6 0 .7-.2 1.3-.7 1.8s-1.1.7-1.9.7c-.7 0-1.3-.2-1.7-.7s-.7-1-.7-1.6V55h1.1v.3c0 .4.1.8.4 1.1.2.2.5.3.8.3.4 0 .8-.1 1-.4.3-.3.4-.7.4-1.2s-.1-.8-.4-1.1c-.3-.3-.6-.4-.9-.4h-.4v-.8h.3c.3 0 .6-.1.8-.4.3-.3.4-.6.4-1.1 0-.4-.1-.8-.4-1-.2-.2-.5-.3-.8-.3-.3 0-.6.1-.8.3-.3.3-.4.7-.4 1.3h-.9zM373.7 49.1h1.1v5.5h1v.9h-1v2.2h-1.1v-2.2h-3.3v-1l3.3-5.4zm0 1.8l-2.2 3.6h2.2v-3.6zM376.4 52.9h5.7v.8h-5.7v-.8zM383.4 49.2h4.3v.9h-3.3v.1c0 .6-.1 1.2-.1 1.8v.3c.4-.4.9-.6 1.4-.6.7 0 1.2.2 1.6.6.5.5.7 1.1.7 2 0 1.1-.3 2-.9 2.6-.5.5-1 .7-1.7.7s-1.2-.2-1.6-.6c-.4-.4-.7-1.1-.8-1.9h1.1c.1.6.2 1.1.5 1.3.2.2.4.3.7.3.4 0 .7-.1.9-.3.4-.4.5-1 .5-1.8s-.1-1.4-.4-1.7c-.2-.2-.4-.3-.7-.3-.4 0-.7.2-1 .4l-.4.4h-1v-.3l.2-3.8v-.1z"/></g></svg>