<svg version="1.1" id="レイヤー_1" xmlns="http://www.w3.org/2000/svg" x="0" y="0" viewBox="0 0 339 80" style="enable-background:new 0 0 339 80" xml:space="preserve"><style>.st0{fill:#b89084}.st1{fill-rule:evenodd;clip-rule:evenodd;fill:#f3ebe8}</style><path class="st0" d="M110.8 33.4c.1.2.1.3.1.4 0 .1 0 .2-.1.3-.3.1-.5.1-.7.1h-.8c-.5 0-.9.1-1.2.3-.2.1-.3.3-.4.5l-.2 1.9.1 8.3c0 3 .1 4.9.3 5.7.2.7.5 1.4 1 1.8.4.5 1.1.9 2 1.2.9.3 1.8.5 2.6.5 1.9 0 3.4-.3 4.4-.8 1-.5 1.7-1.3 2.2-2.3.4-1 .7-2.4.7-4.4 0-.1 0-.5-.1-1.3v-2.5l-.3-4.8c-.1-1.6-.2-2.6-.3-2.9-.1-.3-.3-.5-.5-.7-.4-.3-1.3-.6-2.5-.8-.1-.2-.1-.3-.1-.5.4 0 .9-.1 1.3-.1s.9 0 1.4.1c.7.1 1.1.1 1.2.1l2.7-.1h.5v.6c-1.4.2-2.2.4-2.5.6-.3.2-.4.7-.4 1.3 0 .3 0 1.1.1 2.3l.1 3.5v1.4l.1 1.7c0 2.2-.1 3.7-.2 4.5-.2 1.1-.4 2-.8 2.6-.3.6-.8 1.2-1.4 1.8-.6.5-1.5.9-2.5 1.3-1 .3-2.1.5-3.1.5-1.6 0-2.8-.1-3.5-.3-1.3-.4-2.3-.9-3.1-1.5a5.4 5.4 0 0 1-1.6-1.9c-.4-.8-.6-2-.6-3.6V47l-.1-4.7.1-3.8V36c0-.6-.1-1.1-.3-1.4-.1-.2-.3-.3-.5-.3h-1c-.7 0-1.2-.1-1.4-.2 0-.1-.1-.2-.1-.3 0-.1 0-.2.1-.2.1-.1.3-.1.5-.1h4.2l4.6-.1zM126.1 55l-.1-.2c0-.1.1-.2.2-.4l1-.2 1.4-.3c.1-.1.2-.1.2-.2.1-.1.1-.6.1-1.3 0-3.8 0-6-.1-6.6 0-.6-.1-1-.3-1.1-.2-.2-.6-.3-1.2-.4-.4-.1-.7-.1-.9-.2l.1-.5c1.2-.5 2-.9 2.4-1.2.6-.5 1-1.2 1.4-2h.6c.1.6.1 1.8.1 3.7v.6c.4-.8 1-1.5 1.6-2.1l.4-.4c.2-.2.3-.3.5-.4.8-.5 1.4-.7 1.7-.7.5 0 .9.2 1.2.5.3.3.5.7.5 1.2 0 .4-.1.7-.3.9-.3.3-.6.4-1 .4-.2 0-.5-.1-1.1-.3-.5-.2-.9-.3-1-.3-.3 0-.5.1-.7.2-.3.2-.7.8-1.1 1.5-.3.6-.5 1.1-.5 1.6l.1 2.8v3.3c0 .4.1.6.1.7 0 .1.2.2.3.3 1.2.1 1.9.2 2.1.2h.4c.5 0 .8.1 1 .2.1.1.2.1.2.3 0 .1 0 .2-.1.3H130l-.9.1h-3zM137.4 33.9c0-.2 0-.4.1-.6 1.2-.2 2.5-.5 3.9-1h.4c.1.2.1.3.1.4v10.4l1.4-.5c.1 0 .6-.2 1.4-.4 1-.2 1.6-.3 1.8-.3 1.1 0 2.1.2 3 .5.5.2 1.1.6 1.6 1.1s.9 1.1 1.2 1.7c.4 1.1.7 2 .7 2.8 0 1.2-.1 2.1-.2 2.5-.4 1.1-.8 2-1.4 2.7-.5.6-1.3 1.2-2.3 1.7-1 .5-2 .7-3.1.7-1 0-2-.2-2.9-.6-.9-.4-1.4-.6-1.5-.6-.3 0-.8.5-1.3 1.4h-.5c0-.7-.1-1.7-.1-2.8v-8.2l.1-1.7v-4.6c0-1.9-.1-3.1-.3-3.4-.3-.4-1-.8-2.1-1.2zm8 20.7c1.7 0 3-.5 3.9-1.4.9-1 1.3-2.4 1.3-4.3 0-1.7-.5-3.1-1.5-4.2s-2.3-1.6-3.7-1.6c-1.1 0-2 .2-2.7.5-.4.2-.7.4-.7.6-.1.2-.1 1.4-.1 3.6 0 2.6.1 4.2.2 4.6.2.7.5 1.2 1 1.5.8.4 1.5.7 2.3.7zM168 52.7c.1.1.1.3.1.3 0 .2-.1.5-.4.9-.3.6-.7 1-1.2 1.2-.3.2-.6.3-1.1.3-.8 0-1.4-.2-1.8-.7-.2-.3-.4-.8-.5-1.6l-1.9 1.3c-.7.4-1.2.6-1.5.7-.6.1-1.2.2-2 .2-.6 0-1-.2-1.4-.5-.3-.3-.5-.8-.5-1.3 0-.8.5-1.7 1.4-2.8s2.2-2 3.9-2.6c1.1-.5 1.8-.8 2.1-.9V46c0-1.4-.2-2.4-.6-2.9s-1-.8-1.7-.8c-.8 0-1.5.3-2.2.9-.4.4-.7 1.1-.9 2.1-.1.3-.2.6-.4.9-.5.3-.9.5-1.2.5-.2 0-.5-.1-.7-.2-.1-.1-.2-.2-.2-.3 0-.3.3-.9.9-2 .6-1 1.4-1.8 2.4-2.3.9-.5 1.8-.8 2.5-.8 1 0 1.7.1 2.1.3.5.2.9.5 1.2.9.4.4.6.9.7 1.4 0 .2.1 1.1.1 2.6l-.1 2.7v3.3c0 .4.1.7.3.9.2.2.5.3.8.3.4 0 .8-.2 1.1-.6l.2-.3c.2.2.3.2.5.1zm-4.9-.5c.1-1.4.1-2.4.1-3 0-.3 0-.7-.1-1.2-.8.3-1.6.7-2.4 1.2-.8.5-1.5 1.2-2 1.9-.4.5-.5 1-.5 1.5 0 .4.1.8.4 1.1.3.3.7.4 1.1.4.3 0 .8-.1 1.3-.4.7-.3 1.4-.8 2.1-1.5zM169 54.4c.3-.1.6-.1 1-.2.7-.1 1.1-.2 1.3-.4.1-.1.2-.4.2-.9v-6.6c0-.7-.1-1.1-.3-1.3-.3-.3-.9-.5-1.7-.7v-.6c.8-.2 1.4-.5 1.9-.9.6-.5 1.2-1.2 1.6-2.1h.6c0 .5.1.9.1 1.1V43.2c.1-.1.3-.2.5-.3.7-.5 1.4-.9 2.1-1.2.7-.3 1.3-.5 1.9-.7.3-.1.7-.1 1.2-.1.9 0 1.7.2 2.4.7.7.5 1.1 1.1 1.3 1.7.2.7.3 2 .3 4V52c0 .8 0 1.3.1 1.5.1.1.2.3.4.4 1.1.1 1.7.3 1.9.5v.1c0 .1 0 .3-.1.4h-2.5l-2.2.1h-2.2l-.1-.4c0-.1 0-.2.1-.3.3-.1.7-.2 1.3-.3.3 0 .5-.1.7-.1.1 0 .3-.1.5-.3.1-.3.2-.5.2-.7v-.5c0-.5-.1-1.8-.1-3.9v-2.2c0-1.4-.3-2.4-.9-3-.6-.5-1.4-.8-2.3-.8-.8 0-1.5.2-2.2.5-.7.3-1.4.8-2.1 1.5v1.4l.1 3.7c0 1.9 0 3.1.1 3.6 0 .2.1.3.1.4.1.1.3.2.5.2.3.1.6.1.9.2.4.1.6.2.7.2.2.1.4.2.5.3v.3H175l-4 .2h-2v-.2c-.1-.1 0-.2 0-.4zM203.6 39.5c-1.4-1.7-2.2-3-2.6-3.9-.4-.8-.6-1.6-.6-2.4 0-1.3.5-2.4 1.6-3.4s2.6-1.4 4.5-1.4c1.8 0 3.2.5 4.2 1.4 1 .9 1.5 2.1 1.5 3.5 0 1.3-.3 2.4-1 3.3-.7.9-1.8 1.7-3.3 2.3.5.7 1.3 1.7 2.4 3 .4.4.7.8.8 1l3.7 4.6c1.2-1.4 2.1-2.7 2.7-3.8.6-1.1.9-2 .9-2.6 0-.4-.1-.8-.4-1.1-.3-.3-.7-.5-1.4-.7-.1-.1-.1-.3-.1-.3v-.2l2.5-.2c.5-.1 1.2-.1 2.2-.2.9 0 2.2-.1 3.9-.2v.3c0 .1 0 .2-.1.4-1 .4-1.9.9-2.6 1.5-.7.6-1.8 1.7-3.3 3.4-1.5 1.7-2.7 3.3-3.8 4.7 1.8 2.2 3.1 3.6 3.9 4.1.7.5 1.5.8 2.4.8.9 0 1.8-.3 2.5-.8.5-.4.8-.5 1-.5.1 0 .2 0 .4.1-.3 1.4-.6 2.2-.9 2.4-1.1.9-2.3 1.4-3.6 1.4-.8 0-1.6-.1-2.3-.4-.7-.3-1.4-.6-2.2-1.2-.4-.3-1.2-1-2.2-2-.7-.6-1.1-1-1.3-1.2-1.2 1.2-2 2-2.6 2.4-1 .7-2.1 1.3-3.3 1.7-1.2.4-2.5.6-4.1.6-1.9 0-3.4-.4-4.7-1.2-1.2-.8-2.1-1.8-2.7-3-.6-1.2-.8-2.4-.8-3.6 0-.9.2-1.7.5-2.5s.7-1.5 1.3-2.1c.5-.6 1.2-1.2 2.1-1.8.3-.2 1.1-.6 2.2-1.2 1-.6 1.8-.8 2.7-1zm9 10.6-.2-.2-.1-.1-4.9-5.8c-.6-.7-1.7-2-3.3-3.8-1.8.7-3.2 1.7-4.1 2.9-.9 1.3-1.4 2.6-1.4 4 0 .4.1.9.4 1.7.2.7.7 1.4 1.3 2.1.6.7 1.4 1.2 2.4 1.6 1 .4 2.1.6 3.3.6 1.4 0 2.7-.3 3.9-.8 1.1-.7 2.1-1.4 2.7-2.2zm-5.5-11.9c.8-.3 1.5-.9 1.9-1.8.5-.8.7-1.7.7-2.6 0-1.4-.3-2.4-1-3.2-.6-.7-1.5-1.1-2.4-1.1-.9 0-1.6.3-2.2.8-.6.5-.8 1.2-.8 1.9 0 .8.3 1.6.9 2.5.9 1.3 1.8 2.4 2.9 3.5zM259.9 34.6l.2 2.6c.1.8.1 1.3.1 1.6l-.5.1c-.8-1.7-1.7-3-2.8-3.8-1.1-.9-2.5-1.3-4.1-1.3-2 0-3.5.2-4.6.7-1.6.7-2.9 1.9-4.1 3.6-1.1 1.7-1.7 3.7-1.7 6.1 0 1.4.2 2.6.6 3.7.4 1.1 1 2.1 1.8 3.1.8.9 1.6 1.8 2.7 2.5.7.5 1.5.8 2.4 1 .5.1 1.3.2 2.4.2.7 0 1.4-.1 2.2-.3.8-.2 1.4-.4 1.8-.8.4-.3.7-.7.8-1.1s.2-1.2.2-2.4c0-1.9-.1-3.1-.4-3.4-.3-.3-1.1-.5-2.4-.6l-.5-.1h-.5c-.1 0-.2 0-.3-.1l-.3-.4c0-.1 0-.1.1-.2.6-.1 1.8-.1 3.8-.1h2.1l1.7.1h2.7c.1 0 .1 0 .2.1v.1c0 .1 0 .3-.1.5-.5.1-.8.2-1.1.2h-1.1c-.4 0-.7.1-.9.4-.1.1-.2.5-.2 1.3v2.2c0 1.5-.1 2.5-.2 2.9-.1.2-.2.5-.4.7-.2.2-.7.4-1.3.7-1 .4-1.9.7-2.7.8-1.5.3-2.9.4-4.3.4-2.2 0-4-.3-5.4-.8-1.4-.6-2.6-1.4-3.7-2.4-1-1-1.8-2-2.2-3.1-.7-1.5-1-3.1-1-4.6 0-2 .5-3.9 1.6-5.8 1-1.9 2.7-3.4 5-4.6 1.6-.8 3.8-1.2 6.6-1.2 1.9 0 3.5.2 4.7.5 1.5.2 2.4.6 3.1 1zM277.7 52.7c.1.1.1.3.1.3 0 .2-.1.5-.4.9-.3.6-.7 1-1.2 1.2-.3.2-.6.3-1.1.3-.8 0-1.4-.2-1.8-.7-.2-.3-.4-.8-.5-1.6l-1.9 1.3c-.7.4-1.2.6-1.5.7-.6.1-1.2.2-2 .2-.6 0-1-.2-1.4-.5-.3-.3-.5-.8-.5-1.3 0-.8.5-1.7 1.4-2.8s2.2-2 3.9-2.6c1.1-.5 1.8-.8 2.1-.9V46c0-1.4-.2-2.4-.6-2.9s-1-.8-1.7-.8c-.8 0-1.5.3-2.2.9-.4.4-.7 1.1-.9 2.1-.1.3-.2.6-.4.9-.5.3-.9.5-1.2.5-.2 0-.5-.1-.7-.2-.1-.1-.2-.2-.2-.3 0-.3.3-.9.9-2 .6-1 1.4-1.8 2.4-2.3.9-.5 1.8-.8 2.5-.8 1 0 1.7.1 2.1.3.5.2.9.5 1.2.9.4.4.6.9.7 1.4 0 .2.1 1.1.1 2.6l-.1 2.7v3.3c0 .4.1.7.3.9.2.2.5.3.8.3.4 0 .8-.2 1.1-.6l.2-.3c.2.2.3.2.5.1zm-4.9-.5c.1-1.4.1-2.4.1-3 0-.3 0-.7-.1-1.2-.8.3-1.6.7-2.4 1.2-.8.5-1.5 1.2-2 1.9-.4.5-.5 1-.5 1.5 0 .4.1.8.4 1.1.3.3.7.4 1.1.4.3 0 .8-.1 1.3-.4.7-.3 1.4-.8 2.1-1.5zM278.7 55l-.1-.2c0-.1.1-.2.2-.4l1-.2 1.4-.3c.1-.1.2-.1.2-.2.1-.1.1-.6.1-1.3 0-3.8 0-6-.1-6.6 0-.6-.1-1-.3-1.1s-.6-.3-1.2-.4c-.4-.1-.7-.1-.9-.2l.1-.5c1.2-.5 2-.9 2.4-1.2.6-.5 1-1.2 1.4-2h.6c.1.6.1 1.8.1 3.7v.6c.4-.8 1-1.5 1.6-2.1l.4-.4c.2-.2.3-.3.5-.4.8-.5 1.4-.7 1.7-.7.5 0 .9.2 1.2.5.3.3.5.7.5 1.2 0 .4-.1.7-.3.9-.3.3-.6.4-1 .4-.2 0-.5-.1-1.1-.3-.5-.2-.9-.3-1-.3-.3 0-.5.1-.7.2-.3.2-.7.8-1.1 1.5-.3.6-.5 1.1-.5 1.6l.1 2.8v3.3c0 .4.1.6.1.7 0 .1.2.2.3.3 1.2.1 1.9.2 2.1.2h.4c.5 0 .8.1 1 .2.1.1.2.1.2.3 0 .1 0 .2-.1.3h-5.3l-.9.1h-3zM301.8 42.8v-6.2c0-1-.1-1.7-.3-2-.2-.3-.9-.6-2-.9-.1 0-.2-.1-.4-.1V33c1.5-.2 2.8-.4 3.9-.8h.9c0 .8.1 1.6.1 2.6l-.1 6.5.1 7.3-.1 3.9c0 .8.1 1.2.2 1.3.2.2.7.3 1.5.4h.6v.6c-.3.1-.7.2-1.1.2l-2.4.5c-.4.1-.6.1-.9.1V54c-.2.1-.5.2-.9.3-1.7.7-3.4 1.1-4.8 1.1-.9 0-1.8-.3-2.7-.9-.9-.6-1.6-1.4-2.1-2.4s-.7-2.1-.7-3.2c0-1 .2-1.9.5-2.8.3-.9.7-1.6 1.3-2.2.3-.4.8-.8 1.4-1.1.6-.4 1.1-.6 1.5-.7 1-.3 1.7-.4 2-.4 1.5 0 2.8.2 3.7.7.4.2.6.4.8.4zm0 10.4c0-.7.1-2.3.1-4.6 0-2-.1-3.2-.3-3.8s-.6-1-1.4-1.5c-.7-.5-1.6-.7-2.5-.7-1.3 0-2.4.5-3.3 1.5-.9 1-1.3 2.5-1.3 4.4 0 1.7.5 3.1 1.4 4.1 1 1 2.2 1.5 3.6 1.5.8 0 1.6-.1 2.3-.3.7-.2 1.2-.4 1.4-.6zM320 46.1h-8c-.5 0-1 0-1.6.1-.1.3-.2.6-.2.7V48.1c0 .7.2 1.5.6 2.5.4 1 1 1.7 1.8 2.3.8.5 1.8.8 3 .8.6 0 1.1-.1 1.5-.2.4-.1.9-.4 1.6-.9l1.2-1 .1.7v.3c-.5.6-1.1 1.2-1.9 1.7-.8.5-1.6.8-2.4 1.1-.4.1-1 .2-1.9.2-.8 0-1.6-.2-2.4-.5-1.1-.5-2-1.3-2.7-2.4-.7-1.1-1-2.4-1-4 0-.5.1-1.1.3-1.9.2-.8.5-1.6 1-2.5.3-.6.7-1.1 1.2-1.5.7-.5 1.3-.9 1.8-1.1.7-.3 1.6-.5 2.5-.5 1 0 1.9.2 2.6.6.9.5 1.6 1.2 2 1.9.4.8.7 1.5.7 2.2v.2zm-9.4-.6h.8c.6 0 2.3-.1 5.1-.3.4 0 .7-.1.8-.1.2-.2.3-.4.3-.6 0-.3-.1-.7-.3-1.2-.2-.4-.6-.8-1-1-.5-.2-1-.4-1.6-.4-1.3 0-2.3.5-3.1 1.5-.7.8-1 1.5-1 2.1zM321.7 54.4c.3-.1.6-.1 1-.2.7-.1 1.1-.2 1.3-.4.1-.1.2-.4.2-.9v-6.6c0-.7-.1-1.1-.3-1.3-.3-.3-.9-.5-1.7-.7v-.6c.8-.2 1.4-.5 1.9-.9.6-.5 1.2-1.2 1.6-2.1h.6c0 .5.1.9.1 1.1V43.2c.1-.1.3-.2.5-.3.7-.5 1.4-.9 2.1-1.2.7-.3 1.3-.5 1.9-.7.3-.1.7-.1 1.2-.1.9 0 1.7.2 2.4.7.7.5 1.1 1.1 1.3 1.7.2.7.3 2 .3 4V52c0 .8 0 1.3.1 1.5.1.1.2.3.4.4 1.1.1 1.7.3 1.9.5v.1c0 .1 0 .3-.1.4h-2.5l-2.2.1h-2.2l-.1-.4c0-.1 0-.2.1-.3.3-.1.7-.2 1.3-.3.3 0 .5-.1.7-.1.1 0 .3-.1.5-.3.1-.3.2-.5.2-.7v-.5c0-.5-.1-1.8-.1-3.9v-2.2c0-1.4-.3-2.4-.9-3-.6-.5-1.4-.8-2.3-.8-.8 0-1.5.2-2.2.5-.7.3-1.4.8-2.1 1.5v1.4l.1 3.7c0 1.9 0 3.1.1 3.6 0 .2.1.3.1.4.1.1.3.2.5.2.3.1.6.1.9.2.4.1.6.2.7.2.2.1.4.2.5.3v.3h-1.8l-3.6-.1h-2v-.2c-.5.2-.5.1-.4-.1zM111.9 72.2c1.7 2.1 4.9 3.8 7.8 4.5v.2c-.5.1-.9.5-1.1 1-2.8-1-5.5-3-7-5.6V78c0 .2-.5.5-1 .5h-.2v-5.3c-1.9 2.1-4.6 3.8-7.7 4.9l-.2-.3c2.9-1.4 5.4-3.4 7-5.6h-3v.7c0 .1-.5.4-1 .4h-.2v-7.4l1.3.6h3.8v-1.9h-7.3l-.1-.5h7.5v-2.5l1.9.2c-.1.3-.2.4-.7.5V64h4.8l1-1.2s1.1.9 1.8 1.5c-.1.2-.3.3-.5.3h-7.1v1.9h3.8l.7-.8 1.5 1.2c-.1.1-.4.3-.8.4v5.6c0 .1-.6.4-1.1.4h-.2v-.9h-3.7zm-5.5-5.2v2h3.9v-2h-3.9zm0 4.7h3.9v-2.1h-3.9v2.1zm5.1-4.7v2h3.9v-2h-3.9zm3.9 4.7v-2.1h-3.9v2.1h3.9zM133.2 65.1c-.1.2-.4.2-.8.3-.2.8-.4 1.6-.7 2.4.5 3.7 2 7.2 6.6 9.5v.2c-.6.1-1 .3-1.2 1-3.9-2.4-5.1-6.3-5.6-10-1.7 4.4-4.6 8-10.5 10l-.2-.3c6-2.6 9-7.3 10.3-13.1h-4.5c-1.3 2.8-3.1 5.1-5.1 6.6l-.2-.2c2.2-2.3 4.2-5.9 5.2-10.1l2 .6c-.1.2-.3.4-.7.4-.3.8-.5 1.5-.8 2.2h4.2l.8-.8 1.2 1.3zM144.8 64.3c3.9 2.2 2.8 4.8 1.7 3.8-.1-.4-.2-.8-.4-1.2-1.3.7-3 1.6-5.2 2.7-.1.2-.2.4-.4.5l-.9-1.4c.4-.1 1.1-.3 1.8-.6v-5.7l1.5.7c1.3-.5 2.6-1.1 3.3-1.6l1.4 1.2c-.2.2-.5.2-.9 0-1 .3-2.7.7-4.2 1v4.1c1-.3 2.1-.7 3.3-1.2-.4-.8-.9-1.6-1.4-2.2l.4-.1zm8.5 5.6 1.5 1.2c-.1.1-.4.3-.8.4V78c0 .1-.6.4-1 .4h-.2v-1.1h-9.4v.8c0 .1-.5.4-1 .4h-.2v-8.4l1.3.6h9.1l.7-.8zm-9.9 1.3v2.5h4.1v-2.5h-4.1zm0 5.6h4.1v-2.5h-4.1v2.5zm12.9-13.6c-.1.1-.4.2-.7.3-.2 3.2-.6 5-1.4 5.6-.4.4-1.1.5-1.7.5 0-.3-.1-.6-.3-.8-.2-.2-.8-.3-1.4-.4v-.3c.6.1 1.7.1 2.1.1.3 0 .5 0 .6-.2.4-.4.8-2 .9-4.7h-2.9c-.2 2.6-.9 5-5.1 6.7l-.2-.3c3.5-1.9 3.9-4.2 4-6.5h-2.4l-.2-.6h6.5l.7-.7 1.5 1.3zm-7.6 8v2.5h4.1v-2.5h-4.1zm4.1 5.6v-2.5h-4.1v2.5h4.1zM167.6 69c1.8 2.9 4.9 5.4 7.8 6.5v.2c-.5.1-.9.4-1.2 1-2.7-1.5-5.4-4.2-6.9-7.6V78c0 .2-.5.5-1 .5h-.3V70c-1.8 2.8-4.6 5.2-7.9 6.9l-.2-.3c3-1.9 5.7-4.8 7.2-7.6h-6.7l-.2-.5h7.7v-7l1.9.2c0 .3-.2.4-.6.5v6.3h5.2l.9-1.2s1.1.8 1.7 1.4c0 .2-.2.3-.5.3h-6.9zm-7.4-6.3c4.7 2.4 3.8 5.5 2.4 4.5-.3-1.4-1.6-3.2-2.6-4.3l.2-.2zm13.3.7c-.1.2-.4.3-.7.2-1.2 1.4-2.7 2.9-3.9 3.8l-.3-.2c.9-1.1 2.2-3 3.1-4.8l1.8 1zM192 65.6s1.1.8 1.7 1.4c-.1.2-.2.3-.5.3h-4.8l1.9.4c-.1.2-.3.4-.7.4-.5.8-1.4 1.8-2.3 2.6h3.2l.9-1.2s1 .8 1.7 1.4c-.1.2-.2.3-.5.3h-6.9v2.9h3.9l.9-1.2s1.1.8 1.7 1.4c-.1.2-.2.3-.5.3h-6.1v3.5c0 .1-.4.4-1.1.4h-.2v-3.8H178l-.2-.5h6.5v-2.9h-7.2l-.2-.5h9.7c.5-1 1.1-2.3 1.4-3.4h-11.4l-.1-.5h7.9v-2.5h-5.9l-.1-.5h6v-2.3l1.9.2c0 .2-.2.4-.6.5v1.6h3.5l.9-1.2s1 .8 1.7 1.4c-.1.2-.2.3-.5.3h-5.7v2.5h5.2l1.2-1.3zm-11 1.7c3.6 1.5 2.2 4.2.9 3 0-1-.6-2.2-1.2-2.9l.3-.1zM203 62.3l1.4 1.2c-.1.1-.4.3-.8.4v11.7c0 .1-.6.4-1 .4h-.2v-1.4h-5.3V76c0 .1-.4.4-.9.4h-.2v-14l1.2.6h5.1l.7-.7zm-5.8 1.3v4.8h2v-4.8h-2zm0 10.4h2v-5h-2v5zm3.1-10.4v4.8h2.2v-4.8h-2.2zm2.2 10.4v-5h-2.2v5h2.2zm8.4-11.8s1.1.8 1.7 1.4c-.1.2-.2.3-.5.3h-2.7v12.6c0 1-.2 1.7-2 1.9 0-.4-.2-.7-.4-.9-.3-.2-.8-.4-1.7-.5v-.3s2.1.1 2.5.1c.4 0 .5-.1.5-.4V63.9h-3.6l-.1-.6h5.6l.7-1.1z"/><path class="st1" d="m33.6 11.2-16.8 9.7 16.8-9.7L42 6.3zM33.6 11.2l-16.8 9.7zM42 6.3l-8.4 4.9L42 6.3z"/><path style="fill-rule:evenodd;clip-rule:evenodd;fill:#eadcd7" d="M50.4 30.6v48.5H33.6V40.3z"/><path class="st1" d="M84 30.6v48.5H67.2V40.3z"/><linearGradient id="SVGID_1_" gradientUnits="userSpaceOnUse" x1="62.696" y1="34.985" x2="85.398" y2="69.944"><stop offset=".044" style="stop-color:#000"/><stop offset=".095" style="stop-color:#272727"/><stop offset=".188" style="stop-color:#686868"/><stop offset=".276" style="stop-color:#9e9e9e"/><stop offset=".357" style="stop-color:#c8c8c8"/><stop offset=".43" style="stop-color:#e6e6e6"/><stop offset=".492" style="stop-color:#f8f8f8"/><stop offset=".536" style="stop-color:#fff"/></linearGradient><path style="fill-rule:evenodd;clip-rule:evenodd;fill:url(#SVGID_1_)" d="M84 30.6v48.5H67.2V40.3z"/><path style="fill-rule:evenodd;clip-rule:evenodd;fill:#ddc7bf" d="M16.8 20.9v58.2H0V30.6z"/><path class="st1" d="m58.8 16-42 24.3V20.9L42 6.3z"/><linearGradient id="SVGID_00000105413329315358597060000000372701324450040200_" gradientUnits="userSpaceOnUse" x1="11.759" y1="24.224" x2="54.897" y2="21.963"><stop offset="0" style="stop-color:#000"/><stop offset=".008" style="stop-color:#0a0a0a"/><stop offset=".055" style="stop-color:#3d3d3d"/><stop offset=".105" style="stop-color:#6b6b6b"/><stop offset=".157" style="stop-color:#939393"/><stop offset=".212" style="stop-color:#b4b4b4"/><stop offset=".27" style="stop-color:#d0d0d0"/><stop offset=".333" style="stop-color:#e5e5e5"/><stop offset=".403" style="stop-color:#f4f4f4"/><stop offset=".486" style="stop-color:#fcfcfc"/><stop offset=".613" style="stop-color:#fff"/></linearGradient><path style="fill-rule:evenodd;clip-rule:evenodd;fill:url(#SVGID_00000105413329315358597060000000372701324450040200_)" d="m58.8 16-42 24.3V20.9L42 6.3z"/><path class="st1" d="m84 30.6-16.8 9.7L50.4 50V30.6l16.8-9.7z"/><linearGradient id="SVGID_00000175290531525251086730000017369818909488185272_" gradientUnits="userSpaceOnUse" x1="42.457" y1="35.42" x2="76.046" y2="35.42"><stop offset=".086" style="stop-color:#000"/><stop offset=".103" style="stop-color:#0c0c0c"/><stop offset=".199" style="stop-color:#4b4b4b"/><stop offset=".294" style="stop-color:#828282"/><stop offset=".385" style="stop-color:#afafaf"/><stop offset=".473" style="stop-color:#d2d2d2"/><stop offset=".555" style="stop-color:#ebebeb"/><stop offset=".63" style="stop-color:#fafafa"/><stop offset=".69" style="stop-color:#fff"/></linearGradient><path style="fill-rule:evenodd;clip-rule:evenodd;fill:url(#SVGID_00000175290531525251086730000017369818909488185272_)" d="m84 30.6-16.8 9.7L50.4 50V30.6l16.8-9.7z"/><g id="XMLID_00000036250938435847174490000009357386978023346581_"><path id="XMLID_00000021829564987076383100000000378741142329835954_" class="st0" d="M112.9 15.7h1.5c.5 0 1.1.1 1.1.7v5.3s-1.7.6-4.8.6c-3.1 0-7.3-1.7-7.3-6.5 0-4.7 4.3-6.6 7.5-6.6 1.4 0 3.3.1 3.3.9v1.6c-1.2-1-1.7-1.2-3.6-1.2-1.9 0-5.2 1.2-5.2 5.2 0 3.9 4.5 6.3 8.2 4.8v-3c.1-.5 0-1.8-.7-1.8z"/><path id="XMLID_00000142159932583067653840000008407453739634881438_" class="st0" d="M136.2 22h3.9c-1.1-.4-1.5-1.7-1.9-2.7-.4-.9-3.2-7.9-3.5-8.8-.3-.9-.8-.9-1.1-.9h-2.2c1.1.4.5 1.1.3 1.7-.2.5-4 9.9-4 9.9-1.3-.4-4.6-5.2-4.6-5.2 4.4-1.3 3.7-6.4-.6-6.4h-4.9c1 .2.9 1.3.9 2.1v8.5c0 1.2-.4 1.5-.9 1.8h3.6c-1-.4-.7-1.5-.7-2v-9.2h1.9c1 0 1.8 1.3 1.8 2.1 0 1.4-1.1 1.9-2.2 2.3-1.1.4-.5 1.3 0 2s1.9 2.8 2.8 3.8c.9 1 1.6.9 2 .9h3.3c-1.3-.4-.6-1.4-.4-1.9.2-.5 1-2.6 1-2.6h4.9s.6 1.5 1.1 2.9c.5 1.5.1 1.7-.5 1.7zm-5.1-5.9 1.9-4.8 2 4.8h-3.9z"/><path id="XMLID_00000048495590147999221150000018348438094554849721_" class="st0" d="M175.7 22h3.9c-1.1-.4-1.5-1.7-1.9-2.7-.4-.9-3.2-7.9-3.5-8.8-.3-.9-.8-.9-1.1-.9h-2.3c1.1.4.5 1.1.3 1.7-.2.5-4 9.9-4 9.9-.3.6-.6.6-.9.8h3.3c-1.3-.4-.6-1.4-.4-1.9.2-.5 1-2.6 1-2.6h4.9s.6 1.5 1.1 2.9c.6 1.4.2 1.6-.4 1.6zm-5-5.9 1.9-4.8 2 4.8h-3.9z"/><path id="XMLID_00000131342824275054168010000011522425339616711099_" class="st0" d="M161.8 22.3c.5-.4.9-.7.9-2.2v-8.5c0-.7-.1-1.4-.9-1.7h3.5c-.4.3-.8.7-.8 1.6v8.6c0 .8-.2 1.9.8 2.2h-3.5z"/><path id="XMLID_00000011710921263281787590000004894292807140034720_" class="st0" d="M143.1 12.5v7.6c0 .8.1 1.9 1.1 2.2h-3.3c.5-.4.8-.7.8-2.2 0-1.4.1-7.9.1-8.5 0-.7-.1-1.4-.9-1.7h2.5l7.6 9.5v-7.8c0-.5.1-1.4-.9-1.8h3.4c-.4.3-1 .4-1 1.8v11.2s-.9.2-2.5-1.7c-1.6-1.8-6.9-8.6-6.9-8.6z"/><path id="XMLID_00000030444709563829412780000012176367361942340996_" class="st0" d="M164.7 31.9c-9.9-8.4-13.7-18.2-.1-31.7.4-.4.8-.2.5.2-6 6.8-12.6 17.7-.1 31 .1.3 0 .7-.3.5z"/></g></svg>